G04 #@! TF.GenerationSoftware,KiCad,Pcbnew,8.0.6*
G04 #@! TF.CreationDate,2025-03-20T20:00:07-07:00*
G04 #@! TF.ProjectId,Cymatics,43796d61-7469-4637-932e-6b696361645f,rev?*
G04 #@! TF.SameCoordinates,Original*
G04 #@! TF.FileFunction,Legend,Bot*
G04 #@! TF.FilePolarity,Positive*
%FSLAX46Y46*%
G04 Gerber Fmt 4.6, Leading zero omitted, Abs format (unit mm)*
G04 Created by KiCad (PCBNEW 8.0.6) date 2025-03-20 20:00:07*
%MOMM*%
%LPD*%
G01*
G04 APERTURE LIST*
%ADD10C,0.508000*%
%ADD11R,2.100000X2.100000*%
%ADD12C,2.100000*%
%ADD13C,1.000000*%
%ADD14C,2.500000*%
%ADD15R,1.700000X1.700000*%
%ADD16O,1.700000X1.700000*%
%ADD17R,1.600000X1.600000*%
%ADD18C,1.600000*%
G04 APERTURE END LIST*
D10*
X98385900Y-55550000D02*
G75*
G02*
X97623900Y-55550000I-381000J0D01*
G01*
X97623900Y-55550000D02*
G75*
G02*
X98385900Y-55550000I381000J0D01*
G01*
X98385900Y-62550000D02*
G75*
G02*
X97623900Y-62550000I-381000J0D01*
G01*
X97623900Y-62550000D02*
G75*
G02*
X98385900Y-62550000I381000J0D01*
G01*
X98385900Y-59050000D02*
G75*
G02*
X97623900Y-59050000I-381000J0D01*
G01*
X97623900Y-59050000D02*
G75*
G02*
X98385900Y-59050000I381000J0D01*
G01*
X133296100Y-99550000D02*
G75*
G02*
X132534100Y-99550000I-381000J0D01*
G01*
X132534100Y-99550000D02*
G75*
G02*
X133296100Y-99550000I381000J0D01*
G01*
X133296100Y-96050000D02*
G75*
G02*
X132534100Y-96050000I-381000J0D01*
G01*
X132534100Y-96050000D02*
G75*
G02*
X133296100Y-96050000I381000J0D01*
G01*
X147796100Y-55550000D02*
G75*
G02*
X147034100Y-55550000I-381000J0D01*
G01*
X147034100Y-55550000D02*
G75*
G02*
X147796100Y-55550000I381000J0D01*
G01*
X147796100Y-59050000D02*
G75*
G02*
X147034100Y-59050000I-381000J0D01*
G01*
X147034100Y-59050000D02*
G75*
G02*
X147796100Y-59050000I381000J0D01*
G01*
%LPC*%
D11*
X140250000Y-58550000D03*
D12*
X137710000Y-58550000D03*
D11*
X90750000Y-81500000D03*
D12*
X90750000Y-84040000D03*
D13*
X105550000Y-118837500D03*
X113550000Y-118837500D03*
D11*
X90750000Y-100500000D03*
D12*
X90750000Y-103040000D03*
X90750000Y-105580000D03*
X90750000Y-108120000D03*
X90750000Y-110660000D03*
X90750000Y-113200000D03*
D14*
X151120850Y-119108694D03*
D15*
X125036000Y-72650000D03*
D16*
X125036000Y-75190000D03*
X125036000Y-77730000D03*
X125036000Y-80270000D03*
X125036000Y-82810000D03*
X125036000Y-85350000D03*
X125036000Y-87890000D03*
X125036000Y-90430000D03*
X125036000Y-92970000D03*
X125036000Y-95510000D03*
X125036000Y-98050000D03*
X125036000Y-100590000D03*
D11*
X90750000Y-88460000D03*
D12*
X90750000Y-91000000D03*
X90750000Y-93540000D03*
X90750000Y-96080000D03*
D14*
X89120850Y-57108694D03*
D11*
X149710000Y-107090000D03*
D12*
X149710000Y-104550000D03*
D17*
X138710000Y-105550000D03*
D18*
X138710000Y-110550000D03*
D11*
X149710000Y-113820000D03*
D12*
X149710000Y-111280000D03*
D11*
X90750000Y-74230000D03*
D12*
X90750000Y-76770000D03*
D11*
X133050000Y-117550000D03*
D12*
X135590000Y-117550000D03*
X138130000Y-117550000D03*
X140670000Y-117550000D03*
X143210000Y-117550000D03*
D14*
X151120850Y-57108694D03*
D15*
X104710000Y-62490000D03*
D16*
X104710000Y-65030000D03*
X104710000Y-67570000D03*
X104710000Y-70110000D03*
X104710000Y-72650000D03*
X104710000Y-75190000D03*
X104710000Y-77730000D03*
X104710000Y-80270000D03*
X104710000Y-82810000D03*
X104710000Y-85350000D03*
X104710000Y-87890000D03*
X104710000Y-90430000D03*
X104710000Y-92970000D03*
X104710000Y-95510000D03*
X104710000Y-98050000D03*
X104710000Y-100590000D03*
D11*
X149710000Y-87630000D03*
D12*
X149710000Y-85090000D03*
X149710000Y-82550000D03*
D11*
X132790000Y-58550000D03*
D12*
X130250000Y-58550000D03*
D11*
X149710000Y-67590000D03*
D12*
X149710000Y-65050000D03*
X149710000Y-62510000D03*
D14*
X89120850Y-119108694D03*
D11*
X123130000Y-117550000D03*
D12*
X125670000Y-117550000D03*
X128210000Y-117550000D03*
D11*
X149710000Y-100050000D03*
D12*
X149710000Y-97510000D03*
X149710000Y-94970000D03*
X149710000Y-92430000D03*
D11*
X90750000Y-66730000D03*
D12*
X90750000Y-69270000D03*
D11*
X149710000Y-77630000D03*
D12*
X149710000Y-75090000D03*
X149710000Y-72550000D03*
%LPD*%
M02*
