M48
; DRILL file {KiCad 8.0.6} date 2025-02-02T12:22:07-0800
; FORMAT={-:-/ absolute / metric / decimal}
; #@! TF.CreationDate,2025-02-02T12:22:07-08:00
; #@! TF.GenerationSoftware,Kicad,Pcbnew,8.0.6
; #@! TF.FileFunction,Plated,1,2,PTH
FMAT,2
METRIC
; #@! TA.AperFunction,Plated,PTH,ViaDrill
T1C0.300
; #@! TA.AperFunction,Plated,PTH,ComponentDrill
T2C0.800
; #@! TA.AperFunction,Plated,PTH,ComponentDrill
T3C1.000
; #@! TA.AperFunction,Plated,PTH,ComponentDrill
T4C1.100
%
G90
G05
T1
X114.85Y-113.0
X115.5Y-67.5
X115.5Y-74.5
X115.5Y-115.0
X116.04Y-120.46
X117.0Y-84.6
X117.0Y-87.14
X117.0Y-96.04
X117.75Y-118.55
X117.75Y-127.85
X118.8Y-121.8
X118.95Y-117.25
X120.05Y-117.25
X121.1Y-109.4
X121.15Y-117.25
X121.41Y-107.03
X121.65Y-121.15
X122.2Y-110.5
X122.21Y-80.533
X122.21Y-86.051
X122.21Y-94.93
X122.25Y-117.25
X122.44Y-108.06
X123.0Y-75.5
X123.35Y-117.25
X123.844Y-77.844
X124.037Y-68.5
X124.5Y-79.462
X124.5Y-84.962
X124.5Y-91.992
X124.5Y-111.425
X125.5Y-114.5
X125.55Y-99.042
X125.55Y-117.25
X125.725Y-75.03
X126.962Y-68.5
X126.962Y-72.0
X127.75Y-117.25
X127.777Y-95.724
X127.837Y-73.837
X128.0Y-78.45
X128.0Y-104.912
X128.128Y-72.628
X129.047Y-90.276
X129.047Y-95.724
X129.05Y-86.224
X129.05Y-112.724
X130.0Y-99.042
X130.19Y-68.036
X131.46Y-72.964
X131.587Y-90.276
X132.35Y-118.3
X132.73Y-68.036
X132.865Y-77.276
X132.865Y-82.724
X132.865Y-103.776
X132.865Y-109.224
X133.25Y-127.85
X133.5Y-112.724
X133.55Y-86.224
X135.405Y-77.276
X135.405Y-103.776
X141.5Y-111.5
X142.15Y-111.0
X142.15Y-112.0
X142.5Y-122.5
X143.5Y-122.5
X144.5Y-103.58
X144.5Y-122.5
X145.0Y-77.55
X145.0Y-93.05
X145.0Y-108.0
X145.0Y-111.5
X148.999Y-97.445
X149.0Y-102.0
X149.036Y-81.905
X149.036Y-86.464
X150.463Y-77.04
X150.463Y-92.58
X150.65Y-108.072
X150.65Y-113.0
X151.92Y-113.0
X152.537Y-77.04
X152.537Y-92.58
X153.19Y-113.0
X153.926Y-96.175
X153.964Y-80.635
X154.46Y-108.072
X154.46Y-113.0
X155.73Y-113.0
X156.46Y-82.46
X157.0Y-113.0
X157.412Y-103.58
X157.545Y-88.034
X157.8Y-119.084
X158.27Y-108.072
X158.402Y-118.558
X159.5Y-67.5
X159.5Y-77.0
X159.5Y-97.04
X159.511Y-117.489
X160.5Y-116.5
X161.0Y-79.54
T2
X153.5Y-117.5
X153.5Y-122.5
T3
X119.5Y-74.44
X119.5Y-76.98
X119.5Y-79.52
X119.5Y-82.06
X119.5Y-84.6
X119.5Y-87.14
X119.5Y-89.68
X119.5Y-92.22
X119.5Y-94.76
X119.5Y-97.3
X119.5Y-99.84
X119.5Y-102.38
X119.5Y-104.92
X119.5Y-107.46
X119.5Y-110.0
X119.5Y-112.54
X139.826Y-84.6
X139.826Y-87.14
X139.826Y-89.68
X139.826Y-92.22
X139.826Y-94.76
X139.826Y-97.3
X139.826Y-99.84
X139.826Y-102.38
X139.826Y-104.92
X139.826Y-107.46
X139.826Y-110.0
X139.826Y-112.54
T4
X110.5Y-78.73
X110.5Y-81.27
X110.5Y-86.23
X110.5Y-88.77
X110.5Y-93.5
X110.5Y-96.04
X110.5Y-100.46
X110.5Y-103.0
X110.5Y-105.54
X110.5Y-108.08
X110.5Y-112.5
X110.5Y-115.04
X110.5Y-117.58
X110.5Y-120.12
X110.5Y-122.66
X110.5Y-125.2
X137.92Y-129.5
X140.46Y-129.5
X143.0Y-129.5
X145.04Y-70.5
X147.58Y-70.5
X147.84Y-129.5
X150.38Y-129.5
X152.5Y-70.5
X152.92Y-129.5
X155.04Y-70.5
X155.46Y-129.5
X158.0Y-129.5
X164.5Y-74.46
X164.5Y-77.0
X164.5Y-79.54
X164.5Y-84.5
X164.5Y-87.04
X164.5Y-89.58
X164.5Y-94.5
X164.5Y-97.04
X164.5Y-99.58
X164.5Y-104.38
X164.5Y-106.92
X164.5Y-109.46
X164.5Y-112.0
X164.5Y-116.5
X164.5Y-119.04
X164.5Y-123.23
X164.5Y-125.77
M30
