G04 #@! TF.GenerationSoftware,KiCad,Pcbnew,8.0.6*
G04 #@! TF.CreationDate,2025-02-02T12:21:57-08:00*
G04 #@! TF.ProjectId,Cymatics,43796d61-7469-4637-932e-6b696361645f,rev?*
G04 #@! TF.SameCoordinates,Original*
G04 #@! TF.FileFunction,Copper,L2,Bot*
G04 #@! TF.FilePolarity,Positive*
%FSLAX46Y46*%
G04 Gerber Fmt 4.6, Leading zero omitted, Abs format (unit mm)*
G04 Created by KiCad (PCBNEW 8.0.6) date 2025-02-02 12:21:57*
%MOMM*%
%LPD*%
G01*
G04 APERTURE LIST*
G04 #@! TA.AperFunction,ComponentPad*
%ADD10R,2.100000X2.100000*%
G04 #@! TD*
G04 #@! TA.AperFunction,ComponentPad*
%ADD11C,2.100000*%
G04 #@! TD*
G04 #@! TA.AperFunction,ComponentPad*
%ADD12R,1.700000X1.700000*%
G04 #@! TD*
G04 #@! TA.AperFunction,ComponentPad*
%ADD13O,1.700000X1.700000*%
G04 #@! TD*
G04 #@! TA.AperFunction,ComponentPad*
%ADD14R,1.600000X1.600000*%
G04 #@! TD*
G04 #@! TA.AperFunction,ComponentPad*
%ADD15C,1.600000*%
G04 #@! TD*
G04 #@! TA.AperFunction,ViaPad*
%ADD16C,0.600000*%
G04 #@! TD*
G04 #@! TA.AperFunction,Conductor*
%ADD17C,0.300000*%
G04 #@! TD*
G04 APERTURE END LIST*
D10*
X155040000Y-70500000D03*
D11*
X152500000Y-70500000D03*
D10*
X110500000Y-93500000D03*
D11*
X110500000Y-96040000D03*
D10*
X110500000Y-112500000D03*
D11*
X110500000Y-115040000D03*
X110500000Y-117580000D03*
X110500000Y-120120000D03*
X110500000Y-122660000D03*
X110500000Y-125200000D03*
D12*
X139826000Y-84600000D03*
D13*
X139826000Y-87140000D03*
X139826000Y-89680000D03*
X139826000Y-92220000D03*
X139826000Y-94760000D03*
X139826000Y-97300000D03*
X139826000Y-99840000D03*
X139826000Y-102380000D03*
X139826000Y-104920000D03*
X139826000Y-107460000D03*
X139826000Y-110000000D03*
X139826000Y-112540000D03*
D10*
X110500000Y-100460000D03*
D11*
X110500000Y-103000000D03*
X110500000Y-105540000D03*
X110500000Y-108080000D03*
D10*
X164500000Y-119040000D03*
D11*
X164500000Y-116500000D03*
D14*
X153500000Y-117500000D03*
D15*
X153500000Y-122500000D03*
D10*
X164500000Y-125770000D03*
D11*
X164500000Y-123230000D03*
D10*
X110500000Y-86230000D03*
D11*
X110500000Y-88770000D03*
D10*
X147840000Y-129500000D03*
D11*
X150380000Y-129500000D03*
X152920000Y-129500000D03*
X155460000Y-129500000D03*
X158000000Y-129500000D03*
D12*
X119500000Y-74440000D03*
D13*
X119500000Y-76980000D03*
X119500000Y-79520000D03*
X119500000Y-82060000D03*
X119500000Y-84600000D03*
X119500000Y-87140000D03*
X119500000Y-89680000D03*
X119500000Y-92220000D03*
X119500000Y-94760000D03*
X119500000Y-97300000D03*
X119500000Y-99840000D03*
X119500000Y-102380000D03*
X119500000Y-104920000D03*
X119500000Y-107460000D03*
X119500000Y-110000000D03*
X119500000Y-112540000D03*
D10*
X164500000Y-99580000D03*
D11*
X164500000Y-97040000D03*
X164500000Y-94500000D03*
D10*
X147580000Y-70500000D03*
D11*
X145040000Y-70500000D03*
D10*
X164500000Y-79540000D03*
D11*
X164500000Y-77000000D03*
X164500000Y-74460000D03*
D10*
X137920000Y-129500000D03*
D11*
X140460000Y-129500000D03*
X143000000Y-129500000D03*
D10*
X164500000Y-112000000D03*
D11*
X164500000Y-109460000D03*
X164500000Y-106920000D03*
X164500000Y-104380000D03*
D10*
X110500000Y-78730000D03*
D11*
X110500000Y-81270000D03*
D10*
X164500000Y-89580000D03*
D11*
X164500000Y-87040000D03*
X164500000Y-84500000D03*
D16*
X159500000Y-77000000D03*
X145000000Y-77550000D03*
X132865000Y-82724150D03*
X135405000Y-77275850D03*
X145000000Y-111500000D03*
X130000000Y-99041625D03*
X117750000Y-127850000D03*
X158270000Y-108072400D03*
X129050000Y-86224150D03*
X157000000Y-113000000D03*
X153190000Y-113000000D03*
X152537500Y-92580000D03*
X132350000Y-118300000D03*
X157412500Y-103580000D03*
X150650000Y-108072400D03*
X120050000Y-117250000D03*
X127750000Y-117250000D03*
X133250000Y-127850000D03*
X122250000Y-117250000D03*
X154460000Y-108072400D03*
X153963800Y-80635000D03*
X150462500Y-77040000D03*
X133550000Y-86224150D03*
X118950000Y-117250000D03*
X132865000Y-103775850D03*
X115500000Y-67500000D03*
X129046625Y-90275850D03*
X133500000Y-112724150D03*
X130190000Y-68036200D03*
X132865000Y-77275850D03*
X129050000Y-112724150D03*
X153926300Y-96175000D03*
X128000000Y-104912500D03*
X157544894Y-88034150D03*
X124500000Y-111425000D03*
X125500000Y-114500000D03*
X117750000Y-118550000D03*
X150462500Y-92580000D03*
X159500000Y-67500000D03*
X128000000Y-78450000D03*
X124500000Y-91991625D03*
X125550000Y-99041625D03*
X124037500Y-68500000D03*
X152537500Y-77040000D03*
X124500000Y-84962500D03*
X123000000Y-75500000D03*
X128127728Y-72627728D03*
X124500000Y-79462500D03*
X125725000Y-75030456D03*
X161000000Y-79540000D03*
X156460000Y-82460000D03*
X149036200Y-86463800D03*
X149036200Y-81905000D03*
X126962500Y-68500000D03*
X126962500Y-72000000D03*
X131460000Y-72963800D03*
X132730000Y-68036200D03*
X160500000Y-116500000D03*
X155730000Y-113000000D03*
X154460000Y-113000000D03*
X159511447Y-117488553D03*
X118800000Y-121800000D03*
X123350000Y-117250000D03*
X117000000Y-87140000D03*
X125550000Y-117250000D03*
X114850000Y-113000000D03*
X121650000Y-121150000D03*
X117000000Y-84600000D03*
X115500000Y-115000000D03*
X121150000Y-117250000D03*
X116040380Y-120459620D03*
X143500000Y-122500000D03*
X142150000Y-112000000D03*
X122200000Y-110500000D03*
X121100000Y-109400000D03*
X121410000Y-107030000D03*
X122440000Y-108060000D03*
X144500000Y-122500000D03*
X142150000Y-111000000D03*
X142500000Y-122500000D03*
X141500000Y-111500000D03*
X151920000Y-113000000D03*
X158401637Y-118557772D03*
X157799502Y-119084496D03*
X150650000Y-113000000D03*
X129046625Y-95724150D03*
X131586625Y-90275850D03*
X159500000Y-97040000D03*
X145000000Y-93050000D03*
X135405000Y-103775850D03*
X132865000Y-109224150D03*
X122210000Y-86050760D03*
X122210000Y-94930000D03*
X115500000Y-74500000D03*
X123843674Y-77843674D03*
X127837348Y-73837348D03*
X122210000Y-80532943D03*
X149000000Y-102000000D03*
X148998700Y-97445000D03*
X144500000Y-103580000D03*
X145000000Y-108000000D03*
X127776625Y-95724150D03*
X117000000Y-96040000D03*
D17*
X145442614Y-77992614D02*
X145000000Y-77550000D01*
X158507386Y-77992614D02*
X145442614Y-77992614D01*
X159500000Y-77000000D02*
X158507386Y-77992614D01*
X135405000Y-77275850D02*
X135405000Y-78095000D01*
X135405000Y-78095000D02*
X132865000Y-80635000D01*
X132865000Y-80635000D02*
X132865000Y-82724150D01*
X123000000Y-75500000D02*
X123000000Y-77962500D01*
X128127728Y-72627728D02*
X125725000Y-75030456D01*
X123000000Y-77962500D02*
X124500000Y-79462500D01*
X159380000Y-79540000D02*
X161000000Y-79540000D01*
X156460000Y-82460000D02*
X159380000Y-79540000D01*
X149036200Y-86463800D02*
X149036200Y-81905000D01*
X131420000Y-70500000D02*
X126962500Y-70500000D01*
X132730000Y-68036200D02*
X132730000Y-69190000D01*
X126962500Y-70500000D02*
X126962500Y-72000000D01*
X131460000Y-70540000D02*
X131460000Y-72963800D01*
X132730000Y-69190000D02*
X131420000Y-70500000D01*
X131460000Y-70540000D02*
X131420000Y-70500000D01*
X126962500Y-68500000D02*
X126962500Y-70500000D01*
X160500000Y-116500000D02*
X159230000Y-116500000D01*
X159230000Y-116500000D02*
X155730000Y-113000000D01*
X156480000Y-115000000D02*
X154480000Y-113000000D01*
X154480000Y-113000000D02*
X154460000Y-113000000D01*
X159511447Y-117488553D02*
X157022894Y-115000000D01*
X157022894Y-115000000D02*
X156480000Y-115000000D01*
X118800000Y-121800000D02*
X123350000Y-117250000D01*
X117000000Y-87140000D02*
X115742537Y-87140000D01*
X115742537Y-87140000D02*
X114112537Y-88770000D01*
X114112537Y-88770000D02*
X110500000Y-88770000D01*
X114850000Y-113230000D02*
X110500000Y-117580000D01*
X114850000Y-113000000D02*
X114850000Y-113230000D01*
X121650000Y-121150000D02*
X125550000Y-117250000D01*
X117000000Y-84600000D02*
X115850000Y-84600000D01*
X115850000Y-84600000D02*
X112520000Y-81270000D01*
X112520000Y-81270000D02*
X110500000Y-81270000D01*
X117940380Y-120459620D02*
X116040380Y-120459620D01*
X121150000Y-117250000D02*
X117940380Y-120459620D01*
X115500000Y-115120000D02*
X110500000Y-120120000D01*
X115500000Y-115000000D02*
X115500000Y-115120000D01*
X142150000Y-112000000D02*
X143000000Y-111150000D01*
X142000000Y-99474000D02*
X139826000Y-97300000D01*
X143500000Y-122500000D02*
X143500000Y-122580760D01*
X143000000Y-106679788D02*
X142000000Y-105679788D01*
X143000000Y-111150000D02*
X143000000Y-106679788D01*
X143500000Y-122580760D02*
X148419240Y-127500000D01*
X142000000Y-105679788D02*
X142000000Y-99474000D01*
X151000000Y-127500000D02*
X153000000Y-129500000D01*
X148419240Y-127500000D02*
X151000000Y-127500000D01*
X122200000Y-110500000D02*
X137500000Y-110500000D01*
X137500000Y-110500000D02*
X139540000Y-112540000D01*
X139540000Y-112540000D02*
X139826000Y-112540000D01*
X113760000Y-108800000D02*
X110500000Y-105540000D01*
X121100000Y-109400000D02*
X120500000Y-108800000D01*
X120500000Y-108800000D02*
X113760000Y-108800000D01*
X120640000Y-106260000D02*
X113760000Y-106260000D01*
X122440000Y-108060000D02*
X124380000Y-110000000D01*
X113760000Y-106260000D02*
X110500000Y-103000000D01*
X124380000Y-110000000D02*
X139826000Y-110000000D01*
X121410000Y-107030000D02*
X120640000Y-106260000D01*
X141500000Y-105886894D02*
X141500000Y-101514000D01*
X155500000Y-127000000D02*
X158000000Y-129500000D01*
X149000000Y-127000000D02*
X155500000Y-127000000D01*
X142150000Y-106536894D02*
X141500000Y-105886894D01*
X144500000Y-122500000D02*
X149000000Y-127000000D01*
X141500000Y-101514000D02*
X139826000Y-99840000D01*
X142150000Y-111000000D02*
X142150000Y-106536894D01*
X142500000Y-122500000D02*
X148100000Y-128100000D01*
X150380000Y-129240000D02*
X150380000Y-129500000D01*
X149240000Y-128100000D02*
X150380000Y-129240000D01*
X148100000Y-128100000D02*
X149240000Y-128100000D01*
X141500000Y-111500000D02*
X141500000Y-106594000D01*
X141500000Y-106594000D02*
X139826000Y-104920000D01*
X158327012Y-118557772D02*
X154269240Y-114500000D01*
X153420000Y-114500000D02*
X151920000Y-113000000D01*
X158401637Y-118557772D02*
X158327012Y-118557772D01*
X154269240Y-114500000D02*
X153420000Y-114500000D01*
X157799502Y-119084496D02*
X157799502Y-119069502D01*
X157799502Y-119069502D02*
X153730000Y-115000000D01*
X152650000Y-115000000D02*
X150650000Y-113000000D01*
X153730000Y-115000000D02*
X152650000Y-115000000D01*
X129046625Y-95724150D02*
X129046625Y-93453375D01*
X131586625Y-90913375D02*
X131586625Y-90275850D01*
X129046625Y-93453375D02*
X131586625Y-90913375D01*
X145000000Y-93050000D02*
X146450000Y-94500000D01*
X156040000Y-97040000D02*
X159500000Y-97040000D01*
X153500000Y-94500000D02*
X156040000Y-97040000D01*
X146450000Y-94500000D02*
X153500000Y-94500000D01*
X135405000Y-103775850D02*
X135405000Y-104595000D01*
X135405000Y-104595000D02*
X132865000Y-107135000D01*
X132865000Y-107135000D02*
X132865000Y-109224150D01*
X122210000Y-80532943D02*
X119997057Y-78320000D01*
X122210000Y-86050760D02*
X122210000Y-94930000D01*
X123843674Y-77831022D02*
X123843674Y-77843674D01*
X115500000Y-74677057D02*
X115500000Y-74500000D01*
X119142943Y-78320000D02*
X115500000Y-74677057D01*
X119997057Y-78320000D02*
X119142943Y-78320000D01*
X127837348Y-73837348D02*
X123843674Y-77831022D01*
X148998700Y-101998700D02*
X149000000Y-102000000D01*
X148998700Y-97445000D02*
X148998700Y-101998700D01*
X145000000Y-108000000D02*
X144500000Y-107500000D01*
X144500000Y-107500000D02*
X144500000Y-103580000D01*
X117000000Y-96040000D02*
X127460775Y-96040000D01*
X127460775Y-96040000D02*
X127776625Y-95724150D01*
G04 #@! TA.AperFunction,Conductor*
G36*
X166914577Y-65559419D02*
G01*
X167204639Y-65576969D01*
X167219502Y-65578774D01*
X167298108Y-65593179D01*
X167501652Y-65630482D01*
X167516170Y-65634061D01*
X167790030Y-65719401D01*
X167804017Y-65724706D01*
X168065593Y-65842433D01*
X168078835Y-65849383D01*
X168224752Y-65937592D01*
X168324313Y-65997779D01*
X168336635Y-66006285D01*
X168562430Y-66183181D01*
X168573622Y-66193095D01*
X168776466Y-66395935D01*
X168786388Y-66407135D01*
X168963286Y-66632923D01*
X168971792Y-66645245D01*
X169120191Y-66890717D01*
X169127149Y-66903975D01*
X169244874Y-67165533D01*
X169250184Y-67179534D01*
X169335523Y-67453373D01*
X169339107Y-67467911D01*
X169390819Y-67750045D01*
X169392625Y-67764909D01*
X169410125Y-68054050D01*
X169410351Y-68061541D01*
X169410351Y-132054945D01*
X169410125Y-132062432D01*
X169392579Y-132352488D01*
X169390774Y-132367352D01*
X169339072Y-132649484D01*
X169335488Y-132664024D01*
X169250156Y-132937862D01*
X169244846Y-132951863D01*
X169127128Y-133213418D01*
X169120170Y-133226676D01*
X168971779Y-133472143D01*
X168963272Y-133484467D01*
X168786382Y-133710248D01*
X168776453Y-133721456D01*
X168573626Y-133924280D01*
X168562417Y-133934209D01*
X168336642Y-134111090D01*
X168324318Y-134119597D01*
X168078842Y-134267988D01*
X168065584Y-134274946D01*
X167804031Y-134392658D01*
X167790030Y-134397968D01*
X167516183Y-134483299D01*
X167501644Y-134486882D01*
X167219518Y-134538579D01*
X167204653Y-134540384D01*
X166991442Y-134553277D01*
X166913881Y-134557968D01*
X166906404Y-134558194D01*
X107914612Y-134558194D01*
X107907123Y-134557968D01*
X107617061Y-134540417D01*
X107602198Y-134538612D01*
X107320058Y-134486906D01*
X107305524Y-134483323D01*
X107077654Y-134412314D01*
X107031679Y-134397987D01*
X107017679Y-134392677D01*
X106756118Y-134274957D01*
X106742860Y-134267999D01*
X106497390Y-134119607D01*
X106485067Y-134111101D01*
X106259274Y-133934205D01*
X106248067Y-133924276D01*
X106045247Y-133721460D01*
X106035317Y-133710252D01*
X105858418Y-133484461D01*
X105849912Y-133472138D01*
X105701520Y-133226676D01*
X105694566Y-133213429D01*
X105576829Y-132951842D01*
X105571528Y-132937866D01*
X105486180Y-132663993D01*
X105482603Y-132649479D01*
X105430891Y-132367340D01*
X105429086Y-132352480D01*
X105411575Y-132063139D01*
X105411349Y-132055648D01*
X105411349Y-130940596D01*
X107410350Y-130940596D01*
X107410350Y-131176791D01*
X107447296Y-131410062D01*
X107520283Y-131634690D01*
X107627507Y-131845127D01*
X107766333Y-132036204D01*
X107933340Y-132203211D01*
X108124417Y-132342037D01*
X108174085Y-132367344D01*
X108334853Y-132449260D01*
X108334855Y-132449260D01*
X108334858Y-132449262D01*
X108455262Y-132488383D01*
X108559481Y-132522247D01*
X108792753Y-132559194D01*
X108792758Y-132559194D01*
X109028947Y-132559194D01*
X109262218Y-132522247D01*
X109486842Y-132449262D01*
X109697283Y-132342037D01*
X109888360Y-132203211D01*
X110055367Y-132036204D01*
X110194193Y-131845127D01*
X110301418Y-131634686D01*
X110374403Y-131410062D01*
X110411350Y-131176791D01*
X110411350Y-130940596D01*
X110374403Y-130707325D01*
X110338830Y-130597844D01*
X110301418Y-130482702D01*
X110301416Y-130482699D01*
X110301416Y-130482697D01*
X110244852Y-130371685D01*
X110194193Y-130272261D01*
X110055367Y-130081184D01*
X109888360Y-129914177D01*
X109697283Y-129775351D01*
X109647529Y-129750000D01*
X109486846Y-129668127D01*
X109262218Y-129595140D01*
X109028947Y-129558194D01*
X109028942Y-129558194D01*
X108792758Y-129558194D01*
X108792753Y-129558194D01*
X108559481Y-129595140D01*
X108334853Y-129668127D01*
X108124416Y-129775351D01*
X108038590Y-129837708D01*
X107933340Y-129914177D01*
X107933338Y-129914179D01*
X107933337Y-129914179D01*
X107766335Y-130081181D01*
X107766335Y-130081182D01*
X107766333Y-130081184D01*
X107706712Y-130163244D01*
X107627507Y-130272260D01*
X107520283Y-130482697D01*
X107447296Y-130707325D01*
X107410350Y-130940596D01*
X105411349Y-130940596D01*
X105411349Y-128323920D01*
X119799499Y-128323920D01*
X119828340Y-128468907D01*
X119828343Y-128468917D01*
X119884912Y-128605488D01*
X119884919Y-128605501D01*
X119967048Y-128728415D01*
X119967051Y-128728419D01*
X120071580Y-128832948D01*
X120071584Y-128832951D01*
X120194498Y-128915080D01*
X120194511Y-128915087D01*
X120331082Y-128971656D01*
X120331087Y-128971658D01*
X120331091Y-128971658D01*
X120331092Y-128971659D01*
X120476079Y-129000500D01*
X120476082Y-129000500D01*
X120623920Y-129000500D01*
X120721462Y-128981096D01*
X120768913Y-128971658D01*
X120905495Y-128915084D01*
X121028416Y-128832951D01*
X121132951Y-128728416D01*
X121215084Y-128605495D01*
X121271658Y-128468913D01*
X121284937Y-128402155D01*
X121300500Y-128323920D01*
X127799499Y-128323920D01*
X127828340Y-128468907D01*
X127828343Y-128468917D01*
X127884912Y-128605488D01*
X127884919Y-128605501D01*
X127967048Y-128728415D01*
X127967051Y-128728419D01*
X128071580Y-128832948D01*
X128071584Y-128832951D01*
X128194498Y-128915080D01*
X128194511Y-128915087D01*
X128331082Y-128971656D01*
X128331087Y-128971658D01*
X128331091Y-128971658D01*
X128331092Y-128971659D01*
X128476079Y-129000500D01*
X128476082Y-129000500D01*
X128623920Y-129000500D01*
X128721462Y-128981096D01*
X128768913Y-128971658D01*
X128905495Y-128915084D01*
X129028416Y-128832951D01*
X129132951Y-128728416D01*
X129215084Y-128605495D01*
X129271658Y-128468913D01*
X129284937Y-128402155D01*
X136370000Y-128402155D01*
X136370000Y-129250000D01*
X137429252Y-129250000D01*
X137407482Y-129287708D01*
X137370000Y-129427591D01*
X137370000Y-129572409D01*
X137407482Y-129712292D01*
X137429252Y-129750000D01*
X136370000Y-129750000D01*
X136370000Y-130597844D01*
X136376401Y-130657372D01*
X136376403Y-130657379D01*
X136426645Y-130792086D01*
X136426649Y-130792093D01*
X136512809Y-130907187D01*
X136512812Y-130907190D01*
X136627906Y-130993350D01*
X136627913Y-130993354D01*
X136762620Y-131043596D01*
X136762627Y-131043598D01*
X136822155Y-131049999D01*
X136822172Y-131050000D01*
X137670000Y-131050000D01*
X137670000Y-129990747D01*
X137707708Y-130012518D01*
X137847591Y-130050000D01*
X137992409Y-130050000D01*
X138132292Y-130012518D01*
X138170000Y-129990747D01*
X138170000Y-131050000D01*
X139017828Y-131050000D01*
X139017844Y-131049999D01*
X139077372Y-131043598D01*
X139077379Y-131043596D01*
X139212086Y-130993354D01*
X139212093Y-130993350D01*
X139327187Y-130907190D01*
X139327190Y-130907187D01*
X139413350Y-130792093D01*
X139413354Y-130792086D01*
X139463596Y-130657379D01*
X139463598Y-130657372D01*
X139469999Y-130597844D01*
X139470000Y-130597827D01*
X139470000Y-130571575D01*
X139489685Y-130504536D01*
X139542489Y-130458781D01*
X139611647Y-130448837D01*
X139665120Y-130469998D01*
X139832361Y-130587102D01*
X140030670Y-130679575D01*
X140242023Y-130736207D01*
X140424926Y-130752208D01*
X140459998Y-130755277D01*
X140460000Y-130755277D01*
X140460002Y-130755277D01*
X140488254Y-130752805D01*
X140677977Y-130736207D01*
X140889330Y-130679575D01*
X141087639Y-130587102D01*
X141266877Y-130461598D01*
X141421598Y-130306877D01*
X141547102Y-130127639D01*
X141617618Y-129976414D01*
X141663790Y-129923977D01*
X141730984Y-129904825D01*
X141797865Y-129925041D01*
X141842381Y-129976414D01*
X141912898Y-130127639D01*
X142038402Y-130306877D01*
X142193123Y-130461598D01*
X142372361Y-130587102D01*
X142570670Y-130679575D01*
X142782023Y-130736207D01*
X142964926Y-130752208D01*
X142999998Y-130755277D01*
X143000000Y-130755277D01*
X143000002Y-130755277D01*
X143028254Y-130752805D01*
X143217977Y-130736207D01*
X143429330Y-130679575D01*
X143627639Y-130587102D01*
X143806877Y-130461598D01*
X143961598Y-130306877D01*
X144087102Y-130127639D01*
X144179575Y-129929330D01*
X144236207Y-129717977D01*
X144255277Y-129500000D01*
X144236207Y-129282023D01*
X144179575Y-129070670D01*
X144087102Y-128872362D01*
X144087100Y-128872359D01*
X144087099Y-128872357D01*
X143961599Y-128693124D01*
X143961596Y-128693121D01*
X143806877Y-128538402D01*
X143668978Y-128441844D01*
X143627638Y-128412897D01*
X143524248Y-128364686D01*
X143429330Y-128320425D01*
X143429326Y-128320424D01*
X143429322Y-128320422D01*
X143217977Y-128263793D01*
X143000002Y-128244723D01*
X142999998Y-128244723D01*
X142854682Y-128257436D01*
X142782023Y-128263793D01*
X142782020Y-128263793D01*
X142570677Y-128320422D01*
X142570668Y-128320426D01*
X142372361Y-128412898D01*
X142372357Y-128412900D01*
X142193121Y-128538402D01*
X142038402Y-128693121D01*
X141912900Y-128872357D01*
X141912898Y-128872361D01*
X141842382Y-129023583D01*
X141796209Y-129076022D01*
X141729016Y-129095174D01*
X141662135Y-129074958D01*
X141617618Y-129023583D01*
X141567025Y-128915087D01*
X141547102Y-128872362D01*
X141547100Y-128872359D01*
X141547099Y-128872357D01*
X141421599Y-128693124D01*
X141421596Y-128693121D01*
X141266877Y-128538402D01*
X141128978Y-128441844D01*
X141087638Y-128412897D01*
X140984248Y-128364686D01*
X140889330Y-128320425D01*
X140889326Y-128320424D01*
X140889322Y-128320422D01*
X140677977Y-128263793D01*
X140460002Y-128244723D01*
X140459998Y-128244723D01*
X140314682Y-128257436D01*
X140242023Y-128263793D01*
X140242020Y-128263793D01*
X140030677Y-128320422D01*
X140030668Y-128320426D01*
X139832361Y-128412898D01*
X139832357Y-128412900D01*
X139665123Y-128529999D01*
X139598917Y-128552326D01*
X139531150Y-128535316D01*
X139483337Y-128484368D01*
X139470000Y-128428424D01*
X139470000Y-128402172D01*
X139469999Y-128402155D01*
X139463598Y-128342627D01*
X139463596Y-128342620D01*
X139413354Y-128207913D01*
X139413350Y-128207906D01*
X139327190Y-128092812D01*
X139327187Y-128092809D01*
X139212093Y-128006649D01*
X139212086Y-128006645D01*
X139077379Y-127956403D01*
X139077372Y-127956401D01*
X139017844Y-127950000D01*
X138170000Y-127950000D01*
X138170000Y-129009252D01*
X138132292Y-128987482D01*
X137992409Y-128950000D01*
X137847591Y-128950000D01*
X137707708Y-128987482D01*
X137670000Y-129009252D01*
X137670000Y-127950000D01*
X136822155Y-127950000D01*
X136762627Y-127956401D01*
X136762620Y-127956403D01*
X136627913Y-128006645D01*
X136627906Y-128006649D01*
X136512812Y-128092809D01*
X136512809Y-128092812D01*
X136426649Y-128207906D01*
X136426645Y-128207913D01*
X136376403Y-128342620D01*
X136376401Y-128342627D01*
X136370000Y-128402155D01*
X129284937Y-128402155D01*
X129300500Y-128323920D01*
X129300500Y-128176079D01*
X129271659Y-128031092D01*
X129271658Y-128031091D01*
X129271658Y-128031087D01*
X129271656Y-128031082D01*
X129215087Y-127894511D01*
X129215080Y-127894498D01*
X129132951Y-127771584D01*
X129132948Y-127771580D01*
X129028419Y-127667051D01*
X129028415Y-127667048D01*
X128905501Y-127584919D01*
X128905488Y-127584912D01*
X128768917Y-127528343D01*
X128768907Y-127528340D01*
X128623920Y-127499500D01*
X128623918Y-127499500D01*
X128476082Y-127499500D01*
X128476080Y-127499500D01*
X128331092Y-127528340D01*
X128331082Y-127528343D01*
X128194511Y-127584912D01*
X128194498Y-127584919D01*
X128071584Y-127667048D01*
X128071580Y-127667051D01*
X127967051Y-127771580D01*
X127967048Y-127771584D01*
X127884919Y-127894498D01*
X127884912Y-127894511D01*
X127828343Y-128031082D01*
X127828340Y-128031092D01*
X127799500Y-128176079D01*
X127799500Y-128176082D01*
X127799500Y-128323918D01*
X127799500Y-128323920D01*
X127799499Y-128323920D01*
X121300500Y-128323920D01*
X121300500Y-128176079D01*
X121271659Y-128031092D01*
X121271658Y-128031091D01*
X121271658Y-128031087D01*
X121271656Y-128031082D01*
X121215087Y-127894511D01*
X121215080Y-127894498D01*
X121132951Y-127771584D01*
X121132948Y-127771580D01*
X121028419Y-127667051D01*
X121028415Y-127667048D01*
X120905501Y-127584919D01*
X120905488Y-127584912D01*
X120768917Y-127528343D01*
X120768907Y-127528340D01*
X120623920Y-127499500D01*
X120623918Y-127499500D01*
X120476082Y-127499500D01*
X120476080Y-127499500D01*
X120331092Y-127528340D01*
X120331082Y-127528343D01*
X120194511Y-127584912D01*
X120194498Y-127584919D01*
X120071584Y-127667048D01*
X120071580Y-127667051D01*
X119967051Y-127771580D01*
X119967048Y-127771584D01*
X119884919Y-127894498D01*
X119884912Y-127894511D01*
X119828343Y-128031082D01*
X119828340Y-128031092D01*
X119799500Y-128176079D01*
X119799500Y-128176082D01*
X119799500Y-128323918D01*
X119799500Y-128323920D01*
X119799499Y-128323920D01*
X105411349Y-128323920D01*
X105411349Y-125200000D01*
X108945207Y-125200000D01*
X108964348Y-125443219D01*
X109021303Y-125680457D01*
X109114668Y-125905861D01*
X109238504Y-126107941D01*
X109976212Y-125370233D01*
X109987482Y-125412292D01*
X110059890Y-125537708D01*
X110162292Y-125640110D01*
X110287708Y-125712518D01*
X110329765Y-125723787D01*
X109592057Y-126461494D01*
X109794138Y-126585331D01*
X110019542Y-126678696D01*
X110256780Y-126735651D01*
X110256779Y-126735651D01*
X110500000Y-126754792D01*
X110743219Y-126735651D01*
X110980457Y-126678696D01*
X111205861Y-126585331D01*
X111407941Y-126461495D01*
X111407941Y-126461494D01*
X110670235Y-125723787D01*
X110712292Y-125712518D01*
X110837708Y-125640110D01*
X110940110Y-125537708D01*
X111012518Y-125412292D01*
X111023787Y-125370234D01*
X111761494Y-126107941D01*
X111761495Y-126107941D01*
X111885331Y-125905861D01*
X111978696Y-125680457D01*
X112035651Y-125443219D01*
X112054792Y-125200000D01*
X112035651Y-124956780D01*
X111978696Y-124719542D01*
X111885331Y-124494138D01*
X111761494Y-124292057D01*
X111023787Y-125029764D01*
X111012518Y-124987708D01*
X110940110Y-124862292D01*
X110837708Y-124759890D01*
X110712292Y-124687482D01*
X110670234Y-124676212D01*
X111407941Y-123938504D01*
X111273946Y-123856391D01*
X111227071Y-123804579D01*
X111215648Y-123735649D01*
X111243306Y-123671487D01*
X111267607Y-123649094D01*
X111306877Y-123621598D01*
X111461598Y-123466877D01*
X111587102Y-123287639D01*
X111679575Y-123089330D01*
X111736207Y-122877977D01*
X111755277Y-122660000D01*
X111741279Y-122500000D01*
X141994353Y-122500000D01*
X142014834Y-122642456D01*
X142053262Y-122726599D01*
X142074623Y-122773373D01*
X142168872Y-122882143D01*
X142289947Y-122959953D01*
X142289950Y-122959954D01*
X142289949Y-122959954D01*
X142428036Y-123000499D01*
X142428038Y-123000500D01*
X142428039Y-123000500D01*
X142453456Y-123000500D01*
X142520495Y-123020185D01*
X142541137Y-123036819D01*
X147242637Y-127738319D01*
X147276122Y-127799642D01*
X147271138Y-127869334D01*
X147229266Y-127925267D01*
X147163802Y-127949684D01*
X147154956Y-127950000D01*
X146742155Y-127950000D01*
X146682627Y-127956401D01*
X146682620Y-127956403D01*
X146547913Y-128006645D01*
X146547906Y-128006649D01*
X146432812Y-128092809D01*
X146432809Y-128092812D01*
X146346649Y-128207906D01*
X146346645Y-128207913D01*
X146296403Y-128342620D01*
X146296401Y-128342627D01*
X146290000Y-128402155D01*
X146290000Y-129250000D01*
X147349252Y-129250000D01*
X147327482Y-129287708D01*
X147290000Y-129427591D01*
X147290000Y-129572409D01*
X147327482Y-129712292D01*
X147349252Y-129750000D01*
X146290000Y-129750000D01*
X146290000Y-130597844D01*
X146296401Y-130657372D01*
X146296403Y-130657379D01*
X146346645Y-130792086D01*
X146346649Y-130792093D01*
X146432809Y-130907187D01*
X146432812Y-130907190D01*
X146547906Y-130993350D01*
X146547913Y-130993354D01*
X146682620Y-131043596D01*
X146682627Y-131043598D01*
X146742155Y-131049999D01*
X146742172Y-131050000D01*
X147590000Y-131050000D01*
X147590000Y-129990747D01*
X147627708Y-130012518D01*
X147767591Y-130050000D01*
X147912409Y-130050000D01*
X148052292Y-130012518D01*
X148090000Y-129990747D01*
X148090000Y-131050000D01*
X148937828Y-131050000D01*
X148937844Y-131049999D01*
X148997372Y-131043598D01*
X148997379Y-131043596D01*
X149132086Y-130993354D01*
X149132093Y-130993350D01*
X149202563Y-130940596D01*
X164410350Y-130940596D01*
X164410350Y-131176791D01*
X164447296Y-131410062D01*
X164520283Y-131634690D01*
X164627507Y-131845127D01*
X164766333Y-132036204D01*
X164933340Y-132203211D01*
X165124417Y-132342037D01*
X165174085Y-132367344D01*
X165334853Y-132449260D01*
X165334855Y-132449260D01*
X165334858Y-132449262D01*
X165455262Y-132488383D01*
X165559481Y-132522247D01*
X165792753Y-132559194D01*
X165792758Y-132559194D01*
X166028947Y-132559194D01*
X166262218Y-132522247D01*
X166486842Y-132449262D01*
X166697283Y-132342037D01*
X166888360Y-132203211D01*
X167055367Y-132036204D01*
X167194193Y-131845127D01*
X167301418Y-131634686D01*
X167374403Y-131410062D01*
X167411350Y-131176791D01*
X167411350Y-130940596D01*
X167374403Y-130707325D01*
X167338830Y-130597844D01*
X167301418Y-130482702D01*
X167301416Y-130482699D01*
X167301416Y-130482697D01*
X167244852Y-130371685D01*
X167194193Y-130272261D01*
X167055367Y-130081184D01*
X166888360Y-129914177D01*
X166697283Y-129775351D01*
X166647529Y-129750000D01*
X166486846Y-129668127D01*
X166262218Y-129595140D01*
X166028947Y-129558194D01*
X166028942Y-129558194D01*
X165792758Y-129558194D01*
X165792753Y-129558194D01*
X165559481Y-129595140D01*
X165334853Y-129668127D01*
X165124416Y-129775351D01*
X165038590Y-129837708D01*
X164933340Y-129914177D01*
X164933338Y-129914179D01*
X164933337Y-129914179D01*
X164766335Y-130081181D01*
X164766335Y-130081182D01*
X164766333Y-130081184D01*
X164706712Y-130163244D01*
X164627507Y-130272260D01*
X164520283Y-130482697D01*
X164447296Y-130707325D01*
X164410350Y-130940596D01*
X149202563Y-130940596D01*
X149247187Y-130907190D01*
X149247190Y-130907187D01*
X149333350Y-130792093D01*
X149333354Y-130792086D01*
X149383596Y-130657379D01*
X149383598Y-130657372D01*
X149389999Y-130597844D01*
X149390000Y-130597827D01*
X149390000Y-130571575D01*
X149409685Y-130504536D01*
X149462489Y-130458781D01*
X149531647Y-130448837D01*
X149585120Y-130469998D01*
X149752361Y-130587102D01*
X149950670Y-130679575D01*
X150162023Y-130736207D01*
X150344926Y-130752208D01*
X150379998Y-130755277D01*
X150380000Y-130755277D01*
X150380002Y-130755277D01*
X150408254Y-130752805D01*
X150597977Y-130736207D01*
X150809330Y-130679575D01*
X151007639Y-130587102D01*
X151186877Y-130461598D01*
X151341598Y-130306877D01*
X151467102Y-130127639D01*
X151537618Y-129976414D01*
X151583790Y-129923977D01*
X151650984Y-129904825D01*
X151717865Y-129925041D01*
X151762381Y-129976414D01*
X151832898Y-130127639D01*
X151958402Y-130306877D01*
X152113123Y-130461598D01*
X152292361Y-130587102D01*
X152490670Y-130679575D01*
X152702023Y-130736207D01*
X152884926Y-130752208D01*
X152919998Y-130755277D01*
X152920000Y-130755277D01*
X152920002Y-130755277D01*
X152948254Y-130752805D01*
X153137977Y-130736207D01*
X153349330Y-130679575D01*
X153547639Y-130587102D01*
X153726877Y-130461598D01*
X153881598Y-130306877D01*
X154007102Y-130127639D01*
X154077618Y-129976414D01*
X154123790Y-129923977D01*
X154190984Y-129904825D01*
X154257865Y-129925041D01*
X154302381Y-129976414D01*
X154372898Y-130127639D01*
X154498402Y-130306877D01*
X154653123Y-130461598D01*
X154832361Y-130587102D01*
X155030670Y-130679575D01*
X155242023Y-130736207D01*
X155424926Y-130752208D01*
X155459998Y-130755277D01*
X155460000Y-130755277D01*
X155460002Y-130755277D01*
X155488254Y-130752805D01*
X155677977Y-130736207D01*
X155889330Y-130679575D01*
X156087639Y-130587102D01*
X156266877Y-130461598D01*
X156421598Y-130306877D01*
X156547102Y-130127639D01*
X156617618Y-129976414D01*
X156663790Y-129923977D01*
X156730984Y-129904825D01*
X156797865Y-129925041D01*
X156842381Y-129976414D01*
X156912898Y-130127639D01*
X157038402Y-130306877D01*
X157193123Y-130461598D01*
X157372361Y-130587102D01*
X157570670Y-130679575D01*
X157782023Y-130736207D01*
X157964926Y-130752208D01*
X157999998Y-130755277D01*
X158000000Y-130755277D01*
X158000002Y-130755277D01*
X158028254Y-130752805D01*
X158217977Y-130736207D01*
X158429330Y-130679575D01*
X158627639Y-130587102D01*
X158806877Y-130461598D01*
X158961598Y-130306877D01*
X159087102Y-130127639D01*
X159179575Y-129929330D01*
X159236207Y-129717977D01*
X159255277Y-129500000D01*
X159236207Y-129282023D01*
X159179575Y-129070670D01*
X159087102Y-128872362D01*
X159087100Y-128872359D01*
X159087099Y-128872357D01*
X158961599Y-128693124D01*
X158961596Y-128693121D01*
X158806877Y-128538402D01*
X158668978Y-128441844D01*
X158627638Y-128412897D01*
X158524248Y-128364686D01*
X158429330Y-128320425D01*
X158429326Y-128320424D01*
X158429322Y-128320422D01*
X158217977Y-128263793D01*
X158000002Y-128244723D01*
X157999998Y-128244723D01*
X157854682Y-128257436D01*
X157782023Y-128263793D01*
X157782020Y-128263793D01*
X157570677Y-128320422D01*
X157570672Y-128320424D01*
X157475751Y-128364686D01*
X157406673Y-128375177D01*
X157342889Y-128346656D01*
X157335666Y-128339984D01*
X155715213Y-126719531D01*
X155715208Y-126719527D01*
X155635290Y-126673387D01*
X155635289Y-126673386D01*
X155635288Y-126673386D01*
X155546144Y-126649500D01*
X155546143Y-126649500D01*
X149196544Y-126649500D01*
X149129505Y-126629815D01*
X149108863Y-126613181D01*
X145036503Y-122540821D01*
X145014211Y-122499997D01*
X152195034Y-122499997D01*
X152195034Y-122500002D01*
X152214858Y-122726599D01*
X152214860Y-122726610D01*
X152273730Y-122946317D01*
X152273735Y-122946331D01*
X152369863Y-123152478D01*
X152420974Y-123225472D01*
X153100000Y-122546446D01*
X153100000Y-122552661D01*
X153127259Y-122654394D01*
X153179920Y-122745606D01*
X153254394Y-122820080D01*
X153345606Y-122872741D01*
X153447339Y-122900000D01*
X153453553Y-122900000D01*
X152774526Y-123579025D01*
X152847513Y-123630132D01*
X152847521Y-123630136D01*
X153053668Y-123726264D01*
X153053682Y-123726269D01*
X153273389Y-123785139D01*
X153273400Y-123785141D01*
X153499998Y-123804966D01*
X153500002Y-123804966D01*
X153726599Y-123785141D01*
X153726610Y-123785139D01*
X153946317Y-123726269D01*
X153946331Y-123726264D01*
X154152478Y-123630136D01*
X154225471Y-123579024D01*
X153876444Y-123229997D01*
X163244723Y-123229997D01*
X163244723Y-123230002D01*
X163263793Y-123447975D01*
X163263793Y-123447979D01*
X163320422Y-123659322D01*
X163320424Y-123659326D01*
X163320425Y-123659330D01*
X163351637Y-123726264D01*
X163412897Y-123857638D01*
X163412898Y-123857639D01*
X163538402Y-124036877D01*
X163693123Y-124191598D01*
X163839263Y-124293926D01*
X163882887Y-124348502D01*
X163890079Y-124418001D01*
X163858557Y-124480355D01*
X163798327Y-124515769D01*
X163768138Y-124519500D01*
X163430247Y-124519500D01*
X163371770Y-124531131D01*
X163371769Y-124531132D01*
X163305447Y-124575447D01*
X163261132Y-124641769D01*
X163261131Y-124641770D01*
X163249500Y-124700247D01*
X163249500Y-126839752D01*
X163261131Y-126898229D01*
X163261132Y-126898230D01*
X163305447Y-126964552D01*
X163371769Y-127008867D01*
X163371770Y-127008868D01*
X163430247Y-127020499D01*
X163430250Y-127020500D01*
X163430252Y-127020500D01*
X165569750Y-127020500D01*
X165569751Y-127020499D01*
X165584568Y-127017552D01*
X165628229Y-127008868D01*
X165628229Y-127008867D01*
X165628231Y-127008867D01*
X165694552Y-126964552D01*
X165738867Y-126898231D01*
X165738867Y-126898229D01*
X165738868Y-126898229D01*
X165750499Y-126839752D01*
X165750500Y-126839750D01*
X165750500Y-124700249D01*
X165750499Y-124700247D01*
X165738868Y-124641770D01*
X165738867Y-124641769D01*
X165694552Y-124575447D01*
X165628230Y-124531132D01*
X165628229Y-124531131D01*
X165569752Y-124519500D01*
X165569748Y-124519500D01*
X165231862Y-124519500D01*
X165164823Y-124499815D01*
X165119068Y-124447011D01*
X165109124Y-124377853D01*
X165138149Y-124314297D01*
X165160734Y-124293928D01*
X165306877Y-124191598D01*
X165461598Y-124036877D01*
X165587102Y-123857639D01*
X165679575Y-123659330D01*
X165736207Y-123447977D01*
X165755277Y-123230000D01*
X165736207Y-123012023D01*
X165679575Y-122800670D01*
X165587102Y-122602362D01*
X165587100Y-122602359D01*
X165587099Y-122602357D01*
X165461599Y-122423124D01*
X165396018Y-122357543D01*
X165306877Y-122268402D01*
X165168978Y-122171844D01*
X165127638Y-122142897D01*
X164978542Y-122073373D01*
X164929330Y-122050425D01*
X164929326Y-122050424D01*
X164929322Y-122050422D01*
X164717977Y-121993793D01*
X164500002Y-121974723D01*
X164499998Y-121974723D01*
X164354682Y-121987436D01*
X164282023Y-121993793D01*
X164282020Y-121993793D01*
X164070677Y-122050422D01*
X164070670Y-122050424D01*
X164070670Y-122050425D01*
X164063705Y-122053673D01*
X163872361Y-122142898D01*
X163872357Y-122142900D01*
X163693121Y-122268402D01*
X163538402Y-122423121D01*
X163412900Y-122602357D01*
X163412898Y-122602361D01*
X163320426Y-122800668D01*
X163320422Y-122800677D01*
X163263793Y-123012020D01*
X163263793Y-123012024D01*
X163244723Y-123229997D01*
X153876444Y-123229997D01*
X153546447Y-122900000D01*
X153552661Y-122900000D01*
X153654394Y-122872741D01*
X153745606Y-122820080D01*
X153820080Y-122745606D01*
X153872741Y-122654394D01*
X153900000Y-122552661D01*
X153900000Y-122546447D01*
X154579024Y-123225471D01*
X154630136Y-123152478D01*
X154726264Y-122946331D01*
X154726269Y-122946317D01*
X154785139Y-122726610D01*
X154785141Y-122726599D01*
X154804966Y-122500002D01*
X154804966Y-122499997D01*
X154785141Y-122273400D01*
X154785139Y-122273389D01*
X154726269Y-122053682D01*
X154726264Y-122053668D01*
X154630136Y-121847521D01*
X154630132Y-121847513D01*
X154579025Y-121774526D01*
X153900000Y-122453551D01*
X153900000Y-122447339D01*
X153872741Y-122345606D01*
X153820080Y-122254394D01*
X153745606Y-122179920D01*
X153654394Y-122127259D01*
X153552661Y-122100000D01*
X153546448Y-122100000D01*
X154225472Y-121420974D01*
X154152478Y-121369863D01*
X153946331Y-121273735D01*
X153946317Y-121273730D01*
X153726610Y-121214860D01*
X153726599Y-121214858D01*
X153500002Y-121195034D01*
X153499998Y-121195034D01*
X153273400Y-121214858D01*
X153273389Y-121214860D01*
X153053682Y-121273730D01*
X153053673Y-121273734D01*
X152847516Y-121369866D01*
X152847512Y-121369868D01*
X152774526Y-121420973D01*
X152774526Y-121420974D01*
X153453553Y-122100000D01*
X153447339Y-122100000D01*
X153345606Y-122127259D01*
X153254394Y-122179920D01*
X153179920Y-122254394D01*
X153127259Y-122345606D01*
X153100000Y-122447339D01*
X153100000Y-122453552D01*
X152420974Y-121774526D01*
X152420973Y-121774526D01*
X152369868Y-121847512D01*
X152369866Y-121847516D01*
X152273734Y-122053673D01*
X152273730Y-122053682D01*
X152214860Y-122273389D01*
X152214858Y-122273400D01*
X152195034Y-122499997D01*
X145014211Y-122499997D01*
X145003018Y-122479498D01*
X145001449Y-122470805D01*
X144985165Y-122357543D01*
X144925377Y-122226627D01*
X144831128Y-122117857D01*
X144710053Y-122040047D01*
X144710051Y-122040046D01*
X144710049Y-122040045D01*
X144710050Y-122040045D01*
X144571963Y-121999500D01*
X144571961Y-121999500D01*
X144428039Y-121999500D01*
X144428036Y-121999500D01*
X144289949Y-122040045D01*
X144168873Y-122117856D01*
X144093713Y-122204596D01*
X144034935Y-122242370D01*
X143965065Y-122242370D01*
X143906287Y-122204596D01*
X143831128Y-122117857D01*
X143710053Y-122040047D01*
X143710051Y-122040046D01*
X143710049Y-122040045D01*
X143710050Y-122040045D01*
X143571963Y-121999500D01*
X143571961Y-121999500D01*
X143428039Y-121999500D01*
X143428036Y-121999500D01*
X143289949Y-122040045D01*
X143168873Y-122117856D01*
X143093713Y-122204596D01*
X143034935Y-122242370D01*
X142965065Y-122242370D01*
X142906287Y-122204596D01*
X142831128Y-122117857D01*
X142710053Y-122040047D01*
X142710051Y-122040046D01*
X142710049Y-122040045D01*
X142710050Y-122040045D01*
X142571963Y-121999500D01*
X142571961Y-121999500D01*
X142428039Y-121999500D01*
X142428036Y-121999500D01*
X142289949Y-122040045D01*
X142168873Y-122117856D01*
X142074623Y-122226626D01*
X142074622Y-122226628D01*
X142014834Y-122357543D01*
X141994353Y-122500000D01*
X111741279Y-122500000D01*
X111736207Y-122442023D01*
X111698286Y-122300499D01*
X111679577Y-122230677D01*
X111679576Y-122230676D01*
X111679575Y-122230670D01*
X111587102Y-122032362D01*
X111587100Y-122032359D01*
X111587099Y-122032357D01*
X111461599Y-121853124D01*
X111408475Y-121800000D01*
X118294353Y-121800000D01*
X118314834Y-121942456D01*
X118364143Y-122050425D01*
X118374623Y-122073373D01*
X118468872Y-122182143D01*
X118589947Y-122259953D01*
X118589950Y-122259954D01*
X118589949Y-122259954D01*
X118728036Y-122300499D01*
X118728038Y-122300500D01*
X118728039Y-122300500D01*
X118871962Y-122300500D01*
X118871962Y-122300499D01*
X119010053Y-122259953D01*
X119131128Y-122182143D01*
X119225377Y-122073373D01*
X119285165Y-121942457D01*
X119301447Y-121829208D01*
X119330470Y-121765656D01*
X119336489Y-121759191D01*
X119945680Y-121150000D01*
X121144353Y-121150000D01*
X121164834Y-121292456D01*
X121209831Y-121390984D01*
X121224623Y-121423373D01*
X121318872Y-121532143D01*
X121439947Y-121609953D01*
X121439950Y-121609954D01*
X121439949Y-121609954D01*
X121578036Y-121650499D01*
X121578038Y-121650500D01*
X121578039Y-121650500D01*
X121721962Y-121650500D01*
X121721962Y-121650499D01*
X121860053Y-121609953D01*
X121981128Y-121532143D01*
X122075377Y-121423373D01*
X122135165Y-121292457D01*
X122151447Y-121179208D01*
X122180470Y-121115656D01*
X122186489Y-121109191D01*
X125508863Y-117786819D01*
X125570186Y-117753334D01*
X125596544Y-117750500D01*
X125621962Y-117750500D01*
X125621962Y-117750499D01*
X125760053Y-117709953D01*
X125881128Y-117632143D01*
X125975377Y-117523373D01*
X126035165Y-117392457D01*
X126055647Y-117250000D01*
X126035165Y-117107543D01*
X125975377Y-116976627D01*
X125881128Y-116867857D01*
X125760053Y-116790047D01*
X125760051Y-116790046D01*
X125760049Y-116790045D01*
X125760050Y-116790045D01*
X125621963Y-116749500D01*
X125621961Y-116749500D01*
X125478039Y-116749500D01*
X125478036Y-116749500D01*
X125339949Y-116790045D01*
X125218873Y-116867856D01*
X125124623Y-116976626D01*
X125124622Y-116976628D01*
X125064834Y-117107543D01*
X125048552Y-117220788D01*
X125019526Y-117284343D01*
X125013495Y-117290821D01*
X121691137Y-120613181D01*
X121629814Y-120646666D01*
X121603456Y-120649500D01*
X121578036Y-120649500D01*
X121439949Y-120690045D01*
X121318873Y-120767856D01*
X121224623Y-120876626D01*
X121224622Y-120876628D01*
X121164834Y-121007543D01*
X121144353Y-121150000D01*
X119945680Y-121150000D01*
X123308863Y-117786819D01*
X123370186Y-117753334D01*
X123396544Y-117750500D01*
X123421962Y-117750500D01*
X123421962Y-117750499D01*
X123560053Y-117709953D01*
X123681128Y-117632143D01*
X123775377Y-117523373D01*
X123835165Y-117392457D01*
X123855647Y-117250000D01*
X123835165Y-117107543D01*
X123775377Y-116976627D01*
X123681128Y-116867857D01*
X123560053Y-116790047D01*
X123560051Y-116790046D01*
X123560049Y-116790045D01*
X123560050Y-116790045D01*
X123421963Y-116749500D01*
X123421961Y-116749500D01*
X123278039Y-116749500D01*
X123278036Y-116749500D01*
X123139949Y-116790045D01*
X123018873Y-116867856D01*
X122924623Y-116976626D01*
X122924622Y-116976628D01*
X122864834Y-117107543D01*
X122848552Y-117220788D01*
X122819526Y-117284343D01*
X122813495Y-117290821D01*
X118841137Y-121263181D01*
X118779814Y-121296666D01*
X118753456Y-121299500D01*
X118728036Y-121299500D01*
X118589949Y-121340045D01*
X118468873Y-121417856D01*
X118468872Y-121417856D01*
X118468872Y-121417857D01*
X118456290Y-121432377D01*
X118374623Y-121526626D01*
X118374622Y-121526628D01*
X118314834Y-121657543D01*
X118294353Y-121800000D01*
X111408475Y-121800000D01*
X111399762Y-121791287D01*
X111306877Y-121698402D01*
X111127639Y-121572898D01*
X110976414Y-121502381D01*
X110923977Y-121456210D01*
X110904825Y-121389016D01*
X110925041Y-121322135D01*
X110976414Y-121277618D01*
X111127639Y-121207102D01*
X111306877Y-121081598D01*
X111461598Y-120926877D01*
X111587102Y-120747639D01*
X111679575Y-120549330D01*
X111703613Y-120459620D01*
X115534733Y-120459620D01*
X115555214Y-120602076D01*
X115595389Y-120690045D01*
X115615003Y-120732993D01*
X115709252Y-120841763D01*
X115830327Y-120919573D01*
X115830330Y-120919574D01*
X115830329Y-120919574D01*
X115968416Y-120960119D01*
X115968418Y-120960120D01*
X115968419Y-120960120D01*
X116112342Y-120960120D01*
X116112342Y-120960119D01*
X116250433Y-120919573D01*
X116371508Y-120841763D01*
X116371516Y-120841753D01*
X116373068Y-120840410D01*
X116374952Y-120839549D01*
X116378969Y-120836968D01*
X116379340Y-120837545D01*
X116436623Y-120811383D01*
X116454275Y-120810120D01*
X117986522Y-120810120D01*
X117986524Y-120810120D01*
X118075668Y-120786234D01*
X118155592Y-120740090D01*
X121108863Y-117786819D01*
X121170186Y-117753334D01*
X121196544Y-117750500D01*
X121221962Y-117750500D01*
X121221962Y-117750499D01*
X121360053Y-117709953D01*
X121481128Y-117632143D01*
X121575377Y-117523373D01*
X121635165Y-117392457D01*
X121655647Y-117250000D01*
X121635165Y-117107543D01*
X121575377Y-116976627D01*
X121481128Y-116867857D01*
X121360053Y-116790047D01*
X121360051Y-116790046D01*
X121360049Y-116790045D01*
X121360050Y-116790045D01*
X121221963Y-116749500D01*
X121221961Y-116749500D01*
X121078039Y-116749500D01*
X121078036Y-116749500D01*
X120939949Y-116790045D01*
X120818873Y-116867856D01*
X120724623Y-116976626D01*
X120724622Y-116976628D01*
X120664834Y-117107543D01*
X120648552Y-117220788D01*
X120619526Y-117284343D01*
X120613495Y-117290821D01*
X117831517Y-120072801D01*
X117770194Y-120106286D01*
X117743836Y-120109120D01*
X116454275Y-120109120D01*
X116387236Y-120089435D01*
X116373068Y-120078830D01*
X116371512Y-120077482D01*
X116371508Y-120077477D01*
X116250433Y-119999667D01*
X116250431Y-119999666D01*
X116250429Y-119999665D01*
X116250430Y-119999665D01*
X116112343Y-119959120D01*
X116112341Y-119959120D01*
X115968419Y-119959120D01*
X115968416Y-119959120D01*
X115830329Y-119999665D01*
X115709253Y-120077476D01*
X115615003Y-120186246D01*
X115615002Y-120186248D01*
X115555214Y-120317163D01*
X115534733Y-120459620D01*
X111703613Y-120459620D01*
X111736207Y-120337977D01*
X111755277Y-120120000D01*
X111754380Y-120109752D01*
X111751148Y-120072801D01*
X111736207Y-119902023D01*
X111679575Y-119690670D01*
X111635312Y-119595750D01*
X111624821Y-119526675D01*
X111653340Y-119462891D01*
X111660001Y-119455679D01*
X114435433Y-116680247D01*
X152499500Y-116680247D01*
X152499500Y-118319752D01*
X152511131Y-118378229D01*
X152511132Y-118378230D01*
X152555447Y-118444552D01*
X152621769Y-118488867D01*
X152621770Y-118488868D01*
X152680247Y-118500499D01*
X152680250Y-118500500D01*
X152680252Y-118500500D01*
X154319750Y-118500500D01*
X154319751Y-118500499D01*
X154334568Y-118497552D01*
X154378229Y-118488868D01*
X154378229Y-118488867D01*
X154378231Y-118488867D01*
X154444552Y-118444552D01*
X154488867Y-118378231D01*
X154488867Y-118378229D01*
X154488868Y-118378229D01*
X154500499Y-118319752D01*
X154500500Y-118319750D01*
X154500500Y-116680249D01*
X154500499Y-116680247D01*
X154488868Y-116621771D01*
X154448864Y-116561902D01*
X154447222Y-116556659D01*
X154438098Y-116551135D01*
X154378230Y-116511132D01*
X154378229Y-116511131D01*
X154319752Y-116499500D01*
X154319748Y-116499500D01*
X152680252Y-116499500D01*
X152680247Y-116499500D01*
X152621770Y-116511131D01*
X152621769Y-116511132D01*
X152555447Y-116555447D01*
X152511132Y-116621769D01*
X152511131Y-116621770D01*
X152499500Y-116680247D01*
X114435433Y-116680247D01*
X115610769Y-115504911D01*
X115663514Y-115473617D01*
X115710053Y-115459953D01*
X115831128Y-115382143D01*
X115925377Y-115273373D01*
X115985165Y-115142457D01*
X116005647Y-115000000D01*
X115985165Y-114857543D01*
X115925377Y-114726627D01*
X115831128Y-114617857D01*
X115710053Y-114540047D01*
X115710051Y-114540046D01*
X115710049Y-114540045D01*
X115710050Y-114540045D01*
X115571963Y-114499500D01*
X115571961Y-114499500D01*
X115428039Y-114499500D01*
X115428036Y-114499500D01*
X115289949Y-114540045D01*
X115168873Y-114617856D01*
X115074623Y-114726626D01*
X115074622Y-114726628D01*
X115014834Y-114857543D01*
X114994353Y-115000000D01*
X114994353Y-115000001D01*
X115001856Y-115052190D01*
X114991912Y-115121349D01*
X114966799Y-115157517D01*
X111796402Y-118327914D01*
X111735079Y-118361399D01*
X111665387Y-118356415D01*
X111609454Y-118314543D01*
X111585037Y-118249079D01*
X111596338Y-118187831D01*
X111679575Y-118009330D01*
X111736207Y-117797977D01*
X111755277Y-117580000D01*
X111736207Y-117362023D01*
X111679575Y-117150670D01*
X111635312Y-117055750D01*
X111624821Y-116986675D01*
X111653340Y-116922891D01*
X111660001Y-116915679D01*
X115130470Y-113445212D01*
X115143437Y-113422751D01*
X115175469Y-113389162D01*
X115174422Y-113387954D01*
X115181125Y-113382145D01*
X115181125Y-113382144D01*
X115181128Y-113382143D01*
X115275377Y-113273373D01*
X115335165Y-113142457D01*
X115355647Y-113000000D01*
X115335165Y-112857543D01*
X115275377Y-112726627D01*
X115181128Y-112617857D01*
X115060053Y-112540047D01*
X115060051Y-112540046D01*
X115060049Y-112540045D01*
X115060050Y-112540045D01*
X115059897Y-112540000D01*
X118444417Y-112540000D01*
X118464699Y-112745932D01*
X118464700Y-112745934D01*
X118524768Y-112943954D01*
X118622315Y-113126450D01*
X118656969Y-113168677D01*
X118753589Y-113286410D01*
X118850209Y-113365702D01*
X118913550Y-113417685D01*
X119096046Y-113515232D01*
X119294066Y-113575300D01*
X119294065Y-113575300D01*
X119312529Y-113577118D01*
X119500000Y-113595583D01*
X119705934Y-113575300D01*
X119903954Y-113515232D01*
X120086450Y-113417685D01*
X120246410Y-113286410D01*
X120377685Y-113126450D01*
X120475232Y-112943954D01*
X120535300Y-112745934D01*
X120555583Y-112540000D01*
X120535300Y-112334066D01*
X120475232Y-112136046D01*
X120377685Y-111953550D01*
X120319083Y-111882143D01*
X120246410Y-111793589D01*
X120086452Y-111662317D01*
X120086453Y-111662317D01*
X120086450Y-111662315D01*
X119903954Y-111564768D01*
X119705934Y-111504700D01*
X119705932Y-111504699D01*
X119705934Y-111504699D01*
X119500000Y-111484417D01*
X119294067Y-111504699D01*
X119096043Y-111564769D01*
X118985898Y-111623643D01*
X118913550Y-111662315D01*
X118913548Y-111662316D01*
X118913547Y-111662317D01*
X118753589Y-111793589D01*
X118622317Y-111953547D01*
X118622315Y-111953550D01*
X118586698Y-112020185D01*
X118524769Y-112136043D01*
X118464699Y-112334067D01*
X118444417Y-112540000D01*
X115059897Y-112540000D01*
X114921963Y-112499500D01*
X114921961Y-112499500D01*
X114778039Y-112499500D01*
X114778036Y-112499500D01*
X114639949Y-112540045D01*
X114518873Y-112617856D01*
X114424623Y-112726626D01*
X114424622Y-112726628D01*
X114364834Y-112857543D01*
X114344353Y-113000000D01*
X114365683Y-113148363D01*
X114355739Y-113217521D01*
X114330626Y-113253690D01*
X111796402Y-115787914D01*
X111735079Y-115821399D01*
X111665387Y-115816415D01*
X111609454Y-115774543D01*
X111585037Y-115709079D01*
X111596338Y-115647831D01*
X111679575Y-115469330D01*
X111736207Y-115257977D01*
X111755277Y-115040000D01*
X111736207Y-114822023D01*
X111701548Y-114692675D01*
X111679577Y-114610677D01*
X111679576Y-114610676D01*
X111679575Y-114610670D01*
X111587102Y-114412362D01*
X111587100Y-114412359D01*
X111587099Y-114412357D01*
X111461599Y-114233124D01*
X111401861Y-114173386D01*
X111306877Y-114078402D01*
X111160736Y-113976073D01*
X111117113Y-113921498D01*
X111109921Y-113851999D01*
X111141443Y-113789645D01*
X111201673Y-113754231D01*
X111231862Y-113750500D01*
X111569750Y-113750500D01*
X111569751Y-113750499D01*
X111584568Y-113747552D01*
X111628229Y-113738868D01*
X111628229Y-113738867D01*
X111628231Y-113738867D01*
X111694552Y-113694552D01*
X111738867Y-113628231D01*
X111738867Y-113628229D01*
X111738868Y-113628229D01*
X111750499Y-113569752D01*
X111750500Y-113569750D01*
X111750500Y-111430249D01*
X111750499Y-111430247D01*
X111738868Y-111371770D01*
X111738867Y-111371769D01*
X111694552Y-111305447D01*
X111628230Y-111261132D01*
X111628229Y-111261131D01*
X111569752Y-111249500D01*
X111569748Y-111249500D01*
X109430252Y-111249500D01*
X109430247Y-111249500D01*
X109371770Y-111261131D01*
X109371769Y-111261132D01*
X109305447Y-111305447D01*
X109261132Y-111371769D01*
X109261131Y-111371770D01*
X109249500Y-111430247D01*
X109249500Y-113569752D01*
X109261131Y-113628229D01*
X109261132Y-113628230D01*
X109305447Y-113694552D01*
X109371769Y-113738867D01*
X109371770Y-113738868D01*
X109430247Y-113750499D01*
X109430250Y-113750500D01*
X109768138Y-113750500D01*
X109835177Y-113770185D01*
X109880932Y-113822989D01*
X109890876Y-113892147D01*
X109861851Y-113955703D01*
X109839261Y-113976075D01*
X109693121Y-114078402D01*
X109538402Y-114233121D01*
X109412900Y-114412357D01*
X109412898Y-114412361D01*
X109320426Y-114610668D01*
X109320422Y-114610677D01*
X109263793Y-114822020D01*
X109263793Y-114822023D01*
X109244723Y-115040000D01*
X109262633Y-115244723D01*
X109263793Y-115257975D01*
X109263793Y-115257979D01*
X109320422Y-115469322D01*
X109320424Y-115469326D01*
X109320425Y-115469330D01*
X109337018Y-115504913D01*
X109412897Y-115667638D01*
X109412898Y-115667639D01*
X109538402Y-115846877D01*
X109693123Y-116001598D01*
X109859158Y-116117857D01*
X109872361Y-116127102D01*
X110023583Y-116197618D01*
X110076022Y-116243790D01*
X110095174Y-116310984D01*
X110074958Y-116377865D01*
X110023583Y-116422382D01*
X109872361Y-116492898D01*
X109872357Y-116492900D01*
X109693121Y-116618402D01*
X109538402Y-116773121D01*
X109412900Y-116952357D01*
X109412898Y-116952361D01*
X109320426Y-117150668D01*
X109320422Y-117150677D01*
X109263793Y-117362020D01*
X109263793Y-117362024D01*
X109244723Y-117579997D01*
X109244723Y-117580002D01*
X109249186Y-117631010D01*
X109263051Y-117789500D01*
X109263793Y-117797975D01*
X109263793Y-117797979D01*
X109320422Y-118009322D01*
X109320424Y-118009326D01*
X109320425Y-118009330D01*
X109342781Y-118057272D01*
X109412897Y-118207638D01*
X109412898Y-118207639D01*
X109538402Y-118386877D01*
X109693123Y-118541598D01*
X109872361Y-118667102D01*
X110023583Y-118737618D01*
X110076022Y-118783790D01*
X110095174Y-118850984D01*
X110074958Y-118917865D01*
X110023583Y-118962382D01*
X109872361Y-119032898D01*
X109872357Y-119032900D01*
X109693121Y-119158402D01*
X109538402Y-119313121D01*
X109412900Y-119492357D01*
X109412898Y-119492361D01*
X109320426Y-119690668D01*
X109320422Y-119690677D01*
X109263793Y-119902020D01*
X109263793Y-119902024D01*
X109244723Y-120119997D01*
X109244723Y-120120002D01*
X109250519Y-120186246D01*
X109259639Y-120290500D01*
X109263793Y-120337975D01*
X109263793Y-120337979D01*
X109320422Y-120549322D01*
X109320424Y-120549326D01*
X109320425Y-120549330D01*
X109350199Y-120613181D01*
X109412897Y-120747638D01*
X109412898Y-120747639D01*
X109538402Y-120926877D01*
X109693123Y-121081598D01*
X109832530Y-121179212D01*
X109872361Y-121207102D01*
X110023583Y-121277618D01*
X110076022Y-121323790D01*
X110095174Y-121390984D01*
X110074958Y-121457865D01*
X110023583Y-121502382D01*
X109872361Y-121572898D01*
X109872357Y-121572900D01*
X109693121Y-121698402D01*
X109538402Y-121853121D01*
X109412900Y-122032357D01*
X109412898Y-122032361D01*
X109320426Y-122230668D01*
X109320422Y-122230677D01*
X109263793Y-122442020D01*
X109263793Y-122442024D01*
X109244723Y-122659997D01*
X109244723Y-122660002D01*
X109263793Y-122877975D01*
X109263793Y-122877979D01*
X109320422Y-123089322D01*
X109320424Y-123089326D01*
X109320425Y-123089330D01*
X109366661Y-123188484D01*
X109412897Y-123287638D01*
X109412898Y-123287639D01*
X109538402Y-123466877D01*
X109693123Y-123621598D01*
X109732388Y-123649091D01*
X109776010Y-123703666D01*
X109783203Y-123773165D01*
X109751681Y-123835519D01*
X109726052Y-123856391D01*
X109592057Y-123938503D01*
X109592057Y-123938504D01*
X110329766Y-124676212D01*
X110287708Y-124687482D01*
X110162292Y-124759890D01*
X110059890Y-124862292D01*
X109987482Y-124987708D01*
X109976212Y-125029765D01*
X109238504Y-124292057D01*
X109114668Y-124494138D01*
X109021303Y-124719542D01*
X108964348Y-124956780D01*
X108945207Y-125200000D01*
X105411349Y-125200000D01*
X105411349Y-108080000D01*
X108945207Y-108080000D01*
X108964348Y-108323219D01*
X109021303Y-108560457D01*
X109114668Y-108785861D01*
X109238504Y-108987941D01*
X109976212Y-108250233D01*
X109987482Y-108292292D01*
X110059890Y-108417708D01*
X110162292Y-108520110D01*
X110287708Y-108592518D01*
X110329765Y-108603787D01*
X109592057Y-109341494D01*
X109794138Y-109465331D01*
X110019542Y-109558696D01*
X110256780Y-109615651D01*
X110256779Y-109615651D01*
X110500000Y-109634792D01*
X110743219Y-109615651D01*
X110980457Y-109558696D01*
X111205861Y-109465331D01*
X111407941Y-109341495D01*
X111407941Y-109341494D01*
X110670235Y-108603787D01*
X110712292Y-108592518D01*
X110837708Y-108520110D01*
X110940110Y-108417708D01*
X111012518Y-108292292D01*
X111023787Y-108250234D01*
X111761494Y-108987941D01*
X111761495Y-108987941D01*
X111885331Y-108785861D01*
X111978696Y-108560457D01*
X112035651Y-108323219D01*
X112054792Y-108080000D01*
X112039347Y-107883738D01*
X112053711Y-107815360D01*
X112102763Y-107765604D01*
X112170928Y-107750265D01*
X112236565Y-107774214D01*
X112250646Y-107786328D01*
X113544788Y-109080470D01*
X113617266Y-109122315D01*
X113617267Y-109122316D01*
X113617269Y-109122317D01*
X113624712Y-109126614D01*
X113713856Y-109150500D01*
X118576018Y-109150500D01*
X118643057Y-109170185D01*
X118688812Y-109222989D01*
X118698756Y-109292147D01*
X118671871Y-109353165D01*
X118622317Y-109413546D01*
X118524769Y-109596043D01*
X118464699Y-109794067D01*
X118444417Y-110000000D01*
X118464699Y-110205932D01*
X118483188Y-110266881D01*
X118524768Y-110403954D01*
X118622315Y-110586450D01*
X118622317Y-110586452D01*
X118753589Y-110746410D01*
X118825527Y-110805447D01*
X118913550Y-110877685D01*
X119096046Y-110975232D01*
X119294066Y-111035300D01*
X119294065Y-111035300D01*
X119312529Y-111037118D01*
X119500000Y-111055583D01*
X119705934Y-111035300D01*
X119903954Y-110975232D01*
X120086450Y-110877685D01*
X120246410Y-110746410D01*
X120377685Y-110586450D01*
X120423894Y-110500000D01*
X121694353Y-110500000D01*
X121714834Y-110642456D01*
X121762309Y-110746410D01*
X121774623Y-110773373D01*
X121868872Y-110882143D01*
X121989947Y-110959953D01*
X121989950Y-110959954D01*
X121989949Y-110959954D01*
X122128036Y-111000499D01*
X122128038Y-111000500D01*
X122128039Y-111000500D01*
X122271962Y-111000500D01*
X122271962Y-111000499D01*
X122410053Y-110959953D01*
X122531128Y-110882143D01*
X122531136Y-110882133D01*
X122532688Y-110880790D01*
X122534572Y-110879929D01*
X122538589Y-110877348D01*
X122538960Y-110877925D01*
X122596243Y-110851763D01*
X122613895Y-110850500D01*
X137303456Y-110850500D01*
X137370495Y-110870185D01*
X137391137Y-110886819D01*
X138753504Y-112249186D01*
X138786989Y-112310509D01*
X138789226Y-112349021D01*
X138774307Y-112500500D01*
X138770417Y-112540000D01*
X138770422Y-112540047D01*
X138790699Y-112745932D01*
X138790700Y-112745934D01*
X138850768Y-112943954D01*
X138948315Y-113126450D01*
X138982969Y-113168677D01*
X139079589Y-113286410D01*
X139176209Y-113365702D01*
X139239550Y-113417685D01*
X139422046Y-113515232D01*
X139620066Y-113575300D01*
X139620065Y-113575300D01*
X139638529Y-113577118D01*
X139826000Y-113595583D01*
X140031934Y-113575300D01*
X140229954Y-113515232D01*
X140412450Y-113417685D01*
X140572410Y-113286410D01*
X140703685Y-113126450D01*
X140771275Y-113000000D01*
X150144353Y-113000000D01*
X150164834Y-113142456D01*
X150167532Y-113148363D01*
X150224623Y-113273373D01*
X150318872Y-113382143D01*
X150439947Y-113459953D01*
X150439950Y-113459954D01*
X150439949Y-113459954D01*
X150578036Y-113500499D01*
X150578038Y-113500500D01*
X150578039Y-113500500D01*
X150603456Y-113500500D01*
X150670495Y-113520185D01*
X150691137Y-113536819D01*
X152434788Y-115280470D01*
X152514712Y-115326614D01*
X152603856Y-115350500D01*
X153533456Y-115350500D01*
X153600495Y-115370185D01*
X153621137Y-115386819D01*
X154594670Y-116360352D01*
X154610060Y-116388537D01*
X154631482Y-116397862D01*
X154639647Y-116405329D01*
X157260480Y-119026162D01*
X157293965Y-119087485D01*
X157295537Y-119096196D01*
X157314336Y-119226952D01*
X157353689Y-119313121D01*
X157374125Y-119357869D01*
X157468374Y-119466639D01*
X157589449Y-119544449D01*
X157589452Y-119544450D01*
X157589451Y-119544450D01*
X157727538Y-119584995D01*
X157727540Y-119584996D01*
X157727541Y-119584996D01*
X157871464Y-119584996D01*
X157871464Y-119584995D01*
X158009555Y-119544449D01*
X158130630Y-119466639D01*
X158224879Y-119357869D01*
X158284667Y-119226953D01*
X158293628Y-119164625D01*
X158322652Y-119101070D01*
X158381430Y-119063295D01*
X158416366Y-119058272D01*
X158473599Y-119058272D01*
X158473599Y-119058271D01*
X158582956Y-119026162D01*
X158611687Y-119017726D01*
X158611687Y-119017725D01*
X158611690Y-119017725D01*
X158732765Y-118939915D01*
X158827014Y-118831145D01*
X158886802Y-118700229D01*
X158907284Y-118557772D01*
X158886802Y-118415315D01*
X158827014Y-118284399D01*
X158732765Y-118175629D01*
X158611690Y-118097819D01*
X158611688Y-118097818D01*
X158611686Y-118097817D01*
X158611687Y-118097817D01*
X158473600Y-118057272D01*
X158473598Y-118057272D01*
X158373556Y-118057272D01*
X158306517Y-118037587D01*
X158285875Y-118020953D01*
X154484453Y-114219531D01*
X154484448Y-114219527D01*
X154404530Y-114173387D01*
X154404529Y-114173386D01*
X154404528Y-114173386D01*
X154315384Y-114149500D01*
X154315383Y-114149500D01*
X153616543Y-114149500D01*
X153549504Y-114129815D01*
X153528862Y-114113181D01*
X152456503Y-113040821D01*
X152434213Y-113000000D01*
X153954353Y-113000000D01*
X153974834Y-113142456D01*
X153977532Y-113148363D01*
X154034623Y-113273373D01*
X154128872Y-113382143D01*
X154249947Y-113459953D01*
X154249950Y-113459954D01*
X154249949Y-113459954D01*
X154388036Y-113500499D01*
X154388038Y-113500500D01*
X154388039Y-113500500D01*
X154433456Y-113500500D01*
X154500495Y-113520185D01*
X154521137Y-113536819D01*
X156264788Y-115280470D01*
X156344712Y-115326614D01*
X156433856Y-115350500D01*
X156826350Y-115350500D01*
X156893389Y-115370185D01*
X156914031Y-115386819D01*
X158974942Y-117447729D01*
X159008427Y-117509052D01*
X159009999Y-117517763D01*
X159026281Y-117631009D01*
X159026799Y-117632143D01*
X159086070Y-117761926D01*
X159180319Y-117870696D01*
X159301394Y-117948506D01*
X159301397Y-117948507D01*
X159301396Y-117948507D01*
X159439483Y-117989052D01*
X159439485Y-117989053D01*
X159439486Y-117989053D01*
X159583409Y-117989053D01*
X159583409Y-117989052D01*
X159721500Y-117948506D01*
X159842575Y-117870696D01*
X159936824Y-117761926D01*
X159996612Y-117631010D01*
X160017094Y-117488553D01*
X159996612Y-117346096D01*
X159936824Y-117215180D01*
X159842575Y-117106410D01*
X159842572Y-117106408D01*
X159842573Y-117106408D01*
X159799637Y-117078815D01*
X159753883Y-117026011D01*
X159743939Y-116956853D01*
X159772964Y-116893297D01*
X159831742Y-116855523D01*
X159866677Y-116850500D01*
X160086105Y-116850500D01*
X160153144Y-116870185D01*
X160167312Y-116880790D01*
X160168866Y-116882137D01*
X160168872Y-116882143D01*
X160289947Y-116959953D01*
X160289950Y-116959954D01*
X160289949Y-116959954D01*
X160428036Y-117000499D01*
X160428038Y-117000500D01*
X160428039Y-117000500D01*
X160571962Y-117000500D01*
X160571962Y-117000499D01*
X160710053Y-116959953D01*
X160831128Y-116882143D01*
X160925377Y-116773373D01*
X160985165Y-116642457D01*
X161005647Y-116500000D01*
X161005647Y-116499997D01*
X163244723Y-116499997D01*
X163244723Y-116500002D01*
X163263793Y-116717975D01*
X163263793Y-116717979D01*
X163320422Y-116929322D01*
X163320424Y-116929326D01*
X163320425Y-116929330D01*
X163347808Y-116988053D01*
X163412897Y-117127638D01*
X163429029Y-117150677D01*
X163538402Y-117306877D01*
X163693123Y-117461598D01*
X163839263Y-117563926D01*
X163882887Y-117618502D01*
X163890079Y-117688001D01*
X163858557Y-117750355D01*
X163798327Y-117785769D01*
X163768138Y-117789500D01*
X163430247Y-117789500D01*
X163371770Y-117801131D01*
X163371769Y-117801132D01*
X163305447Y-117845447D01*
X163261132Y-117911769D01*
X163261131Y-117911770D01*
X163249500Y-117970247D01*
X163249500Y-120109752D01*
X163261131Y-120168229D01*
X163261132Y-120168230D01*
X163305447Y-120234552D01*
X163371769Y-120278867D01*
X163371770Y-120278868D01*
X163430247Y-120290499D01*
X163430250Y-120290500D01*
X163430252Y-120290500D01*
X165569750Y-120290500D01*
X165569751Y-120290499D01*
X165584568Y-120287552D01*
X165628229Y-120278868D01*
X165628229Y-120278867D01*
X165628231Y-120278867D01*
X165694552Y-120234552D01*
X165738867Y-120168231D01*
X165738867Y-120168229D01*
X165738868Y-120168229D01*
X165750499Y-120109752D01*
X165750500Y-120109750D01*
X165750500Y-117970249D01*
X165750499Y-117970247D01*
X165738868Y-117911770D01*
X165738867Y-117911769D01*
X165694552Y-117845447D01*
X165628230Y-117801132D01*
X165628229Y-117801131D01*
X165569752Y-117789500D01*
X165569748Y-117789500D01*
X165231862Y-117789500D01*
X165164823Y-117769815D01*
X165119068Y-117717011D01*
X165109124Y-117647853D01*
X165138149Y-117584297D01*
X165160734Y-117563928D01*
X165306877Y-117461598D01*
X165461598Y-117306877D01*
X165587102Y-117127639D01*
X165679575Y-116929330D01*
X165736207Y-116717977D01*
X165755277Y-116500000D01*
X165755233Y-116499500D01*
X165748486Y-116422382D01*
X165736207Y-116282023D01*
X165692219Y-116117857D01*
X165679577Y-116070677D01*
X165679576Y-116070676D01*
X165679575Y-116070670D01*
X165587102Y-115872362D01*
X165587100Y-115872359D01*
X165587099Y-115872357D01*
X165461599Y-115693124D01*
X165416303Y-115647828D01*
X165306877Y-115538402D01*
X165127639Y-115412898D01*
X165127640Y-115412898D01*
X165127638Y-115412897D01*
X164993824Y-115350499D01*
X164929330Y-115320425D01*
X164929326Y-115320424D01*
X164929322Y-115320422D01*
X164717977Y-115263793D01*
X164500002Y-115244723D01*
X164499998Y-115244723D01*
X164354682Y-115257436D01*
X164282023Y-115263793D01*
X164282020Y-115263793D01*
X164070677Y-115320422D01*
X164070668Y-115320426D01*
X163872361Y-115412898D01*
X163872357Y-115412900D01*
X163693121Y-115538402D01*
X163538402Y-115693121D01*
X163412900Y-115872357D01*
X163412898Y-115872361D01*
X163320426Y-116070668D01*
X163320422Y-116070677D01*
X163263793Y-116282020D01*
X163263793Y-116282023D01*
X163261259Y-116310984D01*
X163244723Y-116499997D01*
X161005647Y-116499997D01*
X160985165Y-116357543D01*
X160925377Y-116226627D01*
X160831128Y-116117857D01*
X160710053Y-116040047D01*
X160710051Y-116040046D01*
X160710049Y-116040045D01*
X160710050Y-116040045D01*
X160571963Y-115999500D01*
X160571961Y-115999500D01*
X160428039Y-115999500D01*
X160428036Y-115999500D01*
X160289949Y-116040045D01*
X160168876Y-116117854D01*
X160168874Y-116117855D01*
X160168872Y-116117857D01*
X160168870Y-116117858D01*
X160167312Y-116119210D01*
X160165427Y-116120070D01*
X160161411Y-116122652D01*
X160161039Y-116122074D01*
X160103757Y-116148237D01*
X160086105Y-116149500D01*
X159426544Y-116149500D01*
X159359505Y-116129815D01*
X159338863Y-116113181D01*
X156266503Y-113040821D01*
X156233018Y-112979498D01*
X156231449Y-112970805D01*
X156215165Y-112857543D01*
X156155377Y-112726627D01*
X156061128Y-112617857D01*
X155940053Y-112540047D01*
X155940051Y-112540046D01*
X155940049Y-112540045D01*
X155940050Y-112540045D01*
X155801963Y-112499500D01*
X155801961Y-112499500D01*
X155658039Y-112499500D01*
X155658036Y-112499500D01*
X155519949Y-112540045D01*
X155398873Y-112617856D01*
X155304623Y-112726626D01*
X155304622Y-112726628D01*
X155244834Y-112857543D01*
X155228348Y-112972213D01*
X155199323Y-113035769D01*
X155140545Y-113073543D01*
X155070675Y-113073543D01*
X155017929Y-113042247D01*
X154993144Y-113017462D01*
X154959659Y-112956139D01*
X154958089Y-112947440D01*
X154945165Y-112857543D01*
X154885377Y-112726627D01*
X154791128Y-112617857D01*
X154670053Y-112540047D01*
X154670051Y-112540046D01*
X154670049Y-112540045D01*
X154670050Y-112540045D01*
X154531963Y-112499500D01*
X154531961Y-112499500D01*
X154388039Y-112499500D01*
X154388036Y-112499500D01*
X154249949Y-112540045D01*
X154128873Y-112617856D01*
X154034623Y-112726626D01*
X154034622Y-112726628D01*
X153974834Y-112857543D01*
X153954353Y-113000000D01*
X152434213Y-113000000D01*
X152423018Y-112979498D01*
X152421449Y-112970805D01*
X152405165Y-112857543D01*
X152345377Y-112726627D01*
X152251128Y-112617857D01*
X152130053Y-112540047D01*
X152130051Y-112540046D01*
X152130049Y-112540045D01*
X152130050Y-112540045D01*
X151991963Y-112499500D01*
X151991961Y-112499500D01*
X151848039Y-112499500D01*
X151848036Y-112499500D01*
X151709949Y-112540045D01*
X151588873Y-112617856D01*
X151494623Y-112726626D01*
X151494622Y-112726628D01*
X151434834Y-112857543D01*
X151415834Y-112989699D01*
X151386809Y-113053255D01*
X151328031Y-113091029D01*
X151258161Y-113091029D01*
X151205415Y-113059733D01*
X151186503Y-113040821D01*
X151153018Y-112979498D01*
X151151449Y-112970805D01*
X151135165Y-112857543D01*
X151075377Y-112726627D01*
X150981128Y-112617857D01*
X150860053Y-112540047D01*
X150860051Y-112540046D01*
X150860049Y-112540045D01*
X150860050Y-112540045D01*
X150721963Y-112499500D01*
X150721961Y-112499500D01*
X150578039Y-112499500D01*
X150578036Y-112499500D01*
X150439949Y-112540045D01*
X150318873Y-112617856D01*
X150224623Y-112726626D01*
X150224622Y-112726628D01*
X150164834Y-112857543D01*
X150144353Y-113000000D01*
X140771275Y-113000000D01*
X140801232Y-112943954D01*
X140861300Y-112745934D01*
X140881583Y-112540000D01*
X140861300Y-112334066D01*
X140801232Y-112136046D01*
X140703685Y-111953550D01*
X140645083Y-111882143D01*
X140572410Y-111793589D01*
X140412452Y-111662317D01*
X140412453Y-111662317D01*
X140412450Y-111662315D01*
X140229954Y-111564768D01*
X140031934Y-111504700D01*
X140031932Y-111504699D01*
X140031934Y-111504699D01*
X139826000Y-111484417D01*
X139620067Y-111504699D01*
X139422041Y-111564769D01*
X139267508Y-111647369D01*
X139199105Y-111661611D01*
X139133861Y-111636611D01*
X139121374Y-111625692D01*
X138057863Y-110562181D01*
X138024378Y-110500858D01*
X138029362Y-110431166D01*
X138071234Y-110375233D01*
X138136698Y-110350816D01*
X138145544Y-110350500D01*
X138747873Y-110350500D01*
X138814912Y-110370185D01*
X138857231Y-110416046D01*
X138948315Y-110586450D01*
X138948317Y-110586452D01*
X139079589Y-110746410D01*
X139151527Y-110805447D01*
X139239550Y-110877685D01*
X139422046Y-110975232D01*
X139620066Y-111035300D01*
X139620065Y-111035300D01*
X139638529Y-111037118D01*
X139826000Y-111055583D01*
X140031934Y-111035300D01*
X140229954Y-110975232D01*
X140412450Y-110877685D01*
X140572410Y-110746410D01*
X140703685Y-110586450D01*
X140801232Y-110403954D01*
X140861300Y-110205934D01*
X140881583Y-110000000D01*
X140861300Y-109794066D01*
X140801232Y-109596046D01*
X140703685Y-109413550D01*
X140604053Y-109292147D01*
X140572410Y-109253589D01*
X140446794Y-109150500D01*
X140412450Y-109122315D01*
X140229954Y-109024768D01*
X140031934Y-108964700D01*
X140031932Y-108964699D01*
X140031934Y-108964699D01*
X139826000Y-108944417D01*
X139620067Y-108964699D01*
X139422043Y-109024769D01*
X139317836Y-109080470D01*
X139239550Y-109122315D01*
X139239548Y-109122316D01*
X139239547Y-109122317D01*
X139079589Y-109253589D01*
X138959435Y-109400000D01*
X138948315Y-109413550D01*
X138923487Y-109460000D01*
X138857231Y-109583954D01*
X138808268Y-109633798D01*
X138747873Y-109649500D01*
X133413919Y-109649500D01*
X133346880Y-109629815D01*
X133301125Y-109577011D01*
X133291181Y-109507853D01*
X133301125Y-109473988D01*
X133307515Y-109459997D01*
X133350165Y-109366607D01*
X133370647Y-109224150D01*
X133350165Y-109081693D01*
X133290377Y-108950777D01*
X133290374Y-108950773D01*
X133245786Y-108899314D01*
X133216762Y-108835758D01*
X133215500Y-108818113D01*
X133215500Y-107460000D01*
X138770417Y-107460000D01*
X138790699Y-107665932D01*
X138809188Y-107726881D01*
X138850768Y-107863954D01*
X138948315Y-108046450D01*
X138948317Y-108046452D01*
X139079589Y-108206410D01*
X139142288Y-108257865D01*
X139239550Y-108337685D01*
X139422046Y-108435232D01*
X139620066Y-108495300D01*
X139620065Y-108495300D01*
X139638529Y-108497118D01*
X139826000Y-108515583D01*
X140031934Y-108495300D01*
X140229954Y-108435232D01*
X140412450Y-108337685D01*
X140572410Y-108206410D01*
X140703685Y-108046450D01*
X140801232Y-107863954D01*
X140861300Y-107665934D01*
X140881583Y-107460000D01*
X140861300Y-107254066D01*
X140801232Y-107056046D01*
X140703685Y-106873550D01*
X140651702Y-106810209D01*
X140572410Y-106713589D01*
X140446794Y-106610500D01*
X140412450Y-106582315D01*
X140229954Y-106484768D01*
X140031934Y-106424700D01*
X140031932Y-106424699D01*
X140031934Y-106424699D01*
X139826000Y-106404417D01*
X139620067Y-106424699D01*
X139422043Y-106484769D01*
X139338359Y-106529500D01*
X139239550Y-106582315D01*
X139239548Y-106582316D01*
X139239547Y-106582317D01*
X139079589Y-106713589D01*
X138948318Y-106873546D01*
X138948315Y-106873550D01*
X138923488Y-106919997D01*
X138850769Y-107056043D01*
X138790699Y-107254067D01*
X138770417Y-107460000D01*
X133215500Y-107460000D01*
X133215500Y-107331544D01*
X133235185Y-107264505D01*
X133251819Y-107243863D01*
X134431435Y-106064247D01*
X135685469Y-104810213D01*
X135731614Y-104730288D01*
X135755500Y-104641144D01*
X135755500Y-104181885D01*
X135775185Y-104114846D01*
X135785782Y-104100687D01*
X135830377Y-104049223D01*
X135890165Y-103918307D01*
X135910647Y-103775850D01*
X135890165Y-103633393D01*
X135830377Y-103502477D01*
X135736128Y-103393707D01*
X135615053Y-103315897D01*
X135615051Y-103315896D01*
X135615049Y-103315895D01*
X135615050Y-103315895D01*
X135476963Y-103275350D01*
X135476961Y-103275350D01*
X135333039Y-103275350D01*
X135333036Y-103275350D01*
X135194949Y-103315895D01*
X135073873Y-103393706D01*
X134979623Y-103502476D01*
X134979622Y-103502478D01*
X134919834Y-103633393D01*
X134899353Y-103775850D01*
X134919834Y-103918306D01*
X134969221Y-104026446D01*
X134979623Y-104049223D01*
X135024213Y-104100683D01*
X135053238Y-104164238D01*
X135054500Y-104181885D01*
X135054500Y-104398456D01*
X135034815Y-104465495D01*
X135018181Y-104486137D01*
X132584532Y-106919785D01*
X132584528Y-106919791D01*
X132538893Y-106998832D01*
X132538888Y-106998842D01*
X132538386Y-106999712D01*
X132514500Y-107088856D01*
X132514500Y-107088858D01*
X132514500Y-108818113D01*
X132494815Y-108885152D01*
X132484214Y-108899314D01*
X132439625Y-108950773D01*
X132439622Y-108950778D01*
X132379834Y-109081693D01*
X132359353Y-109224150D01*
X132379834Y-109366606D01*
X132428875Y-109473988D01*
X132438819Y-109543146D01*
X132409794Y-109606702D01*
X132351016Y-109644477D01*
X132316081Y-109649500D01*
X124576543Y-109649500D01*
X124509504Y-109629815D01*
X124488862Y-109613181D01*
X122976503Y-108100821D01*
X122943018Y-108039498D01*
X122941449Y-108030805D01*
X122925165Y-107917543D01*
X122865377Y-107786627D01*
X122771128Y-107677857D01*
X122650053Y-107600047D01*
X122650051Y-107600046D01*
X122650049Y-107600045D01*
X122650050Y-107600045D01*
X122511963Y-107559500D01*
X122511961Y-107559500D01*
X122368039Y-107559500D01*
X122368036Y-107559500D01*
X122229949Y-107600045D01*
X122108873Y-107677856D01*
X122014623Y-107786626D01*
X122014622Y-107786628D01*
X121954834Y-107917543D01*
X121934353Y-108060000D01*
X121954834Y-108202456D01*
X122000470Y-108302382D01*
X122014623Y-108333373D01*
X122108872Y-108442143D01*
X122229947Y-108519953D01*
X122229950Y-108519954D01*
X122229949Y-108519954D01*
X122368036Y-108560499D01*
X122368038Y-108560500D01*
X122368039Y-108560500D01*
X122393456Y-108560500D01*
X122460495Y-108580185D01*
X122481137Y-108596819D01*
X123237483Y-109353165D01*
X123822138Y-109937819D01*
X123855623Y-109999142D01*
X123850639Y-110068834D01*
X123808767Y-110124767D01*
X123743303Y-110149184D01*
X123734457Y-110149500D01*
X122613895Y-110149500D01*
X122546856Y-110129815D01*
X122532688Y-110119210D01*
X122531132Y-110117862D01*
X122531128Y-110117857D01*
X122410053Y-110040047D01*
X122410051Y-110040046D01*
X122410049Y-110040045D01*
X122410050Y-110040045D01*
X122271963Y-109999500D01*
X122271961Y-109999500D01*
X122128039Y-109999500D01*
X122128036Y-109999500D01*
X121989949Y-110040045D01*
X121868873Y-110117856D01*
X121868872Y-110117856D01*
X121868872Y-110117857D01*
X121858510Y-110129815D01*
X121774623Y-110226626D01*
X121774622Y-110226628D01*
X121714834Y-110357543D01*
X121694353Y-110500000D01*
X120423894Y-110500000D01*
X120475232Y-110403954D01*
X120535300Y-110205934D01*
X120555583Y-110000000D01*
X120542238Y-109864513D01*
X120555257Y-109795870D01*
X120603321Y-109745159D01*
X120671172Y-109728484D01*
X120737267Y-109751140D01*
X120759351Y-109771155D01*
X120768872Y-109782143D01*
X120889947Y-109859953D01*
X120889950Y-109859954D01*
X120889949Y-109859954D01*
X121028036Y-109900499D01*
X121028038Y-109900500D01*
X121028039Y-109900500D01*
X121171962Y-109900500D01*
X121171962Y-109900499D01*
X121310053Y-109859953D01*
X121431128Y-109782143D01*
X121525377Y-109673373D01*
X121585165Y-109542457D01*
X121605647Y-109400000D01*
X121585165Y-109257543D01*
X121525377Y-109126627D01*
X121431128Y-109017857D01*
X121310053Y-108940047D01*
X121310051Y-108940046D01*
X121310049Y-108940045D01*
X121310050Y-108940045D01*
X121171963Y-108899500D01*
X121171961Y-108899500D01*
X121146544Y-108899500D01*
X121079505Y-108879815D01*
X121058863Y-108863181D01*
X120715213Y-108519531D01*
X120715208Y-108519527D01*
X120635290Y-108473387D01*
X120635289Y-108473386D01*
X120635288Y-108473386D01*
X120546144Y-108449500D01*
X120546143Y-108449500D01*
X120296761Y-108449500D01*
X120229722Y-108429815D01*
X120183967Y-108377011D01*
X120174023Y-108307853D01*
X120203048Y-108244297D01*
X120218097Y-108229646D01*
X120246410Y-108206410D01*
X120290727Y-108152409D01*
X120377685Y-108046450D01*
X120475232Y-107863954D01*
X120535300Y-107665934D01*
X120555583Y-107460000D01*
X120535300Y-107254066D01*
X120475232Y-107056046D01*
X120377685Y-106873550D01*
X120337817Y-106824970D01*
X120328129Y-106813165D01*
X120300816Y-106748855D01*
X120312607Y-106679987D01*
X120359760Y-106628427D01*
X120423982Y-106610500D01*
X120443456Y-106610500D01*
X120510495Y-106630185D01*
X120531137Y-106646819D01*
X120873495Y-106989177D01*
X120906980Y-107050500D01*
X120908552Y-107059210D01*
X120924834Y-107172456D01*
X120957445Y-107243863D01*
X120984623Y-107303373D01*
X121078872Y-107412143D01*
X121199947Y-107489953D01*
X121199950Y-107489954D01*
X121199949Y-107489954D01*
X121307107Y-107521417D01*
X121336336Y-107530000D01*
X121338036Y-107530499D01*
X121338038Y-107530500D01*
X121338039Y-107530500D01*
X121481962Y-107530500D01*
X121481962Y-107530499D01*
X121620053Y-107489953D01*
X121741128Y-107412143D01*
X121835377Y-107303373D01*
X121895165Y-107172457D01*
X121915647Y-107030000D01*
X121895165Y-106887543D01*
X121835377Y-106756627D01*
X121741128Y-106647857D01*
X121620053Y-106570047D01*
X121620051Y-106570046D01*
X121620049Y-106570045D01*
X121620050Y-106570045D01*
X121481963Y-106529500D01*
X121481961Y-106529500D01*
X121456544Y-106529500D01*
X121389505Y-106509815D01*
X121368863Y-106493181D01*
X120855213Y-105979531D01*
X120855208Y-105979527D01*
X120775288Y-105933386D01*
X120773997Y-105933040D01*
X120773990Y-105933036D01*
X120773990Y-105933038D01*
X120730066Y-105921269D01*
X120686144Y-105909500D01*
X120686143Y-105909500D01*
X120296761Y-105909500D01*
X120229722Y-105889815D01*
X120183967Y-105837011D01*
X120174023Y-105767853D01*
X120203048Y-105704297D01*
X120218097Y-105689646D01*
X120246410Y-105666410D01*
X120266858Y-105641494D01*
X120377685Y-105506450D01*
X120475232Y-105323954D01*
X120535300Y-105125934D01*
X120555583Y-104920000D01*
X120535300Y-104714066D01*
X120475232Y-104516046D01*
X120377685Y-104333550D01*
X120325702Y-104270209D01*
X120246410Y-104173589D01*
X120086452Y-104042317D01*
X120086453Y-104042317D01*
X120086450Y-104042315D01*
X119903954Y-103944768D01*
X119705934Y-103884700D01*
X119705932Y-103884699D01*
X119705934Y-103884699D01*
X119500000Y-103864417D01*
X119294067Y-103884699D01*
X119096043Y-103944769D01*
X118985898Y-104003643D01*
X118913550Y-104042315D01*
X118913548Y-104042316D01*
X118913547Y-104042317D01*
X118753589Y-104173589D01*
X118622317Y-104333547D01*
X118524769Y-104516043D01*
X118464699Y-104714067D01*
X118444417Y-104920000D01*
X118464699Y-105125932D01*
X118464700Y-105125934D01*
X118524768Y-105323954D01*
X118622315Y-105506450D01*
X118622317Y-105506452D01*
X118753589Y-105666410D01*
X118781903Y-105689646D01*
X118821238Y-105747392D01*
X118823109Y-105817236D01*
X118786922Y-105877005D01*
X118724166Y-105907721D01*
X118703239Y-105909500D01*
X113956544Y-105909500D01*
X113889505Y-105889815D01*
X113868863Y-105873181D01*
X111660015Y-103664333D01*
X111626530Y-103603010D01*
X111631514Y-103533318D01*
X111635314Y-103524247D01*
X111645465Y-103502478D01*
X111679575Y-103429330D01*
X111736207Y-103217977D01*
X111755277Y-103000000D01*
X111736207Y-102782023D01*
X111683665Y-102585934D01*
X111679577Y-102570677D01*
X111679576Y-102570676D01*
X111679575Y-102570670D01*
X111590664Y-102380000D01*
X118444417Y-102380000D01*
X118464699Y-102585932D01*
X118464700Y-102585934D01*
X118524768Y-102783954D01*
X118622315Y-102966450D01*
X118622317Y-102966452D01*
X118753589Y-103126410D01*
X118840648Y-103197856D01*
X118913550Y-103257685D01*
X119096046Y-103355232D01*
X119294066Y-103415300D01*
X119294065Y-103415300D01*
X119312529Y-103417118D01*
X119500000Y-103435583D01*
X119705934Y-103415300D01*
X119903954Y-103355232D01*
X120086450Y-103257685D01*
X120246410Y-103126410D01*
X120377685Y-102966450D01*
X120475232Y-102783954D01*
X120535300Y-102585934D01*
X120555583Y-102380000D01*
X138770417Y-102380000D01*
X138790699Y-102585932D01*
X138790700Y-102585934D01*
X138850768Y-102783954D01*
X138948315Y-102966450D01*
X138948317Y-102966452D01*
X139079589Y-103126410D01*
X139166648Y-103197856D01*
X139239550Y-103257685D01*
X139422046Y-103355232D01*
X139620066Y-103415300D01*
X139620065Y-103415300D01*
X139638529Y-103417118D01*
X139826000Y-103435583D01*
X140031934Y-103415300D01*
X140229954Y-103355232D01*
X140412450Y-103257685D01*
X140572410Y-103126410D01*
X140703685Y-102966450D01*
X140801232Y-102783954D01*
X140861300Y-102585934D01*
X140881583Y-102380000D01*
X140861300Y-102174066D01*
X140801232Y-101976046D01*
X140703685Y-101793550D01*
X140607760Y-101676664D01*
X140572410Y-101633589D01*
X140412452Y-101502317D01*
X140412453Y-101502317D01*
X140412450Y-101502315D01*
X140229954Y-101404768D01*
X140031934Y-101344700D01*
X140031932Y-101344699D01*
X140031934Y-101344699D01*
X139826000Y-101324417D01*
X139620067Y-101344699D01*
X139422043Y-101404769D01*
X139311898Y-101463643D01*
X139239550Y-101502315D01*
X139239548Y-101502316D01*
X139239547Y-101502317D01*
X139079589Y-101633589D01*
X138948317Y-101793547D01*
X138850769Y-101976043D01*
X138790699Y-102174067D01*
X138770417Y-102380000D01*
X120555583Y-102380000D01*
X120535300Y-102174066D01*
X120475232Y-101976046D01*
X120377685Y-101793550D01*
X120281760Y-101676664D01*
X120246410Y-101633589D01*
X120086452Y-101502317D01*
X120086453Y-101502317D01*
X120086450Y-101502315D01*
X119903954Y-101404768D01*
X119705934Y-101344700D01*
X119705932Y-101344699D01*
X119705934Y-101344699D01*
X119500000Y-101324417D01*
X119294067Y-101344699D01*
X119096043Y-101404769D01*
X118985898Y-101463643D01*
X118913550Y-101502315D01*
X118913548Y-101502316D01*
X118913547Y-101502317D01*
X118753589Y-101633589D01*
X118622317Y-101793547D01*
X118524769Y-101976043D01*
X118464699Y-102174067D01*
X118444417Y-102380000D01*
X111590664Y-102380000D01*
X111587102Y-102372362D01*
X111587100Y-102372359D01*
X111587099Y-102372357D01*
X111461599Y-102193124D01*
X111410931Y-102142456D01*
X111306877Y-102038402D01*
X111160736Y-101936073D01*
X111117113Y-101881498D01*
X111109921Y-101811999D01*
X111141443Y-101749645D01*
X111201673Y-101714231D01*
X111231862Y-101710500D01*
X111569750Y-101710500D01*
X111569751Y-101710499D01*
X111584568Y-101707552D01*
X111628229Y-101698868D01*
X111628229Y-101698867D01*
X111628231Y-101698867D01*
X111694552Y-101654552D01*
X111738867Y-101588231D01*
X111738867Y-101588229D01*
X111738868Y-101588229D01*
X111750499Y-101529752D01*
X111750500Y-101529750D01*
X111750500Y-99840000D01*
X118444417Y-99840000D01*
X118464699Y-100045932D01*
X118464700Y-100045934D01*
X118524768Y-100243954D01*
X118622315Y-100426450D01*
X118622317Y-100426452D01*
X118753589Y-100586410D01*
X118830768Y-100649748D01*
X118913550Y-100717685D01*
X119096046Y-100815232D01*
X119294066Y-100875300D01*
X119294065Y-100875300D01*
X119312529Y-100877118D01*
X119500000Y-100895583D01*
X119705934Y-100875300D01*
X119903954Y-100815232D01*
X120086450Y-100717685D01*
X120246410Y-100586410D01*
X120377685Y-100426450D01*
X120475232Y-100243954D01*
X120535300Y-100045934D01*
X120555583Y-99840000D01*
X120535300Y-99634066D01*
X120475232Y-99436046D01*
X120377685Y-99253550D01*
X120325702Y-99190209D01*
X120246410Y-99093589D01*
X120086452Y-98962317D01*
X120086453Y-98962317D01*
X120086450Y-98962315D01*
X119903954Y-98864768D01*
X119705934Y-98804700D01*
X119705932Y-98804699D01*
X119705934Y-98804699D01*
X119500000Y-98784417D01*
X119294067Y-98804699D01*
X119096043Y-98864769D01*
X118985898Y-98923643D01*
X118913550Y-98962315D01*
X118913548Y-98962316D01*
X118913547Y-98962317D01*
X118753589Y-99093589D01*
X118622317Y-99253547D01*
X118622315Y-99253550D01*
X118583643Y-99325898D01*
X118524769Y-99436043D01*
X118464699Y-99634067D01*
X118444417Y-99840000D01*
X111750500Y-99840000D01*
X111750500Y-99390249D01*
X111750499Y-99390247D01*
X111738868Y-99331770D01*
X111738867Y-99331769D01*
X111694552Y-99265447D01*
X111628230Y-99221132D01*
X111628229Y-99221131D01*
X111569752Y-99209500D01*
X111569748Y-99209500D01*
X109430252Y-99209500D01*
X109430247Y-99209500D01*
X109371770Y-99221131D01*
X109371769Y-99221132D01*
X109305447Y-99265447D01*
X109261132Y-99331769D01*
X109261131Y-99331770D01*
X109249500Y-99390247D01*
X109249500Y-101529752D01*
X109261131Y-101588229D01*
X109261132Y-101588230D01*
X109305447Y-101654552D01*
X109371769Y-101698867D01*
X109371770Y-101698868D01*
X109430247Y-101710499D01*
X109430250Y-101710500D01*
X109768138Y-101710500D01*
X109835177Y-101730185D01*
X109880932Y-101782989D01*
X109890876Y-101852147D01*
X109861851Y-101915703D01*
X109839261Y-101936075D01*
X109693121Y-102038402D01*
X109538402Y-102193121D01*
X109412900Y-102372357D01*
X109412898Y-102372361D01*
X109320426Y-102570668D01*
X109320422Y-102570677D01*
X109263793Y-102782020D01*
X109263793Y-102782024D01*
X109244723Y-102999997D01*
X109244723Y-103000002D01*
X109263793Y-103217975D01*
X109263793Y-103217979D01*
X109320422Y-103429322D01*
X109320424Y-103429326D01*
X109320425Y-103429330D01*
X109364686Y-103524247D01*
X109412897Y-103627638D01*
X109412898Y-103627639D01*
X109538402Y-103806877D01*
X109693123Y-103961598D01*
X109872361Y-104087102D01*
X110023583Y-104157618D01*
X110076022Y-104203790D01*
X110095174Y-104270984D01*
X110074958Y-104337865D01*
X110023583Y-104382382D01*
X109872361Y-104452898D01*
X109872357Y-104452900D01*
X109693121Y-104578402D01*
X109538402Y-104733121D01*
X109412900Y-104912357D01*
X109412898Y-104912361D01*
X109320426Y-105110668D01*
X109320422Y-105110677D01*
X109263793Y-105322020D01*
X109263793Y-105322024D01*
X109244723Y-105539997D01*
X109244723Y-105540002D01*
X109247452Y-105571194D01*
X109262257Y-105740425D01*
X109263793Y-105757975D01*
X109263793Y-105757979D01*
X109320422Y-105969322D01*
X109320424Y-105969326D01*
X109320425Y-105969330D01*
X109325182Y-105979531D01*
X109412897Y-106167638D01*
X109412898Y-106167639D01*
X109538402Y-106346877D01*
X109693123Y-106501598D01*
X109732388Y-106529091D01*
X109776010Y-106583666D01*
X109783203Y-106653165D01*
X109751681Y-106715519D01*
X109726052Y-106736391D01*
X109592057Y-106818503D01*
X109592057Y-106818504D01*
X110329765Y-107556212D01*
X110287708Y-107567482D01*
X110162292Y-107639890D01*
X110059890Y-107742292D01*
X109987482Y-107867708D01*
X109976212Y-107909765D01*
X109238504Y-107172057D01*
X109114668Y-107374138D01*
X109021303Y-107599542D01*
X108964348Y-107836780D01*
X108945207Y-108080000D01*
X105411349Y-108080000D01*
X105411349Y-92402155D01*
X108950000Y-92402155D01*
X108950000Y-93250000D01*
X110009252Y-93250000D01*
X109987482Y-93287708D01*
X109950000Y-93427591D01*
X109950000Y-93572409D01*
X109987482Y-93712292D01*
X110009252Y-93750000D01*
X108950000Y-93750000D01*
X108950000Y-94597844D01*
X108956401Y-94657372D01*
X108956403Y-94657379D01*
X109006645Y-94792086D01*
X109006649Y-94792093D01*
X109092809Y-94907187D01*
X109092812Y-94907190D01*
X109207906Y-94993350D01*
X109207913Y-94993354D01*
X109342620Y-95043596D01*
X109342627Y-95043598D01*
X109402155Y-95049999D01*
X109402172Y-95050000D01*
X109428424Y-95050000D01*
X109495463Y-95069685D01*
X109541218Y-95122489D01*
X109551162Y-95191647D01*
X109529999Y-95245123D01*
X109412900Y-95412357D01*
X109412898Y-95412361D01*
X109320426Y-95610668D01*
X109320422Y-95610677D01*
X109263793Y-95822020D01*
X109263793Y-95822024D01*
X109251342Y-95964348D01*
X109244723Y-96040000D01*
X109261618Y-96233121D01*
X109263793Y-96257975D01*
X109263793Y-96257979D01*
X109320422Y-96469322D01*
X109320424Y-96469326D01*
X109320425Y-96469330D01*
X109349717Y-96532147D01*
X109412897Y-96667638D01*
X109427321Y-96688237D01*
X109538402Y-96846877D01*
X109693123Y-97001598D01*
X109872361Y-97127102D01*
X110070670Y-97219575D01*
X110282023Y-97276207D01*
X110464926Y-97292208D01*
X110499998Y-97295277D01*
X110500000Y-97295277D01*
X110500002Y-97295277D01*
X110528254Y-97292805D01*
X110717977Y-97276207D01*
X110929330Y-97219575D01*
X111127639Y-97127102D01*
X111306877Y-97001598D01*
X111461598Y-96846877D01*
X111587102Y-96667639D01*
X111679575Y-96469330D01*
X111736207Y-96257977D01*
X111755277Y-96040000D01*
X116494353Y-96040000D01*
X116514834Y-96182456D01*
X116574622Y-96313371D01*
X116574623Y-96313373D01*
X116668872Y-96422143D01*
X116789947Y-96499953D01*
X116789950Y-96499954D01*
X116789949Y-96499954D01*
X116888376Y-96528854D01*
X116924633Y-96539500D01*
X116928036Y-96540499D01*
X116928038Y-96540500D01*
X116928039Y-96540500D01*
X117071962Y-96540500D01*
X117071962Y-96540499D01*
X117210053Y-96499953D01*
X117331128Y-96422143D01*
X117331136Y-96422133D01*
X117332688Y-96420790D01*
X117334572Y-96419929D01*
X117338589Y-96417348D01*
X117338960Y-96417925D01*
X117396243Y-96391763D01*
X117413895Y-96390500D01*
X118625258Y-96390500D01*
X118692297Y-96410185D01*
X118738052Y-96462989D01*
X118747996Y-96532147D01*
X118721112Y-96593164D01*
X118622317Y-96713547D01*
X118524769Y-96896043D01*
X118464699Y-97094067D01*
X118444417Y-97300000D01*
X118464699Y-97505932D01*
X118464700Y-97505934D01*
X118524768Y-97703954D01*
X118622315Y-97886450D01*
X118622317Y-97886452D01*
X118753589Y-98046410D01*
X118848496Y-98124297D01*
X118913550Y-98177685D01*
X119096046Y-98275232D01*
X119294066Y-98335300D01*
X119294065Y-98335300D01*
X119312529Y-98337118D01*
X119500000Y-98355583D01*
X119705934Y-98335300D01*
X119903954Y-98275232D01*
X120086450Y-98177685D01*
X120246410Y-98046410D01*
X120377685Y-97886450D01*
X120475232Y-97703954D01*
X120535300Y-97505934D01*
X120555583Y-97300000D01*
X138770417Y-97300000D01*
X138790699Y-97505932D01*
X138790700Y-97505934D01*
X138850768Y-97703954D01*
X138948315Y-97886450D01*
X138948317Y-97886452D01*
X139079589Y-98046410D01*
X139174496Y-98124297D01*
X139239550Y-98177685D01*
X139422046Y-98275232D01*
X139620066Y-98335300D01*
X139620065Y-98335300D01*
X139638529Y-98337118D01*
X139826000Y-98355583D01*
X140031934Y-98335300D01*
X140216836Y-98279210D01*
X140286699Y-98278588D01*
X140340509Y-98310191D01*
X141613181Y-99582862D01*
X141646666Y-99644185D01*
X141649500Y-99670543D01*
X141649500Y-100868456D01*
X141629815Y-100935495D01*
X141577011Y-100981250D01*
X141507853Y-100991194D01*
X141444297Y-100962169D01*
X141437819Y-100956137D01*
X140836191Y-100354509D01*
X140802706Y-100293186D01*
X140805210Y-100230837D01*
X140861300Y-100045934D01*
X140881583Y-99840000D01*
X140861300Y-99634066D01*
X140801232Y-99436046D01*
X140703685Y-99253550D01*
X140651702Y-99190209D01*
X140572410Y-99093589D01*
X140412452Y-98962317D01*
X140412453Y-98962317D01*
X140412450Y-98962315D01*
X140229954Y-98864768D01*
X140031934Y-98804700D01*
X140031932Y-98804699D01*
X140031934Y-98804699D01*
X139826000Y-98784417D01*
X139620067Y-98804699D01*
X139422043Y-98864769D01*
X139311898Y-98923643D01*
X139239550Y-98962315D01*
X139239548Y-98962316D01*
X139239547Y-98962317D01*
X139079589Y-99093589D01*
X138948317Y-99253547D01*
X138948315Y-99253550D01*
X138909643Y-99325898D01*
X138850769Y-99436043D01*
X138790699Y-99634067D01*
X138770417Y-99840000D01*
X138790699Y-100045932D01*
X138790700Y-100045934D01*
X138850768Y-100243954D01*
X138948315Y-100426450D01*
X138948317Y-100426452D01*
X139079589Y-100586410D01*
X139156768Y-100649748D01*
X139239550Y-100717685D01*
X139422046Y-100815232D01*
X139620066Y-100875300D01*
X139620065Y-100875300D01*
X139638529Y-100877118D01*
X139826000Y-100895583D01*
X140031934Y-100875300D01*
X140216836Y-100819210D01*
X140286699Y-100818588D01*
X140340509Y-100850191D01*
X141113181Y-101622863D01*
X141146666Y-101684186D01*
X141149500Y-101710544D01*
X141149500Y-105448456D01*
X141129815Y-105515495D01*
X141077011Y-105561250D01*
X141007853Y-105571194D01*
X140944297Y-105542169D01*
X140937819Y-105536137D01*
X140836191Y-105434509D01*
X140802706Y-105373186D01*
X140805210Y-105310837D01*
X140861300Y-105125934D01*
X140881583Y-104920000D01*
X140861300Y-104714066D01*
X140801232Y-104516046D01*
X140703685Y-104333550D01*
X140651702Y-104270209D01*
X140572410Y-104173589D01*
X140412452Y-104042317D01*
X140412453Y-104042317D01*
X140412450Y-104042315D01*
X140229954Y-103944768D01*
X140031934Y-103884700D01*
X140031932Y-103884699D01*
X140031934Y-103884699D01*
X139826000Y-103864417D01*
X139620067Y-103884699D01*
X139422043Y-103944769D01*
X139311898Y-104003643D01*
X139239550Y-104042315D01*
X139239548Y-104042316D01*
X139239547Y-104042317D01*
X139079589Y-104173589D01*
X138948317Y-104333547D01*
X138850769Y-104516043D01*
X138790699Y-104714067D01*
X138770417Y-104920000D01*
X138790699Y-105125932D01*
X138790700Y-105125934D01*
X138850768Y-105323954D01*
X138948315Y-105506450D01*
X138948317Y-105506452D01*
X139079589Y-105666410D01*
X139149285Y-105723607D01*
X139239550Y-105797685D01*
X139422046Y-105895232D01*
X139620066Y-105955300D01*
X139620065Y-105955300D01*
X139638529Y-105957118D01*
X139826000Y-105975583D01*
X140031934Y-105955300D01*
X140216836Y-105899210D01*
X140286699Y-105898588D01*
X140340509Y-105930191D01*
X141113181Y-106702863D01*
X141146666Y-106764186D01*
X141149500Y-106790544D01*
X141149500Y-111093963D01*
X141129815Y-111161002D01*
X141119214Y-111175164D01*
X141074625Y-111226623D01*
X141074622Y-111226628D01*
X141014834Y-111357543D01*
X140994353Y-111500000D01*
X141014834Y-111642456D01*
X141040692Y-111699075D01*
X141074623Y-111773373D01*
X141168872Y-111882143D01*
X141289947Y-111959953D01*
X141289950Y-111959954D01*
X141289949Y-111959954D01*
X141396662Y-111991287D01*
X141426336Y-112000000D01*
X141428036Y-112000499D01*
X141428038Y-112000500D01*
X141536978Y-112000500D01*
X141604017Y-112020185D01*
X141649772Y-112072989D01*
X141659716Y-112106853D01*
X141664834Y-112142456D01*
X141713577Y-112249186D01*
X141724623Y-112273373D01*
X141818872Y-112382143D01*
X141939947Y-112459953D01*
X141939950Y-112459954D01*
X141939949Y-112459954D01*
X142047107Y-112491417D01*
X142074633Y-112499500D01*
X142078036Y-112500499D01*
X142078038Y-112500500D01*
X142078039Y-112500500D01*
X142221962Y-112500500D01*
X142221962Y-112500499D01*
X142360053Y-112459953D01*
X142481128Y-112382143D01*
X142575377Y-112273373D01*
X142635165Y-112142457D01*
X142651447Y-112029208D01*
X142680470Y-111965656D01*
X142686488Y-111959192D01*
X143280470Y-111365212D01*
X143326614Y-111285288D01*
X143350500Y-111196143D01*
X143350500Y-111103856D01*
X143350500Y-106633644D01*
X143326614Y-106544500D01*
X143317954Y-106529500D01*
X143280470Y-106464576D01*
X142386819Y-105570925D01*
X142353334Y-105509602D01*
X142350500Y-105483244D01*
X142350500Y-103580000D01*
X143994353Y-103580000D01*
X144014834Y-103722456D01*
X144063949Y-103830000D01*
X144074623Y-103853373D01*
X144119213Y-103904833D01*
X144148238Y-103968388D01*
X144149500Y-103986035D01*
X144149500Y-107546144D01*
X144149901Y-107547639D01*
X144171800Y-107629370D01*
X144171809Y-107629401D01*
X144173386Y-107635289D01*
X144219527Y-107715208D01*
X144219531Y-107715213D01*
X144463495Y-107959177D01*
X144496980Y-108020500D01*
X144498552Y-108029210D01*
X144514834Y-108142456D01*
X144551980Y-108223793D01*
X144574623Y-108273373D01*
X144668872Y-108382143D01*
X144789947Y-108459953D01*
X144789950Y-108459954D01*
X144789949Y-108459954D01*
X144897107Y-108491417D01*
X144920897Y-108498403D01*
X144928036Y-108500499D01*
X144928038Y-108500500D01*
X144928039Y-108500500D01*
X145071962Y-108500500D01*
X145071962Y-108500499D01*
X145210053Y-108459953D01*
X145331128Y-108382143D01*
X145425377Y-108273373D01*
X145485165Y-108142457D01*
X145505647Y-108000000D01*
X145485165Y-107857543D01*
X145425377Y-107726627D01*
X145331128Y-107617857D01*
X145210053Y-107540047D01*
X145210051Y-107540046D01*
X145210049Y-107540045D01*
X145210050Y-107540045D01*
X145071963Y-107499500D01*
X145071961Y-107499500D01*
X145046544Y-107499500D01*
X144979505Y-107479815D01*
X144958863Y-107463181D01*
X144886819Y-107391137D01*
X144853334Y-107329814D01*
X144850500Y-107303456D01*
X144850500Y-104380000D01*
X162945207Y-104380000D01*
X162964348Y-104623219D01*
X163021303Y-104860457D01*
X163114668Y-105085861D01*
X163238504Y-105287941D01*
X163976212Y-104550233D01*
X163987482Y-104592292D01*
X164059890Y-104717708D01*
X164162292Y-104820110D01*
X164287708Y-104892518D01*
X164329765Y-104903787D01*
X163592057Y-105641494D01*
X163726052Y-105723607D01*
X163772927Y-105775419D01*
X163784350Y-105844348D01*
X163756693Y-105908511D01*
X163732387Y-105930908D01*
X163693120Y-105958403D01*
X163538402Y-106113121D01*
X163412900Y-106292357D01*
X163412898Y-106292361D01*
X163320426Y-106490668D01*
X163320422Y-106490677D01*
X163263793Y-106702020D01*
X163263793Y-106702024D01*
X163244723Y-106919997D01*
X163244723Y-106920002D01*
X163263793Y-107137975D01*
X163263793Y-107137979D01*
X163320422Y-107349322D01*
X163320424Y-107349326D01*
X163320425Y-107349330D01*
X163339920Y-107391137D01*
X163412897Y-107547638D01*
X163412898Y-107547639D01*
X163538402Y-107726877D01*
X163693123Y-107881598D01*
X163849775Y-107991287D01*
X163872361Y-108007102D01*
X164023583Y-108077618D01*
X164076022Y-108123790D01*
X164095174Y-108190984D01*
X164074958Y-108257865D01*
X164023583Y-108302382D01*
X163872361Y-108372898D01*
X163872357Y-108372900D01*
X163693121Y-108498402D01*
X163538402Y-108653121D01*
X163412900Y-108832357D01*
X163412898Y-108832361D01*
X163320426Y-109030668D01*
X163320422Y-109030677D01*
X163263793Y-109242020D01*
X163263793Y-109242024D01*
X163252894Y-109366607D01*
X163244723Y-109460000D01*
X163259579Y-109629815D01*
X163263793Y-109677975D01*
X163263793Y-109677979D01*
X163320422Y-109889322D01*
X163320424Y-109889326D01*
X163320425Y-109889330D01*
X163325634Y-109900500D01*
X163412897Y-110087638D01*
X163412898Y-110087639D01*
X163538402Y-110266877D01*
X163693123Y-110421598D01*
X163839263Y-110523926D01*
X163882887Y-110578502D01*
X163890079Y-110648001D01*
X163858557Y-110710355D01*
X163798327Y-110745769D01*
X163768138Y-110749500D01*
X163430247Y-110749500D01*
X163371770Y-110761131D01*
X163371769Y-110761132D01*
X163305447Y-110805447D01*
X163261132Y-110871769D01*
X163261131Y-110871770D01*
X163249500Y-110930247D01*
X163249500Y-113069752D01*
X163261131Y-113128229D01*
X163261132Y-113128230D01*
X163305447Y-113194552D01*
X163371769Y-113238867D01*
X163371770Y-113238868D01*
X163430247Y-113250499D01*
X163430250Y-113250500D01*
X163430252Y-113250500D01*
X165569750Y-113250500D01*
X165569751Y-113250499D01*
X165584568Y-113247552D01*
X165628229Y-113238868D01*
X165628229Y-113238867D01*
X165628231Y-113238867D01*
X165694552Y-113194552D01*
X165738867Y-113128231D01*
X165738867Y-113128229D01*
X165738868Y-113128229D01*
X165750499Y-113069752D01*
X165750500Y-113069750D01*
X165750500Y-110930249D01*
X165750499Y-110930247D01*
X165738868Y-110871770D01*
X165738867Y-110871769D01*
X165694552Y-110805447D01*
X165628230Y-110761132D01*
X165628229Y-110761131D01*
X165569752Y-110749500D01*
X165569748Y-110749500D01*
X165231862Y-110749500D01*
X165164823Y-110729815D01*
X165119068Y-110677011D01*
X165109124Y-110607853D01*
X165138149Y-110544297D01*
X165160734Y-110523928D01*
X165306877Y-110421598D01*
X165461598Y-110266877D01*
X165587102Y-110087639D01*
X165679575Y-109889330D01*
X165736207Y-109677977D01*
X165755277Y-109460000D01*
X165736207Y-109242023D01*
X165679575Y-109030670D01*
X165587102Y-108832362D01*
X165587100Y-108832359D01*
X165587099Y-108832357D01*
X165461599Y-108653124D01*
X165388660Y-108580185D01*
X165306877Y-108498402D01*
X165127639Y-108372898D01*
X164976414Y-108302381D01*
X164923977Y-108256210D01*
X164904825Y-108189016D01*
X164925041Y-108122135D01*
X164976414Y-108077618D01*
X165127639Y-108007102D01*
X165306877Y-107881598D01*
X165461598Y-107726877D01*
X165587102Y-107547639D01*
X165679575Y-107349330D01*
X165736207Y-107137977D01*
X165755277Y-106920000D01*
X165755258Y-106919788D01*
X165743951Y-106790544D01*
X165736207Y-106702023D01*
X165692919Y-106540470D01*
X165679577Y-106490677D01*
X165679576Y-106490676D01*
X165679575Y-106490670D01*
X165587102Y-106292362D01*
X165587100Y-106292359D01*
X165587099Y-106292357D01*
X165461599Y-106113124D01*
X165412722Y-106064247D01*
X165306877Y-105958402D01*
X165271151Y-105933386D01*
X165267612Y-105930908D01*
X165223987Y-105876331D01*
X165216795Y-105806832D01*
X165248318Y-105744478D01*
X165273946Y-105723607D01*
X165407941Y-105641494D01*
X164670235Y-104903787D01*
X164712292Y-104892518D01*
X164837708Y-104820110D01*
X164940110Y-104717708D01*
X165012518Y-104592292D01*
X165023787Y-104550234D01*
X165761494Y-105287941D01*
X165761495Y-105287941D01*
X165885331Y-105085861D01*
X165978696Y-104860457D01*
X166035651Y-104623219D01*
X166054792Y-104380000D01*
X166035651Y-104136780D01*
X165978696Y-103899542D01*
X165885331Y-103674138D01*
X165761494Y-103472057D01*
X165023787Y-104209764D01*
X165012518Y-104167708D01*
X164940110Y-104042292D01*
X164837708Y-103939890D01*
X164712292Y-103867482D01*
X164670234Y-103856212D01*
X165407941Y-103118504D01*
X165205861Y-102994668D01*
X164980457Y-102901303D01*
X164743219Y-102844348D01*
X164743220Y-102844348D01*
X164500000Y-102825207D01*
X164256780Y-102844348D01*
X164019542Y-102901303D01*
X163794138Y-102994668D01*
X163592057Y-103118504D01*
X164329766Y-103856212D01*
X164287708Y-103867482D01*
X164162292Y-103939890D01*
X164059890Y-104042292D01*
X163987482Y-104167708D01*
X163976212Y-104209765D01*
X163238504Y-103472057D01*
X163114668Y-103674138D01*
X163021303Y-103899542D01*
X162964348Y-104136780D01*
X162945207Y-104380000D01*
X144850500Y-104380000D01*
X144850500Y-103986035D01*
X144870185Y-103918996D01*
X144880782Y-103904837D01*
X144925377Y-103853373D01*
X144985165Y-103722457D01*
X145005647Y-103580000D01*
X144985165Y-103437543D01*
X144925377Y-103306627D01*
X144831128Y-103197857D01*
X144710053Y-103120047D01*
X144710051Y-103120046D01*
X144710049Y-103120045D01*
X144710050Y-103120045D01*
X144571963Y-103079500D01*
X144571961Y-103079500D01*
X144428039Y-103079500D01*
X144428036Y-103079500D01*
X144289949Y-103120045D01*
X144168873Y-103197856D01*
X144074623Y-103306626D01*
X144074622Y-103306628D01*
X144014834Y-103437543D01*
X143994353Y-103580000D01*
X142350500Y-103580000D01*
X142350500Y-99427858D01*
X142350500Y-99427856D01*
X142326614Y-99338712D01*
X142322606Y-99331770D01*
X142280473Y-99258794D01*
X142280470Y-99258791D01*
X142280469Y-99258788D01*
X142215212Y-99193531D01*
X140836191Y-97814509D01*
X140802706Y-97753186D01*
X140805210Y-97690837D01*
X140861300Y-97505934D01*
X140867302Y-97445000D01*
X148493053Y-97445000D01*
X148513534Y-97587456D01*
X148550153Y-97667638D01*
X148573323Y-97718373D01*
X148617913Y-97769833D01*
X148646938Y-97833388D01*
X148648200Y-97851035D01*
X148648200Y-101595463D01*
X148628515Y-101662502D01*
X148617914Y-101676664D01*
X148574625Y-101726622D01*
X148574622Y-101726628D01*
X148514834Y-101857543D01*
X148494353Y-102000000D01*
X148514834Y-102142456D01*
X148537974Y-102193124D01*
X148574623Y-102273373D01*
X148668872Y-102382143D01*
X148789947Y-102459953D01*
X148789950Y-102459954D01*
X148789949Y-102459954D01*
X148928036Y-102500499D01*
X148928038Y-102500500D01*
X148928039Y-102500500D01*
X149071962Y-102500500D01*
X149071962Y-102500499D01*
X149210053Y-102459953D01*
X149331128Y-102382143D01*
X149425377Y-102273373D01*
X149485165Y-102142457D01*
X149505647Y-102000000D01*
X149485165Y-101857543D01*
X149425377Y-101726627D01*
X149411441Y-101710544D01*
X149379487Y-101673666D01*
X149350462Y-101610111D01*
X149349200Y-101592464D01*
X149349200Y-97851035D01*
X149368885Y-97783996D01*
X149379482Y-97769837D01*
X149424077Y-97718373D01*
X149483865Y-97587457D01*
X149504347Y-97445000D01*
X149483865Y-97302543D01*
X149424077Y-97171627D01*
X149329828Y-97062857D01*
X149208753Y-96985047D01*
X149208751Y-96985046D01*
X149208749Y-96985045D01*
X149208750Y-96985045D01*
X149070663Y-96944500D01*
X149070661Y-96944500D01*
X148926739Y-96944500D01*
X148926736Y-96944500D01*
X148788649Y-96985045D01*
X148667573Y-97062856D01*
X148573323Y-97171626D01*
X148573322Y-97171628D01*
X148513534Y-97302543D01*
X148493053Y-97445000D01*
X140867302Y-97445000D01*
X140881583Y-97300000D01*
X140861300Y-97094066D01*
X140801232Y-96896046D01*
X140703685Y-96713550D01*
X140619254Y-96610670D01*
X140572410Y-96553589D01*
X140412452Y-96422317D01*
X140412453Y-96422317D01*
X140412450Y-96422315D01*
X140229954Y-96324768D01*
X140031934Y-96264700D01*
X140031932Y-96264699D01*
X140031934Y-96264699D01*
X139826000Y-96244417D01*
X139620067Y-96264699D01*
X139422043Y-96324769D01*
X139343762Y-96366612D01*
X139239550Y-96422315D01*
X139239548Y-96422316D01*
X139239547Y-96422317D01*
X139079589Y-96553589D01*
X138948317Y-96713547D01*
X138850769Y-96896043D01*
X138790699Y-97094067D01*
X138770417Y-97300000D01*
X120555583Y-97300000D01*
X120535300Y-97094066D01*
X120475232Y-96896046D01*
X120377685Y-96713550D01*
X120293260Y-96610677D01*
X120278888Y-96593164D01*
X120251576Y-96528854D01*
X120263367Y-96459987D01*
X120310520Y-96408427D01*
X120374742Y-96390500D01*
X127506917Y-96390500D01*
X127506919Y-96390500D01*
X127596063Y-96366614D01*
X127675987Y-96320470D01*
X127735488Y-96260969D01*
X127796811Y-96227484D01*
X127823169Y-96224650D01*
X127848587Y-96224650D01*
X127848587Y-96224649D01*
X127986678Y-96184103D01*
X128107753Y-96106293D01*
X128202002Y-95997523D01*
X128261790Y-95866607D01*
X128282272Y-95724150D01*
X128540978Y-95724150D01*
X128561459Y-95866606D01*
X128574618Y-95895419D01*
X128621248Y-95997523D01*
X128715497Y-96106293D01*
X128836572Y-96184103D01*
X128836575Y-96184104D01*
X128836574Y-96184104D01*
X128974661Y-96224649D01*
X128974663Y-96224650D01*
X128974664Y-96224650D01*
X129118587Y-96224650D01*
X129118587Y-96224649D01*
X129256678Y-96184103D01*
X129377753Y-96106293D01*
X129472002Y-95997523D01*
X129531790Y-95866607D01*
X129552272Y-95724150D01*
X129531790Y-95581693D01*
X129472002Y-95450777D01*
X129471999Y-95450773D01*
X129427411Y-95399314D01*
X129398387Y-95335758D01*
X129397125Y-95318113D01*
X129397125Y-94760000D01*
X138770417Y-94760000D01*
X138790699Y-94965932D01*
X138816201Y-95050000D01*
X138850768Y-95163954D01*
X138948315Y-95346450D01*
X138963016Y-95364363D01*
X139079589Y-95506410D01*
X139134100Y-95551145D01*
X139239550Y-95637685D01*
X139422046Y-95735232D01*
X139620066Y-95795300D01*
X139620065Y-95795300D01*
X139638529Y-95797118D01*
X139826000Y-95815583D01*
X140031934Y-95795300D01*
X140229954Y-95735232D01*
X140412450Y-95637685D01*
X140572410Y-95506410D01*
X140703685Y-95346450D01*
X140801232Y-95163954D01*
X140861300Y-94965934D01*
X140881583Y-94760000D01*
X140861300Y-94554066D01*
X140801232Y-94356046D01*
X140703685Y-94173550D01*
X140651702Y-94110209D01*
X140572410Y-94013589D01*
X140412452Y-93882317D01*
X140412453Y-93882317D01*
X140412450Y-93882315D01*
X140229954Y-93784768D01*
X140031934Y-93724700D01*
X140031932Y-93724699D01*
X140031934Y-93724699D01*
X139826000Y-93704417D01*
X139620067Y-93724699D01*
X139422043Y-93784769D01*
X139323003Y-93837708D01*
X139239550Y-93882315D01*
X139239548Y-93882316D01*
X139239547Y-93882317D01*
X139079589Y-94013589D01*
X138948317Y-94173547D01*
X138948315Y-94173550D01*
X138909643Y-94245898D01*
X138850769Y-94356043D01*
X138790699Y-94554067D01*
X138770417Y-94760000D01*
X129397125Y-94760000D01*
X129397125Y-93649919D01*
X129416810Y-93582880D01*
X129433444Y-93562238D01*
X130593527Y-92402155D01*
X130775682Y-92220000D01*
X138770417Y-92220000D01*
X138790699Y-92425932D01*
X138790700Y-92425934D01*
X138850768Y-92623954D01*
X138948315Y-92806450D01*
X138948317Y-92806452D01*
X139079589Y-92966410D01*
X139156463Y-93029498D01*
X139239550Y-93097685D01*
X139422046Y-93195232D01*
X139620066Y-93255300D01*
X139620065Y-93255300D01*
X139638529Y-93257118D01*
X139826000Y-93275583D01*
X140031934Y-93255300D01*
X140229954Y-93195232D01*
X140412450Y-93097685D01*
X140470555Y-93050000D01*
X144494353Y-93050000D01*
X144514834Y-93192456D01*
X144572209Y-93318087D01*
X144574623Y-93323373D01*
X144668872Y-93432143D01*
X144789947Y-93509953D01*
X144789950Y-93509954D01*
X144789949Y-93509954D01*
X144928036Y-93550499D01*
X144928038Y-93550500D01*
X144928039Y-93550500D01*
X144953456Y-93550500D01*
X145020495Y-93570185D01*
X145041137Y-93586819D01*
X146234788Y-94780470D01*
X146234789Y-94780471D01*
X146234791Y-94780472D01*
X146274750Y-94803542D01*
X146314712Y-94826614D01*
X146403856Y-94850500D01*
X146403857Y-94850500D01*
X146496144Y-94850500D01*
X153303456Y-94850500D01*
X153370495Y-94870185D01*
X153391137Y-94886819D01*
X155824787Y-97320469D01*
X155904712Y-97366614D01*
X155993856Y-97390500D01*
X159086105Y-97390500D01*
X159153144Y-97410185D01*
X159167312Y-97420790D01*
X159168866Y-97422137D01*
X159168872Y-97422143D01*
X159289947Y-97499953D01*
X159289950Y-97499954D01*
X159289949Y-97499954D01*
X159428036Y-97540499D01*
X159428038Y-97540500D01*
X159428039Y-97540500D01*
X159571962Y-97540500D01*
X159571962Y-97540499D01*
X159710053Y-97499953D01*
X159831128Y-97422143D01*
X159925377Y-97313373D01*
X159985165Y-97182457D01*
X160005647Y-97040000D01*
X159985165Y-96897543D01*
X159925377Y-96766627D01*
X159831128Y-96657857D01*
X159710053Y-96580047D01*
X159710051Y-96580046D01*
X159710049Y-96580045D01*
X159710050Y-96580045D01*
X159571963Y-96539500D01*
X159571961Y-96539500D01*
X159428039Y-96539500D01*
X159428036Y-96539500D01*
X159289949Y-96580045D01*
X159168876Y-96657854D01*
X159168874Y-96657855D01*
X159168872Y-96657857D01*
X159168870Y-96657858D01*
X159167312Y-96659210D01*
X159165427Y-96660070D01*
X159161411Y-96662652D01*
X159161039Y-96662074D01*
X159103757Y-96688237D01*
X159086105Y-96689500D01*
X156236544Y-96689500D01*
X156169505Y-96669815D01*
X156148863Y-96653181D01*
X153995682Y-94500000D01*
X162945207Y-94500000D01*
X162964348Y-94743219D01*
X163021303Y-94980457D01*
X163114668Y-95205861D01*
X163238504Y-95407941D01*
X163976212Y-94670233D01*
X163987482Y-94712292D01*
X164059890Y-94837708D01*
X164162292Y-94940110D01*
X164287708Y-95012518D01*
X164329765Y-95023787D01*
X163592057Y-95761494D01*
X163726052Y-95843607D01*
X163772927Y-95895419D01*
X163784350Y-95964348D01*
X163756693Y-96028511D01*
X163732387Y-96050908D01*
X163693120Y-96078403D01*
X163538402Y-96233121D01*
X163412900Y-96412357D01*
X163412898Y-96412361D01*
X163320426Y-96610668D01*
X163320422Y-96610677D01*
X163263793Y-96822020D01*
X163263793Y-96822024D01*
X163244723Y-97039997D01*
X163244723Y-97040002D01*
X163246723Y-97062857D01*
X163256238Y-97171626D01*
X163263793Y-97257975D01*
X163263793Y-97257979D01*
X163320422Y-97469322D01*
X163320424Y-97469326D01*
X163320425Y-97469330D01*
X163337493Y-97505932D01*
X163412897Y-97667638D01*
X163412898Y-97667639D01*
X163538402Y-97846877D01*
X163693123Y-98001598D01*
X163839263Y-98103926D01*
X163882887Y-98158502D01*
X163890079Y-98228001D01*
X163858557Y-98290355D01*
X163798327Y-98325769D01*
X163768138Y-98329500D01*
X163430247Y-98329500D01*
X163371770Y-98341131D01*
X163371769Y-98341132D01*
X163305447Y-98385447D01*
X163261132Y-98451769D01*
X163261131Y-98451770D01*
X163249500Y-98510247D01*
X163249500Y-100649752D01*
X163261131Y-100708229D01*
X163261132Y-100708230D01*
X163305447Y-100774552D01*
X163371769Y-100818867D01*
X163371770Y-100818868D01*
X163430247Y-100830499D01*
X163430250Y-100830500D01*
X163430252Y-100830500D01*
X165569750Y-100830500D01*
X165569751Y-100830499D01*
X165584568Y-100827552D01*
X165628229Y-100818868D01*
X165628229Y-100818867D01*
X165628231Y-100818867D01*
X165694552Y-100774552D01*
X165738867Y-100708231D01*
X165738867Y-100708229D01*
X165738868Y-100708229D01*
X165750499Y-100649752D01*
X165750500Y-100649750D01*
X165750500Y-98510249D01*
X165750499Y-98510247D01*
X165738868Y-98451770D01*
X165738867Y-98451769D01*
X165694552Y-98385447D01*
X165628230Y-98341132D01*
X165628229Y-98341131D01*
X165569752Y-98329500D01*
X165569748Y-98329500D01*
X165231862Y-98329500D01*
X165164823Y-98309815D01*
X165119068Y-98257011D01*
X165109124Y-98187853D01*
X165138149Y-98124297D01*
X165160734Y-98103928D01*
X165306877Y-98001598D01*
X165461598Y-97846877D01*
X165587102Y-97667639D01*
X165679575Y-97469330D01*
X165736207Y-97257977D01*
X165755277Y-97040000D01*
X165736207Y-96822023D01*
X165692219Y-96657857D01*
X165679577Y-96610677D01*
X165679576Y-96610676D01*
X165679575Y-96610670D01*
X165587102Y-96412362D01*
X165587100Y-96412359D01*
X165587099Y-96412357D01*
X165461599Y-96233124D01*
X165410931Y-96182456D01*
X165306877Y-96078402D01*
X165267612Y-96050908D01*
X165223987Y-95996331D01*
X165216795Y-95926832D01*
X165248318Y-95864478D01*
X165273946Y-95843607D01*
X165407941Y-95761494D01*
X164670235Y-95023787D01*
X164712292Y-95012518D01*
X164837708Y-94940110D01*
X164940110Y-94837708D01*
X165012518Y-94712292D01*
X165023787Y-94670234D01*
X165761494Y-95407941D01*
X165761495Y-95407941D01*
X165885331Y-95205861D01*
X165978696Y-94980457D01*
X166035651Y-94743219D01*
X166054792Y-94500000D01*
X166035651Y-94256780D01*
X165978696Y-94019542D01*
X165885331Y-93794138D01*
X165761494Y-93592057D01*
X165023787Y-94329764D01*
X165012518Y-94287708D01*
X164940110Y-94162292D01*
X164837708Y-94059890D01*
X164712292Y-93987482D01*
X164670234Y-93976212D01*
X165407941Y-93238504D01*
X165205861Y-93114668D01*
X164980457Y-93021303D01*
X164743219Y-92964348D01*
X164743220Y-92964348D01*
X164500000Y-92945207D01*
X164256780Y-92964348D01*
X164019542Y-93021303D01*
X163794138Y-93114668D01*
X163592057Y-93238504D01*
X164329766Y-93976212D01*
X164287708Y-93987482D01*
X164162292Y-94059890D01*
X164059890Y-94162292D01*
X163987482Y-94287708D01*
X163976212Y-94329765D01*
X163238504Y-93592057D01*
X163114668Y-93794138D01*
X163021303Y-94019542D01*
X162964348Y-94256780D01*
X162945207Y-94500000D01*
X153995682Y-94500000D01*
X153715213Y-94219531D01*
X153715208Y-94219527D01*
X153635290Y-94173387D01*
X153635289Y-94173386D01*
X153635288Y-94173386D01*
X153546144Y-94149500D01*
X153546143Y-94149500D01*
X146646544Y-94149500D01*
X146579505Y-94129815D01*
X146558863Y-94113181D01*
X145536503Y-93090821D01*
X145503018Y-93029498D01*
X145501449Y-93020805D01*
X145485165Y-92907543D01*
X145425377Y-92776627D01*
X145331128Y-92667857D01*
X145210053Y-92590047D01*
X145210051Y-92590046D01*
X145210049Y-92590045D01*
X145210050Y-92590045D01*
X145071963Y-92549500D01*
X145071961Y-92549500D01*
X144928039Y-92549500D01*
X144928036Y-92549500D01*
X144789949Y-92590045D01*
X144668873Y-92667856D01*
X144574623Y-92776626D01*
X144574622Y-92776628D01*
X144514834Y-92907543D01*
X144494353Y-93050000D01*
X140470555Y-93050000D01*
X140572410Y-92966410D01*
X140703685Y-92806450D01*
X140801232Y-92623954D01*
X140861300Y-92425934D01*
X140881583Y-92220000D01*
X140861300Y-92014066D01*
X140801232Y-91816046D01*
X140703685Y-91633550D01*
X140651702Y-91570209D01*
X140572410Y-91473589D01*
X140412452Y-91342317D01*
X140412453Y-91342317D01*
X140412450Y-91342315D01*
X140229954Y-91244768D01*
X140031934Y-91184700D01*
X140031932Y-91184699D01*
X140031934Y-91184699D01*
X139826000Y-91164417D01*
X139620067Y-91184699D01*
X139422043Y-91244769D01*
X139311898Y-91303643D01*
X139239550Y-91342315D01*
X139239548Y-91342316D01*
X139239547Y-91342317D01*
X139079589Y-91473589D01*
X138948317Y-91633547D01*
X138850769Y-91816043D01*
X138790699Y-92014067D01*
X138770417Y-92220000D01*
X130775682Y-92220000D01*
X131867094Y-91128588D01*
X131913239Y-91048663D01*
X131937125Y-90959519D01*
X131937125Y-90681885D01*
X131956810Y-90614846D01*
X131967407Y-90600687D01*
X132012002Y-90549223D01*
X132071790Y-90418307D01*
X132092272Y-90275850D01*
X132071790Y-90133393D01*
X132012002Y-90002477D01*
X131917753Y-89893707D01*
X131796678Y-89815897D01*
X131796676Y-89815896D01*
X131796674Y-89815895D01*
X131796675Y-89815895D01*
X131658588Y-89775350D01*
X131658586Y-89775350D01*
X131514664Y-89775350D01*
X131514661Y-89775350D01*
X131376574Y-89815895D01*
X131255498Y-89893706D01*
X131161248Y-90002476D01*
X131161247Y-90002478D01*
X131101459Y-90133393D01*
X131080978Y-90275850D01*
X131101459Y-90418306D01*
X131161247Y-90549221D01*
X131161248Y-90549223D01*
X131205838Y-90600683D01*
X131234863Y-90664238D01*
X131236125Y-90681885D01*
X131236125Y-90716831D01*
X131216440Y-90783870D01*
X131199806Y-90804512D01*
X128766156Y-93238161D01*
X128766152Y-93238166D01*
X128720012Y-93318084D01*
X128720011Y-93318087D01*
X128696125Y-93407231D01*
X128696125Y-95318113D01*
X128676440Y-95385152D01*
X128665839Y-95399314D01*
X128621250Y-95450773D01*
X128621247Y-95450778D01*
X128561459Y-95581693D01*
X128540978Y-95724150D01*
X128282272Y-95724150D01*
X128261790Y-95581693D01*
X128202002Y-95450777D01*
X128107753Y-95342007D01*
X127986678Y-95264197D01*
X127986676Y-95264196D01*
X127986674Y-95264195D01*
X127986675Y-95264195D01*
X127848588Y-95223650D01*
X127848586Y-95223650D01*
X127704664Y-95223650D01*
X127704661Y-95223650D01*
X127566574Y-95264195D01*
X127445498Y-95342006D01*
X127445497Y-95342006D01*
X127445497Y-95342007D01*
X127441645Y-95346453D01*
X127351248Y-95450776D01*
X127351247Y-95450778D01*
X127291459Y-95581694D01*
X127291251Y-95583145D01*
X127290641Y-95584479D01*
X127288960Y-95590206D01*
X127288136Y-95589964D01*
X127262227Y-95646701D01*
X127203449Y-95684477D01*
X127168513Y-95689500D01*
X120358328Y-95689500D01*
X120291289Y-95669815D01*
X120245534Y-95617011D01*
X120235590Y-95547853D01*
X120262475Y-95486835D01*
X120323593Y-95412362D01*
X120377685Y-95346450D01*
X120475232Y-95163954D01*
X120535300Y-94965934D01*
X120555583Y-94760000D01*
X120535300Y-94554066D01*
X120475232Y-94356046D01*
X120377685Y-94173550D01*
X120325702Y-94110209D01*
X120246410Y-94013589D01*
X120086452Y-93882317D01*
X120086453Y-93882317D01*
X120086450Y-93882315D01*
X119903954Y-93784768D01*
X119705934Y-93724700D01*
X119705932Y-93724699D01*
X119705934Y-93724699D01*
X119500000Y-93704417D01*
X119294067Y-93724699D01*
X119096043Y-93784769D01*
X118997003Y-93837708D01*
X118913550Y-93882315D01*
X118913548Y-93882316D01*
X118913547Y-93882317D01*
X118753589Y-94013589D01*
X118622317Y-94173547D01*
X118622315Y-94173550D01*
X118583643Y-94245898D01*
X118524769Y-94356043D01*
X118464699Y-94554067D01*
X118444417Y-94760000D01*
X118464699Y-94965932D01*
X118490201Y-95050000D01*
X118524768Y-95163954D01*
X118619940Y-95342007D01*
X118622317Y-95346453D01*
X118737525Y-95486835D01*
X118764838Y-95551145D01*
X118753047Y-95620013D01*
X118705894Y-95671573D01*
X118641672Y-95689500D01*
X117413895Y-95689500D01*
X117346856Y-95669815D01*
X117332688Y-95659210D01*
X117331132Y-95657862D01*
X117331128Y-95657857D01*
X117210053Y-95580047D01*
X117210051Y-95580046D01*
X117210049Y-95580045D01*
X117210050Y-95580045D01*
X117071963Y-95539500D01*
X117071961Y-95539500D01*
X116928039Y-95539500D01*
X116928036Y-95539500D01*
X116789949Y-95580045D01*
X116668873Y-95657856D01*
X116574623Y-95766626D01*
X116574622Y-95766628D01*
X116514834Y-95897543D01*
X116494353Y-96040000D01*
X111755277Y-96040000D01*
X111736207Y-95822023D01*
X111692219Y-95657857D01*
X111679577Y-95610677D01*
X111679576Y-95610676D01*
X111679575Y-95610670D01*
X111587102Y-95412362D01*
X111587100Y-95412359D01*
X111587099Y-95412357D01*
X111470001Y-95245123D01*
X111447674Y-95178917D01*
X111464684Y-95111150D01*
X111515632Y-95063337D01*
X111571576Y-95050000D01*
X111597828Y-95050000D01*
X111597844Y-95049999D01*
X111657372Y-95043598D01*
X111657379Y-95043596D01*
X111792086Y-94993354D01*
X111792093Y-94993350D01*
X111907187Y-94907190D01*
X111907190Y-94907187D01*
X111993350Y-94792093D01*
X111993354Y-94792086D01*
X112043596Y-94657379D01*
X112043598Y-94657372D01*
X112049999Y-94597844D01*
X112050000Y-94597827D01*
X112050000Y-93750000D01*
X110990748Y-93750000D01*
X111012518Y-93712292D01*
X111050000Y-93572409D01*
X111050000Y-93427591D01*
X111012518Y-93287708D01*
X110990748Y-93250000D01*
X112050000Y-93250000D01*
X112050000Y-92402172D01*
X112049999Y-92402155D01*
X112043598Y-92342627D01*
X112043596Y-92342620D01*
X111997862Y-92220000D01*
X118444417Y-92220000D01*
X118464699Y-92425932D01*
X118464700Y-92425934D01*
X118524768Y-92623954D01*
X118622315Y-92806450D01*
X118622317Y-92806452D01*
X118753589Y-92966410D01*
X118830463Y-93029498D01*
X118913550Y-93097685D01*
X119096046Y-93195232D01*
X119294066Y-93255300D01*
X119294065Y-93255300D01*
X119312529Y-93257118D01*
X119500000Y-93275583D01*
X119705934Y-93255300D01*
X119903954Y-93195232D01*
X120086450Y-93097685D01*
X120246410Y-92966410D01*
X120377685Y-92806450D01*
X120475232Y-92623954D01*
X120535300Y-92425934D01*
X120555583Y-92220000D01*
X120535300Y-92014066D01*
X120475232Y-91816046D01*
X120377685Y-91633550D01*
X120325702Y-91570209D01*
X120246410Y-91473589D01*
X120086452Y-91342317D01*
X120086453Y-91342317D01*
X120086450Y-91342315D01*
X119903954Y-91244768D01*
X119705934Y-91184700D01*
X119705932Y-91184699D01*
X119705934Y-91184699D01*
X119500000Y-91164417D01*
X119294067Y-91184699D01*
X119096043Y-91244769D01*
X118985898Y-91303643D01*
X118913550Y-91342315D01*
X118913548Y-91342316D01*
X118913547Y-91342317D01*
X118753589Y-91473589D01*
X118622317Y-91633547D01*
X118524769Y-91816043D01*
X118464699Y-92014067D01*
X118444417Y-92220000D01*
X111997862Y-92220000D01*
X111993354Y-92207913D01*
X111993350Y-92207906D01*
X111907190Y-92092812D01*
X111907187Y-92092809D01*
X111792093Y-92006649D01*
X111792086Y-92006645D01*
X111657379Y-91956403D01*
X111657372Y-91956401D01*
X111597844Y-91950000D01*
X110750000Y-91950000D01*
X110750000Y-93009252D01*
X110712292Y-92987482D01*
X110572409Y-92950000D01*
X110427591Y-92950000D01*
X110287708Y-92987482D01*
X110250000Y-93009252D01*
X110250000Y-91950000D01*
X109402155Y-91950000D01*
X109342627Y-91956401D01*
X109342620Y-91956403D01*
X109207913Y-92006645D01*
X109207906Y-92006649D01*
X109092812Y-92092809D01*
X109092809Y-92092812D01*
X109006649Y-92207906D01*
X109006645Y-92207913D01*
X108956403Y-92342620D01*
X108956401Y-92342627D01*
X108950000Y-92402155D01*
X105411349Y-92402155D01*
X105411349Y-85132155D01*
X108950000Y-85132155D01*
X108950000Y-85980000D01*
X110009252Y-85980000D01*
X109987482Y-86017708D01*
X109950000Y-86157591D01*
X109950000Y-86302409D01*
X109987482Y-86442292D01*
X110009252Y-86480000D01*
X108950000Y-86480000D01*
X108950000Y-87327844D01*
X108956401Y-87387372D01*
X108956403Y-87387379D01*
X109006645Y-87522086D01*
X109006649Y-87522093D01*
X109092809Y-87637187D01*
X109092812Y-87637190D01*
X109207906Y-87723350D01*
X109207913Y-87723354D01*
X109342620Y-87773596D01*
X109342627Y-87773598D01*
X109402155Y-87779999D01*
X109402172Y-87780000D01*
X109428424Y-87780000D01*
X109495463Y-87799685D01*
X109541218Y-87852489D01*
X109551162Y-87921647D01*
X109529999Y-87975123D01*
X109412900Y-88142357D01*
X109412898Y-88142361D01*
X109320426Y-88340668D01*
X109320422Y-88340677D01*
X109263793Y-88552020D01*
X109263793Y-88552024D01*
X109244723Y-88769997D01*
X109244723Y-88770002D01*
X109263793Y-88987975D01*
X109263793Y-88987979D01*
X109320422Y-89199322D01*
X109320424Y-89199326D01*
X109320425Y-89199330D01*
X109356197Y-89276043D01*
X109412897Y-89397638D01*
X109412898Y-89397639D01*
X109538402Y-89576877D01*
X109693123Y-89731598D01*
X109872361Y-89857102D01*
X110070670Y-89949575D01*
X110282023Y-90006207D01*
X110464926Y-90022208D01*
X110499998Y-90025277D01*
X110500000Y-90025277D01*
X110500002Y-90025277D01*
X110528254Y-90022805D01*
X110717977Y-90006207D01*
X110929330Y-89949575D01*
X111127639Y-89857102D01*
X111306877Y-89731598D01*
X111358475Y-89680000D01*
X118444417Y-89680000D01*
X118464699Y-89885932D01*
X118467058Y-89893707D01*
X118524768Y-90083954D01*
X118622315Y-90266450D01*
X118656969Y-90308677D01*
X118753589Y-90426410D01*
X118850209Y-90505702D01*
X118913550Y-90557685D01*
X119096046Y-90655232D01*
X119294066Y-90715300D01*
X119294065Y-90715300D01*
X119309610Y-90716831D01*
X119500000Y-90735583D01*
X119705934Y-90715300D01*
X119903954Y-90655232D01*
X120086450Y-90557685D01*
X120246410Y-90426410D01*
X120377685Y-90266450D01*
X120475232Y-90083954D01*
X120535300Y-89885934D01*
X120555583Y-89680000D01*
X120535300Y-89474066D01*
X120475232Y-89276046D01*
X120377685Y-89093550D01*
X120291044Y-88987977D01*
X120246410Y-88933589D01*
X120086452Y-88802317D01*
X120086453Y-88802317D01*
X120086450Y-88802315D01*
X119903954Y-88704768D01*
X119705934Y-88644700D01*
X119705932Y-88644699D01*
X119705934Y-88644699D01*
X119500000Y-88624417D01*
X119294067Y-88644699D01*
X119096043Y-88704769D01*
X118985898Y-88763643D01*
X118913550Y-88802315D01*
X118913548Y-88802316D01*
X118913547Y-88802317D01*
X118753589Y-88933589D01*
X118657666Y-89050474D01*
X118622315Y-89093550D01*
X118607910Y-89120500D01*
X118524769Y-89276043D01*
X118464699Y-89474067D01*
X118444417Y-89680000D01*
X111358475Y-89680000D01*
X111461598Y-89576877D01*
X111587102Y-89397639D01*
X111679575Y-89199330D01*
X111679575Y-89199329D01*
X111681863Y-89194423D01*
X111683616Y-89195240D01*
X111719984Y-89145835D01*
X111785250Y-89120891D01*
X111795092Y-89120500D01*
X114158679Y-89120500D01*
X114158681Y-89120500D01*
X114247825Y-89096614D01*
X114253132Y-89093550D01*
X114253133Y-89093550D01*
X114327742Y-89050474D01*
X114327741Y-89050474D01*
X114327749Y-89050470D01*
X115851400Y-87526819D01*
X115912723Y-87493334D01*
X115939081Y-87490500D01*
X116586105Y-87490500D01*
X116653144Y-87510185D01*
X116667312Y-87520790D01*
X116668866Y-87522137D01*
X116668872Y-87522143D01*
X116789947Y-87599953D01*
X116789950Y-87599954D01*
X116789949Y-87599954D01*
X116928036Y-87640499D01*
X116928038Y-87640500D01*
X116928039Y-87640500D01*
X117071962Y-87640500D01*
X117071962Y-87640499D01*
X117210053Y-87599953D01*
X117331128Y-87522143D01*
X117425377Y-87413373D01*
X117485165Y-87282457D01*
X117505647Y-87140000D01*
X118444417Y-87140000D01*
X118464699Y-87345932D01*
X118485157Y-87413373D01*
X118524768Y-87543954D01*
X118622315Y-87726450D01*
X118622317Y-87726452D01*
X118753589Y-87886410D01*
X118828566Y-87947941D01*
X118913550Y-88017685D01*
X119096046Y-88115232D01*
X119294066Y-88175300D01*
X119294065Y-88175300D01*
X119312529Y-88177118D01*
X119500000Y-88195583D01*
X119705934Y-88175300D01*
X119903954Y-88115232D01*
X120086450Y-88017685D01*
X120246410Y-87886410D01*
X120377685Y-87726450D01*
X120475232Y-87543954D01*
X120535300Y-87345934D01*
X120555583Y-87140000D01*
X120535300Y-86934066D01*
X120475232Y-86736046D01*
X120377685Y-86553550D01*
X120325531Y-86490000D01*
X120246410Y-86393589D01*
X120086452Y-86262317D01*
X120086453Y-86262317D01*
X120086450Y-86262315D01*
X119903954Y-86164768D01*
X119705934Y-86104700D01*
X119705932Y-86104699D01*
X119705934Y-86104699D01*
X119500000Y-86084417D01*
X119294067Y-86104699D01*
X119096043Y-86164769D01*
X119042822Y-86193217D01*
X118913550Y-86262315D01*
X118913548Y-86262316D01*
X118913547Y-86262317D01*
X118753589Y-86393589D01*
X118643708Y-86527482D01*
X118622315Y-86553550D01*
X118597546Y-86599890D01*
X118524769Y-86736043D01*
X118464699Y-86934067D01*
X118444417Y-87140000D01*
X117505647Y-87140000D01*
X117485165Y-86997543D01*
X117425377Y-86866627D01*
X117331128Y-86757857D01*
X117210053Y-86680047D01*
X117210051Y-86680046D01*
X117210049Y-86680045D01*
X117210050Y-86680045D01*
X117071963Y-86639500D01*
X117071961Y-86639500D01*
X116928039Y-86639500D01*
X116928036Y-86639500D01*
X116789949Y-86680045D01*
X116668876Y-86757854D01*
X116668874Y-86757855D01*
X116668872Y-86757857D01*
X116668870Y-86757858D01*
X116667312Y-86759210D01*
X116665427Y-86760070D01*
X116661411Y-86762652D01*
X116661039Y-86762074D01*
X116603757Y-86788237D01*
X116586105Y-86789500D01*
X115696393Y-86789500D01*
X115612610Y-86811948D01*
X115612611Y-86811949D01*
X115607249Y-86813385D01*
X115607245Y-86813387D01*
X115527328Y-86859527D01*
X115527323Y-86859531D01*
X114003674Y-88383181D01*
X113942351Y-88416666D01*
X113915993Y-88419500D01*
X111795092Y-88419500D01*
X111728053Y-88399815D01*
X111682298Y-88347011D01*
X111680612Y-88342894D01*
X111602461Y-88175300D01*
X111587102Y-88142362D01*
X111587100Y-88142359D01*
X111587099Y-88142357D01*
X111470001Y-87975123D01*
X111447674Y-87908917D01*
X111464684Y-87841150D01*
X111515632Y-87793337D01*
X111571576Y-87780000D01*
X111597828Y-87780000D01*
X111597844Y-87779999D01*
X111657372Y-87773598D01*
X111657379Y-87773596D01*
X111792086Y-87723354D01*
X111792093Y-87723350D01*
X111907187Y-87637190D01*
X111907190Y-87637187D01*
X111993350Y-87522093D01*
X111993354Y-87522086D01*
X112043596Y-87387379D01*
X112043598Y-87387372D01*
X112049999Y-87327844D01*
X112050000Y-87327827D01*
X112050000Y-86480000D01*
X110990748Y-86480000D01*
X111012518Y-86442292D01*
X111050000Y-86302409D01*
X111050000Y-86157591D01*
X111021374Y-86050760D01*
X121704353Y-86050760D01*
X121724834Y-86193216D01*
X121756391Y-86262315D01*
X121784623Y-86324133D01*
X121829213Y-86375593D01*
X121858238Y-86439148D01*
X121859500Y-86456795D01*
X121859500Y-94523963D01*
X121839815Y-94591002D01*
X121829214Y-94605164D01*
X121784625Y-94656623D01*
X121784622Y-94656628D01*
X121724834Y-94787543D01*
X121704353Y-94930000D01*
X121724834Y-95072456D01*
X121773454Y-95178917D01*
X121784623Y-95203373D01*
X121878872Y-95312143D01*
X121999947Y-95389953D01*
X121999950Y-95389954D01*
X121999949Y-95389954D01*
X122138036Y-95430499D01*
X122138038Y-95430500D01*
X122138039Y-95430500D01*
X122281962Y-95430500D01*
X122281962Y-95430499D01*
X122420053Y-95389953D01*
X122541128Y-95312143D01*
X122635377Y-95203373D01*
X122695165Y-95072457D01*
X122715647Y-94930000D01*
X122695165Y-94787543D01*
X122635377Y-94656627D01*
X122635374Y-94656623D01*
X122590786Y-94605164D01*
X122561762Y-94541608D01*
X122560500Y-94523963D01*
X122560500Y-89680000D01*
X138770417Y-89680000D01*
X138790699Y-89885932D01*
X138793058Y-89893707D01*
X138850768Y-90083954D01*
X138948315Y-90266450D01*
X138982969Y-90308677D01*
X139079589Y-90426410D01*
X139176209Y-90505702D01*
X139239550Y-90557685D01*
X139422046Y-90655232D01*
X139620066Y-90715300D01*
X139620065Y-90715300D01*
X139635610Y-90716831D01*
X139826000Y-90735583D01*
X140031934Y-90715300D01*
X140229954Y-90655232D01*
X140412450Y-90557685D01*
X140572410Y-90426410D01*
X140703685Y-90266450D01*
X140801232Y-90083954D01*
X140861300Y-89885934D01*
X140881583Y-89680000D01*
X140861300Y-89474066D01*
X140801232Y-89276046D01*
X140703685Y-89093550D01*
X140617044Y-88987977D01*
X140572410Y-88933589D01*
X140412452Y-88802317D01*
X140412453Y-88802317D01*
X140412450Y-88802315D01*
X140229954Y-88704768D01*
X140031934Y-88644700D01*
X140031932Y-88644699D01*
X140031934Y-88644699D01*
X139826000Y-88624417D01*
X139620067Y-88644699D01*
X139422043Y-88704769D01*
X139311898Y-88763643D01*
X139239550Y-88802315D01*
X139239548Y-88802316D01*
X139239547Y-88802317D01*
X139079589Y-88933589D01*
X138983666Y-89050474D01*
X138948315Y-89093550D01*
X138933910Y-89120500D01*
X138850769Y-89276043D01*
X138790699Y-89474067D01*
X138770417Y-89680000D01*
X122560500Y-89680000D01*
X122560500Y-87140000D01*
X138770417Y-87140000D01*
X138790699Y-87345932D01*
X138811157Y-87413373D01*
X138850768Y-87543954D01*
X138948315Y-87726450D01*
X138948317Y-87726452D01*
X139079589Y-87886410D01*
X139154566Y-87947941D01*
X139239550Y-88017685D01*
X139422046Y-88115232D01*
X139620066Y-88175300D01*
X139620065Y-88175300D01*
X139638529Y-88177118D01*
X139826000Y-88195583D01*
X140031934Y-88175300D01*
X140229954Y-88115232D01*
X140412450Y-88017685D01*
X140572410Y-87886410D01*
X140703685Y-87726450D01*
X140801232Y-87543954D01*
X140861300Y-87345934D01*
X140881583Y-87140000D01*
X140871734Y-87040000D01*
X162945207Y-87040000D01*
X162964348Y-87283219D01*
X163021303Y-87520457D01*
X163114668Y-87745861D01*
X163238504Y-87947941D01*
X163976212Y-87210233D01*
X163987482Y-87252292D01*
X164059890Y-87377708D01*
X164162292Y-87480110D01*
X164287708Y-87552518D01*
X164329765Y-87563787D01*
X163600372Y-88293181D01*
X163539049Y-88326666D01*
X163512691Y-88329500D01*
X163430247Y-88329500D01*
X163371770Y-88341131D01*
X163371769Y-88341132D01*
X163305447Y-88385447D01*
X163261132Y-88451769D01*
X163261131Y-88451770D01*
X163249500Y-88510247D01*
X163249500Y-90649752D01*
X163261131Y-90708229D01*
X163261132Y-90708230D01*
X163305447Y-90774552D01*
X163371769Y-90818867D01*
X163371770Y-90818868D01*
X163430247Y-90830499D01*
X163430250Y-90830500D01*
X163430252Y-90830500D01*
X165569750Y-90830500D01*
X165569751Y-90830499D01*
X165584568Y-90827552D01*
X165628229Y-90818868D01*
X165628229Y-90818867D01*
X165628231Y-90818867D01*
X165694552Y-90774552D01*
X165738867Y-90708231D01*
X165738867Y-90708229D01*
X165738868Y-90708229D01*
X165749409Y-90655232D01*
X165750500Y-90649748D01*
X165750500Y-88510252D01*
X165750500Y-88510249D01*
X165750499Y-88510247D01*
X165738868Y-88451770D01*
X165738867Y-88451769D01*
X165694552Y-88385447D01*
X165628230Y-88341132D01*
X165628229Y-88341131D01*
X165569752Y-88329500D01*
X165569748Y-88329500D01*
X165487308Y-88329500D01*
X165420269Y-88309815D01*
X165399627Y-88293181D01*
X164670234Y-87563787D01*
X164712292Y-87552518D01*
X164837708Y-87480110D01*
X164940110Y-87377708D01*
X165012518Y-87252292D01*
X165023787Y-87210234D01*
X165761494Y-87947941D01*
X165761495Y-87947941D01*
X165885331Y-87745861D01*
X165978696Y-87520457D01*
X166035651Y-87283219D01*
X166054792Y-87040000D01*
X166035651Y-86796780D01*
X165978696Y-86559542D01*
X165885331Y-86334138D01*
X165761494Y-86132057D01*
X165023787Y-86869764D01*
X165012518Y-86827708D01*
X164940110Y-86702292D01*
X164837708Y-86599890D01*
X164712292Y-86527482D01*
X164670234Y-86516212D01*
X165407941Y-85778504D01*
X165273946Y-85696391D01*
X165227071Y-85644579D01*
X165215648Y-85575649D01*
X165243306Y-85511487D01*
X165267607Y-85489094D01*
X165306877Y-85461598D01*
X165461598Y-85306877D01*
X165587102Y-85127639D01*
X165679575Y-84929330D01*
X165736207Y-84717977D01*
X165755277Y-84500000D01*
X165736207Y-84282023D01*
X165679575Y-84070670D01*
X165587102Y-83872362D01*
X165587100Y-83872359D01*
X165587099Y-83872357D01*
X165461599Y-83693124D01*
X165393242Y-83624767D01*
X165306877Y-83538402D01*
X165127639Y-83412898D01*
X165127640Y-83412898D01*
X165127638Y-83412897D01*
X165027405Y-83366158D01*
X164929330Y-83320425D01*
X164929326Y-83320424D01*
X164929322Y-83320422D01*
X164717977Y-83263793D01*
X164500002Y-83244723D01*
X164499998Y-83244723D01*
X164354682Y-83257436D01*
X164282023Y-83263793D01*
X164282020Y-83263793D01*
X164070677Y-83320422D01*
X164070668Y-83320426D01*
X163872361Y-83412898D01*
X163872357Y-83412900D01*
X163693121Y-83538402D01*
X163538402Y-83693121D01*
X163412900Y-83872357D01*
X163412898Y-83872361D01*
X163320426Y-84070668D01*
X163320422Y-84070677D01*
X163263793Y-84282020D01*
X163263793Y-84282024D01*
X163244723Y-84499997D01*
X163244723Y-84500002D01*
X163263793Y-84717975D01*
X163263793Y-84717979D01*
X163320422Y-84929322D01*
X163320424Y-84929326D01*
X163320425Y-84929330D01*
X163330297Y-84950500D01*
X163412897Y-85127638D01*
X163412898Y-85127639D01*
X163538402Y-85306877D01*
X163693123Y-85461598D01*
X163732388Y-85489091D01*
X163776010Y-85543666D01*
X163783203Y-85613165D01*
X163751681Y-85675519D01*
X163726052Y-85696391D01*
X163592057Y-85778503D01*
X163592057Y-85778504D01*
X164329766Y-86516212D01*
X164287708Y-86527482D01*
X164162292Y-86599890D01*
X164059890Y-86702292D01*
X163987482Y-86827708D01*
X163976212Y-86869765D01*
X163238504Y-86132057D01*
X163114668Y-86334138D01*
X163021303Y-86559542D01*
X162964348Y-86796780D01*
X162945207Y-87040000D01*
X140871734Y-87040000D01*
X140861300Y-86934066D01*
X140801232Y-86736046D01*
X140703685Y-86553550D01*
X140651531Y-86490000D01*
X140572410Y-86393589D01*
X140412452Y-86262317D01*
X140412453Y-86262317D01*
X140412450Y-86262315D01*
X140229954Y-86164768D01*
X140031934Y-86104700D01*
X140031932Y-86104699D01*
X140031934Y-86104699D01*
X139826000Y-86084417D01*
X139620067Y-86104699D01*
X139422043Y-86164769D01*
X139368822Y-86193217D01*
X139239550Y-86262315D01*
X139239548Y-86262316D01*
X139239547Y-86262317D01*
X139079589Y-86393589D01*
X138969708Y-86527482D01*
X138948315Y-86553550D01*
X138923546Y-86599890D01*
X138850769Y-86736043D01*
X138790699Y-86934067D01*
X138770417Y-87140000D01*
X122560500Y-87140000D01*
X122560500Y-86456795D01*
X122580185Y-86389756D01*
X122590782Y-86375597D01*
X122635377Y-86324133D01*
X122695165Y-86193217D01*
X122715647Y-86050760D01*
X122695165Y-85908303D01*
X122635377Y-85777387D01*
X122541128Y-85668617D01*
X122420053Y-85590807D01*
X122420051Y-85590806D01*
X122420049Y-85590805D01*
X122420050Y-85590805D01*
X122281963Y-85550260D01*
X122281961Y-85550260D01*
X122138039Y-85550260D01*
X122138036Y-85550260D01*
X121999949Y-85590805D01*
X121878873Y-85668616D01*
X121878872Y-85668616D01*
X121878872Y-85668617D01*
X121869377Y-85679575D01*
X121784623Y-85777386D01*
X121784622Y-85777388D01*
X121724834Y-85908303D01*
X121704353Y-86050760D01*
X111021374Y-86050760D01*
X111012518Y-86017708D01*
X110990748Y-85980000D01*
X112050000Y-85980000D01*
X112050000Y-85132172D01*
X112049999Y-85132155D01*
X112043598Y-85072627D01*
X112043596Y-85072620D01*
X111993354Y-84937913D01*
X111993350Y-84937906D01*
X111907190Y-84822812D01*
X111907187Y-84822809D01*
X111792093Y-84736649D01*
X111792086Y-84736645D01*
X111657379Y-84686403D01*
X111657372Y-84686401D01*
X111597844Y-84680000D01*
X110750000Y-84680000D01*
X110750000Y-85739252D01*
X110712292Y-85717482D01*
X110572409Y-85680000D01*
X110427591Y-85680000D01*
X110287708Y-85717482D01*
X110250000Y-85739252D01*
X110250000Y-84680000D01*
X109402155Y-84680000D01*
X109342627Y-84686401D01*
X109342620Y-84686403D01*
X109207913Y-84736645D01*
X109207906Y-84736649D01*
X109092812Y-84822809D01*
X109092809Y-84822812D01*
X109006649Y-84937906D01*
X109006645Y-84937913D01*
X108956403Y-85072620D01*
X108956401Y-85072627D01*
X108950000Y-85132155D01*
X105411349Y-85132155D01*
X105411349Y-77632155D01*
X108950000Y-77632155D01*
X108950000Y-78480000D01*
X110009252Y-78480000D01*
X109987482Y-78517708D01*
X109950000Y-78657591D01*
X109950000Y-78802409D01*
X109987482Y-78942292D01*
X110009252Y-78980000D01*
X108950000Y-78980000D01*
X108950000Y-79827844D01*
X108956401Y-79887372D01*
X108956403Y-79887379D01*
X109006645Y-80022086D01*
X109006649Y-80022093D01*
X109092809Y-80137187D01*
X109092812Y-80137190D01*
X109207906Y-80223350D01*
X109207913Y-80223354D01*
X109342620Y-80273596D01*
X109342627Y-80273598D01*
X109402155Y-80279999D01*
X109402172Y-80280000D01*
X109428424Y-80280000D01*
X109495463Y-80299685D01*
X109541218Y-80352489D01*
X109551162Y-80421647D01*
X109529999Y-80475123D01*
X109412900Y-80642357D01*
X109412898Y-80642361D01*
X109320426Y-80840668D01*
X109320422Y-80840677D01*
X109263793Y-81052020D01*
X109263793Y-81052024D01*
X109244723Y-81269997D01*
X109244723Y-81270002D01*
X109263793Y-81487975D01*
X109263793Y-81487979D01*
X109320422Y-81699322D01*
X109320424Y-81699326D01*
X109320425Y-81699330D01*
X109349902Y-81762543D01*
X109412897Y-81897638D01*
X109412898Y-81897639D01*
X109538402Y-82076877D01*
X109693123Y-82231598D01*
X109872361Y-82357102D01*
X110070670Y-82449575D01*
X110070676Y-82449576D01*
X110070677Y-82449577D01*
X110077059Y-82451287D01*
X110282023Y-82506207D01*
X110464926Y-82522208D01*
X110499998Y-82525277D01*
X110500000Y-82525277D01*
X110500002Y-82525277D01*
X110528254Y-82522805D01*
X110717977Y-82506207D01*
X110929330Y-82449575D01*
X111127639Y-82357102D01*
X111306877Y-82231598D01*
X111461598Y-82076877D01*
X111587102Y-81897639D01*
X111679575Y-81699330D01*
X111679575Y-81699329D01*
X111681863Y-81694423D01*
X111683616Y-81695240D01*
X111719984Y-81645835D01*
X111785250Y-81620891D01*
X111795092Y-81620500D01*
X112323456Y-81620500D01*
X112390495Y-81640185D01*
X112411137Y-81656819D01*
X115634788Y-84880470D01*
X115714712Y-84926614D01*
X115803856Y-84950500D01*
X116586105Y-84950500D01*
X116653144Y-84970185D01*
X116667312Y-84980790D01*
X116668866Y-84982137D01*
X116668872Y-84982143D01*
X116789947Y-85059953D01*
X116789950Y-85059954D01*
X116789949Y-85059954D01*
X116928036Y-85100499D01*
X116928038Y-85100500D01*
X116928039Y-85100500D01*
X117071962Y-85100500D01*
X117071962Y-85100499D01*
X117210053Y-85059953D01*
X117331128Y-84982143D01*
X117425377Y-84873373D01*
X117485165Y-84742457D01*
X117505647Y-84600000D01*
X117485165Y-84457543D01*
X117425377Y-84326627D01*
X117331128Y-84217857D01*
X117210053Y-84140047D01*
X117210051Y-84140046D01*
X117210049Y-84140045D01*
X117210050Y-84140045D01*
X117071963Y-84099500D01*
X117071961Y-84099500D01*
X116928039Y-84099500D01*
X116928036Y-84099500D01*
X116789949Y-84140045D01*
X116668876Y-84217854D01*
X116668874Y-84217855D01*
X116668872Y-84217857D01*
X116668870Y-84217858D01*
X116667312Y-84219210D01*
X116665427Y-84220070D01*
X116661411Y-84222652D01*
X116661039Y-84222074D01*
X116603757Y-84248237D01*
X116586105Y-84249500D01*
X116046544Y-84249500D01*
X115979505Y-84229815D01*
X115958863Y-84213181D01*
X112735213Y-80989531D01*
X112735208Y-80989527D01*
X112655290Y-80943387D01*
X112655289Y-80943386D01*
X112655288Y-80943386D01*
X112566144Y-80919500D01*
X112566143Y-80919500D01*
X111795092Y-80919500D01*
X111728053Y-80899815D01*
X111682298Y-80847011D01*
X111680612Y-80842894D01*
X111656180Y-80790499D01*
X111587102Y-80642362D01*
X111587100Y-80642359D01*
X111587099Y-80642357D01*
X111470001Y-80475123D01*
X111447674Y-80408917D01*
X111464684Y-80341150D01*
X111515632Y-80293337D01*
X111571576Y-80280000D01*
X111597828Y-80280000D01*
X111597844Y-80279999D01*
X111657372Y-80273598D01*
X111657379Y-80273596D01*
X111792086Y-80223354D01*
X111792093Y-80223350D01*
X111907187Y-80137190D01*
X111907190Y-80137187D01*
X111993350Y-80022093D01*
X111993354Y-80022086D01*
X112043596Y-79887379D01*
X112043598Y-79887372D01*
X112049999Y-79827844D01*
X112050000Y-79827827D01*
X112050000Y-78980000D01*
X110990748Y-78980000D01*
X111012518Y-78942292D01*
X111050000Y-78802409D01*
X111050000Y-78657591D01*
X111012518Y-78517708D01*
X110990748Y-78480000D01*
X112050000Y-78480000D01*
X112050000Y-77632172D01*
X112049999Y-77632155D01*
X112043598Y-77572627D01*
X112043596Y-77572620D01*
X111993354Y-77437913D01*
X111993350Y-77437906D01*
X111907190Y-77322812D01*
X111907187Y-77322809D01*
X111792093Y-77236649D01*
X111792086Y-77236645D01*
X111657379Y-77186403D01*
X111657372Y-77186401D01*
X111597844Y-77180000D01*
X110750000Y-77180000D01*
X110750000Y-78239252D01*
X110712292Y-78217482D01*
X110572409Y-78180000D01*
X110427591Y-78180000D01*
X110287708Y-78217482D01*
X110250000Y-78239252D01*
X110250000Y-77180000D01*
X109402155Y-77180000D01*
X109342627Y-77186401D01*
X109342620Y-77186403D01*
X109207913Y-77236645D01*
X109207906Y-77236649D01*
X109092812Y-77322809D01*
X109092809Y-77322812D01*
X109006649Y-77437906D01*
X109006645Y-77437913D01*
X108956403Y-77572620D01*
X108956401Y-77572627D01*
X108950000Y-77632155D01*
X105411349Y-77632155D01*
X105411349Y-74500000D01*
X114994353Y-74500000D01*
X115014834Y-74642456D01*
X115067184Y-74757084D01*
X115074623Y-74773373D01*
X115168872Y-74882143D01*
X115259611Y-74940457D01*
X115271084Y-74947830D01*
X115291726Y-74964465D01*
X118847580Y-78520318D01*
X118881065Y-78581641D01*
X118876081Y-78651333D01*
X118838564Y-78703852D01*
X118753590Y-78773588D01*
X118622317Y-78933547D01*
X118622315Y-78933550D01*
X118617630Y-78942315D01*
X118524769Y-79116043D01*
X118464699Y-79314067D01*
X118444417Y-79520000D01*
X118464699Y-79725932D01*
X118464700Y-79725934D01*
X118524768Y-79923954D01*
X118622315Y-80106450D01*
X118622317Y-80106452D01*
X118753589Y-80266410D01*
X118844661Y-80341150D01*
X118913550Y-80397685D01*
X119096046Y-80495232D01*
X119162551Y-80515405D01*
X119220989Y-80553702D01*
X119249446Y-80617514D01*
X119238887Y-80686581D01*
X119192663Y-80738975D01*
X119158650Y-80753841D01*
X119036514Y-80786567D01*
X119036507Y-80786570D01*
X118822422Y-80886399D01*
X118822420Y-80886400D01*
X118628926Y-81021886D01*
X118628920Y-81021891D01*
X118461891Y-81188920D01*
X118461886Y-81188926D01*
X118326400Y-81382420D01*
X118326399Y-81382422D01*
X118226570Y-81596507D01*
X118226567Y-81596513D01*
X118169364Y-81809999D01*
X118169364Y-81810000D01*
X119066988Y-81810000D01*
X119034075Y-81867007D01*
X119000000Y-81994174D01*
X119000000Y-82125826D01*
X119034075Y-82252993D01*
X119066988Y-82310000D01*
X118169364Y-82310000D01*
X118226567Y-82523486D01*
X118226570Y-82523492D01*
X118326399Y-82737578D01*
X118461894Y-82931082D01*
X118628917Y-83098105D01*
X118822421Y-83233600D01*
X119036507Y-83333429D01*
X119036516Y-83333433D01*
X119158649Y-83366158D01*
X119218310Y-83402523D01*
X119248839Y-83465369D01*
X119240545Y-83534745D01*
X119196059Y-83588623D01*
X119162552Y-83604593D01*
X119096046Y-83624767D01*
X119008112Y-83671770D01*
X118913550Y-83722315D01*
X118913548Y-83722316D01*
X118913547Y-83722317D01*
X118753589Y-83853589D01*
X118622317Y-84013547D01*
X118622315Y-84013550D01*
X118591780Y-84070677D01*
X118524769Y-84196043D01*
X118464699Y-84394067D01*
X118444417Y-84600000D01*
X118464699Y-84805932D01*
X118494734Y-84904944D01*
X118524768Y-85003954D01*
X118622315Y-85186450D01*
X118622317Y-85186452D01*
X118753589Y-85346410D01*
X118850209Y-85425702D01*
X118913550Y-85477685D01*
X119096046Y-85575232D01*
X119294066Y-85635300D01*
X119294065Y-85635300D01*
X119312529Y-85637118D01*
X119500000Y-85655583D01*
X119705934Y-85635300D01*
X119903954Y-85575232D01*
X120086450Y-85477685D01*
X120246410Y-85346410D01*
X120377685Y-85186450D01*
X120475232Y-85003954D01*
X120535300Y-84805934D01*
X120555583Y-84600000D01*
X120535300Y-84394066D01*
X120475232Y-84196046D01*
X120377685Y-84013550D01*
X120261816Y-83872362D01*
X120246410Y-83853589D01*
X120096121Y-83730252D01*
X120096115Y-83730247D01*
X138775500Y-83730247D01*
X138775500Y-85469752D01*
X138787131Y-85528229D01*
X138787132Y-85528230D01*
X138831447Y-85594552D01*
X138897769Y-85638867D01*
X138897770Y-85638868D01*
X138956247Y-85650499D01*
X138956250Y-85650500D01*
X138956252Y-85650500D01*
X140695750Y-85650500D01*
X140695751Y-85650499D01*
X140710568Y-85647552D01*
X140754229Y-85638868D01*
X140754229Y-85638867D01*
X140754231Y-85638867D01*
X140820552Y-85594552D01*
X140864867Y-85528231D01*
X140864867Y-85528229D01*
X140864868Y-85528229D01*
X140876499Y-85469752D01*
X140876500Y-85469750D01*
X140876500Y-83730249D01*
X140876499Y-83730247D01*
X140864868Y-83671770D01*
X140864867Y-83671769D01*
X140820552Y-83605447D01*
X140754230Y-83561132D01*
X140754229Y-83561131D01*
X140695752Y-83549500D01*
X140695748Y-83549500D01*
X138956252Y-83549500D01*
X138956247Y-83549500D01*
X138897770Y-83561131D01*
X138897769Y-83561132D01*
X138831447Y-83605447D01*
X138787132Y-83671769D01*
X138787131Y-83671770D01*
X138775500Y-83730247D01*
X120096115Y-83730247D01*
X120086450Y-83722315D01*
X119903954Y-83624768D01*
X119837447Y-83604593D01*
X119779009Y-83566296D01*
X119750553Y-83502484D01*
X119761113Y-83433417D01*
X119807337Y-83381023D01*
X119841350Y-83366158D01*
X119963483Y-83333433D01*
X119963492Y-83333429D01*
X120177578Y-83233600D01*
X120371082Y-83098105D01*
X120538105Y-82931082D01*
X120673600Y-82737578D01*
X120679862Y-82724150D01*
X132359353Y-82724150D01*
X132379834Y-82866606D01*
X132422715Y-82960500D01*
X132439623Y-82997523D01*
X132533872Y-83106293D01*
X132654947Y-83184103D01*
X132654950Y-83184104D01*
X132654949Y-83184104D01*
X132793036Y-83224649D01*
X132793038Y-83224650D01*
X132793039Y-83224650D01*
X132936962Y-83224650D01*
X132936962Y-83224649D01*
X133075053Y-83184103D01*
X133196128Y-83106293D01*
X133290377Y-82997523D01*
X133350165Y-82866607D01*
X133370647Y-82724150D01*
X133350165Y-82581693D01*
X133290377Y-82450777D01*
X133290374Y-82450773D01*
X133245786Y-82399314D01*
X133216762Y-82335758D01*
X133215500Y-82318113D01*
X133215500Y-81905000D01*
X148530553Y-81905000D01*
X148551034Y-82047456D01*
X148564918Y-82077857D01*
X148610823Y-82178373D01*
X148655413Y-82229833D01*
X148684438Y-82293388D01*
X148685700Y-82311035D01*
X148685700Y-86057763D01*
X148666015Y-86124802D01*
X148655414Y-86138964D01*
X148610825Y-86190423D01*
X148610822Y-86190428D01*
X148551034Y-86321343D01*
X148530553Y-86463800D01*
X148551034Y-86606256D01*
X148580196Y-86670110D01*
X148610823Y-86737173D01*
X148705072Y-86845943D01*
X148826147Y-86923753D01*
X148826150Y-86923754D01*
X148826149Y-86923754D01*
X148964236Y-86964299D01*
X148964238Y-86964300D01*
X148964239Y-86964300D01*
X149108162Y-86964300D01*
X149108162Y-86964299D01*
X149246253Y-86923753D01*
X149367328Y-86845943D01*
X149461577Y-86737173D01*
X149521365Y-86606257D01*
X149541847Y-86463800D01*
X149521365Y-86321343D01*
X149461577Y-86190427D01*
X149439345Y-86164769D01*
X149416986Y-86138964D01*
X149387962Y-86075408D01*
X149386700Y-86057763D01*
X149386700Y-82460000D01*
X155954353Y-82460000D01*
X155974834Y-82602456D01*
X156030411Y-82724150D01*
X156034623Y-82733373D01*
X156128872Y-82842143D01*
X156249947Y-82919953D01*
X156249950Y-82919954D01*
X156249949Y-82919954D01*
X156388036Y-82960499D01*
X156388038Y-82960500D01*
X156388039Y-82960500D01*
X156531962Y-82960500D01*
X156531962Y-82960499D01*
X156670053Y-82919953D01*
X156791128Y-82842143D01*
X156885377Y-82733373D01*
X156945165Y-82602457D01*
X156961447Y-82489208D01*
X156990470Y-82425656D01*
X156996489Y-82419191D01*
X159488863Y-79926819D01*
X159550186Y-79893334D01*
X159576544Y-79890500D01*
X160586105Y-79890500D01*
X160653144Y-79910185D01*
X160667312Y-79920790D01*
X160668866Y-79922137D01*
X160668872Y-79922143D01*
X160789947Y-79999953D01*
X160789950Y-79999954D01*
X160789949Y-79999954D01*
X160928036Y-80040499D01*
X160928038Y-80040500D01*
X160928039Y-80040500D01*
X161071962Y-80040500D01*
X161071962Y-80040499D01*
X161210053Y-79999953D01*
X161331128Y-79922143D01*
X161425377Y-79813373D01*
X161485165Y-79682457D01*
X161505647Y-79540000D01*
X161485165Y-79397543D01*
X161425377Y-79266627D01*
X161331128Y-79157857D01*
X161210053Y-79080047D01*
X161210051Y-79080046D01*
X161210049Y-79080045D01*
X161210050Y-79080045D01*
X161071963Y-79039500D01*
X161071961Y-79039500D01*
X160928039Y-79039500D01*
X160928036Y-79039500D01*
X160789949Y-79080045D01*
X160668876Y-79157854D01*
X160668874Y-79157855D01*
X160668872Y-79157857D01*
X160668870Y-79157858D01*
X160667312Y-79159210D01*
X160665427Y-79160070D01*
X160661411Y-79162652D01*
X160661039Y-79162074D01*
X160603757Y-79188237D01*
X160586105Y-79189500D01*
X159333856Y-79189500D01*
X159250073Y-79211948D01*
X159250074Y-79211949D01*
X159244712Y-79213385D01*
X159244708Y-79213387D01*
X159164791Y-79259527D01*
X159164786Y-79259531D01*
X156501137Y-81923181D01*
X156439814Y-81956666D01*
X156413456Y-81959500D01*
X156388036Y-81959500D01*
X156249949Y-82000045D01*
X156128873Y-82077856D01*
X156034623Y-82186626D01*
X156034622Y-82186628D01*
X155974834Y-82317543D01*
X155954353Y-82460000D01*
X149386700Y-82460000D01*
X149386700Y-82311035D01*
X149406385Y-82243996D01*
X149416982Y-82229837D01*
X149461577Y-82178373D01*
X149521365Y-82047457D01*
X149541847Y-81905000D01*
X149521365Y-81762543D01*
X149461577Y-81631627D01*
X149367328Y-81522857D01*
X149246253Y-81445047D01*
X149246251Y-81445046D01*
X149246249Y-81445045D01*
X149246250Y-81445045D01*
X149108163Y-81404500D01*
X149108161Y-81404500D01*
X148964239Y-81404500D01*
X148964236Y-81404500D01*
X148826149Y-81445045D01*
X148705073Y-81522856D01*
X148610823Y-81631626D01*
X148610822Y-81631628D01*
X148551034Y-81762543D01*
X148530553Y-81905000D01*
X133215500Y-81905000D01*
X133215500Y-80831544D01*
X133235185Y-80764505D01*
X133251819Y-80743863D01*
X134455754Y-79539928D01*
X135685469Y-78310213D01*
X135731614Y-78230288D01*
X135731615Y-78230285D01*
X135732814Y-78225812D01*
X135742945Y-78188001D01*
X135755500Y-78141144D01*
X135755500Y-77681885D01*
X135775185Y-77614846D01*
X135785782Y-77600687D01*
X135829704Y-77550000D01*
X144494353Y-77550000D01*
X144514834Y-77692456D01*
X144530341Y-77726410D01*
X144574623Y-77823373D01*
X144668872Y-77932143D01*
X144789947Y-78009953D01*
X144789950Y-78009954D01*
X144789949Y-78009954D01*
X144928036Y-78050499D01*
X144928038Y-78050500D01*
X144928039Y-78050500D01*
X144953456Y-78050500D01*
X145020495Y-78070185D01*
X145041137Y-78086819D01*
X145227402Y-78273084D01*
X145291710Y-78310212D01*
X145291711Y-78310213D01*
X145301265Y-78315729D01*
X145307326Y-78319228D01*
X145396470Y-78343114D01*
X145396471Y-78343114D01*
X145396472Y-78343114D01*
X158553528Y-78343114D01*
X158553530Y-78343114D01*
X158642674Y-78319228D01*
X158658290Y-78310212D01*
X158722598Y-78273084D01*
X159458863Y-77536819D01*
X159520186Y-77503334D01*
X159546544Y-77500500D01*
X159571962Y-77500500D01*
X159571962Y-77500499D01*
X159679121Y-77469035D01*
X159710050Y-77459954D01*
X159710050Y-77459953D01*
X159710053Y-77459953D01*
X159831128Y-77382143D01*
X159925377Y-77273373D01*
X159985165Y-77142457D01*
X160005647Y-77000000D01*
X159985165Y-76857543D01*
X159925377Y-76726627D01*
X159831128Y-76617857D01*
X159710053Y-76540047D01*
X159710051Y-76540046D01*
X159710049Y-76540045D01*
X159710050Y-76540045D01*
X159571963Y-76499500D01*
X159571961Y-76499500D01*
X159428039Y-76499500D01*
X159428036Y-76499500D01*
X159289949Y-76540045D01*
X159168873Y-76617856D01*
X159074623Y-76726626D01*
X159074622Y-76726628D01*
X159014834Y-76857543D01*
X158998552Y-76970788D01*
X158969526Y-77034343D01*
X158963495Y-77040821D01*
X158398523Y-77605795D01*
X158337200Y-77639280D01*
X158310842Y-77642114D01*
X145639158Y-77642114D01*
X145572119Y-77622429D01*
X145551477Y-77605795D01*
X145536503Y-77590821D01*
X145503018Y-77529498D01*
X145501449Y-77520805D01*
X145485165Y-77407543D01*
X145425377Y-77276627D01*
X145331128Y-77167857D01*
X145210053Y-77090047D01*
X145210051Y-77090046D01*
X145210049Y-77090045D01*
X145210050Y-77090045D01*
X145071963Y-77049500D01*
X145071961Y-77049500D01*
X144928039Y-77049500D01*
X144928036Y-77049500D01*
X144789949Y-77090045D01*
X144668873Y-77167856D01*
X144574623Y-77276626D01*
X144574622Y-77276628D01*
X144514834Y-77407543D01*
X144494353Y-77550000D01*
X135829704Y-77550000D01*
X135830377Y-77549223D01*
X135890165Y-77418307D01*
X135910647Y-77275850D01*
X135890165Y-77133393D01*
X135830377Y-77002477D01*
X135736128Y-76893707D01*
X135615053Y-76815897D01*
X135615051Y-76815896D01*
X135615049Y-76815895D01*
X135615050Y-76815895D01*
X135476963Y-76775350D01*
X135476961Y-76775350D01*
X135333039Y-76775350D01*
X135333036Y-76775350D01*
X135194949Y-76815895D01*
X135073873Y-76893706D01*
X134979623Y-77002476D01*
X134979622Y-77002478D01*
X134919834Y-77133393D01*
X134899353Y-77275850D01*
X134919834Y-77418306D01*
X134958666Y-77503334D01*
X134979623Y-77549223D01*
X135024213Y-77600683D01*
X135053238Y-77664238D01*
X135054500Y-77681885D01*
X135054500Y-77898456D01*
X135034815Y-77965495D01*
X135018181Y-77986137D01*
X132584531Y-80419786D01*
X132584527Y-80419791D01*
X132559511Y-80463122D01*
X132559511Y-80463123D01*
X132538386Y-80499710D01*
X132514500Y-80588856D01*
X132514500Y-82318113D01*
X132494815Y-82385152D01*
X132484214Y-82399314D01*
X132439625Y-82450773D01*
X132439622Y-82450778D01*
X132379834Y-82581693D01*
X132359353Y-82724150D01*
X120679862Y-82724150D01*
X120773429Y-82523492D01*
X120773432Y-82523486D01*
X120830636Y-82310000D01*
X119933012Y-82310000D01*
X119965925Y-82252993D01*
X120000000Y-82125826D01*
X120000000Y-81994174D01*
X119965925Y-81867007D01*
X119933012Y-81810000D01*
X120830636Y-81810000D01*
X120830635Y-81809999D01*
X120773432Y-81596513D01*
X120773429Y-81596507D01*
X120673600Y-81382422D01*
X120673599Y-81382420D01*
X120538113Y-81188926D01*
X120538108Y-81188920D01*
X120371082Y-81021894D01*
X120177578Y-80886399D01*
X119963492Y-80786570D01*
X119963486Y-80786567D01*
X119841349Y-80753841D01*
X119781689Y-80717476D01*
X119751160Y-80654629D01*
X119759455Y-80585253D01*
X119803940Y-80531375D01*
X119837444Y-80515407D01*
X119903954Y-80495232D01*
X120086450Y-80397685D01*
X120246410Y-80266410D01*
X120377685Y-80106450D01*
X120475232Y-79923954D01*
X120535300Y-79725934D01*
X120542957Y-79648189D01*
X120569116Y-79583406D01*
X120626150Y-79543046D01*
X120695950Y-79539928D01*
X120754040Y-79572665D01*
X121673495Y-80492120D01*
X121706980Y-80553443D01*
X121708552Y-80562153D01*
X121724834Y-80675399D01*
X121777400Y-80790500D01*
X121784623Y-80806316D01*
X121878872Y-80915086D01*
X121999947Y-80992896D01*
X121999950Y-80992897D01*
X121999949Y-80992897D01*
X122138036Y-81033442D01*
X122138038Y-81033443D01*
X122138039Y-81033443D01*
X122281962Y-81033443D01*
X122281962Y-81033442D01*
X122420053Y-80992896D01*
X122541128Y-80915086D01*
X122635377Y-80806316D01*
X122695165Y-80675400D01*
X122715647Y-80532943D01*
X122695165Y-80390486D01*
X122635377Y-80259570D01*
X122541128Y-80150800D01*
X122420053Y-80072990D01*
X122420051Y-80072989D01*
X122420049Y-80072988D01*
X122420050Y-80072988D01*
X122281963Y-80032443D01*
X122281961Y-80032443D01*
X122256544Y-80032443D01*
X122189505Y-80012758D01*
X122168863Y-79996124D01*
X120212270Y-78039531D01*
X120212265Y-78039527D01*
X120163497Y-78011371D01*
X120115281Y-77960804D01*
X120102058Y-77892197D01*
X120128027Y-77827332D01*
X120146833Y-77808130D01*
X120246410Y-77726410D01*
X120274275Y-77692456D01*
X120377685Y-77566450D01*
X120475232Y-77383954D01*
X120535300Y-77185934D01*
X120555583Y-76980000D01*
X120535300Y-76774066D01*
X120475232Y-76576046D01*
X120377685Y-76393550D01*
X120325702Y-76330209D01*
X120246410Y-76233589D01*
X120086452Y-76102317D01*
X120086453Y-76102317D01*
X120086450Y-76102315D01*
X119903954Y-76004768D01*
X119705934Y-75944700D01*
X119705932Y-75944699D01*
X119705934Y-75944699D01*
X119500000Y-75924417D01*
X119294067Y-75944699D01*
X119096043Y-76004769D01*
X118985898Y-76063643D01*
X118913550Y-76102315D01*
X118913548Y-76102316D01*
X118913547Y-76102317D01*
X118753589Y-76233589D01*
X118622317Y-76393547D01*
X118524769Y-76576043D01*
X118464699Y-76774067D01*
X118457042Y-76851809D01*
X118430880Y-76916596D01*
X118373845Y-76956954D01*
X118304045Y-76960070D01*
X118245958Y-76927334D01*
X117207012Y-75888388D01*
X116818624Y-75500000D01*
X122494353Y-75500000D01*
X122514834Y-75642456D01*
X122550930Y-75721494D01*
X122574623Y-75773373D01*
X122619213Y-75824833D01*
X122648238Y-75888388D01*
X122649500Y-75906035D01*
X122649500Y-78008643D01*
X122669159Y-78082013D01*
X122673386Y-78097788D01*
X122673387Y-78097790D01*
X122719527Y-78177708D01*
X122719529Y-78177711D01*
X122719530Y-78177712D01*
X123344227Y-78802409D01*
X123963495Y-79421676D01*
X123996980Y-79482999D01*
X123998552Y-79491710D01*
X124014834Y-79604956D01*
X124034580Y-79648193D01*
X124074623Y-79735873D01*
X124168872Y-79844643D01*
X124289947Y-79922453D01*
X124289950Y-79922454D01*
X124289949Y-79922454D01*
X124428036Y-79962999D01*
X124428038Y-79963000D01*
X124428039Y-79963000D01*
X124571962Y-79963000D01*
X124571962Y-79962999D01*
X124695184Y-79926819D01*
X124710050Y-79922454D01*
X124710050Y-79922453D01*
X124710053Y-79922453D01*
X124831128Y-79844643D01*
X124925377Y-79735873D01*
X124985165Y-79604957D01*
X125005647Y-79462500D01*
X124985165Y-79320043D01*
X124925377Y-79189127D01*
X124831128Y-79080357D01*
X124710053Y-79002547D01*
X124710051Y-79002546D01*
X124710049Y-79002545D01*
X124710050Y-79002545D01*
X124571963Y-78962000D01*
X124571961Y-78962000D01*
X124546543Y-78962000D01*
X124479504Y-78942315D01*
X124458862Y-78925681D01*
X124190772Y-78657591D01*
X124030478Y-78497296D01*
X123996994Y-78435975D01*
X124001978Y-78366283D01*
X124043850Y-78310350D01*
X124051121Y-78305301D01*
X124053724Y-78303627D01*
X124053727Y-78303627D01*
X124174802Y-78225817D01*
X124269051Y-78117047D01*
X124328839Y-77986131D01*
X124347245Y-77858107D01*
X124376269Y-77794553D01*
X124382288Y-77788088D01*
X127710378Y-74460000D01*
X162945207Y-74460000D01*
X162964348Y-74703219D01*
X163021303Y-74940457D01*
X163114668Y-75165861D01*
X163238504Y-75367941D01*
X163976212Y-74630233D01*
X163987482Y-74672292D01*
X164059890Y-74797708D01*
X164162292Y-74900110D01*
X164287708Y-74972518D01*
X164329765Y-74983787D01*
X163592057Y-75721494D01*
X163726052Y-75803607D01*
X163772927Y-75855419D01*
X163784350Y-75924348D01*
X163756693Y-75988511D01*
X163732387Y-76010908D01*
X163693120Y-76038403D01*
X163538402Y-76193121D01*
X163412900Y-76372357D01*
X163412898Y-76372361D01*
X163320426Y-76570668D01*
X163320422Y-76570677D01*
X163263793Y-76782020D01*
X163263793Y-76782023D01*
X163259025Y-76836517D01*
X163244723Y-76999997D01*
X163244723Y-77000002D01*
X163263793Y-77217975D01*
X163263793Y-77217979D01*
X163320422Y-77429322D01*
X163320424Y-77429326D01*
X163320425Y-77429330D01*
X163335441Y-77461531D01*
X163412897Y-77627638D01*
X163437998Y-77663486D01*
X163538402Y-77806877D01*
X163693123Y-77961598D01*
X163839263Y-78063926D01*
X163882887Y-78118502D01*
X163890079Y-78188001D01*
X163858557Y-78250355D01*
X163798327Y-78285769D01*
X163768138Y-78289500D01*
X163430247Y-78289500D01*
X163371770Y-78301131D01*
X163371769Y-78301132D01*
X163305447Y-78345447D01*
X163261132Y-78411769D01*
X163261131Y-78411770D01*
X163249500Y-78470247D01*
X163249500Y-80609752D01*
X163261131Y-80668229D01*
X163261132Y-80668230D01*
X163305447Y-80734552D01*
X163371769Y-80778867D01*
X163371770Y-80778868D01*
X163430247Y-80790499D01*
X163430250Y-80790500D01*
X163430252Y-80790500D01*
X165569750Y-80790500D01*
X165569751Y-80790499D01*
X165584568Y-80787552D01*
X165628229Y-80778868D01*
X165628229Y-80778867D01*
X165628231Y-80778867D01*
X165694552Y-80734552D01*
X165738867Y-80668231D01*
X165738867Y-80668229D01*
X165738868Y-80668229D01*
X165750499Y-80609752D01*
X165750500Y-80609750D01*
X165750500Y-78470249D01*
X165750499Y-78470247D01*
X165738868Y-78411770D01*
X165738867Y-78411769D01*
X165694552Y-78345447D01*
X165628230Y-78301132D01*
X165628229Y-78301131D01*
X165569752Y-78289500D01*
X165569748Y-78289500D01*
X165231862Y-78289500D01*
X165164823Y-78269815D01*
X165119068Y-78217011D01*
X165109124Y-78147853D01*
X165138149Y-78084297D01*
X165160734Y-78063928D01*
X165306877Y-77961598D01*
X165461598Y-77806877D01*
X165587102Y-77627639D01*
X165679575Y-77429330D01*
X165736207Y-77217977D01*
X165755060Y-77002477D01*
X165755277Y-77000002D01*
X165755277Y-76999997D01*
X165747980Y-76916596D01*
X165736207Y-76782023D01*
X165692219Y-76617857D01*
X165679577Y-76570677D01*
X165679576Y-76570676D01*
X165679575Y-76570670D01*
X165587102Y-76372362D01*
X165587100Y-76372359D01*
X165587099Y-76372357D01*
X165461599Y-76193124D01*
X165461596Y-76193121D01*
X165306877Y-76038402D01*
X165267612Y-76010908D01*
X165223987Y-75956331D01*
X165216795Y-75886832D01*
X165248318Y-75824478D01*
X165273946Y-75803607D01*
X165407941Y-75721494D01*
X164670235Y-74983787D01*
X164712292Y-74972518D01*
X164837708Y-74900110D01*
X164940110Y-74797708D01*
X165012518Y-74672292D01*
X165023787Y-74630234D01*
X165761494Y-75367941D01*
X165761495Y-75367941D01*
X165885331Y-75165861D01*
X165978696Y-74940457D01*
X166035651Y-74703219D01*
X166054792Y-74460000D01*
X166035651Y-74216780D01*
X165978696Y-73979542D01*
X165885331Y-73754138D01*
X165761494Y-73552057D01*
X165023787Y-74289764D01*
X165012518Y-74247708D01*
X164940110Y-74122292D01*
X164837708Y-74019890D01*
X164712292Y-73947482D01*
X164670234Y-73936212D01*
X165407941Y-73198504D01*
X165205861Y-73074668D01*
X164980457Y-72981303D01*
X164743219Y-72924348D01*
X164743220Y-72924348D01*
X164500000Y-72905207D01*
X164256780Y-72924348D01*
X164019542Y-72981303D01*
X163794138Y-73074668D01*
X163592057Y-73198504D01*
X164329766Y-73936212D01*
X164287708Y-73947482D01*
X164162292Y-74019890D01*
X164059890Y-74122292D01*
X163987482Y-74247708D01*
X163976212Y-74289765D01*
X163238504Y-73552057D01*
X163114668Y-73754138D01*
X163021303Y-73979542D01*
X162964348Y-74216780D01*
X162945207Y-74460000D01*
X127710378Y-74460000D01*
X127796211Y-74374167D01*
X127857534Y-74340682D01*
X127883892Y-74337848D01*
X127909310Y-74337848D01*
X127909310Y-74337847D01*
X128047401Y-74297301D01*
X128168476Y-74219491D01*
X128262725Y-74110721D01*
X128322513Y-73979805D01*
X128342995Y-73837348D01*
X128322513Y-73694891D01*
X128262725Y-73563975D01*
X128168476Y-73455205D01*
X128168473Y-73455203D01*
X128168474Y-73455203D01*
X128071130Y-73392644D01*
X128025376Y-73339840D01*
X128015432Y-73270682D01*
X128044457Y-73207126D01*
X128050481Y-73200656D01*
X128086592Y-73164546D01*
X128147916Y-73131061D01*
X128174272Y-73128228D01*
X128199690Y-73128228D01*
X128199690Y-73128227D01*
X128337781Y-73087681D01*
X128458856Y-73009871D01*
X128553105Y-72901101D01*
X128612893Y-72770185D01*
X128633375Y-72627728D01*
X128612893Y-72485271D01*
X128553105Y-72354355D01*
X128458856Y-72245585D01*
X128337781Y-72167775D01*
X128337779Y-72167774D01*
X128337777Y-72167773D01*
X128337778Y-72167773D01*
X128199691Y-72127228D01*
X128199689Y-72127228D01*
X128055767Y-72127228D01*
X128055764Y-72127228D01*
X127917677Y-72167773D01*
X127796601Y-72245584D01*
X127702351Y-72354354D01*
X127702350Y-72354356D01*
X127642562Y-72485271D01*
X127626280Y-72598516D01*
X127597254Y-72662071D01*
X127591223Y-72668549D01*
X125766137Y-74493637D01*
X125704814Y-74527122D01*
X125678456Y-74529956D01*
X125653036Y-74529956D01*
X125514949Y-74570501D01*
X125393873Y-74648312D01*
X125299623Y-74757082D01*
X125299622Y-74757084D01*
X125239834Y-74887999D01*
X125219353Y-75030456D01*
X125239834Y-75172912D01*
X125264366Y-75226628D01*
X125299623Y-75303829D01*
X125393872Y-75412599D01*
X125491218Y-75475159D01*
X125536971Y-75527961D01*
X125546915Y-75597119D01*
X125517891Y-75660675D01*
X125511858Y-75667154D01*
X123872159Y-77306855D01*
X123810836Y-77340340D01*
X123784478Y-77343174D01*
X123771710Y-77343174D01*
X123633623Y-77383719D01*
X123541539Y-77442898D01*
X123474499Y-77462582D01*
X123407460Y-77442897D01*
X123361705Y-77390093D01*
X123350500Y-77338582D01*
X123350500Y-75906035D01*
X123370185Y-75838996D01*
X123380782Y-75824837D01*
X123425377Y-75773373D01*
X123485165Y-75642457D01*
X123505647Y-75500000D01*
X123485165Y-75357543D01*
X123425377Y-75226627D01*
X123331128Y-75117857D01*
X123210053Y-75040047D01*
X123210051Y-75040046D01*
X123210049Y-75040045D01*
X123210050Y-75040045D01*
X123071963Y-74999500D01*
X123071961Y-74999500D01*
X122928039Y-74999500D01*
X122928036Y-74999500D01*
X122789949Y-75040045D01*
X122668873Y-75117856D01*
X122574623Y-75226626D01*
X122574622Y-75226628D01*
X122514834Y-75357543D01*
X122494353Y-75500000D01*
X116818624Y-75500000D01*
X116026028Y-74707403D01*
X115992543Y-74646080D01*
X115990971Y-74602075D01*
X115995510Y-74570503D01*
X116005647Y-74500000D01*
X115985165Y-74357543D01*
X115925377Y-74226627D01*
X115831128Y-74117857D01*
X115710053Y-74040047D01*
X115710051Y-74040046D01*
X115710049Y-74040045D01*
X115710050Y-74040045D01*
X115571963Y-73999500D01*
X115571961Y-73999500D01*
X115428039Y-73999500D01*
X115428036Y-73999500D01*
X115289949Y-74040045D01*
X115168873Y-74117856D01*
X115074623Y-74226626D01*
X115074622Y-74226628D01*
X115014834Y-74357543D01*
X114994353Y-74500000D01*
X105411349Y-74500000D01*
X105411349Y-73570247D01*
X118449500Y-73570247D01*
X118449500Y-75309752D01*
X118461131Y-75368229D01*
X118461132Y-75368230D01*
X118505447Y-75434552D01*
X118571769Y-75478867D01*
X118571770Y-75478868D01*
X118630247Y-75490499D01*
X118630250Y-75490500D01*
X118630252Y-75490500D01*
X120369750Y-75490500D01*
X120369751Y-75490499D01*
X120384568Y-75487552D01*
X120428229Y-75478868D01*
X120428229Y-75478867D01*
X120428231Y-75478867D01*
X120494552Y-75434552D01*
X120538867Y-75368231D01*
X120538867Y-75368229D01*
X120538868Y-75368229D01*
X120550499Y-75309752D01*
X120550500Y-75309750D01*
X120550500Y-73570249D01*
X120550499Y-73570247D01*
X120538868Y-73511770D01*
X120538867Y-73511769D01*
X120494552Y-73445447D01*
X120428230Y-73401132D01*
X120428229Y-73401131D01*
X120369752Y-73389500D01*
X120369748Y-73389500D01*
X118630252Y-73389500D01*
X118630247Y-73389500D01*
X118571770Y-73401131D01*
X118571769Y-73401132D01*
X118505447Y-73445447D01*
X118461132Y-73511769D01*
X118461131Y-73511770D01*
X118449500Y-73570247D01*
X105411349Y-73570247D01*
X105411349Y-68940596D01*
X107410350Y-68940596D01*
X107410350Y-69176791D01*
X107447296Y-69410062D01*
X107520283Y-69634690D01*
X107627507Y-69845127D01*
X107766333Y-70036204D01*
X107933340Y-70203211D01*
X108124417Y-70342037D01*
X108223841Y-70392696D01*
X108334853Y-70449260D01*
X108334855Y-70449260D01*
X108334858Y-70449262D01*
X108455262Y-70488383D01*
X108559481Y-70522247D01*
X108792753Y-70559194D01*
X108792758Y-70559194D01*
X109028947Y-70559194D01*
X109262218Y-70522247D01*
X109486842Y-70449262D01*
X109697283Y-70342037D01*
X109888360Y-70203211D01*
X110055367Y-70036204D01*
X110194193Y-69845127D01*
X110301418Y-69634686D01*
X110374403Y-69410062D01*
X110385085Y-69342620D01*
X110411350Y-69176791D01*
X110411350Y-68940596D01*
X110374403Y-68707325D01*
X110307038Y-68500000D01*
X126456853Y-68500000D01*
X126477334Y-68642456D01*
X126506960Y-68707326D01*
X126537123Y-68773373D01*
X126581713Y-68824833D01*
X126610738Y-68888388D01*
X126612000Y-68906035D01*
X126612000Y-71593963D01*
X126592315Y-71661002D01*
X126581714Y-71675164D01*
X126537125Y-71726623D01*
X126537122Y-71726628D01*
X126477334Y-71857543D01*
X126456853Y-72000000D01*
X126477334Y-72142456D01*
X126537122Y-72273371D01*
X126537123Y-72273373D01*
X126631372Y-72382143D01*
X126752447Y-72459953D01*
X126752450Y-72459954D01*
X126752449Y-72459954D01*
X126890536Y-72500499D01*
X126890538Y-72500500D01*
X126890539Y-72500500D01*
X127034462Y-72500500D01*
X127034462Y-72500499D01*
X127172553Y-72459953D01*
X127293628Y-72382143D01*
X127387877Y-72273373D01*
X127447665Y-72142457D01*
X127468147Y-72000000D01*
X127447665Y-71857543D01*
X127387877Y-71726627D01*
X127387874Y-71726623D01*
X127343286Y-71675164D01*
X127314262Y-71611608D01*
X127313000Y-71593963D01*
X127313000Y-70974500D01*
X127332685Y-70907461D01*
X127385489Y-70861706D01*
X127437000Y-70850500D01*
X130985500Y-70850500D01*
X131052539Y-70870185D01*
X131098294Y-70922989D01*
X131109500Y-70974500D01*
X131109500Y-72557763D01*
X131089815Y-72624802D01*
X131079214Y-72638964D01*
X131034625Y-72690423D01*
X131034622Y-72690428D01*
X130974834Y-72821343D01*
X130954353Y-72963800D01*
X130974834Y-73106256D01*
X131001455Y-73164546D01*
X131034623Y-73237173D01*
X131128872Y-73345943D01*
X131249947Y-73423753D01*
X131249950Y-73423754D01*
X131249949Y-73423754D01*
X131388036Y-73464299D01*
X131388038Y-73464300D01*
X131388039Y-73464300D01*
X131531962Y-73464300D01*
X131531962Y-73464299D01*
X131670053Y-73423753D01*
X131791128Y-73345943D01*
X131885377Y-73237173D01*
X131945165Y-73106257D01*
X131965647Y-72963800D01*
X131945165Y-72821343D01*
X131885377Y-72690427D01*
X131885374Y-72690423D01*
X131840786Y-72638964D01*
X131811762Y-72575408D01*
X131810500Y-72557763D01*
X131810500Y-70656544D01*
X131830185Y-70589505D01*
X131846819Y-70568863D01*
X131915682Y-70500000D01*
X143784723Y-70500000D01*
X143798418Y-70656544D01*
X143803793Y-70717975D01*
X143803793Y-70717979D01*
X143860422Y-70929322D01*
X143860424Y-70929326D01*
X143860425Y-70929330D01*
X143865452Y-70940110D01*
X143952897Y-71127638D01*
X143952898Y-71127639D01*
X144078402Y-71306877D01*
X144233123Y-71461598D01*
X144412361Y-71587102D01*
X144610670Y-71679575D01*
X144822023Y-71736207D01*
X145004926Y-71752208D01*
X145039998Y-71755277D01*
X145040000Y-71755277D01*
X145040002Y-71755277D01*
X145068254Y-71752805D01*
X145257977Y-71736207D01*
X145469330Y-71679575D01*
X145667639Y-71587102D01*
X145834879Y-71469998D01*
X145901082Y-71447673D01*
X145968850Y-71464683D01*
X146016663Y-71515631D01*
X146030000Y-71571575D01*
X146030000Y-71597844D01*
X146036401Y-71657372D01*
X146036403Y-71657379D01*
X146086645Y-71792086D01*
X146086649Y-71792093D01*
X146172809Y-71907187D01*
X146172812Y-71907190D01*
X146287906Y-71993350D01*
X146287913Y-71993354D01*
X146422620Y-72043596D01*
X146422627Y-72043598D01*
X146482155Y-72049999D01*
X146482172Y-72050000D01*
X147330000Y-72050000D01*
X147330000Y-70990747D01*
X147367708Y-71012518D01*
X147507591Y-71050000D01*
X147652409Y-71050000D01*
X147792292Y-71012518D01*
X147830000Y-70990747D01*
X147830000Y-72050000D01*
X148677828Y-72050000D01*
X148677844Y-72049999D01*
X148737372Y-72043598D01*
X148737379Y-72043596D01*
X148872086Y-71993354D01*
X148872093Y-71993350D01*
X148987187Y-71907190D01*
X148987190Y-71907187D01*
X149073350Y-71792093D01*
X149073354Y-71792086D01*
X149123596Y-71657379D01*
X149123598Y-71657372D01*
X149129999Y-71597844D01*
X149130000Y-71597827D01*
X149130000Y-70750000D01*
X148070748Y-70750000D01*
X148092518Y-70712292D01*
X148130000Y-70572409D01*
X148130000Y-70500000D01*
X151244723Y-70500000D01*
X151258418Y-70656544D01*
X151263793Y-70717975D01*
X151263793Y-70717979D01*
X151320422Y-70929322D01*
X151320424Y-70929326D01*
X151320425Y-70929330D01*
X151325452Y-70940110D01*
X151412897Y-71127638D01*
X151412898Y-71127639D01*
X151538402Y-71306877D01*
X151693123Y-71461598D01*
X151872361Y-71587102D01*
X152070670Y-71679575D01*
X152282023Y-71736207D01*
X152464926Y-71752208D01*
X152499998Y-71755277D01*
X152500000Y-71755277D01*
X152500002Y-71755277D01*
X152528254Y-71752805D01*
X152717977Y-71736207D01*
X152929330Y-71679575D01*
X153127639Y-71587102D01*
X153294879Y-71469998D01*
X153361082Y-71447673D01*
X153428850Y-71464683D01*
X153476663Y-71515631D01*
X153490000Y-71571575D01*
X153490000Y-71597844D01*
X153496401Y-71657372D01*
X153496403Y-71657379D01*
X153546645Y-71792086D01*
X153546649Y-71792093D01*
X153632809Y-71907187D01*
X153632812Y-71907190D01*
X153747906Y-71993350D01*
X153747913Y-71993354D01*
X153882620Y-72043596D01*
X153882627Y-72043598D01*
X153942155Y-72049999D01*
X153942172Y-72050000D01*
X154790000Y-72050000D01*
X154790000Y-70990747D01*
X154827708Y-71012518D01*
X154967591Y-71050000D01*
X155112409Y-71050000D01*
X155252292Y-71012518D01*
X155290000Y-70990747D01*
X155290000Y-72050000D01*
X156137828Y-72050000D01*
X156137844Y-72049999D01*
X156197372Y-72043598D01*
X156197379Y-72043596D01*
X156332086Y-71993354D01*
X156332093Y-71993350D01*
X156447187Y-71907190D01*
X156447190Y-71907187D01*
X156533350Y-71792093D01*
X156533354Y-71792086D01*
X156583596Y-71657379D01*
X156583598Y-71657372D01*
X156589999Y-71597844D01*
X156590000Y-71597827D01*
X156590000Y-70750000D01*
X155530748Y-70750000D01*
X155552518Y-70712292D01*
X155590000Y-70572409D01*
X155590000Y-70427591D01*
X155552518Y-70287708D01*
X155530748Y-70250000D01*
X156590000Y-70250000D01*
X156590000Y-69402172D01*
X156589999Y-69402155D01*
X156583598Y-69342627D01*
X156583596Y-69342620D01*
X156533354Y-69207913D01*
X156533350Y-69207906D01*
X156447190Y-69092812D01*
X156447187Y-69092809D01*
X156332093Y-69006649D01*
X156332086Y-69006645D01*
X156197379Y-68956403D01*
X156197372Y-68956401D01*
X156137844Y-68950000D01*
X155290000Y-68950000D01*
X155290000Y-70009252D01*
X155252292Y-69987482D01*
X155112409Y-69950000D01*
X154967591Y-69950000D01*
X154827708Y-69987482D01*
X154790000Y-70009252D01*
X154790000Y-68950000D01*
X153942155Y-68950000D01*
X153882627Y-68956401D01*
X153882620Y-68956403D01*
X153747913Y-69006645D01*
X153747906Y-69006649D01*
X153632812Y-69092809D01*
X153632809Y-69092812D01*
X153546649Y-69207906D01*
X153546645Y-69207913D01*
X153496403Y-69342620D01*
X153496401Y-69342627D01*
X153490000Y-69402155D01*
X153490000Y-69428424D01*
X153470315Y-69495463D01*
X153417511Y-69541218D01*
X153348353Y-69551162D01*
X153294877Y-69529999D01*
X153127643Y-69412900D01*
X153127639Y-69412898D01*
X153104637Y-69402172D01*
X152929330Y-69320425D01*
X152929326Y-69320424D01*
X152929322Y-69320422D01*
X152717977Y-69263793D01*
X152500002Y-69244723D01*
X152499998Y-69244723D01*
X152354682Y-69257436D01*
X152282023Y-69263793D01*
X152282020Y-69263793D01*
X152070677Y-69320422D01*
X152070670Y-69320424D01*
X152070670Y-69320425D01*
X152060241Y-69325288D01*
X151872361Y-69412898D01*
X151872357Y-69412900D01*
X151693121Y-69538402D01*
X151538402Y-69693121D01*
X151412900Y-69872357D01*
X151412898Y-69872361D01*
X151320426Y-70070668D01*
X151320422Y-70070677D01*
X151263793Y-70282020D01*
X151263793Y-70282023D01*
X151244723Y-70500000D01*
X148130000Y-70500000D01*
X148130000Y-70427591D01*
X148092518Y-70287708D01*
X148070748Y-70250000D01*
X149130000Y-70250000D01*
X149130000Y-69402172D01*
X149129999Y-69402155D01*
X149123598Y-69342627D01*
X149123596Y-69342620D01*
X149073354Y-69207913D01*
X149073350Y-69207906D01*
X148987190Y-69092812D01*
X148987187Y-69092809D01*
X148872093Y-69006649D01*
X148872086Y-69006645D01*
X148737379Y-68956403D01*
X148737372Y-68956401D01*
X148677844Y-68950000D01*
X147830000Y-68950000D01*
X147830000Y-70009252D01*
X147792292Y-69987482D01*
X147652409Y-69950000D01*
X147507591Y-69950000D01*
X147367708Y-69987482D01*
X147330000Y-70009252D01*
X147330000Y-68950000D01*
X146482155Y-68950000D01*
X146422627Y-68956401D01*
X146422620Y-68956403D01*
X146287913Y-69006645D01*
X146287906Y-69006649D01*
X146172812Y-69092809D01*
X146172809Y-69092812D01*
X146086649Y-69207906D01*
X146086645Y-69207913D01*
X146036403Y-69342620D01*
X146036401Y-69342627D01*
X146030000Y-69402155D01*
X146030000Y-69428424D01*
X146010315Y-69495463D01*
X145957511Y-69541218D01*
X145888353Y-69551162D01*
X145834877Y-69529999D01*
X145667643Y-69412900D01*
X145667639Y-69412898D01*
X145644637Y-69402172D01*
X145469330Y-69320425D01*
X145469326Y-69320424D01*
X145469322Y-69320422D01*
X145257977Y-69263793D01*
X145040002Y-69244723D01*
X145039998Y-69244723D01*
X144894682Y-69257436D01*
X144822023Y-69263793D01*
X144822020Y-69263793D01*
X144610677Y-69320422D01*
X144610670Y-69320424D01*
X144610670Y-69320425D01*
X144600241Y-69325288D01*
X144412361Y-69412898D01*
X144412357Y-69412900D01*
X144233121Y-69538402D01*
X144078402Y-69693121D01*
X143952900Y-69872357D01*
X143952898Y-69872361D01*
X143860426Y-70070668D01*
X143860422Y-70070677D01*
X143803793Y-70282020D01*
X143803793Y-70282023D01*
X143784723Y-70500000D01*
X131915682Y-70500000D01*
X132428200Y-69987482D01*
X133010470Y-69405212D01*
X133056614Y-69325288D01*
X133080500Y-69236144D01*
X133080500Y-69143856D01*
X133080500Y-68940596D01*
X164410350Y-68940596D01*
X164410350Y-69176791D01*
X164447296Y-69410062D01*
X164520283Y-69634690D01*
X164627507Y-69845127D01*
X164766333Y-70036204D01*
X164933340Y-70203211D01*
X165124417Y-70342037D01*
X165223841Y-70392696D01*
X165334853Y-70449260D01*
X165334855Y-70449260D01*
X165334858Y-70449262D01*
X165455262Y-70488383D01*
X165559481Y-70522247D01*
X165792753Y-70559194D01*
X165792758Y-70559194D01*
X166028947Y-70559194D01*
X166262218Y-70522247D01*
X166486842Y-70449262D01*
X166697283Y-70342037D01*
X166888360Y-70203211D01*
X167055367Y-70036204D01*
X167194193Y-69845127D01*
X167301418Y-69634686D01*
X167374403Y-69410062D01*
X167385085Y-69342620D01*
X167411350Y-69176791D01*
X167411350Y-68940596D01*
X167374403Y-68707325D01*
X167301416Y-68482697D01*
X167194192Y-68272260D01*
X167055367Y-68081184D01*
X166888360Y-67914177D01*
X166697283Y-67775351D01*
X166486846Y-67668127D01*
X166262218Y-67595140D01*
X166028947Y-67558194D01*
X166028942Y-67558194D01*
X165792758Y-67558194D01*
X165792753Y-67558194D01*
X165559481Y-67595140D01*
X165334853Y-67668127D01*
X165124416Y-67775351D01*
X165015400Y-67854556D01*
X164933340Y-67914177D01*
X164933338Y-67914179D01*
X164933337Y-67914179D01*
X164766335Y-68081181D01*
X164766335Y-68081182D01*
X164766333Y-68081184D01*
X164706712Y-68163244D01*
X164627507Y-68272260D01*
X164520283Y-68482697D01*
X164447296Y-68707325D01*
X164410350Y-68940596D01*
X133080500Y-68940596D01*
X133080500Y-68442235D01*
X133100185Y-68375196D01*
X133110782Y-68361037D01*
X133155377Y-68309573D01*
X133215165Y-68178657D01*
X133235647Y-68036200D01*
X133215165Y-67893743D01*
X133155377Y-67762827D01*
X133061128Y-67654057D01*
X132940053Y-67576247D01*
X132940051Y-67576246D01*
X132940049Y-67576245D01*
X132940050Y-67576245D01*
X132801963Y-67535700D01*
X132801961Y-67535700D01*
X132658039Y-67535700D01*
X132658036Y-67535700D01*
X132519949Y-67576245D01*
X132398873Y-67654056D01*
X132304623Y-67762826D01*
X132304622Y-67762828D01*
X132244834Y-67893743D01*
X132224353Y-68036200D01*
X132244834Y-68178656D01*
X132287583Y-68272261D01*
X132304623Y-68309573D01*
X132349213Y-68361033D01*
X132378238Y-68424588D01*
X132379500Y-68442235D01*
X132379500Y-68993456D01*
X132359815Y-69060495D01*
X132343181Y-69081137D01*
X131311137Y-70113181D01*
X131249814Y-70146666D01*
X131223456Y-70149500D01*
X127437000Y-70149500D01*
X127369961Y-70129815D01*
X127324206Y-70077011D01*
X127313000Y-70025500D01*
X127313000Y-68906035D01*
X127332685Y-68838996D01*
X127343282Y-68824837D01*
X127387877Y-68773373D01*
X127447665Y-68642457D01*
X127468147Y-68500000D01*
X127447665Y-68357543D01*
X127387877Y-68226627D01*
X127293628Y-68117857D01*
X127172553Y-68040047D01*
X127172551Y-68040046D01*
X127172549Y-68040045D01*
X127172550Y-68040045D01*
X127034463Y-67999500D01*
X127034461Y-67999500D01*
X126890539Y-67999500D01*
X126890536Y-67999500D01*
X126752449Y-68040045D01*
X126631373Y-68117856D01*
X126537123Y-68226626D01*
X126537122Y-68226628D01*
X126477334Y-68357543D01*
X126456853Y-68500000D01*
X110307038Y-68500000D01*
X110301416Y-68482697D01*
X110194192Y-68272260D01*
X110055367Y-68081184D01*
X109888360Y-67914177D01*
X109697283Y-67775351D01*
X109486846Y-67668127D01*
X109262218Y-67595140D01*
X109028947Y-67558194D01*
X109028942Y-67558194D01*
X108792758Y-67558194D01*
X108792753Y-67558194D01*
X108559481Y-67595140D01*
X108334853Y-67668127D01*
X108124416Y-67775351D01*
X108015400Y-67854556D01*
X107933340Y-67914177D01*
X107933338Y-67914179D01*
X107933337Y-67914179D01*
X107766335Y-68081181D01*
X107766335Y-68081182D01*
X107766333Y-68081184D01*
X107706712Y-68163244D01*
X107627507Y-68272260D01*
X107520283Y-68482697D01*
X107447296Y-68707325D01*
X107410350Y-68940596D01*
X105411349Y-68940596D01*
X105411349Y-68062443D01*
X105411575Y-68054956D01*
X105429121Y-67764902D01*
X105430926Y-67750037D01*
X105445937Y-67668126D01*
X105482631Y-67467894D01*
X105486210Y-67453377D01*
X105571548Y-67179522D01*
X105576853Y-67165535D01*
X105694578Y-66903966D01*
X105701531Y-66890719D01*
X105849924Y-66645251D01*
X105858430Y-66632928D01*
X105915379Y-66560239D01*
X106035332Y-66407133D01*
X106045245Y-66395944D01*
X106248075Y-66193118D01*
X106259268Y-66183201D01*
X106485075Y-66006297D01*
X106497396Y-65997794D01*
X106541809Y-65970946D01*
X106742866Y-65849405D01*
X106756097Y-65842461D01*
X107017679Y-65724736D01*
X107031662Y-65719433D01*
X107305529Y-65634097D01*
X107320046Y-65630519D01*
X107602189Y-65578818D01*
X107617039Y-65577015D01*
X107908034Y-65559418D01*
X107915509Y-65559193D01*
X107976733Y-65559194D01*
X107976737Y-65559193D01*
X166907088Y-65559193D01*
X166914577Y-65559419D01*
G37*
G04 #@! TD.AperFunction*
M02*
