%TF.GenerationSoftware,KiCad,Pcbnew,8.0.6*%
%TF.CreationDate,2025-03-20T20:00:16-07:00*%
%TF.ProjectId,Cymatics,43796d61-7469-4637-932e-6b696361645f,rev?*%
%TF.SameCoordinates,Original*%
%TF.FileFunction,Drillmap*%
%TF.FilePolarity,Positive*%
%FSLAX45Y45*%
G04 Gerber Fmt 4.5, Leading zero omitted, Abs format (unit mm)*
G04 Created by KiCad (PCBNEW 8.0.6) date 2025-03-20 20:00:16*
%MOMM*%
%LPD*%
G01*
G04 APERTURE LIST*
%ADD10C,0.050000*%
%ADD11C,0.200000*%
%ADD12C,0.100000*%
%ADD13C,0.110000*%
G04 APERTURE END LIST*
D10*
X8812085Y-12310869D02*
G75*
G02*
X8512081Y-12010869I5J300010D01*
G01*
X15212085Y-12310869D02*
X8812085Y-12310869D01*
X15212085Y-5310869D02*
G75*
G02*
X15512081Y-5610869I-5J-300001D01*
G01*
X8812085Y-5310869D02*
X15212085Y-5310869D01*
X15512085Y-5610869D02*
X15512085Y-12010869D01*
X8512085Y-5610869D02*
G75*
G02*
X8812085Y-5310865I300005J-1D01*
G01*
X8512085Y-5610869D02*
X8512085Y-12010869D01*
X15512085Y-12010869D02*
G75*
G02*
X15212085Y-12310875I-300005J-1D01*
G01*
D11*
D12*
X8810000Y-9585000D02*
X8840000Y-9615000D01*
X8840000Y-9585000D02*
X8810000Y-9615000D01*
X9365000Y-6260000D02*
X9395000Y-6290000D01*
X9395000Y-6260000D02*
X9365000Y-6290000D01*
X9955000Y-8160000D02*
X9985000Y-8190000D01*
X9985000Y-8160000D02*
X9955000Y-8190000D01*
X9955000Y-8460000D02*
X9985000Y-8490000D01*
X9985000Y-8460000D02*
X9955000Y-8490000D01*
X10035000Y-6513750D02*
X10065000Y-6543750D01*
X10065000Y-6513750D02*
X10035000Y-6543750D01*
X10035000Y-7906250D02*
X10065000Y-7936250D01*
X10065000Y-7906250D02*
X10035000Y-7936250D01*
X10056000Y-5540000D02*
X10086000Y-5570000D01*
X10086000Y-5540000D02*
X10056000Y-5570000D01*
X10132197Y-9929727D02*
X10162197Y-9959727D01*
X10162197Y-9929727D02*
X10132197Y-9959727D01*
X10140000Y-9829500D02*
X10170000Y-9859500D01*
X10170000Y-9829500D02*
X10140000Y-9859500D01*
X10185000Y-10435000D02*
X10215000Y-10465000D01*
X10215000Y-10435000D02*
X10185000Y-10465000D01*
X10260000Y-10898750D02*
X10290000Y-10928750D01*
X10290000Y-10898750D02*
X10260000Y-10928750D01*
X10260000Y-11828750D02*
X10290000Y-11858750D01*
X10290000Y-11828750D02*
X10260000Y-11858750D01*
X10270000Y-9585000D02*
X10300000Y-9615000D01*
X10300000Y-9585000D02*
X10270000Y-9615000D01*
X10335000Y-9679962D02*
X10365000Y-9709962D01*
X10365000Y-9679962D02*
X10335000Y-9709962D01*
X10460000Y-10610000D02*
X10490000Y-10640000D01*
X10490000Y-10610000D02*
X10460000Y-10640000D01*
X10600000Y-10615000D02*
X10630000Y-10645000D01*
X10630000Y-10615000D02*
X10600000Y-10645000D01*
X10710000Y-10768750D02*
X10740000Y-10798750D01*
X10740000Y-10768750D02*
X10710000Y-10798750D01*
X10727000Y-6285000D02*
X10757000Y-6315000D01*
X10757000Y-6285000D02*
X10727000Y-6315000D01*
X10727000Y-6737735D02*
X10757000Y-6767735D01*
X10757000Y-6737735D02*
X10727000Y-6767735D01*
X10727000Y-7395076D02*
X10757000Y-7425076D01*
X10757000Y-7395076D02*
X10727000Y-7425076D01*
X10727000Y-8283000D02*
X10757000Y-8313000D01*
X10757000Y-8283000D02*
X10727000Y-8313000D01*
X10749832Y-10617669D02*
X10779832Y-10647669D01*
X10779832Y-10617669D02*
X10749832Y-10647669D01*
X10806000Y-6340000D02*
X10836000Y-6370000D01*
X10836000Y-6340000D02*
X10806000Y-6370000D01*
X10842500Y-10372500D02*
X10872500Y-10402500D01*
X10872500Y-10372500D02*
X10842500Y-10402500D01*
X10890367Y-6574367D02*
X10920367Y-6604367D01*
X10920367Y-6574367D02*
X10890367Y-6604367D01*
X10906147Y-10606147D02*
X10936147Y-10636147D01*
X10936147Y-10606147D02*
X10906147Y-10636147D01*
X10909750Y-5640000D02*
X10939750Y-5670000D01*
X10939750Y-5640000D02*
X10909750Y-5670000D01*
X10930000Y-10768750D02*
X10960000Y-10798750D01*
X10960000Y-10768750D02*
X10930000Y-10798750D01*
X10956000Y-6736250D02*
X10986000Y-6766250D01*
X10986000Y-6736250D02*
X10956000Y-6766250D01*
X10956000Y-7286250D02*
X10986000Y-7316250D01*
X10986000Y-7286250D02*
X10956000Y-7316250D01*
X10956000Y-7989162D02*
X10986000Y-8019162D01*
X10986000Y-7989162D02*
X10956000Y-8019162D01*
X10956000Y-9932500D02*
X10986000Y-9962500D01*
X10986000Y-9932500D02*
X10956000Y-9962500D01*
X10995000Y-10372500D02*
X11025000Y-10402500D01*
X11025000Y-10372500D02*
X10995000Y-10402500D01*
X11061000Y-8694163D02*
X11091000Y-8724163D01*
X11091000Y-8694163D02*
X11061000Y-8724163D01*
X11075000Y-10372500D02*
X11105000Y-10402500D01*
X11105000Y-10372500D02*
X11075000Y-10402500D01*
X11078500Y-6293046D02*
X11108500Y-6323046D01*
X11108500Y-6293046D02*
X11078500Y-6323046D01*
X11202250Y-5640000D02*
X11232250Y-5670000D01*
X11232250Y-5640000D02*
X11202250Y-5670000D01*
X11202250Y-5990000D02*
X11232250Y-6020000D01*
X11232250Y-5990000D02*
X11202250Y-6020000D01*
X11283662Y-8362415D02*
X11313662Y-8392415D01*
X11313662Y-8362415D02*
X11283662Y-8392415D01*
X11289735Y-6173735D02*
X11319735Y-6203735D01*
X11319735Y-6173735D02*
X11289735Y-6203735D01*
X11306000Y-6635000D02*
X11336000Y-6665000D01*
X11336000Y-6635000D02*
X11306000Y-6665000D01*
X11306000Y-9281250D02*
X11336000Y-9311250D01*
X11336000Y-9281250D02*
X11306000Y-9311250D01*
X11318773Y-6052773D02*
X11348773Y-6082773D01*
X11348773Y-6052773D02*
X11318773Y-6082773D01*
X11410662Y-7817585D02*
X11440662Y-7847585D01*
X11440662Y-7817585D02*
X11410662Y-7847585D01*
X11410662Y-8362415D02*
X11440662Y-8392415D01*
X11440662Y-8362415D02*
X11410662Y-8392415D01*
X11411000Y-7412415D02*
X11441000Y-7442415D01*
X11441000Y-7412415D02*
X11411000Y-7442415D01*
X11411000Y-10062415D02*
X11441000Y-10092415D01*
X11441000Y-10062415D02*
X11411000Y-10092415D01*
X11485000Y-10335000D02*
X11515000Y-10365000D01*
X11515000Y-10335000D02*
X11485000Y-10365000D01*
X11485000Y-10530000D02*
X11515000Y-10560000D01*
X11515000Y-10530000D02*
X11485000Y-10560000D01*
X11506000Y-8694163D02*
X11536000Y-8724163D01*
X11536000Y-8694163D02*
X11506000Y-8724163D01*
X11525000Y-5593620D02*
X11555000Y-5623620D01*
X11555000Y-5593620D02*
X11525000Y-5623620D01*
X11652000Y-6086380D02*
X11682000Y-6116380D01*
X11682000Y-6086380D02*
X11652000Y-6116380D01*
X11664662Y-7817585D02*
X11694662Y-7847585D01*
X11694662Y-7817585D02*
X11664662Y-7847585D01*
X11720000Y-10873750D02*
X11750000Y-10903750D01*
X11750000Y-10873750D02*
X11720000Y-10903750D01*
X11779000Y-5593620D02*
X11809000Y-5623620D01*
X11809000Y-5593620D02*
X11779000Y-5623620D01*
X11792500Y-6517585D02*
X11822500Y-6547585D01*
X11822500Y-6517585D02*
X11792500Y-6547585D01*
X11792500Y-7062415D02*
X11822500Y-7092415D01*
X11822500Y-7062415D02*
X11792500Y-7092415D01*
X11792500Y-9167585D02*
X11822500Y-9197585D01*
X11822500Y-9167585D02*
X11792500Y-9197585D01*
X11792500Y-9712415D02*
X11822500Y-9742415D01*
X11822500Y-9712415D02*
X11792500Y-9742415D01*
X11810000Y-11828750D02*
X11840000Y-11858750D01*
X11840000Y-11828750D02*
X11810000Y-11858750D01*
X11856000Y-10062415D02*
X11886000Y-10092415D01*
X11886000Y-10062415D02*
X11856000Y-10092415D01*
X11861000Y-7412415D02*
X11891000Y-7442415D01*
X11891000Y-7412415D02*
X11861000Y-7442415D01*
X12046500Y-6517585D02*
X12076500Y-6547585D01*
X12076500Y-6517585D02*
X12046500Y-6547585D01*
X12046500Y-9167585D02*
X12076500Y-9197585D01*
X12076500Y-9167585D02*
X12046500Y-9197585D01*
X12085000Y-10785000D02*
X12115000Y-10815000D01*
X12115000Y-10785000D02*
X12085000Y-10815000D01*
X12090288Y-10879712D02*
X12120288Y-10909712D01*
X12120288Y-10879712D02*
X12090288Y-10909712D01*
X12656000Y-9940000D02*
X12686000Y-9970000D01*
X12686000Y-9940000D02*
X12656000Y-9970000D01*
X12721000Y-9890000D02*
X12751000Y-9920000D01*
X12751000Y-9890000D02*
X12721000Y-9920000D01*
X12721000Y-9990000D02*
X12751000Y-10020000D01*
X12751000Y-9990000D02*
X12721000Y-10020000D01*
X12756000Y-11040000D02*
X12786000Y-11070000D01*
X12786000Y-11040000D02*
X12756000Y-11070000D01*
X12856000Y-11040000D02*
X12886000Y-11070000D01*
X12886000Y-11040000D02*
X12856000Y-11070000D01*
X12956000Y-9148000D02*
X12986000Y-9178000D01*
X12986000Y-9148000D02*
X12956000Y-9178000D01*
X12956000Y-11040000D02*
X12986000Y-11070000D01*
X12986000Y-11040000D02*
X12956000Y-11070000D01*
X13006000Y-6545000D02*
X13036000Y-6575000D01*
X13036000Y-6545000D02*
X13006000Y-6575000D01*
X13006000Y-8095000D02*
X13036000Y-8125000D01*
X13036000Y-8095000D02*
X13006000Y-8125000D01*
X13006000Y-9590000D02*
X13036000Y-9620000D01*
X13036000Y-9590000D02*
X13006000Y-9620000D01*
X13006000Y-9940000D02*
X13036000Y-9970000D01*
X13036000Y-9940000D02*
X13006000Y-9970000D01*
X13405870Y-8534500D02*
X13435870Y-8564500D01*
X13435870Y-8534500D02*
X13405870Y-8564500D01*
X13406000Y-8990000D02*
X13436000Y-9020000D01*
X13436000Y-8990000D02*
X13406000Y-9020000D01*
X13409620Y-6980500D02*
X13439620Y-7010500D01*
X13439620Y-6980500D02*
X13409620Y-7010500D01*
X13409620Y-7436380D02*
X13439620Y-7466380D01*
X13439620Y-7436380D02*
X13409620Y-7466380D01*
X13552250Y-6494000D02*
X13582250Y-6524000D01*
X13582250Y-6494000D02*
X13552250Y-6524000D01*
X13552250Y-8048000D02*
X13582250Y-8078000D01*
X13582250Y-8048000D02*
X13552250Y-8078000D01*
X13571000Y-9597240D02*
X13601000Y-9627240D01*
X13601000Y-9597240D02*
X13571000Y-9627240D01*
X13571000Y-10090000D02*
X13601000Y-10120000D01*
X13601000Y-10090000D02*
X13571000Y-10120000D01*
X13698000Y-10090000D02*
X13728000Y-10120000D01*
X13728000Y-10090000D02*
X13698000Y-10120000D01*
X13759750Y-6494000D02*
X13789750Y-6524000D01*
X13789750Y-6494000D02*
X13759750Y-6524000D01*
X13759750Y-8048000D02*
X13789750Y-8078000D01*
X13789750Y-8048000D02*
X13759750Y-8078000D01*
X13825000Y-10090000D02*
X13855000Y-10120000D01*
X13855000Y-10090000D02*
X13825000Y-10120000D01*
X13898630Y-8407500D02*
X13928630Y-8437500D01*
X13928630Y-8407500D02*
X13898630Y-8437500D01*
X13902380Y-6853500D02*
X13932380Y-6883500D01*
X13932380Y-6853500D02*
X13902380Y-6883500D01*
X13952000Y-9597240D02*
X13982000Y-9627240D01*
X13982000Y-9597240D02*
X13952000Y-9627240D01*
X13952000Y-10090000D02*
X13982000Y-10120000D01*
X13982000Y-10090000D02*
X13952000Y-10120000D01*
X14079000Y-10090000D02*
X14109000Y-10120000D01*
X14109000Y-10090000D02*
X14079000Y-10120000D01*
X14152000Y-7036000D02*
X14182000Y-7066000D01*
X14182000Y-7036000D02*
X14152000Y-7066000D01*
X14206000Y-10090000D02*
X14236000Y-10120000D01*
X14236000Y-10090000D02*
X14206000Y-10120000D01*
X14247250Y-9148000D02*
X14277250Y-9178000D01*
X14277250Y-9148000D02*
X14247250Y-9178000D01*
X14260489Y-7593415D02*
X14290489Y-7623415D01*
X14290489Y-7593415D02*
X14260489Y-7623415D01*
X14285950Y-10698450D02*
X14315950Y-10728450D01*
X14315950Y-10698450D02*
X14285950Y-10728450D01*
X14333000Y-9597240D02*
X14363000Y-9627240D01*
X14363000Y-9597240D02*
X14333000Y-9627240D01*
X14346164Y-10645777D02*
X14376164Y-10675777D01*
X14376164Y-10645777D02*
X14346164Y-10675777D01*
X14456000Y-5540000D02*
X14486000Y-5570000D01*
X14486000Y-5540000D02*
X14456000Y-5570000D01*
X14456000Y-6490000D02*
X14486000Y-6520000D01*
X14486000Y-6490000D02*
X14456000Y-6520000D01*
X14456000Y-8494000D02*
X14486000Y-8524000D01*
X14486000Y-8494000D02*
X14456000Y-8524000D01*
X14457145Y-10538855D02*
X14487145Y-10568855D01*
X14487145Y-10538855D02*
X14457145Y-10568855D01*
X14556000Y-10440000D02*
X14586000Y-10470000D01*
X14586000Y-10440000D02*
X14556000Y-10470000D01*
X14606000Y-6744000D02*
X14636000Y-6774000D01*
X14636000Y-6744000D02*
X14606000Y-6774000D01*
X13911000Y-10555000D02*
G75*
G02*
X13831000Y-10555000I-40000J0D01*
G01*
X13831000Y-10555000D02*
G75*
G02*
X13911000Y-10555000I40000J0D01*
G01*
X13911000Y-11055000D02*
G75*
G02*
X13831000Y-11055000I-40000J0D01*
G01*
X13831000Y-11055000D02*
G75*
G02*
X13911000Y-11055000I40000J0D01*
G01*
X10471000Y-6199000D02*
X10471000Y-6299000D01*
X10421000Y-6249000D02*
X10521000Y-6249000D01*
X10471000Y-6453000D02*
X10471000Y-6553000D01*
X10421000Y-6503000D02*
X10521000Y-6503000D01*
X10471000Y-6707000D02*
X10471000Y-6807000D01*
X10421000Y-6757000D02*
X10521000Y-6757000D01*
X10471000Y-6961000D02*
X10471000Y-7061000D01*
X10421000Y-7011000D02*
X10521000Y-7011000D01*
X10471000Y-7215000D02*
X10471000Y-7315000D01*
X10421000Y-7265000D02*
X10521000Y-7265000D01*
X10471000Y-7469000D02*
X10471000Y-7569000D01*
X10421000Y-7519000D02*
X10521000Y-7519000D01*
X10471000Y-7723000D02*
X10471000Y-7823000D01*
X10421000Y-7773000D02*
X10521000Y-7773000D01*
X10471000Y-7977000D02*
X10471000Y-8077000D01*
X10421000Y-8027000D02*
X10521000Y-8027000D01*
X10471000Y-8231000D02*
X10471000Y-8331000D01*
X10421000Y-8281000D02*
X10521000Y-8281000D01*
X10471000Y-8485000D02*
X10471000Y-8585000D01*
X10421000Y-8535000D02*
X10521000Y-8535000D01*
X10471000Y-8739000D02*
X10471000Y-8839000D01*
X10421000Y-8789000D02*
X10521000Y-8789000D01*
X10471000Y-8993000D02*
X10471000Y-9093000D01*
X10421000Y-9043000D02*
X10521000Y-9043000D01*
X10471000Y-9247000D02*
X10471000Y-9347000D01*
X10421000Y-9297000D02*
X10521000Y-9297000D01*
X10471000Y-9501000D02*
X10471000Y-9601000D01*
X10421000Y-9551000D02*
X10521000Y-9551000D01*
X10471000Y-9755000D02*
X10471000Y-9855000D01*
X10421000Y-9805000D02*
X10521000Y-9805000D01*
X10471000Y-10009000D02*
X10471000Y-10109000D01*
X10421000Y-10059000D02*
X10521000Y-10059000D01*
X12503600Y-7215000D02*
X12503600Y-7315000D01*
X12453600Y-7265000D02*
X12553600Y-7265000D01*
X12503600Y-7469000D02*
X12503600Y-7569000D01*
X12453600Y-7519000D02*
X12553600Y-7519000D01*
X12503600Y-7723000D02*
X12503600Y-7823000D01*
X12453600Y-7773000D02*
X12553600Y-7773000D01*
X12503600Y-7977000D02*
X12503600Y-8077000D01*
X12453600Y-8027000D02*
X12553600Y-8027000D01*
X12503600Y-8231000D02*
X12503600Y-8331000D01*
X12453600Y-8281000D02*
X12553600Y-8281000D01*
X12503600Y-8485000D02*
X12503600Y-8585000D01*
X12453600Y-8535000D02*
X12553600Y-8535000D01*
X12503600Y-8739000D02*
X12503600Y-8839000D01*
X12453600Y-8789000D02*
X12553600Y-8789000D01*
X12503600Y-8993000D02*
X12503600Y-9093000D01*
X12453600Y-9043000D02*
X12553600Y-9043000D01*
X12503600Y-9247000D02*
X12503600Y-9347000D01*
X12453600Y-9297000D02*
X12553600Y-9297000D01*
X12503600Y-9501000D02*
X12503600Y-9601000D01*
X12453600Y-9551000D02*
X12553600Y-9551000D01*
X12503600Y-9755000D02*
X12503600Y-9855000D01*
X12453600Y-9805000D02*
X12553600Y-9805000D01*
X12503600Y-10009000D02*
X12503600Y-10109000D01*
X12453600Y-10059000D02*
X12553600Y-10059000D01*
D13*
X9113891Y-6711891D02*
X9113891Y-6634109D01*
X9036109Y-6634109D01*
X9036109Y-6711891D01*
X9113891Y-6711891D01*
X9113891Y-6965891D02*
X9113891Y-6888109D01*
X9036109Y-6888109D01*
X9036109Y-6965891D01*
X9113891Y-6965891D01*
X9113891Y-7461891D02*
X9113891Y-7384109D01*
X9036109Y-7384109D01*
X9036109Y-7461891D01*
X9113891Y-7461891D01*
X9113891Y-7715891D02*
X9113891Y-7638109D01*
X9036109Y-7638109D01*
X9036109Y-7715891D01*
X9113891Y-7715891D01*
X9113891Y-8188891D02*
X9113891Y-8111109D01*
X9036109Y-8111109D01*
X9036109Y-8188891D01*
X9113891Y-8188891D01*
X9113891Y-8442891D02*
X9113891Y-8365109D01*
X9036109Y-8365109D01*
X9036109Y-8442891D01*
X9113891Y-8442891D01*
X9113891Y-8884891D02*
X9113891Y-8807109D01*
X9036109Y-8807109D01*
X9036109Y-8884891D01*
X9113891Y-8884891D01*
X9113891Y-9138891D02*
X9113891Y-9061109D01*
X9036109Y-9061109D01*
X9036109Y-9138891D01*
X9113891Y-9138891D01*
X9113891Y-9392891D02*
X9113891Y-9315109D01*
X9036109Y-9315109D01*
X9036109Y-9392891D01*
X9113891Y-9392891D01*
X9113891Y-9646891D02*
X9113891Y-9569109D01*
X9036109Y-9569109D01*
X9036109Y-9646891D01*
X9113891Y-9646891D01*
X9113891Y-10088891D02*
X9113891Y-10011109D01*
X9036109Y-10011109D01*
X9036109Y-10088891D01*
X9113891Y-10088891D01*
X9113891Y-10342891D02*
X9113891Y-10265109D01*
X9036109Y-10265109D01*
X9036109Y-10342891D01*
X9113891Y-10342891D01*
X9113891Y-10596891D02*
X9113891Y-10519109D01*
X9036109Y-10519109D01*
X9036109Y-10596891D01*
X9113891Y-10596891D01*
X9113891Y-10850891D02*
X9113891Y-10773109D01*
X9036109Y-10773109D01*
X9036109Y-10850891D01*
X9113891Y-10850891D01*
X9113891Y-11104891D02*
X9113891Y-11027109D01*
X9036109Y-11027109D01*
X9036109Y-11104891D01*
X9113891Y-11104891D01*
X9113891Y-11358891D02*
X9113891Y-11281109D01*
X9036109Y-11281109D01*
X9036109Y-11358891D01*
X9113891Y-11358891D01*
X12351891Y-11793891D02*
X12351891Y-11716109D01*
X12274109Y-11716109D01*
X12274109Y-11793891D01*
X12351891Y-11793891D01*
X12605891Y-11793891D02*
X12605891Y-11716109D01*
X12528109Y-11716109D01*
X12528109Y-11793891D01*
X12605891Y-11793891D01*
X12859891Y-11793891D02*
X12859891Y-11716109D01*
X12782109Y-11716109D01*
X12782109Y-11793891D01*
X12859891Y-11793891D01*
X13063891Y-5893891D02*
X13063891Y-5816109D01*
X12986109Y-5816109D01*
X12986109Y-5893891D01*
X13063891Y-5893891D01*
X13317891Y-5893891D02*
X13317891Y-5816109D01*
X13240109Y-5816109D01*
X13240109Y-5893891D01*
X13317891Y-5893891D01*
X13343891Y-11793891D02*
X13343891Y-11716109D01*
X13266109Y-11716109D01*
X13266109Y-11793891D01*
X13343891Y-11793891D01*
X13597891Y-11793891D02*
X13597891Y-11716109D01*
X13520109Y-11716109D01*
X13520109Y-11793891D01*
X13597891Y-11793891D01*
X13809891Y-5893891D02*
X13809891Y-5816109D01*
X13732109Y-5816109D01*
X13732109Y-5893891D01*
X13809891Y-5893891D01*
X13851891Y-11793891D02*
X13851891Y-11716109D01*
X13774109Y-11716109D01*
X13774109Y-11793891D01*
X13851891Y-11793891D01*
X14063891Y-5893891D02*
X14063891Y-5816109D01*
X13986109Y-5816109D01*
X13986109Y-5893891D01*
X14063891Y-5893891D01*
X14105891Y-11793891D02*
X14105891Y-11716109D01*
X14028109Y-11716109D01*
X14028109Y-11793891D01*
X14105891Y-11793891D01*
X14359891Y-11793891D02*
X14359891Y-11716109D01*
X14282109Y-11716109D01*
X14282109Y-11793891D01*
X14359891Y-11793891D01*
X15009891Y-6289891D02*
X15009891Y-6212109D01*
X14932109Y-6212109D01*
X14932109Y-6289891D01*
X15009891Y-6289891D01*
X15009891Y-6543891D02*
X15009891Y-6466109D01*
X14932109Y-6466109D01*
X14932109Y-6543891D01*
X15009891Y-6543891D01*
X15009891Y-6797891D02*
X15009891Y-6720109D01*
X14932109Y-6720109D01*
X14932109Y-6797891D01*
X15009891Y-6797891D01*
X15009891Y-7293891D02*
X15009891Y-7216109D01*
X14932109Y-7216109D01*
X14932109Y-7293891D01*
X15009891Y-7293891D01*
X15009891Y-7547891D02*
X15009891Y-7470109D01*
X14932109Y-7470109D01*
X14932109Y-7547891D01*
X15009891Y-7547891D01*
X15009891Y-7801891D02*
X15009891Y-7724109D01*
X14932109Y-7724109D01*
X14932109Y-7801891D01*
X15009891Y-7801891D01*
X15009891Y-8293891D02*
X15009891Y-8216109D01*
X14932109Y-8216109D01*
X14932109Y-8293891D01*
X15009891Y-8293891D01*
X15009891Y-8547891D02*
X15009891Y-8470109D01*
X14932109Y-8470109D01*
X14932109Y-8547891D01*
X15009891Y-8547891D01*
X15009891Y-8801891D02*
X15009891Y-8724109D01*
X14932109Y-8724109D01*
X14932109Y-8801891D01*
X15009891Y-8801891D01*
X15009891Y-9281891D02*
X15009891Y-9204109D01*
X14932109Y-9204109D01*
X14932109Y-9281891D01*
X15009891Y-9281891D01*
X15009891Y-9535891D02*
X15009891Y-9458109D01*
X14932109Y-9458109D01*
X14932109Y-9535891D01*
X15009891Y-9535891D01*
X15009891Y-9789891D02*
X15009891Y-9712109D01*
X14932109Y-9712109D01*
X14932109Y-9789891D01*
X15009891Y-9789891D01*
X15009891Y-10043891D02*
X15009891Y-9966109D01*
X14932109Y-9966109D01*
X14932109Y-10043891D01*
X15009891Y-10043891D01*
X15009891Y-10493891D02*
X15009891Y-10416109D01*
X14932109Y-10416109D01*
X14932109Y-10493891D01*
X15009891Y-10493891D01*
X15009891Y-10747891D02*
X15009891Y-10670109D01*
X14932109Y-10670109D01*
X14932109Y-10747891D01*
X15009891Y-10747891D01*
X15009891Y-11166891D02*
X15009891Y-11089109D01*
X14932109Y-11089109D01*
X14932109Y-11166891D01*
X15009891Y-11166891D01*
X15009891Y-11420891D02*
X15009891Y-11343109D01*
X14932109Y-11343109D01*
X14932109Y-11420891D01*
X15009891Y-11420891D01*
D11*
X8770362Y-12624853D02*
X8770362Y-12424853D01*
X8770362Y-12424853D02*
X8817981Y-12424853D01*
X8817981Y-12424853D02*
X8846552Y-12434377D01*
X8846552Y-12434377D02*
X8865600Y-12453425D01*
X8865600Y-12453425D02*
X8875124Y-12472472D01*
X8875124Y-12472472D02*
X8884648Y-12510567D01*
X8884648Y-12510567D02*
X8884648Y-12539139D01*
X8884648Y-12539139D02*
X8875124Y-12577234D01*
X8875124Y-12577234D02*
X8865600Y-12596282D01*
X8865600Y-12596282D02*
X8846552Y-12615329D01*
X8846552Y-12615329D02*
X8817981Y-12624853D01*
X8817981Y-12624853D02*
X8770362Y-12624853D01*
X8970362Y-12624853D02*
X8970362Y-12491520D01*
X8970362Y-12529615D02*
X8979886Y-12510567D01*
X8979886Y-12510567D02*
X8989410Y-12501044D01*
X8989410Y-12501044D02*
X9008457Y-12491520D01*
X9008457Y-12491520D02*
X9027505Y-12491520D01*
X9094171Y-12624853D02*
X9094171Y-12491520D01*
X9094171Y-12424853D02*
X9084648Y-12434377D01*
X9084648Y-12434377D02*
X9094171Y-12443901D01*
X9094171Y-12443901D02*
X9103695Y-12434377D01*
X9103695Y-12434377D02*
X9094171Y-12424853D01*
X9094171Y-12424853D02*
X9094171Y-12443901D01*
X9217981Y-12624853D02*
X9198933Y-12615329D01*
X9198933Y-12615329D02*
X9189410Y-12596282D01*
X9189410Y-12596282D02*
X9189410Y-12424853D01*
X9322743Y-12624853D02*
X9303695Y-12615329D01*
X9303695Y-12615329D02*
X9294171Y-12596282D01*
X9294171Y-12596282D02*
X9294171Y-12424853D01*
X9551314Y-12624853D02*
X9551314Y-12424853D01*
X9551314Y-12424853D02*
X9617981Y-12567710D01*
X9617981Y-12567710D02*
X9684648Y-12424853D01*
X9684648Y-12424853D02*
X9684648Y-12624853D01*
X9865600Y-12624853D02*
X9865600Y-12520091D01*
X9865600Y-12520091D02*
X9856076Y-12501044D01*
X9856076Y-12501044D02*
X9837029Y-12491520D01*
X9837029Y-12491520D02*
X9798933Y-12491520D01*
X9798933Y-12491520D02*
X9779886Y-12501044D01*
X9865600Y-12615329D02*
X9846552Y-12624853D01*
X9846552Y-12624853D02*
X9798933Y-12624853D01*
X9798933Y-12624853D02*
X9779886Y-12615329D01*
X9779886Y-12615329D02*
X9770362Y-12596282D01*
X9770362Y-12596282D02*
X9770362Y-12577234D01*
X9770362Y-12577234D02*
X9779886Y-12558187D01*
X9779886Y-12558187D02*
X9798933Y-12548663D01*
X9798933Y-12548663D02*
X9846552Y-12548663D01*
X9846552Y-12548663D02*
X9865600Y-12539139D01*
X9960838Y-12491520D02*
X9960838Y-12691520D01*
X9960838Y-12501044D02*
X9979886Y-12491520D01*
X9979886Y-12491520D02*
X10017981Y-12491520D01*
X10017981Y-12491520D02*
X10037029Y-12501044D01*
X10037029Y-12501044D02*
X10046552Y-12510567D01*
X10046552Y-12510567D02*
X10056076Y-12529615D01*
X10056076Y-12529615D02*
X10056076Y-12586758D01*
X10056076Y-12586758D02*
X10046552Y-12605806D01*
X10046552Y-12605806D02*
X10037029Y-12615329D01*
X10037029Y-12615329D02*
X10017981Y-12624853D01*
X10017981Y-12624853D02*
X9979886Y-12624853D01*
X9979886Y-12624853D02*
X9960838Y-12615329D01*
X10141791Y-12605806D02*
X10151314Y-12615329D01*
X10151314Y-12615329D02*
X10141791Y-12624853D01*
X10141791Y-12624853D02*
X10132267Y-12615329D01*
X10132267Y-12615329D02*
X10141791Y-12605806D01*
X10141791Y-12605806D02*
X10141791Y-12624853D01*
X10141791Y-12501044D02*
X10151314Y-12510567D01*
X10151314Y-12510567D02*
X10141791Y-12520091D01*
X10141791Y-12520091D02*
X10132267Y-12510567D01*
X10132267Y-12510567D02*
X10141791Y-12501044D01*
X10141791Y-12501044D02*
X10141791Y-12520091D01*
D12*
X8479585Y-12938369D02*
X8509585Y-12968369D01*
X8509585Y-12938369D02*
X8479585Y-12968369D01*
D11*
X8808457Y-12844853D02*
X8827505Y-12844853D01*
X8827505Y-12844853D02*
X8846552Y-12854377D01*
X8846552Y-12854377D02*
X8856076Y-12863901D01*
X8856076Y-12863901D02*
X8865600Y-12882948D01*
X8865600Y-12882948D02*
X8875124Y-12921044D01*
X8875124Y-12921044D02*
X8875124Y-12968663D01*
X8875124Y-12968663D02*
X8865600Y-13006758D01*
X8865600Y-13006758D02*
X8856076Y-13025806D01*
X8856076Y-13025806D02*
X8846552Y-13035329D01*
X8846552Y-13035329D02*
X8827505Y-13044853D01*
X8827505Y-13044853D02*
X8808457Y-13044853D01*
X8808457Y-13044853D02*
X8789410Y-13035329D01*
X8789410Y-13035329D02*
X8779886Y-13025806D01*
X8779886Y-13025806D02*
X8770362Y-13006758D01*
X8770362Y-13006758D02*
X8760838Y-12968663D01*
X8760838Y-12968663D02*
X8760838Y-12921044D01*
X8760838Y-12921044D02*
X8770362Y-12882948D01*
X8770362Y-12882948D02*
X8779886Y-12863901D01*
X8779886Y-12863901D02*
X8789410Y-12854377D01*
X8789410Y-12854377D02*
X8808457Y-12844853D01*
X8960838Y-13025806D02*
X8970362Y-13035329D01*
X8970362Y-13035329D02*
X8960838Y-13044853D01*
X8960838Y-13044853D02*
X8951314Y-13035329D01*
X8951314Y-13035329D02*
X8960838Y-13025806D01*
X8960838Y-13025806D02*
X8960838Y-13044853D01*
X9037029Y-12844853D02*
X9160838Y-12844853D01*
X9160838Y-12844853D02*
X9094171Y-12921044D01*
X9094171Y-12921044D02*
X9122743Y-12921044D01*
X9122743Y-12921044D02*
X9141791Y-12930567D01*
X9141791Y-12930567D02*
X9151314Y-12940091D01*
X9151314Y-12940091D02*
X9160838Y-12959139D01*
X9160838Y-12959139D02*
X9160838Y-13006758D01*
X9160838Y-13006758D02*
X9151314Y-13025806D01*
X9151314Y-13025806D02*
X9141791Y-13035329D01*
X9141791Y-13035329D02*
X9122743Y-13044853D01*
X9122743Y-13044853D02*
X9065600Y-13044853D01*
X9065600Y-13044853D02*
X9046552Y-13035329D01*
X9046552Y-13035329D02*
X9037029Y-13025806D01*
X9284648Y-12844853D02*
X9303695Y-12844853D01*
X9303695Y-12844853D02*
X9322743Y-12854377D01*
X9322743Y-12854377D02*
X9332267Y-12863901D01*
X9332267Y-12863901D02*
X9341791Y-12882948D01*
X9341791Y-12882948D02*
X9351314Y-12921044D01*
X9351314Y-12921044D02*
X9351314Y-12968663D01*
X9351314Y-12968663D02*
X9341791Y-13006758D01*
X9341791Y-13006758D02*
X9332267Y-13025806D01*
X9332267Y-13025806D02*
X9322743Y-13035329D01*
X9322743Y-13035329D02*
X9303695Y-13044853D01*
X9303695Y-13044853D02*
X9284648Y-13044853D01*
X9284648Y-13044853D02*
X9265600Y-13035329D01*
X9265600Y-13035329D02*
X9256076Y-13025806D01*
X9256076Y-13025806D02*
X9246552Y-13006758D01*
X9246552Y-13006758D02*
X9237029Y-12968663D01*
X9237029Y-12968663D02*
X9237029Y-12921044D01*
X9237029Y-12921044D02*
X9246552Y-12882948D01*
X9246552Y-12882948D02*
X9256076Y-12863901D01*
X9256076Y-12863901D02*
X9265600Y-12854377D01*
X9265600Y-12854377D02*
X9284648Y-12844853D01*
X9475124Y-12844853D02*
X9494172Y-12844853D01*
X9494172Y-12844853D02*
X9513219Y-12854377D01*
X9513219Y-12854377D02*
X9522743Y-12863901D01*
X9522743Y-12863901D02*
X9532267Y-12882948D01*
X9532267Y-12882948D02*
X9541791Y-12921044D01*
X9541791Y-12921044D02*
X9541791Y-12968663D01*
X9541791Y-12968663D02*
X9532267Y-13006758D01*
X9532267Y-13006758D02*
X9522743Y-13025806D01*
X9522743Y-13025806D02*
X9513219Y-13035329D01*
X9513219Y-13035329D02*
X9494172Y-13044853D01*
X9494172Y-13044853D02*
X9475124Y-13044853D01*
X9475124Y-13044853D02*
X9456076Y-13035329D01*
X9456076Y-13035329D02*
X9446552Y-13025806D01*
X9446552Y-13025806D02*
X9437029Y-13006758D01*
X9437029Y-13006758D02*
X9427505Y-12968663D01*
X9427505Y-12968663D02*
X9427505Y-12921044D01*
X9427505Y-12921044D02*
X9437029Y-12882948D01*
X9437029Y-12882948D02*
X9446552Y-12863901D01*
X9446552Y-12863901D02*
X9456076Y-12854377D01*
X9456076Y-12854377D02*
X9475124Y-12844853D01*
X9627505Y-13044853D02*
X9627505Y-12911520D01*
X9627505Y-12930567D02*
X9637029Y-12921044D01*
X9637029Y-12921044D02*
X9656076Y-12911520D01*
X9656076Y-12911520D02*
X9684648Y-12911520D01*
X9684648Y-12911520D02*
X9703695Y-12921044D01*
X9703695Y-12921044D02*
X9713219Y-12940091D01*
X9713219Y-12940091D02*
X9713219Y-13044853D01*
X9713219Y-12940091D02*
X9722743Y-12921044D01*
X9722743Y-12921044D02*
X9741791Y-12911520D01*
X9741791Y-12911520D02*
X9770362Y-12911520D01*
X9770362Y-12911520D02*
X9789410Y-12921044D01*
X9789410Y-12921044D02*
X9798933Y-12940091D01*
X9798933Y-12940091D02*
X9798933Y-13044853D01*
X9894172Y-13044853D02*
X9894172Y-12911520D01*
X9894172Y-12930567D02*
X9903695Y-12921044D01*
X9903695Y-12921044D02*
X9922743Y-12911520D01*
X9922743Y-12911520D02*
X9951314Y-12911520D01*
X9951314Y-12911520D02*
X9970362Y-12921044D01*
X9970362Y-12921044D02*
X9979886Y-12940091D01*
X9979886Y-12940091D02*
X9979886Y-13044853D01*
X9979886Y-12940091D02*
X9989410Y-12921044D01*
X9989410Y-12921044D02*
X10008457Y-12911520D01*
X10008457Y-12911520D02*
X10037029Y-12911520D01*
X10037029Y-12911520D02*
X10056076Y-12921044D01*
X10056076Y-12921044D02*
X10065600Y-12940091D01*
X10065600Y-12940091D02*
X10065600Y-13044853D01*
X10456076Y-12835329D02*
X10284648Y-13092472D01*
X10713219Y-12844853D02*
X10732267Y-12844853D01*
X10732267Y-12844853D02*
X10751315Y-12854377D01*
X10751315Y-12854377D02*
X10760838Y-12863901D01*
X10760838Y-12863901D02*
X10770362Y-12882948D01*
X10770362Y-12882948D02*
X10779886Y-12921044D01*
X10779886Y-12921044D02*
X10779886Y-12968663D01*
X10779886Y-12968663D02*
X10770362Y-13006758D01*
X10770362Y-13006758D02*
X10760838Y-13025806D01*
X10760838Y-13025806D02*
X10751315Y-13035329D01*
X10751315Y-13035329D02*
X10732267Y-13044853D01*
X10732267Y-13044853D02*
X10713219Y-13044853D01*
X10713219Y-13044853D02*
X10694172Y-13035329D01*
X10694172Y-13035329D02*
X10684648Y-13025806D01*
X10684648Y-13025806D02*
X10675124Y-13006758D01*
X10675124Y-13006758D02*
X10665600Y-12968663D01*
X10665600Y-12968663D02*
X10665600Y-12921044D01*
X10665600Y-12921044D02*
X10675124Y-12882948D01*
X10675124Y-12882948D02*
X10684648Y-12863901D01*
X10684648Y-12863901D02*
X10694172Y-12854377D01*
X10694172Y-12854377D02*
X10713219Y-12844853D01*
X10865600Y-13025806D02*
X10875124Y-13035329D01*
X10875124Y-13035329D02*
X10865600Y-13044853D01*
X10865600Y-13044853D02*
X10856076Y-13035329D01*
X10856076Y-13035329D02*
X10865600Y-13025806D01*
X10865600Y-13025806D02*
X10865600Y-13044853D01*
X10998934Y-12844853D02*
X11017981Y-12844853D01*
X11017981Y-12844853D02*
X11037029Y-12854377D01*
X11037029Y-12854377D02*
X11046553Y-12863901D01*
X11046553Y-12863901D02*
X11056076Y-12882948D01*
X11056076Y-12882948D02*
X11065600Y-12921044D01*
X11065600Y-12921044D02*
X11065600Y-12968663D01*
X11065600Y-12968663D02*
X11056076Y-13006758D01*
X11056076Y-13006758D02*
X11046553Y-13025806D01*
X11046553Y-13025806D02*
X11037029Y-13035329D01*
X11037029Y-13035329D02*
X11017981Y-13044853D01*
X11017981Y-13044853D02*
X10998934Y-13044853D01*
X10998934Y-13044853D02*
X10979886Y-13035329D01*
X10979886Y-13035329D02*
X10970362Y-13025806D01*
X10970362Y-13025806D02*
X10960838Y-13006758D01*
X10960838Y-13006758D02*
X10951315Y-12968663D01*
X10951315Y-12968663D02*
X10951315Y-12921044D01*
X10951315Y-12921044D02*
X10960838Y-12882948D01*
X10960838Y-12882948D02*
X10970362Y-12863901D01*
X10970362Y-12863901D02*
X10979886Y-12854377D01*
X10979886Y-12854377D02*
X10998934Y-12844853D01*
X11256076Y-13044853D02*
X11141791Y-13044853D01*
X11198933Y-13044853D02*
X11198933Y-12844853D01*
X11198933Y-12844853D02*
X11179886Y-12873425D01*
X11179886Y-12873425D02*
X11160838Y-12892472D01*
X11160838Y-12892472D02*
X11141791Y-12901996D01*
X11446553Y-13044853D02*
X11332267Y-13044853D01*
X11389410Y-13044853D02*
X11389410Y-12844853D01*
X11389410Y-12844853D02*
X11370362Y-12873425D01*
X11370362Y-12873425D02*
X11351314Y-12892472D01*
X11351314Y-12892472D02*
X11332267Y-12901996D01*
X11560838Y-12930567D02*
X11541791Y-12921044D01*
X11541791Y-12921044D02*
X11532267Y-12911520D01*
X11532267Y-12911520D02*
X11522743Y-12892472D01*
X11522743Y-12892472D02*
X11522743Y-12882948D01*
X11522743Y-12882948D02*
X11532267Y-12863901D01*
X11532267Y-12863901D02*
X11541791Y-12854377D01*
X11541791Y-12854377D02*
X11560838Y-12844853D01*
X11560838Y-12844853D02*
X11598934Y-12844853D01*
X11598934Y-12844853D02*
X11617981Y-12854377D01*
X11617981Y-12854377D02*
X11627505Y-12863901D01*
X11627505Y-12863901D02*
X11637029Y-12882948D01*
X11637029Y-12882948D02*
X11637029Y-12892472D01*
X11637029Y-12892472D02*
X11627505Y-12911520D01*
X11627505Y-12911520D02*
X11617981Y-12921044D01*
X11617981Y-12921044D02*
X11598934Y-12930567D01*
X11598934Y-12930567D02*
X11560838Y-12930567D01*
X11560838Y-12930567D02*
X11541791Y-12940091D01*
X11541791Y-12940091D02*
X11532267Y-12949615D01*
X11532267Y-12949615D02*
X11522743Y-12968663D01*
X11522743Y-12968663D02*
X11522743Y-13006758D01*
X11522743Y-13006758D02*
X11532267Y-13025806D01*
X11532267Y-13025806D02*
X11541791Y-13035329D01*
X11541791Y-13035329D02*
X11560838Y-13044853D01*
X11560838Y-13044853D02*
X11598934Y-13044853D01*
X11598934Y-13044853D02*
X11617981Y-13035329D01*
X11617981Y-13035329D02*
X11627505Y-13025806D01*
X11627505Y-13025806D02*
X11637029Y-13006758D01*
X11637029Y-13006758D02*
X11637029Y-12968663D01*
X11637029Y-12968663D02*
X11627505Y-12949615D01*
X11627505Y-12949615D02*
X11617981Y-12940091D01*
X11617981Y-12940091D02*
X11598934Y-12930567D01*
X11713219Y-12844853D02*
X11713219Y-12882948D01*
X11789410Y-12844853D02*
X11789410Y-12882948D01*
X12084648Y-13121044D02*
X12075124Y-13111520D01*
X12075124Y-13111520D02*
X12056076Y-13082948D01*
X12056076Y-13082948D02*
X12046553Y-13063901D01*
X12046553Y-13063901D02*
X12037029Y-13035329D01*
X12037029Y-13035329D02*
X12027505Y-12987710D01*
X12027505Y-12987710D02*
X12027505Y-12949615D01*
X12027505Y-12949615D02*
X12037029Y-12901996D01*
X12037029Y-12901996D02*
X12046553Y-12873425D01*
X12046553Y-12873425D02*
X12056076Y-12854377D01*
X12056076Y-12854377D02*
X12075124Y-12825806D01*
X12075124Y-12825806D02*
X12084648Y-12816282D01*
X12265600Y-13044853D02*
X12151315Y-13044853D01*
X12208457Y-13044853D02*
X12208457Y-12844853D01*
X12208457Y-12844853D02*
X12189410Y-12873425D01*
X12189410Y-12873425D02*
X12170362Y-12892472D01*
X12170362Y-12892472D02*
X12151315Y-12901996D01*
X12389410Y-12844853D02*
X12408457Y-12844853D01*
X12408457Y-12844853D02*
X12427505Y-12854377D01*
X12427505Y-12854377D02*
X12437029Y-12863901D01*
X12437029Y-12863901D02*
X12446553Y-12882948D01*
X12446553Y-12882948D02*
X12456076Y-12921044D01*
X12456076Y-12921044D02*
X12456076Y-12968663D01*
X12456076Y-12968663D02*
X12446553Y-13006758D01*
X12446553Y-13006758D02*
X12437029Y-13025806D01*
X12437029Y-13025806D02*
X12427505Y-13035329D01*
X12427505Y-13035329D02*
X12408457Y-13044853D01*
X12408457Y-13044853D02*
X12389410Y-13044853D01*
X12389410Y-13044853D02*
X12370362Y-13035329D01*
X12370362Y-13035329D02*
X12360838Y-13025806D01*
X12360838Y-13025806D02*
X12351315Y-13006758D01*
X12351315Y-13006758D02*
X12341791Y-12968663D01*
X12341791Y-12968663D02*
X12341791Y-12921044D01*
X12341791Y-12921044D02*
X12351315Y-12882948D01*
X12351315Y-12882948D02*
X12360838Y-12863901D01*
X12360838Y-12863901D02*
X12370362Y-12854377D01*
X12370362Y-12854377D02*
X12389410Y-12844853D01*
X12522743Y-12844853D02*
X12656076Y-12844853D01*
X12656076Y-12844853D02*
X12570362Y-13044853D01*
X12884648Y-13044853D02*
X12884648Y-12844853D01*
X12970362Y-13044853D02*
X12970362Y-12940091D01*
X12970362Y-12940091D02*
X12960838Y-12921044D01*
X12960838Y-12921044D02*
X12941791Y-12911520D01*
X12941791Y-12911520D02*
X12913219Y-12911520D01*
X12913219Y-12911520D02*
X12894172Y-12921044D01*
X12894172Y-12921044D02*
X12884648Y-12930567D01*
X13094172Y-13044853D02*
X13075124Y-13035329D01*
X13075124Y-13035329D02*
X13065600Y-13025806D01*
X13065600Y-13025806D02*
X13056077Y-13006758D01*
X13056077Y-13006758D02*
X13056077Y-12949615D01*
X13056077Y-12949615D02*
X13065600Y-12930567D01*
X13065600Y-12930567D02*
X13075124Y-12921044D01*
X13075124Y-12921044D02*
X13094172Y-12911520D01*
X13094172Y-12911520D02*
X13122743Y-12911520D01*
X13122743Y-12911520D02*
X13141791Y-12921044D01*
X13141791Y-12921044D02*
X13151315Y-12930567D01*
X13151315Y-12930567D02*
X13160838Y-12949615D01*
X13160838Y-12949615D02*
X13160838Y-13006758D01*
X13160838Y-13006758D02*
X13151315Y-13025806D01*
X13151315Y-13025806D02*
X13141791Y-13035329D01*
X13141791Y-13035329D02*
X13122743Y-13044853D01*
X13122743Y-13044853D02*
X13094172Y-13044853D01*
X13275124Y-13044853D02*
X13256077Y-13035329D01*
X13256077Y-13035329D02*
X13246553Y-13016282D01*
X13246553Y-13016282D02*
X13246553Y-12844853D01*
X13427505Y-13035329D02*
X13408458Y-13044853D01*
X13408458Y-13044853D02*
X13370362Y-13044853D01*
X13370362Y-13044853D02*
X13351315Y-13035329D01*
X13351315Y-13035329D02*
X13341791Y-13016282D01*
X13341791Y-13016282D02*
X13341791Y-12940091D01*
X13341791Y-12940091D02*
X13351315Y-12921044D01*
X13351315Y-12921044D02*
X13370362Y-12911520D01*
X13370362Y-12911520D02*
X13408458Y-12911520D01*
X13408458Y-12911520D02*
X13427505Y-12921044D01*
X13427505Y-12921044D02*
X13437029Y-12940091D01*
X13437029Y-12940091D02*
X13437029Y-12959139D01*
X13437029Y-12959139D02*
X13341791Y-12978187D01*
X13513219Y-13035329D02*
X13532267Y-13044853D01*
X13532267Y-13044853D02*
X13570362Y-13044853D01*
X13570362Y-13044853D02*
X13589410Y-13035329D01*
X13589410Y-13035329D02*
X13598934Y-13016282D01*
X13598934Y-13016282D02*
X13598934Y-13006758D01*
X13598934Y-13006758D02*
X13589410Y-12987710D01*
X13589410Y-12987710D02*
X13570362Y-12978187D01*
X13570362Y-12978187D02*
X13541791Y-12978187D01*
X13541791Y-12978187D02*
X13522743Y-12968663D01*
X13522743Y-12968663D02*
X13513219Y-12949615D01*
X13513219Y-12949615D02*
X13513219Y-12940091D01*
X13513219Y-12940091D02*
X13522743Y-12921044D01*
X13522743Y-12921044D02*
X13541791Y-12911520D01*
X13541791Y-12911520D02*
X13570362Y-12911520D01*
X13570362Y-12911520D02*
X13589410Y-12921044D01*
X13665600Y-13121044D02*
X13675124Y-13111520D01*
X13675124Y-13111520D02*
X13694172Y-13082948D01*
X13694172Y-13082948D02*
X13703696Y-13063901D01*
X13703696Y-13063901D02*
X13713219Y-13035329D01*
X13713219Y-13035329D02*
X13722743Y-12987710D01*
X13722743Y-12987710D02*
X13722743Y-12949615D01*
X13722743Y-12949615D02*
X13713219Y-12901996D01*
X13713219Y-12901996D02*
X13703696Y-12873425D01*
X13703696Y-12873425D02*
X13694172Y-12854377D01*
X13694172Y-12854377D02*
X13675124Y-12825806D01*
X13675124Y-12825806D02*
X13665600Y-12816282D01*
D12*
X8509585Y-13217369D02*
G75*
G02*
X8429585Y-13217369I-40000J0D01*
G01*
X8429585Y-13217369D02*
G75*
G02*
X8509585Y-13217369I40000J0D01*
G01*
D11*
X8808457Y-13108853D02*
X8827505Y-13108853D01*
X8827505Y-13108853D02*
X8846552Y-13118377D01*
X8846552Y-13118377D02*
X8856076Y-13127901D01*
X8856076Y-13127901D02*
X8865600Y-13146948D01*
X8865600Y-13146948D02*
X8875124Y-13185044D01*
X8875124Y-13185044D02*
X8875124Y-13232663D01*
X8875124Y-13232663D02*
X8865600Y-13270758D01*
X8865600Y-13270758D02*
X8856076Y-13289806D01*
X8856076Y-13289806D02*
X8846552Y-13299329D01*
X8846552Y-13299329D02*
X8827505Y-13308853D01*
X8827505Y-13308853D02*
X8808457Y-13308853D01*
X8808457Y-13308853D02*
X8789410Y-13299329D01*
X8789410Y-13299329D02*
X8779886Y-13289806D01*
X8779886Y-13289806D02*
X8770362Y-13270758D01*
X8770362Y-13270758D02*
X8760838Y-13232663D01*
X8760838Y-13232663D02*
X8760838Y-13185044D01*
X8760838Y-13185044D02*
X8770362Y-13146948D01*
X8770362Y-13146948D02*
X8779886Y-13127901D01*
X8779886Y-13127901D02*
X8789410Y-13118377D01*
X8789410Y-13118377D02*
X8808457Y-13108853D01*
X8960838Y-13289806D02*
X8970362Y-13299329D01*
X8970362Y-13299329D02*
X8960838Y-13308853D01*
X8960838Y-13308853D02*
X8951314Y-13299329D01*
X8951314Y-13299329D02*
X8960838Y-13289806D01*
X8960838Y-13289806D02*
X8960838Y-13308853D01*
X9084648Y-13194567D02*
X9065600Y-13185044D01*
X9065600Y-13185044D02*
X9056076Y-13175520D01*
X9056076Y-13175520D02*
X9046552Y-13156472D01*
X9046552Y-13156472D02*
X9046552Y-13146948D01*
X9046552Y-13146948D02*
X9056076Y-13127901D01*
X9056076Y-13127901D02*
X9065600Y-13118377D01*
X9065600Y-13118377D02*
X9084648Y-13108853D01*
X9084648Y-13108853D02*
X9122743Y-13108853D01*
X9122743Y-13108853D02*
X9141791Y-13118377D01*
X9141791Y-13118377D02*
X9151314Y-13127901D01*
X9151314Y-13127901D02*
X9160838Y-13146948D01*
X9160838Y-13146948D02*
X9160838Y-13156472D01*
X9160838Y-13156472D02*
X9151314Y-13175520D01*
X9151314Y-13175520D02*
X9141791Y-13185044D01*
X9141791Y-13185044D02*
X9122743Y-13194567D01*
X9122743Y-13194567D02*
X9084648Y-13194567D01*
X9084648Y-13194567D02*
X9065600Y-13204091D01*
X9065600Y-13204091D02*
X9056076Y-13213615D01*
X9056076Y-13213615D02*
X9046552Y-13232663D01*
X9046552Y-13232663D02*
X9046552Y-13270758D01*
X9046552Y-13270758D02*
X9056076Y-13289806D01*
X9056076Y-13289806D02*
X9065600Y-13299329D01*
X9065600Y-13299329D02*
X9084648Y-13308853D01*
X9084648Y-13308853D02*
X9122743Y-13308853D01*
X9122743Y-13308853D02*
X9141791Y-13299329D01*
X9141791Y-13299329D02*
X9151314Y-13289806D01*
X9151314Y-13289806D02*
X9160838Y-13270758D01*
X9160838Y-13270758D02*
X9160838Y-13232663D01*
X9160838Y-13232663D02*
X9151314Y-13213615D01*
X9151314Y-13213615D02*
X9141791Y-13204091D01*
X9141791Y-13204091D02*
X9122743Y-13194567D01*
X9284648Y-13108853D02*
X9303695Y-13108853D01*
X9303695Y-13108853D02*
X9322743Y-13118377D01*
X9322743Y-13118377D02*
X9332267Y-13127901D01*
X9332267Y-13127901D02*
X9341791Y-13146948D01*
X9341791Y-13146948D02*
X9351314Y-13185044D01*
X9351314Y-13185044D02*
X9351314Y-13232663D01*
X9351314Y-13232663D02*
X9341791Y-13270758D01*
X9341791Y-13270758D02*
X9332267Y-13289806D01*
X9332267Y-13289806D02*
X9322743Y-13299329D01*
X9322743Y-13299329D02*
X9303695Y-13308853D01*
X9303695Y-13308853D02*
X9284648Y-13308853D01*
X9284648Y-13308853D02*
X9265600Y-13299329D01*
X9265600Y-13299329D02*
X9256076Y-13289806D01*
X9256076Y-13289806D02*
X9246552Y-13270758D01*
X9246552Y-13270758D02*
X9237029Y-13232663D01*
X9237029Y-13232663D02*
X9237029Y-13185044D01*
X9237029Y-13185044D02*
X9246552Y-13146948D01*
X9246552Y-13146948D02*
X9256076Y-13127901D01*
X9256076Y-13127901D02*
X9265600Y-13118377D01*
X9265600Y-13118377D02*
X9284648Y-13108853D01*
X9475124Y-13108853D02*
X9494172Y-13108853D01*
X9494172Y-13108853D02*
X9513219Y-13118377D01*
X9513219Y-13118377D02*
X9522743Y-13127901D01*
X9522743Y-13127901D02*
X9532267Y-13146948D01*
X9532267Y-13146948D02*
X9541791Y-13185044D01*
X9541791Y-13185044D02*
X9541791Y-13232663D01*
X9541791Y-13232663D02*
X9532267Y-13270758D01*
X9532267Y-13270758D02*
X9522743Y-13289806D01*
X9522743Y-13289806D02*
X9513219Y-13299329D01*
X9513219Y-13299329D02*
X9494172Y-13308853D01*
X9494172Y-13308853D02*
X9475124Y-13308853D01*
X9475124Y-13308853D02*
X9456076Y-13299329D01*
X9456076Y-13299329D02*
X9446552Y-13289806D01*
X9446552Y-13289806D02*
X9437029Y-13270758D01*
X9437029Y-13270758D02*
X9427505Y-13232663D01*
X9427505Y-13232663D02*
X9427505Y-13185044D01*
X9427505Y-13185044D02*
X9437029Y-13146948D01*
X9437029Y-13146948D02*
X9446552Y-13127901D01*
X9446552Y-13127901D02*
X9456076Y-13118377D01*
X9456076Y-13118377D02*
X9475124Y-13108853D01*
X9627505Y-13308853D02*
X9627505Y-13175520D01*
X9627505Y-13194567D02*
X9637029Y-13185044D01*
X9637029Y-13185044D02*
X9656076Y-13175520D01*
X9656076Y-13175520D02*
X9684648Y-13175520D01*
X9684648Y-13175520D02*
X9703695Y-13185044D01*
X9703695Y-13185044D02*
X9713219Y-13204091D01*
X9713219Y-13204091D02*
X9713219Y-13308853D01*
X9713219Y-13204091D02*
X9722743Y-13185044D01*
X9722743Y-13185044D02*
X9741791Y-13175520D01*
X9741791Y-13175520D02*
X9770362Y-13175520D01*
X9770362Y-13175520D02*
X9789410Y-13185044D01*
X9789410Y-13185044D02*
X9798933Y-13204091D01*
X9798933Y-13204091D02*
X9798933Y-13308853D01*
X9894172Y-13308853D02*
X9894172Y-13175520D01*
X9894172Y-13194567D02*
X9903695Y-13185044D01*
X9903695Y-13185044D02*
X9922743Y-13175520D01*
X9922743Y-13175520D02*
X9951314Y-13175520D01*
X9951314Y-13175520D02*
X9970362Y-13185044D01*
X9970362Y-13185044D02*
X9979886Y-13204091D01*
X9979886Y-13204091D02*
X9979886Y-13308853D01*
X9979886Y-13204091D02*
X9989410Y-13185044D01*
X9989410Y-13185044D02*
X10008457Y-13175520D01*
X10008457Y-13175520D02*
X10037029Y-13175520D01*
X10037029Y-13175520D02*
X10056076Y-13185044D01*
X10056076Y-13185044D02*
X10065600Y-13204091D01*
X10065600Y-13204091D02*
X10065600Y-13308853D01*
X10456076Y-13099329D02*
X10284648Y-13356472D01*
X10713219Y-13108853D02*
X10732267Y-13108853D01*
X10732267Y-13108853D02*
X10751315Y-13118377D01*
X10751315Y-13118377D02*
X10760838Y-13127901D01*
X10760838Y-13127901D02*
X10770362Y-13146948D01*
X10770362Y-13146948D02*
X10779886Y-13185044D01*
X10779886Y-13185044D02*
X10779886Y-13232663D01*
X10779886Y-13232663D02*
X10770362Y-13270758D01*
X10770362Y-13270758D02*
X10760838Y-13289806D01*
X10760838Y-13289806D02*
X10751315Y-13299329D01*
X10751315Y-13299329D02*
X10732267Y-13308853D01*
X10732267Y-13308853D02*
X10713219Y-13308853D01*
X10713219Y-13308853D02*
X10694172Y-13299329D01*
X10694172Y-13299329D02*
X10684648Y-13289806D01*
X10684648Y-13289806D02*
X10675124Y-13270758D01*
X10675124Y-13270758D02*
X10665600Y-13232663D01*
X10665600Y-13232663D02*
X10665600Y-13185044D01*
X10665600Y-13185044D02*
X10675124Y-13146948D01*
X10675124Y-13146948D02*
X10684648Y-13127901D01*
X10684648Y-13127901D02*
X10694172Y-13118377D01*
X10694172Y-13118377D02*
X10713219Y-13108853D01*
X10865600Y-13289806D02*
X10875124Y-13299329D01*
X10875124Y-13299329D02*
X10865600Y-13308853D01*
X10865600Y-13308853D02*
X10856076Y-13299329D01*
X10856076Y-13299329D02*
X10865600Y-13289806D01*
X10865600Y-13289806D02*
X10865600Y-13308853D01*
X10998934Y-13108853D02*
X11017981Y-13108853D01*
X11017981Y-13108853D02*
X11037029Y-13118377D01*
X11037029Y-13118377D02*
X11046553Y-13127901D01*
X11046553Y-13127901D02*
X11056076Y-13146948D01*
X11056076Y-13146948D02*
X11065600Y-13185044D01*
X11065600Y-13185044D02*
X11065600Y-13232663D01*
X11065600Y-13232663D02*
X11056076Y-13270758D01*
X11056076Y-13270758D02*
X11046553Y-13289806D01*
X11046553Y-13289806D02*
X11037029Y-13299329D01*
X11037029Y-13299329D02*
X11017981Y-13308853D01*
X11017981Y-13308853D02*
X10998934Y-13308853D01*
X10998934Y-13308853D02*
X10979886Y-13299329D01*
X10979886Y-13299329D02*
X10970362Y-13289806D01*
X10970362Y-13289806D02*
X10960838Y-13270758D01*
X10960838Y-13270758D02*
X10951315Y-13232663D01*
X10951315Y-13232663D02*
X10951315Y-13185044D01*
X10951315Y-13185044D02*
X10960838Y-13146948D01*
X10960838Y-13146948D02*
X10970362Y-13127901D01*
X10970362Y-13127901D02*
X10979886Y-13118377D01*
X10979886Y-13118377D02*
X10998934Y-13108853D01*
X11132267Y-13108853D02*
X11256076Y-13108853D01*
X11256076Y-13108853D02*
X11189410Y-13185044D01*
X11189410Y-13185044D02*
X11217981Y-13185044D01*
X11217981Y-13185044D02*
X11237029Y-13194567D01*
X11237029Y-13194567D02*
X11246553Y-13204091D01*
X11246553Y-13204091D02*
X11256076Y-13223139D01*
X11256076Y-13223139D02*
X11256076Y-13270758D01*
X11256076Y-13270758D02*
X11246553Y-13289806D01*
X11246553Y-13289806D02*
X11237029Y-13299329D01*
X11237029Y-13299329D02*
X11217981Y-13308853D01*
X11217981Y-13308853D02*
X11160838Y-13308853D01*
X11160838Y-13308853D02*
X11141791Y-13299329D01*
X11141791Y-13299329D02*
X11132267Y-13289806D01*
X11446553Y-13308853D02*
X11332267Y-13308853D01*
X11389410Y-13308853D02*
X11389410Y-13108853D01*
X11389410Y-13108853D02*
X11370362Y-13137425D01*
X11370362Y-13137425D02*
X11351314Y-13156472D01*
X11351314Y-13156472D02*
X11332267Y-13165996D01*
X11627505Y-13108853D02*
X11532267Y-13108853D01*
X11532267Y-13108853D02*
X11522743Y-13204091D01*
X11522743Y-13204091D02*
X11532267Y-13194567D01*
X11532267Y-13194567D02*
X11551314Y-13185044D01*
X11551314Y-13185044D02*
X11598934Y-13185044D01*
X11598934Y-13185044D02*
X11617981Y-13194567D01*
X11617981Y-13194567D02*
X11627505Y-13204091D01*
X11627505Y-13204091D02*
X11637029Y-13223139D01*
X11637029Y-13223139D02*
X11637029Y-13270758D01*
X11637029Y-13270758D02*
X11627505Y-13289806D01*
X11627505Y-13289806D02*
X11617981Y-13299329D01*
X11617981Y-13299329D02*
X11598934Y-13308853D01*
X11598934Y-13308853D02*
X11551314Y-13308853D01*
X11551314Y-13308853D02*
X11532267Y-13299329D01*
X11532267Y-13299329D02*
X11522743Y-13289806D01*
X11713219Y-13108853D02*
X11713219Y-13146948D01*
X11789410Y-13108853D02*
X11789410Y-13146948D01*
X12084648Y-13385044D02*
X12075124Y-13375520D01*
X12075124Y-13375520D02*
X12056076Y-13346948D01*
X12056076Y-13346948D02*
X12046553Y-13327901D01*
X12046553Y-13327901D02*
X12037029Y-13299329D01*
X12037029Y-13299329D02*
X12027505Y-13251710D01*
X12027505Y-13251710D02*
X12027505Y-13213615D01*
X12027505Y-13213615D02*
X12037029Y-13165996D01*
X12037029Y-13165996D02*
X12046553Y-13137425D01*
X12046553Y-13137425D02*
X12056076Y-13118377D01*
X12056076Y-13118377D02*
X12075124Y-13089806D01*
X12075124Y-13089806D02*
X12084648Y-13080282D01*
X12151315Y-13127901D02*
X12160838Y-13118377D01*
X12160838Y-13118377D02*
X12179886Y-13108853D01*
X12179886Y-13108853D02*
X12227505Y-13108853D01*
X12227505Y-13108853D02*
X12246553Y-13118377D01*
X12246553Y-13118377D02*
X12256076Y-13127901D01*
X12256076Y-13127901D02*
X12265600Y-13146948D01*
X12265600Y-13146948D02*
X12265600Y-13165996D01*
X12265600Y-13165996D02*
X12256076Y-13194567D01*
X12256076Y-13194567D02*
X12141791Y-13308853D01*
X12141791Y-13308853D02*
X12265600Y-13308853D01*
X12503696Y-13308853D02*
X12503696Y-13108853D01*
X12589410Y-13308853D02*
X12589410Y-13204091D01*
X12589410Y-13204091D02*
X12579886Y-13185044D01*
X12579886Y-13185044D02*
X12560838Y-13175520D01*
X12560838Y-13175520D02*
X12532267Y-13175520D01*
X12532267Y-13175520D02*
X12513219Y-13185044D01*
X12513219Y-13185044D02*
X12503696Y-13194567D01*
X12713219Y-13308853D02*
X12694172Y-13299329D01*
X12694172Y-13299329D02*
X12684648Y-13289806D01*
X12684648Y-13289806D02*
X12675124Y-13270758D01*
X12675124Y-13270758D02*
X12675124Y-13213615D01*
X12675124Y-13213615D02*
X12684648Y-13194567D01*
X12684648Y-13194567D02*
X12694172Y-13185044D01*
X12694172Y-13185044D02*
X12713219Y-13175520D01*
X12713219Y-13175520D02*
X12741791Y-13175520D01*
X12741791Y-13175520D02*
X12760838Y-13185044D01*
X12760838Y-13185044D02*
X12770362Y-13194567D01*
X12770362Y-13194567D02*
X12779886Y-13213615D01*
X12779886Y-13213615D02*
X12779886Y-13270758D01*
X12779886Y-13270758D02*
X12770362Y-13289806D01*
X12770362Y-13289806D02*
X12760838Y-13299329D01*
X12760838Y-13299329D02*
X12741791Y-13308853D01*
X12741791Y-13308853D02*
X12713219Y-13308853D01*
X12894172Y-13308853D02*
X12875124Y-13299329D01*
X12875124Y-13299329D02*
X12865600Y-13280282D01*
X12865600Y-13280282D02*
X12865600Y-13108853D01*
X13046553Y-13299329D02*
X13027505Y-13308853D01*
X13027505Y-13308853D02*
X12989410Y-13308853D01*
X12989410Y-13308853D02*
X12970362Y-13299329D01*
X12970362Y-13299329D02*
X12960838Y-13280282D01*
X12960838Y-13280282D02*
X12960838Y-13204091D01*
X12960838Y-13204091D02*
X12970362Y-13185044D01*
X12970362Y-13185044D02*
X12989410Y-13175520D01*
X12989410Y-13175520D02*
X13027505Y-13175520D01*
X13027505Y-13175520D02*
X13046553Y-13185044D01*
X13046553Y-13185044D02*
X13056077Y-13204091D01*
X13056077Y-13204091D02*
X13056077Y-13223139D01*
X13056077Y-13223139D02*
X12960838Y-13242187D01*
X13132267Y-13299329D02*
X13151315Y-13308853D01*
X13151315Y-13308853D02*
X13189410Y-13308853D01*
X13189410Y-13308853D02*
X13208458Y-13299329D01*
X13208458Y-13299329D02*
X13217981Y-13280282D01*
X13217981Y-13280282D02*
X13217981Y-13270758D01*
X13217981Y-13270758D02*
X13208458Y-13251710D01*
X13208458Y-13251710D02*
X13189410Y-13242187D01*
X13189410Y-13242187D02*
X13160838Y-13242187D01*
X13160838Y-13242187D02*
X13141791Y-13232663D01*
X13141791Y-13232663D02*
X13132267Y-13213615D01*
X13132267Y-13213615D02*
X13132267Y-13204091D01*
X13132267Y-13204091D02*
X13141791Y-13185044D01*
X13141791Y-13185044D02*
X13160838Y-13175520D01*
X13160838Y-13175520D02*
X13189410Y-13175520D01*
X13189410Y-13175520D02*
X13208458Y-13185044D01*
X13284648Y-13385044D02*
X13294172Y-13375520D01*
X13294172Y-13375520D02*
X13313219Y-13346948D01*
X13313219Y-13346948D02*
X13322743Y-13327901D01*
X13322743Y-13327901D02*
X13332267Y-13299329D01*
X13332267Y-13299329D02*
X13341791Y-13251710D01*
X13341791Y-13251710D02*
X13341791Y-13213615D01*
X13341791Y-13213615D02*
X13332267Y-13165996D01*
X13332267Y-13165996D02*
X13322743Y-13137425D01*
X13322743Y-13137425D02*
X13313219Y-13118377D01*
X13313219Y-13118377D02*
X13294172Y-13089806D01*
X13294172Y-13089806D02*
X13284648Y-13080282D01*
D12*
X8459585Y-13431369D02*
X8459585Y-13531369D01*
X8409585Y-13481369D02*
X8509585Y-13481369D01*
D11*
X8875124Y-13572853D02*
X8760838Y-13572853D01*
X8817981Y-13572853D02*
X8817981Y-13372853D01*
X8817981Y-13372853D02*
X8798933Y-13401425D01*
X8798933Y-13401425D02*
X8779886Y-13420472D01*
X8779886Y-13420472D02*
X8760838Y-13429996D01*
X8960838Y-13553806D02*
X8970362Y-13563329D01*
X8970362Y-13563329D02*
X8960838Y-13572853D01*
X8960838Y-13572853D02*
X8951314Y-13563329D01*
X8951314Y-13563329D02*
X8960838Y-13553806D01*
X8960838Y-13553806D02*
X8960838Y-13572853D01*
X9094171Y-13372853D02*
X9113219Y-13372853D01*
X9113219Y-13372853D02*
X9132267Y-13382377D01*
X9132267Y-13382377D02*
X9141791Y-13391901D01*
X9141791Y-13391901D02*
X9151314Y-13410948D01*
X9151314Y-13410948D02*
X9160838Y-13449044D01*
X9160838Y-13449044D02*
X9160838Y-13496663D01*
X9160838Y-13496663D02*
X9151314Y-13534758D01*
X9151314Y-13534758D02*
X9141791Y-13553806D01*
X9141791Y-13553806D02*
X9132267Y-13563329D01*
X9132267Y-13563329D02*
X9113219Y-13572853D01*
X9113219Y-13572853D02*
X9094171Y-13572853D01*
X9094171Y-13572853D02*
X9075124Y-13563329D01*
X9075124Y-13563329D02*
X9065600Y-13553806D01*
X9065600Y-13553806D02*
X9056076Y-13534758D01*
X9056076Y-13534758D02*
X9046552Y-13496663D01*
X9046552Y-13496663D02*
X9046552Y-13449044D01*
X9046552Y-13449044D02*
X9056076Y-13410948D01*
X9056076Y-13410948D02*
X9065600Y-13391901D01*
X9065600Y-13391901D02*
X9075124Y-13382377D01*
X9075124Y-13382377D02*
X9094171Y-13372853D01*
X9284648Y-13372853D02*
X9303695Y-13372853D01*
X9303695Y-13372853D02*
X9322743Y-13382377D01*
X9322743Y-13382377D02*
X9332267Y-13391901D01*
X9332267Y-13391901D02*
X9341791Y-13410948D01*
X9341791Y-13410948D02*
X9351314Y-13449044D01*
X9351314Y-13449044D02*
X9351314Y-13496663D01*
X9351314Y-13496663D02*
X9341791Y-13534758D01*
X9341791Y-13534758D02*
X9332267Y-13553806D01*
X9332267Y-13553806D02*
X9322743Y-13563329D01*
X9322743Y-13563329D02*
X9303695Y-13572853D01*
X9303695Y-13572853D02*
X9284648Y-13572853D01*
X9284648Y-13572853D02*
X9265600Y-13563329D01*
X9265600Y-13563329D02*
X9256076Y-13553806D01*
X9256076Y-13553806D02*
X9246552Y-13534758D01*
X9246552Y-13534758D02*
X9237029Y-13496663D01*
X9237029Y-13496663D02*
X9237029Y-13449044D01*
X9237029Y-13449044D02*
X9246552Y-13410948D01*
X9246552Y-13410948D02*
X9256076Y-13391901D01*
X9256076Y-13391901D02*
X9265600Y-13382377D01*
X9265600Y-13382377D02*
X9284648Y-13372853D01*
X9475124Y-13372853D02*
X9494172Y-13372853D01*
X9494172Y-13372853D02*
X9513219Y-13382377D01*
X9513219Y-13382377D02*
X9522743Y-13391901D01*
X9522743Y-13391901D02*
X9532267Y-13410948D01*
X9532267Y-13410948D02*
X9541791Y-13449044D01*
X9541791Y-13449044D02*
X9541791Y-13496663D01*
X9541791Y-13496663D02*
X9532267Y-13534758D01*
X9532267Y-13534758D02*
X9522743Y-13553806D01*
X9522743Y-13553806D02*
X9513219Y-13563329D01*
X9513219Y-13563329D02*
X9494172Y-13572853D01*
X9494172Y-13572853D02*
X9475124Y-13572853D01*
X9475124Y-13572853D02*
X9456076Y-13563329D01*
X9456076Y-13563329D02*
X9446552Y-13553806D01*
X9446552Y-13553806D02*
X9437029Y-13534758D01*
X9437029Y-13534758D02*
X9427505Y-13496663D01*
X9427505Y-13496663D02*
X9427505Y-13449044D01*
X9427505Y-13449044D02*
X9437029Y-13410948D01*
X9437029Y-13410948D02*
X9446552Y-13391901D01*
X9446552Y-13391901D02*
X9456076Y-13382377D01*
X9456076Y-13382377D02*
X9475124Y-13372853D01*
X9627505Y-13572853D02*
X9627505Y-13439520D01*
X9627505Y-13458567D02*
X9637029Y-13449044D01*
X9637029Y-13449044D02*
X9656076Y-13439520D01*
X9656076Y-13439520D02*
X9684648Y-13439520D01*
X9684648Y-13439520D02*
X9703695Y-13449044D01*
X9703695Y-13449044D02*
X9713219Y-13468091D01*
X9713219Y-13468091D02*
X9713219Y-13572853D01*
X9713219Y-13468091D02*
X9722743Y-13449044D01*
X9722743Y-13449044D02*
X9741791Y-13439520D01*
X9741791Y-13439520D02*
X9770362Y-13439520D01*
X9770362Y-13439520D02*
X9789410Y-13449044D01*
X9789410Y-13449044D02*
X9798933Y-13468091D01*
X9798933Y-13468091D02*
X9798933Y-13572853D01*
X9894172Y-13572853D02*
X9894172Y-13439520D01*
X9894172Y-13458567D02*
X9903695Y-13449044D01*
X9903695Y-13449044D02*
X9922743Y-13439520D01*
X9922743Y-13439520D02*
X9951314Y-13439520D01*
X9951314Y-13439520D02*
X9970362Y-13449044D01*
X9970362Y-13449044D02*
X9979886Y-13468091D01*
X9979886Y-13468091D02*
X9979886Y-13572853D01*
X9979886Y-13468091D02*
X9989410Y-13449044D01*
X9989410Y-13449044D02*
X10008457Y-13439520D01*
X10008457Y-13439520D02*
X10037029Y-13439520D01*
X10037029Y-13439520D02*
X10056076Y-13449044D01*
X10056076Y-13449044D02*
X10065600Y-13468091D01*
X10065600Y-13468091D02*
X10065600Y-13572853D01*
X10456076Y-13363329D02*
X10284648Y-13620472D01*
X10713219Y-13372853D02*
X10732267Y-13372853D01*
X10732267Y-13372853D02*
X10751315Y-13382377D01*
X10751315Y-13382377D02*
X10760838Y-13391901D01*
X10760838Y-13391901D02*
X10770362Y-13410948D01*
X10770362Y-13410948D02*
X10779886Y-13449044D01*
X10779886Y-13449044D02*
X10779886Y-13496663D01*
X10779886Y-13496663D02*
X10770362Y-13534758D01*
X10770362Y-13534758D02*
X10760838Y-13553806D01*
X10760838Y-13553806D02*
X10751315Y-13563329D01*
X10751315Y-13563329D02*
X10732267Y-13572853D01*
X10732267Y-13572853D02*
X10713219Y-13572853D01*
X10713219Y-13572853D02*
X10694172Y-13563329D01*
X10694172Y-13563329D02*
X10684648Y-13553806D01*
X10684648Y-13553806D02*
X10675124Y-13534758D01*
X10675124Y-13534758D02*
X10665600Y-13496663D01*
X10665600Y-13496663D02*
X10665600Y-13449044D01*
X10665600Y-13449044D02*
X10675124Y-13410948D01*
X10675124Y-13410948D02*
X10684648Y-13391901D01*
X10684648Y-13391901D02*
X10694172Y-13382377D01*
X10694172Y-13382377D02*
X10713219Y-13372853D01*
X10865600Y-13553806D02*
X10875124Y-13563329D01*
X10875124Y-13563329D02*
X10865600Y-13572853D01*
X10865600Y-13572853D02*
X10856076Y-13563329D01*
X10856076Y-13563329D02*
X10865600Y-13553806D01*
X10865600Y-13553806D02*
X10865600Y-13572853D01*
X10998934Y-13372853D02*
X11017981Y-13372853D01*
X11017981Y-13372853D02*
X11037029Y-13382377D01*
X11037029Y-13382377D02*
X11046553Y-13391901D01*
X11046553Y-13391901D02*
X11056076Y-13410948D01*
X11056076Y-13410948D02*
X11065600Y-13449044D01*
X11065600Y-13449044D02*
X11065600Y-13496663D01*
X11065600Y-13496663D02*
X11056076Y-13534758D01*
X11056076Y-13534758D02*
X11046553Y-13553806D01*
X11046553Y-13553806D02*
X11037029Y-13563329D01*
X11037029Y-13563329D02*
X11017981Y-13572853D01*
X11017981Y-13572853D02*
X10998934Y-13572853D01*
X10998934Y-13572853D02*
X10979886Y-13563329D01*
X10979886Y-13563329D02*
X10970362Y-13553806D01*
X10970362Y-13553806D02*
X10960838Y-13534758D01*
X10960838Y-13534758D02*
X10951315Y-13496663D01*
X10951315Y-13496663D02*
X10951315Y-13449044D01*
X10951315Y-13449044D02*
X10960838Y-13410948D01*
X10960838Y-13410948D02*
X10970362Y-13391901D01*
X10970362Y-13391901D02*
X10979886Y-13382377D01*
X10979886Y-13382377D02*
X10998934Y-13372853D01*
X11132267Y-13372853D02*
X11256076Y-13372853D01*
X11256076Y-13372853D02*
X11189410Y-13449044D01*
X11189410Y-13449044D02*
X11217981Y-13449044D01*
X11217981Y-13449044D02*
X11237029Y-13458567D01*
X11237029Y-13458567D02*
X11246553Y-13468091D01*
X11246553Y-13468091D02*
X11256076Y-13487139D01*
X11256076Y-13487139D02*
X11256076Y-13534758D01*
X11256076Y-13534758D02*
X11246553Y-13553806D01*
X11246553Y-13553806D02*
X11237029Y-13563329D01*
X11237029Y-13563329D02*
X11217981Y-13572853D01*
X11217981Y-13572853D02*
X11160838Y-13572853D01*
X11160838Y-13572853D02*
X11141791Y-13563329D01*
X11141791Y-13563329D02*
X11132267Y-13553806D01*
X11351314Y-13572853D02*
X11389410Y-13572853D01*
X11389410Y-13572853D02*
X11408457Y-13563329D01*
X11408457Y-13563329D02*
X11417981Y-13553806D01*
X11417981Y-13553806D02*
X11437029Y-13525234D01*
X11437029Y-13525234D02*
X11446553Y-13487139D01*
X11446553Y-13487139D02*
X11446553Y-13410948D01*
X11446553Y-13410948D02*
X11437029Y-13391901D01*
X11437029Y-13391901D02*
X11427505Y-13382377D01*
X11427505Y-13382377D02*
X11408457Y-13372853D01*
X11408457Y-13372853D02*
X11370362Y-13372853D01*
X11370362Y-13372853D02*
X11351314Y-13382377D01*
X11351314Y-13382377D02*
X11341791Y-13391901D01*
X11341791Y-13391901D02*
X11332267Y-13410948D01*
X11332267Y-13410948D02*
X11332267Y-13458567D01*
X11332267Y-13458567D02*
X11341791Y-13477615D01*
X11341791Y-13477615D02*
X11351314Y-13487139D01*
X11351314Y-13487139D02*
X11370362Y-13496663D01*
X11370362Y-13496663D02*
X11408457Y-13496663D01*
X11408457Y-13496663D02*
X11427505Y-13487139D01*
X11427505Y-13487139D02*
X11437029Y-13477615D01*
X11437029Y-13477615D02*
X11446553Y-13458567D01*
X11617981Y-13439520D02*
X11617981Y-13572853D01*
X11570362Y-13363329D02*
X11522743Y-13506187D01*
X11522743Y-13506187D02*
X11646553Y-13506187D01*
X11713219Y-13372853D02*
X11713219Y-13410948D01*
X11789410Y-13372853D02*
X11789410Y-13410948D01*
X12084648Y-13649044D02*
X12075124Y-13639520D01*
X12075124Y-13639520D02*
X12056076Y-13610948D01*
X12056076Y-13610948D02*
X12046553Y-13591901D01*
X12046553Y-13591901D02*
X12037029Y-13563329D01*
X12037029Y-13563329D02*
X12027505Y-13515710D01*
X12027505Y-13515710D02*
X12027505Y-13477615D01*
X12027505Y-13477615D02*
X12037029Y-13429996D01*
X12037029Y-13429996D02*
X12046553Y-13401425D01*
X12046553Y-13401425D02*
X12056076Y-13382377D01*
X12056076Y-13382377D02*
X12075124Y-13353806D01*
X12075124Y-13353806D02*
X12084648Y-13344282D01*
X12151315Y-13391901D02*
X12160838Y-13382377D01*
X12160838Y-13382377D02*
X12179886Y-13372853D01*
X12179886Y-13372853D02*
X12227505Y-13372853D01*
X12227505Y-13372853D02*
X12246553Y-13382377D01*
X12246553Y-13382377D02*
X12256076Y-13391901D01*
X12256076Y-13391901D02*
X12265600Y-13410948D01*
X12265600Y-13410948D02*
X12265600Y-13429996D01*
X12265600Y-13429996D02*
X12256076Y-13458567D01*
X12256076Y-13458567D02*
X12141791Y-13572853D01*
X12141791Y-13572853D02*
X12265600Y-13572853D01*
X12379886Y-13458567D02*
X12360838Y-13449044D01*
X12360838Y-13449044D02*
X12351315Y-13439520D01*
X12351315Y-13439520D02*
X12341791Y-13420472D01*
X12341791Y-13420472D02*
X12341791Y-13410948D01*
X12341791Y-13410948D02*
X12351315Y-13391901D01*
X12351315Y-13391901D02*
X12360838Y-13382377D01*
X12360838Y-13382377D02*
X12379886Y-13372853D01*
X12379886Y-13372853D02*
X12417981Y-13372853D01*
X12417981Y-13372853D02*
X12437029Y-13382377D01*
X12437029Y-13382377D02*
X12446553Y-13391901D01*
X12446553Y-13391901D02*
X12456076Y-13410948D01*
X12456076Y-13410948D02*
X12456076Y-13420472D01*
X12456076Y-13420472D02*
X12446553Y-13439520D01*
X12446553Y-13439520D02*
X12437029Y-13449044D01*
X12437029Y-13449044D02*
X12417981Y-13458567D01*
X12417981Y-13458567D02*
X12379886Y-13458567D01*
X12379886Y-13458567D02*
X12360838Y-13468091D01*
X12360838Y-13468091D02*
X12351315Y-13477615D01*
X12351315Y-13477615D02*
X12341791Y-13496663D01*
X12341791Y-13496663D02*
X12341791Y-13534758D01*
X12341791Y-13534758D02*
X12351315Y-13553806D01*
X12351315Y-13553806D02*
X12360838Y-13563329D01*
X12360838Y-13563329D02*
X12379886Y-13572853D01*
X12379886Y-13572853D02*
X12417981Y-13572853D01*
X12417981Y-13572853D02*
X12437029Y-13563329D01*
X12437029Y-13563329D02*
X12446553Y-13553806D01*
X12446553Y-13553806D02*
X12456076Y-13534758D01*
X12456076Y-13534758D02*
X12456076Y-13496663D01*
X12456076Y-13496663D02*
X12446553Y-13477615D01*
X12446553Y-13477615D02*
X12437029Y-13468091D01*
X12437029Y-13468091D02*
X12417981Y-13458567D01*
X12694172Y-13572853D02*
X12694172Y-13372853D01*
X12779886Y-13572853D02*
X12779886Y-13468091D01*
X12779886Y-13468091D02*
X12770362Y-13449044D01*
X12770362Y-13449044D02*
X12751315Y-13439520D01*
X12751315Y-13439520D02*
X12722743Y-13439520D01*
X12722743Y-13439520D02*
X12703696Y-13449044D01*
X12703696Y-13449044D02*
X12694172Y-13458567D01*
X12903696Y-13572853D02*
X12884648Y-13563329D01*
X12884648Y-13563329D02*
X12875124Y-13553806D01*
X12875124Y-13553806D02*
X12865600Y-13534758D01*
X12865600Y-13534758D02*
X12865600Y-13477615D01*
X12865600Y-13477615D02*
X12875124Y-13458567D01*
X12875124Y-13458567D02*
X12884648Y-13449044D01*
X12884648Y-13449044D02*
X12903696Y-13439520D01*
X12903696Y-13439520D02*
X12932267Y-13439520D01*
X12932267Y-13439520D02*
X12951315Y-13449044D01*
X12951315Y-13449044D02*
X12960838Y-13458567D01*
X12960838Y-13458567D02*
X12970362Y-13477615D01*
X12970362Y-13477615D02*
X12970362Y-13534758D01*
X12970362Y-13534758D02*
X12960838Y-13553806D01*
X12960838Y-13553806D02*
X12951315Y-13563329D01*
X12951315Y-13563329D02*
X12932267Y-13572853D01*
X12932267Y-13572853D02*
X12903696Y-13572853D01*
X13084648Y-13572853D02*
X13065600Y-13563329D01*
X13065600Y-13563329D02*
X13056077Y-13544282D01*
X13056077Y-13544282D02*
X13056077Y-13372853D01*
X13237029Y-13563329D02*
X13217981Y-13572853D01*
X13217981Y-13572853D02*
X13179886Y-13572853D01*
X13179886Y-13572853D02*
X13160838Y-13563329D01*
X13160838Y-13563329D02*
X13151315Y-13544282D01*
X13151315Y-13544282D02*
X13151315Y-13468091D01*
X13151315Y-13468091D02*
X13160838Y-13449044D01*
X13160838Y-13449044D02*
X13179886Y-13439520D01*
X13179886Y-13439520D02*
X13217981Y-13439520D01*
X13217981Y-13439520D02*
X13237029Y-13449044D01*
X13237029Y-13449044D02*
X13246553Y-13468091D01*
X13246553Y-13468091D02*
X13246553Y-13487139D01*
X13246553Y-13487139D02*
X13151315Y-13506187D01*
X13322743Y-13563329D02*
X13341791Y-13572853D01*
X13341791Y-13572853D02*
X13379886Y-13572853D01*
X13379886Y-13572853D02*
X13398934Y-13563329D01*
X13398934Y-13563329D02*
X13408458Y-13544282D01*
X13408458Y-13544282D02*
X13408458Y-13534758D01*
X13408458Y-13534758D02*
X13398934Y-13515710D01*
X13398934Y-13515710D02*
X13379886Y-13506187D01*
X13379886Y-13506187D02*
X13351315Y-13506187D01*
X13351315Y-13506187D02*
X13332267Y-13496663D01*
X13332267Y-13496663D02*
X13322743Y-13477615D01*
X13322743Y-13477615D02*
X13322743Y-13468091D01*
X13322743Y-13468091D02*
X13332267Y-13449044D01*
X13332267Y-13449044D02*
X13351315Y-13439520D01*
X13351315Y-13439520D02*
X13379886Y-13439520D01*
X13379886Y-13439520D02*
X13398934Y-13449044D01*
X13475124Y-13649044D02*
X13484648Y-13639520D01*
X13484648Y-13639520D02*
X13503696Y-13610948D01*
X13503696Y-13610948D02*
X13513219Y-13591901D01*
X13513219Y-13591901D02*
X13522743Y-13563329D01*
X13522743Y-13563329D02*
X13532267Y-13515710D01*
X13532267Y-13515710D02*
X13532267Y-13477615D01*
X13532267Y-13477615D02*
X13522743Y-13429996D01*
X13522743Y-13429996D02*
X13513219Y-13401425D01*
X13513219Y-13401425D02*
X13503696Y-13382377D01*
X13503696Y-13382377D02*
X13484648Y-13353806D01*
X13484648Y-13353806D02*
X13475124Y-13344282D01*
D13*
X8493476Y-13784261D02*
X8493476Y-13706478D01*
X8415694Y-13706478D01*
X8415694Y-13784261D01*
X8493476Y-13784261D01*
D11*
X8875124Y-13836853D02*
X8760838Y-13836853D01*
X8817981Y-13836853D02*
X8817981Y-13636853D01*
X8817981Y-13636853D02*
X8798933Y-13665425D01*
X8798933Y-13665425D02*
X8779886Y-13684472D01*
X8779886Y-13684472D02*
X8760838Y-13693996D01*
X8960838Y-13817806D02*
X8970362Y-13827329D01*
X8970362Y-13827329D02*
X8960838Y-13836853D01*
X8960838Y-13836853D02*
X8951314Y-13827329D01*
X8951314Y-13827329D02*
X8960838Y-13817806D01*
X8960838Y-13817806D02*
X8960838Y-13836853D01*
X9160838Y-13836853D02*
X9046552Y-13836853D01*
X9103695Y-13836853D02*
X9103695Y-13636853D01*
X9103695Y-13636853D02*
X9084648Y-13665425D01*
X9084648Y-13665425D02*
X9065600Y-13684472D01*
X9065600Y-13684472D02*
X9046552Y-13693996D01*
X9284648Y-13636853D02*
X9303695Y-13636853D01*
X9303695Y-13636853D02*
X9322743Y-13646377D01*
X9322743Y-13646377D02*
X9332267Y-13655901D01*
X9332267Y-13655901D02*
X9341791Y-13674948D01*
X9341791Y-13674948D02*
X9351314Y-13713044D01*
X9351314Y-13713044D02*
X9351314Y-13760663D01*
X9351314Y-13760663D02*
X9341791Y-13798758D01*
X9341791Y-13798758D02*
X9332267Y-13817806D01*
X9332267Y-13817806D02*
X9322743Y-13827329D01*
X9322743Y-13827329D02*
X9303695Y-13836853D01*
X9303695Y-13836853D02*
X9284648Y-13836853D01*
X9284648Y-13836853D02*
X9265600Y-13827329D01*
X9265600Y-13827329D02*
X9256076Y-13817806D01*
X9256076Y-13817806D02*
X9246552Y-13798758D01*
X9246552Y-13798758D02*
X9237029Y-13760663D01*
X9237029Y-13760663D02*
X9237029Y-13713044D01*
X9237029Y-13713044D02*
X9246552Y-13674948D01*
X9246552Y-13674948D02*
X9256076Y-13655901D01*
X9256076Y-13655901D02*
X9265600Y-13646377D01*
X9265600Y-13646377D02*
X9284648Y-13636853D01*
X9475124Y-13636853D02*
X9494172Y-13636853D01*
X9494172Y-13636853D02*
X9513219Y-13646377D01*
X9513219Y-13646377D02*
X9522743Y-13655901D01*
X9522743Y-13655901D02*
X9532267Y-13674948D01*
X9532267Y-13674948D02*
X9541791Y-13713044D01*
X9541791Y-13713044D02*
X9541791Y-13760663D01*
X9541791Y-13760663D02*
X9532267Y-13798758D01*
X9532267Y-13798758D02*
X9522743Y-13817806D01*
X9522743Y-13817806D02*
X9513219Y-13827329D01*
X9513219Y-13827329D02*
X9494172Y-13836853D01*
X9494172Y-13836853D02*
X9475124Y-13836853D01*
X9475124Y-13836853D02*
X9456076Y-13827329D01*
X9456076Y-13827329D02*
X9446552Y-13817806D01*
X9446552Y-13817806D02*
X9437029Y-13798758D01*
X9437029Y-13798758D02*
X9427505Y-13760663D01*
X9427505Y-13760663D02*
X9427505Y-13713044D01*
X9427505Y-13713044D02*
X9437029Y-13674948D01*
X9437029Y-13674948D02*
X9446552Y-13655901D01*
X9446552Y-13655901D02*
X9456076Y-13646377D01*
X9456076Y-13646377D02*
X9475124Y-13636853D01*
X9627505Y-13836853D02*
X9627505Y-13703520D01*
X9627505Y-13722567D02*
X9637029Y-13713044D01*
X9637029Y-13713044D02*
X9656076Y-13703520D01*
X9656076Y-13703520D02*
X9684648Y-13703520D01*
X9684648Y-13703520D02*
X9703695Y-13713044D01*
X9703695Y-13713044D02*
X9713219Y-13732091D01*
X9713219Y-13732091D02*
X9713219Y-13836853D01*
X9713219Y-13732091D02*
X9722743Y-13713044D01*
X9722743Y-13713044D02*
X9741791Y-13703520D01*
X9741791Y-13703520D02*
X9770362Y-13703520D01*
X9770362Y-13703520D02*
X9789410Y-13713044D01*
X9789410Y-13713044D02*
X9798933Y-13732091D01*
X9798933Y-13732091D02*
X9798933Y-13836853D01*
X9894172Y-13836853D02*
X9894172Y-13703520D01*
X9894172Y-13722567D02*
X9903695Y-13713044D01*
X9903695Y-13713044D02*
X9922743Y-13703520D01*
X9922743Y-13703520D02*
X9951314Y-13703520D01*
X9951314Y-13703520D02*
X9970362Y-13713044D01*
X9970362Y-13713044D02*
X9979886Y-13732091D01*
X9979886Y-13732091D02*
X9979886Y-13836853D01*
X9979886Y-13732091D02*
X9989410Y-13713044D01*
X9989410Y-13713044D02*
X10008457Y-13703520D01*
X10008457Y-13703520D02*
X10037029Y-13703520D01*
X10037029Y-13703520D02*
X10056076Y-13713044D01*
X10056076Y-13713044D02*
X10065600Y-13732091D01*
X10065600Y-13732091D02*
X10065600Y-13836853D01*
X10456076Y-13627329D02*
X10284648Y-13884472D01*
X10713219Y-13636853D02*
X10732267Y-13636853D01*
X10732267Y-13636853D02*
X10751315Y-13646377D01*
X10751315Y-13646377D02*
X10760838Y-13655901D01*
X10760838Y-13655901D02*
X10770362Y-13674948D01*
X10770362Y-13674948D02*
X10779886Y-13713044D01*
X10779886Y-13713044D02*
X10779886Y-13760663D01*
X10779886Y-13760663D02*
X10770362Y-13798758D01*
X10770362Y-13798758D02*
X10760838Y-13817806D01*
X10760838Y-13817806D02*
X10751315Y-13827329D01*
X10751315Y-13827329D02*
X10732267Y-13836853D01*
X10732267Y-13836853D02*
X10713219Y-13836853D01*
X10713219Y-13836853D02*
X10694172Y-13827329D01*
X10694172Y-13827329D02*
X10684648Y-13817806D01*
X10684648Y-13817806D02*
X10675124Y-13798758D01*
X10675124Y-13798758D02*
X10665600Y-13760663D01*
X10665600Y-13760663D02*
X10665600Y-13713044D01*
X10665600Y-13713044D02*
X10675124Y-13674948D01*
X10675124Y-13674948D02*
X10684648Y-13655901D01*
X10684648Y-13655901D02*
X10694172Y-13646377D01*
X10694172Y-13646377D02*
X10713219Y-13636853D01*
X10865600Y-13817806D02*
X10875124Y-13827329D01*
X10875124Y-13827329D02*
X10865600Y-13836853D01*
X10865600Y-13836853D02*
X10856076Y-13827329D01*
X10856076Y-13827329D02*
X10865600Y-13817806D01*
X10865600Y-13817806D02*
X10865600Y-13836853D01*
X10998934Y-13636853D02*
X11017981Y-13636853D01*
X11017981Y-13636853D02*
X11037029Y-13646377D01*
X11037029Y-13646377D02*
X11046553Y-13655901D01*
X11046553Y-13655901D02*
X11056076Y-13674948D01*
X11056076Y-13674948D02*
X11065600Y-13713044D01*
X11065600Y-13713044D02*
X11065600Y-13760663D01*
X11065600Y-13760663D02*
X11056076Y-13798758D01*
X11056076Y-13798758D02*
X11046553Y-13817806D01*
X11046553Y-13817806D02*
X11037029Y-13827329D01*
X11037029Y-13827329D02*
X11017981Y-13836853D01*
X11017981Y-13836853D02*
X10998934Y-13836853D01*
X10998934Y-13836853D02*
X10979886Y-13827329D01*
X10979886Y-13827329D02*
X10970362Y-13817806D01*
X10970362Y-13817806D02*
X10960838Y-13798758D01*
X10960838Y-13798758D02*
X10951315Y-13760663D01*
X10951315Y-13760663D02*
X10951315Y-13713044D01*
X10951315Y-13713044D02*
X10960838Y-13674948D01*
X10960838Y-13674948D02*
X10970362Y-13655901D01*
X10970362Y-13655901D02*
X10979886Y-13646377D01*
X10979886Y-13646377D02*
X10998934Y-13636853D01*
X11237029Y-13703520D02*
X11237029Y-13836853D01*
X11189410Y-13627329D02*
X11141791Y-13770187D01*
X11141791Y-13770187D02*
X11265600Y-13770187D01*
X11322743Y-13636853D02*
X11446553Y-13636853D01*
X11446553Y-13636853D02*
X11379886Y-13713044D01*
X11379886Y-13713044D02*
X11408457Y-13713044D01*
X11408457Y-13713044D02*
X11427505Y-13722567D01*
X11427505Y-13722567D02*
X11437029Y-13732091D01*
X11437029Y-13732091D02*
X11446553Y-13751139D01*
X11446553Y-13751139D02*
X11446553Y-13798758D01*
X11446553Y-13798758D02*
X11437029Y-13817806D01*
X11437029Y-13817806D02*
X11427505Y-13827329D01*
X11427505Y-13827329D02*
X11408457Y-13836853D01*
X11408457Y-13836853D02*
X11351314Y-13836853D01*
X11351314Y-13836853D02*
X11332267Y-13827329D01*
X11332267Y-13827329D02*
X11322743Y-13817806D01*
X11513219Y-13636853D02*
X11637029Y-13636853D01*
X11637029Y-13636853D02*
X11570362Y-13713044D01*
X11570362Y-13713044D02*
X11598934Y-13713044D01*
X11598934Y-13713044D02*
X11617981Y-13722567D01*
X11617981Y-13722567D02*
X11627505Y-13732091D01*
X11627505Y-13732091D02*
X11637029Y-13751139D01*
X11637029Y-13751139D02*
X11637029Y-13798758D01*
X11637029Y-13798758D02*
X11627505Y-13817806D01*
X11627505Y-13817806D02*
X11617981Y-13827329D01*
X11617981Y-13827329D02*
X11598934Y-13836853D01*
X11598934Y-13836853D02*
X11541791Y-13836853D01*
X11541791Y-13836853D02*
X11522743Y-13827329D01*
X11522743Y-13827329D02*
X11513219Y-13817806D01*
X11713219Y-13636853D02*
X11713219Y-13674948D01*
X11789410Y-13636853D02*
X11789410Y-13674948D01*
X12084648Y-13913044D02*
X12075124Y-13903520D01*
X12075124Y-13903520D02*
X12056076Y-13874948D01*
X12056076Y-13874948D02*
X12046553Y-13855901D01*
X12046553Y-13855901D02*
X12037029Y-13827329D01*
X12037029Y-13827329D02*
X12027505Y-13779710D01*
X12027505Y-13779710D02*
X12027505Y-13741615D01*
X12027505Y-13741615D02*
X12037029Y-13693996D01*
X12037029Y-13693996D02*
X12046553Y-13665425D01*
X12046553Y-13665425D02*
X12056076Y-13646377D01*
X12056076Y-13646377D02*
X12075124Y-13617806D01*
X12075124Y-13617806D02*
X12084648Y-13608282D01*
X12246553Y-13703520D02*
X12246553Y-13836853D01*
X12198934Y-13627329D02*
X12151315Y-13770187D01*
X12151315Y-13770187D02*
X12275124Y-13770187D01*
X12446553Y-13636853D02*
X12351315Y-13636853D01*
X12351315Y-13636853D02*
X12341791Y-13732091D01*
X12341791Y-13732091D02*
X12351315Y-13722567D01*
X12351315Y-13722567D02*
X12370362Y-13713044D01*
X12370362Y-13713044D02*
X12417981Y-13713044D01*
X12417981Y-13713044D02*
X12437029Y-13722567D01*
X12437029Y-13722567D02*
X12446553Y-13732091D01*
X12446553Y-13732091D02*
X12456076Y-13751139D01*
X12456076Y-13751139D02*
X12456076Y-13798758D01*
X12456076Y-13798758D02*
X12446553Y-13817806D01*
X12446553Y-13817806D02*
X12437029Y-13827329D01*
X12437029Y-13827329D02*
X12417981Y-13836853D01*
X12417981Y-13836853D02*
X12370362Y-13836853D01*
X12370362Y-13836853D02*
X12351315Y-13827329D01*
X12351315Y-13827329D02*
X12341791Y-13817806D01*
X12694172Y-13836853D02*
X12694172Y-13636853D01*
X12779886Y-13836853D02*
X12779886Y-13732091D01*
X12779886Y-13732091D02*
X12770362Y-13713044D01*
X12770362Y-13713044D02*
X12751315Y-13703520D01*
X12751315Y-13703520D02*
X12722743Y-13703520D01*
X12722743Y-13703520D02*
X12703696Y-13713044D01*
X12703696Y-13713044D02*
X12694172Y-13722567D01*
X12903696Y-13836853D02*
X12884648Y-13827329D01*
X12884648Y-13827329D02*
X12875124Y-13817806D01*
X12875124Y-13817806D02*
X12865600Y-13798758D01*
X12865600Y-13798758D02*
X12865600Y-13741615D01*
X12865600Y-13741615D02*
X12875124Y-13722567D01*
X12875124Y-13722567D02*
X12884648Y-13713044D01*
X12884648Y-13713044D02*
X12903696Y-13703520D01*
X12903696Y-13703520D02*
X12932267Y-13703520D01*
X12932267Y-13703520D02*
X12951315Y-13713044D01*
X12951315Y-13713044D02*
X12960838Y-13722567D01*
X12960838Y-13722567D02*
X12970362Y-13741615D01*
X12970362Y-13741615D02*
X12970362Y-13798758D01*
X12970362Y-13798758D02*
X12960838Y-13817806D01*
X12960838Y-13817806D02*
X12951315Y-13827329D01*
X12951315Y-13827329D02*
X12932267Y-13836853D01*
X12932267Y-13836853D02*
X12903696Y-13836853D01*
X13084648Y-13836853D02*
X13065600Y-13827329D01*
X13065600Y-13827329D02*
X13056077Y-13808282D01*
X13056077Y-13808282D02*
X13056077Y-13636853D01*
X13237029Y-13827329D02*
X13217981Y-13836853D01*
X13217981Y-13836853D02*
X13179886Y-13836853D01*
X13179886Y-13836853D02*
X13160838Y-13827329D01*
X13160838Y-13827329D02*
X13151315Y-13808282D01*
X13151315Y-13808282D02*
X13151315Y-13732091D01*
X13151315Y-13732091D02*
X13160838Y-13713044D01*
X13160838Y-13713044D02*
X13179886Y-13703520D01*
X13179886Y-13703520D02*
X13217981Y-13703520D01*
X13217981Y-13703520D02*
X13237029Y-13713044D01*
X13237029Y-13713044D02*
X13246553Y-13732091D01*
X13246553Y-13732091D02*
X13246553Y-13751139D01*
X13246553Y-13751139D02*
X13151315Y-13770187D01*
X13322743Y-13827329D02*
X13341791Y-13836853D01*
X13341791Y-13836853D02*
X13379886Y-13836853D01*
X13379886Y-13836853D02*
X13398934Y-13827329D01*
X13398934Y-13827329D02*
X13408458Y-13808282D01*
X13408458Y-13808282D02*
X13408458Y-13798758D01*
X13408458Y-13798758D02*
X13398934Y-13779710D01*
X13398934Y-13779710D02*
X13379886Y-13770187D01*
X13379886Y-13770187D02*
X13351315Y-13770187D01*
X13351315Y-13770187D02*
X13332267Y-13760663D01*
X13332267Y-13760663D02*
X13322743Y-13741615D01*
X13322743Y-13741615D02*
X13322743Y-13732091D01*
X13322743Y-13732091D02*
X13332267Y-13713044D01*
X13332267Y-13713044D02*
X13351315Y-13703520D01*
X13351315Y-13703520D02*
X13379886Y-13703520D01*
X13379886Y-13703520D02*
X13398934Y-13713044D01*
X13475124Y-13913044D02*
X13484648Y-13903520D01*
X13484648Y-13903520D02*
X13503696Y-13874948D01*
X13503696Y-13874948D02*
X13513219Y-13855901D01*
X13513219Y-13855901D02*
X13522743Y-13827329D01*
X13522743Y-13827329D02*
X13532267Y-13779710D01*
X13532267Y-13779710D02*
X13532267Y-13741615D01*
X13532267Y-13741615D02*
X13522743Y-13693996D01*
X13522743Y-13693996D02*
X13513219Y-13665425D01*
X13513219Y-13665425D02*
X13503696Y-13646377D01*
X13503696Y-13646377D02*
X13484648Y-13617806D01*
X13484648Y-13617806D02*
X13475124Y-13608282D01*
M02*
