%TF.GenerationSoftware,KiCad,Pcbnew,8.0.6*%
%TF.CreationDate,2025-02-26T23:58:06-08:00*%
%TF.ProjectId,Cymatics,43796d61-7469-4637-932e-6b696361645f,rev?*%
%TF.SameCoordinates,Original*%
%TF.FileFunction,Drillmap*%
%TF.FilePolarity,Positive*%
%FSLAX45Y45*%
G04 Gerber Fmt 4.5, Leading zero omitted, Abs format (unit mm)*
G04 Created by KiCad (PCBNEW 8.0.6) date 2025-02-26 23:58:06*
%MOMM*%
%LPD*%
G01*
G04 APERTURE LIST*
%ADD10C,0.050000*%
%ADD11C,0.200000*%
%ADD12C,0.100000*%
%ADD13C,0.250000*%
G04 APERTURE END LIST*
D10*
X9312085Y-12310869D02*
G75*
G02*
X9012091Y-12010869I5J299999D01*
G01*
X15212085Y-12310869D02*
X9312085Y-12310869D01*
X15212085Y-5310869D02*
G75*
G02*
X15512081Y-5610869I-5J-300001D01*
G01*
X9312085Y-5310869D02*
X15212085Y-5310869D01*
X15512085Y-5610869D02*
X15512085Y-12010869D01*
X9012085Y-5610869D02*
G75*
G02*
X9312085Y-5310865I300005J-1D01*
G01*
X9012085Y-5610869D02*
X9012085Y-12010869D01*
X15512085Y-12010869D02*
G75*
G02*
X15212085Y-12310875I-300005J-1D01*
G01*
D11*
D12*
X10505000Y-11833750D02*
X10605000Y-11933750D01*
X10605000Y-11833750D02*
X10505000Y-11933750D01*
X11305000Y-11833750D02*
X11405000Y-11933750D01*
X11405000Y-11833750D02*
X11305000Y-11933750D01*
D13*
X9537085Y-5710869D02*
G75*
G02*
X9287085Y-5710869I-125000J0D01*
G01*
X9287085Y-5710869D02*
G75*
G02*
X9537085Y-5710869I125000J0D01*
G01*
X9537085Y-11910869D02*
G75*
G02*
X9287085Y-11910869I-125000J0D01*
G01*
X9287085Y-11910869D02*
G75*
G02*
X9537085Y-11910869I125000J0D01*
G01*
X15237085Y-5710869D02*
G75*
G02*
X14987085Y-5710869I-125000J0D01*
G01*
X14987085Y-5710869D02*
G75*
G02*
X15237085Y-5710869I125000J0D01*
G01*
X15237085Y-11910869D02*
G75*
G02*
X14987085Y-11910869I-125000J0D01*
G01*
X14987085Y-11910869D02*
G75*
G02*
X15237085Y-11910869I125000J0D01*
G01*
D11*
X9270362Y-12624853D02*
X9270362Y-12424853D01*
X9270362Y-12424853D02*
X9317981Y-12424853D01*
X9317981Y-12424853D02*
X9346552Y-12434377D01*
X9346552Y-12434377D02*
X9365600Y-12453425D01*
X9365600Y-12453425D02*
X9375124Y-12472472D01*
X9375124Y-12472472D02*
X9384647Y-12510567D01*
X9384647Y-12510567D02*
X9384647Y-12539139D01*
X9384647Y-12539139D02*
X9375124Y-12577234D01*
X9375124Y-12577234D02*
X9365600Y-12596282D01*
X9365600Y-12596282D02*
X9346552Y-12615329D01*
X9346552Y-12615329D02*
X9317981Y-12624853D01*
X9317981Y-12624853D02*
X9270362Y-12624853D01*
X9470362Y-12624853D02*
X9470362Y-12491520D01*
X9470362Y-12529615D02*
X9479886Y-12510567D01*
X9479886Y-12510567D02*
X9489409Y-12501044D01*
X9489409Y-12501044D02*
X9508457Y-12491520D01*
X9508457Y-12491520D02*
X9527505Y-12491520D01*
X9594171Y-12624853D02*
X9594171Y-12491520D01*
X9594171Y-12424853D02*
X9584647Y-12434377D01*
X9584647Y-12434377D02*
X9594171Y-12443901D01*
X9594171Y-12443901D02*
X9603695Y-12434377D01*
X9603695Y-12434377D02*
X9594171Y-12424853D01*
X9594171Y-12424853D02*
X9594171Y-12443901D01*
X9717981Y-12624853D02*
X9698933Y-12615329D01*
X9698933Y-12615329D02*
X9689409Y-12596282D01*
X9689409Y-12596282D02*
X9689409Y-12424853D01*
X9822743Y-12624853D02*
X9803695Y-12615329D01*
X9803695Y-12615329D02*
X9794171Y-12596282D01*
X9794171Y-12596282D02*
X9794171Y-12424853D01*
X10051314Y-12624853D02*
X10051314Y-12424853D01*
X10051314Y-12424853D02*
X10117981Y-12567710D01*
X10117981Y-12567710D02*
X10184647Y-12424853D01*
X10184647Y-12424853D02*
X10184647Y-12624853D01*
X10365600Y-12624853D02*
X10365600Y-12520091D01*
X10365600Y-12520091D02*
X10356076Y-12501044D01*
X10356076Y-12501044D02*
X10337028Y-12491520D01*
X10337028Y-12491520D02*
X10298933Y-12491520D01*
X10298933Y-12491520D02*
X10279886Y-12501044D01*
X10365600Y-12615329D02*
X10346552Y-12624853D01*
X10346552Y-12624853D02*
X10298933Y-12624853D01*
X10298933Y-12624853D02*
X10279886Y-12615329D01*
X10279886Y-12615329D02*
X10270362Y-12596282D01*
X10270362Y-12596282D02*
X10270362Y-12577234D01*
X10270362Y-12577234D02*
X10279886Y-12558187D01*
X10279886Y-12558187D02*
X10298933Y-12548663D01*
X10298933Y-12548663D02*
X10346552Y-12548663D01*
X10346552Y-12548663D02*
X10365600Y-12539139D01*
X10460838Y-12491520D02*
X10460838Y-12691520D01*
X10460838Y-12501044D02*
X10479886Y-12491520D01*
X10479886Y-12491520D02*
X10517981Y-12491520D01*
X10517981Y-12491520D02*
X10537028Y-12501044D01*
X10537028Y-12501044D02*
X10546552Y-12510567D01*
X10546552Y-12510567D02*
X10556076Y-12529615D01*
X10556076Y-12529615D02*
X10556076Y-12586758D01*
X10556076Y-12586758D02*
X10546552Y-12605806D01*
X10546552Y-12605806D02*
X10537028Y-12615329D01*
X10537028Y-12615329D02*
X10517981Y-12624853D01*
X10517981Y-12624853D02*
X10479886Y-12624853D01*
X10479886Y-12624853D02*
X10460838Y-12615329D01*
X10641790Y-12605806D02*
X10651314Y-12615329D01*
X10651314Y-12615329D02*
X10641790Y-12624853D01*
X10641790Y-12624853D02*
X10632267Y-12615329D01*
X10632267Y-12615329D02*
X10641790Y-12605806D01*
X10641790Y-12605806D02*
X10641790Y-12624853D01*
X10641790Y-12501044D02*
X10651314Y-12510567D01*
X10651314Y-12510567D02*
X10641790Y-12520091D01*
X10641790Y-12520091D02*
X10632267Y-12510567D01*
X10632267Y-12510567D02*
X10641790Y-12501044D01*
X10641790Y-12501044D02*
X10641790Y-12520091D01*
D12*
X8909585Y-12903369D02*
X9009585Y-13003369D01*
X9009585Y-12903369D02*
X8909585Y-13003369D01*
D11*
X9375124Y-13044853D02*
X9260838Y-13044853D01*
X9317981Y-13044853D02*
X9317981Y-12844853D01*
X9317981Y-12844853D02*
X9298933Y-12873425D01*
X9298933Y-12873425D02*
X9279886Y-12892472D01*
X9279886Y-12892472D02*
X9260838Y-12901996D01*
X9460838Y-13025806D02*
X9470362Y-13035329D01*
X9470362Y-13035329D02*
X9460838Y-13044853D01*
X9460838Y-13044853D02*
X9451314Y-13035329D01*
X9451314Y-13035329D02*
X9460838Y-13025806D01*
X9460838Y-13025806D02*
X9460838Y-13044853D01*
X9594171Y-12844853D02*
X9613219Y-12844853D01*
X9613219Y-12844853D02*
X9632267Y-12854377D01*
X9632267Y-12854377D02*
X9641790Y-12863901D01*
X9641790Y-12863901D02*
X9651314Y-12882948D01*
X9651314Y-12882948D02*
X9660838Y-12921044D01*
X9660838Y-12921044D02*
X9660838Y-12968663D01*
X9660838Y-12968663D02*
X9651314Y-13006758D01*
X9651314Y-13006758D02*
X9641790Y-13025806D01*
X9641790Y-13025806D02*
X9632267Y-13035329D01*
X9632267Y-13035329D02*
X9613219Y-13044853D01*
X9613219Y-13044853D02*
X9594171Y-13044853D01*
X9594171Y-13044853D02*
X9575124Y-13035329D01*
X9575124Y-13035329D02*
X9565600Y-13025806D01*
X9565600Y-13025806D02*
X9556076Y-13006758D01*
X9556076Y-13006758D02*
X9546552Y-12968663D01*
X9546552Y-12968663D02*
X9546552Y-12921044D01*
X9546552Y-12921044D02*
X9556076Y-12882948D01*
X9556076Y-12882948D02*
X9565600Y-12863901D01*
X9565600Y-12863901D02*
X9575124Y-12854377D01*
X9575124Y-12854377D02*
X9594171Y-12844853D01*
X9784647Y-12844853D02*
X9803695Y-12844853D01*
X9803695Y-12844853D02*
X9822743Y-12854377D01*
X9822743Y-12854377D02*
X9832267Y-12863901D01*
X9832267Y-12863901D02*
X9841790Y-12882948D01*
X9841790Y-12882948D02*
X9851314Y-12921044D01*
X9851314Y-12921044D02*
X9851314Y-12968663D01*
X9851314Y-12968663D02*
X9841790Y-13006758D01*
X9841790Y-13006758D02*
X9832267Y-13025806D01*
X9832267Y-13025806D02*
X9822743Y-13035329D01*
X9822743Y-13035329D02*
X9803695Y-13044853D01*
X9803695Y-13044853D02*
X9784647Y-13044853D01*
X9784647Y-13044853D02*
X9765600Y-13035329D01*
X9765600Y-13035329D02*
X9756076Y-13025806D01*
X9756076Y-13025806D02*
X9746552Y-13006758D01*
X9746552Y-13006758D02*
X9737028Y-12968663D01*
X9737028Y-12968663D02*
X9737028Y-12921044D01*
X9737028Y-12921044D02*
X9746552Y-12882948D01*
X9746552Y-12882948D02*
X9756076Y-12863901D01*
X9756076Y-12863901D02*
X9765600Y-12854377D01*
X9765600Y-12854377D02*
X9784647Y-12844853D01*
X9975124Y-12844853D02*
X9994171Y-12844853D01*
X9994171Y-12844853D02*
X10013219Y-12854377D01*
X10013219Y-12854377D02*
X10022743Y-12863901D01*
X10022743Y-12863901D02*
X10032267Y-12882948D01*
X10032267Y-12882948D02*
X10041790Y-12921044D01*
X10041790Y-12921044D02*
X10041790Y-12968663D01*
X10041790Y-12968663D02*
X10032267Y-13006758D01*
X10032267Y-13006758D02*
X10022743Y-13025806D01*
X10022743Y-13025806D02*
X10013219Y-13035329D01*
X10013219Y-13035329D02*
X9994171Y-13044853D01*
X9994171Y-13044853D02*
X9975124Y-13044853D01*
X9975124Y-13044853D02*
X9956076Y-13035329D01*
X9956076Y-13035329D02*
X9946552Y-13025806D01*
X9946552Y-13025806D02*
X9937028Y-13006758D01*
X9937028Y-13006758D02*
X9927505Y-12968663D01*
X9927505Y-12968663D02*
X9927505Y-12921044D01*
X9927505Y-12921044D02*
X9937028Y-12882948D01*
X9937028Y-12882948D02*
X9946552Y-12863901D01*
X9946552Y-12863901D02*
X9956076Y-12854377D01*
X9956076Y-12854377D02*
X9975124Y-12844853D01*
X10127505Y-13044853D02*
X10127505Y-12911520D01*
X10127505Y-12930567D02*
X10137028Y-12921044D01*
X10137028Y-12921044D02*
X10156076Y-12911520D01*
X10156076Y-12911520D02*
X10184648Y-12911520D01*
X10184648Y-12911520D02*
X10203695Y-12921044D01*
X10203695Y-12921044D02*
X10213219Y-12940091D01*
X10213219Y-12940091D02*
X10213219Y-13044853D01*
X10213219Y-12940091D02*
X10222743Y-12921044D01*
X10222743Y-12921044D02*
X10241790Y-12911520D01*
X10241790Y-12911520D02*
X10270362Y-12911520D01*
X10270362Y-12911520D02*
X10289409Y-12921044D01*
X10289409Y-12921044D02*
X10298933Y-12940091D01*
X10298933Y-12940091D02*
X10298933Y-13044853D01*
X10394171Y-13044853D02*
X10394171Y-12911520D01*
X10394171Y-12930567D02*
X10403695Y-12921044D01*
X10403695Y-12921044D02*
X10422743Y-12911520D01*
X10422743Y-12911520D02*
X10451314Y-12911520D01*
X10451314Y-12911520D02*
X10470362Y-12921044D01*
X10470362Y-12921044D02*
X10479886Y-12940091D01*
X10479886Y-12940091D02*
X10479886Y-13044853D01*
X10479886Y-12940091D02*
X10489409Y-12921044D01*
X10489409Y-12921044D02*
X10508457Y-12911520D01*
X10508457Y-12911520D02*
X10537028Y-12911520D01*
X10537028Y-12911520D02*
X10556076Y-12921044D01*
X10556076Y-12921044D02*
X10565600Y-12940091D01*
X10565600Y-12940091D02*
X10565600Y-13044853D01*
X10956076Y-12835329D02*
X10784648Y-13092472D01*
X11213219Y-12844853D02*
X11232267Y-12844853D01*
X11232267Y-12844853D02*
X11251314Y-12854377D01*
X11251314Y-12854377D02*
X11260838Y-12863901D01*
X11260838Y-12863901D02*
X11270362Y-12882948D01*
X11270362Y-12882948D02*
X11279886Y-12921044D01*
X11279886Y-12921044D02*
X11279886Y-12968663D01*
X11279886Y-12968663D02*
X11270362Y-13006758D01*
X11270362Y-13006758D02*
X11260838Y-13025806D01*
X11260838Y-13025806D02*
X11251314Y-13035329D01*
X11251314Y-13035329D02*
X11232267Y-13044853D01*
X11232267Y-13044853D02*
X11213219Y-13044853D01*
X11213219Y-13044853D02*
X11194171Y-13035329D01*
X11194171Y-13035329D02*
X11184648Y-13025806D01*
X11184648Y-13025806D02*
X11175124Y-13006758D01*
X11175124Y-13006758D02*
X11165600Y-12968663D01*
X11165600Y-12968663D02*
X11165600Y-12921044D01*
X11165600Y-12921044D02*
X11175124Y-12882948D01*
X11175124Y-12882948D02*
X11184648Y-12863901D01*
X11184648Y-12863901D02*
X11194171Y-12854377D01*
X11194171Y-12854377D02*
X11213219Y-12844853D01*
X11365600Y-13025806D02*
X11375124Y-13035329D01*
X11375124Y-13035329D02*
X11365600Y-13044853D01*
X11365600Y-13044853D02*
X11356076Y-13035329D01*
X11356076Y-13035329D02*
X11365600Y-13025806D01*
X11365600Y-13025806D02*
X11365600Y-13044853D01*
X11498933Y-12844853D02*
X11517981Y-12844853D01*
X11517981Y-12844853D02*
X11537029Y-12854377D01*
X11537029Y-12854377D02*
X11546552Y-12863901D01*
X11546552Y-12863901D02*
X11556076Y-12882948D01*
X11556076Y-12882948D02*
X11565600Y-12921044D01*
X11565600Y-12921044D02*
X11565600Y-12968663D01*
X11565600Y-12968663D02*
X11556076Y-13006758D01*
X11556076Y-13006758D02*
X11546552Y-13025806D01*
X11546552Y-13025806D02*
X11537029Y-13035329D01*
X11537029Y-13035329D02*
X11517981Y-13044853D01*
X11517981Y-13044853D02*
X11498933Y-13044853D01*
X11498933Y-13044853D02*
X11479886Y-13035329D01*
X11479886Y-13035329D02*
X11470362Y-13025806D01*
X11470362Y-13025806D02*
X11460838Y-13006758D01*
X11460838Y-13006758D02*
X11451314Y-12968663D01*
X11451314Y-12968663D02*
X11451314Y-12921044D01*
X11451314Y-12921044D02*
X11460838Y-12882948D01*
X11460838Y-12882948D02*
X11470362Y-12863901D01*
X11470362Y-12863901D02*
X11479886Y-12854377D01*
X11479886Y-12854377D02*
X11498933Y-12844853D01*
X11632267Y-12844853D02*
X11756076Y-12844853D01*
X11756076Y-12844853D02*
X11689409Y-12921044D01*
X11689409Y-12921044D02*
X11717981Y-12921044D01*
X11717981Y-12921044D02*
X11737029Y-12930567D01*
X11737029Y-12930567D02*
X11746552Y-12940091D01*
X11746552Y-12940091D02*
X11756076Y-12959139D01*
X11756076Y-12959139D02*
X11756076Y-13006758D01*
X11756076Y-13006758D02*
X11746552Y-13025806D01*
X11746552Y-13025806D02*
X11737029Y-13035329D01*
X11737029Y-13035329D02*
X11717981Y-13044853D01*
X11717981Y-13044853D02*
X11660838Y-13044853D01*
X11660838Y-13044853D02*
X11641790Y-13035329D01*
X11641790Y-13035329D02*
X11632267Y-13025806D01*
X11851314Y-13044853D02*
X11889409Y-13044853D01*
X11889409Y-13044853D02*
X11908457Y-13035329D01*
X11908457Y-13035329D02*
X11917981Y-13025806D01*
X11917981Y-13025806D02*
X11937029Y-12997234D01*
X11937029Y-12997234D02*
X11946552Y-12959139D01*
X11946552Y-12959139D02*
X11946552Y-12882948D01*
X11946552Y-12882948D02*
X11937029Y-12863901D01*
X11937029Y-12863901D02*
X11927505Y-12854377D01*
X11927505Y-12854377D02*
X11908457Y-12844853D01*
X11908457Y-12844853D02*
X11870362Y-12844853D01*
X11870362Y-12844853D02*
X11851314Y-12854377D01*
X11851314Y-12854377D02*
X11841790Y-12863901D01*
X11841790Y-12863901D02*
X11832267Y-12882948D01*
X11832267Y-12882948D02*
X11832267Y-12930567D01*
X11832267Y-12930567D02*
X11841790Y-12949615D01*
X11841790Y-12949615D02*
X11851314Y-12959139D01*
X11851314Y-12959139D02*
X11870362Y-12968663D01*
X11870362Y-12968663D02*
X11908457Y-12968663D01*
X11908457Y-12968663D02*
X11927505Y-12959139D01*
X11927505Y-12959139D02*
X11937029Y-12949615D01*
X11937029Y-12949615D02*
X11946552Y-12930567D01*
X12117981Y-12911520D02*
X12117981Y-13044853D01*
X12070362Y-12835329D02*
X12022743Y-12978187D01*
X12022743Y-12978187D02*
X12146552Y-12978187D01*
X12213219Y-12844853D02*
X12213219Y-12882948D01*
X12289410Y-12844853D02*
X12289410Y-12882948D01*
X12584648Y-13121044D02*
X12575124Y-13111520D01*
X12575124Y-13111520D02*
X12556076Y-13082948D01*
X12556076Y-13082948D02*
X12546552Y-13063901D01*
X12546552Y-13063901D02*
X12537029Y-13035329D01*
X12537029Y-13035329D02*
X12527505Y-12987710D01*
X12527505Y-12987710D02*
X12527505Y-12949615D01*
X12527505Y-12949615D02*
X12537029Y-12901996D01*
X12537029Y-12901996D02*
X12546552Y-12873425D01*
X12546552Y-12873425D02*
X12556076Y-12854377D01*
X12556076Y-12854377D02*
X12575124Y-12825806D01*
X12575124Y-12825806D02*
X12584648Y-12816282D01*
X12651314Y-12863901D02*
X12660838Y-12854377D01*
X12660838Y-12854377D02*
X12679886Y-12844853D01*
X12679886Y-12844853D02*
X12727505Y-12844853D01*
X12727505Y-12844853D02*
X12746552Y-12854377D01*
X12746552Y-12854377D02*
X12756076Y-12863901D01*
X12756076Y-12863901D02*
X12765600Y-12882948D01*
X12765600Y-12882948D02*
X12765600Y-12901996D01*
X12765600Y-12901996D02*
X12756076Y-12930567D01*
X12756076Y-12930567D02*
X12641791Y-13044853D01*
X12641791Y-13044853D02*
X12765600Y-13044853D01*
X13003695Y-13044853D02*
X13003695Y-12844853D01*
X13089410Y-13044853D02*
X13089410Y-12940091D01*
X13089410Y-12940091D02*
X13079886Y-12921044D01*
X13079886Y-12921044D02*
X13060838Y-12911520D01*
X13060838Y-12911520D02*
X13032267Y-12911520D01*
X13032267Y-12911520D02*
X13013219Y-12921044D01*
X13013219Y-12921044D02*
X13003695Y-12930567D01*
X13213219Y-13044853D02*
X13194172Y-13035329D01*
X13194172Y-13035329D02*
X13184648Y-13025806D01*
X13184648Y-13025806D02*
X13175124Y-13006758D01*
X13175124Y-13006758D02*
X13175124Y-12949615D01*
X13175124Y-12949615D02*
X13184648Y-12930567D01*
X13184648Y-12930567D02*
X13194172Y-12921044D01*
X13194172Y-12921044D02*
X13213219Y-12911520D01*
X13213219Y-12911520D02*
X13241791Y-12911520D01*
X13241791Y-12911520D02*
X13260838Y-12921044D01*
X13260838Y-12921044D02*
X13270362Y-12930567D01*
X13270362Y-12930567D02*
X13279886Y-12949615D01*
X13279886Y-12949615D02*
X13279886Y-13006758D01*
X13279886Y-13006758D02*
X13270362Y-13025806D01*
X13270362Y-13025806D02*
X13260838Y-13035329D01*
X13260838Y-13035329D02*
X13241791Y-13044853D01*
X13241791Y-13044853D02*
X13213219Y-13044853D01*
X13394172Y-13044853D02*
X13375124Y-13035329D01*
X13375124Y-13035329D02*
X13365600Y-13016282D01*
X13365600Y-13016282D02*
X13365600Y-12844853D01*
X13546553Y-13035329D02*
X13527505Y-13044853D01*
X13527505Y-13044853D02*
X13489410Y-13044853D01*
X13489410Y-13044853D02*
X13470362Y-13035329D01*
X13470362Y-13035329D02*
X13460838Y-13016282D01*
X13460838Y-13016282D02*
X13460838Y-12940091D01*
X13460838Y-12940091D02*
X13470362Y-12921044D01*
X13470362Y-12921044D02*
X13489410Y-12911520D01*
X13489410Y-12911520D02*
X13527505Y-12911520D01*
X13527505Y-12911520D02*
X13546553Y-12921044D01*
X13546553Y-12921044D02*
X13556076Y-12940091D01*
X13556076Y-12940091D02*
X13556076Y-12959139D01*
X13556076Y-12959139D02*
X13460838Y-12978187D01*
X13632267Y-13035329D02*
X13651314Y-13044853D01*
X13651314Y-13044853D02*
X13689410Y-13044853D01*
X13689410Y-13044853D02*
X13708457Y-13035329D01*
X13708457Y-13035329D02*
X13717981Y-13016282D01*
X13717981Y-13016282D02*
X13717981Y-13006758D01*
X13717981Y-13006758D02*
X13708457Y-12987710D01*
X13708457Y-12987710D02*
X13689410Y-12978187D01*
X13689410Y-12978187D02*
X13660838Y-12978187D01*
X13660838Y-12978187D02*
X13641791Y-12968663D01*
X13641791Y-12968663D02*
X13632267Y-12949615D01*
X13632267Y-12949615D02*
X13632267Y-12940091D01*
X13632267Y-12940091D02*
X13641791Y-12921044D01*
X13641791Y-12921044D02*
X13660838Y-12911520D01*
X13660838Y-12911520D02*
X13689410Y-12911520D01*
X13689410Y-12911520D02*
X13708457Y-12921044D01*
X13784648Y-13121044D02*
X13794172Y-13111520D01*
X13794172Y-13111520D02*
X13813219Y-13082948D01*
X13813219Y-13082948D02*
X13822743Y-13063901D01*
X13822743Y-13063901D02*
X13832267Y-13035329D01*
X13832267Y-13035329D02*
X13841791Y-12987710D01*
X13841791Y-12987710D02*
X13841791Y-12949615D01*
X13841791Y-12949615D02*
X13832267Y-12901996D01*
X13832267Y-12901996D02*
X13822743Y-12873425D01*
X13822743Y-12873425D02*
X13813219Y-12854377D01*
X13813219Y-12854377D02*
X13794172Y-12825806D01*
X13794172Y-12825806D02*
X13784648Y-12816282D01*
X14146553Y-13121044D02*
X14137029Y-13111520D01*
X14137029Y-13111520D02*
X14117981Y-13082948D01*
X14117981Y-13082948D02*
X14108457Y-13063901D01*
X14108457Y-13063901D02*
X14098934Y-13035329D01*
X14098934Y-13035329D02*
X14089410Y-12987710D01*
X14089410Y-12987710D02*
X14089410Y-12949615D01*
X14089410Y-12949615D02*
X14098934Y-12901996D01*
X14098934Y-12901996D02*
X14108457Y-12873425D01*
X14108457Y-12873425D02*
X14117981Y-12854377D01*
X14117981Y-12854377D02*
X14137029Y-12825806D01*
X14137029Y-12825806D02*
X14146553Y-12816282D01*
X14222743Y-12911520D02*
X14222743Y-13044853D01*
X14222743Y-12930567D02*
X14232267Y-12921044D01*
X14232267Y-12921044D02*
X14251314Y-12911520D01*
X14251314Y-12911520D02*
X14279886Y-12911520D01*
X14279886Y-12911520D02*
X14298934Y-12921044D01*
X14298934Y-12921044D02*
X14308457Y-12940091D01*
X14308457Y-12940091D02*
X14308457Y-13044853D01*
X14432267Y-13044853D02*
X14413219Y-13035329D01*
X14413219Y-13035329D02*
X14403695Y-13025806D01*
X14403695Y-13025806D02*
X14394172Y-13006758D01*
X14394172Y-13006758D02*
X14394172Y-12949615D01*
X14394172Y-12949615D02*
X14403695Y-12930567D01*
X14403695Y-12930567D02*
X14413219Y-12921044D01*
X14413219Y-12921044D02*
X14432267Y-12911520D01*
X14432267Y-12911520D02*
X14460838Y-12911520D01*
X14460838Y-12911520D02*
X14479886Y-12921044D01*
X14479886Y-12921044D02*
X14489410Y-12930567D01*
X14489410Y-12930567D02*
X14498934Y-12949615D01*
X14498934Y-12949615D02*
X14498934Y-13006758D01*
X14498934Y-13006758D02*
X14489410Y-13025806D01*
X14489410Y-13025806D02*
X14479886Y-13035329D01*
X14479886Y-13035329D02*
X14460838Y-13044853D01*
X14460838Y-13044853D02*
X14432267Y-13044853D01*
X14556076Y-12911520D02*
X14632267Y-12911520D01*
X14584648Y-12844853D02*
X14584648Y-13016282D01*
X14584648Y-13016282D02*
X14594172Y-13035329D01*
X14594172Y-13035329D02*
X14613219Y-13044853D01*
X14613219Y-13044853D02*
X14632267Y-13044853D01*
X14851315Y-12911520D02*
X14851315Y-13111520D01*
X14851315Y-12921044D02*
X14870362Y-12911520D01*
X14870362Y-12911520D02*
X14908457Y-12911520D01*
X14908457Y-12911520D02*
X14927505Y-12921044D01*
X14927505Y-12921044D02*
X14937029Y-12930567D01*
X14937029Y-12930567D02*
X14946553Y-12949615D01*
X14946553Y-12949615D02*
X14946553Y-13006758D01*
X14946553Y-13006758D02*
X14937029Y-13025806D01*
X14937029Y-13025806D02*
X14927505Y-13035329D01*
X14927505Y-13035329D02*
X14908457Y-13044853D01*
X14908457Y-13044853D02*
X14870362Y-13044853D01*
X14870362Y-13044853D02*
X14851315Y-13035329D01*
X15060838Y-13044853D02*
X15041791Y-13035329D01*
X15041791Y-13035329D02*
X15032267Y-13016282D01*
X15032267Y-13016282D02*
X15032267Y-12844853D01*
X15222743Y-13044853D02*
X15222743Y-12940091D01*
X15222743Y-12940091D02*
X15213219Y-12921044D01*
X15213219Y-12921044D02*
X15194172Y-12911520D01*
X15194172Y-12911520D02*
X15156076Y-12911520D01*
X15156076Y-12911520D02*
X15137029Y-12921044D01*
X15222743Y-13035329D02*
X15203696Y-13044853D01*
X15203696Y-13044853D02*
X15156076Y-13044853D01*
X15156076Y-13044853D02*
X15137029Y-13035329D01*
X15137029Y-13035329D02*
X15127505Y-13016282D01*
X15127505Y-13016282D02*
X15127505Y-12997234D01*
X15127505Y-12997234D02*
X15137029Y-12978187D01*
X15137029Y-12978187D02*
X15156076Y-12968663D01*
X15156076Y-12968663D02*
X15203696Y-12968663D01*
X15203696Y-12968663D02*
X15222743Y-12959139D01*
X15289410Y-12911520D02*
X15365600Y-12911520D01*
X15317981Y-12844853D02*
X15317981Y-13016282D01*
X15317981Y-13016282D02*
X15327505Y-13035329D01*
X15327505Y-13035329D02*
X15346553Y-13044853D01*
X15346553Y-13044853D02*
X15365600Y-13044853D01*
X15508457Y-13035329D02*
X15489410Y-13044853D01*
X15489410Y-13044853D02*
X15451315Y-13044853D01*
X15451315Y-13044853D02*
X15432267Y-13035329D01*
X15432267Y-13035329D02*
X15422743Y-13016282D01*
X15422743Y-13016282D02*
X15422743Y-12940091D01*
X15422743Y-12940091D02*
X15432267Y-12921044D01*
X15432267Y-12921044D02*
X15451315Y-12911520D01*
X15451315Y-12911520D02*
X15489410Y-12911520D01*
X15489410Y-12911520D02*
X15508457Y-12921044D01*
X15508457Y-12921044D02*
X15517981Y-12940091D01*
X15517981Y-12940091D02*
X15517981Y-12959139D01*
X15517981Y-12959139D02*
X15422743Y-12978187D01*
X15689410Y-13044853D02*
X15689410Y-12844853D01*
X15689410Y-13035329D02*
X15670362Y-13044853D01*
X15670362Y-13044853D02*
X15632267Y-13044853D01*
X15632267Y-13044853D02*
X15613219Y-13035329D01*
X15613219Y-13035329D02*
X15603696Y-13025806D01*
X15603696Y-13025806D02*
X15594172Y-13006758D01*
X15594172Y-13006758D02*
X15594172Y-12949615D01*
X15594172Y-12949615D02*
X15603696Y-12930567D01*
X15603696Y-12930567D02*
X15613219Y-12921044D01*
X15613219Y-12921044D02*
X15632267Y-12911520D01*
X15632267Y-12911520D02*
X15670362Y-12911520D01*
X15670362Y-12911520D02*
X15689410Y-12921044D01*
X15765600Y-13121044D02*
X15775124Y-13111520D01*
X15775124Y-13111520D02*
X15794172Y-13082948D01*
X15794172Y-13082948D02*
X15803696Y-13063901D01*
X15803696Y-13063901D02*
X15813219Y-13035329D01*
X15813219Y-13035329D02*
X15822743Y-12987710D01*
X15822743Y-12987710D02*
X15822743Y-12949615D01*
X15822743Y-12949615D02*
X15813219Y-12901996D01*
X15813219Y-12901996D02*
X15803696Y-12873425D01*
X15803696Y-12873425D02*
X15794172Y-12854377D01*
X15794172Y-12854377D02*
X15775124Y-12825806D01*
X15775124Y-12825806D02*
X15765600Y-12816282D01*
X9009585Y-13217369D02*
G75*
G02*
X8809585Y-13217369I-100000J0D01*
G01*
X8809585Y-13217369D02*
G75*
G02*
X9009585Y-13217369I100000J0D01*
G01*
X9260838Y-13127901D02*
X9270362Y-13118377D01*
X9270362Y-13118377D02*
X9289409Y-13108853D01*
X9289409Y-13108853D02*
X9337028Y-13108853D01*
X9337028Y-13108853D02*
X9356076Y-13118377D01*
X9356076Y-13118377D02*
X9365600Y-13127901D01*
X9365600Y-13127901D02*
X9375124Y-13146948D01*
X9375124Y-13146948D02*
X9375124Y-13165996D01*
X9375124Y-13165996D02*
X9365600Y-13194567D01*
X9365600Y-13194567D02*
X9251314Y-13308853D01*
X9251314Y-13308853D02*
X9375124Y-13308853D01*
X9460838Y-13289806D02*
X9470362Y-13299329D01*
X9470362Y-13299329D02*
X9460838Y-13308853D01*
X9460838Y-13308853D02*
X9451314Y-13299329D01*
X9451314Y-13299329D02*
X9460838Y-13289806D01*
X9460838Y-13289806D02*
X9460838Y-13308853D01*
X9651314Y-13108853D02*
X9556076Y-13108853D01*
X9556076Y-13108853D02*
X9546552Y-13204091D01*
X9546552Y-13204091D02*
X9556076Y-13194567D01*
X9556076Y-13194567D02*
X9575124Y-13185044D01*
X9575124Y-13185044D02*
X9622743Y-13185044D01*
X9622743Y-13185044D02*
X9641790Y-13194567D01*
X9641790Y-13194567D02*
X9651314Y-13204091D01*
X9651314Y-13204091D02*
X9660838Y-13223139D01*
X9660838Y-13223139D02*
X9660838Y-13270758D01*
X9660838Y-13270758D02*
X9651314Y-13289806D01*
X9651314Y-13289806D02*
X9641790Y-13299329D01*
X9641790Y-13299329D02*
X9622743Y-13308853D01*
X9622743Y-13308853D02*
X9575124Y-13308853D01*
X9575124Y-13308853D02*
X9556076Y-13299329D01*
X9556076Y-13299329D02*
X9546552Y-13289806D01*
X9784647Y-13108853D02*
X9803695Y-13108853D01*
X9803695Y-13108853D02*
X9822743Y-13118377D01*
X9822743Y-13118377D02*
X9832267Y-13127901D01*
X9832267Y-13127901D02*
X9841790Y-13146948D01*
X9841790Y-13146948D02*
X9851314Y-13185044D01*
X9851314Y-13185044D02*
X9851314Y-13232663D01*
X9851314Y-13232663D02*
X9841790Y-13270758D01*
X9841790Y-13270758D02*
X9832267Y-13289806D01*
X9832267Y-13289806D02*
X9822743Y-13299329D01*
X9822743Y-13299329D02*
X9803695Y-13308853D01*
X9803695Y-13308853D02*
X9784647Y-13308853D01*
X9784647Y-13308853D02*
X9765600Y-13299329D01*
X9765600Y-13299329D02*
X9756076Y-13289806D01*
X9756076Y-13289806D02*
X9746552Y-13270758D01*
X9746552Y-13270758D02*
X9737028Y-13232663D01*
X9737028Y-13232663D02*
X9737028Y-13185044D01*
X9737028Y-13185044D02*
X9746552Y-13146948D01*
X9746552Y-13146948D02*
X9756076Y-13127901D01*
X9756076Y-13127901D02*
X9765600Y-13118377D01*
X9765600Y-13118377D02*
X9784647Y-13108853D01*
X9975124Y-13108853D02*
X9994171Y-13108853D01*
X9994171Y-13108853D02*
X10013219Y-13118377D01*
X10013219Y-13118377D02*
X10022743Y-13127901D01*
X10022743Y-13127901D02*
X10032267Y-13146948D01*
X10032267Y-13146948D02*
X10041790Y-13185044D01*
X10041790Y-13185044D02*
X10041790Y-13232663D01*
X10041790Y-13232663D02*
X10032267Y-13270758D01*
X10032267Y-13270758D02*
X10022743Y-13289806D01*
X10022743Y-13289806D02*
X10013219Y-13299329D01*
X10013219Y-13299329D02*
X9994171Y-13308853D01*
X9994171Y-13308853D02*
X9975124Y-13308853D01*
X9975124Y-13308853D02*
X9956076Y-13299329D01*
X9956076Y-13299329D02*
X9946552Y-13289806D01*
X9946552Y-13289806D02*
X9937028Y-13270758D01*
X9937028Y-13270758D02*
X9927505Y-13232663D01*
X9927505Y-13232663D02*
X9927505Y-13185044D01*
X9927505Y-13185044D02*
X9937028Y-13146948D01*
X9937028Y-13146948D02*
X9946552Y-13127901D01*
X9946552Y-13127901D02*
X9956076Y-13118377D01*
X9956076Y-13118377D02*
X9975124Y-13108853D01*
X10127505Y-13308853D02*
X10127505Y-13175520D01*
X10127505Y-13194567D02*
X10137028Y-13185044D01*
X10137028Y-13185044D02*
X10156076Y-13175520D01*
X10156076Y-13175520D02*
X10184648Y-13175520D01*
X10184648Y-13175520D02*
X10203695Y-13185044D01*
X10203695Y-13185044D02*
X10213219Y-13204091D01*
X10213219Y-13204091D02*
X10213219Y-13308853D01*
X10213219Y-13204091D02*
X10222743Y-13185044D01*
X10222743Y-13185044D02*
X10241790Y-13175520D01*
X10241790Y-13175520D02*
X10270362Y-13175520D01*
X10270362Y-13175520D02*
X10289409Y-13185044D01*
X10289409Y-13185044D02*
X10298933Y-13204091D01*
X10298933Y-13204091D02*
X10298933Y-13308853D01*
X10394171Y-13308853D02*
X10394171Y-13175520D01*
X10394171Y-13194567D02*
X10403695Y-13185044D01*
X10403695Y-13185044D02*
X10422743Y-13175520D01*
X10422743Y-13175520D02*
X10451314Y-13175520D01*
X10451314Y-13175520D02*
X10470362Y-13185044D01*
X10470362Y-13185044D02*
X10479886Y-13204091D01*
X10479886Y-13204091D02*
X10479886Y-13308853D01*
X10479886Y-13204091D02*
X10489409Y-13185044D01*
X10489409Y-13185044D02*
X10508457Y-13175520D01*
X10508457Y-13175520D02*
X10537028Y-13175520D01*
X10537028Y-13175520D02*
X10556076Y-13185044D01*
X10556076Y-13185044D02*
X10565600Y-13204091D01*
X10565600Y-13204091D02*
X10565600Y-13308853D01*
X10956076Y-13099329D02*
X10784648Y-13356472D01*
X11213219Y-13108853D02*
X11232267Y-13108853D01*
X11232267Y-13108853D02*
X11251314Y-13118377D01*
X11251314Y-13118377D02*
X11260838Y-13127901D01*
X11260838Y-13127901D02*
X11270362Y-13146948D01*
X11270362Y-13146948D02*
X11279886Y-13185044D01*
X11279886Y-13185044D02*
X11279886Y-13232663D01*
X11279886Y-13232663D02*
X11270362Y-13270758D01*
X11270362Y-13270758D02*
X11260838Y-13289806D01*
X11260838Y-13289806D02*
X11251314Y-13299329D01*
X11251314Y-13299329D02*
X11232267Y-13308853D01*
X11232267Y-13308853D02*
X11213219Y-13308853D01*
X11213219Y-13308853D02*
X11194171Y-13299329D01*
X11194171Y-13299329D02*
X11184648Y-13289806D01*
X11184648Y-13289806D02*
X11175124Y-13270758D01*
X11175124Y-13270758D02*
X11165600Y-13232663D01*
X11165600Y-13232663D02*
X11165600Y-13185044D01*
X11165600Y-13185044D02*
X11175124Y-13146948D01*
X11175124Y-13146948D02*
X11184648Y-13127901D01*
X11184648Y-13127901D02*
X11194171Y-13118377D01*
X11194171Y-13118377D02*
X11213219Y-13108853D01*
X11365600Y-13289806D02*
X11375124Y-13299329D01*
X11375124Y-13299329D02*
X11365600Y-13308853D01*
X11365600Y-13308853D02*
X11356076Y-13299329D01*
X11356076Y-13299329D02*
X11365600Y-13289806D01*
X11365600Y-13289806D02*
X11365600Y-13308853D01*
X11498933Y-13108853D02*
X11517981Y-13108853D01*
X11517981Y-13108853D02*
X11537029Y-13118377D01*
X11537029Y-13118377D02*
X11546552Y-13127901D01*
X11546552Y-13127901D02*
X11556076Y-13146948D01*
X11556076Y-13146948D02*
X11565600Y-13185044D01*
X11565600Y-13185044D02*
X11565600Y-13232663D01*
X11565600Y-13232663D02*
X11556076Y-13270758D01*
X11556076Y-13270758D02*
X11546552Y-13289806D01*
X11546552Y-13289806D02*
X11537029Y-13299329D01*
X11537029Y-13299329D02*
X11517981Y-13308853D01*
X11517981Y-13308853D02*
X11498933Y-13308853D01*
X11498933Y-13308853D02*
X11479886Y-13299329D01*
X11479886Y-13299329D02*
X11470362Y-13289806D01*
X11470362Y-13289806D02*
X11460838Y-13270758D01*
X11460838Y-13270758D02*
X11451314Y-13232663D01*
X11451314Y-13232663D02*
X11451314Y-13185044D01*
X11451314Y-13185044D02*
X11460838Y-13146948D01*
X11460838Y-13146948D02*
X11470362Y-13127901D01*
X11470362Y-13127901D02*
X11479886Y-13118377D01*
X11479886Y-13118377D02*
X11498933Y-13108853D01*
X11660838Y-13308853D02*
X11698933Y-13308853D01*
X11698933Y-13308853D02*
X11717981Y-13299329D01*
X11717981Y-13299329D02*
X11727505Y-13289806D01*
X11727505Y-13289806D02*
X11746552Y-13261234D01*
X11746552Y-13261234D02*
X11756076Y-13223139D01*
X11756076Y-13223139D02*
X11756076Y-13146948D01*
X11756076Y-13146948D02*
X11746552Y-13127901D01*
X11746552Y-13127901D02*
X11737029Y-13118377D01*
X11737029Y-13118377D02*
X11717981Y-13108853D01*
X11717981Y-13108853D02*
X11679886Y-13108853D01*
X11679886Y-13108853D02*
X11660838Y-13118377D01*
X11660838Y-13118377D02*
X11651314Y-13127901D01*
X11651314Y-13127901D02*
X11641790Y-13146948D01*
X11641790Y-13146948D02*
X11641790Y-13194567D01*
X11641790Y-13194567D02*
X11651314Y-13213615D01*
X11651314Y-13213615D02*
X11660838Y-13223139D01*
X11660838Y-13223139D02*
X11679886Y-13232663D01*
X11679886Y-13232663D02*
X11717981Y-13232663D01*
X11717981Y-13232663D02*
X11737029Y-13223139D01*
X11737029Y-13223139D02*
X11746552Y-13213615D01*
X11746552Y-13213615D02*
X11756076Y-13194567D01*
X11870362Y-13194567D02*
X11851314Y-13185044D01*
X11851314Y-13185044D02*
X11841790Y-13175520D01*
X11841790Y-13175520D02*
X11832267Y-13156472D01*
X11832267Y-13156472D02*
X11832267Y-13146948D01*
X11832267Y-13146948D02*
X11841790Y-13127901D01*
X11841790Y-13127901D02*
X11851314Y-13118377D01*
X11851314Y-13118377D02*
X11870362Y-13108853D01*
X11870362Y-13108853D02*
X11908457Y-13108853D01*
X11908457Y-13108853D02*
X11927505Y-13118377D01*
X11927505Y-13118377D02*
X11937029Y-13127901D01*
X11937029Y-13127901D02*
X11946552Y-13146948D01*
X11946552Y-13146948D02*
X11946552Y-13156472D01*
X11946552Y-13156472D02*
X11937029Y-13175520D01*
X11937029Y-13175520D02*
X11927505Y-13185044D01*
X11927505Y-13185044D02*
X11908457Y-13194567D01*
X11908457Y-13194567D02*
X11870362Y-13194567D01*
X11870362Y-13194567D02*
X11851314Y-13204091D01*
X11851314Y-13204091D02*
X11841790Y-13213615D01*
X11841790Y-13213615D02*
X11832267Y-13232663D01*
X11832267Y-13232663D02*
X11832267Y-13270758D01*
X11832267Y-13270758D02*
X11841790Y-13289806D01*
X11841790Y-13289806D02*
X11851314Y-13299329D01*
X11851314Y-13299329D02*
X11870362Y-13308853D01*
X11870362Y-13308853D02*
X11908457Y-13308853D01*
X11908457Y-13308853D02*
X11927505Y-13299329D01*
X11927505Y-13299329D02*
X11937029Y-13289806D01*
X11937029Y-13289806D02*
X11946552Y-13270758D01*
X11946552Y-13270758D02*
X11946552Y-13232663D01*
X11946552Y-13232663D02*
X11937029Y-13213615D01*
X11937029Y-13213615D02*
X11927505Y-13204091D01*
X11927505Y-13204091D02*
X11908457Y-13194567D01*
X12117981Y-13175520D02*
X12117981Y-13308853D01*
X12070362Y-13099329D02*
X12022743Y-13242187D01*
X12022743Y-13242187D02*
X12146552Y-13242187D01*
X12213219Y-13108853D02*
X12213219Y-13146948D01*
X12289410Y-13108853D02*
X12289410Y-13146948D01*
X12584648Y-13385044D02*
X12575124Y-13375520D01*
X12575124Y-13375520D02*
X12556076Y-13346948D01*
X12556076Y-13346948D02*
X12546552Y-13327901D01*
X12546552Y-13327901D02*
X12537029Y-13299329D01*
X12537029Y-13299329D02*
X12527505Y-13251710D01*
X12527505Y-13251710D02*
X12527505Y-13213615D01*
X12527505Y-13213615D02*
X12537029Y-13165996D01*
X12537029Y-13165996D02*
X12546552Y-13137425D01*
X12546552Y-13137425D02*
X12556076Y-13118377D01*
X12556076Y-13118377D02*
X12575124Y-13089806D01*
X12575124Y-13089806D02*
X12584648Y-13080282D01*
X12746552Y-13175520D02*
X12746552Y-13308853D01*
X12698933Y-13099329D02*
X12651314Y-13242187D01*
X12651314Y-13242187D02*
X12775124Y-13242187D01*
X13003695Y-13308853D02*
X13003695Y-13108853D01*
X13089410Y-13308853D02*
X13089410Y-13204091D01*
X13089410Y-13204091D02*
X13079886Y-13185044D01*
X13079886Y-13185044D02*
X13060838Y-13175520D01*
X13060838Y-13175520D02*
X13032267Y-13175520D01*
X13032267Y-13175520D02*
X13013219Y-13185044D01*
X13013219Y-13185044D02*
X13003695Y-13194567D01*
X13213219Y-13308853D02*
X13194172Y-13299329D01*
X13194172Y-13299329D02*
X13184648Y-13289806D01*
X13184648Y-13289806D02*
X13175124Y-13270758D01*
X13175124Y-13270758D02*
X13175124Y-13213615D01*
X13175124Y-13213615D02*
X13184648Y-13194567D01*
X13184648Y-13194567D02*
X13194172Y-13185044D01*
X13194172Y-13185044D02*
X13213219Y-13175520D01*
X13213219Y-13175520D02*
X13241791Y-13175520D01*
X13241791Y-13175520D02*
X13260838Y-13185044D01*
X13260838Y-13185044D02*
X13270362Y-13194567D01*
X13270362Y-13194567D02*
X13279886Y-13213615D01*
X13279886Y-13213615D02*
X13279886Y-13270758D01*
X13279886Y-13270758D02*
X13270362Y-13289806D01*
X13270362Y-13289806D02*
X13260838Y-13299329D01*
X13260838Y-13299329D02*
X13241791Y-13308853D01*
X13241791Y-13308853D02*
X13213219Y-13308853D01*
X13394172Y-13308853D02*
X13375124Y-13299329D01*
X13375124Y-13299329D02*
X13365600Y-13280282D01*
X13365600Y-13280282D02*
X13365600Y-13108853D01*
X13546553Y-13299329D02*
X13527505Y-13308853D01*
X13527505Y-13308853D02*
X13489410Y-13308853D01*
X13489410Y-13308853D02*
X13470362Y-13299329D01*
X13470362Y-13299329D02*
X13460838Y-13280282D01*
X13460838Y-13280282D02*
X13460838Y-13204091D01*
X13460838Y-13204091D02*
X13470362Y-13185044D01*
X13470362Y-13185044D02*
X13489410Y-13175520D01*
X13489410Y-13175520D02*
X13527505Y-13175520D01*
X13527505Y-13175520D02*
X13546553Y-13185044D01*
X13546553Y-13185044D02*
X13556076Y-13204091D01*
X13556076Y-13204091D02*
X13556076Y-13223139D01*
X13556076Y-13223139D02*
X13460838Y-13242187D01*
X13632267Y-13299329D02*
X13651314Y-13308853D01*
X13651314Y-13308853D02*
X13689410Y-13308853D01*
X13689410Y-13308853D02*
X13708457Y-13299329D01*
X13708457Y-13299329D02*
X13717981Y-13280282D01*
X13717981Y-13280282D02*
X13717981Y-13270758D01*
X13717981Y-13270758D02*
X13708457Y-13251710D01*
X13708457Y-13251710D02*
X13689410Y-13242187D01*
X13689410Y-13242187D02*
X13660838Y-13242187D01*
X13660838Y-13242187D02*
X13641791Y-13232663D01*
X13641791Y-13232663D02*
X13632267Y-13213615D01*
X13632267Y-13213615D02*
X13632267Y-13204091D01*
X13632267Y-13204091D02*
X13641791Y-13185044D01*
X13641791Y-13185044D02*
X13660838Y-13175520D01*
X13660838Y-13175520D02*
X13689410Y-13175520D01*
X13689410Y-13175520D02*
X13708457Y-13185044D01*
X13784648Y-13385044D02*
X13794172Y-13375520D01*
X13794172Y-13375520D02*
X13813219Y-13346948D01*
X13813219Y-13346948D02*
X13822743Y-13327901D01*
X13822743Y-13327901D02*
X13832267Y-13299329D01*
X13832267Y-13299329D02*
X13841791Y-13251710D01*
X13841791Y-13251710D02*
X13841791Y-13213615D01*
X13841791Y-13213615D02*
X13832267Y-13165996D01*
X13832267Y-13165996D02*
X13822743Y-13137425D01*
X13822743Y-13137425D02*
X13813219Y-13118377D01*
X13813219Y-13118377D02*
X13794172Y-13089806D01*
X13794172Y-13089806D02*
X13784648Y-13080282D01*
X14146553Y-13385044D02*
X14137029Y-13375520D01*
X14137029Y-13375520D02*
X14117981Y-13346948D01*
X14117981Y-13346948D02*
X14108457Y-13327901D01*
X14108457Y-13327901D02*
X14098934Y-13299329D01*
X14098934Y-13299329D02*
X14089410Y-13251710D01*
X14089410Y-13251710D02*
X14089410Y-13213615D01*
X14089410Y-13213615D02*
X14098934Y-13165996D01*
X14098934Y-13165996D02*
X14108457Y-13137425D01*
X14108457Y-13137425D02*
X14117981Y-13118377D01*
X14117981Y-13118377D02*
X14137029Y-13089806D01*
X14137029Y-13089806D02*
X14146553Y-13080282D01*
X14222743Y-13175520D02*
X14222743Y-13308853D01*
X14222743Y-13194567D02*
X14232267Y-13185044D01*
X14232267Y-13185044D02*
X14251314Y-13175520D01*
X14251314Y-13175520D02*
X14279886Y-13175520D01*
X14279886Y-13175520D02*
X14298934Y-13185044D01*
X14298934Y-13185044D02*
X14308457Y-13204091D01*
X14308457Y-13204091D02*
X14308457Y-13308853D01*
X14432267Y-13308853D02*
X14413219Y-13299329D01*
X14413219Y-13299329D02*
X14403695Y-13289806D01*
X14403695Y-13289806D02*
X14394172Y-13270758D01*
X14394172Y-13270758D02*
X14394172Y-13213615D01*
X14394172Y-13213615D02*
X14403695Y-13194567D01*
X14403695Y-13194567D02*
X14413219Y-13185044D01*
X14413219Y-13185044D02*
X14432267Y-13175520D01*
X14432267Y-13175520D02*
X14460838Y-13175520D01*
X14460838Y-13175520D02*
X14479886Y-13185044D01*
X14479886Y-13185044D02*
X14489410Y-13194567D01*
X14489410Y-13194567D02*
X14498934Y-13213615D01*
X14498934Y-13213615D02*
X14498934Y-13270758D01*
X14498934Y-13270758D02*
X14489410Y-13289806D01*
X14489410Y-13289806D02*
X14479886Y-13299329D01*
X14479886Y-13299329D02*
X14460838Y-13308853D01*
X14460838Y-13308853D02*
X14432267Y-13308853D01*
X14556076Y-13175520D02*
X14632267Y-13175520D01*
X14584648Y-13108853D02*
X14584648Y-13280282D01*
X14584648Y-13280282D02*
X14594172Y-13299329D01*
X14594172Y-13299329D02*
X14613219Y-13308853D01*
X14613219Y-13308853D02*
X14632267Y-13308853D01*
X14851315Y-13175520D02*
X14851315Y-13375520D01*
X14851315Y-13185044D02*
X14870362Y-13175520D01*
X14870362Y-13175520D02*
X14908457Y-13175520D01*
X14908457Y-13175520D02*
X14927505Y-13185044D01*
X14927505Y-13185044D02*
X14937029Y-13194567D01*
X14937029Y-13194567D02*
X14946553Y-13213615D01*
X14946553Y-13213615D02*
X14946553Y-13270758D01*
X14946553Y-13270758D02*
X14937029Y-13289806D01*
X14937029Y-13289806D02*
X14927505Y-13299329D01*
X14927505Y-13299329D02*
X14908457Y-13308853D01*
X14908457Y-13308853D02*
X14870362Y-13308853D01*
X14870362Y-13308853D02*
X14851315Y-13299329D01*
X15060838Y-13308853D02*
X15041791Y-13299329D01*
X15041791Y-13299329D02*
X15032267Y-13280282D01*
X15032267Y-13280282D02*
X15032267Y-13108853D01*
X15222743Y-13308853D02*
X15222743Y-13204091D01*
X15222743Y-13204091D02*
X15213219Y-13185044D01*
X15213219Y-13185044D02*
X15194172Y-13175520D01*
X15194172Y-13175520D02*
X15156076Y-13175520D01*
X15156076Y-13175520D02*
X15137029Y-13185044D01*
X15222743Y-13299329D02*
X15203696Y-13308853D01*
X15203696Y-13308853D02*
X15156076Y-13308853D01*
X15156076Y-13308853D02*
X15137029Y-13299329D01*
X15137029Y-13299329D02*
X15127505Y-13280282D01*
X15127505Y-13280282D02*
X15127505Y-13261234D01*
X15127505Y-13261234D02*
X15137029Y-13242187D01*
X15137029Y-13242187D02*
X15156076Y-13232663D01*
X15156076Y-13232663D02*
X15203696Y-13232663D01*
X15203696Y-13232663D02*
X15222743Y-13223139D01*
X15289410Y-13175520D02*
X15365600Y-13175520D01*
X15317981Y-13108853D02*
X15317981Y-13280282D01*
X15317981Y-13280282D02*
X15327505Y-13299329D01*
X15327505Y-13299329D02*
X15346553Y-13308853D01*
X15346553Y-13308853D02*
X15365600Y-13308853D01*
X15508457Y-13299329D02*
X15489410Y-13308853D01*
X15489410Y-13308853D02*
X15451315Y-13308853D01*
X15451315Y-13308853D02*
X15432267Y-13299329D01*
X15432267Y-13299329D02*
X15422743Y-13280282D01*
X15422743Y-13280282D02*
X15422743Y-13204091D01*
X15422743Y-13204091D02*
X15432267Y-13185044D01*
X15432267Y-13185044D02*
X15451315Y-13175520D01*
X15451315Y-13175520D02*
X15489410Y-13175520D01*
X15489410Y-13175520D02*
X15508457Y-13185044D01*
X15508457Y-13185044D02*
X15517981Y-13204091D01*
X15517981Y-13204091D02*
X15517981Y-13223139D01*
X15517981Y-13223139D02*
X15422743Y-13242187D01*
X15689410Y-13308853D02*
X15689410Y-13108853D01*
X15689410Y-13299329D02*
X15670362Y-13308853D01*
X15670362Y-13308853D02*
X15632267Y-13308853D01*
X15632267Y-13308853D02*
X15613219Y-13299329D01*
X15613219Y-13299329D02*
X15603696Y-13289806D01*
X15603696Y-13289806D02*
X15594172Y-13270758D01*
X15594172Y-13270758D02*
X15594172Y-13213615D01*
X15594172Y-13213615D02*
X15603696Y-13194567D01*
X15603696Y-13194567D02*
X15613219Y-13185044D01*
X15613219Y-13185044D02*
X15632267Y-13175520D01*
X15632267Y-13175520D02*
X15670362Y-13175520D01*
X15670362Y-13175520D02*
X15689410Y-13185044D01*
X15765600Y-13385044D02*
X15775124Y-13375520D01*
X15775124Y-13375520D02*
X15794172Y-13346948D01*
X15794172Y-13346948D02*
X15803696Y-13327901D01*
X15803696Y-13327901D02*
X15813219Y-13299329D01*
X15813219Y-13299329D02*
X15822743Y-13251710D01*
X15822743Y-13251710D02*
X15822743Y-13213615D01*
X15822743Y-13213615D02*
X15813219Y-13165996D01*
X15813219Y-13165996D02*
X15803696Y-13137425D01*
X15803696Y-13137425D02*
X15794172Y-13118377D01*
X15794172Y-13118377D02*
X15775124Y-13089806D01*
X15775124Y-13089806D02*
X15765600Y-13080282D01*
M02*
