G04 #@! TF.GenerationSoftware,KiCad,Pcbnew,8.0.6*
G04 #@! TF.CreationDate,2025-02-02T12:21:57-08:00*
G04 #@! TF.ProjectId,Cymatics,43796d61-7469-4637-932e-6b696361645f,rev?*
G04 #@! TF.SameCoordinates,Original*
G04 #@! TF.FileFunction,Legend,Bot*
G04 #@! TF.FilePolarity,Positive*
%FSLAX46Y46*%
G04 Gerber Fmt 4.6, Leading zero omitted, Abs format (unit mm)*
G04 Created by KiCad (PCBNEW 8.0.6) date 2025-02-02 12:21:57*
%MOMM*%
%LPD*%
G01*
G04 APERTURE LIST*
%ADD10C,0.508000*%
%ADD11R,2.100000X2.100000*%
%ADD12C,2.100000*%
%ADD13C,1.000000*%
%ADD14C,2.500000*%
%ADD15R,1.700000X1.700000*%
%ADD16O,1.700000X1.700000*%
%ADD17R,1.600000X1.600000*%
%ADD18C,1.600000*%
G04 APERTURE END LIST*
D10*
X162586100Y-71000000D02*
G75*
G02*
X161824100Y-71000000I-381000J0D01*
G01*
X161824100Y-71000000D02*
G75*
G02*
X162586100Y-71000000I381000J0D01*
G01*
X113175900Y-74500000D02*
G75*
G02*
X112413900Y-74500000I-381000J0D01*
G01*
X112413900Y-74500000D02*
G75*
G02*
X113175900Y-74500000I381000J0D01*
G01*
X113175900Y-71000000D02*
G75*
G02*
X112413900Y-71000000I-381000J0D01*
G01*
X112413900Y-71000000D02*
G75*
G02*
X113175900Y-71000000I381000J0D01*
G01*
X162586100Y-67500000D02*
G75*
G02*
X161824100Y-67500000I-381000J0D01*
G01*
X161824100Y-67500000D02*
G75*
G02*
X162586100Y-67500000I381000J0D01*
G01*
X148086100Y-108000000D02*
G75*
G02*
X147324100Y-108000000I-381000J0D01*
G01*
X147324100Y-108000000D02*
G75*
G02*
X148086100Y-108000000I381000J0D01*
G01*
X113175900Y-67500000D02*
G75*
G02*
X112413900Y-67500000I-381000J0D01*
G01*
X112413900Y-67500000D02*
G75*
G02*
X113175900Y-67500000I381000J0D01*
G01*
X148086100Y-111500000D02*
G75*
G02*
X147324100Y-111500000I-381000J0D01*
G01*
X147324100Y-111500000D02*
G75*
G02*
X148086100Y-111500000I381000J0D01*
G01*
%LPC*%
D11*
X155040000Y-70500000D03*
D12*
X152500000Y-70500000D03*
D11*
X110500000Y-93500000D03*
D12*
X110500000Y-96040000D03*
D13*
X120550000Y-128250000D03*
X128550000Y-128250000D03*
D11*
X110500000Y-112500000D03*
D12*
X110500000Y-115040000D03*
X110500000Y-117580000D03*
X110500000Y-120120000D03*
X110500000Y-122660000D03*
X110500000Y-125200000D03*
D14*
X165910850Y-131058694D03*
D15*
X139826000Y-84600000D03*
D16*
X139826000Y-87140000D03*
X139826000Y-89680000D03*
X139826000Y-92220000D03*
X139826000Y-94760000D03*
X139826000Y-97300000D03*
X139826000Y-99840000D03*
X139826000Y-102380000D03*
X139826000Y-104920000D03*
X139826000Y-107460000D03*
X139826000Y-110000000D03*
X139826000Y-112540000D03*
D11*
X110500000Y-100460000D03*
D12*
X110500000Y-103000000D03*
X110500000Y-105540000D03*
X110500000Y-108080000D03*
D14*
X108910850Y-69058694D03*
D11*
X164500000Y-119040000D03*
D12*
X164500000Y-116500000D03*
D17*
X153500000Y-117500000D03*
D18*
X153500000Y-122500000D03*
D11*
X164500000Y-125770000D03*
D12*
X164500000Y-123230000D03*
D11*
X110500000Y-86230000D03*
D12*
X110500000Y-88770000D03*
D11*
X147840000Y-129500000D03*
D12*
X150380000Y-129500000D03*
X152920000Y-129500000D03*
X155460000Y-129500000D03*
X158000000Y-129500000D03*
D14*
X165910850Y-69058694D03*
D15*
X119500000Y-74440000D03*
D16*
X119500000Y-76980000D03*
X119500000Y-79520000D03*
X119500000Y-82060000D03*
X119500000Y-84600000D03*
X119500000Y-87140000D03*
X119500000Y-89680000D03*
X119500000Y-92220000D03*
X119500000Y-94760000D03*
X119500000Y-97300000D03*
X119500000Y-99840000D03*
X119500000Y-102380000D03*
X119500000Y-104920000D03*
X119500000Y-107460000D03*
X119500000Y-110000000D03*
X119500000Y-112540000D03*
D11*
X164500000Y-99580000D03*
D12*
X164500000Y-97040000D03*
X164500000Y-94500000D03*
D11*
X147580000Y-70500000D03*
D12*
X145040000Y-70500000D03*
D11*
X164500000Y-79540000D03*
D12*
X164500000Y-77000000D03*
X164500000Y-74460000D03*
D14*
X108910850Y-131058694D03*
D11*
X137920000Y-129500000D03*
D12*
X140460000Y-129500000D03*
X143000000Y-129500000D03*
D11*
X164500000Y-112000000D03*
D12*
X164500000Y-109460000D03*
X164500000Y-106920000D03*
X164500000Y-104380000D03*
D11*
X110500000Y-78730000D03*
D12*
X110500000Y-81270000D03*
D11*
X164500000Y-89580000D03*
D12*
X164500000Y-87040000D03*
X164500000Y-84500000D03*
%LPD*%
M02*
