%TF.GenerationSoftware,KiCad,Pcbnew,8.0.6*%
%TF.CreationDate,2025-03-20T20:00:16-07:00*%
%TF.ProjectId,Cymatics,43796d61-7469-4637-932e-6b696361645f,rev?*%
%TF.SameCoordinates,Original*%
%TF.FileFunction,Drillmap*%
%TF.FilePolarity,Positive*%
%FSLAX45Y45*%
G04 Gerber Fmt 4.5, Leading zero omitted, Abs format (unit mm)*
G04 Created by KiCad (PCBNEW 8.0.6) date 2025-03-20 20:00:16*
%MOMM*%
%LPD*%
G01*
G04 APERTURE LIST*
%ADD10C,0.050000*%
%ADD11C,0.200000*%
%ADD12C,0.100000*%
%ADD13C,0.250000*%
G04 APERTURE END LIST*
D10*
X8812085Y-12310869D02*
G75*
G02*
X8512081Y-12010869I5J300010D01*
G01*
X15212085Y-12310869D02*
X8812085Y-12310869D01*
X15212085Y-5310869D02*
G75*
G02*
X15512081Y-5610869I-5J-300001D01*
G01*
X8812085Y-5310869D02*
X15212085Y-5310869D01*
X15512085Y-5610869D02*
X15512085Y-12010869D01*
X8512085Y-5610869D02*
G75*
G02*
X8812085Y-5310865I300005J-1D01*
G01*
X8512085Y-5610869D02*
X8512085Y-12010869D01*
X15512085Y-12010869D02*
G75*
G02*
X15212085Y-12310875I-300005J-1D01*
G01*
D11*
D12*
X10505000Y-11833750D02*
X10605000Y-11933750D01*
X10605000Y-11833750D02*
X10505000Y-11933750D01*
X11305000Y-11833750D02*
X11405000Y-11933750D01*
X11405000Y-11833750D02*
X11305000Y-11933750D01*
D13*
X9037085Y-5710869D02*
G75*
G02*
X8787085Y-5710869I-125000J0D01*
G01*
X8787085Y-5710869D02*
G75*
G02*
X9037085Y-5710869I125000J0D01*
G01*
X9037085Y-11910869D02*
G75*
G02*
X8787085Y-11910869I-125000J0D01*
G01*
X8787085Y-11910869D02*
G75*
G02*
X9037085Y-11910869I125000J0D01*
G01*
X15237085Y-5710869D02*
G75*
G02*
X14987085Y-5710869I-125000J0D01*
G01*
X14987085Y-5710869D02*
G75*
G02*
X15237085Y-5710869I125000J0D01*
G01*
X15237085Y-11910869D02*
G75*
G02*
X14987085Y-11910869I-125000J0D01*
G01*
X14987085Y-11910869D02*
G75*
G02*
X15237085Y-11910869I125000J0D01*
G01*
D11*
X8770362Y-12624853D02*
X8770362Y-12424853D01*
X8770362Y-12424853D02*
X8817981Y-12424853D01*
X8817981Y-12424853D02*
X8846552Y-12434377D01*
X8846552Y-12434377D02*
X8865600Y-12453425D01*
X8865600Y-12453425D02*
X8875124Y-12472472D01*
X8875124Y-12472472D02*
X8884648Y-12510567D01*
X8884648Y-12510567D02*
X8884648Y-12539139D01*
X8884648Y-12539139D02*
X8875124Y-12577234D01*
X8875124Y-12577234D02*
X8865600Y-12596282D01*
X8865600Y-12596282D02*
X8846552Y-12615329D01*
X8846552Y-12615329D02*
X8817981Y-12624853D01*
X8817981Y-12624853D02*
X8770362Y-12624853D01*
X8970362Y-12624853D02*
X8970362Y-12491520D01*
X8970362Y-12529615D02*
X8979886Y-12510567D01*
X8979886Y-12510567D02*
X8989410Y-12501044D01*
X8989410Y-12501044D02*
X9008457Y-12491520D01*
X9008457Y-12491520D02*
X9027505Y-12491520D01*
X9094171Y-12624853D02*
X9094171Y-12491520D01*
X9094171Y-12424853D02*
X9084648Y-12434377D01*
X9084648Y-12434377D02*
X9094171Y-12443901D01*
X9094171Y-12443901D02*
X9103695Y-12434377D01*
X9103695Y-12434377D02*
X9094171Y-12424853D01*
X9094171Y-12424853D02*
X9094171Y-12443901D01*
X9217981Y-12624853D02*
X9198933Y-12615329D01*
X9198933Y-12615329D02*
X9189410Y-12596282D01*
X9189410Y-12596282D02*
X9189410Y-12424853D01*
X9322743Y-12624853D02*
X9303695Y-12615329D01*
X9303695Y-12615329D02*
X9294171Y-12596282D01*
X9294171Y-12596282D02*
X9294171Y-12424853D01*
X9551314Y-12624853D02*
X9551314Y-12424853D01*
X9551314Y-12424853D02*
X9617981Y-12567710D01*
X9617981Y-12567710D02*
X9684648Y-12424853D01*
X9684648Y-12424853D02*
X9684648Y-12624853D01*
X9865600Y-12624853D02*
X9865600Y-12520091D01*
X9865600Y-12520091D02*
X9856076Y-12501044D01*
X9856076Y-12501044D02*
X9837029Y-12491520D01*
X9837029Y-12491520D02*
X9798933Y-12491520D01*
X9798933Y-12491520D02*
X9779886Y-12501044D01*
X9865600Y-12615329D02*
X9846552Y-12624853D01*
X9846552Y-12624853D02*
X9798933Y-12624853D01*
X9798933Y-12624853D02*
X9779886Y-12615329D01*
X9779886Y-12615329D02*
X9770362Y-12596282D01*
X9770362Y-12596282D02*
X9770362Y-12577234D01*
X9770362Y-12577234D02*
X9779886Y-12558187D01*
X9779886Y-12558187D02*
X9798933Y-12548663D01*
X9798933Y-12548663D02*
X9846552Y-12548663D01*
X9846552Y-12548663D02*
X9865600Y-12539139D01*
X9960838Y-12491520D02*
X9960838Y-12691520D01*
X9960838Y-12501044D02*
X9979886Y-12491520D01*
X9979886Y-12491520D02*
X10017981Y-12491520D01*
X10017981Y-12491520D02*
X10037029Y-12501044D01*
X10037029Y-12501044D02*
X10046552Y-12510567D01*
X10046552Y-12510567D02*
X10056076Y-12529615D01*
X10056076Y-12529615D02*
X10056076Y-12586758D01*
X10056076Y-12586758D02*
X10046552Y-12605806D01*
X10046552Y-12605806D02*
X10037029Y-12615329D01*
X10037029Y-12615329D02*
X10017981Y-12624853D01*
X10017981Y-12624853D02*
X9979886Y-12624853D01*
X9979886Y-12624853D02*
X9960838Y-12615329D01*
X10141791Y-12605806D02*
X10151314Y-12615329D01*
X10151314Y-12615329D02*
X10141791Y-12624853D01*
X10141791Y-12624853D02*
X10132267Y-12615329D01*
X10132267Y-12615329D02*
X10141791Y-12605806D01*
X10141791Y-12605806D02*
X10141791Y-12624853D01*
X10141791Y-12501044D02*
X10151314Y-12510567D01*
X10151314Y-12510567D02*
X10141791Y-12520091D01*
X10141791Y-12520091D02*
X10132267Y-12510567D01*
X10132267Y-12510567D02*
X10141791Y-12501044D01*
X10141791Y-12501044D02*
X10141791Y-12520091D01*
D12*
X8409585Y-12903369D02*
X8509585Y-13003369D01*
X8509585Y-12903369D02*
X8409585Y-13003369D01*
D11*
X8875124Y-13044853D02*
X8760838Y-13044853D01*
X8817981Y-13044853D02*
X8817981Y-12844853D01*
X8817981Y-12844853D02*
X8798933Y-12873425D01*
X8798933Y-12873425D02*
X8779886Y-12892472D01*
X8779886Y-12892472D02*
X8760838Y-12901996D01*
X8960838Y-13025806D02*
X8970362Y-13035329D01*
X8970362Y-13035329D02*
X8960838Y-13044853D01*
X8960838Y-13044853D02*
X8951314Y-13035329D01*
X8951314Y-13035329D02*
X8960838Y-13025806D01*
X8960838Y-13025806D02*
X8960838Y-13044853D01*
X9094171Y-12844853D02*
X9113219Y-12844853D01*
X9113219Y-12844853D02*
X9132267Y-12854377D01*
X9132267Y-12854377D02*
X9141791Y-12863901D01*
X9141791Y-12863901D02*
X9151314Y-12882948D01*
X9151314Y-12882948D02*
X9160838Y-12921044D01*
X9160838Y-12921044D02*
X9160838Y-12968663D01*
X9160838Y-12968663D02*
X9151314Y-13006758D01*
X9151314Y-13006758D02*
X9141791Y-13025806D01*
X9141791Y-13025806D02*
X9132267Y-13035329D01*
X9132267Y-13035329D02*
X9113219Y-13044853D01*
X9113219Y-13044853D02*
X9094171Y-13044853D01*
X9094171Y-13044853D02*
X9075124Y-13035329D01*
X9075124Y-13035329D02*
X9065600Y-13025806D01*
X9065600Y-13025806D02*
X9056076Y-13006758D01*
X9056076Y-13006758D02*
X9046552Y-12968663D01*
X9046552Y-12968663D02*
X9046552Y-12921044D01*
X9046552Y-12921044D02*
X9056076Y-12882948D01*
X9056076Y-12882948D02*
X9065600Y-12863901D01*
X9065600Y-12863901D02*
X9075124Y-12854377D01*
X9075124Y-12854377D02*
X9094171Y-12844853D01*
X9284648Y-12844853D02*
X9303695Y-12844853D01*
X9303695Y-12844853D02*
X9322743Y-12854377D01*
X9322743Y-12854377D02*
X9332267Y-12863901D01*
X9332267Y-12863901D02*
X9341791Y-12882948D01*
X9341791Y-12882948D02*
X9351314Y-12921044D01*
X9351314Y-12921044D02*
X9351314Y-12968663D01*
X9351314Y-12968663D02*
X9341791Y-13006758D01*
X9341791Y-13006758D02*
X9332267Y-13025806D01*
X9332267Y-13025806D02*
X9322743Y-13035329D01*
X9322743Y-13035329D02*
X9303695Y-13044853D01*
X9303695Y-13044853D02*
X9284648Y-13044853D01*
X9284648Y-13044853D02*
X9265600Y-13035329D01*
X9265600Y-13035329D02*
X9256076Y-13025806D01*
X9256076Y-13025806D02*
X9246552Y-13006758D01*
X9246552Y-13006758D02*
X9237029Y-12968663D01*
X9237029Y-12968663D02*
X9237029Y-12921044D01*
X9237029Y-12921044D02*
X9246552Y-12882948D01*
X9246552Y-12882948D02*
X9256076Y-12863901D01*
X9256076Y-12863901D02*
X9265600Y-12854377D01*
X9265600Y-12854377D02*
X9284648Y-12844853D01*
X9475124Y-12844853D02*
X9494172Y-12844853D01*
X9494172Y-12844853D02*
X9513219Y-12854377D01*
X9513219Y-12854377D02*
X9522743Y-12863901D01*
X9522743Y-12863901D02*
X9532267Y-12882948D01*
X9532267Y-12882948D02*
X9541791Y-12921044D01*
X9541791Y-12921044D02*
X9541791Y-12968663D01*
X9541791Y-12968663D02*
X9532267Y-13006758D01*
X9532267Y-13006758D02*
X9522743Y-13025806D01*
X9522743Y-13025806D02*
X9513219Y-13035329D01*
X9513219Y-13035329D02*
X9494172Y-13044853D01*
X9494172Y-13044853D02*
X9475124Y-13044853D01*
X9475124Y-13044853D02*
X9456076Y-13035329D01*
X9456076Y-13035329D02*
X9446552Y-13025806D01*
X9446552Y-13025806D02*
X9437029Y-13006758D01*
X9437029Y-13006758D02*
X9427505Y-12968663D01*
X9427505Y-12968663D02*
X9427505Y-12921044D01*
X9427505Y-12921044D02*
X9437029Y-12882948D01*
X9437029Y-12882948D02*
X9446552Y-12863901D01*
X9446552Y-12863901D02*
X9456076Y-12854377D01*
X9456076Y-12854377D02*
X9475124Y-12844853D01*
X9627505Y-13044853D02*
X9627505Y-12911520D01*
X9627505Y-12930567D02*
X9637029Y-12921044D01*
X9637029Y-12921044D02*
X9656076Y-12911520D01*
X9656076Y-12911520D02*
X9684648Y-12911520D01*
X9684648Y-12911520D02*
X9703695Y-12921044D01*
X9703695Y-12921044D02*
X9713219Y-12940091D01*
X9713219Y-12940091D02*
X9713219Y-13044853D01*
X9713219Y-12940091D02*
X9722743Y-12921044D01*
X9722743Y-12921044D02*
X9741791Y-12911520D01*
X9741791Y-12911520D02*
X9770362Y-12911520D01*
X9770362Y-12911520D02*
X9789410Y-12921044D01*
X9789410Y-12921044D02*
X9798933Y-12940091D01*
X9798933Y-12940091D02*
X9798933Y-13044853D01*
X9894172Y-13044853D02*
X9894172Y-12911520D01*
X9894172Y-12930567D02*
X9903695Y-12921044D01*
X9903695Y-12921044D02*
X9922743Y-12911520D01*
X9922743Y-12911520D02*
X9951314Y-12911520D01*
X9951314Y-12911520D02*
X9970362Y-12921044D01*
X9970362Y-12921044D02*
X9979886Y-12940091D01*
X9979886Y-12940091D02*
X9979886Y-13044853D01*
X9979886Y-12940091D02*
X9989410Y-12921044D01*
X9989410Y-12921044D02*
X10008457Y-12911520D01*
X10008457Y-12911520D02*
X10037029Y-12911520D01*
X10037029Y-12911520D02*
X10056076Y-12921044D01*
X10056076Y-12921044D02*
X10065600Y-12940091D01*
X10065600Y-12940091D02*
X10065600Y-13044853D01*
X10456076Y-12835329D02*
X10284648Y-13092472D01*
X10713219Y-12844853D02*
X10732267Y-12844853D01*
X10732267Y-12844853D02*
X10751315Y-12854377D01*
X10751315Y-12854377D02*
X10760838Y-12863901D01*
X10760838Y-12863901D02*
X10770362Y-12882948D01*
X10770362Y-12882948D02*
X10779886Y-12921044D01*
X10779886Y-12921044D02*
X10779886Y-12968663D01*
X10779886Y-12968663D02*
X10770362Y-13006758D01*
X10770362Y-13006758D02*
X10760838Y-13025806D01*
X10760838Y-13025806D02*
X10751315Y-13035329D01*
X10751315Y-13035329D02*
X10732267Y-13044853D01*
X10732267Y-13044853D02*
X10713219Y-13044853D01*
X10713219Y-13044853D02*
X10694172Y-13035329D01*
X10694172Y-13035329D02*
X10684648Y-13025806D01*
X10684648Y-13025806D02*
X10675124Y-13006758D01*
X10675124Y-13006758D02*
X10665600Y-12968663D01*
X10665600Y-12968663D02*
X10665600Y-12921044D01*
X10665600Y-12921044D02*
X10675124Y-12882948D01*
X10675124Y-12882948D02*
X10684648Y-12863901D01*
X10684648Y-12863901D02*
X10694172Y-12854377D01*
X10694172Y-12854377D02*
X10713219Y-12844853D01*
X10865600Y-13025806D02*
X10875124Y-13035329D01*
X10875124Y-13035329D02*
X10865600Y-13044853D01*
X10865600Y-13044853D02*
X10856076Y-13035329D01*
X10856076Y-13035329D02*
X10865600Y-13025806D01*
X10865600Y-13025806D02*
X10865600Y-13044853D01*
X10998934Y-12844853D02*
X11017981Y-12844853D01*
X11017981Y-12844853D02*
X11037029Y-12854377D01*
X11037029Y-12854377D02*
X11046553Y-12863901D01*
X11046553Y-12863901D02*
X11056076Y-12882948D01*
X11056076Y-12882948D02*
X11065600Y-12921044D01*
X11065600Y-12921044D02*
X11065600Y-12968663D01*
X11065600Y-12968663D02*
X11056076Y-13006758D01*
X11056076Y-13006758D02*
X11046553Y-13025806D01*
X11046553Y-13025806D02*
X11037029Y-13035329D01*
X11037029Y-13035329D02*
X11017981Y-13044853D01*
X11017981Y-13044853D02*
X10998934Y-13044853D01*
X10998934Y-13044853D02*
X10979886Y-13035329D01*
X10979886Y-13035329D02*
X10970362Y-13025806D01*
X10970362Y-13025806D02*
X10960838Y-13006758D01*
X10960838Y-13006758D02*
X10951315Y-12968663D01*
X10951315Y-12968663D02*
X10951315Y-12921044D01*
X10951315Y-12921044D02*
X10960838Y-12882948D01*
X10960838Y-12882948D02*
X10970362Y-12863901D01*
X10970362Y-12863901D02*
X10979886Y-12854377D01*
X10979886Y-12854377D02*
X10998934Y-12844853D01*
X11132267Y-12844853D02*
X11256076Y-12844853D01*
X11256076Y-12844853D02*
X11189410Y-12921044D01*
X11189410Y-12921044D02*
X11217981Y-12921044D01*
X11217981Y-12921044D02*
X11237029Y-12930567D01*
X11237029Y-12930567D02*
X11246553Y-12940091D01*
X11246553Y-12940091D02*
X11256076Y-12959139D01*
X11256076Y-12959139D02*
X11256076Y-13006758D01*
X11256076Y-13006758D02*
X11246553Y-13025806D01*
X11246553Y-13025806D02*
X11237029Y-13035329D01*
X11237029Y-13035329D02*
X11217981Y-13044853D01*
X11217981Y-13044853D02*
X11160838Y-13044853D01*
X11160838Y-13044853D02*
X11141791Y-13035329D01*
X11141791Y-13035329D02*
X11132267Y-13025806D01*
X11351314Y-13044853D02*
X11389410Y-13044853D01*
X11389410Y-13044853D02*
X11408457Y-13035329D01*
X11408457Y-13035329D02*
X11417981Y-13025806D01*
X11417981Y-13025806D02*
X11437029Y-12997234D01*
X11437029Y-12997234D02*
X11446553Y-12959139D01*
X11446553Y-12959139D02*
X11446553Y-12882948D01*
X11446553Y-12882948D02*
X11437029Y-12863901D01*
X11437029Y-12863901D02*
X11427505Y-12854377D01*
X11427505Y-12854377D02*
X11408457Y-12844853D01*
X11408457Y-12844853D02*
X11370362Y-12844853D01*
X11370362Y-12844853D02*
X11351314Y-12854377D01*
X11351314Y-12854377D02*
X11341791Y-12863901D01*
X11341791Y-12863901D02*
X11332267Y-12882948D01*
X11332267Y-12882948D02*
X11332267Y-12930567D01*
X11332267Y-12930567D02*
X11341791Y-12949615D01*
X11341791Y-12949615D02*
X11351314Y-12959139D01*
X11351314Y-12959139D02*
X11370362Y-12968663D01*
X11370362Y-12968663D02*
X11408457Y-12968663D01*
X11408457Y-12968663D02*
X11427505Y-12959139D01*
X11427505Y-12959139D02*
X11437029Y-12949615D01*
X11437029Y-12949615D02*
X11446553Y-12930567D01*
X11617981Y-12911520D02*
X11617981Y-13044853D01*
X11570362Y-12835329D02*
X11522743Y-12978187D01*
X11522743Y-12978187D02*
X11646553Y-12978187D01*
X11713219Y-12844853D02*
X11713219Y-12882948D01*
X11789410Y-12844853D02*
X11789410Y-12882948D01*
X12084648Y-13121044D02*
X12075124Y-13111520D01*
X12075124Y-13111520D02*
X12056076Y-13082948D01*
X12056076Y-13082948D02*
X12046553Y-13063901D01*
X12046553Y-13063901D02*
X12037029Y-13035329D01*
X12037029Y-13035329D02*
X12027505Y-12987710D01*
X12027505Y-12987710D02*
X12027505Y-12949615D01*
X12027505Y-12949615D02*
X12037029Y-12901996D01*
X12037029Y-12901996D02*
X12046553Y-12873425D01*
X12046553Y-12873425D02*
X12056076Y-12854377D01*
X12056076Y-12854377D02*
X12075124Y-12825806D01*
X12075124Y-12825806D02*
X12084648Y-12816282D01*
X12151315Y-12863901D02*
X12160838Y-12854377D01*
X12160838Y-12854377D02*
X12179886Y-12844853D01*
X12179886Y-12844853D02*
X12227505Y-12844853D01*
X12227505Y-12844853D02*
X12246553Y-12854377D01*
X12246553Y-12854377D02*
X12256076Y-12863901D01*
X12256076Y-12863901D02*
X12265600Y-12882948D01*
X12265600Y-12882948D02*
X12265600Y-12901996D01*
X12265600Y-12901996D02*
X12256076Y-12930567D01*
X12256076Y-12930567D02*
X12141791Y-13044853D01*
X12141791Y-13044853D02*
X12265600Y-13044853D01*
X12503696Y-13044853D02*
X12503696Y-12844853D01*
X12589410Y-13044853D02*
X12589410Y-12940091D01*
X12589410Y-12940091D02*
X12579886Y-12921044D01*
X12579886Y-12921044D02*
X12560838Y-12911520D01*
X12560838Y-12911520D02*
X12532267Y-12911520D01*
X12532267Y-12911520D02*
X12513219Y-12921044D01*
X12513219Y-12921044D02*
X12503696Y-12930567D01*
X12713219Y-13044853D02*
X12694172Y-13035329D01*
X12694172Y-13035329D02*
X12684648Y-13025806D01*
X12684648Y-13025806D02*
X12675124Y-13006758D01*
X12675124Y-13006758D02*
X12675124Y-12949615D01*
X12675124Y-12949615D02*
X12684648Y-12930567D01*
X12684648Y-12930567D02*
X12694172Y-12921044D01*
X12694172Y-12921044D02*
X12713219Y-12911520D01*
X12713219Y-12911520D02*
X12741791Y-12911520D01*
X12741791Y-12911520D02*
X12760838Y-12921044D01*
X12760838Y-12921044D02*
X12770362Y-12930567D01*
X12770362Y-12930567D02*
X12779886Y-12949615D01*
X12779886Y-12949615D02*
X12779886Y-13006758D01*
X12779886Y-13006758D02*
X12770362Y-13025806D01*
X12770362Y-13025806D02*
X12760838Y-13035329D01*
X12760838Y-13035329D02*
X12741791Y-13044853D01*
X12741791Y-13044853D02*
X12713219Y-13044853D01*
X12894172Y-13044853D02*
X12875124Y-13035329D01*
X12875124Y-13035329D02*
X12865600Y-13016282D01*
X12865600Y-13016282D02*
X12865600Y-12844853D01*
X13046553Y-13035329D02*
X13027505Y-13044853D01*
X13027505Y-13044853D02*
X12989410Y-13044853D01*
X12989410Y-13044853D02*
X12970362Y-13035329D01*
X12970362Y-13035329D02*
X12960838Y-13016282D01*
X12960838Y-13016282D02*
X12960838Y-12940091D01*
X12960838Y-12940091D02*
X12970362Y-12921044D01*
X12970362Y-12921044D02*
X12989410Y-12911520D01*
X12989410Y-12911520D02*
X13027505Y-12911520D01*
X13027505Y-12911520D02*
X13046553Y-12921044D01*
X13046553Y-12921044D02*
X13056077Y-12940091D01*
X13056077Y-12940091D02*
X13056077Y-12959139D01*
X13056077Y-12959139D02*
X12960838Y-12978187D01*
X13132267Y-13035329D02*
X13151315Y-13044853D01*
X13151315Y-13044853D02*
X13189410Y-13044853D01*
X13189410Y-13044853D02*
X13208458Y-13035329D01*
X13208458Y-13035329D02*
X13217981Y-13016282D01*
X13217981Y-13016282D02*
X13217981Y-13006758D01*
X13217981Y-13006758D02*
X13208458Y-12987710D01*
X13208458Y-12987710D02*
X13189410Y-12978187D01*
X13189410Y-12978187D02*
X13160838Y-12978187D01*
X13160838Y-12978187D02*
X13141791Y-12968663D01*
X13141791Y-12968663D02*
X13132267Y-12949615D01*
X13132267Y-12949615D02*
X13132267Y-12940091D01*
X13132267Y-12940091D02*
X13141791Y-12921044D01*
X13141791Y-12921044D02*
X13160838Y-12911520D01*
X13160838Y-12911520D02*
X13189410Y-12911520D01*
X13189410Y-12911520D02*
X13208458Y-12921044D01*
X13284648Y-13121044D02*
X13294172Y-13111520D01*
X13294172Y-13111520D02*
X13313219Y-13082948D01*
X13313219Y-13082948D02*
X13322743Y-13063901D01*
X13322743Y-13063901D02*
X13332267Y-13035329D01*
X13332267Y-13035329D02*
X13341791Y-12987710D01*
X13341791Y-12987710D02*
X13341791Y-12949615D01*
X13341791Y-12949615D02*
X13332267Y-12901996D01*
X13332267Y-12901996D02*
X13322743Y-12873425D01*
X13322743Y-12873425D02*
X13313219Y-12854377D01*
X13313219Y-12854377D02*
X13294172Y-12825806D01*
X13294172Y-12825806D02*
X13284648Y-12816282D01*
X13646553Y-13121044D02*
X13637029Y-13111520D01*
X13637029Y-13111520D02*
X13617981Y-13082948D01*
X13617981Y-13082948D02*
X13608458Y-13063901D01*
X13608458Y-13063901D02*
X13598934Y-13035329D01*
X13598934Y-13035329D02*
X13589410Y-12987710D01*
X13589410Y-12987710D02*
X13589410Y-12949615D01*
X13589410Y-12949615D02*
X13598934Y-12901996D01*
X13598934Y-12901996D02*
X13608458Y-12873425D01*
X13608458Y-12873425D02*
X13617981Y-12854377D01*
X13617981Y-12854377D02*
X13637029Y-12825806D01*
X13637029Y-12825806D02*
X13646553Y-12816282D01*
X13722743Y-12911520D02*
X13722743Y-13044853D01*
X13722743Y-12930567D02*
X13732267Y-12921044D01*
X13732267Y-12921044D02*
X13751315Y-12911520D01*
X13751315Y-12911520D02*
X13779886Y-12911520D01*
X13779886Y-12911520D02*
X13798934Y-12921044D01*
X13798934Y-12921044D02*
X13808458Y-12940091D01*
X13808458Y-12940091D02*
X13808458Y-13044853D01*
X13932267Y-13044853D02*
X13913219Y-13035329D01*
X13913219Y-13035329D02*
X13903696Y-13025806D01*
X13903696Y-13025806D02*
X13894172Y-13006758D01*
X13894172Y-13006758D02*
X13894172Y-12949615D01*
X13894172Y-12949615D02*
X13903696Y-12930567D01*
X13903696Y-12930567D02*
X13913219Y-12921044D01*
X13913219Y-12921044D02*
X13932267Y-12911520D01*
X13932267Y-12911520D02*
X13960839Y-12911520D01*
X13960839Y-12911520D02*
X13979886Y-12921044D01*
X13979886Y-12921044D02*
X13989410Y-12930567D01*
X13989410Y-12930567D02*
X13998934Y-12949615D01*
X13998934Y-12949615D02*
X13998934Y-13006758D01*
X13998934Y-13006758D02*
X13989410Y-13025806D01*
X13989410Y-13025806D02*
X13979886Y-13035329D01*
X13979886Y-13035329D02*
X13960839Y-13044853D01*
X13960839Y-13044853D02*
X13932267Y-13044853D01*
X14056077Y-12911520D02*
X14132267Y-12911520D01*
X14084648Y-12844853D02*
X14084648Y-13016282D01*
X14084648Y-13016282D02*
X14094172Y-13035329D01*
X14094172Y-13035329D02*
X14113219Y-13044853D01*
X14113219Y-13044853D02*
X14132267Y-13044853D01*
X14351315Y-12911520D02*
X14351315Y-13111520D01*
X14351315Y-12921044D02*
X14370362Y-12911520D01*
X14370362Y-12911520D02*
X14408458Y-12911520D01*
X14408458Y-12911520D02*
X14427505Y-12921044D01*
X14427505Y-12921044D02*
X14437029Y-12930567D01*
X14437029Y-12930567D02*
X14446553Y-12949615D01*
X14446553Y-12949615D02*
X14446553Y-13006758D01*
X14446553Y-13006758D02*
X14437029Y-13025806D01*
X14437029Y-13025806D02*
X14427505Y-13035329D01*
X14427505Y-13035329D02*
X14408458Y-13044853D01*
X14408458Y-13044853D02*
X14370362Y-13044853D01*
X14370362Y-13044853D02*
X14351315Y-13035329D01*
X14560839Y-13044853D02*
X14541791Y-13035329D01*
X14541791Y-13035329D02*
X14532267Y-13016282D01*
X14532267Y-13016282D02*
X14532267Y-12844853D01*
X14722743Y-13044853D02*
X14722743Y-12940091D01*
X14722743Y-12940091D02*
X14713220Y-12921044D01*
X14713220Y-12921044D02*
X14694172Y-12911520D01*
X14694172Y-12911520D02*
X14656077Y-12911520D01*
X14656077Y-12911520D02*
X14637029Y-12921044D01*
X14722743Y-13035329D02*
X14703696Y-13044853D01*
X14703696Y-13044853D02*
X14656077Y-13044853D01*
X14656077Y-13044853D02*
X14637029Y-13035329D01*
X14637029Y-13035329D02*
X14627505Y-13016282D01*
X14627505Y-13016282D02*
X14627505Y-12997234D01*
X14627505Y-12997234D02*
X14637029Y-12978187D01*
X14637029Y-12978187D02*
X14656077Y-12968663D01*
X14656077Y-12968663D02*
X14703696Y-12968663D01*
X14703696Y-12968663D02*
X14722743Y-12959139D01*
X14789410Y-12911520D02*
X14865600Y-12911520D01*
X14817981Y-12844853D02*
X14817981Y-13016282D01*
X14817981Y-13016282D02*
X14827505Y-13035329D01*
X14827505Y-13035329D02*
X14846553Y-13044853D01*
X14846553Y-13044853D02*
X14865600Y-13044853D01*
X15008458Y-13035329D02*
X14989410Y-13044853D01*
X14989410Y-13044853D02*
X14951315Y-13044853D01*
X14951315Y-13044853D02*
X14932267Y-13035329D01*
X14932267Y-13035329D02*
X14922743Y-13016282D01*
X14922743Y-13016282D02*
X14922743Y-12940091D01*
X14922743Y-12940091D02*
X14932267Y-12921044D01*
X14932267Y-12921044D02*
X14951315Y-12911520D01*
X14951315Y-12911520D02*
X14989410Y-12911520D01*
X14989410Y-12911520D02*
X15008458Y-12921044D01*
X15008458Y-12921044D02*
X15017981Y-12940091D01*
X15017981Y-12940091D02*
X15017981Y-12959139D01*
X15017981Y-12959139D02*
X14922743Y-12978187D01*
X15189410Y-13044853D02*
X15189410Y-12844853D01*
X15189410Y-13035329D02*
X15170362Y-13044853D01*
X15170362Y-13044853D02*
X15132267Y-13044853D01*
X15132267Y-13044853D02*
X15113220Y-13035329D01*
X15113220Y-13035329D02*
X15103696Y-13025806D01*
X15103696Y-13025806D02*
X15094172Y-13006758D01*
X15094172Y-13006758D02*
X15094172Y-12949615D01*
X15094172Y-12949615D02*
X15103696Y-12930567D01*
X15103696Y-12930567D02*
X15113220Y-12921044D01*
X15113220Y-12921044D02*
X15132267Y-12911520D01*
X15132267Y-12911520D02*
X15170362Y-12911520D01*
X15170362Y-12911520D02*
X15189410Y-12921044D01*
X15265601Y-13121044D02*
X15275124Y-13111520D01*
X15275124Y-13111520D02*
X15294172Y-13082948D01*
X15294172Y-13082948D02*
X15303696Y-13063901D01*
X15303696Y-13063901D02*
X15313220Y-13035329D01*
X15313220Y-13035329D02*
X15322743Y-12987710D01*
X15322743Y-12987710D02*
X15322743Y-12949615D01*
X15322743Y-12949615D02*
X15313220Y-12901996D01*
X15313220Y-12901996D02*
X15303696Y-12873425D01*
X15303696Y-12873425D02*
X15294172Y-12854377D01*
X15294172Y-12854377D02*
X15275124Y-12825806D01*
X15275124Y-12825806D02*
X15265601Y-12816282D01*
X8509585Y-13217369D02*
G75*
G02*
X8309585Y-13217369I-100000J0D01*
G01*
X8309585Y-13217369D02*
G75*
G02*
X8509585Y-13217369I100000J0D01*
G01*
X8760838Y-13127901D02*
X8770362Y-13118377D01*
X8770362Y-13118377D02*
X8789410Y-13108853D01*
X8789410Y-13108853D02*
X8837029Y-13108853D01*
X8837029Y-13108853D02*
X8856076Y-13118377D01*
X8856076Y-13118377D02*
X8865600Y-13127901D01*
X8865600Y-13127901D02*
X8875124Y-13146948D01*
X8875124Y-13146948D02*
X8875124Y-13165996D01*
X8875124Y-13165996D02*
X8865600Y-13194567D01*
X8865600Y-13194567D02*
X8751314Y-13308853D01*
X8751314Y-13308853D02*
X8875124Y-13308853D01*
X8960838Y-13289806D02*
X8970362Y-13299329D01*
X8970362Y-13299329D02*
X8960838Y-13308853D01*
X8960838Y-13308853D02*
X8951314Y-13299329D01*
X8951314Y-13299329D02*
X8960838Y-13289806D01*
X8960838Y-13289806D02*
X8960838Y-13308853D01*
X9151314Y-13108853D02*
X9056076Y-13108853D01*
X9056076Y-13108853D02*
X9046552Y-13204091D01*
X9046552Y-13204091D02*
X9056076Y-13194567D01*
X9056076Y-13194567D02*
X9075124Y-13185044D01*
X9075124Y-13185044D02*
X9122743Y-13185044D01*
X9122743Y-13185044D02*
X9141791Y-13194567D01*
X9141791Y-13194567D02*
X9151314Y-13204091D01*
X9151314Y-13204091D02*
X9160838Y-13223139D01*
X9160838Y-13223139D02*
X9160838Y-13270758D01*
X9160838Y-13270758D02*
X9151314Y-13289806D01*
X9151314Y-13289806D02*
X9141791Y-13299329D01*
X9141791Y-13299329D02*
X9122743Y-13308853D01*
X9122743Y-13308853D02*
X9075124Y-13308853D01*
X9075124Y-13308853D02*
X9056076Y-13299329D01*
X9056076Y-13299329D02*
X9046552Y-13289806D01*
X9284648Y-13108853D02*
X9303695Y-13108853D01*
X9303695Y-13108853D02*
X9322743Y-13118377D01*
X9322743Y-13118377D02*
X9332267Y-13127901D01*
X9332267Y-13127901D02*
X9341791Y-13146948D01*
X9341791Y-13146948D02*
X9351314Y-13185044D01*
X9351314Y-13185044D02*
X9351314Y-13232663D01*
X9351314Y-13232663D02*
X9341791Y-13270758D01*
X9341791Y-13270758D02*
X9332267Y-13289806D01*
X9332267Y-13289806D02*
X9322743Y-13299329D01*
X9322743Y-13299329D02*
X9303695Y-13308853D01*
X9303695Y-13308853D02*
X9284648Y-13308853D01*
X9284648Y-13308853D02*
X9265600Y-13299329D01*
X9265600Y-13299329D02*
X9256076Y-13289806D01*
X9256076Y-13289806D02*
X9246552Y-13270758D01*
X9246552Y-13270758D02*
X9237029Y-13232663D01*
X9237029Y-13232663D02*
X9237029Y-13185044D01*
X9237029Y-13185044D02*
X9246552Y-13146948D01*
X9246552Y-13146948D02*
X9256076Y-13127901D01*
X9256076Y-13127901D02*
X9265600Y-13118377D01*
X9265600Y-13118377D02*
X9284648Y-13108853D01*
X9475124Y-13108853D02*
X9494172Y-13108853D01*
X9494172Y-13108853D02*
X9513219Y-13118377D01*
X9513219Y-13118377D02*
X9522743Y-13127901D01*
X9522743Y-13127901D02*
X9532267Y-13146948D01*
X9532267Y-13146948D02*
X9541791Y-13185044D01*
X9541791Y-13185044D02*
X9541791Y-13232663D01*
X9541791Y-13232663D02*
X9532267Y-13270758D01*
X9532267Y-13270758D02*
X9522743Y-13289806D01*
X9522743Y-13289806D02*
X9513219Y-13299329D01*
X9513219Y-13299329D02*
X9494172Y-13308853D01*
X9494172Y-13308853D02*
X9475124Y-13308853D01*
X9475124Y-13308853D02*
X9456076Y-13299329D01*
X9456076Y-13299329D02*
X9446552Y-13289806D01*
X9446552Y-13289806D02*
X9437029Y-13270758D01*
X9437029Y-13270758D02*
X9427505Y-13232663D01*
X9427505Y-13232663D02*
X9427505Y-13185044D01*
X9427505Y-13185044D02*
X9437029Y-13146948D01*
X9437029Y-13146948D02*
X9446552Y-13127901D01*
X9446552Y-13127901D02*
X9456076Y-13118377D01*
X9456076Y-13118377D02*
X9475124Y-13108853D01*
X9627505Y-13308853D02*
X9627505Y-13175520D01*
X9627505Y-13194567D02*
X9637029Y-13185044D01*
X9637029Y-13185044D02*
X9656076Y-13175520D01*
X9656076Y-13175520D02*
X9684648Y-13175520D01*
X9684648Y-13175520D02*
X9703695Y-13185044D01*
X9703695Y-13185044D02*
X9713219Y-13204091D01*
X9713219Y-13204091D02*
X9713219Y-13308853D01*
X9713219Y-13204091D02*
X9722743Y-13185044D01*
X9722743Y-13185044D02*
X9741791Y-13175520D01*
X9741791Y-13175520D02*
X9770362Y-13175520D01*
X9770362Y-13175520D02*
X9789410Y-13185044D01*
X9789410Y-13185044D02*
X9798933Y-13204091D01*
X9798933Y-13204091D02*
X9798933Y-13308853D01*
X9894172Y-13308853D02*
X9894172Y-13175520D01*
X9894172Y-13194567D02*
X9903695Y-13185044D01*
X9903695Y-13185044D02*
X9922743Y-13175520D01*
X9922743Y-13175520D02*
X9951314Y-13175520D01*
X9951314Y-13175520D02*
X9970362Y-13185044D01*
X9970362Y-13185044D02*
X9979886Y-13204091D01*
X9979886Y-13204091D02*
X9979886Y-13308853D01*
X9979886Y-13204091D02*
X9989410Y-13185044D01*
X9989410Y-13185044D02*
X10008457Y-13175520D01*
X10008457Y-13175520D02*
X10037029Y-13175520D01*
X10037029Y-13175520D02*
X10056076Y-13185044D01*
X10056076Y-13185044D02*
X10065600Y-13204091D01*
X10065600Y-13204091D02*
X10065600Y-13308853D01*
X10456076Y-13099329D02*
X10284648Y-13356472D01*
X10713219Y-13108853D02*
X10732267Y-13108853D01*
X10732267Y-13108853D02*
X10751315Y-13118377D01*
X10751315Y-13118377D02*
X10760838Y-13127901D01*
X10760838Y-13127901D02*
X10770362Y-13146948D01*
X10770362Y-13146948D02*
X10779886Y-13185044D01*
X10779886Y-13185044D02*
X10779886Y-13232663D01*
X10779886Y-13232663D02*
X10770362Y-13270758D01*
X10770362Y-13270758D02*
X10760838Y-13289806D01*
X10760838Y-13289806D02*
X10751315Y-13299329D01*
X10751315Y-13299329D02*
X10732267Y-13308853D01*
X10732267Y-13308853D02*
X10713219Y-13308853D01*
X10713219Y-13308853D02*
X10694172Y-13299329D01*
X10694172Y-13299329D02*
X10684648Y-13289806D01*
X10684648Y-13289806D02*
X10675124Y-13270758D01*
X10675124Y-13270758D02*
X10665600Y-13232663D01*
X10665600Y-13232663D02*
X10665600Y-13185044D01*
X10665600Y-13185044D02*
X10675124Y-13146948D01*
X10675124Y-13146948D02*
X10684648Y-13127901D01*
X10684648Y-13127901D02*
X10694172Y-13118377D01*
X10694172Y-13118377D02*
X10713219Y-13108853D01*
X10865600Y-13289806D02*
X10875124Y-13299329D01*
X10875124Y-13299329D02*
X10865600Y-13308853D01*
X10865600Y-13308853D02*
X10856076Y-13299329D01*
X10856076Y-13299329D02*
X10865600Y-13289806D01*
X10865600Y-13289806D02*
X10865600Y-13308853D01*
X10998934Y-13108853D02*
X11017981Y-13108853D01*
X11017981Y-13108853D02*
X11037029Y-13118377D01*
X11037029Y-13118377D02*
X11046553Y-13127901D01*
X11046553Y-13127901D02*
X11056076Y-13146948D01*
X11056076Y-13146948D02*
X11065600Y-13185044D01*
X11065600Y-13185044D02*
X11065600Y-13232663D01*
X11065600Y-13232663D02*
X11056076Y-13270758D01*
X11056076Y-13270758D02*
X11046553Y-13289806D01*
X11046553Y-13289806D02*
X11037029Y-13299329D01*
X11037029Y-13299329D02*
X11017981Y-13308853D01*
X11017981Y-13308853D02*
X10998934Y-13308853D01*
X10998934Y-13308853D02*
X10979886Y-13299329D01*
X10979886Y-13299329D02*
X10970362Y-13289806D01*
X10970362Y-13289806D02*
X10960838Y-13270758D01*
X10960838Y-13270758D02*
X10951315Y-13232663D01*
X10951315Y-13232663D02*
X10951315Y-13185044D01*
X10951315Y-13185044D02*
X10960838Y-13146948D01*
X10960838Y-13146948D02*
X10970362Y-13127901D01*
X10970362Y-13127901D02*
X10979886Y-13118377D01*
X10979886Y-13118377D02*
X10998934Y-13108853D01*
X11160838Y-13308853D02*
X11198933Y-13308853D01*
X11198933Y-13308853D02*
X11217981Y-13299329D01*
X11217981Y-13299329D02*
X11227505Y-13289806D01*
X11227505Y-13289806D02*
X11246553Y-13261234D01*
X11246553Y-13261234D02*
X11256076Y-13223139D01*
X11256076Y-13223139D02*
X11256076Y-13146948D01*
X11256076Y-13146948D02*
X11246553Y-13127901D01*
X11246553Y-13127901D02*
X11237029Y-13118377D01*
X11237029Y-13118377D02*
X11217981Y-13108853D01*
X11217981Y-13108853D02*
X11179886Y-13108853D01*
X11179886Y-13108853D02*
X11160838Y-13118377D01*
X11160838Y-13118377D02*
X11151315Y-13127901D01*
X11151315Y-13127901D02*
X11141791Y-13146948D01*
X11141791Y-13146948D02*
X11141791Y-13194567D01*
X11141791Y-13194567D02*
X11151315Y-13213615D01*
X11151315Y-13213615D02*
X11160838Y-13223139D01*
X11160838Y-13223139D02*
X11179886Y-13232663D01*
X11179886Y-13232663D02*
X11217981Y-13232663D01*
X11217981Y-13232663D02*
X11237029Y-13223139D01*
X11237029Y-13223139D02*
X11246553Y-13213615D01*
X11246553Y-13213615D02*
X11256076Y-13194567D01*
X11370362Y-13194567D02*
X11351314Y-13185044D01*
X11351314Y-13185044D02*
X11341791Y-13175520D01*
X11341791Y-13175520D02*
X11332267Y-13156472D01*
X11332267Y-13156472D02*
X11332267Y-13146948D01*
X11332267Y-13146948D02*
X11341791Y-13127901D01*
X11341791Y-13127901D02*
X11351314Y-13118377D01*
X11351314Y-13118377D02*
X11370362Y-13108853D01*
X11370362Y-13108853D02*
X11408457Y-13108853D01*
X11408457Y-13108853D02*
X11427505Y-13118377D01*
X11427505Y-13118377D02*
X11437029Y-13127901D01*
X11437029Y-13127901D02*
X11446553Y-13146948D01*
X11446553Y-13146948D02*
X11446553Y-13156472D01*
X11446553Y-13156472D02*
X11437029Y-13175520D01*
X11437029Y-13175520D02*
X11427505Y-13185044D01*
X11427505Y-13185044D02*
X11408457Y-13194567D01*
X11408457Y-13194567D02*
X11370362Y-13194567D01*
X11370362Y-13194567D02*
X11351314Y-13204091D01*
X11351314Y-13204091D02*
X11341791Y-13213615D01*
X11341791Y-13213615D02*
X11332267Y-13232663D01*
X11332267Y-13232663D02*
X11332267Y-13270758D01*
X11332267Y-13270758D02*
X11341791Y-13289806D01*
X11341791Y-13289806D02*
X11351314Y-13299329D01*
X11351314Y-13299329D02*
X11370362Y-13308853D01*
X11370362Y-13308853D02*
X11408457Y-13308853D01*
X11408457Y-13308853D02*
X11427505Y-13299329D01*
X11427505Y-13299329D02*
X11437029Y-13289806D01*
X11437029Y-13289806D02*
X11446553Y-13270758D01*
X11446553Y-13270758D02*
X11446553Y-13232663D01*
X11446553Y-13232663D02*
X11437029Y-13213615D01*
X11437029Y-13213615D02*
X11427505Y-13204091D01*
X11427505Y-13204091D02*
X11408457Y-13194567D01*
X11617981Y-13175520D02*
X11617981Y-13308853D01*
X11570362Y-13099329D02*
X11522743Y-13242187D01*
X11522743Y-13242187D02*
X11646553Y-13242187D01*
X11713219Y-13108853D02*
X11713219Y-13146948D01*
X11789410Y-13108853D02*
X11789410Y-13146948D01*
X12084648Y-13385044D02*
X12075124Y-13375520D01*
X12075124Y-13375520D02*
X12056076Y-13346948D01*
X12056076Y-13346948D02*
X12046553Y-13327901D01*
X12046553Y-13327901D02*
X12037029Y-13299329D01*
X12037029Y-13299329D02*
X12027505Y-13251710D01*
X12027505Y-13251710D02*
X12027505Y-13213615D01*
X12027505Y-13213615D02*
X12037029Y-13165996D01*
X12037029Y-13165996D02*
X12046553Y-13137425D01*
X12046553Y-13137425D02*
X12056076Y-13118377D01*
X12056076Y-13118377D02*
X12075124Y-13089806D01*
X12075124Y-13089806D02*
X12084648Y-13080282D01*
X12246553Y-13175520D02*
X12246553Y-13308853D01*
X12198934Y-13099329D02*
X12151315Y-13242187D01*
X12151315Y-13242187D02*
X12275124Y-13242187D01*
X12503696Y-13308853D02*
X12503696Y-13108853D01*
X12589410Y-13308853D02*
X12589410Y-13204091D01*
X12589410Y-13204091D02*
X12579886Y-13185044D01*
X12579886Y-13185044D02*
X12560838Y-13175520D01*
X12560838Y-13175520D02*
X12532267Y-13175520D01*
X12532267Y-13175520D02*
X12513219Y-13185044D01*
X12513219Y-13185044D02*
X12503696Y-13194567D01*
X12713219Y-13308853D02*
X12694172Y-13299329D01*
X12694172Y-13299329D02*
X12684648Y-13289806D01*
X12684648Y-13289806D02*
X12675124Y-13270758D01*
X12675124Y-13270758D02*
X12675124Y-13213615D01*
X12675124Y-13213615D02*
X12684648Y-13194567D01*
X12684648Y-13194567D02*
X12694172Y-13185044D01*
X12694172Y-13185044D02*
X12713219Y-13175520D01*
X12713219Y-13175520D02*
X12741791Y-13175520D01*
X12741791Y-13175520D02*
X12760838Y-13185044D01*
X12760838Y-13185044D02*
X12770362Y-13194567D01*
X12770362Y-13194567D02*
X12779886Y-13213615D01*
X12779886Y-13213615D02*
X12779886Y-13270758D01*
X12779886Y-13270758D02*
X12770362Y-13289806D01*
X12770362Y-13289806D02*
X12760838Y-13299329D01*
X12760838Y-13299329D02*
X12741791Y-13308853D01*
X12741791Y-13308853D02*
X12713219Y-13308853D01*
X12894172Y-13308853D02*
X12875124Y-13299329D01*
X12875124Y-13299329D02*
X12865600Y-13280282D01*
X12865600Y-13280282D02*
X12865600Y-13108853D01*
X13046553Y-13299329D02*
X13027505Y-13308853D01*
X13027505Y-13308853D02*
X12989410Y-13308853D01*
X12989410Y-13308853D02*
X12970362Y-13299329D01*
X12970362Y-13299329D02*
X12960838Y-13280282D01*
X12960838Y-13280282D02*
X12960838Y-13204091D01*
X12960838Y-13204091D02*
X12970362Y-13185044D01*
X12970362Y-13185044D02*
X12989410Y-13175520D01*
X12989410Y-13175520D02*
X13027505Y-13175520D01*
X13027505Y-13175520D02*
X13046553Y-13185044D01*
X13046553Y-13185044D02*
X13056077Y-13204091D01*
X13056077Y-13204091D02*
X13056077Y-13223139D01*
X13056077Y-13223139D02*
X12960838Y-13242187D01*
X13132267Y-13299329D02*
X13151315Y-13308853D01*
X13151315Y-13308853D02*
X13189410Y-13308853D01*
X13189410Y-13308853D02*
X13208458Y-13299329D01*
X13208458Y-13299329D02*
X13217981Y-13280282D01*
X13217981Y-13280282D02*
X13217981Y-13270758D01*
X13217981Y-13270758D02*
X13208458Y-13251710D01*
X13208458Y-13251710D02*
X13189410Y-13242187D01*
X13189410Y-13242187D02*
X13160838Y-13242187D01*
X13160838Y-13242187D02*
X13141791Y-13232663D01*
X13141791Y-13232663D02*
X13132267Y-13213615D01*
X13132267Y-13213615D02*
X13132267Y-13204091D01*
X13132267Y-13204091D02*
X13141791Y-13185044D01*
X13141791Y-13185044D02*
X13160838Y-13175520D01*
X13160838Y-13175520D02*
X13189410Y-13175520D01*
X13189410Y-13175520D02*
X13208458Y-13185044D01*
X13284648Y-13385044D02*
X13294172Y-13375520D01*
X13294172Y-13375520D02*
X13313219Y-13346948D01*
X13313219Y-13346948D02*
X13322743Y-13327901D01*
X13322743Y-13327901D02*
X13332267Y-13299329D01*
X13332267Y-13299329D02*
X13341791Y-13251710D01*
X13341791Y-13251710D02*
X13341791Y-13213615D01*
X13341791Y-13213615D02*
X13332267Y-13165996D01*
X13332267Y-13165996D02*
X13322743Y-13137425D01*
X13322743Y-13137425D02*
X13313219Y-13118377D01*
X13313219Y-13118377D02*
X13294172Y-13089806D01*
X13294172Y-13089806D02*
X13284648Y-13080282D01*
X13646553Y-13385044D02*
X13637029Y-13375520D01*
X13637029Y-13375520D02*
X13617981Y-13346948D01*
X13617981Y-13346948D02*
X13608458Y-13327901D01*
X13608458Y-13327901D02*
X13598934Y-13299329D01*
X13598934Y-13299329D02*
X13589410Y-13251710D01*
X13589410Y-13251710D02*
X13589410Y-13213615D01*
X13589410Y-13213615D02*
X13598934Y-13165996D01*
X13598934Y-13165996D02*
X13608458Y-13137425D01*
X13608458Y-13137425D02*
X13617981Y-13118377D01*
X13617981Y-13118377D02*
X13637029Y-13089806D01*
X13637029Y-13089806D02*
X13646553Y-13080282D01*
X13722743Y-13175520D02*
X13722743Y-13308853D01*
X13722743Y-13194567D02*
X13732267Y-13185044D01*
X13732267Y-13185044D02*
X13751315Y-13175520D01*
X13751315Y-13175520D02*
X13779886Y-13175520D01*
X13779886Y-13175520D02*
X13798934Y-13185044D01*
X13798934Y-13185044D02*
X13808458Y-13204091D01*
X13808458Y-13204091D02*
X13808458Y-13308853D01*
X13932267Y-13308853D02*
X13913219Y-13299329D01*
X13913219Y-13299329D02*
X13903696Y-13289806D01*
X13903696Y-13289806D02*
X13894172Y-13270758D01*
X13894172Y-13270758D02*
X13894172Y-13213615D01*
X13894172Y-13213615D02*
X13903696Y-13194567D01*
X13903696Y-13194567D02*
X13913219Y-13185044D01*
X13913219Y-13185044D02*
X13932267Y-13175520D01*
X13932267Y-13175520D02*
X13960839Y-13175520D01*
X13960839Y-13175520D02*
X13979886Y-13185044D01*
X13979886Y-13185044D02*
X13989410Y-13194567D01*
X13989410Y-13194567D02*
X13998934Y-13213615D01*
X13998934Y-13213615D02*
X13998934Y-13270758D01*
X13998934Y-13270758D02*
X13989410Y-13289806D01*
X13989410Y-13289806D02*
X13979886Y-13299329D01*
X13979886Y-13299329D02*
X13960839Y-13308853D01*
X13960839Y-13308853D02*
X13932267Y-13308853D01*
X14056077Y-13175520D02*
X14132267Y-13175520D01*
X14084648Y-13108853D02*
X14084648Y-13280282D01*
X14084648Y-13280282D02*
X14094172Y-13299329D01*
X14094172Y-13299329D02*
X14113219Y-13308853D01*
X14113219Y-13308853D02*
X14132267Y-13308853D01*
X14351315Y-13175520D02*
X14351315Y-13375520D01*
X14351315Y-13185044D02*
X14370362Y-13175520D01*
X14370362Y-13175520D02*
X14408458Y-13175520D01*
X14408458Y-13175520D02*
X14427505Y-13185044D01*
X14427505Y-13185044D02*
X14437029Y-13194567D01*
X14437029Y-13194567D02*
X14446553Y-13213615D01*
X14446553Y-13213615D02*
X14446553Y-13270758D01*
X14446553Y-13270758D02*
X14437029Y-13289806D01*
X14437029Y-13289806D02*
X14427505Y-13299329D01*
X14427505Y-13299329D02*
X14408458Y-13308853D01*
X14408458Y-13308853D02*
X14370362Y-13308853D01*
X14370362Y-13308853D02*
X14351315Y-13299329D01*
X14560839Y-13308853D02*
X14541791Y-13299329D01*
X14541791Y-13299329D02*
X14532267Y-13280282D01*
X14532267Y-13280282D02*
X14532267Y-13108853D01*
X14722743Y-13308853D02*
X14722743Y-13204091D01*
X14722743Y-13204091D02*
X14713220Y-13185044D01*
X14713220Y-13185044D02*
X14694172Y-13175520D01*
X14694172Y-13175520D02*
X14656077Y-13175520D01*
X14656077Y-13175520D02*
X14637029Y-13185044D01*
X14722743Y-13299329D02*
X14703696Y-13308853D01*
X14703696Y-13308853D02*
X14656077Y-13308853D01*
X14656077Y-13308853D02*
X14637029Y-13299329D01*
X14637029Y-13299329D02*
X14627505Y-13280282D01*
X14627505Y-13280282D02*
X14627505Y-13261234D01*
X14627505Y-13261234D02*
X14637029Y-13242187D01*
X14637029Y-13242187D02*
X14656077Y-13232663D01*
X14656077Y-13232663D02*
X14703696Y-13232663D01*
X14703696Y-13232663D02*
X14722743Y-13223139D01*
X14789410Y-13175520D02*
X14865600Y-13175520D01*
X14817981Y-13108853D02*
X14817981Y-13280282D01*
X14817981Y-13280282D02*
X14827505Y-13299329D01*
X14827505Y-13299329D02*
X14846553Y-13308853D01*
X14846553Y-13308853D02*
X14865600Y-13308853D01*
X15008458Y-13299329D02*
X14989410Y-13308853D01*
X14989410Y-13308853D02*
X14951315Y-13308853D01*
X14951315Y-13308853D02*
X14932267Y-13299329D01*
X14932267Y-13299329D02*
X14922743Y-13280282D01*
X14922743Y-13280282D02*
X14922743Y-13204091D01*
X14922743Y-13204091D02*
X14932267Y-13185044D01*
X14932267Y-13185044D02*
X14951315Y-13175520D01*
X14951315Y-13175520D02*
X14989410Y-13175520D01*
X14989410Y-13175520D02*
X15008458Y-13185044D01*
X15008458Y-13185044D02*
X15017981Y-13204091D01*
X15017981Y-13204091D02*
X15017981Y-13223139D01*
X15017981Y-13223139D02*
X14922743Y-13242187D01*
X15189410Y-13308853D02*
X15189410Y-13108853D01*
X15189410Y-13299329D02*
X15170362Y-13308853D01*
X15170362Y-13308853D02*
X15132267Y-13308853D01*
X15132267Y-13308853D02*
X15113220Y-13299329D01*
X15113220Y-13299329D02*
X15103696Y-13289806D01*
X15103696Y-13289806D02*
X15094172Y-13270758D01*
X15094172Y-13270758D02*
X15094172Y-13213615D01*
X15094172Y-13213615D02*
X15103696Y-13194567D01*
X15103696Y-13194567D02*
X15113220Y-13185044D01*
X15113220Y-13185044D02*
X15132267Y-13175520D01*
X15132267Y-13175520D02*
X15170362Y-13175520D01*
X15170362Y-13175520D02*
X15189410Y-13185044D01*
X15265601Y-13385044D02*
X15275124Y-13375520D01*
X15275124Y-13375520D02*
X15294172Y-13346948D01*
X15294172Y-13346948D02*
X15303696Y-13327901D01*
X15303696Y-13327901D02*
X15313220Y-13299329D01*
X15313220Y-13299329D02*
X15322743Y-13251710D01*
X15322743Y-13251710D02*
X15322743Y-13213615D01*
X15322743Y-13213615D02*
X15313220Y-13165996D01*
X15313220Y-13165996D02*
X15303696Y-13137425D01*
X15303696Y-13137425D02*
X15294172Y-13118377D01*
X15294172Y-13118377D02*
X15275124Y-13089806D01*
X15275124Y-13089806D02*
X15265601Y-13080282D01*
M02*
