%TF.GenerationSoftware,KiCad,Pcbnew,8.0.6*%
%TF.CreationDate,2025-02-26T16:40:36-08:00*%
%TF.ProjectId,Cymatics,43796d61-7469-4637-932e-6b696361645f,rev?*%
%TF.SameCoordinates,Original*%
%TF.FileFunction,Drillmap*%
%TF.FilePolarity,Positive*%
%FSLAX45Y45*%
G04 Gerber Fmt 4.5, Leading zero omitted, Abs format (unit mm)*
G04 Created by KiCad (PCBNEW 8.0.6) date 2025-02-26 16:40:36*
%MOMM*%
%LPD*%
G01*
G04 APERTURE LIST*
%ADD10C,0.050000*%
%ADD11C,0.200000*%
%ADD12C,0.100000*%
%ADD13C,0.110000*%
G04 APERTURE END LIST*
D10*
X9312085Y-12310869D02*
G75*
G02*
X9012091Y-12010869I5J299999D01*
G01*
X15212085Y-12310869D02*
X9312085Y-12310869D01*
X15212085Y-5310869D02*
G75*
G02*
X15512081Y-5610869I-5J-300001D01*
G01*
X9312085Y-5310869D02*
X15212085Y-5310869D01*
X15512085Y-5610869D02*
X15512085Y-12010869D01*
X9012085Y-5610869D02*
G75*
G02*
X9312085Y-5310865I300005J-1D01*
G01*
X9012085Y-5610869D02*
X9012085Y-12010869D01*
X15512085Y-12010869D02*
G75*
G02*
X15212085Y-12310875I-300005J-1D01*
G01*
D11*
D12*
X10056000Y-5540000D02*
X10086000Y-5570000D01*
X10086000Y-5540000D02*
X10056000Y-5570000D01*
X10056000Y-6240000D02*
X10086000Y-6270000D01*
X10086000Y-6240000D02*
X10056000Y-6270000D01*
X10132197Y-9929727D02*
X10162197Y-9959727D01*
X10162197Y-9929727D02*
X10132197Y-9959727D01*
X10140000Y-9829500D02*
X10170000Y-9859500D01*
X10170000Y-9829500D02*
X10140000Y-9859500D01*
X10206000Y-7250000D02*
X10236000Y-7280000D01*
X10236000Y-7250000D02*
X10206000Y-7280000D01*
X10206000Y-7504000D02*
X10236000Y-7534000D01*
X10236000Y-7504000D02*
X10206000Y-7534000D01*
X10206000Y-8394000D02*
X10236000Y-8424000D01*
X10236000Y-8394000D02*
X10206000Y-8424000D01*
X10260000Y-10898750D02*
X10290000Y-10928750D01*
X10290000Y-10898750D02*
X10260000Y-10928750D01*
X10260000Y-11828750D02*
X10290000Y-11858750D01*
X10290000Y-11828750D02*
X10260000Y-11858750D01*
X10270000Y-9585000D02*
X10300000Y-9615000D01*
X10300000Y-9585000D02*
X10270000Y-9615000D01*
X10335000Y-9679962D02*
X10365000Y-9709962D01*
X10365000Y-9679962D02*
X10335000Y-9709962D01*
X10380000Y-10768750D02*
X10410000Y-10798750D01*
X10410000Y-10768750D02*
X10380000Y-10798750D01*
X10600000Y-10615000D02*
X10630000Y-10645000D01*
X10630000Y-10615000D02*
X10600000Y-10645000D01*
X10616000Y-9730000D02*
X10646000Y-9760000D01*
X10646000Y-9730000D02*
X10616000Y-9760000D01*
X10647000Y-9493000D02*
X10677000Y-9523000D01*
X10677000Y-9493000D02*
X10647000Y-9523000D01*
X10710000Y-10768750D02*
X10740000Y-10798750D01*
X10740000Y-10768750D02*
X10710000Y-10798750D01*
X10726000Y-9840000D02*
X10756000Y-9870000D01*
X10756000Y-9840000D02*
X10726000Y-9870000D01*
X10727000Y-6843294D02*
X10757000Y-6873294D01*
X10757000Y-6843294D02*
X10727000Y-6873294D01*
X10727000Y-7395076D02*
X10757000Y-7425076D01*
X10757000Y-7395076D02*
X10727000Y-7425076D01*
X10727000Y-8283000D02*
X10757000Y-8313000D01*
X10757000Y-8283000D02*
X10727000Y-8313000D01*
X10749832Y-10617669D02*
X10779832Y-10647669D01*
X10779832Y-10617669D02*
X10749832Y-10647669D01*
X10750000Y-9596000D02*
X10780000Y-9626000D01*
X10780000Y-9596000D02*
X10750000Y-9626000D01*
X10806000Y-6340000D02*
X10836000Y-6370000D01*
X10836000Y-6340000D02*
X10806000Y-6370000D01*
X10842500Y-10372500D02*
X10872500Y-10402500D01*
X10872500Y-10372500D02*
X10842500Y-10402500D01*
X10890367Y-6574367D02*
X10920367Y-6604367D01*
X10920367Y-6574367D02*
X10890367Y-6604367D01*
X10906147Y-10606147D02*
X10936147Y-10636147D01*
X10936147Y-10606147D02*
X10906147Y-10636147D01*
X10909750Y-5640000D02*
X10939750Y-5670000D01*
X10939750Y-5640000D02*
X10909750Y-5670000D01*
X10930000Y-10768750D02*
X10960000Y-10798750D01*
X10960000Y-10768750D02*
X10930000Y-10798750D01*
X10956000Y-6736250D02*
X10986000Y-6766250D01*
X10986000Y-6736250D02*
X10956000Y-6766250D01*
X10956000Y-7286250D02*
X10986000Y-7316250D01*
X10986000Y-7286250D02*
X10956000Y-7316250D01*
X10956000Y-7989162D02*
X10986000Y-8019162D01*
X10986000Y-7989162D02*
X10956000Y-8019162D01*
X10956000Y-9932500D02*
X10986000Y-9962500D01*
X10986000Y-9932500D02*
X10956000Y-9962500D01*
X10995000Y-10372500D02*
X11025000Y-10402500D01*
X11025000Y-10372500D02*
X10995000Y-10402500D01*
X11061000Y-8694163D02*
X11091000Y-8724163D01*
X11091000Y-8694163D02*
X11061000Y-8724163D01*
X11075000Y-10372500D02*
X11105000Y-10402500D01*
X11105000Y-10372500D02*
X11075000Y-10402500D01*
X11078500Y-6293046D02*
X11108500Y-6323046D01*
X11108500Y-6293046D02*
X11078500Y-6323046D01*
X11202250Y-5640000D02*
X11232250Y-5670000D01*
X11232250Y-5640000D02*
X11202250Y-5670000D01*
X11202250Y-5990000D02*
X11232250Y-6020000D01*
X11232250Y-5990000D02*
X11202250Y-6020000D01*
X11283662Y-8362415D02*
X11313662Y-8392415D01*
X11313662Y-8362415D02*
X11283662Y-8392415D01*
X11289735Y-6173735D02*
X11319735Y-6203735D01*
X11319735Y-6173735D02*
X11289735Y-6203735D01*
X11306000Y-6635000D02*
X11336000Y-6665000D01*
X11336000Y-6635000D02*
X11306000Y-6665000D01*
X11306000Y-9281250D02*
X11336000Y-9311250D01*
X11336000Y-9281250D02*
X11306000Y-9311250D01*
X11318773Y-6052773D02*
X11348773Y-6082773D01*
X11348773Y-6052773D02*
X11318773Y-6082773D01*
X11410662Y-7817585D02*
X11440662Y-7847585D01*
X11440662Y-7817585D02*
X11410662Y-7847585D01*
X11410662Y-8362415D02*
X11440662Y-8392415D01*
X11440662Y-8362415D02*
X11410662Y-8392415D01*
X11411000Y-7412415D02*
X11441000Y-7442415D01*
X11441000Y-7412415D02*
X11411000Y-7442415D01*
X11411000Y-10062415D02*
X11441000Y-10092415D01*
X11441000Y-10062415D02*
X11411000Y-10092415D01*
X11485000Y-10335000D02*
X11515000Y-10365000D01*
X11515000Y-10335000D02*
X11485000Y-10365000D01*
X11485000Y-10530000D02*
X11515000Y-10560000D01*
X11515000Y-10530000D02*
X11485000Y-10560000D01*
X11506000Y-8694163D02*
X11536000Y-8724163D01*
X11536000Y-8694163D02*
X11506000Y-8724163D01*
X11525000Y-5593620D02*
X11555000Y-5623620D01*
X11555000Y-5593620D02*
X11525000Y-5623620D01*
X11652000Y-6086380D02*
X11682000Y-6116380D01*
X11682000Y-6086380D02*
X11652000Y-6116380D01*
X11664662Y-7817585D02*
X11694662Y-7847585D01*
X11694662Y-7817585D02*
X11664662Y-7847585D01*
X11720000Y-10873750D02*
X11750000Y-10903750D01*
X11750000Y-10873750D02*
X11720000Y-10903750D01*
X11779000Y-5593620D02*
X11809000Y-5623620D01*
X11809000Y-5593620D02*
X11779000Y-5623620D01*
X11792500Y-6517585D02*
X11822500Y-6547585D01*
X11822500Y-6517585D02*
X11792500Y-6547585D01*
X11792500Y-7062415D02*
X11822500Y-7092415D01*
X11822500Y-7062415D02*
X11792500Y-7092415D01*
X11792500Y-9167585D02*
X11822500Y-9197585D01*
X11822500Y-9167585D02*
X11792500Y-9197585D01*
X11792500Y-9712415D02*
X11822500Y-9742415D01*
X11822500Y-9712415D02*
X11792500Y-9742415D01*
X11810000Y-11828750D02*
X11840000Y-11858750D01*
X11840000Y-11828750D02*
X11810000Y-11858750D01*
X11856000Y-10062415D02*
X11886000Y-10092415D01*
X11886000Y-10062415D02*
X11856000Y-10092415D01*
X11861000Y-7412415D02*
X11891000Y-7442415D01*
X11891000Y-7412415D02*
X11861000Y-7442415D01*
X12046500Y-6517585D02*
X12076500Y-6547585D01*
X12076500Y-6517585D02*
X12046500Y-6547585D01*
X12046500Y-9167585D02*
X12076500Y-9197585D01*
X12076500Y-9167585D02*
X12046500Y-9197585D01*
X12656000Y-9940000D02*
X12686000Y-9970000D01*
X12686000Y-9940000D02*
X12656000Y-9970000D01*
X12721000Y-9890000D02*
X12751000Y-9920000D01*
X12751000Y-9890000D02*
X12721000Y-9920000D01*
X12721000Y-9990000D02*
X12751000Y-10020000D01*
X12751000Y-9990000D02*
X12721000Y-10020000D01*
X12756000Y-11040000D02*
X12786000Y-11070000D01*
X12786000Y-11040000D02*
X12756000Y-11070000D01*
X12856000Y-11040000D02*
X12886000Y-11070000D01*
X12886000Y-11040000D02*
X12856000Y-11070000D01*
X12956000Y-9148000D02*
X12986000Y-9178000D01*
X12986000Y-9148000D02*
X12956000Y-9178000D01*
X12956000Y-11040000D02*
X12986000Y-11070000D01*
X12986000Y-11040000D02*
X12956000Y-11070000D01*
X13006000Y-6545000D02*
X13036000Y-6575000D01*
X13036000Y-6545000D02*
X13006000Y-6575000D01*
X13006000Y-8095000D02*
X13036000Y-8125000D01*
X13036000Y-8095000D02*
X13006000Y-8125000D01*
X13006000Y-9590000D02*
X13036000Y-9620000D01*
X13036000Y-9590000D02*
X13006000Y-9620000D01*
X13006000Y-9940000D02*
X13036000Y-9970000D01*
X13036000Y-9940000D02*
X13006000Y-9970000D01*
X13405870Y-8534500D02*
X13435870Y-8564500D01*
X13435870Y-8534500D02*
X13405870Y-8564500D01*
X13406000Y-8990000D02*
X13436000Y-9020000D01*
X13436000Y-8990000D02*
X13406000Y-9020000D01*
X13409620Y-6980500D02*
X13439620Y-7010500D01*
X13439620Y-6980500D02*
X13409620Y-7010500D01*
X13409620Y-7436380D02*
X13439620Y-7466380D01*
X13439620Y-7436380D02*
X13409620Y-7466380D01*
X13552250Y-6494000D02*
X13582250Y-6524000D01*
X13582250Y-6494000D02*
X13552250Y-6524000D01*
X13552250Y-8048000D02*
X13582250Y-8078000D01*
X13582250Y-8048000D02*
X13552250Y-8078000D01*
X13571000Y-9597240D02*
X13601000Y-9627240D01*
X13601000Y-9597240D02*
X13571000Y-9627240D01*
X13571000Y-10090000D02*
X13601000Y-10120000D01*
X13601000Y-10090000D02*
X13571000Y-10120000D01*
X13698000Y-10090000D02*
X13728000Y-10120000D01*
X13728000Y-10090000D02*
X13698000Y-10120000D01*
X13759750Y-6494000D02*
X13789750Y-6524000D01*
X13789750Y-6494000D02*
X13759750Y-6524000D01*
X13759750Y-8048000D02*
X13789750Y-8078000D01*
X13789750Y-8048000D02*
X13759750Y-8078000D01*
X13825000Y-10090000D02*
X13855000Y-10120000D01*
X13855000Y-10090000D02*
X13825000Y-10120000D01*
X13898630Y-8407500D02*
X13928630Y-8437500D01*
X13928630Y-8407500D02*
X13898630Y-8437500D01*
X13902380Y-6853500D02*
X13932380Y-6883500D01*
X13932380Y-6853500D02*
X13902380Y-6883500D01*
X13952000Y-9597240D02*
X13982000Y-9627240D01*
X13982000Y-9597240D02*
X13952000Y-9627240D01*
X13952000Y-10090000D02*
X13982000Y-10120000D01*
X13982000Y-10090000D02*
X13952000Y-10120000D01*
X14079000Y-10090000D02*
X14109000Y-10120000D01*
X14109000Y-10090000D02*
X14079000Y-10120000D01*
X14152000Y-7036000D02*
X14182000Y-7066000D01*
X14182000Y-7036000D02*
X14152000Y-7066000D01*
X14206000Y-10090000D02*
X14236000Y-10120000D01*
X14236000Y-10090000D02*
X14206000Y-10120000D01*
X14247250Y-9148000D02*
X14277250Y-9178000D01*
X14277250Y-9148000D02*
X14247250Y-9178000D01*
X14260489Y-7593415D02*
X14290489Y-7623415D01*
X14290489Y-7593415D02*
X14260489Y-7623415D01*
X14285950Y-10698450D02*
X14315950Y-10728450D01*
X14315950Y-10698450D02*
X14285950Y-10728450D01*
X14333000Y-9597240D02*
X14363000Y-9627240D01*
X14363000Y-9597240D02*
X14333000Y-9627240D01*
X14346164Y-10645777D02*
X14376164Y-10675777D01*
X14376164Y-10645777D02*
X14346164Y-10675777D01*
X14456000Y-5540000D02*
X14486000Y-5570000D01*
X14486000Y-5540000D02*
X14456000Y-5570000D01*
X14456000Y-6490000D02*
X14486000Y-6520000D01*
X14486000Y-6490000D02*
X14456000Y-6520000D01*
X14456000Y-8494000D02*
X14486000Y-8524000D01*
X14486000Y-8494000D02*
X14456000Y-8524000D01*
X14457145Y-10538855D02*
X14487145Y-10568855D01*
X14487145Y-10538855D02*
X14457145Y-10568855D01*
X14556000Y-10440000D02*
X14586000Y-10470000D01*
X14586000Y-10440000D02*
X14556000Y-10470000D01*
X14606000Y-6744000D02*
X14636000Y-6774000D01*
X14636000Y-6744000D02*
X14606000Y-6774000D01*
X13911000Y-10555000D02*
G75*
G02*
X13831000Y-10555000I-40000J0D01*
G01*
X13831000Y-10555000D02*
G75*
G02*
X13911000Y-10555000I40000J0D01*
G01*
X13911000Y-11055000D02*
G75*
G02*
X13831000Y-11055000I-40000J0D01*
G01*
X13831000Y-11055000D02*
G75*
G02*
X13911000Y-11055000I40000J0D01*
G01*
X10471000Y-6199000D02*
X10471000Y-6299000D01*
X10421000Y-6249000D02*
X10521000Y-6249000D01*
X10471000Y-6453000D02*
X10471000Y-6553000D01*
X10421000Y-6503000D02*
X10521000Y-6503000D01*
X10471000Y-6707000D02*
X10471000Y-6807000D01*
X10421000Y-6757000D02*
X10521000Y-6757000D01*
X10471000Y-6961000D02*
X10471000Y-7061000D01*
X10421000Y-7011000D02*
X10521000Y-7011000D01*
X10471000Y-7215000D02*
X10471000Y-7315000D01*
X10421000Y-7265000D02*
X10521000Y-7265000D01*
X10471000Y-7469000D02*
X10471000Y-7569000D01*
X10421000Y-7519000D02*
X10521000Y-7519000D01*
X10471000Y-7723000D02*
X10471000Y-7823000D01*
X10421000Y-7773000D02*
X10521000Y-7773000D01*
X10471000Y-7977000D02*
X10471000Y-8077000D01*
X10421000Y-8027000D02*
X10521000Y-8027000D01*
X10471000Y-8231000D02*
X10471000Y-8331000D01*
X10421000Y-8281000D02*
X10521000Y-8281000D01*
X10471000Y-8485000D02*
X10471000Y-8585000D01*
X10421000Y-8535000D02*
X10521000Y-8535000D01*
X10471000Y-8739000D02*
X10471000Y-8839000D01*
X10421000Y-8789000D02*
X10521000Y-8789000D01*
X10471000Y-8993000D02*
X10471000Y-9093000D01*
X10421000Y-9043000D02*
X10521000Y-9043000D01*
X10471000Y-9247000D02*
X10471000Y-9347000D01*
X10421000Y-9297000D02*
X10521000Y-9297000D01*
X10471000Y-9501000D02*
X10471000Y-9601000D01*
X10421000Y-9551000D02*
X10521000Y-9551000D01*
X10471000Y-9755000D02*
X10471000Y-9855000D01*
X10421000Y-9805000D02*
X10521000Y-9805000D01*
X10471000Y-10009000D02*
X10471000Y-10109000D01*
X10421000Y-10059000D02*
X10521000Y-10059000D01*
X12503600Y-7215000D02*
X12503600Y-7315000D01*
X12453600Y-7265000D02*
X12553600Y-7265000D01*
X12503600Y-7469000D02*
X12503600Y-7569000D01*
X12453600Y-7519000D02*
X12553600Y-7519000D01*
X12503600Y-7723000D02*
X12503600Y-7823000D01*
X12453600Y-7773000D02*
X12553600Y-7773000D01*
X12503600Y-7977000D02*
X12503600Y-8077000D01*
X12453600Y-8027000D02*
X12553600Y-8027000D01*
X12503600Y-8231000D02*
X12503600Y-8331000D01*
X12453600Y-8281000D02*
X12553600Y-8281000D01*
X12503600Y-8485000D02*
X12503600Y-8585000D01*
X12453600Y-8535000D02*
X12553600Y-8535000D01*
X12503600Y-8739000D02*
X12503600Y-8839000D01*
X12453600Y-8789000D02*
X12553600Y-8789000D01*
X12503600Y-8993000D02*
X12503600Y-9093000D01*
X12453600Y-9043000D02*
X12553600Y-9043000D01*
X12503600Y-9247000D02*
X12503600Y-9347000D01*
X12453600Y-9297000D02*
X12553600Y-9297000D01*
X12503600Y-9501000D02*
X12503600Y-9601000D01*
X12453600Y-9551000D02*
X12553600Y-9551000D01*
X12503600Y-9755000D02*
X12503600Y-9855000D01*
X12453600Y-9805000D02*
X12553600Y-9805000D01*
X12503600Y-10009000D02*
X12503600Y-10109000D01*
X12453600Y-10059000D02*
X12553600Y-10059000D01*
D13*
X9609891Y-6716891D02*
X9609891Y-6639109D01*
X9532109Y-6639109D01*
X9532109Y-6716891D01*
X9609891Y-6716891D01*
X9609891Y-6970891D02*
X9609891Y-6893109D01*
X9532109Y-6893109D01*
X9532109Y-6970891D01*
X9609891Y-6970891D01*
X9609891Y-7466891D02*
X9609891Y-7389109D01*
X9532109Y-7389109D01*
X9532109Y-7466891D01*
X9609891Y-7466891D01*
X9609891Y-7720891D02*
X9609891Y-7643109D01*
X9532109Y-7643109D01*
X9532109Y-7720891D01*
X9609891Y-7720891D01*
X9609891Y-8193891D02*
X9609891Y-8116109D01*
X9532109Y-8116109D01*
X9532109Y-8193891D01*
X9609891Y-8193891D01*
X9609891Y-8447891D02*
X9609891Y-8370109D01*
X9532109Y-8370109D01*
X9532109Y-8447891D01*
X9609891Y-8447891D01*
X9609891Y-8889891D02*
X9609891Y-8812109D01*
X9532109Y-8812109D01*
X9532109Y-8889891D01*
X9609891Y-8889891D01*
X9609891Y-9143891D02*
X9609891Y-9066109D01*
X9532109Y-9066109D01*
X9532109Y-9143891D01*
X9609891Y-9143891D01*
X9609891Y-9397891D02*
X9609891Y-9320109D01*
X9532109Y-9320109D01*
X9532109Y-9397891D01*
X9609891Y-9397891D01*
X9609891Y-9651891D02*
X9609891Y-9574109D01*
X9532109Y-9574109D01*
X9532109Y-9651891D01*
X9609891Y-9651891D01*
X9609891Y-10093891D02*
X9609891Y-10016109D01*
X9532109Y-10016109D01*
X9532109Y-10093891D01*
X9609891Y-10093891D01*
X9609891Y-10347891D02*
X9609891Y-10270109D01*
X9532109Y-10270109D01*
X9532109Y-10347891D01*
X9609891Y-10347891D01*
X9609891Y-10601891D02*
X9609891Y-10524109D01*
X9532109Y-10524109D01*
X9532109Y-10601891D01*
X9609891Y-10601891D01*
X9609891Y-10855891D02*
X9609891Y-10778109D01*
X9532109Y-10778109D01*
X9532109Y-10855891D01*
X9609891Y-10855891D01*
X9609891Y-11109891D02*
X9609891Y-11032109D01*
X9532109Y-11032109D01*
X9532109Y-11109891D01*
X9609891Y-11109891D01*
X9609891Y-11363891D02*
X9609891Y-11286109D01*
X9532109Y-11286109D01*
X9532109Y-11363891D01*
X9609891Y-11363891D01*
X12351891Y-11793891D02*
X12351891Y-11716109D01*
X12274109Y-11716109D01*
X12274109Y-11793891D01*
X12351891Y-11793891D01*
X12605891Y-11793891D02*
X12605891Y-11716109D01*
X12528109Y-11716109D01*
X12528109Y-11793891D01*
X12605891Y-11793891D01*
X12859891Y-11793891D02*
X12859891Y-11716109D01*
X12782109Y-11716109D01*
X12782109Y-11793891D01*
X12859891Y-11793891D01*
X13063891Y-5893891D02*
X13063891Y-5816109D01*
X12986109Y-5816109D01*
X12986109Y-5893891D01*
X13063891Y-5893891D01*
X13317891Y-5893891D02*
X13317891Y-5816109D01*
X13240109Y-5816109D01*
X13240109Y-5893891D01*
X13317891Y-5893891D01*
X13343891Y-11793891D02*
X13343891Y-11716109D01*
X13266109Y-11716109D01*
X13266109Y-11793891D01*
X13343891Y-11793891D01*
X13597891Y-11793891D02*
X13597891Y-11716109D01*
X13520109Y-11716109D01*
X13520109Y-11793891D01*
X13597891Y-11793891D01*
X13809891Y-5893891D02*
X13809891Y-5816109D01*
X13732109Y-5816109D01*
X13732109Y-5893891D01*
X13809891Y-5893891D01*
X13851891Y-11793891D02*
X13851891Y-11716109D01*
X13774109Y-11716109D01*
X13774109Y-11793891D01*
X13851891Y-11793891D01*
X14063891Y-5893891D02*
X14063891Y-5816109D01*
X13986109Y-5816109D01*
X13986109Y-5893891D01*
X14063891Y-5893891D01*
X14105891Y-11793891D02*
X14105891Y-11716109D01*
X14028109Y-11716109D01*
X14028109Y-11793891D01*
X14105891Y-11793891D01*
X14359891Y-11793891D02*
X14359891Y-11716109D01*
X14282109Y-11716109D01*
X14282109Y-11793891D01*
X14359891Y-11793891D01*
X15009891Y-6289891D02*
X15009891Y-6212109D01*
X14932109Y-6212109D01*
X14932109Y-6289891D01*
X15009891Y-6289891D01*
X15009891Y-6543891D02*
X15009891Y-6466109D01*
X14932109Y-6466109D01*
X14932109Y-6543891D01*
X15009891Y-6543891D01*
X15009891Y-6797891D02*
X15009891Y-6720109D01*
X14932109Y-6720109D01*
X14932109Y-6797891D01*
X15009891Y-6797891D01*
X15009891Y-7293891D02*
X15009891Y-7216109D01*
X14932109Y-7216109D01*
X14932109Y-7293891D01*
X15009891Y-7293891D01*
X15009891Y-7547891D02*
X15009891Y-7470109D01*
X14932109Y-7470109D01*
X14932109Y-7547891D01*
X15009891Y-7547891D01*
X15009891Y-7801891D02*
X15009891Y-7724109D01*
X14932109Y-7724109D01*
X14932109Y-7801891D01*
X15009891Y-7801891D01*
X15009891Y-8293891D02*
X15009891Y-8216109D01*
X14932109Y-8216109D01*
X14932109Y-8293891D01*
X15009891Y-8293891D01*
X15009891Y-8547891D02*
X15009891Y-8470109D01*
X14932109Y-8470109D01*
X14932109Y-8547891D01*
X15009891Y-8547891D01*
X15009891Y-8801891D02*
X15009891Y-8724109D01*
X14932109Y-8724109D01*
X14932109Y-8801891D01*
X15009891Y-8801891D01*
X15009891Y-9281891D02*
X15009891Y-9204109D01*
X14932109Y-9204109D01*
X14932109Y-9281891D01*
X15009891Y-9281891D01*
X15009891Y-9535891D02*
X15009891Y-9458109D01*
X14932109Y-9458109D01*
X14932109Y-9535891D01*
X15009891Y-9535891D01*
X15009891Y-9789891D02*
X15009891Y-9712109D01*
X14932109Y-9712109D01*
X14932109Y-9789891D01*
X15009891Y-9789891D01*
X15009891Y-10043891D02*
X15009891Y-9966109D01*
X14932109Y-9966109D01*
X14932109Y-10043891D01*
X15009891Y-10043891D01*
X15009891Y-10493891D02*
X15009891Y-10416109D01*
X14932109Y-10416109D01*
X14932109Y-10493891D01*
X15009891Y-10493891D01*
X15009891Y-10747891D02*
X15009891Y-10670109D01*
X14932109Y-10670109D01*
X14932109Y-10747891D01*
X15009891Y-10747891D01*
X15009891Y-11166891D02*
X15009891Y-11089109D01*
X14932109Y-11089109D01*
X14932109Y-11166891D01*
X15009891Y-11166891D01*
X15009891Y-11420891D02*
X15009891Y-11343109D01*
X14932109Y-11343109D01*
X14932109Y-11420891D01*
X15009891Y-11420891D01*
D11*
X9270362Y-12624853D02*
X9270362Y-12424853D01*
X9270362Y-12424853D02*
X9317981Y-12424853D01*
X9317981Y-12424853D02*
X9346552Y-12434377D01*
X9346552Y-12434377D02*
X9365600Y-12453425D01*
X9365600Y-12453425D02*
X9375124Y-12472472D01*
X9375124Y-12472472D02*
X9384647Y-12510567D01*
X9384647Y-12510567D02*
X9384647Y-12539139D01*
X9384647Y-12539139D02*
X9375124Y-12577234D01*
X9375124Y-12577234D02*
X9365600Y-12596282D01*
X9365600Y-12596282D02*
X9346552Y-12615329D01*
X9346552Y-12615329D02*
X9317981Y-12624853D01*
X9317981Y-12624853D02*
X9270362Y-12624853D01*
X9470362Y-12624853D02*
X9470362Y-12491520D01*
X9470362Y-12529615D02*
X9479886Y-12510567D01*
X9479886Y-12510567D02*
X9489409Y-12501044D01*
X9489409Y-12501044D02*
X9508457Y-12491520D01*
X9508457Y-12491520D02*
X9527505Y-12491520D01*
X9594171Y-12624853D02*
X9594171Y-12491520D01*
X9594171Y-12424853D02*
X9584647Y-12434377D01*
X9584647Y-12434377D02*
X9594171Y-12443901D01*
X9594171Y-12443901D02*
X9603695Y-12434377D01*
X9603695Y-12434377D02*
X9594171Y-12424853D01*
X9594171Y-12424853D02*
X9594171Y-12443901D01*
X9717981Y-12624853D02*
X9698933Y-12615329D01*
X9698933Y-12615329D02*
X9689409Y-12596282D01*
X9689409Y-12596282D02*
X9689409Y-12424853D01*
X9822743Y-12624853D02*
X9803695Y-12615329D01*
X9803695Y-12615329D02*
X9794171Y-12596282D01*
X9794171Y-12596282D02*
X9794171Y-12424853D01*
X10051314Y-12624853D02*
X10051314Y-12424853D01*
X10051314Y-12424853D02*
X10117981Y-12567710D01*
X10117981Y-12567710D02*
X10184647Y-12424853D01*
X10184647Y-12424853D02*
X10184647Y-12624853D01*
X10365600Y-12624853D02*
X10365600Y-12520091D01*
X10365600Y-12520091D02*
X10356076Y-12501044D01*
X10356076Y-12501044D02*
X10337028Y-12491520D01*
X10337028Y-12491520D02*
X10298933Y-12491520D01*
X10298933Y-12491520D02*
X10279886Y-12501044D01*
X10365600Y-12615329D02*
X10346552Y-12624853D01*
X10346552Y-12624853D02*
X10298933Y-12624853D01*
X10298933Y-12624853D02*
X10279886Y-12615329D01*
X10279886Y-12615329D02*
X10270362Y-12596282D01*
X10270362Y-12596282D02*
X10270362Y-12577234D01*
X10270362Y-12577234D02*
X10279886Y-12558187D01*
X10279886Y-12558187D02*
X10298933Y-12548663D01*
X10298933Y-12548663D02*
X10346552Y-12548663D01*
X10346552Y-12548663D02*
X10365600Y-12539139D01*
X10460838Y-12491520D02*
X10460838Y-12691520D01*
X10460838Y-12501044D02*
X10479886Y-12491520D01*
X10479886Y-12491520D02*
X10517981Y-12491520D01*
X10517981Y-12491520D02*
X10537028Y-12501044D01*
X10537028Y-12501044D02*
X10546552Y-12510567D01*
X10546552Y-12510567D02*
X10556076Y-12529615D01*
X10556076Y-12529615D02*
X10556076Y-12586758D01*
X10556076Y-12586758D02*
X10546552Y-12605806D01*
X10546552Y-12605806D02*
X10537028Y-12615329D01*
X10537028Y-12615329D02*
X10517981Y-12624853D01*
X10517981Y-12624853D02*
X10479886Y-12624853D01*
X10479886Y-12624853D02*
X10460838Y-12615329D01*
X10641790Y-12605806D02*
X10651314Y-12615329D01*
X10651314Y-12615329D02*
X10641790Y-12624853D01*
X10641790Y-12624853D02*
X10632267Y-12615329D01*
X10632267Y-12615329D02*
X10641790Y-12605806D01*
X10641790Y-12605806D02*
X10641790Y-12624853D01*
X10641790Y-12501044D02*
X10651314Y-12510567D01*
X10651314Y-12510567D02*
X10641790Y-12520091D01*
X10641790Y-12520091D02*
X10632267Y-12510567D01*
X10632267Y-12510567D02*
X10641790Y-12501044D01*
X10641790Y-12501044D02*
X10641790Y-12520091D01*
D12*
X8979585Y-12938369D02*
X9009585Y-12968369D01*
X9009585Y-12938369D02*
X8979585Y-12968369D01*
D11*
X9308457Y-12844853D02*
X9327505Y-12844853D01*
X9327505Y-12844853D02*
X9346552Y-12854377D01*
X9346552Y-12854377D02*
X9356076Y-12863901D01*
X9356076Y-12863901D02*
X9365600Y-12882948D01*
X9365600Y-12882948D02*
X9375124Y-12921044D01*
X9375124Y-12921044D02*
X9375124Y-12968663D01*
X9375124Y-12968663D02*
X9365600Y-13006758D01*
X9365600Y-13006758D02*
X9356076Y-13025806D01*
X9356076Y-13025806D02*
X9346552Y-13035329D01*
X9346552Y-13035329D02*
X9327505Y-13044853D01*
X9327505Y-13044853D02*
X9308457Y-13044853D01*
X9308457Y-13044853D02*
X9289409Y-13035329D01*
X9289409Y-13035329D02*
X9279886Y-13025806D01*
X9279886Y-13025806D02*
X9270362Y-13006758D01*
X9270362Y-13006758D02*
X9260838Y-12968663D01*
X9260838Y-12968663D02*
X9260838Y-12921044D01*
X9260838Y-12921044D02*
X9270362Y-12882948D01*
X9270362Y-12882948D02*
X9279886Y-12863901D01*
X9279886Y-12863901D02*
X9289409Y-12854377D01*
X9289409Y-12854377D02*
X9308457Y-12844853D01*
X9460838Y-13025806D02*
X9470362Y-13035329D01*
X9470362Y-13035329D02*
X9460838Y-13044853D01*
X9460838Y-13044853D02*
X9451314Y-13035329D01*
X9451314Y-13035329D02*
X9460838Y-13025806D01*
X9460838Y-13025806D02*
X9460838Y-13044853D01*
X9537028Y-12844853D02*
X9660838Y-12844853D01*
X9660838Y-12844853D02*
X9594171Y-12921044D01*
X9594171Y-12921044D02*
X9622743Y-12921044D01*
X9622743Y-12921044D02*
X9641790Y-12930567D01*
X9641790Y-12930567D02*
X9651314Y-12940091D01*
X9651314Y-12940091D02*
X9660838Y-12959139D01*
X9660838Y-12959139D02*
X9660838Y-13006758D01*
X9660838Y-13006758D02*
X9651314Y-13025806D01*
X9651314Y-13025806D02*
X9641790Y-13035329D01*
X9641790Y-13035329D02*
X9622743Y-13044853D01*
X9622743Y-13044853D02*
X9565600Y-13044853D01*
X9565600Y-13044853D02*
X9546552Y-13035329D01*
X9546552Y-13035329D02*
X9537028Y-13025806D01*
X9784647Y-12844853D02*
X9803695Y-12844853D01*
X9803695Y-12844853D02*
X9822743Y-12854377D01*
X9822743Y-12854377D02*
X9832267Y-12863901D01*
X9832267Y-12863901D02*
X9841790Y-12882948D01*
X9841790Y-12882948D02*
X9851314Y-12921044D01*
X9851314Y-12921044D02*
X9851314Y-12968663D01*
X9851314Y-12968663D02*
X9841790Y-13006758D01*
X9841790Y-13006758D02*
X9832267Y-13025806D01*
X9832267Y-13025806D02*
X9822743Y-13035329D01*
X9822743Y-13035329D02*
X9803695Y-13044853D01*
X9803695Y-13044853D02*
X9784647Y-13044853D01*
X9784647Y-13044853D02*
X9765600Y-13035329D01*
X9765600Y-13035329D02*
X9756076Y-13025806D01*
X9756076Y-13025806D02*
X9746552Y-13006758D01*
X9746552Y-13006758D02*
X9737028Y-12968663D01*
X9737028Y-12968663D02*
X9737028Y-12921044D01*
X9737028Y-12921044D02*
X9746552Y-12882948D01*
X9746552Y-12882948D02*
X9756076Y-12863901D01*
X9756076Y-12863901D02*
X9765600Y-12854377D01*
X9765600Y-12854377D02*
X9784647Y-12844853D01*
X9975124Y-12844853D02*
X9994171Y-12844853D01*
X9994171Y-12844853D02*
X10013219Y-12854377D01*
X10013219Y-12854377D02*
X10022743Y-12863901D01*
X10022743Y-12863901D02*
X10032267Y-12882948D01*
X10032267Y-12882948D02*
X10041790Y-12921044D01*
X10041790Y-12921044D02*
X10041790Y-12968663D01*
X10041790Y-12968663D02*
X10032267Y-13006758D01*
X10032267Y-13006758D02*
X10022743Y-13025806D01*
X10022743Y-13025806D02*
X10013219Y-13035329D01*
X10013219Y-13035329D02*
X9994171Y-13044853D01*
X9994171Y-13044853D02*
X9975124Y-13044853D01*
X9975124Y-13044853D02*
X9956076Y-13035329D01*
X9956076Y-13035329D02*
X9946552Y-13025806D01*
X9946552Y-13025806D02*
X9937028Y-13006758D01*
X9937028Y-13006758D02*
X9927505Y-12968663D01*
X9927505Y-12968663D02*
X9927505Y-12921044D01*
X9927505Y-12921044D02*
X9937028Y-12882948D01*
X9937028Y-12882948D02*
X9946552Y-12863901D01*
X9946552Y-12863901D02*
X9956076Y-12854377D01*
X9956076Y-12854377D02*
X9975124Y-12844853D01*
X10127505Y-13044853D02*
X10127505Y-12911520D01*
X10127505Y-12930567D02*
X10137028Y-12921044D01*
X10137028Y-12921044D02*
X10156076Y-12911520D01*
X10156076Y-12911520D02*
X10184648Y-12911520D01*
X10184648Y-12911520D02*
X10203695Y-12921044D01*
X10203695Y-12921044D02*
X10213219Y-12940091D01*
X10213219Y-12940091D02*
X10213219Y-13044853D01*
X10213219Y-12940091D02*
X10222743Y-12921044D01*
X10222743Y-12921044D02*
X10241790Y-12911520D01*
X10241790Y-12911520D02*
X10270362Y-12911520D01*
X10270362Y-12911520D02*
X10289409Y-12921044D01*
X10289409Y-12921044D02*
X10298933Y-12940091D01*
X10298933Y-12940091D02*
X10298933Y-13044853D01*
X10394171Y-13044853D02*
X10394171Y-12911520D01*
X10394171Y-12930567D02*
X10403695Y-12921044D01*
X10403695Y-12921044D02*
X10422743Y-12911520D01*
X10422743Y-12911520D02*
X10451314Y-12911520D01*
X10451314Y-12911520D02*
X10470362Y-12921044D01*
X10470362Y-12921044D02*
X10479886Y-12940091D01*
X10479886Y-12940091D02*
X10479886Y-13044853D01*
X10479886Y-12940091D02*
X10489409Y-12921044D01*
X10489409Y-12921044D02*
X10508457Y-12911520D01*
X10508457Y-12911520D02*
X10537028Y-12911520D01*
X10537028Y-12911520D02*
X10556076Y-12921044D01*
X10556076Y-12921044D02*
X10565600Y-12940091D01*
X10565600Y-12940091D02*
X10565600Y-13044853D01*
X10956076Y-12835329D02*
X10784648Y-13092472D01*
X11213219Y-12844853D02*
X11232267Y-12844853D01*
X11232267Y-12844853D02*
X11251314Y-12854377D01*
X11251314Y-12854377D02*
X11260838Y-12863901D01*
X11260838Y-12863901D02*
X11270362Y-12882948D01*
X11270362Y-12882948D02*
X11279886Y-12921044D01*
X11279886Y-12921044D02*
X11279886Y-12968663D01*
X11279886Y-12968663D02*
X11270362Y-13006758D01*
X11270362Y-13006758D02*
X11260838Y-13025806D01*
X11260838Y-13025806D02*
X11251314Y-13035329D01*
X11251314Y-13035329D02*
X11232267Y-13044853D01*
X11232267Y-13044853D02*
X11213219Y-13044853D01*
X11213219Y-13044853D02*
X11194171Y-13035329D01*
X11194171Y-13035329D02*
X11184648Y-13025806D01*
X11184648Y-13025806D02*
X11175124Y-13006758D01*
X11175124Y-13006758D02*
X11165600Y-12968663D01*
X11165600Y-12968663D02*
X11165600Y-12921044D01*
X11165600Y-12921044D02*
X11175124Y-12882948D01*
X11175124Y-12882948D02*
X11184648Y-12863901D01*
X11184648Y-12863901D02*
X11194171Y-12854377D01*
X11194171Y-12854377D02*
X11213219Y-12844853D01*
X11365600Y-13025806D02*
X11375124Y-13035329D01*
X11375124Y-13035329D02*
X11365600Y-13044853D01*
X11365600Y-13044853D02*
X11356076Y-13035329D01*
X11356076Y-13035329D02*
X11365600Y-13025806D01*
X11365600Y-13025806D02*
X11365600Y-13044853D01*
X11498933Y-12844853D02*
X11517981Y-12844853D01*
X11517981Y-12844853D02*
X11537029Y-12854377D01*
X11537029Y-12854377D02*
X11546552Y-12863901D01*
X11546552Y-12863901D02*
X11556076Y-12882948D01*
X11556076Y-12882948D02*
X11565600Y-12921044D01*
X11565600Y-12921044D02*
X11565600Y-12968663D01*
X11565600Y-12968663D02*
X11556076Y-13006758D01*
X11556076Y-13006758D02*
X11546552Y-13025806D01*
X11546552Y-13025806D02*
X11537029Y-13035329D01*
X11537029Y-13035329D02*
X11517981Y-13044853D01*
X11517981Y-13044853D02*
X11498933Y-13044853D01*
X11498933Y-13044853D02*
X11479886Y-13035329D01*
X11479886Y-13035329D02*
X11470362Y-13025806D01*
X11470362Y-13025806D02*
X11460838Y-13006758D01*
X11460838Y-13006758D02*
X11451314Y-12968663D01*
X11451314Y-12968663D02*
X11451314Y-12921044D01*
X11451314Y-12921044D02*
X11460838Y-12882948D01*
X11460838Y-12882948D02*
X11470362Y-12863901D01*
X11470362Y-12863901D02*
X11479886Y-12854377D01*
X11479886Y-12854377D02*
X11498933Y-12844853D01*
X11756076Y-13044853D02*
X11641790Y-13044853D01*
X11698933Y-13044853D02*
X11698933Y-12844853D01*
X11698933Y-12844853D02*
X11679886Y-12873425D01*
X11679886Y-12873425D02*
X11660838Y-12892472D01*
X11660838Y-12892472D02*
X11641790Y-12901996D01*
X11946552Y-13044853D02*
X11832267Y-13044853D01*
X11889409Y-13044853D02*
X11889409Y-12844853D01*
X11889409Y-12844853D02*
X11870362Y-12873425D01*
X11870362Y-12873425D02*
X11851314Y-12892472D01*
X11851314Y-12892472D02*
X11832267Y-12901996D01*
X12060838Y-12930567D02*
X12041790Y-12921044D01*
X12041790Y-12921044D02*
X12032267Y-12911520D01*
X12032267Y-12911520D02*
X12022743Y-12892472D01*
X12022743Y-12892472D02*
X12022743Y-12882948D01*
X12022743Y-12882948D02*
X12032267Y-12863901D01*
X12032267Y-12863901D02*
X12041790Y-12854377D01*
X12041790Y-12854377D02*
X12060838Y-12844853D01*
X12060838Y-12844853D02*
X12098933Y-12844853D01*
X12098933Y-12844853D02*
X12117981Y-12854377D01*
X12117981Y-12854377D02*
X12127505Y-12863901D01*
X12127505Y-12863901D02*
X12137029Y-12882948D01*
X12137029Y-12882948D02*
X12137029Y-12892472D01*
X12137029Y-12892472D02*
X12127505Y-12911520D01*
X12127505Y-12911520D02*
X12117981Y-12921044D01*
X12117981Y-12921044D02*
X12098933Y-12930567D01*
X12098933Y-12930567D02*
X12060838Y-12930567D01*
X12060838Y-12930567D02*
X12041790Y-12940091D01*
X12041790Y-12940091D02*
X12032267Y-12949615D01*
X12032267Y-12949615D02*
X12022743Y-12968663D01*
X12022743Y-12968663D02*
X12022743Y-13006758D01*
X12022743Y-13006758D02*
X12032267Y-13025806D01*
X12032267Y-13025806D02*
X12041790Y-13035329D01*
X12041790Y-13035329D02*
X12060838Y-13044853D01*
X12060838Y-13044853D02*
X12098933Y-13044853D01*
X12098933Y-13044853D02*
X12117981Y-13035329D01*
X12117981Y-13035329D02*
X12127505Y-13025806D01*
X12127505Y-13025806D02*
X12137029Y-13006758D01*
X12137029Y-13006758D02*
X12137029Y-12968663D01*
X12137029Y-12968663D02*
X12127505Y-12949615D01*
X12127505Y-12949615D02*
X12117981Y-12940091D01*
X12117981Y-12940091D02*
X12098933Y-12930567D01*
X12213219Y-12844853D02*
X12213219Y-12882948D01*
X12289410Y-12844853D02*
X12289410Y-12882948D01*
X12584648Y-13121044D02*
X12575124Y-13111520D01*
X12575124Y-13111520D02*
X12556076Y-13082948D01*
X12556076Y-13082948D02*
X12546552Y-13063901D01*
X12546552Y-13063901D02*
X12537029Y-13035329D01*
X12537029Y-13035329D02*
X12527505Y-12987710D01*
X12527505Y-12987710D02*
X12527505Y-12949615D01*
X12527505Y-12949615D02*
X12537029Y-12901996D01*
X12537029Y-12901996D02*
X12546552Y-12873425D01*
X12546552Y-12873425D02*
X12556076Y-12854377D01*
X12556076Y-12854377D02*
X12575124Y-12825806D01*
X12575124Y-12825806D02*
X12584648Y-12816282D01*
X12765600Y-13044853D02*
X12651314Y-13044853D01*
X12708457Y-13044853D02*
X12708457Y-12844853D01*
X12708457Y-12844853D02*
X12689410Y-12873425D01*
X12689410Y-12873425D02*
X12670362Y-12892472D01*
X12670362Y-12892472D02*
X12651314Y-12901996D01*
X12889410Y-12844853D02*
X12908457Y-12844853D01*
X12908457Y-12844853D02*
X12927505Y-12854377D01*
X12927505Y-12854377D02*
X12937029Y-12863901D01*
X12937029Y-12863901D02*
X12946552Y-12882948D01*
X12946552Y-12882948D02*
X12956076Y-12921044D01*
X12956076Y-12921044D02*
X12956076Y-12968663D01*
X12956076Y-12968663D02*
X12946552Y-13006758D01*
X12946552Y-13006758D02*
X12937029Y-13025806D01*
X12937029Y-13025806D02*
X12927505Y-13035329D01*
X12927505Y-13035329D02*
X12908457Y-13044853D01*
X12908457Y-13044853D02*
X12889410Y-13044853D01*
X12889410Y-13044853D02*
X12870362Y-13035329D01*
X12870362Y-13035329D02*
X12860838Y-13025806D01*
X12860838Y-13025806D02*
X12851314Y-13006758D01*
X12851314Y-13006758D02*
X12841791Y-12968663D01*
X12841791Y-12968663D02*
X12841791Y-12921044D01*
X12841791Y-12921044D02*
X12851314Y-12882948D01*
X12851314Y-12882948D02*
X12860838Y-12863901D01*
X12860838Y-12863901D02*
X12870362Y-12854377D01*
X12870362Y-12854377D02*
X12889410Y-12844853D01*
X13137029Y-12844853D02*
X13041791Y-12844853D01*
X13041791Y-12844853D02*
X13032267Y-12940091D01*
X13032267Y-12940091D02*
X13041791Y-12930567D01*
X13041791Y-12930567D02*
X13060838Y-12921044D01*
X13060838Y-12921044D02*
X13108457Y-12921044D01*
X13108457Y-12921044D02*
X13127505Y-12930567D01*
X13127505Y-12930567D02*
X13137029Y-12940091D01*
X13137029Y-12940091D02*
X13146552Y-12959139D01*
X13146552Y-12959139D02*
X13146552Y-13006758D01*
X13146552Y-13006758D02*
X13137029Y-13025806D01*
X13137029Y-13025806D02*
X13127505Y-13035329D01*
X13127505Y-13035329D02*
X13108457Y-13044853D01*
X13108457Y-13044853D02*
X13060838Y-13044853D01*
X13060838Y-13044853D02*
X13041791Y-13035329D01*
X13041791Y-13035329D02*
X13032267Y-13025806D01*
X13384648Y-13044853D02*
X13384648Y-12844853D01*
X13470362Y-13044853D02*
X13470362Y-12940091D01*
X13470362Y-12940091D02*
X13460838Y-12921044D01*
X13460838Y-12921044D02*
X13441791Y-12911520D01*
X13441791Y-12911520D02*
X13413219Y-12911520D01*
X13413219Y-12911520D02*
X13394172Y-12921044D01*
X13394172Y-12921044D02*
X13384648Y-12930567D01*
X13594172Y-13044853D02*
X13575124Y-13035329D01*
X13575124Y-13035329D02*
X13565600Y-13025806D01*
X13565600Y-13025806D02*
X13556076Y-13006758D01*
X13556076Y-13006758D02*
X13556076Y-12949615D01*
X13556076Y-12949615D02*
X13565600Y-12930567D01*
X13565600Y-12930567D02*
X13575124Y-12921044D01*
X13575124Y-12921044D02*
X13594172Y-12911520D01*
X13594172Y-12911520D02*
X13622743Y-12911520D01*
X13622743Y-12911520D02*
X13641791Y-12921044D01*
X13641791Y-12921044D02*
X13651314Y-12930567D01*
X13651314Y-12930567D02*
X13660838Y-12949615D01*
X13660838Y-12949615D02*
X13660838Y-13006758D01*
X13660838Y-13006758D02*
X13651314Y-13025806D01*
X13651314Y-13025806D02*
X13641791Y-13035329D01*
X13641791Y-13035329D02*
X13622743Y-13044853D01*
X13622743Y-13044853D02*
X13594172Y-13044853D01*
X13775124Y-13044853D02*
X13756076Y-13035329D01*
X13756076Y-13035329D02*
X13746553Y-13016282D01*
X13746553Y-13016282D02*
X13746553Y-12844853D01*
X13927505Y-13035329D02*
X13908457Y-13044853D01*
X13908457Y-13044853D02*
X13870362Y-13044853D01*
X13870362Y-13044853D02*
X13851314Y-13035329D01*
X13851314Y-13035329D02*
X13841791Y-13016282D01*
X13841791Y-13016282D02*
X13841791Y-12940091D01*
X13841791Y-12940091D02*
X13851314Y-12921044D01*
X13851314Y-12921044D02*
X13870362Y-12911520D01*
X13870362Y-12911520D02*
X13908457Y-12911520D01*
X13908457Y-12911520D02*
X13927505Y-12921044D01*
X13927505Y-12921044D02*
X13937029Y-12940091D01*
X13937029Y-12940091D02*
X13937029Y-12959139D01*
X13937029Y-12959139D02*
X13841791Y-12978187D01*
X14013219Y-13035329D02*
X14032267Y-13044853D01*
X14032267Y-13044853D02*
X14070362Y-13044853D01*
X14070362Y-13044853D02*
X14089410Y-13035329D01*
X14089410Y-13035329D02*
X14098934Y-13016282D01*
X14098934Y-13016282D02*
X14098934Y-13006758D01*
X14098934Y-13006758D02*
X14089410Y-12987710D01*
X14089410Y-12987710D02*
X14070362Y-12978187D01*
X14070362Y-12978187D02*
X14041791Y-12978187D01*
X14041791Y-12978187D02*
X14022743Y-12968663D01*
X14022743Y-12968663D02*
X14013219Y-12949615D01*
X14013219Y-12949615D02*
X14013219Y-12940091D01*
X14013219Y-12940091D02*
X14022743Y-12921044D01*
X14022743Y-12921044D02*
X14041791Y-12911520D01*
X14041791Y-12911520D02*
X14070362Y-12911520D01*
X14070362Y-12911520D02*
X14089410Y-12921044D01*
X14165600Y-13121044D02*
X14175124Y-13111520D01*
X14175124Y-13111520D02*
X14194172Y-13082948D01*
X14194172Y-13082948D02*
X14203695Y-13063901D01*
X14203695Y-13063901D02*
X14213219Y-13035329D01*
X14213219Y-13035329D02*
X14222743Y-12987710D01*
X14222743Y-12987710D02*
X14222743Y-12949615D01*
X14222743Y-12949615D02*
X14213219Y-12901996D01*
X14213219Y-12901996D02*
X14203695Y-12873425D01*
X14203695Y-12873425D02*
X14194172Y-12854377D01*
X14194172Y-12854377D02*
X14175124Y-12825806D01*
X14175124Y-12825806D02*
X14165600Y-12816282D01*
D12*
X9009585Y-13217369D02*
G75*
G02*
X8929585Y-13217369I-40000J0D01*
G01*
X8929585Y-13217369D02*
G75*
G02*
X9009585Y-13217369I40000J0D01*
G01*
D11*
X9308457Y-13108853D02*
X9327505Y-13108853D01*
X9327505Y-13108853D02*
X9346552Y-13118377D01*
X9346552Y-13118377D02*
X9356076Y-13127901D01*
X9356076Y-13127901D02*
X9365600Y-13146948D01*
X9365600Y-13146948D02*
X9375124Y-13185044D01*
X9375124Y-13185044D02*
X9375124Y-13232663D01*
X9375124Y-13232663D02*
X9365600Y-13270758D01*
X9365600Y-13270758D02*
X9356076Y-13289806D01*
X9356076Y-13289806D02*
X9346552Y-13299329D01*
X9346552Y-13299329D02*
X9327505Y-13308853D01*
X9327505Y-13308853D02*
X9308457Y-13308853D01*
X9308457Y-13308853D02*
X9289409Y-13299329D01*
X9289409Y-13299329D02*
X9279886Y-13289806D01*
X9279886Y-13289806D02*
X9270362Y-13270758D01*
X9270362Y-13270758D02*
X9260838Y-13232663D01*
X9260838Y-13232663D02*
X9260838Y-13185044D01*
X9260838Y-13185044D02*
X9270362Y-13146948D01*
X9270362Y-13146948D02*
X9279886Y-13127901D01*
X9279886Y-13127901D02*
X9289409Y-13118377D01*
X9289409Y-13118377D02*
X9308457Y-13108853D01*
X9460838Y-13289806D02*
X9470362Y-13299329D01*
X9470362Y-13299329D02*
X9460838Y-13308853D01*
X9460838Y-13308853D02*
X9451314Y-13299329D01*
X9451314Y-13299329D02*
X9460838Y-13289806D01*
X9460838Y-13289806D02*
X9460838Y-13308853D01*
X9584647Y-13194567D02*
X9565600Y-13185044D01*
X9565600Y-13185044D02*
X9556076Y-13175520D01*
X9556076Y-13175520D02*
X9546552Y-13156472D01*
X9546552Y-13156472D02*
X9546552Y-13146948D01*
X9546552Y-13146948D02*
X9556076Y-13127901D01*
X9556076Y-13127901D02*
X9565600Y-13118377D01*
X9565600Y-13118377D02*
X9584647Y-13108853D01*
X9584647Y-13108853D02*
X9622743Y-13108853D01*
X9622743Y-13108853D02*
X9641790Y-13118377D01*
X9641790Y-13118377D02*
X9651314Y-13127901D01*
X9651314Y-13127901D02*
X9660838Y-13146948D01*
X9660838Y-13146948D02*
X9660838Y-13156472D01*
X9660838Y-13156472D02*
X9651314Y-13175520D01*
X9651314Y-13175520D02*
X9641790Y-13185044D01*
X9641790Y-13185044D02*
X9622743Y-13194567D01*
X9622743Y-13194567D02*
X9584647Y-13194567D01*
X9584647Y-13194567D02*
X9565600Y-13204091D01*
X9565600Y-13204091D02*
X9556076Y-13213615D01*
X9556076Y-13213615D02*
X9546552Y-13232663D01*
X9546552Y-13232663D02*
X9546552Y-13270758D01*
X9546552Y-13270758D02*
X9556076Y-13289806D01*
X9556076Y-13289806D02*
X9565600Y-13299329D01*
X9565600Y-13299329D02*
X9584647Y-13308853D01*
X9584647Y-13308853D02*
X9622743Y-13308853D01*
X9622743Y-13308853D02*
X9641790Y-13299329D01*
X9641790Y-13299329D02*
X9651314Y-13289806D01*
X9651314Y-13289806D02*
X9660838Y-13270758D01*
X9660838Y-13270758D02*
X9660838Y-13232663D01*
X9660838Y-13232663D02*
X9651314Y-13213615D01*
X9651314Y-13213615D02*
X9641790Y-13204091D01*
X9641790Y-13204091D02*
X9622743Y-13194567D01*
X9784647Y-13108853D02*
X9803695Y-13108853D01*
X9803695Y-13108853D02*
X9822743Y-13118377D01*
X9822743Y-13118377D02*
X9832267Y-13127901D01*
X9832267Y-13127901D02*
X9841790Y-13146948D01*
X9841790Y-13146948D02*
X9851314Y-13185044D01*
X9851314Y-13185044D02*
X9851314Y-13232663D01*
X9851314Y-13232663D02*
X9841790Y-13270758D01*
X9841790Y-13270758D02*
X9832267Y-13289806D01*
X9832267Y-13289806D02*
X9822743Y-13299329D01*
X9822743Y-13299329D02*
X9803695Y-13308853D01*
X9803695Y-13308853D02*
X9784647Y-13308853D01*
X9784647Y-13308853D02*
X9765600Y-13299329D01*
X9765600Y-13299329D02*
X9756076Y-13289806D01*
X9756076Y-13289806D02*
X9746552Y-13270758D01*
X9746552Y-13270758D02*
X9737028Y-13232663D01*
X9737028Y-13232663D02*
X9737028Y-13185044D01*
X9737028Y-13185044D02*
X9746552Y-13146948D01*
X9746552Y-13146948D02*
X9756076Y-13127901D01*
X9756076Y-13127901D02*
X9765600Y-13118377D01*
X9765600Y-13118377D02*
X9784647Y-13108853D01*
X9975124Y-13108853D02*
X9994171Y-13108853D01*
X9994171Y-13108853D02*
X10013219Y-13118377D01*
X10013219Y-13118377D02*
X10022743Y-13127901D01*
X10022743Y-13127901D02*
X10032267Y-13146948D01*
X10032267Y-13146948D02*
X10041790Y-13185044D01*
X10041790Y-13185044D02*
X10041790Y-13232663D01*
X10041790Y-13232663D02*
X10032267Y-13270758D01*
X10032267Y-13270758D02*
X10022743Y-13289806D01*
X10022743Y-13289806D02*
X10013219Y-13299329D01*
X10013219Y-13299329D02*
X9994171Y-13308853D01*
X9994171Y-13308853D02*
X9975124Y-13308853D01*
X9975124Y-13308853D02*
X9956076Y-13299329D01*
X9956076Y-13299329D02*
X9946552Y-13289806D01*
X9946552Y-13289806D02*
X9937028Y-13270758D01*
X9937028Y-13270758D02*
X9927505Y-13232663D01*
X9927505Y-13232663D02*
X9927505Y-13185044D01*
X9927505Y-13185044D02*
X9937028Y-13146948D01*
X9937028Y-13146948D02*
X9946552Y-13127901D01*
X9946552Y-13127901D02*
X9956076Y-13118377D01*
X9956076Y-13118377D02*
X9975124Y-13108853D01*
X10127505Y-13308853D02*
X10127505Y-13175520D01*
X10127505Y-13194567D02*
X10137028Y-13185044D01*
X10137028Y-13185044D02*
X10156076Y-13175520D01*
X10156076Y-13175520D02*
X10184648Y-13175520D01*
X10184648Y-13175520D02*
X10203695Y-13185044D01*
X10203695Y-13185044D02*
X10213219Y-13204091D01*
X10213219Y-13204091D02*
X10213219Y-13308853D01*
X10213219Y-13204091D02*
X10222743Y-13185044D01*
X10222743Y-13185044D02*
X10241790Y-13175520D01*
X10241790Y-13175520D02*
X10270362Y-13175520D01*
X10270362Y-13175520D02*
X10289409Y-13185044D01*
X10289409Y-13185044D02*
X10298933Y-13204091D01*
X10298933Y-13204091D02*
X10298933Y-13308853D01*
X10394171Y-13308853D02*
X10394171Y-13175520D01*
X10394171Y-13194567D02*
X10403695Y-13185044D01*
X10403695Y-13185044D02*
X10422743Y-13175520D01*
X10422743Y-13175520D02*
X10451314Y-13175520D01*
X10451314Y-13175520D02*
X10470362Y-13185044D01*
X10470362Y-13185044D02*
X10479886Y-13204091D01*
X10479886Y-13204091D02*
X10479886Y-13308853D01*
X10479886Y-13204091D02*
X10489409Y-13185044D01*
X10489409Y-13185044D02*
X10508457Y-13175520D01*
X10508457Y-13175520D02*
X10537028Y-13175520D01*
X10537028Y-13175520D02*
X10556076Y-13185044D01*
X10556076Y-13185044D02*
X10565600Y-13204091D01*
X10565600Y-13204091D02*
X10565600Y-13308853D01*
X10956076Y-13099329D02*
X10784648Y-13356472D01*
X11213219Y-13108853D02*
X11232267Y-13108853D01*
X11232267Y-13108853D02*
X11251314Y-13118377D01*
X11251314Y-13118377D02*
X11260838Y-13127901D01*
X11260838Y-13127901D02*
X11270362Y-13146948D01*
X11270362Y-13146948D02*
X11279886Y-13185044D01*
X11279886Y-13185044D02*
X11279886Y-13232663D01*
X11279886Y-13232663D02*
X11270362Y-13270758D01*
X11270362Y-13270758D02*
X11260838Y-13289806D01*
X11260838Y-13289806D02*
X11251314Y-13299329D01*
X11251314Y-13299329D02*
X11232267Y-13308853D01*
X11232267Y-13308853D02*
X11213219Y-13308853D01*
X11213219Y-13308853D02*
X11194171Y-13299329D01*
X11194171Y-13299329D02*
X11184648Y-13289806D01*
X11184648Y-13289806D02*
X11175124Y-13270758D01*
X11175124Y-13270758D02*
X11165600Y-13232663D01*
X11165600Y-13232663D02*
X11165600Y-13185044D01*
X11165600Y-13185044D02*
X11175124Y-13146948D01*
X11175124Y-13146948D02*
X11184648Y-13127901D01*
X11184648Y-13127901D02*
X11194171Y-13118377D01*
X11194171Y-13118377D02*
X11213219Y-13108853D01*
X11365600Y-13289806D02*
X11375124Y-13299329D01*
X11375124Y-13299329D02*
X11365600Y-13308853D01*
X11365600Y-13308853D02*
X11356076Y-13299329D01*
X11356076Y-13299329D02*
X11365600Y-13289806D01*
X11365600Y-13289806D02*
X11365600Y-13308853D01*
X11498933Y-13108853D02*
X11517981Y-13108853D01*
X11517981Y-13108853D02*
X11537029Y-13118377D01*
X11537029Y-13118377D02*
X11546552Y-13127901D01*
X11546552Y-13127901D02*
X11556076Y-13146948D01*
X11556076Y-13146948D02*
X11565600Y-13185044D01*
X11565600Y-13185044D02*
X11565600Y-13232663D01*
X11565600Y-13232663D02*
X11556076Y-13270758D01*
X11556076Y-13270758D02*
X11546552Y-13289806D01*
X11546552Y-13289806D02*
X11537029Y-13299329D01*
X11537029Y-13299329D02*
X11517981Y-13308853D01*
X11517981Y-13308853D02*
X11498933Y-13308853D01*
X11498933Y-13308853D02*
X11479886Y-13299329D01*
X11479886Y-13299329D02*
X11470362Y-13289806D01*
X11470362Y-13289806D02*
X11460838Y-13270758D01*
X11460838Y-13270758D02*
X11451314Y-13232663D01*
X11451314Y-13232663D02*
X11451314Y-13185044D01*
X11451314Y-13185044D02*
X11460838Y-13146948D01*
X11460838Y-13146948D02*
X11470362Y-13127901D01*
X11470362Y-13127901D02*
X11479886Y-13118377D01*
X11479886Y-13118377D02*
X11498933Y-13108853D01*
X11632267Y-13108853D02*
X11756076Y-13108853D01*
X11756076Y-13108853D02*
X11689409Y-13185044D01*
X11689409Y-13185044D02*
X11717981Y-13185044D01*
X11717981Y-13185044D02*
X11737029Y-13194567D01*
X11737029Y-13194567D02*
X11746552Y-13204091D01*
X11746552Y-13204091D02*
X11756076Y-13223139D01*
X11756076Y-13223139D02*
X11756076Y-13270758D01*
X11756076Y-13270758D02*
X11746552Y-13289806D01*
X11746552Y-13289806D02*
X11737029Y-13299329D01*
X11737029Y-13299329D02*
X11717981Y-13308853D01*
X11717981Y-13308853D02*
X11660838Y-13308853D01*
X11660838Y-13308853D02*
X11641790Y-13299329D01*
X11641790Y-13299329D02*
X11632267Y-13289806D01*
X11946552Y-13308853D02*
X11832267Y-13308853D01*
X11889409Y-13308853D02*
X11889409Y-13108853D01*
X11889409Y-13108853D02*
X11870362Y-13137425D01*
X11870362Y-13137425D02*
X11851314Y-13156472D01*
X11851314Y-13156472D02*
X11832267Y-13165996D01*
X12127505Y-13108853D02*
X12032267Y-13108853D01*
X12032267Y-13108853D02*
X12022743Y-13204091D01*
X12022743Y-13204091D02*
X12032267Y-13194567D01*
X12032267Y-13194567D02*
X12051314Y-13185044D01*
X12051314Y-13185044D02*
X12098933Y-13185044D01*
X12098933Y-13185044D02*
X12117981Y-13194567D01*
X12117981Y-13194567D02*
X12127505Y-13204091D01*
X12127505Y-13204091D02*
X12137029Y-13223139D01*
X12137029Y-13223139D02*
X12137029Y-13270758D01*
X12137029Y-13270758D02*
X12127505Y-13289806D01*
X12127505Y-13289806D02*
X12117981Y-13299329D01*
X12117981Y-13299329D02*
X12098933Y-13308853D01*
X12098933Y-13308853D02*
X12051314Y-13308853D01*
X12051314Y-13308853D02*
X12032267Y-13299329D01*
X12032267Y-13299329D02*
X12022743Y-13289806D01*
X12213219Y-13108853D02*
X12213219Y-13146948D01*
X12289410Y-13108853D02*
X12289410Y-13146948D01*
X12584648Y-13385044D02*
X12575124Y-13375520D01*
X12575124Y-13375520D02*
X12556076Y-13346948D01*
X12556076Y-13346948D02*
X12546552Y-13327901D01*
X12546552Y-13327901D02*
X12537029Y-13299329D01*
X12537029Y-13299329D02*
X12527505Y-13251710D01*
X12527505Y-13251710D02*
X12527505Y-13213615D01*
X12527505Y-13213615D02*
X12537029Y-13165996D01*
X12537029Y-13165996D02*
X12546552Y-13137425D01*
X12546552Y-13137425D02*
X12556076Y-13118377D01*
X12556076Y-13118377D02*
X12575124Y-13089806D01*
X12575124Y-13089806D02*
X12584648Y-13080282D01*
X12651314Y-13127901D02*
X12660838Y-13118377D01*
X12660838Y-13118377D02*
X12679886Y-13108853D01*
X12679886Y-13108853D02*
X12727505Y-13108853D01*
X12727505Y-13108853D02*
X12746552Y-13118377D01*
X12746552Y-13118377D02*
X12756076Y-13127901D01*
X12756076Y-13127901D02*
X12765600Y-13146948D01*
X12765600Y-13146948D02*
X12765600Y-13165996D01*
X12765600Y-13165996D02*
X12756076Y-13194567D01*
X12756076Y-13194567D02*
X12641791Y-13308853D01*
X12641791Y-13308853D02*
X12765600Y-13308853D01*
X13003695Y-13308853D02*
X13003695Y-13108853D01*
X13089410Y-13308853D02*
X13089410Y-13204091D01*
X13089410Y-13204091D02*
X13079886Y-13185044D01*
X13079886Y-13185044D02*
X13060838Y-13175520D01*
X13060838Y-13175520D02*
X13032267Y-13175520D01*
X13032267Y-13175520D02*
X13013219Y-13185044D01*
X13013219Y-13185044D02*
X13003695Y-13194567D01*
X13213219Y-13308853D02*
X13194172Y-13299329D01*
X13194172Y-13299329D02*
X13184648Y-13289806D01*
X13184648Y-13289806D02*
X13175124Y-13270758D01*
X13175124Y-13270758D02*
X13175124Y-13213615D01*
X13175124Y-13213615D02*
X13184648Y-13194567D01*
X13184648Y-13194567D02*
X13194172Y-13185044D01*
X13194172Y-13185044D02*
X13213219Y-13175520D01*
X13213219Y-13175520D02*
X13241791Y-13175520D01*
X13241791Y-13175520D02*
X13260838Y-13185044D01*
X13260838Y-13185044D02*
X13270362Y-13194567D01*
X13270362Y-13194567D02*
X13279886Y-13213615D01*
X13279886Y-13213615D02*
X13279886Y-13270758D01*
X13279886Y-13270758D02*
X13270362Y-13289806D01*
X13270362Y-13289806D02*
X13260838Y-13299329D01*
X13260838Y-13299329D02*
X13241791Y-13308853D01*
X13241791Y-13308853D02*
X13213219Y-13308853D01*
X13394172Y-13308853D02*
X13375124Y-13299329D01*
X13375124Y-13299329D02*
X13365600Y-13280282D01*
X13365600Y-13280282D02*
X13365600Y-13108853D01*
X13546553Y-13299329D02*
X13527505Y-13308853D01*
X13527505Y-13308853D02*
X13489410Y-13308853D01*
X13489410Y-13308853D02*
X13470362Y-13299329D01*
X13470362Y-13299329D02*
X13460838Y-13280282D01*
X13460838Y-13280282D02*
X13460838Y-13204091D01*
X13460838Y-13204091D02*
X13470362Y-13185044D01*
X13470362Y-13185044D02*
X13489410Y-13175520D01*
X13489410Y-13175520D02*
X13527505Y-13175520D01*
X13527505Y-13175520D02*
X13546553Y-13185044D01*
X13546553Y-13185044D02*
X13556076Y-13204091D01*
X13556076Y-13204091D02*
X13556076Y-13223139D01*
X13556076Y-13223139D02*
X13460838Y-13242187D01*
X13632267Y-13299329D02*
X13651314Y-13308853D01*
X13651314Y-13308853D02*
X13689410Y-13308853D01*
X13689410Y-13308853D02*
X13708457Y-13299329D01*
X13708457Y-13299329D02*
X13717981Y-13280282D01*
X13717981Y-13280282D02*
X13717981Y-13270758D01*
X13717981Y-13270758D02*
X13708457Y-13251710D01*
X13708457Y-13251710D02*
X13689410Y-13242187D01*
X13689410Y-13242187D02*
X13660838Y-13242187D01*
X13660838Y-13242187D02*
X13641791Y-13232663D01*
X13641791Y-13232663D02*
X13632267Y-13213615D01*
X13632267Y-13213615D02*
X13632267Y-13204091D01*
X13632267Y-13204091D02*
X13641791Y-13185044D01*
X13641791Y-13185044D02*
X13660838Y-13175520D01*
X13660838Y-13175520D02*
X13689410Y-13175520D01*
X13689410Y-13175520D02*
X13708457Y-13185044D01*
X13784648Y-13385044D02*
X13794172Y-13375520D01*
X13794172Y-13375520D02*
X13813219Y-13346948D01*
X13813219Y-13346948D02*
X13822743Y-13327901D01*
X13822743Y-13327901D02*
X13832267Y-13299329D01*
X13832267Y-13299329D02*
X13841791Y-13251710D01*
X13841791Y-13251710D02*
X13841791Y-13213615D01*
X13841791Y-13213615D02*
X13832267Y-13165996D01*
X13832267Y-13165996D02*
X13822743Y-13137425D01*
X13822743Y-13137425D02*
X13813219Y-13118377D01*
X13813219Y-13118377D02*
X13794172Y-13089806D01*
X13794172Y-13089806D02*
X13784648Y-13080282D01*
D12*
X8959585Y-13431369D02*
X8959585Y-13531369D01*
X8909585Y-13481369D02*
X9009585Y-13481369D01*
D11*
X9375124Y-13572853D02*
X9260838Y-13572853D01*
X9317981Y-13572853D02*
X9317981Y-13372853D01*
X9317981Y-13372853D02*
X9298933Y-13401425D01*
X9298933Y-13401425D02*
X9279886Y-13420472D01*
X9279886Y-13420472D02*
X9260838Y-13429996D01*
X9460838Y-13553806D02*
X9470362Y-13563329D01*
X9470362Y-13563329D02*
X9460838Y-13572853D01*
X9460838Y-13572853D02*
X9451314Y-13563329D01*
X9451314Y-13563329D02*
X9460838Y-13553806D01*
X9460838Y-13553806D02*
X9460838Y-13572853D01*
X9594171Y-13372853D02*
X9613219Y-13372853D01*
X9613219Y-13372853D02*
X9632267Y-13382377D01*
X9632267Y-13382377D02*
X9641790Y-13391901D01*
X9641790Y-13391901D02*
X9651314Y-13410948D01*
X9651314Y-13410948D02*
X9660838Y-13449044D01*
X9660838Y-13449044D02*
X9660838Y-13496663D01*
X9660838Y-13496663D02*
X9651314Y-13534758D01*
X9651314Y-13534758D02*
X9641790Y-13553806D01*
X9641790Y-13553806D02*
X9632267Y-13563329D01*
X9632267Y-13563329D02*
X9613219Y-13572853D01*
X9613219Y-13572853D02*
X9594171Y-13572853D01*
X9594171Y-13572853D02*
X9575124Y-13563329D01*
X9575124Y-13563329D02*
X9565600Y-13553806D01*
X9565600Y-13553806D02*
X9556076Y-13534758D01*
X9556076Y-13534758D02*
X9546552Y-13496663D01*
X9546552Y-13496663D02*
X9546552Y-13449044D01*
X9546552Y-13449044D02*
X9556076Y-13410948D01*
X9556076Y-13410948D02*
X9565600Y-13391901D01*
X9565600Y-13391901D02*
X9575124Y-13382377D01*
X9575124Y-13382377D02*
X9594171Y-13372853D01*
X9784647Y-13372853D02*
X9803695Y-13372853D01*
X9803695Y-13372853D02*
X9822743Y-13382377D01*
X9822743Y-13382377D02*
X9832267Y-13391901D01*
X9832267Y-13391901D02*
X9841790Y-13410948D01*
X9841790Y-13410948D02*
X9851314Y-13449044D01*
X9851314Y-13449044D02*
X9851314Y-13496663D01*
X9851314Y-13496663D02*
X9841790Y-13534758D01*
X9841790Y-13534758D02*
X9832267Y-13553806D01*
X9832267Y-13553806D02*
X9822743Y-13563329D01*
X9822743Y-13563329D02*
X9803695Y-13572853D01*
X9803695Y-13572853D02*
X9784647Y-13572853D01*
X9784647Y-13572853D02*
X9765600Y-13563329D01*
X9765600Y-13563329D02*
X9756076Y-13553806D01*
X9756076Y-13553806D02*
X9746552Y-13534758D01*
X9746552Y-13534758D02*
X9737028Y-13496663D01*
X9737028Y-13496663D02*
X9737028Y-13449044D01*
X9737028Y-13449044D02*
X9746552Y-13410948D01*
X9746552Y-13410948D02*
X9756076Y-13391901D01*
X9756076Y-13391901D02*
X9765600Y-13382377D01*
X9765600Y-13382377D02*
X9784647Y-13372853D01*
X9975124Y-13372853D02*
X9994171Y-13372853D01*
X9994171Y-13372853D02*
X10013219Y-13382377D01*
X10013219Y-13382377D02*
X10022743Y-13391901D01*
X10022743Y-13391901D02*
X10032267Y-13410948D01*
X10032267Y-13410948D02*
X10041790Y-13449044D01*
X10041790Y-13449044D02*
X10041790Y-13496663D01*
X10041790Y-13496663D02*
X10032267Y-13534758D01*
X10032267Y-13534758D02*
X10022743Y-13553806D01*
X10022743Y-13553806D02*
X10013219Y-13563329D01*
X10013219Y-13563329D02*
X9994171Y-13572853D01*
X9994171Y-13572853D02*
X9975124Y-13572853D01*
X9975124Y-13572853D02*
X9956076Y-13563329D01*
X9956076Y-13563329D02*
X9946552Y-13553806D01*
X9946552Y-13553806D02*
X9937028Y-13534758D01*
X9937028Y-13534758D02*
X9927505Y-13496663D01*
X9927505Y-13496663D02*
X9927505Y-13449044D01*
X9927505Y-13449044D02*
X9937028Y-13410948D01*
X9937028Y-13410948D02*
X9946552Y-13391901D01*
X9946552Y-13391901D02*
X9956076Y-13382377D01*
X9956076Y-13382377D02*
X9975124Y-13372853D01*
X10127505Y-13572853D02*
X10127505Y-13439520D01*
X10127505Y-13458567D02*
X10137028Y-13449044D01*
X10137028Y-13449044D02*
X10156076Y-13439520D01*
X10156076Y-13439520D02*
X10184648Y-13439520D01*
X10184648Y-13439520D02*
X10203695Y-13449044D01*
X10203695Y-13449044D02*
X10213219Y-13468091D01*
X10213219Y-13468091D02*
X10213219Y-13572853D01*
X10213219Y-13468091D02*
X10222743Y-13449044D01*
X10222743Y-13449044D02*
X10241790Y-13439520D01*
X10241790Y-13439520D02*
X10270362Y-13439520D01*
X10270362Y-13439520D02*
X10289409Y-13449044D01*
X10289409Y-13449044D02*
X10298933Y-13468091D01*
X10298933Y-13468091D02*
X10298933Y-13572853D01*
X10394171Y-13572853D02*
X10394171Y-13439520D01*
X10394171Y-13458567D02*
X10403695Y-13449044D01*
X10403695Y-13449044D02*
X10422743Y-13439520D01*
X10422743Y-13439520D02*
X10451314Y-13439520D01*
X10451314Y-13439520D02*
X10470362Y-13449044D01*
X10470362Y-13449044D02*
X10479886Y-13468091D01*
X10479886Y-13468091D02*
X10479886Y-13572853D01*
X10479886Y-13468091D02*
X10489409Y-13449044D01*
X10489409Y-13449044D02*
X10508457Y-13439520D01*
X10508457Y-13439520D02*
X10537028Y-13439520D01*
X10537028Y-13439520D02*
X10556076Y-13449044D01*
X10556076Y-13449044D02*
X10565600Y-13468091D01*
X10565600Y-13468091D02*
X10565600Y-13572853D01*
X10956076Y-13363329D02*
X10784648Y-13620472D01*
X11213219Y-13372853D02*
X11232267Y-13372853D01*
X11232267Y-13372853D02*
X11251314Y-13382377D01*
X11251314Y-13382377D02*
X11260838Y-13391901D01*
X11260838Y-13391901D02*
X11270362Y-13410948D01*
X11270362Y-13410948D02*
X11279886Y-13449044D01*
X11279886Y-13449044D02*
X11279886Y-13496663D01*
X11279886Y-13496663D02*
X11270362Y-13534758D01*
X11270362Y-13534758D02*
X11260838Y-13553806D01*
X11260838Y-13553806D02*
X11251314Y-13563329D01*
X11251314Y-13563329D02*
X11232267Y-13572853D01*
X11232267Y-13572853D02*
X11213219Y-13572853D01*
X11213219Y-13572853D02*
X11194171Y-13563329D01*
X11194171Y-13563329D02*
X11184648Y-13553806D01*
X11184648Y-13553806D02*
X11175124Y-13534758D01*
X11175124Y-13534758D02*
X11165600Y-13496663D01*
X11165600Y-13496663D02*
X11165600Y-13449044D01*
X11165600Y-13449044D02*
X11175124Y-13410948D01*
X11175124Y-13410948D02*
X11184648Y-13391901D01*
X11184648Y-13391901D02*
X11194171Y-13382377D01*
X11194171Y-13382377D02*
X11213219Y-13372853D01*
X11365600Y-13553806D02*
X11375124Y-13563329D01*
X11375124Y-13563329D02*
X11365600Y-13572853D01*
X11365600Y-13572853D02*
X11356076Y-13563329D01*
X11356076Y-13563329D02*
X11365600Y-13553806D01*
X11365600Y-13553806D02*
X11365600Y-13572853D01*
X11498933Y-13372853D02*
X11517981Y-13372853D01*
X11517981Y-13372853D02*
X11537029Y-13382377D01*
X11537029Y-13382377D02*
X11546552Y-13391901D01*
X11546552Y-13391901D02*
X11556076Y-13410948D01*
X11556076Y-13410948D02*
X11565600Y-13449044D01*
X11565600Y-13449044D02*
X11565600Y-13496663D01*
X11565600Y-13496663D02*
X11556076Y-13534758D01*
X11556076Y-13534758D02*
X11546552Y-13553806D01*
X11546552Y-13553806D02*
X11537029Y-13563329D01*
X11537029Y-13563329D02*
X11517981Y-13572853D01*
X11517981Y-13572853D02*
X11498933Y-13572853D01*
X11498933Y-13572853D02*
X11479886Y-13563329D01*
X11479886Y-13563329D02*
X11470362Y-13553806D01*
X11470362Y-13553806D02*
X11460838Y-13534758D01*
X11460838Y-13534758D02*
X11451314Y-13496663D01*
X11451314Y-13496663D02*
X11451314Y-13449044D01*
X11451314Y-13449044D02*
X11460838Y-13410948D01*
X11460838Y-13410948D02*
X11470362Y-13391901D01*
X11470362Y-13391901D02*
X11479886Y-13382377D01*
X11479886Y-13382377D02*
X11498933Y-13372853D01*
X11632267Y-13372853D02*
X11756076Y-13372853D01*
X11756076Y-13372853D02*
X11689409Y-13449044D01*
X11689409Y-13449044D02*
X11717981Y-13449044D01*
X11717981Y-13449044D02*
X11737029Y-13458567D01*
X11737029Y-13458567D02*
X11746552Y-13468091D01*
X11746552Y-13468091D02*
X11756076Y-13487139D01*
X11756076Y-13487139D02*
X11756076Y-13534758D01*
X11756076Y-13534758D02*
X11746552Y-13553806D01*
X11746552Y-13553806D02*
X11737029Y-13563329D01*
X11737029Y-13563329D02*
X11717981Y-13572853D01*
X11717981Y-13572853D02*
X11660838Y-13572853D01*
X11660838Y-13572853D02*
X11641790Y-13563329D01*
X11641790Y-13563329D02*
X11632267Y-13553806D01*
X11851314Y-13572853D02*
X11889409Y-13572853D01*
X11889409Y-13572853D02*
X11908457Y-13563329D01*
X11908457Y-13563329D02*
X11917981Y-13553806D01*
X11917981Y-13553806D02*
X11937029Y-13525234D01*
X11937029Y-13525234D02*
X11946552Y-13487139D01*
X11946552Y-13487139D02*
X11946552Y-13410948D01*
X11946552Y-13410948D02*
X11937029Y-13391901D01*
X11937029Y-13391901D02*
X11927505Y-13382377D01*
X11927505Y-13382377D02*
X11908457Y-13372853D01*
X11908457Y-13372853D02*
X11870362Y-13372853D01*
X11870362Y-13372853D02*
X11851314Y-13382377D01*
X11851314Y-13382377D02*
X11841790Y-13391901D01*
X11841790Y-13391901D02*
X11832267Y-13410948D01*
X11832267Y-13410948D02*
X11832267Y-13458567D01*
X11832267Y-13458567D02*
X11841790Y-13477615D01*
X11841790Y-13477615D02*
X11851314Y-13487139D01*
X11851314Y-13487139D02*
X11870362Y-13496663D01*
X11870362Y-13496663D02*
X11908457Y-13496663D01*
X11908457Y-13496663D02*
X11927505Y-13487139D01*
X11927505Y-13487139D02*
X11937029Y-13477615D01*
X11937029Y-13477615D02*
X11946552Y-13458567D01*
X12117981Y-13439520D02*
X12117981Y-13572853D01*
X12070362Y-13363329D02*
X12022743Y-13506187D01*
X12022743Y-13506187D02*
X12146552Y-13506187D01*
X12213219Y-13372853D02*
X12213219Y-13410948D01*
X12289410Y-13372853D02*
X12289410Y-13410948D01*
X12584648Y-13649044D02*
X12575124Y-13639520D01*
X12575124Y-13639520D02*
X12556076Y-13610948D01*
X12556076Y-13610948D02*
X12546552Y-13591901D01*
X12546552Y-13591901D02*
X12537029Y-13563329D01*
X12537029Y-13563329D02*
X12527505Y-13515710D01*
X12527505Y-13515710D02*
X12527505Y-13477615D01*
X12527505Y-13477615D02*
X12537029Y-13429996D01*
X12537029Y-13429996D02*
X12546552Y-13401425D01*
X12546552Y-13401425D02*
X12556076Y-13382377D01*
X12556076Y-13382377D02*
X12575124Y-13353806D01*
X12575124Y-13353806D02*
X12584648Y-13344282D01*
X12651314Y-13391901D02*
X12660838Y-13382377D01*
X12660838Y-13382377D02*
X12679886Y-13372853D01*
X12679886Y-13372853D02*
X12727505Y-13372853D01*
X12727505Y-13372853D02*
X12746552Y-13382377D01*
X12746552Y-13382377D02*
X12756076Y-13391901D01*
X12756076Y-13391901D02*
X12765600Y-13410948D01*
X12765600Y-13410948D02*
X12765600Y-13429996D01*
X12765600Y-13429996D02*
X12756076Y-13458567D01*
X12756076Y-13458567D02*
X12641791Y-13572853D01*
X12641791Y-13572853D02*
X12765600Y-13572853D01*
X12879886Y-13458567D02*
X12860838Y-13449044D01*
X12860838Y-13449044D02*
X12851314Y-13439520D01*
X12851314Y-13439520D02*
X12841791Y-13420472D01*
X12841791Y-13420472D02*
X12841791Y-13410948D01*
X12841791Y-13410948D02*
X12851314Y-13391901D01*
X12851314Y-13391901D02*
X12860838Y-13382377D01*
X12860838Y-13382377D02*
X12879886Y-13372853D01*
X12879886Y-13372853D02*
X12917981Y-13372853D01*
X12917981Y-13372853D02*
X12937029Y-13382377D01*
X12937029Y-13382377D02*
X12946552Y-13391901D01*
X12946552Y-13391901D02*
X12956076Y-13410948D01*
X12956076Y-13410948D02*
X12956076Y-13420472D01*
X12956076Y-13420472D02*
X12946552Y-13439520D01*
X12946552Y-13439520D02*
X12937029Y-13449044D01*
X12937029Y-13449044D02*
X12917981Y-13458567D01*
X12917981Y-13458567D02*
X12879886Y-13458567D01*
X12879886Y-13458567D02*
X12860838Y-13468091D01*
X12860838Y-13468091D02*
X12851314Y-13477615D01*
X12851314Y-13477615D02*
X12841791Y-13496663D01*
X12841791Y-13496663D02*
X12841791Y-13534758D01*
X12841791Y-13534758D02*
X12851314Y-13553806D01*
X12851314Y-13553806D02*
X12860838Y-13563329D01*
X12860838Y-13563329D02*
X12879886Y-13572853D01*
X12879886Y-13572853D02*
X12917981Y-13572853D01*
X12917981Y-13572853D02*
X12937029Y-13563329D01*
X12937029Y-13563329D02*
X12946552Y-13553806D01*
X12946552Y-13553806D02*
X12956076Y-13534758D01*
X12956076Y-13534758D02*
X12956076Y-13496663D01*
X12956076Y-13496663D02*
X12946552Y-13477615D01*
X12946552Y-13477615D02*
X12937029Y-13468091D01*
X12937029Y-13468091D02*
X12917981Y-13458567D01*
X13194172Y-13572853D02*
X13194172Y-13372853D01*
X13279886Y-13572853D02*
X13279886Y-13468091D01*
X13279886Y-13468091D02*
X13270362Y-13449044D01*
X13270362Y-13449044D02*
X13251314Y-13439520D01*
X13251314Y-13439520D02*
X13222743Y-13439520D01*
X13222743Y-13439520D02*
X13203695Y-13449044D01*
X13203695Y-13449044D02*
X13194172Y-13458567D01*
X13403695Y-13572853D02*
X13384648Y-13563329D01*
X13384648Y-13563329D02*
X13375124Y-13553806D01*
X13375124Y-13553806D02*
X13365600Y-13534758D01*
X13365600Y-13534758D02*
X13365600Y-13477615D01*
X13365600Y-13477615D02*
X13375124Y-13458567D01*
X13375124Y-13458567D02*
X13384648Y-13449044D01*
X13384648Y-13449044D02*
X13403695Y-13439520D01*
X13403695Y-13439520D02*
X13432267Y-13439520D01*
X13432267Y-13439520D02*
X13451314Y-13449044D01*
X13451314Y-13449044D02*
X13460838Y-13458567D01*
X13460838Y-13458567D02*
X13470362Y-13477615D01*
X13470362Y-13477615D02*
X13470362Y-13534758D01*
X13470362Y-13534758D02*
X13460838Y-13553806D01*
X13460838Y-13553806D02*
X13451314Y-13563329D01*
X13451314Y-13563329D02*
X13432267Y-13572853D01*
X13432267Y-13572853D02*
X13403695Y-13572853D01*
X13584648Y-13572853D02*
X13565600Y-13563329D01*
X13565600Y-13563329D02*
X13556076Y-13544282D01*
X13556076Y-13544282D02*
X13556076Y-13372853D01*
X13737029Y-13563329D02*
X13717981Y-13572853D01*
X13717981Y-13572853D02*
X13679886Y-13572853D01*
X13679886Y-13572853D02*
X13660838Y-13563329D01*
X13660838Y-13563329D02*
X13651314Y-13544282D01*
X13651314Y-13544282D02*
X13651314Y-13468091D01*
X13651314Y-13468091D02*
X13660838Y-13449044D01*
X13660838Y-13449044D02*
X13679886Y-13439520D01*
X13679886Y-13439520D02*
X13717981Y-13439520D01*
X13717981Y-13439520D02*
X13737029Y-13449044D01*
X13737029Y-13449044D02*
X13746553Y-13468091D01*
X13746553Y-13468091D02*
X13746553Y-13487139D01*
X13746553Y-13487139D02*
X13651314Y-13506187D01*
X13822743Y-13563329D02*
X13841791Y-13572853D01*
X13841791Y-13572853D02*
X13879886Y-13572853D01*
X13879886Y-13572853D02*
X13898934Y-13563329D01*
X13898934Y-13563329D02*
X13908457Y-13544282D01*
X13908457Y-13544282D02*
X13908457Y-13534758D01*
X13908457Y-13534758D02*
X13898934Y-13515710D01*
X13898934Y-13515710D02*
X13879886Y-13506187D01*
X13879886Y-13506187D02*
X13851314Y-13506187D01*
X13851314Y-13506187D02*
X13832267Y-13496663D01*
X13832267Y-13496663D02*
X13822743Y-13477615D01*
X13822743Y-13477615D02*
X13822743Y-13468091D01*
X13822743Y-13468091D02*
X13832267Y-13449044D01*
X13832267Y-13449044D02*
X13851314Y-13439520D01*
X13851314Y-13439520D02*
X13879886Y-13439520D01*
X13879886Y-13439520D02*
X13898934Y-13449044D01*
X13975124Y-13649044D02*
X13984648Y-13639520D01*
X13984648Y-13639520D02*
X14003695Y-13610948D01*
X14003695Y-13610948D02*
X14013219Y-13591901D01*
X14013219Y-13591901D02*
X14022743Y-13563329D01*
X14022743Y-13563329D02*
X14032267Y-13515710D01*
X14032267Y-13515710D02*
X14032267Y-13477615D01*
X14032267Y-13477615D02*
X14022743Y-13429996D01*
X14022743Y-13429996D02*
X14013219Y-13401425D01*
X14013219Y-13401425D02*
X14003695Y-13382377D01*
X14003695Y-13382377D02*
X13984648Y-13353806D01*
X13984648Y-13353806D02*
X13975124Y-13344282D01*
D13*
X8993476Y-13784261D02*
X8993476Y-13706478D01*
X8915694Y-13706478D01*
X8915694Y-13784261D01*
X8993476Y-13784261D01*
D11*
X9375124Y-13836853D02*
X9260838Y-13836853D01*
X9317981Y-13836853D02*
X9317981Y-13636853D01*
X9317981Y-13636853D02*
X9298933Y-13665425D01*
X9298933Y-13665425D02*
X9279886Y-13684472D01*
X9279886Y-13684472D02*
X9260838Y-13693996D01*
X9460838Y-13817806D02*
X9470362Y-13827329D01*
X9470362Y-13827329D02*
X9460838Y-13836853D01*
X9460838Y-13836853D02*
X9451314Y-13827329D01*
X9451314Y-13827329D02*
X9460838Y-13817806D01*
X9460838Y-13817806D02*
X9460838Y-13836853D01*
X9660838Y-13836853D02*
X9546552Y-13836853D01*
X9603695Y-13836853D02*
X9603695Y-13636853D01*
X9603695Y-13636853D02*
X9584647Y-13665425D01*
X9584647Y-13665425D02*
X9565600Y-13684472D01*
X9565600Y-13684472D02*
X9546552Y-13693996D01*
X9784647Y-13636853D02*
X9803695Y-13636853D01*
X9803695Y-13636853D02*
X9822743Y-13646377D01*
X9822743Y-13646377D02*
X9832267Y-13655901D01*
X9832267Y-13655901D02*
X9841790Y-13674948D01*
X9841790Y-13674948D02*
X9851314Y-13713044D01*
X9851314Y-13713044D02*
X9851314Y-13760663D01*
X9851314Y-13760663D02*
X9841790Y-13798758D01*
X9841790Y-13798758D02*
X9832267Y-13817806D01*
X9832267Y-13817806D02*
X9822743Y-13827329D01*
X9822743Y-13827329D02*
X9803695Y-13836853D01*
X9803695Y-13836853D02*
X9784647Y-13836853D01*
X9784647Y-13836853D02*
X9765600Y-13827329D01*
X9765600Y-13827329D02*
X9756076Y-13817806D01*
X9756076Y-13817806D02*
X9746552Y-13798758D01*
X9746552Y-13798758D02*
X9737028Y-13760663D01*
X9737028Y-13760663D02*
X9737028Y-13713044D01*
X9737028Y-13713044D02*
X9746552Y-13674948D01*
X9746552Y-13674948D02*
X9756076Y-13655901D01*
X9756076Y-13655901D02*
X9765600Y-13646377D01*
X9765600Y-13646377D02*
X9784647Y-13636853D01*
X9975124Y-13636853D02*
X9994171Y-13636853D01*
X9994171Y-13636853D02*
X10013219Y-13646377D01*
X10013219Y-13646377D02*
X10022743Y-13655901D01*
X10022743Y-13655901D02*
X10032267Y-13674948D01*
X10032267Y-13674948D02*
X10041790Y-13713044D01*
X10041790Y-13713044D02*
X10041790Y-13760663D01*
X10041790Y-13760663D02*
X10032267Y-13798758D01*
X10032267Y-13798758D02*
X10022743Y-13817806D01*
X10022743Y-13817806D02*
X10013219Y-13827329D01*
X10013219Y-13827329D02*
X9994171Y-13836853D01*
X9994171Y-13836853D02*
X9975124Y-13836853D01*
X9975124Y-13836853D02*
X9956076Y-13827329D01*
X9956076Y-13827329D02*
X9946552Y-13817806D01*
X9946552Y-13817806D02*
X9937028Y-13798758D01*
X9937028Y-13798758D02*
X9927505Y-13760663D01*
X9927505Y-13760663D02*
X9927505Y-13713044D01*
X9927505Y-13713044D02*
X9937028Y-13674948D01*
X9937028Y-13674948D02*
X9946552Y-13655901D01*
X9946552Y-13655901D02*
X9956076Y-13646377D01*
X9956076Y-13646377D02*
X9975124Y-13636853D01*
X10127505Y-13836853D02*
X10127505Y-13703520D01*
X10127505Y-13722567D02*
X10137028Y-13713044D01*
X10137028Y-13713044D02*
X10156076Y-13703520D01*
X10156076Y-13703520D02*
X10184648Y-13703520D01*
X10184648Y-13703520D02*
X10203695Y-13713044D01*
X10203695Y-13713044D02*
X10213219Y-13732091D01*
X10213219Y-13732091D02*
X10213219Y-13836853D01*
X10213219Y-13732091D02*
X10222743Y-13713044D01*
X10222743Y-13713044D02*
X10241790Y-13703520D01*
X10241790Y-13703520D02*
X10270362Y-13703520D01*
X10270362Y-13703520D02*
X10289409Y-13713044D01*
X10289409Y-13713044D02*
X10298933Y-13732091D01*
X10298933Y-13732091D02*
X10298933Y-13836853D01*
X10394171Y-13836853D02*
X10394171Y-13703520D01*
X10394171Y-13722567D02*
X10403695Y-13713044D01*
X10403695Y-13713044D02*
X10422743Y-13703520D01*
X10422743Y-13703520D02*
X10451314Y-13703520D01*
X10451314Y-13703520D02*
X10470362Y-13713044D01*
X10470362Y-13713044D02*
X10479886Y-13732091D01*
X10479886Y-13732091D02*
X10479886Y-13836853D01*
X10479886Y-13732091D02*
X10489409Y-13713044D01*
X10489409Y-13713044D02*
X10508457Y-13703520D01*
X10508457Y-13703520D02*
X10537028Y-13703520D01*
X10537028Y-13703520D02*
X10556076Y-13713044D01*
X10556076Y-13713044D02*
X10565600Y-13732091D01*
X10565600Y-13732091D02*
X10565600Y-13836853D01*
X10956076Y-13627329D02*
X10784648Y-13884472D01*
X11213219Y-13636853D02*
X11232267Y-13636853D01*
X11232267Y-13636853D02*
X11251314Y-13646377D01*
X11251314Y-13646377D02*
X11260838Y-13655901D01*
X11260838Y-13655901D02*
X11270362Y-13674948D01*
X11270362Y-13674948D02*
X11279886Y-13713044D01*
X11279886Y-13713044D02*
X11279886Y-13760663D01*
X11279886Y-13760663D02*
X11270362Y-13798758D01*
X11270362Y-13798758D02*
X11260838Y-13817806D01*
X11260838Y-13817806D02*
X11251314Y-13827329D01*
X11251314Y-13827329D02*
X11232267Y-13836853D01*
X11232267Y-13836853D02*
X11213219Y-13836853D01*
X11213219Y-13836853D02*
X11194171Y-13827329D01*
X11194171Y-13827329D02*
X11184648Y-13817806D01*
X11184648Y-13817806D02*
X11175124Y-13798758D01*
X11175124Y-13798758D02*
X11165600Y-13760663D01*
X11165600Y-13760663D02*
X11165600Y-13713044D01*
X11165600Y-13713044D02*
X11175124Y-13674948D01*
X11175124Y-13674948D02*
X11184648Y-13655901D01*
X11184648Y-13655901D02*
X11194171Y-13646377D01*
X11194171Y-13646377D02*
X11213219Y-13636853D01*
X11365600Y-13817806D02*
X11375124Y-13827329D01*
X11375124Y-13827329D02*
X11365600Y-13836853D01*
X11365600Y-13836853D02*
X11356076Y-13827329D01*
X11356076Y-13827329D02*
X11365600Y-13817806D01*
X11365600Y-13817806D02*
X11365600Y-13836853D01*
X11498933Y-13636853D02*
X11517981Y-13636853D01*
X11517981Y-13636853D02*
X11537029Y-13646377D01*
X11537029Y-13646377D02*
X11546552Y-13655901D01*
X11546552Y-13655901D02*
X11556076Y-13674948D01*
X11556076Y-13674948D02*
X11565600Y-13713044D01*
X11565600Y-13713044D02*
X11565600Y-13760663D01*
X11565600Y-13760663D02*
X11556076Y-13798758D01*
X11556076Y-13798758D02*
X11546552Y-13817806D01*
X11546552Y-13817806D02*
X11537029Y-13827329D01*
X11537029Y-13827329D02*
X11517981Y-13836853D01*
X11517981Y-13836853D02*
X11498933Y-13836853D01*
X11498933Y-13836853D02*
X11479886Y-13827329D01*
X11479886Y-13827329D02*
X11470362Y-13817806D01*
X11470362Y-13817806D02*
X11460838Y-13798758D01*
X11460838Y-13798758D02*
X11451314Y-13760663D01*
X11451314Y-13760663D02*
X11451314Y-13713044D01*
X11451314Y-13713044D02*
X11460838Y-13674948D01*
X11460838Y-13674948D02*
X11470362Y-13655901D01*
X11470362Y-13655901D02*
X11479886Y-13646377D01*
X11479886Y-13646377D02*
X11498933Y-13636853D01*
X11737029Y-13703520D02*
X11737029Y-13836853D01*
X11689409Y-13627329D02*
X11641790Y-13770187D01*
X11641790Y-13770187D02*
X11765600Y-13770187D01*
X11822743Y-13636853D02*
X11946552Y-13636853D01*
X11946552Y-13636853D02*
X11879886Y-13713044D01*
X11879886Y-13713044D02*
X11908457Y-13713044D01*
X11908457Y-13713044D02*
X11927505Y-13722567D01*
X11927505Y-13722567D02*
X11937029Y-13732091D01*
X11937029Y-13732091D02*
X11946552Y-13751139D01*
X11946552Y-13751139D02*
X11946552Y-13798758D01*
X11946552Y-13798758D02*
X11937029Y-13817806D01*
X11937029Y-13817806D02*
X11927505Y-13827329D01*
X11927505Y-13827329D02*
X11908457Y-13836853D01*
X11908457Y-13836853D02*
X11851314Y-13836853D01*
X11851314Y-13836853D02*
X11832267Y-13827329D01*
X11832267Y-13827329D02*
X11822743Y-13817806D01*
X12013219Y-13636853D02*
X12137029Y-13636853D01*
X12137029Y-13636853D02*
X12070362Y-13713044D01*
X12070362Y-13713044D02*
X12098933Y-13713044D01*
X12098933Y-13713044D02*
X12117981Y-13722567D01*
X12117981Y-13722567D02*
X12127505Y-13732091D01*
X12127505Y-13732091D02*
X12137029Y-13751139D01*
X12137029Y-13751139D02*
X12137029Y-13798758D01*
X12137029Y-13798758D02*
X12127505Y-13817806D01*
X12127505Y-13817806D02*
X12117981Y-13827329D01*
X12117981Y-13827329D02*
X12098933Y-13836853D01*
X12098933Y-13836853D02*
X12041790Y-13836853D01*
X12041790Y-13836853D02*
X12022743Y-13827329D01*
X12022743Y-13827329D02*
X12013219Y-13817806D01*
X12213219Y-13636853D02*
X12213219Y-13674948D01*
X12289410Y-13636853D02*
X12289410Y-13674948D01*
X12584648Y-13913044D02*
X12575124Y-13903520D01*
X12575124Y-13903520D02*
X12556076Y-13874948D01*
X12556076Y-13874948D02*
X12546552Y-13855901D01*
X12546552Y-13855901D02*
X12537029Y-13827329D01*
X12537029Y-13827329D02*
X12527505Y-13779710D01*
X12527505Y-13779710D02*
X12527505Y-13741615D01*
X12527505Y-13741615D02*
X12537029Y-13693996D01*
X12537029Y-13693996D02*
X12546552Y-13665425D01*
X12546552Y-13665425D02*
X12556076Y-13646377D01*
X12556076Y-13646377D02*
X12575124Y-13617806D01*
X12575124Y-13617806D02*
X12584648Y-13608282D01*
X12746552Y-13703520D02*
X12746552Y-13836853D01*
X12698933Y-13627329D02*
X12651314Y-13770187D01*
X12651314Y-13770187D02*
X12775124Y-13770187D01*
X12946552Y-13636853D02*
X12851314Y-13636853D01*
X12851314Y-13636853D02*
X12841791Y-13732091D01*
X12841791Y-13732091D02*
X12851314Y-13722567D01*
X12851314Y-13722567D02*
X12870362Y-13713044D01*
X12870362Y-13713044D02*
X12917981Y-13713044D01*
X12917981Y-13713044D02*
X12937029Y-13722567D01*
X12937029Y-13722567D02*
X12946552Y-13732091D01*
X12946552Y-13732091D02*
X12956076Y-13751139D01*
X12956076Y-13751139D02*
X12956076Y-13798758D01*
X12956076Y-13798758D02*
X12946552Y-13817806D01*
X12946552Y-13817806D02*
X12937029Y-13827329D01*
X12937029Y-13827329D02*
X12917981Y-13836853D01*
X12917981Y-13836853D02*
X12870362Y-13836853D01*
X12870362Y-13836853D02*
X12851314Y-13827329D01*
X12851314Y-13827329D02*
X12841791Y-13817806D01*
X13194172Y-13836853D02*
X13194172Y-13636853D01*
X13279886Y-13836853D02*
X13279886Y-13732091D01*
X13279886Y-13732091D02*
X13270362Y-13713044D01*
X13270362Y-13713044D02*
X13251314Y-13703520D01*
X13251314Y-13703520D02*
X13222743Y-13703520D01*
X13222743Y-13703520D02*
X13203695Y-13713044D01*
X13203695Y-13713044D02*
X13194172Y-13722567D01*
X13403695Y-13836853D02*
X13384648Y-13827329D01*
X13384648Y-13827329D02*
X13375124Y-13817806D01*
X13375124Y-13817806D02*
X13365600Y-13798758D01*
X13365600Y-13798758D02*
X13365600Y-13741615D01*
X13365600Y-13741615D02*
X13375124Y-13722567D01*
X13375124Y-13722567D02*
X13384648Y-13713044D01*
X13384648Y-13713044D02*
X13403695Y-13703520D01*
X13403695Y-13703520D02*
X13432267Y-13703520D01*
X13432267Y-13703520D02*
X13451314Y-13713044D01*
X13451314Y-13713044D02*
X13460838Y-13722567D01*
X13460838Y-13722567D02*
X13470362Y-13741615D01*
X13470362Y-13741615D02*
X13470362Y-13798758D01*
X13470362Y-13798758D02*
X13460838Y-13817806D01*
X13460838Y-13817806D02*
X13451314Y-13827329D01*
X13451314Y-13827329D02*
X13432267Y-13836853D01*
X13432267Y-13836853D02*
X13403695Y-13836853D01*
X13584648Y-13836853D02*
X13565600Y-13827329D01*
X13565600Y-13827329D02*
X13556076Y-13808282D01*
X13556076Y-13808282D02*
X13556076Y-13636853D01*
X13737029Y-13827329D02*
X13717981Y-13836853D01*
X13717981Y-13836853D02*
X13679886Y-13836853D01*
X13679886Y-13836853D02*
X13660838Y-13827329D01*
X13660838Y-13827329D02*
X13651314Y-13808282D01*
X13651314Y-13808282D02*
X13651314Y-13732091D01*
X13651314Y-13732091D02*
X13660838Y-13713044D01*
X13660838Y-13713044D02*
X13679886Y-13703520D01*
X13679886Y-13703520D02*
X13717981Y-13703520D01*
X13717981Y-13703520D02*
X13737029Y-13713044D01*
X13737029Y-13713044D02*
X13746553Y-13732091D01*
X13746553Y-13732091D02*
X13746553Y-13751139D01*
X13746553Y-13751139D02*
X13651314Y-13770187D01*
X13822743Y-13827329D02*
X13841791Y-13836853D01*
X13841791Y-13836853D02*
X13879886Y-13836853D01*
X13879886Y-13836853D02*
X13898934Y-13827329D01*
X13898934Y-13827329D02*
X13908457Y-13808282D01*
X13908457Y-13808282D02*
X13908457Y-13798758D01*
X13908457Y-13798758D02*
X13898934Y-13779710D01*
X13898934Y-13779710D02*
X13879886Y-13770187D01*
X13879886Y-13770187D02*
X13851314Y-13770187D01*
X13851314Y-13770187D02*
X13832267Y-13760663D01*
X13832267Y-13760663D02*
X13822743Y-13741615D01*
X13822743Y-13741615D02*
X13822743Y-13732091D01*
X13822743Y-13732091D02*
X13832267Y-13713044D01*
X13832267Y-13713044D02*
X13851314Y-13703520D01*
X13851314Y-13703520D02*
X13879886Y-13703520D01*
X13879886Y-13703520D02*
X13898934Y-13713044D01*
X13975124Y-13913044D02*
X13984648Y-13903520D01*
X13984648Y-13903520D02*
X14003695Y-13874948D01*
X14003695Y-13874948D02*
X14013219Y-13855901D01*
X14013219Y-13855901D02*
X14022743Y-13827329D01*
X14022743Y-13827329D02*
X14032267Y-13779710D01*
X14032267Y-13779710D02*
X14032267Y-13741615D01*
X14032267Y-13741615D02*
X14022743Y-13693996D01*
X14022743Y-13693996D02*
X14013219Y-13665425D01*
X14013219Y-13665425D02*
X14003695Y-13646377D01*
X14003695Y-13646377D02*
X13984648Y-13617806D01*
X13984648Y-13617806D02*
X13975124Y-13608282D01*
M02*
