M48
; DRILL file {KiCad 8.0.6} date 2025-02-26T16:40:32-0800
; FORMAT={-:-/ absolute / metric / decimal}
; #@! TF.CreationDate,2025-02-26T16:40:32-08:00
; #@! TF.GenerationSoftware,Kicad,Pcbnew,8.0.6
; #@! TF.FileFunction,Plated,1,2,PTH
FMAT,2
METRIC
; #@! TA.AperFunction,Plated,PTH,ViaDrill
T1C0.300
; #@! TA.AperFunction,Plated,PTH,ComponentDrill
T2C0.800
; #@! TA.AperFunction,Plated,PTH,ComponentDrill
T3C1.000
; #@! TA.AperFunction,Plated,PTH,ComponentDrill
T4C1.100
%
G90
G05
T1
X100.71Y-55.55
X100.71Y-62.55
X101.472Y-99.447
X101.55Y-98.445
X102.21Y-72.65
X102.21Y-75.19
X102.21Y-84.09
X102.75Y-109.137
X102.75Y-118.438
X102.85Y-96.0
X103.5Y-96.95
X103.95Y-107.837
X106.15Y-106.3
X106.31Y-97.45
X106.62Y-95.08
X107.25Y-107.837
X107.41Y-98.55
X107.42Y-68.583
X107.42Y-74.101
X107.42Y-82.98
X107.648Y-106.327
X107.65Y-96.11
X108.21Y-63.55
X108.575Y-103.875
X109.054Y-65.894
X109.211Y-106.211
X109.247Y-56.55
X109.45Y-107.837
X109.71Y-67.513
X109.71Y-73.013
X109.71Y-80.042
X109.71Y-99.475
X110.1Y-103.875
X110.76Y-87.092
X110.9Y-103.875
X110.935Y-63.08
X112.172Y-56.55
X112.172Y-60.05
X112.987Y-83.774
X113.047Y-61.887
X113.21Y-66.5
X113.21Y-92.962
X113.338Y-60.678
X114.257Y-78.326
X114.257Y-83.774
X114.26Y-74.274
X114.26Y-100.774
X115.0Y-103.5
X115.0Y-105.45
X115.21Y-87.092
X115.4Y-56.086
X116.67Y-61.014
X116.797Y-78.326
X117.35Y-108.887
X117.94Y-56.086
X118.075Y-65.326
X118.075Y-70.774
X118.075Y-91.826
X118.075Y-97.274
X118.25Y-118.438
X118.71Y-100.774
X118.76Y-74.274
X120.615Y-65.326
X120.615Y-91.826
X126.71Y-99.55
X127.36Y-99.05
X127.36Y-100.05
X127.71Y-110.55
X128.71Y-110.55
X129.71Y-91.63
X129.71Y-110.55
X130.21Y-65.6
X130.21Y-81.1
X130.21Y-96.05
X130.21Y-99.55
X134.209Y-85.495
X134.21Y-90.05
X134.246Y-69.955
X134.246Y-74.514
X135.672Y-65.09
X135.672Y-80.63
X135.86Y-96.122
X135.86Y-101.05
X137.13Y-101.05
X137.748Y-65.09
X137.748Y-80.63
X138.4Y-101.05
X139.136Y-84.225
X139.174Y-68.685
X139.67Y-96.122
X139.67Y-101.05
X140.94Y-101.05
X141.67Y-70.51
X142.21Y-101.05
X142.623Y-91.63
X142.755Y-76.084
X143.01Y-107.134
X143.48Y-96.122
X143.612Y-106.608
X144.71Y-55.55
X144.71Y-65.05
X144.71Y-85.09
X144.721Y-105.539
X145.71Y-104.55
X146.21Y-67.59
T2
X138.71Y-105.55
X138.71Y-110.55
T3
X104.71Y-62.49
X104.71Y-65.03
X104.71Y-67.57
X104.71Y-70.11
X104.71Y-72.65
X104.71Y-75.19
X104.71Y-77.73
X104.71Y-80.27
X104.71Y-82.81
X104.71Y-85.35
X104.71Y-87.89
X104.71Y-90.43
X104.71Y-92.97
X104.71Y-95.51
X104.71Y-98.05
X104.71Y-100.59
X125.036Y-72.65
X125.036Y-75.19
X125.036Y-77.73
X125.036Y-80.27
X125.036Y-82.81
X125.036Y-85.35
X125.036Y-87.89
X125.036Y-90.43
X125.036Y-92.97
X125.036Y-95.51
X125.036Y-98.05
X125.036Y-100.59
T4
X95.71Y-66.78
X95.71Y-69.32
X95.71Y-74.28
X95.71Y-76.82
X95.71Y-81.55
X95.71Y-84.09
X95.71Y-88.51
X95.71Y-91.05
X95.71Y-93.59
X95.71Y-96.13
X95.71Y-100.55
X95.71Y-103.09
X95.71Y-105.63
X95.71Y-108.17
X95.71Y-110.71
X95.71Y-113.25
X123.13Y-117.55
X125.67Y-117.55
X128.21Y-117.55
X130.25Y-58.55
X132.79Y-58.55
X133.05Y-117.55
X135.59Y-117.55
X137.71Y-58.55
X138.13Y-117.55
X140.25Y-58.55
X140.67Y-117.55
X143.21Y-117.55
X149.71Y-62.51
X149.71Y-65.05
X149.71Y-67.59
X149.71Y-72.55
X149.71Y-75.09
X149.71Y-77.63
X149.71Y-82.55
X149.71Y-85.09
X149.71Y-87.63
X149.71Y-92.43
X149.71Y-94.97
X149.71Y-97.51
X149.71Y-100.05
X149.71Y-104.55
X149.71Y-107.09
X149.71Y-111.28
X149.71Y-113.82
M30
