G04 #@! TF.GenerationSoftware,KiCad,Pcbnew,8.0.6*
G04 #@! TF.CreationDate,2025-01-17T16:42:44-08:00*
G04 #@! TF.ProjectId,AudioLux,41756469-6f4c-4757-982e-6b696361645f,rev?*
G04 #@! TF.SameCoordinates,Original*
G04 #@! TF.FileFunction,Legend,Top*
G04 #@! TF.FilePolarity,Positive*
%FSLAX46Y46*%
G04 Gerber Fmt 4.6, Leading zero omitted, Abs format (unit mm)*
G04 Created by KiCad (PCBNEW 8.0.6) date 2025-01-17 16:42:44*
%MOMM*%
%LPD*%
G01*
G04 APERTURE LIST*
G04 Aperture macros list*
%AMRoundRect*
0 Rectangle with rounded corners*
0 $1 Rounding radius*
0 $2 $3 $4 $5 $6 $7 $8 $9 X,Y pos of 4 corners*
0 Add a 4 corners polygon primitive as box body*
4,1,4,$2,$3,$4,$5,$6,$7,$8,$9,$2,$3,0*
0 Add four circle primitives for the rounded corners*
1,1,$1+$1,$2,$3*
1,1,$1+$1,$4,$5*
1,1,$1+$1,$6,$7*
1,1,$1+$1,$8,$9*
0 Add four rect primitives between the rounded corners*
20,1,$1+$1,$2,$3,$4,$5,0*
20,1,$1+$1,$4,$5,$6,$7,0*
20,1,$1+$1,$6,$7,$8,$9,0*
20,1,$1+$1,$8,$9,$2,$3,0*%
G04 Aperture macros list end*
%ADD10C,0.150000*%
%ADD11C,0.300000*%
%ADD12C,0.120000*%
%ADD13C,0.152400*%
%ADD14C,0.127000*%
%ADD15C,0.200000*%
%ADD16C,0.000000*%
%ADD17R,2.100000X2.100000*%
%ADD18C,2.100000*%
%ADD19RoundRect,0.250000X-0.250000X-0.475000X0.250000X-0.475000X0.250000X0.475000X-0.250000X0.475000X0*%
%ADD20RoundRect,0.250000X0.312500X0.625000X-0.312500X0.625000X-0.312500X-0.625000X0.312500X-0.625000X0*%
%ADD21RoundRect,0.250000X-0.625000X0.312500X-0.625000X-0.312500X0.625000X-0.312500X0.625000X0.312500X0*%
%ADD22R,1.460500X0.533400*%
%ADD23RoundRect,0.250000X0.250000X0.475000X-0.250000X0.475000X-0.250000X-0.475000X0.250000X-0.475000X0*%
%ADD24R,1.600000X1.600000*%
%ADD25C,1.600000*%
%ADD26RoundRect,0.250000X-0.475000X0.250000X-0.475000X-0.250000X0.475000X-0.250000X0.475000X0.250000X0*%
%ADD27R,1.700000X1.700000*%
%ADD28O,1.700000X1.700000*%
%ADD29C,2.500000*%
%ADD30RoundRect,0.250000X-0.312500X-0.625000X0.312500X-0.625000X0.312500X0.625000X-0.312500X0.625000X0*%
%ADD31C,1.000000*%
%ADD32RoundRect,0.102000X0.350000X0.800000X-0.350000X0.800000X-0.350000X-0.800000X0.350000X-0.800000X0*%
%ADD33RoundRect,0.102000X0.600000X0.900000X-0.600000X0.900000X-0.600000X-0.900000X0.600000X-0.900000X0*%
%ADD34RoundRect,0.102000X0.800000X0.750000X-0.800000X0.750000X-0.800000X-0.750000X0.800000X-0.750000X0*%
%ADD35RoundRect,0.102000X0.600000X1.100000X-0.600000X1.100000X-0.600000X-1.100000X0.600000X-1.100000X0*%
%ADD36R,1.981200X0.558800*%
G04 APERTURE END LIST*
D10*
X163288152Y-92904762D02*
X163954819Y-92904762D01*
X162907200Y-93142857D02*
X163621485Y-93380952D01*
X163621485Y-93380952D02*
X163621485Y-92761905D01*
X163478628Y-92190476D02*
X163954819Y-92190476D01*
X162954819Y-92523809D02*
X163478628Y-92190476D01*
X163478628Y-92190476D02*
X162954819Y-91857143D01*
X163288152Y-89571428D02*
X163954819Y-89571428D01*
X162907200Y-89809523D02*
X163621485Y-90047618D01*
X163621485Y-90047618D02*
X163621485Y-89428571D01*
X163669104Y-89095237D02*
X163669104Y-88619047D01*
X163954819Y-89190475D02*
X162954819Y-88857142D01*
X162954819Y-88857142D02*
X163954819Y-88523809D01*
X162954819Y-100928571D02*
X162954819Y-100309524D01*
X162954819Y-100309524D02*
X163335771Y-100642857D01*
X163335771Y-100642857D02*
X163335771Y-100500000D01*
X163335771Y-100500000D02*
X163383390Y-100404762D01*
X163383390Y-100404762D02*
X163431009Y-100357143D01*
X163431009Y-100357143D02*
X163526247Y-100309524D01*
X163526247Y-100309524D02*
X163764342Y-100309524D01*
X163764342Y-100309524D02*
X163859580Y-100357143D01*
X163859580Y-100357143D02*
X163907200Y-100404762D01*
X163907200Y-100404762D02*
X163954819Y-100500000D01*
X163954819Y-100500000D02*
X163954819Y-100785714D01*
X163954819Y-100785714D02*
X163907200Y-100880952D01*
X163907200Y-100880952D02*
X163859580Y-100928571D01*
X163478628Y-99690476D02*
X163954819Y-99690476D01*
X162954819Y-100023809D02*
X163478628Y-99690476D01*
X163478628Y-99690476D02*
X162954819Y-99357143D01*
X162954819Y-97595237D02*
X162954819Y-96976190D01*
X162954819Y-96976190D02*
X163335771Y-97309523D01*
X163335771Y-97309523D02*
X163335771Y-97166666D01*
X163335771Y-97166666D02*
X163383390Y-97071428D01*
X163383390Y-97071428D02*
X163431009Y-97023809D01*
X163431009Y-97023809D02*
X163526247Y-96976190D01*
X163526247Y-96976190D02*
X163764342Y-96976190D01*
X163764342Y-96976190D02*
X163859580Y-97023809D01*
X163859580Y-97023809D02*
X163907200Y-97071428D01*
X163907200Y-97071428D02*
X163954819Y-97166666D01*
X163954819Y-97166666D02*
X163954819Y-97452380D01*
X163954819Y-97452380D02*
X163907200Y-97547618D01*
X163907200Y-97547618D02*
X163859580Y-97595237D01*
X163669104Y-96595237D02*
X163669104Y-96119047D01*
X163954819Y-96690475D02*
X162954819Y-96357142D01*
X162954819Y-96357142D02*
X163954819Y-96023809D01*
X141210839Y-60177800D02*
X141067982Y-60130180D01*
X141067982Y-60130180D02*
X140829887Y-60130180D01*
X140829887Y-60130180D02*
X140734649Y-60177800D01*
X140734649Y-60177800D02*
X140687030Y-60225419D01*
X140687030Y-60225419D02*
X140639411Y-60320657D01*
X140639411Y-60320657D02*
X140639411Y-60415895D01*
X140639411Y-60415895D02*
X140687030Y-60511133D01*
X140687030Y-60511133D02*
X140734649Y-60558752D01*
X140734649Y-60558752D02*
X140829887Y-60606371D01*
X140829887Y-60606371D02*
X141020363Y-60653990D01*
X141020363Y-60653990D02*
X141115601Y-60701609D01*
X141115601Y-60701609D02*
X141163220Y-60749228D01*
X141163220Y-60749228D02*
X141210839Y-60844466D01*
X141210839Y-60844466D02*
X141210839Y-60939704D01*
X141210839Y-60939704D02*
X141163220Y-61034942D01*
X141163220Y-61034942D02*
X141115601Y-61082561D01*
X141115601Y-61082561D02*
X141020363Y-61130180D01*
X141020363Y-61130180D02*
X140782268Y-61130180D01*
X140782268Y-61130180D02*
X140639411Y-61082561D01*
X140210839Y-60130180D02*
X140210839Y-61130180D01*
X140210839Y-61130180D02*
X139829887Y-61130180D01*
X139829887Y-61130180D02*
X139734649Y-61082561D01*
X139734649Y-61082561D02*
X139687030Y-61034942D01*
X139687030Y-61034942D02*
X139639411Y-60939704D01*
X139639411Y-60939704D02*
X139639411Y-60796847D01*
X139639411Y-60796847D02*
X139687030Y-60701609D01*
X139687030Y-60701609D02*
X139734649Y-60653990D01*
X139734649Y-60653990D02*
X139829887Y-60606371D01*
X139829887Y-60606371D02*
X140210839Y-60606371D01*
X139210839Y-60130180D02*
X139210839Y-61130180D01*
X150663220Y-60130180D02*
X150663220Y-61130180D01*
X150663220Y-61130180D02*
X150282268Y-61130180D01*
X150282268Y-61130180D02*
X150187030Y-61082561D01*
X150187030Y-61082561D02*
X150139411Y-61034942D01*
X150139411Y-61034942D02*
X150091792Y-60939704D01*
X150091792Y-60939704D02*
X150091792Y-60796847D01*
X150091792Y-60796847D02*
X150139411Y-60701609D01*
X150139411Y-60701609D02*
X150187030Y-60653990D01*
X150187030Y-60653990D02*
X150282268Y-60606371D01*
X150282268Y-60606371D02*
X150663220Y-60606371D01*
X149758458Y-61130180D02*
X149520363Y-60130180D01*
X149520363Y-60130180D02*
X149329887Y-60844466D01*
X149329887Y-60844466D02*
X149139411Y-60130180D01*
X149139411Y-60130180D02*
X148901316Y-61130180D01*
X147948935Y-60130180D02*
X148282268Y-60606371D01*
X148520363Y-60130180D02*
X148520363Y-61130180D01*
X148520363Y-61130180D02*
X148139411Y-61130180D01*
X148139411Y-61130180D02*
X148044173Y-61082561D01*
X148044173Y-61082561D02*
X147996554Y-61034942D01*
X147996554Y-61034942D02*
X147948935Y-60939704D01*
X147948935Y-60939704D02*
X147948935Y-60796847D01*
X147948935Y-60796847D02*
X147996554Y-60701609D01*
X147996554Y-60701609D02*
X148044173Y-60653990D01*
X148044173Y-60653990D02*
X148139411Y-60606371D01*
X148139411Y-60606371D02*
X148520363Y-60606371D01*
X142190476Y-51140419D02*
X142238095Y-51092800D01*
X142238095Y-51092800D02*
X142380952Y-51045180D01*
X142380952Y-51045180D02*
X142476190Y-51045180D01*
X142476190Y-51045180D02*
X142619047Y-51092800D01*
X142619047Y-51092800D02*
X142714285Y-51188038D01*
X142714285Y-51188038D02*
X142761904Y-51283276D01*
X142761904Y-51283276D02*
X142809523Y-51473752D01*
X142809523Y-51473752D02*
X142809523Y-51616609D01*
X142809523Y-51616609D02*
X142761904Y-51807085D01*
X142761904Y-51807085D02*
X142714285Y-51902323D01*
X142714285Y-51902323D02*
X142619047Y-51997561D01*
X142619047Y-51997561D02*
X142476190Y-52045180D01*
X142476190Y-52045180D02*
X142380952Y-52045180D01*
X142380952Y-52045180D02*
X142238095Y-51997561D01*
X142238095Y-51997561D02*
X142190476Y-51949942D01*
X141809523Y-51092800D02*
X141666666Y-51045180D01*
X141666666Y-51045180D02*
X141428571Y-51045180D01*
X141428571Y-51045180D02*
X141333333Y-51092800D01*
X141333333Y-51092800D02*
X141285714Y-51140419D01*
X141285714Y-51140419D02*
X141238095Y-51235657D01*
X141238095Y-51235657D02*
X141238095Y-51330895D01*
X141238095Y-51330895D02*
X141285714Y-51426133D01*
X141285714Y-51426133D02*
X141333333Y-51473752D01*
X141333333Y-51473752D02*
X141428571Y-51521371D01*
X141428571Y-51521371D02*
X141619047Y-51568990D01*
X141619047Y-51568990D02*
X141714285Y-51616609D01*
X141714285Y-51616609D02*
X141761904Y-51664228D01*
X141761904Y-51664228D02*
X141809523Y-51759466D01*
X141809523Y-51759466D02*
X141809523Y-51854704D01*
X141809523Y-51854704D02*
X141761904Y-51949942D01*
X141761904Y-51949942D02*
X141714285Y-51997561D01*
X141714285Y-51997561D02*
X141619047Y-52045180D01*
X141619047Y-52045180D02*
X141380952Y-52045180D01*
X141380952Y-52045180D02*
X141238095Y-51997561D01*
X140047618Y-51045180D02*
X140047618Y-52045180D01*
X140047618Y-52045180D02*
X139714285Y-51330895D01*
X139714285Y-51330895D02*
X139380952Y-52045180D01*
X139380952Y-52045180D02*
X139380952Y-51045180D01*
X138714285Y-52045180D02*
X138523809Y-52045180D01*
X138523809Y-52045180D02*
X138428571Y-51997561D01*
X138428571Y-51997561D02*
X138333333Y-51902323D01*
X138333333Y-51902323D02*
X138285714Y-51711847D01*
X138285714Y-51711847D02*
X138285714Y-51378514D01*
X138285714Y-51378514D02*
X138333333Y-51188038D01*
X138333333Y-51188038D02*
X138428571Y-51092800D01*
X138428571Y-51092800D02*
X138523809Y-51045180D01*
X138523809Y-51045180D02*
X138714285Y-51045180D01*
X138714285Y-51045180D02*
X138809523Y-51092800D01*
X138809523Y-51092800D02*
X138904761Y-51188038D01*
X138904761Y-51188038D02*
X138952380Y-51378514D01*
X138952380Y-51378514D02*
X138952380Y-51711847D01*
X138952380Y-51711847D02*
X138904761Y-51902323D01*
X138904761Y-51902323D02*
X138809523Y-51997561D01*
X138809523Y-51997561D02*
X138714285Y-52045180D01*
X137095237Y-51045180D02*
X137095237Y-52045180D01*
X137095237Y-52045180D02*
X136761904Y-51330895D01*
X136761904Y-51330895D02*
X136428571Y-52045180D01*
X136428571Y-52045180D02*
X136428571Y-51045180D01*
X135952380Y-51045180D02*
X135952380Y-52045180D01*
X134761904Y-51092800D02*
X134619047Y-51045180D01*
X134619047Y-51045180D02*
X134380952Y-51045180D01*
X134380952Y-51045180D02*
X134285714Y-51092800D01*
X134285714Y-51092800D02*
X134238095Y-51140419D01*
X134238095Y-51140419D02*
X134190476Y-51235657D01*
X134190476Y-51235657D02*
X134190476Y-51330895D01*
X134190476Y-51330895D02*
X134238095Y-51426133D01*
X134238095Y-51426133D02*
X134285714Y-51473752D01*
X134285714Y-51473752D02*
X134380952Y-51521371D01*
X134380952Y-51521371D02*
X134571428Y-51568990D01*
X134571428Y-51568990D02*
X134666666Y-51616609D01*
X134666666Y-51616609D02*
X134714285Y-51664228D01*
X134714285Y-51664228D02*
X134761904Y-51759466D01*
X134761904Y-51759466D02*
X134761904Y-51854704D01*
X134761904Y-51854704D02*
X134714285Y-51949942D01*
X134714285Y-51949942D02*
X134666666Y-51997561D01*
X134666666Y-51997561D02*
X134571428Y-52045180D01*
X134571428Y-52045180D02*
X134333333Y-52045180D01*
X134333333Y-52045180D02*
X134190476Y-51997561D01*
X133190476Y-51140419D02*
X133238095Y-51092800D01*
X133238095Y-51092800D02*
X133380952Y-51045180D01*
X133380952Y-51045180D02*
X133476190Y-51045180D01*
X133476190Y-51045180D02*
X133619047Y-51092800D01*
X133619047Y-51092800D02*
X133714285Y-51188038D01*
X133714285Y-51188038D02*
X133761904Y-51283276D01*
X133761904Y-51283276D02*
X133809523Y-51473752D01*
X133809523Y-51473752D02*
X133809523Y-51616609D01*
X133809523Y-51616609D02*
X133761904Y-51807085D01*
X133761904Y-51807085D02*
X133714285Y-51902323D01*
X133714285Y-51902323D02*
X133619047Y-51997561D01*
X133619047Y-51997561D02*
X133476190Y-52045180D01*
X133476190Y-52045180D02*
X133380952Y-52045180D01*
X133380952Y-52045180D02*
X133238095Y-51997561D01*
X133238095Y-51997561D02*
X133190476Y-51949942D01*
X132761904Y-51045180D02*
X132761904Y-52045180D01*
X132190476Y-51045180D02*
X132619047Y-51616609D01*
X132190476Y-52045180D02*
X132761904Y-51473752D01*
D11*
X163229400Y-111945489D02*
X163229400Y-110802632D01*
X119554510Y-117729400D02*
X120697368Y-117729400D01*
D10*
X163584104Y-78710839D02*
X163584104Y-78234649D01*
X163869819Y-78806077D02*
X162869819Y-78472744D01*
X162869819Y-78472744D02*
X163869819Y-78139411D01*
D11*
X163229400Y-81945489D02*
X163229400Y-80802632D01*
X112054510Y-109229400D02*
X113197368Y-109229400D01*
D10*
X154907200Y-108714285D02*
X154954819Y-108571428D01*
X154954819Y-108571428D02*
X154954819Y-108333333D01*
X154954819Y-108333333D02*
X154907200Y-108238095D01*
X154907200Y-108238095D02*
X154859580Y-108190476D01*
X154859580Y-108190476D02*
X154764342Y-108142857D01*
X154764342Y-108142857D02*
X154669104Y-108142857D01*
X154669104Y-108142857D02*
X154573866Y-108190476D01*
X154573866Y-108190476D02*
X154526247Y-108238095D01*
X154526247Y-108238095D02*
X154478628Y-108333333D01*
X154478628Y-108333333D02*
X154431009Y-108523809D01*
X154431009Y-108523809D02*
X154383390Y-108619047D01*
X154383390Y-108619047D02*
X154335771Y-108666666D01*
X154335771Y-108666666D02*
X154240533Y-108714285D01*
X154240533Y-108714285D02*
X154145295Y-108714285D01*
X154145295Y-108714285D02*
X154050057Y-108666666D01*
X154050057Y-108666666D02*
X154002438Y-108619047D01*
X154002438Y-108619047D02*
X153954819Y-108523809D01*
X153954819Y-108523809D02*
X153954819Y-108285714D01*
X153954819Y-108285714D02*
X154002438Y-108142857D01*
X154954819Y-107714285D02*
X153954819Y-107714285D01*
X153954819Y-107714285D02*
X153954819Y-107476190D01*
X153954819Y-107476190D02*
X154002438Y-107333333D01*
X154002438Y-107333333D02*
X154097676Y-107238095D01*
X154097676Y-107238095D02*
X154192914Y-107190476D01*
X154192914Y-107190476D02*
X154383390Y-107142857D01*
X154383390Y-107142857D02*
X154526247Y-107142857D01*
X154526247Y-107142857D02*
X154716723Y-107190476D01*
X154716723Y-107190476D02*
X154811961Y-107238095D01*
X154811961Y-107238095D02*
X154907200Y-107333333D01*
X154907200Y-107333333D02*
X154954819Y-107476190D01*
X154954819Y-107476190D02*
X154954819Y-107714285D01*
X154669104Y-106761904D02*
X154669104Y-106285714D01*
X154954819Y-106857142D02*
X153954819Y-106523809D01*
X153954819Y-106523809D02*
X154954819Y-106190476D01*
X153809524Y-51997561D02*
X153904762Y-52045180D01*
X153904762Y-52045180D02*
X154047619Y-52045180D01*
X154047619Y-52045180D02*
X154190476Y-51997561D01*
X154190476Y-51997561D02*
X154285714Y-51902323D01*
X154285714Y-51902323D02*
X154333333Y-51807085D01*
X154333333Y-51807085D02*
X154380952Y-51616609D01*
X154380952Y-51616609D02*
X154380952Y-51473752D01*
X154380952Y-51473752D02*
X154333333Y-51283276D01*
X154333333Y-51283276D02*
X154285714Y-51188038D01*
X154285714Y-51188038D02*
X154190476Y-51092800D01*
X154190476Y-51092800D02*
X154047619Y-51045180D01*
X154047619Y-51045180D02*
X153952381Y-51045180D01*
X153952381Y-51045180D02*
X153809524Y-51092800D01*
X153809524Y-51092800D02*
X153761905Y-51140419D01*
X153761905Y-51140419D02*
X153761905Y-51473752D01*
X153761905Y-51473752D02*
X153952381Y-51473752D01*
X153333333Y-51045180D02*
X153333333Y-52045180D01*
X153333333Y-52045180D02*
X152761905Y-51045180D01*
X152761905Y-51045180D02*
X152761905Y-52045180D01*
X152285714Y-51045180D02*
X152285714Y-52045180D01*
X152285714Y-52045180D02*
X152047619Y-52045180D01*
X152047619Y-52045180D02*
X151904762Y-51997561D01*
X151904762Y-51997561D02*
X151809524Y-51902323D01*
X151809524Y-51902323D02*
X151761905Y-51807085D01*
X151761905Y-51807085D02*
X151714286Y-51616609D01*
X151714286Y-51616609D02*
X151714286Y-51473752D01*
X151714286Y-51473752D02*
X151761905Y-51283276D01*
X151761905Y-51283276D02*
X151809524Y-51188038D01*
X151809524Y-51188038D02*
X151904762Y-51092800D01*
X151904762Y-51092800D02*
X152047619Y-51045180D01*
X152047619Y-51045180D02*
X152285714Y-51045180D01*
X150619047Y-52045180D02*
X150000000Y-52045180D01*
X150000000Y-52045180D02*
X150333333Y-51664228D01*
X150333333Y-51664228D02*
X150190476Y-51664228D01*
X150190476Y-51664228D02*
X150095238Y-51616609D01*
X150095238Y-51616609D02*
X150047619Y-51568990D01*
X150047619Y-51568990D02*
X150000000Y-51473752D01*
X150000000Y-51473752D02*
X150000000Y-51235657D01*
X150000000Y-51235657D02*
X150047619Y-51140419D01*
X150047619Y-51140419D02*
X150095238Y-51092800D01*
X150095238Y-51092800D02*
X150190476Y-51045180D01*
X150190476Y-51045180D02*
X150476190Y-51045180D01*
X150476190Y-51045180D02*
X150571428Y-51092800D01*
X150571428Y-51092800D02*
X150619047Y-51140419D01*
X149714285Y-52045180D02*
X149380952Y-51045180D01*
X149380952Y-51045180D02*
X149047619Y-52045180D01*
X148809523Y-52045180D02*
X148190476Y-52045180D01*
X148190476Y-52045180D02*
X148523809Y-51664228D01*
X148523809Y-51664228D02*
X148380952Y-51664228D01*
X148380952Y-51664228D02*
X148285714Y-51616609D01*
X148285714Y-51616609D02*
X148238095Y-51568990D01*
X148238095Y-51568990D02*
X148190476Y-51473752D01*
X148190476Y-51473752D02*
X148190476Y-51235657D01*
X148190476Y-51235657D02*
X148238095Y-51140419D01*
X148238095Y-51140419D02*
X148285714Y-51092800D01*
X148285714Y-51092800D02*
X148380952Y-51045180D01*
X148380952Y-51045180D02*
X148666666Y-51045180D01*
X148666666Y-51045180D02*
X148761904Y-51092800D01*
X148761904Y-51092800D02*
X148809523Y-51140419D01*
X146523809Y-52045180D02*
X146999999Y-52045180D01*
X146999999Y-52045180D02*
X147047618Y-51568990D01*
X147047618Y-51568990D02*
X146999999Y-51616609D01*
X146999999Y-51616609D02*
X146904761Y-51664228D01*
X146904761Y-51664228D02*
X146666666Y-51664228D01*
X146666666Y-51664228D02*
X146571428Y-51616609D01*
X146571428Y-51616609D02*
X146523809Y-51568990D01*
X146523809Y-51568990D02*
X146476190Y-51473752D01*
X146476190Y-51473752D02*
X146476190Y-51235657D01*
X146476190Y-51235657D02*
X146523809Y-51140419D01*
X146523809Y-51140419D02*
X146571428Y-51092800D01*
X146571428Y-51092800D02*
X146666666Y-51045180D01*
X146666666Y-51045180D02*
X146904761Y-51045180D01*
X146904761Y-51045180D02*
X146999999Y-51092800D01*
X146999999Y-51092800D02*
X147047618Y-51140419D01*
X146190475Y-52045180D02*
X145857142Y-51045180D01*
X145857142Y-51045180D02*
X145523809Y-52045180D01*
X110095238Y-118669104D02*
X110571428Y-118669104D01*
X110000000Y-118954819D02*
X110333333Y-117954819D01*
X110333333Y-117954819D02*
X110666666Y-118954819D01*
X111000000Y-117954819D02*
X111000000Y-118764342D01*
X111000000Y-118764342D02*
X111047619Y-118859580D01*
X111047619Y-118859580D02*
X111095238Y-118907200D01*
X111095238Y-118907200D02*
X111190476Y-118954819D01*
X111190476Y-118954819D02*
X111380952Y-118954819D01*
X111380952Y-118954819D02*
X111476190Y-118907200D01*
X111476190Y-118907200D02*
X111523809Y-118859580D01*
X111523809Y-118859580D02*
X111571428Y-118764342D01*
X111571428Y-118764342D02*
X111571428Y-117954819D01*
X112047619Y-118954819D02*
X112047619Y-117954819D01*
X112047619Y-117954819D02*
X112285714Y-117954819D01*
X112285714Y-117954819D02*
X112428571Y-118002438D01*
X112428571Y-118002438D02*
X112523809Y-118097676D01*
X112523809Y-118097676D02*
X112571428Y-118192914D01*
X112571428Y-118192914D02*
X112619047Y-118383390D01*
X112619047Y-118383390D02*
X112619047Y-118526247D01*
X112619047Y-118526247D02*
X112571428Y-118716723D01*
X112571428Y-118716723D02*
X112523809Y-118811961D01*
X112523809Y-118811961D02*
X112428571Y-118907200D01*
X112428571Y-118907200D02*
X112285714Y-118954819D01*
X112285714Y-118954819D02*
X112047619Y-118954819D01*
X112809524Y-119050057D02*
X113571428Y-119050057D01*
X113809524Y-118954819D02*
X113809524Y-117954819D01*
X114285714Y-118954819D02*
X114285714Y-117954819D01*
X114285714Y-117954819D02*
X114857142Y-118954819D01*
X114857142Y-118954819D02*
X114857142Y-117954819D01*
D11*
X163229400Y-59445489D02*
X163229400Y-58302632D01*
D10*
X154619048Y-113573866D02*
X155380953Y-113573866D01*
X155000000Y-113954819D02*
X155000000Y-113192914D01*
X122833333Y-118954819D02*
X122833333Y-117954819D01*
X122833333Y-117954819D02*
X123214285Y-117954819D01*
X123214285Y-117954819D02*
X123309523Y-118002438D01*
X123309523Y-118002438D02*
X123357142Y-118050057D01*
X123357142Y-118050057D02*
X123404761Y-118145295D01*
X123404761Y-118145295D02*
X123404761Y-118288152D01*
X123404761Y-118288152D02*
X123357142Y-118383390D01*
X123357142Y-118383390D02*
X123309523Y-118431009D01*
X123309523Y-118431009D02*
X123214285Y-118478628D01*
X123214285Y-118478628D02*
X122833333Y-118478628D01*
X124023809Y-117954819D02*
X124214285Y-117954819D01*
X124214285Y-117954819D02*
X124309523Y-118002438D01*
X124309523Y-118002438D02*
X124404761Y-118097676D01*
X124404761Y-118097676D02*
X124452380Y-118288152D01*
X124452380Y-118288152D02*
X124452380Y-118621485D01*
X124452380Y-118621485D02*
X124404761Y-118811961D01*
X124404761Y-118811961D02*
X124309523Y-118907200D01*
X124309523Y-118907200D02*
X124214285Y-118954819D01*
X124214285Y-118954819D02*
X124023809Y-118954819D01*
X124023809Y-118954819D02*
X123928571Y-118907200D01*
X123928571Y-118907200D02*
X123833333Y-118811961D01*
X123833333Y-118811961D02*
X123785714Y-118621485D01*
X123785714Y-118621485D02*
X123785714Y-118288152D01*
X123785714Y-118288152D02*
X123833333Y-118097676D01*
X123833333Y-118097676D02*
X123928571Y-118002438D01*
X123928571Y-118002438D02*
X124023809Y-117954819D01*
X124738095Y-117954819D02*
X125309523Y-117954819D01*
X125023809Y-118954819D02*
X125023809Y-117954819D01*
D11*
X103497742Y-58103082D02*
X103497742Y-58817368D01*
X103069171Y-57960225D02*
X104569171Y-58460225D01*
X104569171Y-58460225D02*
X103069171Y-58960225D01*
X104069171Y-60103082D02*
X103069171Y-60103082D01*
X104069171Y-59460224D02*
X103283457Y-59460224D01*
X103283457Y-59460224D02*
X103140600Y-59531653D01*
X103140600Y-59531653D02*
X103069171Y-59674510D01*
X103069171Y-59674510D02*
X103069171Y-59888796D01*
X103069171Y-59888796D02*
X103140600Y-60031653D01*
X103140600Y-60031653D02*
X103212028Y-60103082D01*
X103069171Y-61460225D02*
X104569171Y-61460225D01*
X103140600Y-61460225D02*
X103069171Y-61317367D01*
X103069171Y-61317367D02*
X103069171Y-61031653D01*
X103069171Y-61031653D02*
X103140600Y-60888796D01*
X103140600Y-60888796D02*
X103212028Y-60817367D01*
X103212028Y-60817367D02*
X103354885Y-60745939D01*
X103354885Y-60745939D02*
X103783457Y-60745939D01*
X103783457Y-60745939D02*
X103926314Y-60817367D01*
X103926314Y-60817367D02*
X103997742Y-60888796D01*
X103997742Y-60888796D02*
X104069171Y-61031653D01*
X104069171Y-61031653D02*
X104069171Y-61317367D01*
X104069171Y-61317367D02*
X103997742Y-61460225D01*
X103069171Y-62174510D02*
X104069171Y-62174510D01*
X104569171Y-62174510D02*
X104497742Y-62103082D01*
X104497742Y-62103082D02*
X104426314Y-62174510D01*
X104426314Y-62174510D02*
X104497742Y-62245939D01*
X104497742Y-62245939D02*
X104569171Y-62174510D01*
X104569171Y-62174510D02*
X104426314Y-62174510D01*
X103069171Y-63103082D02*
X103140600Y-62960225D01*
X103140600Y-62960225D02*
X103212028Y-62888796D01*
X103212028Y-62888796D02*
X103354885Y-62817368D01*
X103354885Y-62817368D02*
X103783457Y-62817368D01*
X103783457Y-62817368D02*
X103926314Y-62888796D01*
X103926314Y-62888796D02*
X103997742Y-62960225D01*
X103997742Y-62960225D02*
X104069171Y-63103082D01*
X104069171Y-63103082D02*
X104069171Y-63317368D01*
X104069171Y-63317368D02*
X103997742Y-63460225D01*
X103997742Y-63460225D02*
X103926314Y-63531654D01*
X103926314Y-63531654D02*
X103783457Y-63603082D01*
X103783457Y-63603082D02*
X103354885Y-63603082D01*
X103354885Y-63603082D02*
X103212028Y-63531654D01*
X103212028Y-63531654D02*
X103140600Y-63460225D01*
X103140600Y-63460225D02*
X103069171Y-63317368D01*
X103069171Y-63317368D02*
X103069171Y-63103082D01*
X103069171Y-64960225D02*
X103069171Y-64245939D01*
X103069171Y-64245939D02*
X104569171Y-64245939D01*
X104069171Y-66103083D02*
X103069171Y-66103083D01*
X104069171Y-65460225D02*
X103283457Y-65460225D01*
X103283457Y-65460225D02*
X103140600Y-65531654D01*
X103140600Y-65531654D02*
X103069171Y-65674511D01*
X103069171Y-65674511D02*
X103069171Y-65888797D01*
X103069171Y-65888797D02*
X103140600Y-66031654D01*
X103140600Y-66031654D02*
X103212028Y-66103083D01*
X103069171Y-66674511D02*
X104069171Y-67460226D01*
X104069171Y-66674511D02*
X103069171Y-67460226D01*
X104569171Y-69603083D02*
X103497742Y-69603083D01*
X103497742Y-69603083D02*
X103283457Y-69531654D01*
X103283457Y-69531654D02*
X103140600Y-69388797D01*
X103140600Y-69388797D02*
X103069171Y-69174511D01*
X103069171Y-69174511D02*
X103069171Y-69031654D01*
X103069171Y-70960226D02*
X103854885Y-70960226D01*
X103854885Y-70960226D02*
X103997742Y-70888797D01*
X103997742Y-70888797D02*
X104069171Y-70745940D01*
X104069171Y-70745940D02*
X104069171Y-70460226D01*
X104069171Y-70460226D02*
X103997742Y-70317368D01*
X103140600Y-70960226D02*
X103069171Y-70817368D01*
X103069171Y-70817368D02*
X103069171Y-70460226D01*
X103069171Y-70460226D02*
X103140600Y-70317368D01*
X103140600Y-70317368D02*
X103283457Y-70245940D01*
X103283457Y-70245940D02*
X103426314Y-70245940D01*
X103426314Y-70245940D02*
X103569171Y-70317368D01*
X103569171Y-70317368D02*
X103640600Y-70460226D01*
X103640600Y-70460226D02*
X103640600Y-70817368D01*
X103640600Y-70817368D02*
X103712028Y-70960226D01*
X104069171Y-71674511D02*
X103069171Y-71674511D01*
X103926314Y-71674511D02*
X103997742Y-71745940D01*
X103997742Y-71745940D02*
X104069171Y-71888797D01*
X104069171Y-71888797D02*
X104069171Y-72103083D01*
X104069171Y-72103083D02*
X103997742Y-72245940D01*
X103997742Y-72245940D02*
X103854885Y-72317369D01*
X103854885Y-72317369D02*
X103069171Y-72317369D01*
X104069171Y-73674512D02*
X103069171Y-73674512D01*
X104069171Y-73031654D02*
X103283457Y-73031654D01*
X103283457Y-73031654D02*
X103140600Y-73103083D01*
X103140600Y-73103083D02*
X103069171Y-73245940D01*
X103069171Y-73245940D02*
X103069171Y-73460226D01*
X103069171Y-73460226D02*
X103140600Y-73603083D01*
X103140600Y-73603083D02*
X103212028Y-73674512D01*
X103069171Y-75031655D02*
X103854885Y-75031655D01*
X103854885Y-75031655D02*
X103997742Y-74960226D01*
X103997742Y-74960226D02*
X104069171Y-74817369D01*
X104069171Y-74817369D02*
X104069171Y-74531655D01*
X104069171Y-74531655D02*
X103997742Y-74388797D01*
X103140600Y-75031655D02*
X103069171Y-74888797D01*
X103069171Y-74888797D02*
X103069171Y-74531655D01*
X103069171Y-74531655D02*
X103140600Y-74388797D01*
X103140600Y-74388797D02*
X103283457Y-74317369D01*
X103283457Y-74317369D02*
X103426314Y-74317369D01*
X103426314Y-74317369D02*
X103569171Y-74388797D01*
X103569171Y-74388797D02*
X103640600Y-74531655D01*
X103640600Y-74531655D02*
X103640600Y-74888797D01*
X103640600Y-74888797D02*
X103712028Y-75031655D01*
X103069171Y-75745940D02*
X104069171Y-75745940D01*
X103783457Y-75745940D02*
X103926314Y-75817369D01*
X103926314Y-75817369D02*
X103997742Y-75888798D01*
X103997742Y-75888798D02*
X104069171Y-76031655D01*
X104069171Y-76031655D02*
X104069171Y-76174512D01*
X104069171Y-76531654D02*
X103069171Y-76888797D01*
X104069171Y-77245940D02*
X103069171Y-76888797D01*
X103069171Y-76888797D02*
X102712028Y-76745940D01*
X102712028Y-76745940D02*
X102640600Y-76674511D01*
X102640600Y-76674511D02*
X102569171Y-76531654D01*
X104426314Y-78888797D02*
X104497742Y-78960225D01*
X104497742Y-78960225D02*
X104569171Y-79103083D01*
X104569171Y-79103083D02*
X104569171Y-79460225D01*
X104569171Y-79460225D02*
X104497742Y-79603083D01*
X104497742Y-79603083D02*
X104426314Y-79674511D01*
X104426314Y-79674511D02*
X104283457Y-79745940D01*
X104283457Y-79745940D02*
X104140600Y-79745940D01*
X104140600Y-79745940D02*
X103926314Y-79674511D01*
X103926314Y-79674511D02*
X103069171Y-78817368D01*
X103069171Y-78817368D02*
X103069171Y-79745940D01*
X104569171Y-80674511D02*
X104569171Y-80817368D01*
X104569171Y-80817368D02*
X104497742Y-80960225D01*
X104497742Y-80960225D02*
X104426314Y-81031654D01*
X104426314Y-81031654D02*
X104283457Y-81103082D01*
X104283457Y-81103082D02*
X103997742Y-81174511D01*
X103997742Y-81174511D02*
X103640600Y-81174511D01*
X103640600Y-81174511D02*
X103354885Y-81103082D01*
X103354885Y-81103082D02*
X103212028Y-81031654D01*
X103212028Y-81031654D02*
X103140600Y-80960225D01*
X103140600Y-80960225D02*
X103069171Y-80817368D01*
X103069171Y-80817368D02*
X103069171Y-80674511D01*
X103069171Y-80674511D02*
X103140600Y-80531654D01*
X103140600Y-80531654D02*
X103212028Y-80460225D01*
X103212028Y-80460225D02*
X103354885Y-80388796D01*
X103354885Y-80388796D02*
X103640600Y-80317368D01*
X103640600Y-80317368D02*
X103997742Y-80317368D01*
X103997742Y-80317368D02*
X104283457Y-80388796D01*
X104283457Y-80388796D02*
X104426314Y-80460225D01*
X104426314Y-80460225D02*
X104497742Y-80531654D01*
X104497742Y-80531654D02*
X104569171Y-80674511D01*
X104426314Y-81745939D02*
X104497742Y-81817367D01*
X104497742Y-81817367D02*
X104569171Y-81960225D01*
X104569171Y-81960225D02*
X104569171Y-82317367D01*
X104569171Y-82317367D02*
X104497742Y-82460225D01*
X104497742Y-82460225D02*
X104426314Y-82531653D01*
X104426314Y-82531653D02*
X104283457Y-82603082D01*
X104283457Y-82603082D02*
X104140600Y-82603082D01*
X104140600Y-82603082D02*
X103926314Y-82531653D01*
X103926314Y-82531653D02*
X103069171Y-81674510D01*
X103069171Y-81674510D02*
X103069171Y-82603082D01*
X104569171Y-83960224D02*
X104569171Y-83245938D01*
X104569171Y-83245938D02*
X103854885Y-83174510D01*
X103854885Y-83174510D02*
X103926314Y-83245938D01*
X103926314Y-83245938D02*
X103997742Y-83388796D01*
X103997742Y-83388796D02*
X103997742Y-83745938D01*
X103997742Y-83745938D02*
X103926314Y-83888796D01*
X103926314Y-83888796D02*
X103854885Y-83960224D01*
X103854885Y-83960224D02*
X103712028Y-84031653D01*
X103712028Y-84031653D02*
X103354885Y-84031653D01*
X103354885Y-84031653D02*
X103212028Y-83960224D01*
X103212028Y-83960224D02*
X103140600Y-83888796D01*
X103140600Y-83888796D02*
X103069171Y-83745938D01*
X103069171Y-83745938D02*
X103069171Y-83388796D01*
X103069171Y-83388796D02*
X103140600Y-83245938D01*
X103140600Y-83245938D02*
X103212028Y-83174510D01*
D10*
X154869819Y-78091792D02*
X154393628Y-78425125D01*
X154869819Y-78663220D02*
X153869819Y-78663220D01*
X153869819Y-78663220D02*
X153869819Y-78282268D01*
X153869819Y-78282268D02*
X153917438Y-78187030D01*
X153917438Y-78187030D02*
X153965057Y-78139411D01*
X153965057Y-78139411D02*
X154060295Y-78091792D01*
X154060295Y-78091792D02*
X154203152Y-78091792D01*
X154203152Y-78091792D02*
X154298390Y-78139411D01*
X154298390Y-78139411D02*
X154346009Y-78187030D01*
X154346009Y-78187030D02*
X154393628Y-78282268D01*
X154393628Y-78282268D02*
X154393628Y-78663220D01*
X153869819Y-77806077D02*
X153869819Y-77234649D01*
X154869819Y-77520363D02*
X153869819Y-77520363D01*
X154869819Y-76329887D02*
X154393628Y-76663220D01*
X154869819Y-76901315D02*
X153869819Y-76901315D01*
X153869819Y-76901315D02*
X153869819Y-76520363D01*
X153869819Y-76520363D02*
X153917438Y-76425125D01*
X153917438Y-76425125D02*
X153965057Y-76377506D01*
X153965057Y-76377506D02*
X154060295Y-76329887D01*
X154060295Y-76329887D02*
X154203152Y-76329887D01*
X154203152Y-76329887D02*
X154298390Y-76377506D01*
X154298390Y-76377506D02*
X154346009Y-76425125D01*
X154346009Y-76425125D02*
X154393628Y-76520363D01*
X154393628Y-76520363D02*
X154393628Y-76901315D01*
X154393628Y-75710839D02*
X154869819Y-75710839D01*
X153869819Y-76044172D02*
X154393628Y-75710839D01*
X154393628Y-75710839D02*
X153869819Y-75377506D01*
X154346009Y-74282267D02*
X154346009Y-73948934D01*
X154869819Y-73806077D02*
X154869819Y-74282267D01*
X154869819Y-74282267D02*
X153869819Y-74282267D01*
X153869819Y-74282267D02*
X153869819Y-73806077D01*
X154869819Y-73377505D02*
X153869819Y-73377505D01*
X153869819Y-73377505D02*
X154869819Y-72806077D01*
X154869819Y-72806077D02*
X153869819Y-72806077D01*
X154774580Y-71758458D02*
X154822200Y-71806077D01*
X154822200Y-71806077D02*
X154869819Y-71948934D01*
X154869819Y-71948934D02*
X154869819Y-72044172D01*
X154869819Y-72044172D02*
X154822200Y-72187029D01*
X154822200Y-72187029D02*
X154726961Y-72282267D01*
X154726961Y-72282267D02*
X154631723Y-72329886D01*
X154631723Y-72329886D02*
X154441247Y-72377505D01*
X154441247Y-72377505D02*
X154298390Y-72377505D01*
X154298390Y-72377505D02*
X154107914Y-72329886D01*
X154107914Y-72329886D02*
X154012676Y-72282267D01*
X154012676Y-72282267D02*
X153917438Y-72187029D01*
X153917438Y-72187029D02*
X153869819Y-72044172D01*
X153869819Y-72044172D02*
X153869819Y-71948934D01*
X153869819Y-71948934D02*
X153917438Y-71806077D01*
X153917438Y-71806077D02*
X153965057Y-71758458D01*
X163869819Y-63663220D02*
X162869819Y-63663220D01*
X162869819Y-63663220D02*
X162869819Y-63425125D01*
X162869819Y-63425125D02*
X162917438Y-63282268D01*
X162917438Y-63282268D02*
X163012676Y-63187030D01*
X163012676Y-63187030D02*
X163107914Y-63139411D01*
X163107914Y-63139411D02*
X163298390Y-63091792D01*
X163298390Y-63091792D02*
X163441247Y-63091792D01*
X163441247Y-63091792D02*
X163631723Y-63139411D01*
X163631723Y-63139411D02*
X163726961Y-63187030D01*
X163726961Y-63187030D02*
X163822200Y-63282268D01*
X163822200Y-63282268D02*
X163869819Y-63425125D01*
X163869819Y-63425125D02*
X163869819Y-63663220D01*
X163584104Y-62710839D02*
X163584104Y-62234649D01*
X163869819Y-62806077D02*
X162869819Y-62472744D01*
X162869819Y-62472744D02*
X163869819Y-62139411D01*
X162869819Y-61948934D02*
X162869819Y-61377506D01*
X163869819Y-61663220D02*
X162869819Y-61663220D01*
X163584104Y-61091791D02*
X163584104Y-60615601D01*
X163869819Y-61187029D02*
X162869819Y-60853696D01*
X162869819Y-60853696D02*
X163869819Y-60520363D01*
D11*
X147554510Y-117729400D02*
X148697368Y-117729400D01*
D10*
X154431009Y-100238095D02*
X154478628Y-100095238D01*
X154478628Y-100095238D02*
X154526247Y-100047619D01*
X154526247Y-100047619D02*
X154621485Y-100000000D01*
X154621485Y-100000000D02*
X154764342Y-100000000D01*
X154764342Y-100000000D02*
X154859580Y-100047619D01*
X154859580Y-100047619D02*
X154907200Y-100095238D01*
X154907200Y-100095238D02*
X154954819Y-100190476D01*
X154954819Y-100190476D02*
X154954819Y-100571428D01*
X154954819Y-100571428D02*
X153954819Y-100571428D01*
X153954819Y-100571428D02*
X153954819Y-100238095D01*
X153954819Y-100238095D02*
X154002438Y-100142857D01*
X154002438Y-100142857D02*
X154050057Y-100095238D01*
X154050057Y-100095238D02*
X154145295Y-100047619D01*
X154145295Y-100047619D02*
X154240533Y-100047619D01*
X154240533Y-100047619D02*
X154335771Y-100095238D01*
X154335771Y-100095238D02*
X154383390Y-100142857D01*
X154383390Y-100142857D02*
X154431009Y-100238095D01*
X154431009Y-100238095D02*
X154431009Y-100571428D01*
X153954819Y-99571428D02*
X154764342Y-99571428D01*
X154764342Y-99571428D02*
X154859580Y-99523809D01*
X154859580Y-99523809D02*
X154907200Y-99476190D01*
X154907200Y-99476190D02*
X154954819Y-99380952D01*
X154954819Y-99380952D02*
X154954819Y-99190476D01*
X154954819Y-99190476D02*
X154907200Y-99095238D01*
X154907200Y-99095238D02*
X154859580Y-99047619D01*
X154859580Y-99047619D02*
X154764342Y-99000000D01*
X154764342Y-99000000D02*
X153954819Y-99000000D01*
X154431009Y-98190476D02*
X154431009Y-98523809D01*
X154954819Y-98523809D02*
X153954819Y-98523809D01*
X153954819Y-98523809D02*
X153954819Y-98047619D01*
X153954819Y-96999999D02*
X153954819Y-96380952D01*
X153954819Y-96380952D02*
X154335771Y-96714285D01*
X154335771Y-96714285D02*
X154335771Y-96571428D01*
X154335771Y-96571428D02*
X154383390Y-96476190D01*
X154383390Y-96476190D02*
X154431009Y-96428571D01*
X154431009Y-96428571D02*
X154526247Y-96380952D01*
X154526247Y-96380952D02*
X154764342Y-96380952D01*
X154764342Y-96380952D02*
X154859580Y-96428571D01*
X154859580Y-96428571D02*
X154907200Y-96476190D01*
X154907200Y-96476190D02*
X154954819Y-96571428D01*
X154954819Y-96571428D02*
X154954819Y-96857142D01*
X154954819Y-96857142D02*
X154907200Y-96952380D01*
X154907200Y-96952380D02*
X154859580Y-96999999D01*
X107269523Y-113954819D02*
X106793333Y-113954819D01*
X106793333Y-113954819D02*
X106793333Y-112954819D01*
X118174285Y-113954819D02*
X117840952Y-113478628D01*
X117602857Y-113954819D02*
X117602857Y-112954819D01*
X117602857Y-112954819D02*
X117983809Y-112954819D01*
X117983809Y-112954819D02*
X118079047Y-113002438D01*
X118079047Y-113002438D02*
X118126666Y-113050057D01*
X118126666Y-113050057D02*
X118174285Y-113145295D01*
X118174285Y-113145295D02*
X118174285Y-113288152D01*
X118174285Y-113288152D02*
X118126666Y-113383390D01*
X118126666Y-113383390D02*
X118079047Y-113431009D01*
X118079047Y-113431009D02*
X117983809Y-113478628D01*
X117983809Y-113478628D02*
X117602857Y-113478628D01*
X154869819Y-68687030D02*
X154869819Y-69163220D01*
X154869819Y-69163220D02*
X153869819Y-69163220D01*
X154346009Y-68353696D02*
X154346009Y-68020363D01*
X154869819Y-67877506D02*
X154869819Y-68353696D01*
X154869819Y-68353696D02*
X153869819Y-68353696D01*
X153869819Y-68353696D02*
X153869819Y-67877506D01*
X154869819Y-67448934D02*
X153869819Y-67448934D01*
X153869819Y-67448934D02*
X153869819Y-67210839D01*
X153869819Y-67210839D02*
X153917438Y-67067982D01*
X153917438Y-67067982D02*
X154012676Y-66972744D01*
X154012676Y-66972744D02*
X154107914Y-66925125D01*
X154107914Y-66925125D02*
X154298390Y-66877506D01*
X154298390Y-66877506D02*
X154441247Y-66877506D01*
X154441247Y-66877506D02*
X154631723Y-66925125D01*
X154631723Y-66925125D02*
X154726961Y-66972744D01*
X154726961Y-66972744D02*
X154822200Y-67067982D01*
X154822200Y-67067982D02*
X154869819Y-67210839D01*
X154869819Y-67210839D02*
X154869819Y-67448934D01*
X154822200Y-65734648D02*
X154869819Y-65591791D01*
X154869819Y-65591791D02*
X154869819Y-65353696D01*
X154869819Y-65353696D02*
X154822200Y-65258458D01*
X154822200Y-65258458D02*
X154774580Y-65210839D01*
X154774580Y-65210839D02*
X154679342Y-65163220D01*
X154679342Y-65163220D02*
X154584104Y-65163220D01*
X154584104Y-65163220D02*
X154488866Y-65210839D01*
X154488866Y-65210839D02*
X154441247Y-65258458D01*
X154441247Y-65258458D02*
X154393628Y-65353696D01*
X154393628Y-65353696D02*
X154346009Y-65544172D01*
X154346009Y-65544172D02*
X154298390Y-65639410D01*
X154298390Y-65639410D02*
X154250771Y-65687029D01*
X154250771Y-65687029D02*
X154155533Y-65734648D01*
X154155533Y-65734648D02*
X154060295Y-65734648D01*
X154060295Y-65734648D02*
X153965057Y-65687029D01*
X153965057Y-65687029D02*
X153917438Y-65639410D01*
X153917438Y-65639410D02*
X153869819Y-65544172D01*
X153869819Y-65544172D02*
X153869819Y-65306077D01*
X153869819Y-65306077D02*
X153917438Y-65163220D01*
X153869819Y-64877505D02*
X153869819Y-64306077D01*
X154869819Y-64591791D02*
X153869819Y-64591791D01*
X154869819Y-63401315D02*
X154393628Y-63734648D01*
X154869819Y-63972743D02*
X153869819Y-63972743D01*
X153869819Y-63972743D02*
X153869819Y-63591791D01*
X153869819Y-63591791D02*
X153917438Y-63496553D01*
X153917438Y-63496553D02*
X153965057Y-63448934D01*
X153965057Y-63448934D02*
X154060295Y-63401315D01*
X154060295Y-63401315D02*
X154203152Y-63401315D01*
X154203152Y-63401315D02*
X154298390Y-63448934D01*
X154298390Y-63448934D02*
X154346009Y-63496553D01*
X154346009Y-63496553D02*
X154393628Y-63591791D01*
X154393628Y-63591791D02*
X154393628Y-63972743D01*
X154869819Y-62972743D02*
X153869819Y-62972743D01*
X154869819Y-62496553D02*
X153869819Y-62496553D01*
X153869819Y-62496553D02*
X153869819Y-62115601D01*
X153869819Y-62115601D02*
X153917438Y-62020363D01*
X153917438Y-62020363D02*
X153965057Y-61972744D01*
X153965057Y-61972744D02*
X154060295Y-61925125D01*
X154060295Y-61925125D02*
X154203152Y-61925125D01*
X154203152Y-61925125D02*
X154298390Y-61972744D01*
X154298390Y-61972744D02*
X154346009Y-62020363D01*
X154346009Y-62020363D02*
X154393628Y-62115601D01*
X154393628Y-62115601D02*
X154393628Y-62496553D01*
X151357142Y-118954819D02*
X150880952Y-118954819D01*
X150880952Y-118954819D02*
X150880952Y-117954819D01*
X151690476Y-118431009D02*
X152023809Y-118431009D01*
X152166666Y-118954819D02*
X151690476Y-118954819D01*
X151690476Y-118954819D02*
X151690476Y-117954819D01*
X151690476Y-117954819D02*
X152166666Y-117954819D01*
X152595238Y-118954819D02*
X152595238Y-117954819D01*
X152595238Y-117954819D02*
X152833333Y-117954819D01*
X152833333Y-117954819D02*
X152976190Y-118002438D01*
X152976190Y-118002438D02*
X153071428Y-118097676D01*
X153071428Y-118097676D02*
X153119047Y-118192914D01*
X153119047Y-118192914D02*
X153166666Y-118383390D01*
X153166666Y-118383390D02*
X153166666Y-118526247D01*
X153166666Y-118526247D02*
X153119047Y-118716723D01*
X153119047Y-118716723D02*
X153071428Y-118811961D01*
X153071428Y-118811961D02*
X152976190Y-118907200D01*
X152976190Y-118907200D02*
X152833333Y-118954819D01*
X152833333Y-118954819D02*
X152595238Y-118954819D01*
X163119048Y-69073866D02*
X163880953Y-69073866D01*
X163500000Y-69454819D02*
X163500000Y-68692914D01*
X154431009Y-92738095D02*
X154478628Y-92595238D01*
X154478628Y-92595238D02*
X154526247Y-92547619D01*
X154526247Y-92547619D02*
X154621485Y-92500000D01*
X154621485Y-92500000D02*
X154764342Y-92500000D01*
X154764342Y-92500000D02*
X154859580Y-92547619D01*
X154859580Y-92547619D02*
X154907200Y-92595238D01*
X154907200Y-92595238D02*
X154954819Y-92690476D01*
X154954819Y-92690476D02*
X154954819Y-93071428D01*
X154954819Y-93071428D02*
X153954819Y-93071428D01*
X153954819Y-93071428D02*
X153954819Y-92738095D01*
X153954819Y-92738095D02*
X154002438Y-92642857D01*
X154002438Y-92642857D02*
X154050057Y-92595238D01*
X154050057Y-92595238D02*
X154145295Y-92547619D01*
X154145295Y-92547619D02*
X154240533Y-92547619D01*
X154240533Y-92547619D02*
X154335771Y-92595238D01*
X154335771Y-92595238D02*
X154383390Y-92642857D01*
X154383390Y-92642857D02*
X154431009Y-92738095D01*
X154431009Y-92738095D02*
X154431009Y-93071428D01*
X153954819Y-92071428D02*
X154764342Y-92071428D01*
X154764342Y-92071428D02*
X154859580Y-92023809D01*
X154859580Y-92023809D02*
X154907200Y-91976190D01*
X154907200Y-91976190D02*
X154954819Y-91880952D01*
X154954819Y-91880952D02*
X154954819Y-91690476D01*
X154954819Y-91690476D02*
X154907200Y-91595238D01*
X154907200Y-91595238D02*
X154859580Y-91547619D01*
X154859580Y-91547619D02*
X154764342Y-91500000D01*
X154764342Y-91500000D02*
X153954819Y-91500000D01*
X154431009Y-90690476D02*
X154431009Y-91023809D01*
X154954819Y-91023809D02*
X153954819Y-91023809D01*
X153954819Y-91023809D02*
X153954819Y-90547619D01*
X154288152Y-88976190D02*
X154954819Y-88976190D01*
X153907200Y-89214285D02*
X154621485Y-89452380D01*
X154621485Y-89452380D02*
X154621485Y-88833333D01*
X154907200Y-104690475D02*
X154954819Y-104547618D01*
X154954819Y-104547618D02*
X154954819Y-104309523D01*
X154954819Y-104309523D02*
X154907200Y-104214285D01*
X154907200Y-104214285D02*
X154859580Y-104166666D01*
X154859580Y-104166666D02*
X154764342Y-104119047D01*
X154764342Y-104119047D02*
X154669104Y-104119047D01*
X154669104Y-104119047D02*
X154573866Y-104166666D01*
X154573866Y-104166666D02*
X154526247Y-104214285D01*
X154526247Y-104214285D02*
X154478628Y-104309523D01*
X154478628Y-104309523D02*
X154431009Y-104499999D01*
X154431009Y-104499999D02*
X154383390Y-104595237D01*
X154383390Y-104595237D02*
X154335771Y-104642856D01*
X154335771Y-104642856D02*
X154240533Y-104690475D01*
X154240533Y-104690475D02*
X154145295Y-104690475D01*
X154145295Y-104690475D02*
X154050057Y-104642856D01*
X154050057Y-104642856D02*
X154002438Y-104595237D01*
X154002438Y-104595237D02*
X153954819Y-104499999D01*
X153954819Y-104499999D02*
X153954819Y-104261904D01*
X153954819Y-104261904D02*
X154002438Y-104119047D01*
X154859580Y-103119047D02*
X154907200Y-103166666D01*
X154907200Y-103166666D02*
X154954819Y-103309523D01*
X154954819Y-103309523D02*
X154954819Y-103404761D01*
X154954819Y-103404761D02*
X154907200Y-103547618D01*
X154907200Y-103547618D02*
X154811961Y-103642856D01*
X154811961Y-103642856D02*
X154716723Y-103690475D01*
X154716723Y-103690475D02*
X154526247Y-103738094D01*
X154526247Y-103738094D02*
X154383390Y-103738094D01*
X154383390Y-103738094D02*
X154192914Y-103690475D01*
X154192914Y-103690475D02*
X154097676Y-103642856D01*
X154097676Y-103642856D02*
X154002438Y-103547618D01*
X154002438Y-103547618D02*
X153954819Y-103404761D01*
X153954819Y-103404761D02*
X153954819Y-103309523D01*
X153954819Y-103309523D02*
X154002438Y-103166666D01*
X154002438Y-103166666D02*
X154050057Y-103119047D01*
X154954819Y-102214285D02*
X154954819Y-102690475D01*
X154954819Y-102690475D02*
X153954819Y-102690475D01*
X163119048Y-72073866D02*
X163880953Y-72073866D01*
X163500000Y-72454819D02*
X163500000Y-71692914D01*
X141476190Y-118669104D02*
X141952380Y-118669104D01*
X141380952Y-118954819D02*
X141714285Y-117954819D01*
X141714285Y-117954819D02*
X142047618Y-118954819D01*
X142904761Y-118954819D02*
X142333333Y-118954819D01*
X142619047Y-118954819D02*
X142619047Y-117954819D01*
X142619047Y-117954819D02*
X142523809Y-118097676D01*
X142523809Y-118097676D02*
X142428571Y-118192914D01*
X142428571Y-118192914D02*
X142333333Y-118240533D01*
X143095238Y-119050057D02*
X143857142Y-119050057D01*
X144285714Y-117954819D02*
X144476190Y-117954819D01*
X144476190Y-117954819D02*
X144571428Y-118002438D01*
X144571428Y-118002438D02*
X144666666Y-118097676D01*
X144666666Y-118097676D02*
X144714285Y-118288152D01*
X144714285Y-118288152D02*
X144714285Y-118621485D01*
X144714285Y-118621485D02*
X144666666Y-118811961D01*
X144666666Y-118811961D02*
X144571428Y-118907200D01*
X144571428Y-118907200D02*
X144476190Y-118954819D01*
X144476190Y-118954819D02*
X144285714Y-118954819D01*
X144285714Y-118954819D02*
X144190476Y-118907200D01*
X144190476Y-118907200D02*
X144095238Y-118811961D01*
X144095238Y-118811961D02*
X144047619Y-118621485D01*
X144047619Y-118621485D02*
X144047619Y-118288152D01*
X144047619Y-118288152D02*
X144095238Y-118097676D01*
X144095238Y-118097676D02*
X144190476Y-118002438D01*
X144190476Y-118002438D02*
X144285714Y-117954819D01*
X145142857Y-117954819D02*
X145142857Y-118764342D01*
X145142857Y-118764342D02*
X145190476Y-118859580D01*
X145190476Y-118859580D02*
X145238095Y-118907200D01*
X145238095Y-118907200D02*
X145333333Y-118954819D01*
X145333333Y-118954819D02*
X145523809Y-118954819D01*
X145523809Y-118954819D02*
X145619047Y-118907200D01*
X145619047Y-118907200D02*
X145666666Y-118859580D01*
X145666666Y-118859580D02*
X145714285Y-118764342D01*
X145714285Y-118764342D02*
X145714285Y-117954819D01*
X146047619Y-117954819D02*
X146619047Y-117954819D01*
X146333333Y-118954819D02*
X146333333Y-117954819D01*
X163822200Y-85210839D02*
X163869819Y-85067982D01*
X163869819Y-85067982D02*
X163869819Y-84829887D01*
X163869819Y-84829887D02*
X163822200Y-84734649D01*
X163822200Y-84734649D02*
X163774580Y-84687030D01*
X163774580Y-84687030D02*
X163679342Y-84639411D01*
X163679342Y-84639411D02*
X163584104Y-84639411D01*
X163584104Y-84639411D02*
X163488866Y-84687030D01*
X163488866Y-84687030D02*
X163441247Y-84734649D01*
X163441247Y-84734649D02*
X163393628Y-84829887D01*
X163393628Y-84829887D02*
X163346009Y-85020363D01*
X163346009Y-85020363D02*
X163298390Y-85115601D01*
X163298390Y-85115601D02*
X163250771Y-85163220D01*
X163250771Y-85163220D02*
X163155533Y-85210839D01*
X163155533Y-85210839D02*
X163060295Y-85210839D01*
X163060295Y-85210839D02*
X162965057Y-85163220D01*
X162965057Y-85163220D02*
X162917438Y-85115601D01*
X162917438Y-85115601D02*
X162869819Y-85020363D01*
X162869819Y-85020363D02*
X162869819Y-84782268D01*
X162869819Y-84782268D02*
X162917438Y-84639411D01*
X162869819Y-84306077D02*
X163869819Y-84067982D01*
X163869819Y-84067982D02*
X163155533Y-83877506D01*
X163155533Y-83877506D02*
X163869819Y-83687030D01*
X163869819Y-83687030D02*
X162869819Y-83448935D01*
D11*
X139054510Y-117729400D02*
X140197368Y-117729400D01*
D10*
X163954819Y-106976189D02*
X162954819Y-106976189D01*
X163050057Y-106547618D02*
X163002438Y-106499999D01*
X163002438Y-106499999D02*
X162954819Y-106404761D01*
X162954819Y-106404761D02*
X162954819Y-106166666D01*
X162954819Y-106166666D02*
X163002438Y-106071428D01*
X163002438Y-106071428D02*
X163050057Y-106023809D01*
X163050057Y-106023809D02*
X163145295Y-105976190D01*
X163145295Y-105976190D02*
X163240533Y-105976190D01*
X163240533Y-105976190D02*
X163383390Y-106023809D01*
X163383390Y-106023809D02*
X163954819Y-106595237D01*
X163954819Y-106595237D02*
X163954819Y-105976190D01*
X163859580Y-104976190D02*
X163907200Y-105023809D01*
X163907200Y-105023809D02*
X163954819Y-105166666D01*
X163954819Y-105166666D02*
X163954819Y-105261904D01*
X163954819Y-105261904D02*
X163907200Y-105404761D01*
X163907200Y-105404761D02*
X163811961Y-105499999D01*
X163811961Y-105499999D02*
X163716723Y-105547618D01*
X163716723Y-105547618D02*
X163526247Y-105595237D01*
X163526247Y-105595237D02*
X163383390Y-105595237D01*
X163383390Y-105595237D02*
X163192914Y-105547618D01*
X163192914Y-105547618D02*
X163097676Y-105499999D01*
X163097676Y-105499999D02*
X163002438Y-105404761D01*
X163002438Y-105404761D02*
X162954819Y-105261904D01*
X162954819Y-105261904D02*
X162954819Y-105166666D01*
X162954819Y-105166666D02*
X163002438Y-105023809D01*
X163002438Y-105023809D02*
X163050057Y-104976190D01*
X127666667Y-117454819D02*
X128285714Y-117454819D01*
X128285714Y-117454819D02*
X127952381Y-117835771D01*
X127952381Y-117835771D02*
X128095238Y-117835771D01*
X128095238Y-117835771D02*
X128190476Y-117883390D01*
X128190476Y-117883390D02*
X128238095Y-117931009D01*
X128238095Y-117931009D02*
X128285714Y-118026247D01*
X128285714Y-118026247D02*
X128285714Y-118264342D01*
X128285714Y-118264342D02*
X128238095Y-118359580D01*
X128238095Y-118359580D02*
X128190476Y-118407200D01*
X128190476Y-118407200D02*
X128095238Y-118454819D01*
X128095238Y-118454819D02*
X127809524Y-118454819D01*
X127809524Y-118454819D02*
X127714286Y-118407200D01*
X127714286Y-118407200D02*
X127666667Y-118359580D01*
X132976190Y-118669104D02*
X133452380Y-118669104D01*
X132880952Y-118954819D02*
X133214285Y-117954819D01*
X133214285Y-117954819D02*
X133547618Y-118954819D01*
X134071428Y-117954819D02*
X134166666Y-117954819D01*
X134166666Y-117954819D02*
X134261904Y-118002438D01*
X134261904Y-118002438D02*
X134309523Y-118050057D01*
X134309523Y-118050057D02*
X134357142Y-118145295D01*
X134357142Y-118145295D02*
X134404761Y-118335771D01*
X134404761Y-118335771D02*
X134404761Y-118573866D01*
X134404761Y-118573866D02*
X134357142Y-118764342D01*
X134357142Y-118764342D02*
X134309523Y-118859580D01*
X134309523Y-118859580D02*
X134261904Y-118907200D01*
X134261904Y-118907200D02*
X134166666Y-118954819D01*
X134166666Y-118954819D02*
X134071428Y-118954819D01*
X134071428Y-118954819D02*
X133976190Y-118907200D01*
X133976190Y-118907200D02*
X133928571Y-118859580D01*
X133928571Y-118859580D02*
X133880952Y-118764342D01*
X133880952Y-118764342D02*
X133833333Y-118573866D01*
X133833333Y-118573866D02*
X133833333Y-118335771D01*
X133833333Y-118335771D02*
X133880952Y-118145295D01*
X133880952Y-118145295D02*
X133928571Y-118050057D01*
X133928571Y-118050057D02*
X133976190Y-118002438D01*
X133976190Y-118002438D02*
X134071428Y-117954819D01*
X134595238Y-119050057D02*
X135357142Y-119050057D01*
X135785714Y-117954819D02*
X135976190Y-117954819D01*
X135976190Y-117954819D02*
X136071428Y-118002438D01*
X136071428Y-118002438D02*
X136166666Y-118097676D01*
X136166666Y-118097676D02*
X136214285Y-118288152D01*
X136214285Y-118288152D02*
X136214285Y-118621485D01*
X136214285Y-118621485D02*
X136166666Y-118811961D01*
X136166666Y-118811961D02*
X136071428Y-118907200D01*
X136071428Y-118907200D02*
X135976190Y-118954819D01*
X135976190Y-118954819D02*
X135785714Y-118954819D01*
X135785714Y-118954819D02*
X135690476Y-118907200D01*
X135690476Y-118907200D02*
X135595238Y-118811961D01*
X135595238Y-118811961D02*
X135547619Y-118621485D01*
X135547619Y-118621485D02*
X135547619Y-118288152D01*
X135547619Y-118288152D02*
X135595238Y-118097676D01*
X135595238Y-118097676D02*
X135690476Y-118002438D01*
X135690476Y-118002438D02*
X135785714Y-117954819D01*
X136642857Y-117954819D02*
X136642857Y-118764342D01*
X136642857Y-118764342D02*
X136690476Y-118859580D01*
X136690476Y-118859580D02*
X136738095Y-118907200D01*
X136738095Y-118907200D02*
X136833333Y-118954819D01*
X136833333Y-118954819D02*
X137023809Y-118954819D01*
X137023809Y-118954819D02*
X137119047Y-118907200D01*
X137119047Y-118907200D02*
X137166666Y-118859580D01*
X137166666Y-118859580D02*
X137214285Y-118764342D01*
X137214285Y-118764342D02*
X137214285Y-117954819D01*
X137547619Y-117954819D02*
X138119047Y-117954819D01*
X137833333Y-118954819D02*
X137833333Y-117954819D01*
X163774580Y-66591792D02*
X163822200Y-66639411D01*
X163822200Y-66639411D02*
X163869819Y-66782268D01*
X163869819Y-66782268D02*
X163869819Y-66877506D01*
X163869819Y-66877506D02*
X163822200Y-67020363D01*
X163822200Y-67020363D02*
X163726961Y-67115601D01*
X163726961Y-67115601D02*
X163631723Y-67163220D01*
X163631723Y-67163220D02*
X163441247Y-67210839D01*
X163441247Y-67210839D02*
X163298390Y-67210839D01*
X163298390Y-67210839D02*
X163107914Y-67163220D01*
X163107914Y-67163220D02*
X163012676Y-67115601D01*
X163012676Y-67115601D02*
X162917438Y-67020363D01*
X162917438Y-67020363D02*
X162869819Y-66877506D01*
X162869819Y-66877506D02*
X162869819Y-66782268D01*
X162869819Y-66782268D02*
X162917438Y-66639411D01*
X162917438Y-66639411D02*
X162965057Y-66591792D01*
X163869819Y-65687030D02*
X163869819Y-66163220D01*
X163869819Y-66163220D02*
X162869819Y-66163220D01*
X163869819Y-65353696D02*
X162869819Y-65353696D01*
X163869819Y-64782268D02*
X163298390Y-65210839D01*
X162869819Y-64782268D02*
X163441247Y-65353696D01*
X163346009Y-75329887D02*
X163393628Y-75187030D01*
X163393628Y-75187030D02*
X163441247Y-75139411D01*
X163441247Y-75139411D02*
X163536485Y-75091792D01*
X163536485Y-75091792D02*
X163679342Y-75091792D01*
X163679342Y-75091792D02*
X163774580Y-75139411D01*
X163774580Y-75139411D02*
X163822200Y-75187030D01*
X163822200Y-75187030D02*
X163869819Y-75282268D01*
X163869819Y-75282268D02*
X163869819Y-75663220D01*
X163869819Y-75663220D02*
X162869819Y-75663220D01*
X162869819Y-75663220D02*
X162869819Y-75329887D01*
X162869819Y-75329887D02*
X162917438Y-75234649D01*
X162917438Y-75234649D02*
X162965057Y-75187030D01*
X162965057Y-75187030D02*
X163060295Y-75139411D01*
X163060295Y-75139411D02*
X163155533Y-75139411D01*
X163155533Y-75139411D02*
X163250771Y-75187030D01*
X163250771Y-75187030D02*
X163298390Y-75234649D01*
X163298390Y-75234649D02*
X163346009Y-75329887D01*
X163346009Y-75329887D02*
X163346009Y-75663220D01*
D11*
X130554510Y-117729400D02*
X131697368Y-117729400D01*
D10*
X132801333Y-106735580D02*
X132753714Y-106783200D01*
X132753714Y-106783200D02*
X132610857Y-106830819D01*
X132610857Y-106830819D02*
X132515619Y-106830819D01*
X132515619Y-106830819D02*
X132372762Y-106783200D01*
X132372762Y-106783200D02*
X132277524Y-106687961D01*
X132277524Y-106687961D02*
X132229905Y-106592723D01*
X132229905Y-106592723D02*
X132182286Y-106402247D01*
X132182286Y-106402247D02*
X132182286Y-106259390D01*
X132182286Y-106259390D02*
X132229905Y-106068914D01*
X132229905Y-106068914D02*
X132277524Y-105973676D01*
X132277524Y-105973676D02*
X132372762Y-105878438D01*
X132372762Y-105878438D02*
X132515619Y-105830819D01*
X132515619Y-105830819D02*
X132610857Y-105830819D01*
X132610857Y-105830819D02*
X132753714Y-105878438D01*
X132753714Y-105878438D02*
X132801333Y-105926057D01*
X133753714Y-106830819D02*
X133182286Y-106830819D01*
X133468000Y-106830819D02*
X133468000Y-105830819D01*
X133468000Y-105830819D02*
X133372762Y-105973676D01*
X133372762Y-105973676D02*
X133277524Y-106068914D01*
X133277524Y-106068914D02*
X133182286Y-106116533D01*
X118929642Y-97270819D02*
X118596309Y-96794628D01*
X118358214Y-97270819D02*
X118358214Y-96270819D01*
X118358214Y-96270819D02*
X118739166Y-96270819D01*
X118739166Y-96270819D02*
X118834404Y-96318438D01*
X118834404Y-96318438D02*
X118882023Y-96366057D01*
X118882023Y-96366057D02*
X118929642Y-96461295D01*
X118929642Y-96461295D02*
X118929642Y-96604152D01*
X118929642Y-96604152D02*
X118882023Y-96699390D01*
X118882023Y-96699390D02*
X118834404Y-96747009D01*
X118834404Y-96747009D02*
X118739166Y-96794628D01*
X118739166Y-96794628D02*
X118358214Y-96794628D01*
X119882023Y-97270819D02*
X119310595Y-97270819D01*
X119596309Y-97270819D02*
X119596309Y-96270819D01*
X119596309Y-96270819D02*
X119501071Y-96413676D01*
X119501071Y-96413676D02*
X119405833Y-96508914D01*
X119405833Y-96508914D02*
X119310595Y-96556533D01*
X120262976Y-96366057D02*
X120310595Y-96318438D01*
X120310595Y-96318438D02*
X120405833Y-96270819D01*
X120405833Y-96270819D02*
X120643928Y-96270819D01*
X120643928Y-96270819D02*
X120739166Y-96318438D01*
X120739166Y-96318438D02*
X120786785Y-96366057D01*
X120786785Y-96366057D02*
X120834404Y-96461295D01*
X120834404Y-96461295D02*
X120834404Y-96556533D01*
X120834404Y-96556533D02*
X120786785Y-96699390D01*
X120786785Y-96699390D02*
X120215357Y-97270819D01*
X120215357Y-97270819D02*
X120834404Y-97270819D01*
X124579142Y-101546819D02*
X124245809Y-101070628D01*
X124007714Y-101546819D02*
X124007714Y-100546819D01*
X124007714Y-100546819D02*
X124388666Y-100546819D01*
X124388666Y-100546819D02*
X124483904Y-100594438D01*
X124483904Y-100594438D02*
X124531523Y-100642057D01*
X124531523Y-100642057D02*
X124579142Y-100737295D01*
X124579142Y-100737295D02*
X124579142Y-100880152D01*
X124579142Y-100880152D02*
X124531523Y-100975390D01*
X124531523Y-100975390D02*
X124483904Y-101023009D01*
X124483904Y-101023009D02*
X124388666Y-101070628D01*
X124388666Y-101070628D02*
X124007714Y-101070628D01*
X125531523Y-101546819D02*
X124960095Y-101546819D01*
X125245809Y-101546819D02*
X125245809Y-100546819D01*
X125245809Y-100546819D02*
X125150571Y-100689676D01*
X125150571Y-100689676D02*
X125055333Y-100784914D01*
X125055333Y-100784914D02*
X124960095Y-100832533D01*
X126007714Y-101546819D02*
X126198190Y-101546819D01*
X126198190Y-101546819D02*
X126293428Y-101499200D01*
X126293428Y-101499200D02*
X126341047Y-101451580D01*
X126341047Y-101451580D02*
X126436285Y-101308723D01*
X126436285Y-101308723D02*
X126483904Y-101118247D01*
X126483904Y-101118247D02*
X126483904Y-100737295D01*
X126483904Y-100737295D02*
X126436285Y-100642057D01*
X126436285Y-100642057D02*
X126388666Y-100594438D01*
X126388666Y-100594438D02*
X126293428Y-100546819D01*
X126293428Y-100546819D02*
X126102952Y-100546819D01*
X126102952Y-100546819D02*
X126007714Y-100594438D01*
X126007714Y-100594438D02*
X125960095Y-100642057D01*
X125960095Y-100642057D02*
X125912476Y-100737295D01*
X125912476Y-100737295D02*
X125912476Y-100975390D01*
X125912476Y-100975390D02*
X125960095Y-101070628D01*
X125960095Y-101070628D02*
X126007714Y-101118247D01*
X126007714Y-101118247D02*
X126102952Y-101165866D01*
X126102952Y-101165866D02*
X126293428Y-101165866D01*
X126293428Y-101165866D02*
X126388666Y-101118247D01*
X126388666Y-101118247D02*
X126436285Y-101070628D01*
X126436285Y-101070628D02*
X126483904Y-100975390D01*
X113429642Y-97270819D02*
X113096309Y-96794628D01*
X112858214Y-97270819D02*
X112858214Y-96270819D01*
X112858214Y-96270819D02*
X113239166Y-96270819D01*
X113239166Y-96270819D02*
X113334404Y-96318438D01*
X113334404Y-96318438D02*
X113382023Y-96366057D01*
X113382023Y-96366057D02*
X113429642Y-96461295D01*
X113429642Y-96461295D02*
X113429642Y-96604152D01*
X113429642Y-96604152D02*
X113382023Y-96699390D01*
X113382023Y-96699390D02*
X113334404Y-96747009D01*
X113334404Y-96747009D02*
X113239166Y-96794628D01*
X113239166Y-96794628D02*
X112858214Y-96794628D01*
X114382023Y-97270819D02*
X113810595Y-97270819D01*
X114096309Y-97270819D02*
X114096309Y-96270819D01*
X114096309Y-96270819D02*
X114001071Y-96413676D01*
X114001071Y-96413676D02*
X113905833Y-96508914D01*
X113905833Y-96508914D02*
X113810595Y-96556533D01*
X114715357Y-96270819D02*
X115334404Y-96270819D01*
X115334404Y-96270819D02*
X115001071Y-96651771D01*
X115001071Y-96651771D02*
X115143928Y-96651771D01*
X115143928Y-96651771D02*
X115239166Y-96699390D01*
X115239166Y-96699390D02*
X115286785Y-96747009D01*
X115286785Y-96747009D02*
X115334404Y-96842247D01*
X115334404Y-96842247D02*
X115334404Y-97080342D01*
X115334404Y-97080342D02*
X115286785Y-97175580D01*
X115286785Y-97175580D02*
X115239166Y-97223200D01*
X115239166Y-97223200D02*
X115143928Y-97270819D01*
X115143928Y-97270819D02*
X114858214Y-97270819D01*
X114858214Y-97270819D02*
X114762976Y-97223200D01*
X114762976Y-97223200D02*
X114715357Y-97175580D01*
X114557819Y-105538666D02*
X114081628Y-105871999D01*
X114557819Y-106110094D02*
X113557819Y-106110094D01*
X113557819Y-106110094D02*
X113557819Y-105729142D01*
X113557819Y-105729142D02*
X113605438Y-105633904D01*
X113605438Y-105633904D02*
X113653057Y-105586285D01*
X113653057Y-105586285D02*
X113748295Y-105538666D01*
X113748295Y-105538666D02*
X113891152Y-105538666D01*
X113891152Y-105538666D02*
X113986390Y-105586285D01*
X113986390Y-105586285D02*
X114034009Y-105633904D01*
X114034009Y-105633904D02*
X114081628Y-105729142D01*
X114081628Y-105729142D02*
X114081628Y-106110094D01*
X113653057Y-105157713D02*
X113605438Y-105110094D01*
X113605438Y-105110094D02*
X113557819Y-105014856D01*
X113557819Y-105014856D02*
X113557819Y-104776761D01*
X113557819Y-104776761D02*
X113605438Y-104681523D01*
X113605438Y-104681523D02*
X113653057Y-104633904D01*
X113653057Y-104633904D02*
X113748295Y-104586285D01*
X113748295Y-104586285D02*
X113843533Y-104586285D01*
X113843533Y-104586285D02*
X113986390Y-104633904D01*
X113986390Y-104633904D02*
X114557819Y-105205332D01*
X114557819Y-105205332D02*
X114557819Y-104586285D01*
X121158810Y-87415819D02*
X121158810Y-86415819D01*
X122206428Y-87320580D02*
X122158809Y-87368200D01*
X122158809Y-87368200D02*
X122015952Y-87415819D01*
X122015952Y-87415819D02*
X121920714Y-87415819D01*
X121920714Y-87415819D02*
X121777857Y-87368200D01*
X121777857Y-87368200D02*
X121682619Y-87272961D01*
X121682619Y-87272961D02*
X121635000Y-87177723D01*
X121635000Y-87177723D02*
X121587381Y-86987247D01*
X121587381Y-86987247D02*
X121587381Y-86844390D01*
X121587381Y-86844390D02*
X121635000Y-86653914D01*
X121635000Y-86653914D02*
X121682619Y-86558676D01*
X121682619Y-86558676D02*
X121777857Y-86463438D01*
X121777857Y-86463438D02*
X121920714Y-86415819D01*
X121920714Y-86415819D02*
X122015952Y-86415819D01*
X122015952Y-86415819D02*
X122158809Y-86463438D01*
X122158809Y-86463438D02*
X122206428Y-86511057D01*
X122587381Y-86511057D02*
X122635000Y-86463438D01*
X122635000Y-86463438D02*
X122730238Y-86415819D01*
X122730238Y-86415819D02*
X122968333Y-86415819D01*
X122968333Y-86415819D02*
X123063571Y-86463438D01*
X123063571Y-86463438D02*
X123111190Y-86511057D01*
X123111190Y-86511057D02*
X123158809Y-86606295D01*
X123158809Y-86606295D02*
X123158809Y-86701533D01*
X123158809Y-86701533D02*
X123111190Y-86844390D01*
X123111190Y-86844390D02*
X122539762Y-87415819D01*
X122539762Y-87415819D02*
X123158809Y-87415819D01*
X119156850Y-83454819D02*
X119156850Y-83692914D01*
X118918755Y-83597676D02*
X119156850Y-83692914D01*
X119156850Y-83692914D02*
X119394945Y-83597676D01*
X119013993Y-83883390D02*
X119156850Y-83692914D01*
X119156850Y-83692914D02*
X119299707Y-83883390D01*
X146381342Y-106330819D02*
X146048009Y-105854628D01*
X145809914Y-106330819D02*
X145809914Y-105330819D01*
X145809914Y-105330819D02*
X146190866Y-105330819D01*
X146190866Y-105330819D02*
X146286104Y-105378438D01*
X146286104Y-105378438D02*
X146333723Y-105426057D01*
X146333723Y-105426057D02*
X146381342Y-105521295D01*
X146381342Y-105521295D02*
X146381342Y-105664152D01*
X146381342Y-105664152D02*
X146333723Y-105759390D01*
X146333723Y-105759390D02*
X146286104Y-105807009D01*
X146286104Y-105807009D02*
X146190866Y-105854628D01*
X146190866Y-105854628D02*
X145809914Y-105854628D01*
X147333723Y-106330819D02*
X146762295Y-106330819D01*
X147048009Y-106330819D02*
X147048009Y-105330819D01*
X147048009Y-105330819D02*
X146952771Y-105473676D01*
X146952771Y-105473676D02*
X146857533Y-105568914D01*
X146857533Y-105568914D02*
X146762295Y-105616533D01*
X148286104Y-106330819D02*
X147714676Y-106330819D01*
X148000390Y-106330819D02*
X148000390Y-105330819D01*
X148000390Y-105330819D02*
X147905152Y-105473676D01*
X147905152Y-105473676D02*
X147809914Y-105568914D01*
X147809914Y-105568914D02*
X147714676Y-105616533D01*
X143587342Y-106734780D02*
X143539723Y-106782400D01*
X143539723Y-106782400D02*
X143396866Y-106830019D01*
X143396866Y-106830019D02*
X143301628Y-106830019D01*
X143301628Y-106830019D02*
X143158771Y-106782400D01*
X143158771Y-106782400D02*
X143063533Y-106687161D01*
X143063533Y-106687161D02*
X143015914Y-106591923D01*
X143015914Y-106591923D02*
X142968295Y-106401447D01*
X142968295Y-106401447D02*
X142968295Y-106258590D01*
X142968295Y-106258590D02*
X143015914Y-106068114D01*
X143015914Y-106068114D02*
X143063533Y-105972876D01*
X143063533Y-105972876D02*
X143158771Y-105877638D01*
X143158771Y-105877638D02*
X143301628Y-105830019D01*
X143301628Y-105830019D02*
X143396866Y-105830019D01*
X143396866Y-105830019D02*
X143539723Y-105877638D01*
X143539723Y-105877638D02*
X143587342Y-105925257D01*
X144539723Y-106830019D02*
X143968295Y-106830019D01*
X144254009Y-106830019D02*
X144254009Y-105830019D01*
X144254009Y-105830019D02*
X144158771Y-105972876D01*
X144158771Y-105972876D02*
X144063533Y-106068114D01*
X144063533Y-106068114D02*
X143968295Y-106115733D01*
X145111152Y-106258590D02*
X145015914Y-106210971D01*
X145015914Y-106210971D02*
X144968295Y-106163352D01*
X144968295Y-106163352D02*
X144920676Y-106068114D01*
X144920676Y-106068114D02*
X144920676Y-106020495D01*
X144920676Y-106020495D02*
X144968295Y-105925257D01*
X144968295Y-105925257D02*
X145015914Y-105877638D01*
X145015914Y-105877638D02*
X145111152Y-105830019D01*
X145111152Y-105830019D02*
X145301628Y-105830019D01*
X145301628Y-105830019D02*
X145396866Y-105877638D01*
X145396866Y-105877638D02*
X145444485Y-105925257D01*
X145444485Y-105925257D02*
X145492104Y-106020495D01*
X145492104Y-106020495D02*
X145492104Y-106068114D01*
X145492104Y-106068114D02*
X145444485Y-106163352D01*
X145444485Y-106163352D02*
X145396866Y-106210971D01*
X145396866Y-106210971D02*
X145301628Y-106258590D01*
X145301628Y-106258590D02*
X145111152Y-106258590D01*
X145111152Y-106258590D02*
X145015914Y-106306209D01*
X145015914Y-106306209D02*
X144968295Y-106353828D01*
X144968295Y-106353828D02*
X144920676Y-106449066D01*
X144920676Y-106449066D02*
X144920676Y-106639542D01*
X144920676Y-106639542D02*
X144968295Y-106734780D01*
X144968295Y-106734780D02*
X145015914Y-106782400D01*
X145015914Y-106782400D02*
X145111152Y-106830019D01*
X145111152Y-106830019D02*
X145301628Y-106830019D01*
X145301628Y-106830019D02*
X145396866Y-106782400D01*
X145396866Y-106782400D02*
X145444485Y-106734780D01*
X145444485Y-106734780D02*
X145492104Y-106639542D01*
X145492104Y-106639542D02*
X145492104Y-106449066D01*
X145492104Y-106449066D02*
X145444485Y-106353828D01*
X145444485Y-106353828D02*
X145396866Y-106306209D01*
X145396866Y-106306209D02*
X145301628Y-106258590D01*
X141857142Y-72609580D02*
X141809523Y-72657200D01*
X141809523Y-72657200D02*
X141666666Y-72704819D01*
X141666666Y-72704819D02*
X141571428Y-72704819D01*
X141571428Y-72704819D02*
X141428571Y-72657200D01*
X141428571Y-72657200D02*
X141333333Y-72561961D01*
X141333333Y-72561961D02*
X141285714Y-72466723D01*
X141285714Y-72466723D02*
X141238095Y-72276247D01*
X141238095Y-72276247D02*
X141238095Y-72133390D01*
X141238095Y-72133390D02*
X141285714Y-71942914D01*
X141285714Y-71942914D02*
X141333333Y-71847676D01*
X141333333Y-71847676D02*
X141428571Y-71752438D01*
X141428571Y-71752438D02*
X141571428Y-71704819D01*
X141571428Y-71704819D02*
X141666666Y-71704819D01*
X141666666Y-71704819D02*
X141809523Y-71752438D01*
X141809523Y-71752438D02*
X141857142Y-71800057D01*
X142809523Y-72704819D02*
X142238095Y-72704819D01*
X142523809Y-72704819D02*
X142523809Y-71704819D01*
X142523809Y-71704819D02*
X142428571Y-71847676D01*
X142428571Y-71847676D02*
X142333333Y-71942914D01*
X142333333Y-71942914D02*
X142238095Y-71990533D01*
X143142857Y-71704819D02*
X143809523Y-71704819D01*
X143809523Y-71704819D02*
X143380952Y-72704819D01*
X126881580Y-81245666D02*
X126929200Y-81293285D01*
X126929200Y-81293285D02*
X126976819Y-81436142D01*
X126976819Y-81436142D02*
X126976819Y-81531380D01*
X126976819Y-81531380D02*
X126929200Y-81674237D01*
X126929200Y-81674237D02*
X126833961Y-81769475D01*
X126833961Y-81769475D02*
X126738723Y-81817094D01*
X126738723Y-81817094D02*
X126548247Y-81864713D01*
X126548247Y-81864713D02*
X126405390Y-81864713D01*
X126405390Y-81864713D02*
X126214914Y-81817094D01*
X126214914Y-81817094D02*
X126119676Y-81769475D01*
X126119676Y-81769475D02*
X126024438Y-81674237D01*
X126024438Y-81674237D02*
X125976819Y-81531380D01*
X125976819Y-81531380D02*
X125976819Y-81436142D01*
X125976819Y-81436142D02*
X126024438Y-81293285D01*
X126024438Y-81293285D02*
X126072057Y-81245666D01*
X125976819Y-80388523D02*
X125976819Y-80578999D01*
X125976819Y-80578999D02*
X126024438Y-80674237D01*
X126024438Y-80674237D02*
X126072057Y-80721856D01*
X126072057Y-80721856D02*
X126214914Y-80817094D01*
X126214914Y-80817094D02*
X126405390Y-80864713D01*
X126405390Y-80864713D02*
X126786342Y-80864713D01*
X126786342Y-80864713D02*
X126881580Y-80817094D01*
X126881580Y-80817094D02*
X126929200Y-80769475D01*
X126929200Y-80769475D02*
X126976819Y-80674237D01*
X126976819Y-80674237D02*
X126976819Y-80483761D01*
X126976819Y-80483761D02*
X126929200Y-80388523D01*
X126929200Y-80388523D02*
X126881580Y-80340904D01*
X126881580Y-80340904D02*
X126786342Y-80293285D01*
X126786342Y-80293285D02*
X126548247Y-80293285D01*
X126548247Y-80293285D02*
X126453009Y-80340904D01*
X126453009Y-80340904D02*
X126405390Y-80388523D01*
X126405390Y-80388523D02*
X126357771Y-80483761D01*
X126357771Y-80483761D02*
X126357771Y-80674237D01*
X126357771Y-80674237D02*
X126405390Y-80769475D01*
X126405390Y-80769475D02*
X126453009Y-80817094D01*
X126453009Y-80817094D02*
X126548247Y-80864713D01*
X107708980Y-54716666D02*
X107756600Y-54764285D01*
X107756600Y-54764285D02*
X107804219Y-54907142D01*
X107804219Y-54907142D02*
X107804219Y-55002380D01*
X107804219Y-55002380D02*
X107756600Y-55145237D01*
X107756600Y-55145237D02*
X107661361Y-55240475D01*
X107661361Y-55240475D02*
X107566123Y-55288094D01*
X107566123Y-55288094D02*
X107375647Y-55335713D01*
X107375647Y-55335713D02*
X107232790Y-55335713D01*
X107232790Y-55335713D02*
X107042314Y-55288094D01*
X107042314Y-55288094D02*
X106947076Y-55240475D01*
X106947076Y-55240475D02*
X106851838Y-55145237D01*
X106851838Y-55145237D02*
X106804219Y-55002380D01*
X106804219Y-55002380D02*
X106804219Y-54907142D01*
X106804219Y-54907142D02*
X106851838Y-54764285D01*
X106851838Y-54764285D02*
X106899457Y-54716666D01*
X107804219Y-54240475D02*
X107804219Y-54049999D01*
X107804219Y-54049999D02*
X107756600Y-53954761D01*
X107756600Y-53954761D02*
X107708980Y-53907142D01*
X107708980Y-53907142D02*
X107566123Y-53811904D01*
X107566123Y-53811904D02*
X107375647Y-53764285D01*
X107375647Y-53764285D02*
X106994695Y-53764285D01*
X106994695Y-53764285D02*
X106899457Y-53811904D01*
X106899457Y-53811904D02*
X106851838Y-53859523D01*
X106851838Y-53859523D02*
X106804219Y-53954761D01*
X106804219Y-53954761D02*
X106804219Y-54145237D01*
X106804219Y-54145237D02*
X106851838Y-54240475D01*
X106851838Y-54240475D02*
X106899457Y-54288094D01*
X106899457Y-54288094D02*
X106994695Y-54335713D01*
X106994695Y-54335713D02*
X107232790Y-54335713D01*
X107232790Y-54335713D02*
X107328028Y-54288094D01*
X107328028Y-54288094D02*
X107375647Y-54240475D01*
X107375647Y-54240475D02*
X107423266Y-54145237D01*
X107423266Y-54145237D02*
X107423266Y-53954761D01*
X107423266Y-53954761D02*
X107375647Y-53859523D01*
X107375647Y-53859523D02*
X107328028Y-53811904D01*
X107328028Y-53811904D02*
X107232790Y-53764285D01*
X124579142Y-97482819D02*
X124245809Y-97006628D01*
X124007714Y-97482819D02*
X124007714Y-96482819D01*
X124007714Y-96482819D02*
X124388666Y-96482819D01*
X124388666Y-96482819D02*
X124483904Y-96530438D01*
X124483904Y-96530438D02*
X124531523Y-96578057D01*
X124531523Y-96578057D02*
X124579142Y-96673295D01*
X124579142Y-96673295D02*
X124579142Y-96816152D01*
X124579142Y-96816152D02*
X124531523Y-96911390D01*
X124531523Y-96911390D02*
X124483904Y-96959009D01*
X124483904Y-96959009D02*
X124388666Y-97006628D01*
X124388666Y-97006628D02*
X124007714Y-97006628D01*
X125531523Y-97482819D02*
X124960095Y-97482819D01*
X125245809Y-97482819D02*
X125245809Y-96482819D01*
X125245809Y-96482819D02*
X125150571Y-96625676D01*
X125150571Y-96625676D02*
X125055333Y-96720914D01*
X125055333Y-96720914D02*
X124960095Y-96768533D01*
X126102952Y-96911390D02*
X126007714Y-96863771D01*
X126007714Y-96863771D02*
X125960095Y-96816152D01*
X125960095Y-96816152D02*
X125912476Y-96720914D01*
X125912476Y-96720914D02*
X125912476Y-96673295D01*
X125912476Y-96673295D02*
X125960095Y-96578057D01*
X125960095Y-96578057D02*
X126007714Y-96530438D01*
X126007714Y-96530438D02*
X126102952Y-96482819D01*
X126102952Y-96482819D02*
X126293428Y-96482819D01*
X126293428Y-96482819D02*
X126388666Y-96530438D01*
X126388666Y-96530438D02*
X126436285Y-96578057D01*
X126436285Y-96578057D02*
X126483904Y-96673295D01*
X126483904Y-96673295D02*
X126483904Y-96720914D01*
X126483904Y-96720914D02*
X126436285Y-96816152D01*
X126436285Y-96816152D02*
X126388666Y-96863771D01*
X126388666Y-96863771D02*
X126293428Y-96911390D01*
X126293428Y-96911390D02*
X126102952Y-96911390D01*
X126102952Y-96911390D02*
X126007714Y-96959009D01*
X126007714Y-96959009D02*
X125960095Y-97006628D01*
X125960095Y-97006628D02*
X125912476Y-97101866D01*
X125912476Y-97101866D02*
X125912476Y-97292342D01*
X125912476Y-97292342D02*
X125960095Y-97387580D01*
X125960095Y-97387580D02*
X126007714Y-97435200D01*
X126007714Y-97435200D02*
X126102952Y-97482819D01*
X126102952Y-97482819D02*
X126293428Y-97482819D01*
X126293428Y-97482819D02*
X126388666Y-97435200D01*
X126388666Y-97435200D02*
X126436285Y-97387580D01*
X126436285Y-97387580D02*
X126483904Y-97292342D01*
X126483904Y-97292342D02*
X126483904Y-97101866D01*
X126483904Y-97101866D02*
X126436285Y-97006628D01*
X126436285Y-97006628D02*
X126388666Y-96959009D01*
X126388666Y-96959009D02*
X126293428Y-96911390D01*
X141244333Y-101698819D02*
X140911000Y-101222628D01*
X140672905Y-101698819D02*
X140672905Y-100698819D01*
X140672905Y-100698819D02*
X141053857Y-100698819D01*
X141053857Y-100698819D02*
X141149095Y-100746438D01*
X141149095Y-100746438D02*
X141196714Y-100794057D01*
X141196714Y-100794057D02*
X141244333Y-100889295D01*
X141244333Y-100889295D02*
X141244333Y-101032152D01*
X141244333Y-101032152D02*
X141196714Y-101127390D01*
X141196714Y-101127390D02*
X141149095Y-101175009D01*
X141149095Y-101175009D02*
X141053857Y-101222628D01*
X141053857Y-101222628D02*
X140672905Y-101222628D01*
X141720524Y-101698819D02*
X141911000Y-101698819D01*
X141911000Y-101698819D02*
X142006238Y-101651200D01*
X142006238Y-101651200D02*
X142053857Y-101603580D01*
X142053857Y-101603580D02*
X142149095Y-101460723D01*
X142149095Y-101460723D02*
X142196714Y-101270247D01*
X142196714Y-101270247D02*
X142196714Y-100889295D01*
X142196714Y-100889295D02*
X142149095Y-100794057D01*
X142149095Y-100794057D02*
X142101476Y-100746438D01*
X142101476Y-100746438D02*
X142006238Y-100698819D01*
X142006238Y-100698819D02*
X141815762Y-100698819D01*
X141815762Y-100698819D02*
X141720524Y-100746438D01*
X141720524Y-100746438D02*
X141672905Y-100794057D01*
X141672905Y-100794057D02*
X141625286Y-100889295D01*
X141625286Y-100889295D02*
X141625286Y-101127390D01*
X141625286Y-101127390D02*
X141672905Y-101222628D01*
X141672905Y-101222628D02*
X141720524Y-101270247D01*
X141720524Y-101270247D02*
X141815762Y-101317866D01*
X141815762Y-101317866D02*
X142006238Y-101317866D01*
X142006238Y-101317866D02*
X142101476Y-101270247D01*
X142101476Y-101270247D02*
X142149095Y-101222628D01*
X142149095Y-101222628D02*
X142196714Y-101127390D01*
X129212466Y-67614419D02*
X129212466Y-68328704D01*
X129212466Y-68328704D02*
X129164847Y-68471561D01*
X129164847Y-68471561D02*
X129069609Y-68566800D01*
X129069609Y-68566800D02*
X128926752Y-68614419D01*
X128926752Y-68614419D02*
X128831514Y-68614419D01*
X129593419Y-67614419D02*
X130260085Y-67614419D01*
X130260085Y-67614419D02*
X129831514Y-68614419D01*
X140767642Y-106330819D02*
X140434309Y-105854628D01*
X140196214Y-106330819D02*
X140196214Y-105330819D01*
X140196214Y-105330819D02*
X140577166Y-105330819D01*
X140577166Y-105330819D02*
X140672404Y-105378438D01*
X140672404Y-105378438D02*
X140720023Y-105426057D01*
X140720023Y-105426057D02*
X140767642Y-105521295D01*
X140767642Y-105521295D02*
X140767642Y-105664152D01*
X140767642Y-105664152D02*
X140720023Y-105759390D01*
X140720023Y-105759390D02*
X140672404Y-105807009D01*
X140672404Y-105807009D02*
X140577166Y-105854628D01*
X140577166Y-105854628D02*
X140196214Y-105854628D01*
X141720023Y-106330819D02*
X141148595Y-106330819D01*
X141434309Y-106330819D02*
X141434309Y-105330819D01*
X141434309Y-105330819D02*
X141339071Y-105473676D01*
X141339071Y-105473676D02*
X141243833Y-105568914D01*
X141243833Y-105568914D02*
X141148595Y-105616533D01*
X142339071Y-105330819D02*
X142434309Y-105330819D01*
X142434309Y-105330819D02*
X142529547Y-105378438D01*
X142529547Y-105378438D02*
X142577166Y-105426057D01*
X142577166Y-105426057D02*
X142624785Y-105521295D01*
X142624785Y-105521295D02*
X142672404Y-105711771D01*
X142672404Y-105711771D02*
X142672404Y-105949866D01*
X142672404Y-105949866D02*
X142624785Y-106140342D01*
X142624785Y-106140342D02*
X142577166Y-106235580D01*
X142577166Y-106235580D02*
X142529547Y-106283200D01*
X142529547Y-106283200D02*
X142434309Y-106330819D01*
X142434309Y-106330819D02*
X142339071Y-106330819D01*
X142339071Y-106330819D02*
X142243833Y-106283200D01*
X142243833Y-106283200D02*
X142196214Y-106235580D01*
X142196214Y-106235580D02*
X142148595Y-106140342D01*
X142148595Y-106140342D02*
X142100976Y-105949866D01*
X142100976Y-105949866D02*
X142100976Y-105711771D01*
X142100976Y-105711771D02*
X142148595Y-105521295D01*
X142148595Y-105521295D02*
X142196214Y-105426057D01*
X142196214Y-105426057D02*
X142243833Y-105378438D01*
X142243833Y-105378438D02*
X142339071Y-105330819D01*
X130243833Y-106510819D02*
X129910500Y-106034628D01*
X129672405Y-106510819D02*
X129672405Y-105510819D01*
X129672405Y-105510819D02*
X130053357Y-105510819D01*
X130053357Y-105510819D02*
X130148595Y-105558438D01*
X130148595Y-105558438D02*
X130196214Y-105606057D01*
X130196214Y-105606057D02*
X130243833Y-105701295D01*
X130243833Y-105701295D02*
X130243833Y-105844152D01*
X130243833Y-105844152D02*
X130196214Y-105939390D01*
X130196214Y-105939390D02*
X130148595Y-105987009D01*
X130148595Y-105987009D02*
X130053357Y-106034628D01*
X130053357Y-106034628D02*
X129672405Y-106034628D01*
X130577167Y-105510819D02*
X131196214Y-105510819D01*
X131196214Y-105510819D02*
X130862881Y-105891771D01*
X130862881Y-105891771D02*
X131005738Y-105891771D01*
X131005738Y-105891771D02*
X131100976Y-105939390D01*
X131100976Y-105939390D02*
X131148595Y-105987009D01*
X131148595Y-105987009D02*
X131196214Y-106082247D01*
X131196214Y-106082247D02*
X131196214Y-106320342D01*
X131196214Y-106320342D02*
X131148595Y-106415580D01*
X131148595Y-106415580D02*
X131100976Y-106463200D01*
X131100976Y-106463200D02*
X131005738Y-106510819D01*
X131005738Y-106510819D02*
X130720024Y-106510819D01*
X130720024Y-106510819D02*
X130624786Y-106463200D01*
X130624786Y-106463200D02*
X130577167Y-106415580D01*
X123063095Y-71454700D02*
X123205952Y-71502319D01*
X123205952Y-71502319D02*
X123444047Y-71502319D01*
X123444047Y-71502319D02*
X123539285Y-71454700D01*
X123539285Y-71454700D02*
X123586904Y-71407080D01*
X123586904Y-71407080D02*
X123634523Y-71311842D01*
X123634523Y-71311842D02*
X123634523Y-71216604D01*
X123634523Y-71216604D02*
X123586904Y-71121366D01*
X123586904Y-71121366D02*
X123539285Y-71073747D01*
X123539285Y-71073747D02*
X123444047Y-71026128D01*
X123444047Y-71026128D02*
X123253571Y-70978509D01*
X123253571Y-70978509D02*
X123158333Y-70930890D01*
X123158333Y-70930890D02*
X123110714Y-70883271D01*
X123110714Y-70883271D02*
X123063095Y-70788033D01*
X123063095Y-70788033D02*
X123063095Y-70692795D01*
X123063095Y-70692795D02*
X123110714Y-70597557D01*
X123110714Y-70597557D02*
X123158333Y-70549938D01*
X123158333Y-70549938D02*
X123253571Y-70502319D01*
X123253571Y-70502319D02*
X123491666Y-70502319D01*
X123491666Y-70502319D02*
X123634523Y-70549938D01*
X124063095Y-71502319D02*
X124063095Y-70502319D01*
X124063095Y-70502319D02*
X124301190Y-70502319D01*
X124301190Y-70502319D02*
X124444047Y-70549938D01*
X124444047Y-70549938D02*
X124539285Y-70645176D01*
X124539285Y-70645176D02*
X124586904Y-70740414D01*
X124586904Y-70740414D02*
X124634523Y-70930890D01*
X124634523Y-70930890D02*
X124634523Y-71073747D01*
X124634523Y-71073747D02*
X124586904Y-71264223D01*
X124586904Y-71264223D02*
X124539285Y-71359461D01*
X124539285Y-71359461D02*
X124444047Y-71454700D01*
X124444047Y-71454700D02*
X124301190Y-71502319D01*
X124301190Y-71502319D02*
X124063095Y-71502319D01*
X125586904Y-71502319D02*
X125015476Y-71502319D01*
X125301190Y-71502319D02*
X125301190Y-70502319D01*
X125301190Y-70502319D02*
X125205952Y-70645176D01*
X125205952Y-70645176D02*
X125110714Y-70740414D01*
X125110714Y-70740414D02*
X125015476Y-70788033D01*
X114283333Y-87541580D02*
X114235714Y-87589200D01*
X114235714Y-87589200D02*
X114092857Y-87636819D01*
X114092857Y-87636819D02*
X113997619Y-87636819D01*
X113997619Y-87636819D02*
X113854762Y-87589200D01*
X113854762Y-87589200D02*
X113759524Y-87493961D01*
X113759524Y-87493961D02*
X113711905Y-87398723D01*
X113711905Y-87398723D02*
X113664286Y-87208247D01*
X113664286Y-87208247D02*
X113664286Y-87065390D01*
X113664286Y-87065390D02*
X113711905Y-86874914D01*
X113711905Y-86874914D02*
X113759524Y-86779676D01*
X113759524Y-86779676D02*
X113854762Y-86684438D01*
X113854762Y-86684438D02*
X113997619Y-86636819D01*
X113997619Y-86636819D02*
X114092857Y-86636819D01*
X114092857Y-86636819D02*
X114235714Y-86684438D01*
X114235714Y-86684438D02*
X114283333Y-86732057D01*
X115140476Y-86970152D02*
X115140476Y-87636819D01*
X114902381Y-86589200D02*
X114664286Y-87303485D01*
X114664286Y-87303485D02*
X115283333Y-87303485D01*
X108886666Y-57450819D02*
X108886666Y-58165104D01*
X108886666Y-58165104D02*
X108839047Y-58307961D01*
X108839047Y-58307961D02*
X108743809Y-58403200D01*
X108743809Y-58403200D02*
X108600952Y-58450819D01*
X108600952Y-58450819D02*
X108505714Y-58450819D01*
X109791428Y-57450819D02*
X109600952Y-57450819D01*
X109600952Y-57450819D02*
X109505714Y-57498438D01*
X109505714Y-57498438D02*
X109458095Y-57546057D01*
X109458095Y-57546057D02*
X109362857Y-57688914D01*
X109362857Y-57688914D02*
X109315238Y-57879390D01*
X109315238Y-57879390D02*
X109315238Y-58260342D01*
X109315238Y-58260342D02*
X109362857Y-58355580D01*
X109362857Y-58355580D02*
X109410476Y-58403200D01*
X109410476Y-58403200D02*
X109505714Y-58450819D01*
X109505714Y-58450819D02*
X109696190Y-58450819D01*
X109696190Y-58450819D02*
X109791428Y-58403200D01*
X109791428Y-58403200D02*
X109839047Y-58355580D01*
X109839047Y-58355580D02*
X109886666Y-58260342D01*
X109886666Y-58260342D02*
X109886666Y-58022247D01*
X109886666Y-58022247D02*
X109839047Y-57927009D01*
X109839047Y-57927009D02*
X109791428Y-57879390D01*
X109791428Y-57879390D02*
X109696190Y-57831771D01*
X109696190Y-57831771D02*
X109505714Y-57831771D01*
X109505714Y-57831771D02*
X109410476Y-57879390D01*
X109410476Y-57879390D02*
X109362857Y-57927009D01*
X109362857Y-57927009D02*
X109315238Y-58022247D01*
X134868733Y-98752819D02*
X134535400Y-98276628D01*
X134297305Y-98752819D02*
X134297305Y-97752819D01*
X134297305Y-97752819D02*
X134678257Y-97752819D01*
X134678257Y-97752819D02*
X134773495Y-97800438D01*
X134773495Y-97800438D02*
X134821114Y-97848057D01*
X134821114Y-97848057D02*
X134868733Y-97943295D01*
X134868733Y-97943295D02*
X134868733Y-98086152D01*
X134868733Y-98086152D02*
X134821114Y-98181390D01*
X134821114Y-98181390D02*
X134773495Y-98229009D01*
X134773495Y-98229009D02*
X134678257Y-98276628D01*
X134678257Y-98276628D02*
X134297305Y-98276628D01*
X135773495Y-97752819D02*
X135297305Y-97752819D01*
X135297305Y-97752819D02*
X135249686Y-98229009D01*
X135249686Y-98229009D02*
X135297305Y-98181390D01*
X135297305Y-98181390D02*
X135392543Y-98133771D01*
X135392543Y-98133771D02*
X135630638Y-98133771D01*
X135630638Y-98133771D02*
X135725876Y-98181390D01*
X135725876Y-98181390D02*
X135773495Y-98229009D01*
X135773495Y-98229009D02*
X135821114Y-98324247D01*
X135821114Y-98324247D02*
X135821114Y-98562342D01*
X135821114Y-98562342D02*
X135773495Y-98657580D01*
X135773495Y-98657580D02*
X135725876Y-98705200D01*
X135725876Y-98705200D02*
X135630638Y-98752819D01*
X135630638Y-98752819D02*
X135392543Y-98752819D01*
X135392543Y-98752819D02*
X135297305Y-98705200D01*
X135297305Y-98705200D02*
X135249686Y-98657580D01*
X114487580Y-100680857D02*
X114535200Y-100728476D01*
X114535200Y-100728476D02*
X114582819Y-100871333D01*
X114582819Y-100871333D02*
X114582819Y-100966571D01*
X114582819Y-100966571D02*
X114535200Y-101109428D01*
X114535200Y-101109428D02*
X114439961Y-101204666D01*
X114439961Y-101204666D02*
X114344723Y-101252285D01*
X114344723Y-101252285D02*
X114154247Y-101299904D01*
X114154247Y-101299904D02*
X114011390Y-101299904D01*
X114011390Y-101299904D02*
X113820914Y-101252285D01*
X113820914Y-101252285D02*
X113725676Y-101204666D01*
X113725676Y-101204666D02*
X113630438Y-101109428D01*
X113630438Y-101109428D02*
X113582819Y-100966571D01*
X113582819Y-100966571D02*
X113582819Y-100871333D01*
X113582819Y-100871333D02*
X113630438Y-100728476D01*
X113630438Y-100728476D02*
X113678057Y-100680857D01*
X114582819Y-99728476D02*
X114582819Y-100299904D01*
X114582819Y-100014190D02*
X113582819Y-100014190D01*
X113582819Y-100014190D02*
X113725676Y-100109428D01*
X113725676Y-100109428D02*
X113820914Y-100204666D01*
X113820914Y-100204666D02*
X113868533Y-100299904D01*
X113582819Y-99109428D02*
X113582819Y-99014190D01*
X113582819Y-99014190D02*
X113630438Y-98918952D01*
X113630438Y-98918952D02*
X113678057Y-98871333D01*
X113678057Y-98871333D02*
X113773295Y-98823714D01*
X113773295Y-98823714D02*
X113963771Y-98776095D01*
X113963771Y-98776095D02*
X114201866Y-98776095D01*
X114201866Y-98776095D02*
X114392342Y-98823714D01*
X114392342Y-98823714D02*
X114487580Y-98871333D01*
X114487580Y-98871333D02*
X114535200Y-98918952D01*
X114535200Y-98918952D02*
X114582819Y-99014190D01*
X114582819Y-99014190D02*
X114582819Y-99109428D01*
X114582819Y-99109428D02*
X114535200Y-99204666D01*
X114535200Y-99204666D02*
X114487580Y-99252285D01*
X114487580Y-99252285D02*
X114392342Y-99299904D01*
X114392342Y-99299904D02*
X114201866Y-99347523D01*
X114201866Y-99347523D02*
X113963771Y-99347523D01*
X113963771Y-99347523D02*
X113773295Y-99299904D01*
X113773295Y-99299904D02*
X113678057Y-99252285D01*
X113678057Y-99252285D02*
X113630438Y-99204666D01*
X113630438Y-99204666D02*
X113582819Y-99109428D01*
X114283333Y-80175580D02*
X114235714Y-80223200D01*
X114235714Y-80223200D02*
X114092857Y-80270819D01*
X114092857Y-80270819D02*
X113997619Y-80270819D01*
X113997619Y-80270819D02*
X113854762Y-80223200D01*
X113854762Y-80223200D02*
X113759524Y-80127961D01*
X113759524Y-80127961D02*
X113711905Y-80032723D01*
X113711905Y-80032723D02*
X113664286Y-79842247D01*
X113664286Y-79842247D02*
X113664286Y-79699390D01*
X113664286Y-79699390D02*
X113711905Y-79508914D01*
X113711905Y-79508914D02*
X113759524Y-79413676D01*
X113759524Y-79413676D02*
X113854762Y-79318438D01*
X113854762Y-79318438D02*
X113997619Y-79270819D01*
X113997619Y-79270819D02*
X114092857Y-79270819D01*
X114092857Y-79270819D02*
X114235714Y-79318438D01*
X114235714Y-79318438D02*
X114283333Y-79366057D01*
X115188095Y-79270819D02*
X114711905Y-79270819D01*
X114711905Y-79270819D02*
X114664286Y-79747009D01*
X114664286Y-79747009D02*
X114711905Y-79699390D01*
X114711905Y-79699390D02*
X114807143Y-79651771D01*
X114807143Y-79651771D02*
X115045238Y-79651771D01*
X115045238Y-79651771D02*
X115140476Y-79699390D01*
X115140476Y-79699390D02*
X115188095Y-79747009D01*
X115188095Y-79747009D02*
X115235714Y-79842247D01*
X115235714Y-79842247D02*
X115235714Y-80080342D01*
X115235714Y-80080342D02*
X115188095Y-80175580D01*
X115188095Y-80175580D02*
X115140476Y-80223200D01*
X115140476Y-80223200D02*
X115045238Y-80270819D01*
X115045238Y-80270819D02*
X114807143Y-80270819D01*
X114807143Y-80270819D02*
X114711905Y-80223200D01*
X114711905Y-80223200D02*
X114664286Y-80175580D01*
X119505833Y-79190819D02*
X119172500Y-78714628D01*
X118934405Y-79190819D02*
X118934405Y-78190819D01*
X118934405Y-78190819D02*
X119315357Y-78190819D01*
X119315357Y-78190819D02*
X119410595Y-78238438D01*
X119410595Y-78238438D02*
X119458214Y-78286057D01*
X119458214Y-78286057D02*
X119505833Y-78381295D01*
X119505833Y-78381295D02*
X119505833Y-78524152D01*
X119505833Y-78524152D02*
X119458214Y-78619390D01*
X119458214Y-78619390D02*
X119410595Y-78667009D01*
X119410595Y-78667009D02*
X119315357Y-78714628D01*
X119315357Y-78714628D02*
X118934405Y-78714628D01*
X119839167Y-78190819D02*
X120505833Y-78190819D01*
X120505833Y-78190819D02*
X120077262Y-79190819D01*
X114283333Y-83731580D02*
X114235714Y-83779200D01*
X114235714Y-83779200D02*
X114092857Y-83826819D01*
X114092857Y-83826819D02*
X113997619Y-83826819D01*
X113997619Y-83826819D02*
X113854762Y-83779200D01*
X113854762Y-83779200D02*
X113759524Y-83683961D01*
X113759524Y-83683961D02*
X113711905Y-83588723D01*
X113711905Y-83588723D02*
X113664286Y-83398247D01*
X113664286Y-83398247D02*
X113664286Y-83255390D01*
X113664286Y-83255390D02*
X113711905Y-83064914D01*
X113711905Y-83064914D02*
X113759524Y-82969676D01*
X113759524Y-82969676D02*
X113854762Y-82874438D01*
X113854762Y-82874438D02*
X113997619Y-82826819D01*
X113997619Y-82826819D02*
X114092857Y-82826819D01*
X114092857Y-82826819D02*
X114235714Y-82874438D01*
X114235714Y-82874438D02*
X114283333Y-82922057D01*
X114616667Y-82826819D02*
X115235714Y-82826819D01*
X115235714Y-82826819D02*
X114902381Y-83207771D01*
X114902381Y-83207771D02*
X115045238Y-83207771D01*
X115045238Y-83207771D02*
X115140476Y-83255390D01*
X115140476Y-83255390D02*
X115188095Y-83303009D01*
X115188095Y-83303009D02*
X115235714Y-83398247D01*
X115235714Y-83398247D02*
X115235714Y-83636342D01*
X115235714Y-83636342D02*
X115188095Y-83731580D01*
X115188095Y-83731580D02*
X115140476Y-83779200D01*
X115140476Y-83779200D02*
X115045238Y-83826819D01*
X115045238Y-83826819D02*
X114759524Y-83826819D01*
X114759524Y-83826819D02*
X114664286Y-83779200D01*
X114664286Y-83779200D02*
X114616667Y-83731580D01*
X121747660Y-105915819D02*
X121747660Y-104915819D01*
X122795278Y-105820580D02*
X122747659Y-105868200D01*
X122747659Y-105868200D02*
X122604802Y-105915819D01*
X122604802Y-105915819D02*
X122509564Y-105915819D01*
X122509564Y-105915819D02*
X122366707Y-105868200D01*
X122366707Y-105868200D02*
X122271469Y-105772961D01*
X122271469Y-105772961D02*
X122223850Y-105677723D01*
X122223850Y-105677723D02*
X122176231Y-105487247D01*
X122176231Y-105487247D02*
X122176231Y-105344390D01*
X122176231Y-105344390D02*
X122223850Y-105153914D01*
X122223850Y-105153914D02*
X122271469Y-105058676D01*
X122271469Y-105058676D02*
X122366707Y-104963438D01*
X122366707Y-104963438D02*
X122509564Y-104915819D01*
X122509564Y-104915819D02*
X122604802Y-104915819D01*
X122604802Y-104915819D02*
X122747659Y-104963438D01*
X122747659Y-104963438D02*
X122795278Y-105011057D01*
X123747659Y-105915819D02*
X123176231Y-105915819D01*
X123461945Y-105915819D02*
X123461945Y-104915819D01*
X123461945Y-104915819D02*
X123366707Y-105058676D01*
X123366707Y-105058676D02*
X123271469Y-105153914D01*
X123271469Y-105153914D02*
X123176231Y-105201533D01*
X134781333Y-94688819D02*
X134448000Y-94212628D01*
X134209905Y-94688819D02*
X134209905Y-93688819D01*
X134209905Y-93688819D02*
X134590857Y-93688819D01*
X134590857Y-93688819D02*
X134686095Y-93736438D01*
X134686095Y-93736438D02*
X134733714Y-93784057D01*
X134733714Y-93784057D02*
X134781333Y-93879295D01*
X134781333Y-93879295D02*
X134781333Y-94022152D01*
X134781333Y-94022152D02*
X134733714Y-94117390D01*
X134733714Y-94117390D02*
X134686095Y-94165009D01*
X134686095Y-94165009D02*
X134590857Y-94212628D01*
X134590857Y-94212628D02*
X134209905Y-94212628D01*
X135638476Y-93688819D02*
X135448000Y-93688819D01*
X135448000Y-93688819D02*
X135352762Y-93736438D01*
X135352762Y-93736438D02*
X135305143Y-93784057D01*
X135305143Y-93784057D02*
X135209905Y-93926914D01*
X135209905Y-93926914D02*
X135162286Y-94117390D01*
X135162286Y-94117390D02*
X135162286Y-94498342D01*
X135162286Y-94498342D02*
X135209905Y-94593580D01*
X135209905Y-94593580D02*
X135257524Y-94641200D01*
X135257524Y-94641200D02*
X135352762Y-94688819D01*
X135352762Y-94688819D02*
X135543238Y-94688819D01*
X135543238Y-94688819D02*
X135638476Y-94641200D01*
X135638476Y-94641200D02*
X135686095Y-94593580D01*
X135686095Y-94593580D02*
X135733714Y-94498342D01*
X135733714Y-94498342D02*
X135733714Y-94260247D01*
X135733714Y-94260247D02*
X135686095Y-94165009D01*
X135686095Y-94165009D02*
X135638476Y-94117390D01*
X135638476Y-94117390D02*
X135543238Y-94069771D01*
X135543238Y-94069771D02*
X135352762Y-94069771D01*
X135352762Y-94069771D02*
X135257524Y-94117390D01*
X135257524Y-94117390D02*
X135209905Y-94165009D01*
X135209905Y-94165009D02*
X135162286Y-94260247D01*
X119491233Y-74796819D02*
X119157900Y-74320628D01*
X118919805Y-74796819D02*
X118919805Y-73796819D01*
X118919805Y-73796819D02*
X119300757Y-73796819D01*
X119300757Y-73796819D02*
X119395995Y-73844438D01*
X119395995Y-73844438D02*
X119443614Y-73892057D01*
X119443614Y-73892057D02*
X119491233Y-73987295D01*
X119491233Y-73987295D02*
X119491233Y-74130152D01*
X119491233Y-74130152D02*
X119443614Y-74225390D01*
X119443614Y-74225390D02*
X119395995Y-74273009D01*
X119395995Y-74273009D02*
X119300757Y-74320628D01*
X119300757Y-74320628D02*
X118919805Y-74320628D01*
X120062662Y-74225390D02*
X119967424Y-74177771D01*
X119967424Y-74177771D02*
X119919805Y-74130152D01*
X119919805Y-74130152D02*
X119872186Y-74034914D01*
X119872186Y-74034914D02*
X119872186Y-73987295D01*
X119872186Y-73987295D02*
X119919805Y-73892057D01*
X119919805Y-73892057D02*
X119967424Y-73844438D01*
X119967424Y-73844438D02*
X120062662Y-73796819D01*
X120062662Y-73796819D02*
X120253138Y-73796819D01*
X120253138Y-73796819D02*
X120348376Y-73844438D01*
X120348376Y-73844438D02*
X120395995Y-73892057D01*
X120395995Y-73892057D02*
X120443614Y-73987295D01*
X120443614Y-73987295D02*
X120443614Y-74034914D01*
X120443614Y-74034914D02*
X120395995Y-74130152D01*
X120395995Y-74130152D02*
X120348376Y-74177771D01*
X120348376Y-74177771D02*
X120253138Y-74225390D01*
X120253138Y-74225390D02*
X120062662Y-74225390D01*
X120062662Y-74225390D02*
X119967424Y-74273009D01*
X119967424Y-74273009D02*
X119919805Y-74320628D01*
X119919805Y-74320628D02*
X119872186Y-74415866D01*
X119872186Y-74415866D02*
X119872186Y-74606342D01*
X119872186Y-74606342D02*
X119919805Y-74701580D01*
X119919805Y-74701580D02*
X119967424Y-74749200D01*
X119967424Y-74749200D02*
X120062662Y-74796819D01*
X120062662Y-74796819D02*
X120253138Y-74796819D01*
X120253138Y-74796819D02*
X120348376Y-74749200D01*
X120348376Y-74749200D02*
X120395995Y-74701580D01*
X120395995Y-74701580D02*
X120443614Y-74606342D01*
X120443614Y-74606342D02*
X120443614Y-74415866D01*
X120443614Y-74415866D02*
X120395995Y-74320628D01*
X120395995Y-74320628D02*
X120348376Y-74273009D01*
X120348376Y-74273009D02*
X120253138Y-74225390D01*
X138301333Y-106735580D02*
X138253714Y-106783200D01*
X138253714Y-106783200D02*
X138110857Y-106830819D01*
X138110857Y-106830819D02*
X138015619Y-106830819D01*
X138015619Y-106830819D02*
X137872762Y-106783200D01*
X137872762Y-106783200D02*
X137777524Y-106687961D01*
X137777524Y-106687961D02*
X137729905Y-106592723D01*
X137729905Y-106592723D02*
X137682286Y-106402247D01*
X137682286Y-106402247D02*
X137682286Y-106259390D01*
X137682286Y-106259390D02*
X137729905Y-106068914D01*
X137729905Y-106068914D02*
X137777524Y-105973676D01*
X137777524Y-105973676D02*
X137872762Y-105878438D01*
X137872762Y-105878438D02*
X138015619Y-105830819D01*
X138015619Y-105830819D02*
X138110857Y-105830819D01*
X138110857Y-105830819D02*
X138253714Y-105878438D01*
X138253714Y-105878438D02*
X138301333Y-105926057D01*
X138634667Y-105830819D02*
X139301333Y-105830819D01*
X139301333Y-105830819D02*
X138872762Y-106830819D01*
X135743833Y-106510819D02*
X135410500Y-106034628D01*
X135172405Y-106510819D02*
X135172405Y-105510819D01*
X135172405Y-105510819D02*
X135553357Y-105510819D01*
X135553357Y-105510819D02*
X135648595Y-105558438D01*
X135648595Y-105558438D02*
X135696214Y-105606057D01*
X135696214Y-105606057D02*
X135743833Y-105701295D01*
X135743833Y-105701295D02*
X135743833Y-105844152D01*
X135743833Y-105844152D02*
X135696214Y-105939390D01*
X135696214Y-105939390D02*
X135648595Y-105987009D01*
X135648595Y-105987009D02*
X135553357Y-106034628D01*
X135553357Y-106034628D02*
X135172405Y-106034628D01*
X136600976Y-105844152D02*
X136600976Y-106510819D01*
X136362881Y-105463200D02*
X136124786Y-106177485D01*
X136124786Y-106177485D02*
X136743833Y-106177485D01*
X133305142Y-86735580D02*
X133257523Y-86783200D01*
X133257523Y-86783200D02*
X133114666Y-86830819D01*
X133114666Y-86830819D02*
X133019428Y-86830819D01*
X133019428Y-86830819D02*
X132876571Y-86783200D01*
X132876571Y-86783200D02*
X132781333Y-86687961D01*
X132781333Y-86687961D02*
X132733714Y-86592723D01*
X132733714Y-86592723D02*
X132686095Y-86402247D01*
X132686095Y-86402247D02*
X132686095Y-86259390D01*
X132686095Y-86259390D02*
X132733714Y-86068914D01*
X132733714Y-86068914D02*
X132781333Y-85973676D01*
X132781333Y-85973676D02*
X132876571Y-85878438D01*
X132876571Y-85878438D02*
X133019428Y-85830819D01*
X133019428Y-85830819D02*
X133114666Y-85830819D01*
X133114666Y-85830819D02*
X133257523Y-85878438D01*
X133257523Y-85878438D02*
X133305142Y-85926057D01*
X134257523Y-86830819D02*
X133686095Y-86830819D01*
X133971809Y-86830819D02*
X133971809Y-85830819D01*
X133971809Y-85830819D02*
X133876571Y-85973676D01*
X133876571Y-85973676D02*
X133781333Y-86068914D01*
X133781333Y-86068914D02*
X133686095Y-86116533D01*
X134590857Y-85830819D02*
X135209904Y-85830819D01*
X135209904Y-85830819D02*
X134876571Y-86211771D01*
X134876571Y-86211771D02*
X135019428Y-86211771D01*
X135019428Y-86211771D02*
X135114666Y-86259390D01*
X135114666Y-86259390D02*
X135162285Y-86307009D01*
X135162285Y-86307009D02*
X135209904Y-86402247D01*
X135209904Y-86402247D02*
X135209904Y-86640342D01*
X135209904Y-86640342D02*
X135162285Y-86735580D01*
X135162285Y-86735580D02*
X135114666Y-86783200D01*
X135114666Y-86783200D02*
X135019428Y-86830819D01*
X135019428Y-86830819D02*
X134733714Y-86830819D01*
X134733714Y-86830819D02*
X134638476Y-86783200D01*
X134638476Y-86783200D02*
X134590857Y-86735580D01*
X109565819Y-105392166D02*
X109089628Y-105725499D01*
X109565819Y-105963594D02*
X108565819Y-105963594D01*
X108565819Y-105963594D02*
X108565819Y-105582642D01*
X108565819Y-105582642D02*
X108613438Y-105487404D01*
X108613438Y-105487404D02*
X108661057Y-105439785D01*
X108661057Y-105439785D02*
X108756295Y-105392166D01*
X108756295Y-105392166D02*
X108899152Y-105392166D01*
X108899152Y-105392166D02*
X108994390Y-105439785D01*
X108994390Y-105439785D02*
X109042009Y-105487404D01*
X109042009Y-105487404D02*
X109089628Y-105582642D01*
X109089628Y-105582642D02*
X109089628Y-105963594D01*
X109565819Y-104439785D02*
X109565819Y-105011213D01*
X109565819Y-104725499D02*
X108565819Y-104725499D01*
X108565819Y-104725499D02*
X108708676Y-104820737D01*
X108708676Y-104820737D02*
X108803914Y-104915975D01*
X108803914Y-104915975D02*
X108851533Y-105011213D01*
X141701895Y-78914819D02*
X141701895Y-79724342D01*
X141701895Y-79724342D02*
X141749514Y-79819580D01*
X141749514Y-79819580D02*
X141797133Y-79867200D01*
X141797133Y-79867200D02*
X141892371Y-79914819D01*
X141892371Y-79914819D02*
X142082847Y-79914819D01*
X142082847Y-79914819D02*
X142178085Y-79867200D01*
X142178085Y-79867200D02*
X142225704Y-79819580D01*
X142225704Y-79819580D02*
X142273323Y-79724342D01*
X142273323Y-79724342D02*
X142273323Y-78914819D01*
X143273323Y-79914819D02*
X142701895Y-79914819D01*
X142987609Y-79914819D02*
X142987609Y-78914819D01*
X142987609Y-78914819D02*
X142892371Y-79057676D01*
X142892371Y-79057676D02*
X142797133Y-79152914D01*
X142797133Y-79152914D02*
X142701895Y-79200533D01*
X144093810Y-93903819D02*
X144093810Y-92903819D01*
X145141428Y-93808580D02*
X145093809Y-93856200D01*
X145093809Y-93856200D02*
X144950952Y-93903819D01*
X144950952Y-93903819D02*
X144855714Y-93903819D01*
X144855714Y-93903819D02*
X144712857Y-93856200D01*
X144712857Y-93856200D02*
X144617619Y-93760961D01*
X144617619Y-93760961D02*
X144570000Y-93665723D01*
X144570000Y-93665723D02*
X144522381Y-93475247D01*
X144522381Y-93475247D02*
X144522381Y-93332390D01*
X144522381Y-93332390D02*
X144570000Y-93141914D01*
X144570000Y-93141914D02*
X144617619Y-93046676D01*
X144617619Y-93046676D02*
X144712857Y-92951438D01*
X144712857Y-92951438D02*
X144855714Y-92903819D01*
X144855714Y-92903819D02*
X144950952Y-92903819D01*
X144950952Y-92903819D02*
X145093809Y-92951438D01*
X145093809Y-92951438D02*
X145141428Y-92999057D01*
X145474762Y-92903819D02*
X146093809Y-92903819D01*
X146093809Y-92903819D02*
X145760476Y-93284771D01*
X145760476Y-93284771D02*
X145903333Y-93284771D01*
X145903333Y-93284771D02*
X145998571Y-93332390D01*
X145998571Y-93332390D02*
X146046190Y-93380009D01*
X146046190Y-93380009D02*
X146093809Y-93475247D01*
X146093809Y-93475247D02*
X146093809Y-93713342D01*
X146093809Y-93713342D02*
X146046190Y-93808580D01*
X146046190Y-93808580D02*
X145998571Y-93856200D01*
X145998571Y-93856200D02*
X145903333Y-93903819D01*
X145903333Y-93903819D02*
X145617619Y-93903819D01*
X145617619Y-93903819D02*
X145522381Y-93856200D01*
X145522381Y-93856200D02*
X145474762Y-93808580D01*
X142352200Y-89297019D02*
X142352200Y-89535114D01*
X142114105Y-89439876D02*
X142352200Y-89535114D01*
X142352200Y-89535114D02*
X142590295Y-89439876D01*
X142209343Y-89725590D02*
X142352200Y-89535114D01*
X142352200Y-89535114D02*
X142495057Y-89725590D01*
D12*
X143360000Y-53030000D02*
X143360000Y-52390000D01*
X143360000Y-52390000D02*
X142960000Y-52390000D01*
X143120000Y-59370000D02*
X143120000Y-52630000D01*
X143120000Y-59370000D02*
X132259000Y-59370000D01*
X143120000Y-58250000D02*
X132259000Y-58250000D01*
X143120000Y-53150000D02*
X132259000Y-53150000D01*
X143120000Y-52630000D02*
X132259000Y-52630000D01*
X132259000Y-59370000D02*
X132259000Y-52630000D01*
X132706748Y-107321000D02*
X133229252Y-107321000D01*
X132706748Y-108791000D02*
X133229252Y-108791000D01*
X130600000Y-116470000D02*
X130600000Y-117110000D01*
X130600000Y-117110000D02*
X131000000Y-117110000D01*
X130840000Y-110130000D02*
X130840000Y-116870000D01*
X130840000Y-110130000D02*
X136620000Y-110130000D01*
X130840000Y-111250000D02*
X136620000Y-111250000D01*
X130840000Y-116350000D02*
X136620000Y-116350000D01*
X130840000Y-116870000D02*
X136620000Y-116870000D01*
X136620000Y-110130000D02*
X136620000Y-116870000D01*
X108060000Y-116470000D02*
X108060000Y-117110000D01*
X108060000Y-117110000D02*
X108460000Y-117110000D01*
X108300000Y-110130000D02*
X108300000Y-116870000D01*
X108300000Y-110130000D02*
X116620000Y-110130000D01*
X108300000Y-111250000D02*
X116620000Y-111250000D01*
X108300000Y-116350000D02*
X116620000Y-116350000D01*
X108300000Y-116870000D02*
X116620000Y-116870000D01*
X116620000Y-110130000D02*
X116620000Y-116870000D01*
X120299564Y-94086000D02*
X118845436Y-94086000D01*
X120299564Y-95906000D02*
X118845436Y-95906000D01*
X155630000Y-95380000D02*
X162370000Y-95380000D01*
X155630000Y-101160000D02*
X155630000Y-95380000D01*
X155630000Y-101160000D02*
X162370000Y-101160000D01*
X156750000Y-101160000D02*
X156750000Y-95380000D01*
X161850000Y-101160000D02*
X161850000Y-95380000D01*
X161970000Y-101400000D02*
X162610000Y-101400000D01*
X162370000Y-101160000D02*
X162370000Y-95380000D01*
X162610000Y-101400000D02*
X162610000Y-101000000D01*
X155630000Y-71760000D02*
X162370000Y-71760000D01*
X155630000Y-85160000D02*
X155630000Y-71760000D01*
X155630000Y-85160000D02*
X162370000Y-85160000D01*
X156750000Y-85160000D02*
X156750000Y-71760000D01*
X161850000Y-85160000D02*
X161850000Y-71760000D01*
X161970000Y-85400000D02*
X162610000Y-85400000D01*
X162370000Y-85160000D02*
X162370000Y-71760000D01*
X162610000Y-85400000D02*
X162610000Y-85000000D01*
X125887564Y-98150000D02*
X124433436Y-98150000D01*
X125887564Y-99970000D02*
X124433436Y-99970000D01*
X114799564Y-94086000D02*
X113345436Y-94086000D01*
X114799564Y-95906000D02*
X113345436Y-95906000D01*
X115101000Y-104644936D02*
X115101000Y-106099064D01*
X116921000Y-104644936D02*
X116921000Y-106099064D01*
D13*
X120014100Y-89589900D02*
X124255900Y-89589900D01*
X124255900Y-84332100D02*
X120014100Y-84332100D01*
D12*
X147751264Y-103146000D02*
X146297136Y-103146000D01*
X147751264Y-104966000D02*
X146297136Y-104966000D01*
X144542252Y-107316600D02*
X144019748Y-107316600D01*
X144542252Y-108786600D02*
X144019748Y-108786600D01*
X146909698Y-69315000D02*
X146109698Y-69315000D01*
X146509698Y-69715000D02*
X146509698Y-68915000D01*
X142500000Y-71080000D02*
X142500000Y-62920000D01*
X142460000Y-71080000D02*
X142460000Y-62920000D01*
X142420000Y-71080000D02*
X142420000Y-62920000D01*
X142380000Y-71079000D02*
X142380000Y-62921000D01*
X142340000Y-71077000D02*
X142340000Y-62923000D01*
X142300000Y-71076000D02*
X142300000Y-62924000D01*
X142260000Y-71074000D02*
X142260000Y-62926000D01*
X142220000Y-71071000D02*
X142220000Y-62929000D01*
X142180000Y-71068000D02*
X142180000Y-62932000D01*
X142140000Y-71065000D02*
X142140000Y-62935000D01*
X142100000Y-71061000D02*
X142100000Y-62939000D01*
X142060000Y-71057000D02*
X142060000Y-62943000D01*
X142020000Y-71052000D02*
X142020000Y-62948000D01*
X141980000Y-71048000D02*
X141980000Y-62952000D01*
X141940000Y-71042000D02*
X141940000Y-62958000D01*
X141900000Y-71037000D02*
X141900000Y-62963000D01*
X141860000Y-71030000D02*
X141860000Y-62970000D01*
X141820000Y-71024000D02*
X141820000Y-62976000D01*
X141779000Y-71017000D02*
X141779000Y-62983000D01*
X141739000Y-71010000D02*
X141739000Y-62990000D01*
X141699000Y-71002000D02*
X141699000Y-62998000D01*
X141659000Y-70994000D02*
X141659000Y-63006000D01*
X141619000Y-70985000D02*
X141619000Y-63015000D01*
X141579000Y-70976000D02*
X141579000Y-63024000D01*
X141539000Y-70967000D02*
X141539000Y-63033000D01*
X141499000Y-70957000D02*
X141499000Y-63043000D01*
X141459000Y-70947000D02*
X141459000Y-63053000D01*
X141419000Y-70936000D02*
X141419000Y-63064000D01*
X141379000Y-70925000D02*
X141379000Y-63075000D01*
X141339000Y-70914000D02*
X141339000Y-63086000D01*
X141299000Y-70902000D02*
X141299000Y-63098000D01*
X141259000Y-70889000D02*
X141259000Y-63111000D01*
X141219000Y-70877000D02*
X141219000Y-63123000D01*
X141179000Y-70863000D02*
X141179000Y-63137000D01*
X141139000Y-70850000D02*
X141139000Y-63150000D01*
X141099000Y-70835000D02*
X141099000Y-63165000D01*
X141059000Y-70821000D02*
X141059000Y-63179000D01*
X141019000Y-70805000D02*
X141019000Y-68040000D01*
X141019000Y-65960000D02*
X141019000Y-63195000D01*
X140979000Y-70790000D02*
X140979000Y-68040000D01*
X140979000Y-65960000D02*
X140979000Y-63210000D01*
X140939000Y-70774000D02*
X140939000Y-68040000D01*
X140939000Y-65960000D02*
X140939000Y-63226000D01*
X140899000Y-70757000D02*
X140899000Y-68040000D01*
X140899000Y-65960000D02*
X140899000Y-63243000D01*
X140859000Y-70740000D02*
X140859000Y-68040000D01*
X140859000Y-65960000D02*
X140859000Y-63260000D01*
X140819000Y-70722000D02*
X140819000Y-68040000D01*
X140819000Y-65960000D02*
X140819000Y-63278000D01*
X140779000Y-70704000D02*
X140779000Y-68040000D01*
X140779000Y-65960000D02*
X140779000Y-63296000D01*
X140739000Y-70686000D02*
X140739000Y-68040000D01*
X140739000Y-65960000D02*
X140739000Y-63314000D01*
X140699000Y-70666000D02*
X140699000Y-68040000D01*
X140699000Y-65960000D02*
X140699000Y-63334000D01*
X140659000Y-70647000D02*
X140659000Y-68040000D01*
X140659000Y-65960000D02*
X140659000Y-63353000D01*
X140619000Y-70627000D02*
X140619000Y-68040000D01*
X140619000Y-65960000D02*
X140619000Y-63373000D01*
X140579000Y-70606000D02*
X140579000Y-68040000D01*
X140579000Y-65960000D02*
X140579000Y-63394000D01*
X140539000Y-70584000D02*
X140539000Y-68040000D01*
X140539000Y-65960000D02*
X140539000Y-63416000D01*
X140499000Y-70562000D02*
X140499000Y-68040000D01*
X140499000Y-65960000D02*
X140499000Y-63438000D01*
X140459000Y-70540000D02*
X140459000Y-68040000D01*
X140459000Y-65960000D02*
X140459000Y-63460000D01*
X140419000Y-70517000D02*
X140419000Y-68040000D01*
X140419000Y-65960000D02*
X140419000Y-63483000D01*
X140379000Y-70493000D02*
X140379000Y-68040000D01*
X140379000Y-65960000D02*
X140379000Y-63507000D01*
X140339000Y-70469000D02*
X140339000Y-68040000D01*
X140339000Y-65960000D02*
X140339000Y-63531000D01*
X140299000Y-70444000D02*
X140299000Y-68040000D01*
X140299000Y-65960000D02*
X140299000Y-63556000D01*
X140259000Y-70418000D02*
X140259000Y-68040000D01*
X140259000Y-65960000D02*
X140259000Y-63582000D01*
X140219000Y-70392000D02*
X140219000Y-68040000D01*
X140219000Y-65960000D02*
X140219000Y-63608000D01*
X140179000Y-70365000D02*
X140179000Y-68040000D01*
X140179000Y-65960000D02*
X140179000Y-63635000D01*
X140139000Y-70338000D02*
X140139000Y-68040000D01*
X140139000Y-65960000D02*
X140139000Y-63662000D01*
X140099000Y-70309000D02*
X140099000Y-68040000D01*
X140099000Y-65960000D02*
X140099000Y-63691000D01*
X140059000Y-70280000D02*
X140059000Y-68040000D01*
X140059000Y-65960000D02*
X140059000Y-63720000D01*
X140019000Y-70250000D02*
X140019000Y-68040000D01*
X140019000Y-65960000D02*
X140019000Y-63750000D01*
X139979000Y-70220000D02*
X139979000Y-68040000D01*
X139979000Y-65960000D02*
X139979000Y-63780000D01*
X139939000Y-70189000D02*
X139939000Y-68040000D01*
X139939000Y-65960000D02*
X139939000Y-63811000D01*
X139899000Y-70156000D02*
X139899000Y-68040000D01*
X139899000Y-65960000D02*
X139899000Y-63844000D01*
X139859000Y-70124000D02*
X139859000Y-68040000D01*
X139859000Y-65960000D02*
X139859000Y-63876000D01*
X139819000Y-70090000D02*
X139819000Y-68040000D01*
X139819000Y-65960000D02*
X139819000Y-63910000D01*
X139779000Y-70055000D02*
X139779000Y-68040000D01*
X139779000Y-65960000D02*
X139779000Y-63945000D01*
X139739000Y-70019000D02*
X139739000Y-68040000D01*
X139739000Y-65960000D02*
X139739000Y-63981000D01*
X139699000Y-69983000D02*
X139699000Y-68040000D01*
X139699000Y-65960000D02*
X139699000Y-64017000D01*
X139659000Y-69945000D02*
X139659000Y-68040000D01*
X139659000Y-65960000D02*
X139659000Y-64055000D01*
X139619000Y-69907000D02*
X139619000Y-68040000D01*
X139619000Y-65960000D02*
X139619000Y-64093000D01*
X139579000Y-69867000D02*
X139579000Y-68040000D01*
X139579000Y-65960000D02*
X139579000Y-64133000D01*
X139539000Y-69826000D02*
X139539000Y-68040000D01*
X139539000Y-65960000D02*
X139539000Y-64174000D01*
X139499000Y-69784000D02*
X139499000Y-68040000D01*
X139499000Y-65960000D02*
X139499000Y-64216000D01*
X139459000Y-69741000D02*
X139459000Y-68040000D01*
X139459000Y-65960000D02*
X139459000Y-64259000D01*
X139419000Y-69697000D02*
X139419000Y-68040000D01*
X139419000Y-65960000D02*
X139419000Y-64303000D01*
X139379000Y-69651000D02*
X139379000Y-68040000D01*
X139379000Y-65960000D02*
X139379000Y-64349000D01*
X139339000Y-69604000D02*
X139339000Y-68040000D01*
X139339000Y-65960000D02*
X139339000Y-64396000D01*
X139299000Y-69556000D02*
X139299000Y-68040000D01*
X139299000Y-65960000D02*
X139299000Y-64444000D01*
X139259000Y-69505000D02*
X139259000Y-68040000D01*
X139259000Y-65960000D02*
X139259000Y-64495000D01*
X139219000Y-69454000D02*
X139219000Y-68040000D01*
X139219000Y-65960000D02*
X139219000Y-64546000D01*
X139179000Y-69400000D02*
X139179000Y-68040000D01*
X139179000Y-65960000D02*
X139179000Y-64600000D01*
X139139000Y-69345000D02*
X139139000Y-68040000D01*
X139139000Y-65960000D02*
X139139000Y-64655000D01*
X139099000Y-69287000D02*
X139099000Y-68040000D01*
X139099000Y-65960000D02*
X139099000Y-64713000D01*
X139059000Y-69228000D02*
X139059000Y-68040000D01*
X139059000Y-65960000D02*
X139059000Y-64772000D01*
X139019000Y-69166000D02*
X139019000Y-68040000D01*
X139019000Y-65960000D02*
X139019000Y-64834000D01*
X138979000Y-69102000D02*
X138979000Y-68040000D01*
X138979000Y-65960000D02*
X138979000Y-64898000D01*
X138939000Y-69034000D02*
X138939000Y-64966000D01*
X138899000Y-68964000D02*
X138899000Y-65036000D01*
X138859000Y-68890000D02*
X138859000Y-65110000D01*
X138819000Y-68813000D02*
X138819000Y-65187000D01*
X138779000Y-68731000D02*
X138779000Y-65269000D01*
X138739000Y-68645000D02*
X138739000Y-65355000D01*
X138699000Y-68552000D02*
X138699000Y-65448000D01*
X138659000Y-68453000D02*
X138659000Y-65547000D01*
X138619000Y-68346000D02*
X138619000Y-65654000D01*
X138579000Y-68229000D02*
X138579000Y-65771000D01*
X138539000Y-68098000D02*
X138539000Y-65902000D01*
X138499000Y-67948000D02*
X138499000Y-66052000D01*
X138459000Y-67768000D02*
X138459000Y-66232000D01*
X138419000Y-67533000D02*
X138419000Y-66467000D01*
X146620000Y-67000000D02*
G75*
G02*
X138380000Y-67000000I-4120000J0D01*
G01*
X138380000Y-67000000D02*
G75*
G02*
X146620000Y-67000000I4120000J0D01*
G01*
X124107000Y-80817748D02*
X124107000Y-81340252D01*
X125577000Y-80817748D02*
X125577000Y-81340252D01*
X108519400Y-54288748D02*
X108519400Y-54811252D01*
X109989400Y-54288748D02*
X109989400Y-54811252D01*
X125887564Y-94086000D02*
X124433436Y-94086000D01*
X125887564Y-95906000D02*
X124433436Y-95906000D01*
X142199564Y-98429000D02*
X140745436Y-98429000D01*
X142199564Y-100249000D02*
X140745436Y-100249000D01*
X128215800Y-72199600D02*
X128215800Y-100199600D01*
X128215800Y-72199600D02*
X130875800Y-72199600D01*
X128215800Y-100199600D02*
X130875800Y-100199600D01*
X129545800Y-69599600D02*
X130875800Y-69599600D01*
X130875800Y-69599600D02*
X130875800Y-70929600D01*
X130875800Y-72199600D02*
X130875800Y-100199600D01*
X142137564Y-103146000D02*
X140683436Y-103146000D01*
X142137564Y-104966000D02*
X140683436Y-104966000D01*
X139140000Y-116470000D02*
X139140000Y-117110000D01*
X139140000Y-117110000D02*
X139540000Y-117110000D01*
X139380000Y-110130000D02*
X139380000Y-116870000D01*
X139380000Y-110130000D02*
X145160000Y-110130000D01*
X139380000Y-111250000D02*
X145160000Y-111250000D01*
X139380000Y-116350000D02*
X145160000Y-116350000D01*
X139380000Y-116870000D02*
X145160000Y-116870000D01*
X145160000Y-110130000D02*
X145160000Y-116870000D01*
X147600000Y-116470000D02*
X147600000Y-117110000D01*
X147600000Y-117110000D02*
X148000000Y-117110000D01*
X147840000Y-110130000D02*
X147840000Y-116870000D01*
X147840000Y-110130000D02*
X153620000Y-110130000D01*
X147840000Y-111250000D02*
X153620000Y-111250000D01*
X147840000Y-116350000D02*
X153620000Y-116350000D01*
X147840000Y-116870000D02*
X153620000Y-116870000D01*
X153620000Y-110130000D02*
X153620000Y-116870000D01*
X129683436Y-103146000D02*
X131137564Y-103146000D01*
X129683436Y-104966000D02*
X131137564Y-104966000D01*
X119560000Y-116470000D02*
X119560000Y-117110000D01*
X119560000Y-117110000D02*
X119960000Y-117110000D01*
X119800000Y-110130000D02*
X119800000Y-116870000D01*
X119800000Y-110130000D02*
X128120000Y-110130000D01*
X119800000Y-111250000D02*
X128120000Y-111250000D01*
X119800000Y-116350000D02*
X128120000Y-116350000D01*
X119800000Y-116870000D02*
X128120000Y-116870000D01*
X128120000Y-110130000D02*
X128120000Y-116870000D01*
D14*
X112625000Y-55642500D02*
X112625000Y-52662500D01*
X112625000Y-65542500D02*
X112625000Y-58482500D01*
X114270000Y-67162500D02*
X117080000Y-67162500D01*
X127375000Y-52662500D02*
X112625000Y-52662500D01*
X127375000Y-55642500D02*
X127375000Y-52662500D01*
X127375000Y-65142500D02*
X127375000Y-58482500D01*
D15*
X117850000Y-69012500D02*
G75*
G02*
X117650000Y-69012500I-100000J0D01*
G01*
X117650000Y-69012500D02*
G75*
G02*
X117850000Y-69012500I100000J0D01*
G01*
D12*
X114188748Y-88127000D02*
X114711252Y-88127000D01*
X114188748Y-89597000D02*
X114711252Y-89597000D01*
X155630000Y-58379000D02*
X162370000Y-58379000D01*
X155630000Y-69240000D02*
X155630000Y-58379000D01*
X155630000Y-69240000D02*
X162370000Y-69240000D01*
X156750000Y-69240000D02*
X156750000Y-58379000D01*
X161850000Y-69240000D02*
X161850000Y-58379000D01*
X161970000Y-69480000D02*
X162610000Y-69480000D01*
X162370000Y-69240000D02*
X162370000Y-58379000D01*
X162610000Y-69480000D02*
X162610000Y-69080000D01*
X107890000Y-62036000D02*
X107890000Y-100196000D01*
X107890000Y-62036000D02*
X110550000Y-62036000D01*
X107890000Y-100196000D02*
X110550000Y-100196000D01*
X109220000Y-59436000D02*
X110550000Y-59436000D01*
X110550000Y-59436000D02*
X110550000Y-60766000D01*
X110550000Y-62036000D02*
X110550000Y-100196000D01*
X135675064Y-95646000D02*
X134220936Y-95646000D01*
X135675064Y-97466000D02*
X134220936Y-97466000D01*
X155630000Y-103300000D02*
X162370000Y-103300000D01*
X155630000Y-111620000D02*
X155630000Y-103300000D01*
X155630000Y-111620000D02*
X162370000Y-111620000D01*
X156750000Y-111620000D02*
X156750000Y-103300000D01*
X161850000Y-111620000D02*
X161850000Y-103300000D01*
X161970000Y-111860000D02*
X162610000Y-111860000D01*
X162370000Y-111620000D02*
X162370000Y-103300000D01*
X162610000Y-111860000D02*
X162610000Y-111460000D01*
X115175500Y-99794748D02*
X115175500Y-100317252D01*
X116645500Y-99794748D02*
X116645500Y-100317252D01*
X114188748Y-80761000D02*
X114711252Y-80761000D01*
X114188748Y-82231000D02*
X114711252Y-82231000D01*
X155630000Y-87840000D02*
X162370000Y-87840000D01*
X155630000Y-93620000D02*
X155630000Y-87840000D01*
X155630000Y-93620000D02*
X162370000Y-93620000D01*
X156750000Y-93620000D02*
X156750000Y-87840000D01*
X161850000Y-93620000D02*
X161850000Y-87840000D01*
X161970000Y-93860000D02*
X162610000Y-93860000D01*
X162370000Y-93620000D02*
X162370000Y-87840000D01*
X162610000Y-93860000D02*
X162610000Y-93460000D01*
X118945436Y-79646000D02*
X120399564Y-79646000D01*
X118945436Y-81466000D02*
X120399564Y-81466000D01*
X114188748Y-84317000D02*
X114711252Y-84317000D01*
X114188748Y-85787000D02*
X114711252Y-85787000D01*
D13*
X121350197Y-107962900D02*
X124097503Y-107962900D01*
X124097503Y-102959100D02*
X121350197Y-102959100D01*
X123028650Y-102959100D02*
G75*
G02*
X122419050Y-102959100I-304800J0D01*
G01*
D12*
X134220936Y-91646000D02*
X135675064Y-91646000D01*
X134220936Y-93466000D02*
X135675064Y-93466000D01*
X118930836Y-75252000D02*
X120384964Y-75252000D01*
X118930836Y-77072000D02*
X120384964Y-77072000D01*
X138206748Y-107321000D02*
X138729252Y-107321000D01*
X138206748Y-108791000D02*
X138729252Y-108791000D01*
X153860000Y-53030000D02*
X153860000Y-52390000D01*
X153860000Y-52390000D02*
X153460000Y-52390000D01*
X153620000Y-59370000D02*
X153620000Y-52630000D01*
X153620000Y-59370000D02*
X145300000Y-59370000D01*
X153620000Y-58250000D02*
X145300000Y-58250000D01*
X153620000Y-53150000D02*
X145300000Y-53150000D01*
X153620000Y-52630000D02*
X145300000Y-52630000D01*
X145300000Y-59370000D02*
X145300000Y-52630000D01*
X135183436Y-103146000D02*
X136637564Y-103146000D01*
X135183436Y-104966000D02*
X136637564Y-104966000D01*
X133686748Y-87321000D02*
X134209252Y-87321000D01*
X133686748Y-88791000D02*
X134209252Y-88791000D01*
X110021000Y-104644936D02*
X110021000Y-106099064D01*
X111841000Y-104644936D02*
X111841000Y-106099064D01*
D13*
X141171297Y-83828800D02*
X143756303Y-83828800D01*
X143756303Y-75091200D02*
X141171297Y-75091200D01*
X142768600Y-75091200D02*
G75*
G02*
X142159000Y-75091200I-304800J0D01*
G01*
D16*
G36*
X146426200Y-80920500D02*
G01*
X146172200Y-80920500D01*
X146172200Y-80539500D01*
X146426200Y-80539500D01*
X146426200Y-80920500D01*
G37*
D13*
X143696347Y-95950900D02*
X146443653Y-95950900D01*
X146443653Y-90947100D02*
X143696347Y-90947100D01*
X145374800Y-90947100D02*
G75*
G02*
X144765200Y-90947100I-304800J0D01*
G01*
%LPC*%
D17*
X141500000Y-56000000D03*
D18*
X138960000Y-56000000D03*
X136420000Y-56000000D03*
X133880000Y-56000000D03*
D19*
X132018000Y-108056000D03*
X133918000Y-108056000D03*
D17*
X132460000Y-113500000D03*
D18*
X135000000Y-113500000D03*
D17*
X109920000Y-113500000D03*
D18*
X112460000Y-113500000D03*
X115000000Y-113500000D03*
D20*
X121035000Y-94996000D03*
X118110000Y-94996000D03*
D17*
X159000000Y-99540000D03*
D18*
X159000000Y-97000000D03*
D17*
X159000000Y-83540000D03*
D18*
X159000000Y-81000000D03*
X159000000Y-78460000D03*
X159000000Y-75920000D03*
X159000000Y-73380000D03*
D20*
X126623000Y-99060000D03*
X123698000Y-99060000D03*
X115535000Y-94996000D03*
X112610000Y-94996000D03*
D21*
X116011000Y-103909500D03*
X116011000Y-106834500D03*
D22*
X119410850Y-85056000D03*
X119410850Y-86326000D03*
X119410850Y-87596000D03*
X119410850Y-88866000D03*
X124859150Y-88866000D03*
X124859150Y-87596000D03*
X124859150Y-86326000D03*
X124859150Y-85056000D03*
D20*
X148486700Y-104056000D03*
X145561700Y-104056000D03*
D23*
X145231000Y-108051600D03*
X143331000Y-108051600D03*
D24*
X145000000Y-67000000D03*
D25*
X140000000Y-67000000D03*
D26*
X124842000Y-80129000D03*
X124842000Y-82029000D03*
X109254400Y-53600000D03*
X109254400Y-55500000D03*
D20*
X126623000Y-94996000D03*
X123698000Y-94996000D03*
X142935000Y-99339000D03*
X140010000Y-99339000D03*
D27*
X129545800Y-70929600D03*
D28*
X129545800Y-73469600D03*
X129545800Y-76009600D03*
X129545800Y-78549600D03*
X129545800Y-81089600D03*
X129545800Y-83629600D03*
X129545800Y-86169600D03*
X129545800Y-88709600D03*
X129545800Y-91249600D03*
X129545800Y-93789600D03*
X129545800Y-96329600D03*
X129545800Y-98869600D03*
D20*
X142873000Y-104056000D03*
X139948000Y-104056000D03*
D29*
X161000000Y-54000000D03*
D17*
X141000000Y-113500000D03*
D18*
X143540000Y-113500000D03*
D17*
X149460000Y-113500000D03*
D18*
X152000000Y-113500000D03*
D30*
X128948000Y-104056000D03*
X131873000Y-104056000D03*
D17*
X121420000Y-113500000D03*
D18*
X123960000Y-113500000D03*
X126500000Y-113500000D03*
D31*
X124950000Y-56662500D03*
X116950000Y-56662500D03*
D32*
X117750000Y-67662500D03*
X118850000Y-67662500D03*
X119950000Y-67662500D03*
X121050000Y-67662500D03*
X122150000Y-67662500D03*
X123250000Y-67662500D03*
X124350000Y-67662500D03*
X125450000Y-67662500D03*
X126550000Y-67662500D03*
D33*
X127750000Y-66362500D03*
D34*
X113150000Y-66612500D03*
D35*
X127750000Y-57062500D03*
X112250000Y-57062500D03*
D19*
X113500000Y-88862000D03*
X115400000Y-88862000D03*
D17*
X159000000Y-67620000D03*
D18*
X159000000Y-65080000D03*
X159000000Y-62540000D03*
X159000000Y-60000000D03*
D29*
X161000000Y-116000000D03*
D27*
X109220000Y-60766000D03*
D28*
X109220000Y-63306000D03*
X109220000Y-65846000D03*
X109220000Y-68386000D03*
X109220000Y-70926000D03*
X109220000Y-73466000D03*
X109220000Y-76006000D03*
X109220000Y-78546000D03*
X109220000Y-81086000D03*
X109220000Y-83626000D03*
X109220000Y-86166000D03*
X109220000Y-88706000D03*
X109220000Y-91246000D03*
X109220000Y-93786000D03*
X109220000Y-96326000D03*
X109220000Y-98866000D03*
D20*
X136410500Y-96556000D03*
X133485500Y-96556000D03*
D17*
X159000000Y-110000000D03*
D18*
X159000000Y-107460000D03*
X159000000Y-104920000D03*
D26*
X115910500Y-99106000D03*
X115910500Y-101006000D03*
D19*
X113500000Y-81496000D03*
X115400000Y-81496000D03*
D17*
X159000000Y-92000000D03*
D18*
X159000000Y-89460000D03*
D29*
X104000000Y-54000000D03*
D30*
X118210000Y-80556000D03*
X121135000Y-80556000D03*
D29*
X104000000Y-116000000D03*
D19*
X113500000Y-85052000D03*
X115400000Y-85052000D03*
D36*
X120260050Y-103556000D03*
X120260050Y-104826000D03*
X120260050Y-106096000D03*
X120260050Y-107366000D03*
X125187650Y-107366000D03*
X125187650Y-106096000D03*
X125187650Y-104826000D03*
X125187650Y-103556000D03*
D30*
X133485500Y-92556000D03*
X136410500Y-92556000D03*
X118195400Y-76162000D03*
X121120400Y-76162000D03*
D19*
X137518000Y-108056000D03*
X139418000Y-108056000D03*
D17*
X152000000Y-56000000D03*
D18*
X149460000Y-56000000D03*
X146920000Y-56000000D03*
D30*
X134448000Y-104056000D03*
X137373000Y-104056000D03*
D19*
X132998000Y-88056000D03*
X134898000Y-88056000D03*
D21*
X110931000Y-103909500D03*
X110931000Y-106834500D03*
D36*
X140000000Y-75650000D03*
X140000000Y-76920000D03*
X140000000Y-78190000D03*
X140000000Y-79460000D03*
X140000000Y-80730000D03*
X140000000Y-82000000D03*
X140000000Y-83270000D03*
X144927600Y-83270000D03*
X144927600Y-82000000D03*
X144927600Y-80730000D03*
X144927600Y-79460000D03*
X144927600Y-78190000D03*
X144927600Y-76920000D03*
X144927600Y-75650000D03*
X142606200Y-91544000D03*
X142606200Y-92814000D03*
X142606200Y-94084000D03*
X142606200Y-95354000D03*
X147533800Y-95354000D03*
X147533800Y-94084000D03*
X147533800Y-92814000D03*
X147533800Y-91544000D03*
%LPD*%
M02*
