%TF.GenerationSoftware,KiCad,Pcbnew,8.0.6*%
%TF.CreationDate,2025-01-17T16:43:45-08:00*%
%TF.ProjectId,AudioLux,41756469-6f4c-4757-982e-6b696361645f,rev?*%
%TF.SameCoordinates,Original*%
%TF.FileFunction,Drillmap*%
%TF.FilePolarity,Positive*%
%FSLAX45Y45*%
G04 Gerber Fmt 4.5, Leading zero omitted, Abs format (unit mm)*
G04 Created by KiCad (PCBNEW 8.0.6) date 2025-01-17 16:43:45*
%MOMM*%
%LPD*%
G01*
G04 APERTURE LIST*
%ADD10C,0.050000*%
%ADD11C,0.200000*%
%ADD12C,0.100000*%
%ADD13C,0.110000*%
G04 APERTURE END LIST*
D10*
X16500000Y-11700000D02*
G75*
G02*
X16200000Y-12000000I-300000J0D01*
G01*
X16500000Y-5300000D02*
X16500000Y-11700000D01*
X10300000Y-12000000D02*
G75*
G02*
X10000000Y-11700000I0J300000D01*
G01*
X10000000Y-5300000D02*
G75*
G02*
X10300000Y-5000000I300000J0D01*
G01*
X16200000Y-5000000D02*
G75*
G02*
X16500000Y-5300000I0J-300000D01*
G01*
X10300000Y-5000000D02*
X16200000Y-5000000D01*
X10000000Y-11700000D02*
X10000000Y-5300000D01*
X16200000Y-12000000D02*
X10300000Y-12000000D01*
D11*
D12*
X10785000Y-10885000D02*
X10815000Y-10915000D01*
X10815000Y-10885000D02*
X10785000Y-10915000D01*
X10910440Y-5345000D02*
X10940440Y-5375000D01*
X10940440Y-5345000D02*
X10910440Y-5375000D01*
X10935000Y-10885000D02*
X10965000Y-10915000D01*
X10965000Y-10885000D02*
X10935000Y-10915000D01*
X11085000Y-7685000D02*
X11115000Y-7715000D01*
X11115000Y-7685000D02*
X11085000Y-7715000D01*
X11185000Y-7685000D02*
X11215000Y-7715000D01*
X11215000Y-7685000D02*
X11185000Y-7715000D01*
X11210000Y-5691250D02*
X11240000Y-5721250D01*
X11240000Y-5691250D02*
X11210000Y-5721250D01*
X11246000Y-9484600D02*
X11276000Y-9514600D01*
X11276000Y-9484600D02*
X11246000Y-9514600D01*
X11285000Y-7685000D02*
X11315000Y-7715000D01*
X11315000Y-7685000D02*
X11285000Y-7715000D01*
X11300000Y-6646250D02*
X11330000Y-6676250D01*
X11330000Y-6646250D02*
X11300000Y-6676250D01*
X11335000Y-8134600D02*
X11365000Y-8164600D01*
X11365000Y-8134600D02*
X11335000Y-8164600D01*
X11335000Y-8490200D02*
X11365000Y-8520200D01*
X11365000Y-8490200D02*
X11335000Y-8520200D01*
X11335000Y-8871200D02*
X11365000Y-8901200D01*
X11365000Y-8871200D02*
X11335000Y-8901200D01*
X11385000Y-7685000D02*
X11415000Y-7715000D01*
X11415000Y-7685000D02*
X11385000Y-7715000D01*
X11585000Y-7520600D02*
X11615000Y-7550600D01*
X11615000Y-7520600D02*
X11585000Y-7550600D01*
X11685000Y-7435000D02*
X11715000Y-7465000D01*
X11715000Y-7435000D02*
X11685000Y-7465000D01*
X11735000Y-7335000D02*
X11765000Y-7365000D01*
X11765000Y-7335000D02*
X11735000Y-7365000D01*
X11760000Y-6751250D02*
X11790000Y-6781250D01*
X11790000Y-6751250D02*
X11760000Y-6781250D01*
X11806000Y-8040600D02*
X11836000Y-8070600D01*
X11836000Y-8040600D02*
X11806000Y-8070600D01*
X11835000Y-6385000D02*
X11865000Y-6415000D01*
X11865000Y-6385000D02*
X11835000Y-6415000D01*
X11871538Y-7248462D02*
X11901538Y-7278462D01*
X11901538Y-7248462D02*
X11871538Y-7278462D01*
X11926085Y-8617600D02*
X11956085Y-8647600D01*
X11956085Y-8617600D02*
X11926085Y-8647600D01*
X11926085Y-8744600D02*
X11956085Y-8774600D01*
X11956085Y-8744600D02*
X11926085Y-8774600D01*
X11984970Y-10721600D02*
X12014970Y-10751600D01*
X12014970Y-10721600D02*
X11984970Y-10751600D01*
X12090000Y-6751250D02*
X12120000Y-6781250D01*
X12120000Y-6751250D02*
X12090000Y-6781250D01*
X12097040Y-7601200D02*
X12127040Y-7631200D01*
X12127040Y-7601200D02*
X12097040Y-7631200D01*
X12310000Y-6751250D02*
X12340000Y-6781250D01*
X12340000Y-6751250D02*
X12310000Y-6781250D01*
X12354800Y-9484600D02*
X12384800Y-9514600D01*
X12384800Y-9484600D02*
X12354800Y-9514600D01*
X12470915Y-8617600D02*
X12500915Y-8647600D01*
X12500915Y-8617600D02*
X12470915Y-8647600D01*
X12529800Y-10340600D02*
X12559800Y-10370600D01*
X12559800Y-10340600D02*
X12529800Y-10370600D01*
X12529800Y-10467600D02*
X12559800Y-10497600D01*
X12559800Y-10467600D02*
X12529800Y-10497600D01*
X12530000Y-6751250D02*
X12560000Y-6781250D01*
X12560000Y-6751250D02*
X12530000Y-6781250D01*
X12585000Y-6135000D02*
X12615000Y-6165000D01*
X12615000Y-6135000D02*
X12585000Y-6165000D01*
X12585000Y-6235000D02*
X12615000Y-6265000D01*
X12615000Y-6235000D02*
X12585000Y-6265000D01*
X12640000Y-6751250D02*
X12670000Y-6781250D01*
X12670000Y-6751250D02*
X12640000Y-6781250D01*
X12760000Y-5691250D02*
X12790000Y-5721250D01*
X12790000Y-5691250D02*
X12760000Y-5721250D01*
X12760000Y-6621250D02*
X12790000Y-6651250D01*
X12790000Y-6621250D02*
X12760000Y-6651250D01*
X12785000Y-8785000D02*
X12815000Y-8815000D01*
X12815000Y-8785000D02*
X12785000Y-8815000D01*
X12785000Y-9135000D02*
X12815000Y-9165000D01*
X12815000Y-9135000D02*
X12785000Y-9165000D01*
X12879800Y-10390600D02*
X12909800Y-10420600D01*
X12909800Y-10390600D02*
X12879800Y-10420600D01*
X12985000Y-6385000D02*
X13015000Y-6415000D01*
X13015000Y-6385000D02*
X12985000Y-6415000D01*
X13135000Y-6235000D02*
X13165000Y-6265000D01*
X13165000Y-6235000D02*
X13135000Y-6265000D01*
X13135000Y-8885000D02*
X13165000Y-8915000D01*
X13165000Y-8885000D02*
X13135000Y-8915000D01*
X13235000Y-9085000D02*
X13265000Y-9115000D01*
X13265000Y-9085000D02*
X13235000Y-9115000D01*
X13284800Y-8790600D02*
X13314800Y-8820600D01*
X13314800Y-8790600D02*
X13284800Y-8820600D01*
X13336140Y-9637000D02*
X13366140Y-9667000D01*
X13366140Y-9637000D02*
X13336140Y-9667000D01*
X13435000Y-8601960D02*
X13465000Y-8631960D01*
X13465000Y-8601960D02*
X13435000Y-8631960D01*
X13485000Y-6135000D02*
X13515000Y-6165000D01*
X13515000Y-6135000D02*
X13485000Y-6165000D01*
X13485000Y-8535000D02*
X13515000Y-8565000D01*
X13515000Y-8535000D02*
X13485000Y-8565000D01*
X13485000Y-9435000D02*
X13515000Y-9465000D01*
X13515000Y-9435000D02*
X13485000Y-9465000D01*
X13485000Y-11135000D02*
X13515000Y-11165000D01*
X13515000Y-11135000D02*
X13485000Y-11165000D01*
X13635000Y-8685000D02*
X13665000Y-8715000D01*
X13665000Y-8685000D02*
X13635000Y-8715000D01*
X13722300Y-10390600D02*
X13752300Y-10420600D01*
X13752300Y-10390600D02*
X13722300Y-10420600D01*
X13736800Y-10790600D02*
X13766800Y-10820600D01*
X13766800Y-10790600D02*
X13736800Y-10820600D01*
X13785000Y-9435000D02*
X13815000Y-9465000D01*
X13815000Y-9435000D02*
X13785000Y-9465000D01*
X13985000Y-7550000D02*
X14015000Y-7580000D01*
X14015000Y-7550000D02*
X13985000Y-7580000D01*
X13985000Y-7931000D02*
X14015000Y-7961000D01*
X14015000Y-7931000D02*
X13985000Y-7961000D01*
X13985000Y-8312000D02*
X14015000Y-8342000D01*
X14015000Y-8312000D02*
X13985000Y-8342000D01*
X14185000Y-7385000D02*
X14215000Y-7415000D01*
X14215000Y-7385000D02*
X14185000Y-7415000D01*
X14222280Y-9521440D02*
X14252280Y-9551440D01*
X14252280Y-9521440D02*
X14222280Y-9551440D01*
X14285000Y-11035000D02*
X14315000Y-11065000D01*
X14315000Y-11035000D02*
X14285000Y-11065000D01*
X14289867Y-6730132D02*
X14319867Y-6760132D01*
X14319867Y-6730132D02*
X14289867Y-6760132D01*
X14318100Y-10790160D02*
X14348100Y-10820160D01*
X14348100Y-10790160D02*
X14318100Y-10820160D01*
X14477760Y-7550000D02*
X14507760Y-7580000D01*
X14507760Y-7550000D02*
X14477760Y-7580000D01*
X14477760Y-7677000D02*
X14507760Y-7707000D01*
X14507760Y-7677000D02*
X14477760Y-7707000D01*
X14477760Y-8058000D02*
X14507760Y-8088000D01*
X14507760Y-8058000D02*
X14477760Y-8088000D01*
X14485000Y-5935000D02*
X14515000Y-5965000D01*
X14515000Y-5935000D02*
X14485000Y-5965000D01*
X14485000Y-6135000D02*
X14515000Y-6165000D01*
X14515000Y-6135000D02*
X14485000Y-6165000D01*
X14585000Y-8470000D02*
X14615000Y-8500000D01*
X14615000Y-8470000D02*
X14585000Y-8500000D01*
X14670000Y-8470000D02*
X14700000Y-8500000D01*
X14700000Y-8470000D02*
X14670000Y-8500000D01*
X14746500Y-8773500D02*
X14776500Y-8803500D01*
X14776500Y-8773500D02*
X14746500Y-8803500D01*
X14769735Y-7210000D02*
X14799735Y-7240000D01*
X14799735Y-7210000D02*
X14769735Y-7240000D01*
X14835000Y-6745038D02*
X14865000Y-6775038D01*
X14865000Y-6745038D02*
X14835000Y-6775038D01*
X14860000Y-8760000D02*
X14890000Y-8790000D01*
X14890000Y-8760000D02*
X14860000Y-8790000D01*
X14972500Y-8297500D02*
X15002500Y-8327500D01*
X15002500Y-8297500D02*
X14972500Y-8327500D01*
X15035000Y-8235000D02*
X15065000Y-8265000D01*
X15065000Y-8235000D02*
X15035000Y-8265000D01*
X15172500Y-8497500D02*
X15202500Y-8527500D01*
X15202500Y-8497500D02*
X15172500Y-8527500D01*
X15197000Y-6747000D02*
X15227000Y-6777000D01*
X15227000Y-6747000D02*
X15197000Y-6777000D01*
X15235000Y-8435000D02*
X15265000Y-8465000D01*
X15265000Y-8435000D02*
X15235000Y-8465000D01*
X15539000Y-7831000D02*
X15569000Y-7861000D01*
X15569000Y-7831000D02*
X15539000Y-7861000D01*
X14040000Y-6700000D02*
G75*
G02*
X13960000Y-6700000I-40000J0D01*
G01*
X13960000Y-6700000D02*
G75*
G02*
X14040000Y-6700000I40000J0D01*
G01*
X14540000Y-6700000D02*
G75*
G02*
X14460000Y-6700000I-40000J0D01*
G01*
X14460000Y-6700000D02*
G75*
G02*
X14540000Y-6700000I40000J0D01*
G01*
X10922000Y-6026600D02*
X10922000Y-6126600D01*
X10872000Y-6076600D02*
X10972000Y-6076600D01*
X10922000Y-6280600D02*
X10922000Y-6380600D01*
X10872000Y-6330600D02*
X10972000Y-6330600D01*
X10922000Y-6534600D02*
X10922000Y-6634600D01*
X10872000Y-6584600D02*
X10972000Y-6584600D01*
X10922000Y-6788600D02*
X10922000Y-6888600D01*
X10872000Y-6838600D02*
X10972000Y-6838600D01*
X10922000Y-7042600D02*
X10922000Y-7142600D01*
X10872000Y-7092600D02*
X10972000Y-7092600D01*
X10922000Y-7296600D02*
X10922000Y-7396600D01*
X10872000Y-7346600D02*
X10972000Y-7346600D01*
X10922000Y-7550600D02*
X10922000Y-7650600D01*
X10872000Y-7600600D02*
X10972000Y-7600600D01*
X10922000Y-7804600D02*
X10922000Y-7904600D01*
X10872000Y-7854600D02*
X10972000Y-7854600D01*
X10922000Y-8058600D02*
X10922000Y-8158600D01*
X10872000Y-8108600D02*
X10972000Y-8108600D01*
X10922000Y-8312600D02*
X10922000Y-8412600D01*
X10872000Y-8362600D02*
X10972000Y-8362600D01*
X10922000Y-8566600D02*
X10922000Y-8666600D01*
X10872000Y-8616600D02*
X10972000Y-8616600D01*
X10922000Y-8820600D02*
X10922000Y-8920600D01*
X10872000Y-8870600D02*
X10972000Y-8870600D01*
X10922000Y-9074600D02*
X10922000Y-9174600D01*
X10872000Y-9124600D02*
X10972000Y-9124600D01*
X10922000Y-9328600D02*
X10922000Y-9428600D01*
X10872000Y-9378600D02*
X10972000Y-9378600D01*
X10922000Y-9582600D02*
X10922000Y-9682600D01*
X10872000Y-9632600D02*
X10972000Y-9632600D01*
X10922000Y-9836600D02*
X10922000Y-9936600D01*
X10872000Y-9886600D02*
X10972000Y-9886600D01*
X12954580Y-7042960D02*
X12954580Y-7142960D01*
X12904580Y-7092960D02*
X13004580Y-7092960D01*
X12954580Y-7296960D02*
X12954580Y-7396960D01*
X12904580Y-7346960D02*
X13004580Y-7346960D01*
X12954580Y-7550960D02*
X12954580Y-7650960D01*
X12904580Y-7600960D02*
X13004580Y-7600960D01*
X12954580Y-7804960D02*
X12954580Y-7904960D01*
X12904580Y-7854960D02*
X13004580Y-7854960D01*
X12954580Y-8058960D02*
X12954580Y-8158960D01*
X12904580Y-8108960D02*
X13004580Y-8108960D01*
X12954580Y-8312960D02*
X12954580Y-8412960D01*
X12904580Y-8362960D02*
X13004580Y-8362960D01*
X12954580Y-8566960D02*
X12954580Y-8666960D01*
X12904580Y-8616960D02*
X13004580Y-8616960D01*
X12954580Y-8820960D02*
X12954580Y-8920960D01*
X12904580Y-8870960D02*
X13004580Y-8870960D01*
X12954580Y-9074960D02*
X12954580Y-9174960D01*
X12904580Y-9124960D02*
X13004580Y-9124960D01*
X12954580Y-9328960D02*
X12954580Y-9428960D01*
X12904580Y-9378960D02*
X13004580Y-9378960D01*
X12954580Y-9582960D02*
X12954580Y-9682960D01*
X12904580Y-9632960D02*
X13004580Y-9632960D01*
X12954580Y-9836960D02*
X12954580Y-9936960D01*
X12904580Y-9886960D02*
X13004580Y-9886960D01*
D13*
X11030891Y-11388891D02*
X11030891Y-11311109D01*
X10953109Y-11311109D01*
X10953109Y-11388891D01*
X11030891Y-11388891D01*
X11284891Y-11388891D02*
X11284891Y-11311109D01*
X11207109Y-11311109D01*
X11207109Y-11388891D01*
X11284891Y-11388891D01*
X11538891Y-11388891D02*
X11538891Y-11311109D01*
X11461109Y-11311109D01*
X11461109Y-11388891D01*
X11538891Y-11388891D01*
X12180891Y-11388891D02*
X12180891Y-11311109D01*
X12103109Y-11311109D01*
X12103109Y-11388891D01*
X12180891Y-11388891D01*
X12434891Y-11388891D02*
X12434891Y-11311109D01*
X12357109Y-11311109D01*
X12357109Y-11388891D01*
X12434891Y-11388891D01*
X12688891Y-11388891D02*
X12688891Y-11311109D01*
X12611109Y-11311109D01*
X12611109Y-11388891D01*
X12688891Y-11388891D01*
X13284891Y-11388891D02*
X13284891Y-11311109D01*
X13207109Y-11311109D01*
X13207109Y-11388891D01*
X13284891Y-11388891D01*
X13426891Y-5638891D02*
X13426891Y-5561109D01*
X13349109Y-5561109D01*
X13349109Y-5638891D01*
X13426891Y-5638891D01*
X13538891Y-11388891D02*
X13538891Y-11311109D01*
X13461109Y-11311109D01*
X13461109Y-11388891D01*
X13538891Y-11388891D01*
X13680891Y-5638891D02*
X13680891Y-5561109D01*
X13603109Y-5561109D01*
X13603109Y-5638891D01*
X13680891Y-5638891D01*
X13934891Y-5638891D02*
X13934891Y-5561109D01*
X13857109Y-5561109D01*
X13857109Y-5638891D01*
X13934891Y-5638891D01*
X14138891Y-11388891D02*
X14138891Y-11311109D01*
X14061109Y-11311109D01*
X14061109Y-11388891D01*
X14138891Y-11388891D01*
X14188891Y-5638891D02*
X14188891Y-5561109D01*
X14111109Y-5561109D01*
X14111109Y-5638891D01*
X14188891Y-5638891D01*
X14392891Y-11388891D02*
X14392891Y-11311109D01*
X14315109Y-11311109D01*
X14315109Y-11388891D01*
X14392891Y-11388891D01*
X14730891Y-5638891D02*
X14730891Y-5561109D01*
X14653109Y-5561109D01*
X14653109Y-5638891D01*
X14730891Y-5638891D01*
X14984891Y-5638891D02*
X14984891Y-5561109D01*
X14907109Y-5561109D01*
X14907109Y-5638891D01*
X14984891Y-5638891D01*
X14984891Y-11388891D02*
X14984891Y-11311109D01*
X14907109Y-11311109D01*
X14907109Y-11388891D01*
X14984891Y-11388891D01*
X15238891Y-5638891D02*
X15238891Y-5561109D01*
X15161109Y-5561109D01*
X15161109Y-5638891D01*
X15238891Y-5638891D01*
X15238891Y-11388891D02*
X15238891Y-11311109D01*
X15161109Y-11311109D01*
X15161109Y-11388891D01*
X15238891Y-11388891D01*
X15938891Y-6038891D02*
X15938891Y-5961109D01*
X15861109Y-5961109D01*
X15861109Y-6038891D01*
X15938891Y-6038891D01*
X15938891Y-6292891D02*
X15938891Y-6215109D01*
X15861109Y-6215109D01*
X15861109Y-6292891D01*
X15938891Y-6292891D01*
X15938891Y-6546891D02*
X15938891Y-6469109D01*
X15861109Y-6469109D01*
X15861109Y-6546891D01*
X15938891Y-6546891D01*
X15938891Y-6800891D02*
X15938891Y-6723109D01*
X15861109Y-6723109D01*
X15861109Y-6800891D01*
X15938891Y-6800891D01*
X15938891Y-7376891D02*
X15938891Y-7299109D01*
X15861109Y-7299109D01*
X15861109Y-7376891D01*
X15938891Y-7376891D01*
X15938891Y-7630891D02*
X15938891Y-7553109D01*
X15861109Y-7553109D01*
X15861109Y-7630891D01*
X15938891Y-7630891D01*
X15938891Y-7884891D02*
X15938891Y-7807109D01*
X15861109Y-7807109D01*
X15861109Y-7884891D01*
X15938891Y-7884891D01*
X15938891Y-8138891D02*
X15938891Y-8061109D01*
X15861109Y-8061109D01*
X15861109Y-8138891D01*
X15938891Y-8138891D01*
X15938891Y-8392891D02*
X15938891Y-8315109D01*
X15861109Y-8315109D01*
X15861109Y-8392891D01*
X15938891Y-8392891D01*
X15938891Y-8984891D02*
X15938891Y-8907109D01*
X15861109Y-8907109D01*
X15861109Y-8984891D01*
X15938891Y-8984891D01*
X15938891Y-9238891D02*
X15938891Y-9161109D01*
X15861109Y-9161109D01*
X15861109Y-9238891D01*
X15938891Y-9238891D01*
X15938891Y-9738891D02*
X15938891Y-9661109D01*
X15861109Y-9661109D01*
X15861109Y-9738891D01*
X15938891Y-9738891D01*
X15938891Y-9992891D02*
X15938891Y-9915109D01*
X15861109Y-9915109D01*
X15861109Y-9992891D01*
X15938891Y-9992891D01*
X15938891Y-10530891D02*
X15938891Y-10453109D01*
X15861109Y-10453109D01*
X15861109Y-10530891D01*
X15938891Y-10530891D01*
X15938891Y-10784891D02*
X15938891Y-10707109D01*
X15861109Y-10707109D01*
X15861109Y-10784891D01*
X15938891Y-10784891D01*
X15938891Y-11038891D02*
X15938891Y-10961109D01*
X15861109Y-10961109D01*
X15861109Y-11038891D01*
X15938891Y-11038891D01*
D11*
X10258277Y-12313984D02*
X10258277Y-12113984D01*
X10258277Y-12113984D02*
X10305896Y-12113984D01*
X10305896Y-12113984D02*
X10334467Y-12123508D01*
X10334467Y-12123508D02*
X10353515Y-12142555D01*
X10353515Y-12142555D02*
X10363039Y-12161603D01*
X10363039Y-12161603D02*
X10372563Y-12199698D01*
X10372563Y-12199698D02*
X10372563Y-12228269D01*
X10372563Y-12228269D02*
X10363039Y-12266365D01*
X10363039Y-12266365D02*
X10353515Y-12285412D01*
X10353515Y-12285412D02*
X10334467Y-12304460D01*
X10334467Y-12304460D02*
X10305896Y-12313984D01*
X10305896Y-12313984D02*
X10258277Y-12313984D01*
X10458277Y-12313984D02*
X10458277Y-12180650D01*
X10458277Y-12218746D02*
X10467801Y-12199698D01*
X10467801Y-12199698D02*
X10477324Y-12190174D01*
X10477324Y-12190174D02*
X10496372Y-12180650D01*
X10496372Y-12180650D02*
X10515420Y-12180650D01*
X10582086Y-12313984D02*
X10582086Y-12180650D01*
X10582086Y-12113984D02*
X10572563Y-12123508D01*
X10572563Y-12123508D02*
X10582086Y-12133031D01*
X10582086Y-12133031D02*
X10591610Y-12123508D01*
X10591610Y-12123508D02*
X10582086Y-12113984D01*
X10582086Y-12113984D02*
X10582086Y-12133031D01*
X10705896Y-12313984D02*
X10686848Y-12304460D01*
X10686848Y-12304460D02*
X10677324Y-12285412D01*
X10677324Y-12285412D02*
X10677324Y-12113984D01*
X10810658Y-12313984D02*
X10791610Y-12304460D01*
X10791610Y-12304460D02*
X10782086Y-12285412D01*
X10782086Y-12285412D02*
X10782086Y-12113984D01*
X11039229Y-12313984D02*
X11039229Y-12113984D01*
X11039229Y-12113984D02*
X11105896Y-12256841D01*
X11105896Y-12256841D02*
X11172563Y-12113984D01*
X11172563Y-12113984D02*
X11172563Y-12313984D01*
X11353515Y-12313984D02*
X11353515Y-12209222D01*
X11353515Y-12209222D02*
X11343991Y-12190174D01*
X11343991Y-12190174D02*
X11324943Y-12180650D01*
X11324943Y-12180650D02*
X11286848Y-12180650D01*
X11286848Y-12180650D02*
X11267801Y-12190174D01*
X11353515Y-12304460D02*
X11334467Y-12313984D01*
X11334467Y-12313984D02*
X11286848Y-12313984D01*
X11286848Y-12313984D02*
X11267801Y-12304460D01*
X11267801Y-12304460D02*
X11258277Y-12285412D01*
X11258277Y-12285412D02*
X11258277Y-12266365D01*
X11258277Y-12266365D02*
X11267801Y-12247317D01*
X11267801Y-12247317D02*
X11286848Y-12237793D01*
X11286848Y-12237793D02*
X11334467Y-12237793D01*
X11334467Y-12237793D02*
X11353515Y-12228269D01*
X11448753Y-12180650D02*
X11448753Y-12380650D01*
X11448753Y-12190174D02*
X11467801Y-12180650D01*
X11467801Y-12180650D02*
X11505896Y-12180650D01*
X11505896Y-12180650D02*
X11524943Y-12190174D01*
X11524943Y-12190174D02*
X11534467Y-12199698D01*
X11534467Y-12199698D02*
X11543991Y-12218746D01*
X11543991Y-12218746D02*
X11543991Y-12275888D01*
X11543991Y-12275888D02*
X11534467Y-12294936D01*
X11534467Y-12294936D02*
X11524943Y-12304460D01*
X11524943Y-12304460D02*
X11505896Y-12313984D01*
X11505896Y-12313984D02*
X11467801Y-12313984D01*
X11467801Y-12313984D02*
X11448753Y-12304460D01*
X11629705Y-12294936D02*
X11639229Y-12304460D01*
X11639229Y-12304460D02*
X11629705Y-12313984D01*
X11629705Y-12313984D02*
X11620182Y-12304460D01*
X11620182Y-12304460D02*
X11629705Y-12294936D01*
X11629705Y-12294936D02*
X11629705Y-12313984D01*
X11629705Y-12190174D02*
X11639229Y-12199698D01*
X11639229Y-12199698D02*
X11629705Y-12209222D01*
X11629705Y-12209222D02*
X11620182Y-12199698D01*
X11620182Y-12199698D02*
X11629705Y-12190174D01*
X11629705Y-12190174D02*
X11629705Y-12209222D01*
D12*
X9967500Y-12627500D02*
X9997500Y-12657500D01*
X9997500Y-12627500D02*
X9967500Y-12657500D01*
D11*
X10296372Y-12533984D02*
X10315420Y-12533984D01*
X10315420Y-12533984D02*
X10334467Y-12543508D01*
X10334467Y-12543508D02*
X10343991Y-12553031D01*
X10343991Y-12553031D02*
X10353515Y-12572079D01*
X10353515Y-12572079D02*
X10363039Y-12610174D01*
X10363039Y-12610174D02*
X10363039Y-12657793D01*
X10363039Y-12657793D02*
X10353515Y-12695888D01*
X10353515Y-12695888D02*
X10343991Y-12714936D01*
X10343991Y-12714936D02*
X10334467Y-12724460D01*
X10334467Y-12724460D02*
X10315420Y-12733984D01*
X10315420Y-12733984D02*
X10296372Y-12733984D01*
X10296372Y-12733984D02*
X10277324Y-12724460D01*
X10277324Y-12724460D02*
X10267801Y-12714936D01*
X10267801Y-12714936D02*
X10258277Y-12695888D01*
X10258277Y-12695888D02*
X10248753Y-12657793D01*
X10248753Y-12657793D02*
X10248753Y-12610174D01*
X10248753Y-12610174D02*
X10258277Y-12572079D01*
X10258277Y-12572079D02*
X10267801Y-12553031D01*
X10267801Y-12553031D02*
X10277324Y-12543508D01*
X10277324Y-12543508D02*
X10296372Y-12533984D01*
X10448753Y-12714936D02*
X10458277Y-12724460D01*
X10458277Y-12724460D02*
X10448753Y-12733984D01*
X10448753Y-12733984D02*
X10439229Y-12724460D01*
X10439229Y-12724460D02*
X10448753Y-12714936D01*
X10448753Y-12714936D02*
X10448753Y-12733984D01*
X10524944Y-12533984D02*
X10648753Y-12533984D01*
X10648753Y-12533984D02*
X10582086Y-12610174D01*
X10582086Y-12610174D02*
X10610658Y-12610174D01*
X10610658Y-12610174D02*
X10629705Y-12619698D01*
X10629705Y-12619698D02*
X10639229Y-12629222D01*
X10639229Y-12629222D02*
X10648753Y-12648269D01*
X10648753Y-12648269D02*
X10648753Y-12695888D01*
X10648753Y-12695888D02*
X10639229Y-12714936D01*
X10639229Y-12714936D02*
X10629705Y-12724460D01*
X10629705Y-12724460D02*
X10610658Y-12733984D01*
X10610658Y-12733984D02*
X10553515Y-12733984D01*
X10553515Y-12733984D02*
X10534467Y-12724460D01*
X10534467Y-12724460D02*
X10524944Y-12714936D01*
X10772563Y-12533984D02*
X10791610Y-12533984D01*
X10791610Y-12533984D02*
X10810658Y-12543508D01*
X10810658Y-12543508D02*
X10820182Y-12553031D01*
X10820182Y-12553031D02*
X10829705Y-12572079D01*
X10829705Y-12572079D02*
X10839229Y-12610174D01*
X10839229Y-12610174D02*
X10839229Y-12657793D01*
X10839229Y-12657793D02*
X10829705Y-12695888D01*
X10829705Y-12695888D02*
X10820182Y-12714936D01*
X10820182Y-12714936D02*
X10810658Y-12724460D01*
X10810658Y-12724460D02*
X10791610Y-12733984D01*
X10791610Y-12733984D02*
X10772563Y-12733984D01*
X10772563Y-12733984D02*
X10753515Y-12724460D01*
X10753515Y-12724460D02*
X10743991Y-12714936D01*
X10743991Y-12714936D02*
X10734467Y-12695888D01*
X10734467Y-12695888D02*
X10724944Y-12657793D01*
X10724944Y-12657793D02*
X10724944Y-12610174D01*
X10724944Y-12610174D02*
X10734467Y-12572079D01*
X10734467Y-12572079D02*
X10743991Y-12553031D01*
X10743991Y-12553031D02*
X10753515Y-12543508D01*
X10753515Y-12543508D02*
X10772563Y-12533984D01*
X10963039Y-12533984D02*
X10982086Y-12533984D01*
X10982086Y-12533984D02*
X11001134Y-12543508D01*
X11001134Y-12543508D02*
X11010658Y-12553031D01*
X11010658Y-12553031D02*
X11020182Y-12572079D01*
X11020182Y-12572079D02*
X11029705Y-12610174D01*
X11029705Y-12610174D02*
X11029705Y-12657793D01*
X11029705Y-12657793D02*
X11020182Y-12695888D01*
X11020182Y-12695888D02*
X11010658Y-12714936D01*
X11010658Y-12714936D02*
X11001134Y-12724460D01*
X11001134Y-12724460D02*
X10982086Y-12733984D01*
X10982086Y-12733984D02*
X10963039Y-12733984D01*
X10963039Y-12733984D02*
X10943991Y-12724460D01*
X10943991Y-12724460D02*
X10934467Y-12714936D01*
X10934467Y-12714936D02*
X10924944Y-12695888D01*
X10924944Y-12695888D02*
X10915420Y-12657793D01*
X10915420Y-12657793D02*
X10915420Y-12610174D01*
X10915420Y-12610174D02*
X10924944Y-12572079D01*
X10924944Y-12572079D02*
X10934467Y-12553031D01*
X10934467Y-12553031D02*
X10943991Y-12543508D01*
X10943991Y-12543508D02*
X10963039Y-12533984D01*
X11115420Y-12733984D02*
X11115420Y-12600650D01*
X11115420Y-12619698D02*
X11124944Y-12610174D01*
X11124944Y-12610174D02*
X11143991Y-12600650D01*
X11143991Y-12600650D02*
X11172563Y-12600650D01*
X11172563Y-12600650D02*
X11191610Y-12610174D01*
X11191610Y-12610174D02*
X11201134Y-12629222D01*
X11201134Y-12629222D02*
X11201134Y-12733984D01*
X11201134Y-12629222D02*
X11210658Y-12610174D01*
X11210658Y-12610174D02*
X11229705Y-12600650D01*
X11229705Y-12600650D02*
X11258277Y-12600650D01*
X11258277Y-12600650D02*
X11277324Y-12610174D01*
X11277324Y-12610174D02*
X11286848Y-12629222D01*
X11286848Y-12629222D02*
X11286848Y-12733984D01*
X11382086Y-12733984D02*
X11382086Y-12600650D01*
X11382086Y-12619698D02*
X11391610Y-12610174D01*
X11391610Y-12610174D02*
X11410658Y-12600650D01*
X11410658Y-12600650D02*
X11439229Y-12600650D01*
X11439229Y-12600650D02*
X11458277Y-12610174D01*
X11458277Y-12610174D02*
X11467801Y-12629222D01*
X11467801Y-12629222D02*
X11467801Y-12733984D01*
X11467801Y-12629222D02*
X11477324Y-12610174D01*
X11477324Y-12610174D02*
X11496372Y-12600650D01*
X11496372Y-12600650D02*
X11524943Y-12600650D01*
X11524943Y-12600650D02*
X11543991Y-12610174D01*
X11543991Y-12610174D02*
X11553515Y-12629222D01*
X11553515Y-12629222D02*
X11553515Y-12733984D01*
X11943991Y-12524460D02*
X11772563Y-12781603D01*
X12201134Y-12533984D02*
X12220182Y-12533984D01*
X12220182Y-12533984D02*
X12239229Y-12543508D01*
X12239229Y-12543508D02*
X12248753Y-12553031D01*
X12248753Y-12553031D02*
X12258277Y-12572079D01*
X12258277Y-12572079D02*
X12267801Y-12610174D01*
X12267801Y-12610174D02*
X12267801Y-12657793D01*
X12267801Y-12657793D02*
X12258277Y-12695888D01*
X12258277Y-12695888D02*
X12248753Y-12714936D01*
X12248753Y-12714936D02*
X12239229Y-12724460D01*
X12239229Y-12724460D02*
X12220182Y-12733984D01*
X12220182Y-12733984D02*
X12201134Y-12733984D01*
X12201134Y-12733984D02*
X12182086Y-12724460D01*
X12182086Y-12724460D02*
X12172563Y-12714936D01*
X12172563Y-12714936D02*
X12163039Y-12695888D01*
X12163039Y-12695888D02*
X12153515Y-12657793D01*
X12153515Y-12657793D02*
X12153515Y-12610174D01*
X12153515Y-12610174D02*
X12163039Y-12572079D01*
X12163039Y-12572079D02*
X12172563Y-12553031D01*
X12172563Y-12553031D02*
X12182086Y-12543508D01*
X12182086Y-12543508D02*
X12201134Y-12533984D01*
X12353515Y-12714936D02*
X12363039Y-12724460D01*
X12363039Y-12724460D02*
X12353515Y-12733984D01*
X12353515Y-12733984D02*
X12343991Y-12724460D01*
X12343991Y-12724460D02*
X12353515Y-12714936D01*
X12353515Y-12714936D02*
X12353515Y-12733984D01*
X12486848Y-12533984D02*
X12505896Y-12533984D01*
X12505896Y-12533984D02*
X12524944Y-12543508D01*
X12524944Y-12543508D02*
X12534467Y-12553031D01*
X12534467Y-12553031D02*
X12543991Y-12572079D01*
X12543991Y-12572079D02*
X12553515Y-12610174D01*
X12553515Y-12610174D02*
X12553515Y-12657793D01*
X12553515Y-12657793D02*
X12543991Y-12695888D01*
X12543991Y-12695888D02*
X12534467Y-12714936D01*
X12534467Y-12714936D02*
X12524944Y-12724460D01*
X12524944Y-12724460D02*
X12505896Y-12733984D01*
X12505896Y-12733984D02*
X12486848Y-12733984D01*
X12486848Y-12733984D02*
X12467801Y-12724460D01*
X12467801Y-12724460D02*
X12458277Y-12714936D01*
X12458277Y-12714936D02*
X12448753Y-12695888D01*
X12448753Y-12695888D02*
X12439229Y-12657793D01*
X12439229Y-12657793D02*
X12439229Y-12610174D01*
X12439229Y-12610174D02*
X12448753Y-12572079D01*
X12448753Y-12572079D02*
X12458277Y-12553031D01*
X12458277Y-12553031D02*
X12467801Y-12543508D01*
X12467801Y-12543508D02*
X12486848Y-12533984D01*
X12743991Y-12733984D02*
X12629706Y-12733984D01*
X12686848Y-12733984D02*
X12686848Y-12533984D01*
X12686848Y-12533984D02*
X12667801Y-12562555D01*
X12667801Y-12562555D02*
X12648753Y-12581603D01*
X12648753Y-12581603D02*
X12629706Y-12591127D01*
X12934467Y-12733984D02*
X12820182Y-12733984D01*
X12877325Y-12733984D02*
X12877325Y-12533984D01*
X12877325Y-12533984D02*
X12858277Y-12562555D01*
X12858277Y-12562555D02*
X12839229Y-12581603D01*
X12839229Y-12581603D02*
X12820182Y-12591127D01*
X13048753Y-12619698D02*
X13029706Y-12610174D01*
X13029706Y-12610174D02*
X13020182Y-12600650D01*
X13020182Y-12600650D02*
X13010658Y-12581603D01*
X13010658Y-12581603D02*
X13010658Y-12572079D01*
X13010658Y-12572079D02*
X13020182Y-12553031D01*
X13020182Y-12553031D02*
X13029706Y-12543508D01*
X13029706Y-12543508D02*
X13048753Y-12533984D01*
X13048753Y-12533984D02*
X13086848Y-12533984D01*
X13086848Y-12533984D02*
X13105896Y-12543508D01*
X13105896Y-12543508D02*
X13115420Y-12553031D01*
X13115420Y-12553031D02*
X13124944Y-12572079D01*
X13124944Y-12572079D02*
X13124944Y-12581603D01*
X13124944Y-12581603D02*
X13115420Y-12600650D01*
X13115420Y-12600650D02*
X13105896Y-12610174D01*
X13105896Y-12610174D02*
X13086848Y-12619698D01*
X13086848Y-12619698D02*
X13048753Y-12619698D01*
X13048753Y-12619698D02*
X13029706Y-12629222D01*
X13029706Y-12629222D02*
X13020182Y-12638746D01*
X13020182Y-12638746D02*
X13010658Y-12657793D01*
X13010658Y-12657793D02*
X13010658Y-12695888D01*
X13010658Y-12695888D02*
X13020182Y-12714936D01*
X13020182Y-12714936D02*
X13029706Y-12724460D01*
X13029706Y-12724460D02*
X13048753Y-12733984D01*
X13048753Y-12733984D02*
X13086848Y-12733984D01*
X13086848Y-12733984D02*
X13105896Y-12724460D01*
X13105896Y-12724460D02*
X13115420Y-12714936D01*
X13115420Y-12714936D02*
X13124944Y-12695888D01*
X13124944Y-12695888D02*
X13124944Y-12657793D01*
X13124944Y-12657793D02*
X13115420Y-12638746D01*
X13115420Y-12638746D02*
X13105896Y-12629222D01*
X13105896Y-12629222D02*
X13086848Y-12619698D01*
X13201134Y-12533984D02*
X13201134Y-12572079D01*
X13277325Y-12533984D02*
X13277325Y-12572079D01*
X13572563Y-12810174D02*
X13563039Y-12800650D01*
X13563039Y-12800650D02*
X13543991Y-12772079D01*
X13543991Y-12772079D02*
X13534468Y-12753031D01*
X13534468Y-12753031D02*
X13524944Y-12724460D01*
X13524944Y-12724460D02*
X13515420Y-12676841D01*
X13515420Y-12676841D02*
X13515420Y-12638746D01*
X13515420Y-12638746D02*
X13524944Y-12591127D01*
X13524944Y-12591127D02*
X13534468Y-12562555D01*
X13534468Y-12562555D02*
X13543991Y-12543508D01*
X13543991Y-12543508D02*
X13563039Y-12514936D01*
X13563039Y-12514936D02*
X13572563Y-12505412D01*
X13629706Y-12533984D02*
X13763039Y-12533984D01*
X13763039Y-12533984D02*
X13677325Y-12733984D01*
X13848753Y-12733984D02*
X13886848Y-12733984D01*
X13886848Y-12733984D02*
X13905896Y-12724460D01*
X13905896Y-12724460D02*
X13915420Y-12714936D01*
X13915420Y-12714936D02*
X13934468Y-12686365D01*
X13934468Y-12686365D02*
X13943991Y-12648269D01*
X13943991Y-12648269D02*
X13943991Y-12572079D01*
X13943991Y-12572079D02*
X13934468Y-12553031D01*
X13934468Y-12553031D02*
X13924944Y-12543508D01*
X13924944Y-12543508D02*
X13905896Y-12533984D01*
X13905896Y-12533984D02*
X13867801Y-12533984D01*
X13867801Y-12533984D02*
X13848753Y-12543508D01*
X13848753Y-12543508D02*
X13839229Y-12553031D01*
X13839229Y-12553031D02*
X13829706Y-12572079D01*
X13829706Y-12572079D02*
X13829706Y-12619698D01*
X13829706Y-12619698D02*
X13839229Y-12638746D01*
X13839229Y-12638746D02*
X13848753Y-12648269D01*
X13848753Y-12648269D02*
X13867801Y-12657793D01*
X13867801Y-12657793D02*
X13905896Y-12657793D01*
X13905896Y-12657793D02*
X13924944Y-12648269D01*
X13924944Y-12648269D02*
X13934468Y-12638746D01*
X13934468Y-12638746D02*
X13943991Y-12619698D01*
X14182087Y-12733984D02*
X14182087Y-12533984D01*
X14267801Y-12733984D02*
X14267801Y-12629222D01*
X14267801Y-12629222D02*
X14258277Y-12610174D01*
X14258277Y-12610174D02*
X14239230Y-12600650D01*
X14239230Y-12600650D02*
X14210658Y-12600650D01*
X14210658Y-12600650D02*
X14191610Y-12610174D01*
X14191610Y-12610174D02*
X14182087Y-12619698D01*
X14391610Y-12733984D02*
X14372563Y-12724460D01*
X14372563Y-12724460D02*
X14363039Y-12714936D01*
X14363039Y-12714936D02*
X14353515Y-12695888D01*
X14353515Y-12695888D02*
X14353515Y-12638746D01*
X14353515Y-12638746D02*
X14363039Y-12619698D01*
X14363039Y-12619698D02*
X14372563Y-12610174D01*
X14372563Y-12610174D02*
X14391610Y-12600650D01*
X14391610Y-12600650D02*
X14420182Y-12600650D01*
X14420182Y-12600650D02*
X14439230Y-12610174D01*
X14439230Y-12610174D02*
X14448753Y-12619698D01*
X14448753Y-12619698D02*
X14458277Y-12638746D01*
X14458277Y-12638746D02*
X14458277Y-12695888D01*
X14458277Y-12695888D02*
X14448753Y-12714936D01*
X14448753Y-12714936D02*
X14439230Y-12724460D01*
X14439230Y-12724460D02*
X14420182Y-12733984D01*
X14420182Y-12733984D02*
X14391610Y-12733984D01*
X14572563Y-12733984D02*
X14553515Y-12724460D01*
X14553515Y-12724460D02*
X14543991Y-12705412D01*
X14543991Y-12705412D02*
X14543991Y-12533984D01*
X14724944Y-12724460D02*
X14705896Y-12733984D01*
X14705896Y-12733984D02*
X14667801Y-12733984D01*
X14667801Y-12733984D02*
X14648753Y-12724460D01*
X14648753Y-12724460D02*
X14639230Y-12705412D01*
X14639230Y-12705412D02*
X14639230Y-12629222D01*
X14639230Y-12629222D02*
X14648753Y-12610174D01*
X14648753Y-12610174D02*
X14667801Y-12600650D01*
X14667801Y-12600650D02*
X14705896Y-12600650D01*
X14705896Y-12600650D02*
X14724944Y-12610174D01*
X14724944Y-12610174D02*
X14734468Y-12629222D01*
X14734468Y-12629222D02*
X14734468Y-12648269D01*
X14734468Y-12648269D02*
X14639230Y-12667317D01*
X14810658Y-12724460D02*
X14829706Y-12733984D01*
X14829706Y-12733984D02*
X14867801Y-12733984D01*
X14867801Y-12733984D02*
X14886849Y-12724460D01*
X14886849Y-12724460D02*
X14896372Y-12705412D01*
X14896372Y-12705412D02*
X14896372Y-12695888D01*
X14896372Y-12695888D02*
X14886849Y-12676841D01*
X14886849Y-12676841D02*
X14867801Y-12667317D01*
X14867801Y-12667317D02*
X14839230Y-12667317D01*
X14839230Y-12667317D02*
X14820182Y-12657793D01*
X14820182Y-12657793D02*
X14810658Y-12638746D01*
X14810658Y-12638746D02*
X14810658Y-12629222D01*
X14810658Y-12629222D02*
X14820182Y-12610174D01*
X14820182Y-12610174D02*
X14839230Y-12600650D01*
X14839230Y-12600650D02*
X14867801Y-12600650D01*
X14867801Y-12600650D02*
X14886849Y-12610174D01*
X14963039Y-12810174D02*
X14972563Y-12800650D01*
X14972563Y-12800650D02*
X14991611Y-12772079D01*
X14991611Y-12772079D02*
X15001134Y-12753031D01*
X15001134Y-12753031D02*
X15010658Y-12724460D01*
X15010658Y-12724460D02*
X15020182Y-12676841D01*
X15020182Y-12676841D02*
X15020182Y-12638746D01*
X15020182Y-12638746D02*
X15010658Y-12591127D01*
X15010658Y-12591127D02*
X15001134Y-12562555D01*
X15001134Y-12562555D02*
X14991611Y-12543508D01*
X14991611Y-12543508D02*
X14972563Y-12514936D01*
X14972563Y-12514936D02*
X14963039Y-12505412D01*
D12*
X9997500Y-12906500D02*
G75*
G02*
X9917500Y-12906500I-40000J0D01*
G01*
X9917500Y-12906500D02*
G75*
G02*
X9997500Y-12906500I40000J0D01*
G01*
D11*
X10296372Y-12797984D02*
X10315420Y-12797984D01*
X10315420Y-12797984D02*
X10334467Y-12807508D01*
X10334467Y-12807508D02*
X10343991Y-12817031D01*
X10343991Y-12817031D02*
X10353515Y-12836079D01*
X10353515Y-12836079D02*
X10363039Y-12874174D01*
X10363039Y-12874174D02*
X10363039Y-12921793D01*
X10363039Y-12921793D02*
X10353515Y-12959888D01*
X10353515Y-12959888D02*
X10343991Y-12978936D01*
X10343991Y-12978936D02*
X10334467Y-12988460D01*
X10334467Y-12988460D02*
X10315420Y-12997984D01*
X10315420Y-12997984D02*
X10296372Y-12997984D01*
X10296372Y-12997984D02*
X10277324Y-12988460D01*
X10277324Y-12988460D02*
X10267801Y-12978936D01*
X10267801Y-12978936D02*
X10258277Y-12959888D01*
X10258277Y-12959888D02*
X10248753Y-12921793D01*
X10248753Y-12921793D02*
X10248753Y-12874174D01*
X10248753Y-12874174D02*
X10258277Y-12836079D01*
X10258277Y-12836079D02*
X10267801Y-12817031D01*
X10267801Y-12817031D02*
X10277324Y-12807508D01*
X10277324Y-12807508D02*
X10296372Y-12797984D01*
X10448753Y-12978936D02*
X10458277Y-12988460D01*
X10458277Y-12988460D02*
X10448753Y-12997984D01*
X10448753Y-12997984D02*
X10439229Y-12988460D01*
X10439229Y-12988460D02*
X10448753Y-12978936D01*
X10448753Y-12978936D02*
X10448753Y-12997984D01*
X10572563Y-12883698D02*
X10553515Y-12874174D01*
X10553515Y-12874174D02*
X10543991Y-12864650D01*
X10543991Y-12864650D02*
X10534467Y-12845603D01*
X10534467Y-12845603D02*
X10534467Y-12836079D01*
X10534467Y-12836079D02*
X10543991Y-12817031D01*
X10543991Y-12817031D02*
X10553515Y-12807508D01*
X10553515Y-12807508D02*
X10572563Y-12797984D01*
X10572563Y-12797984D02*
X10610658Y-12797984D01*
X10610658Y-12797984D02*
X10629705Y-12807508D01*
X10629705Y-12807508D02*
X10639229Y-12817031D01*
X10639229Y-12817031D02*
X10648753Y-12836079D01*
X10648753Y-12836079D02*
X10648753Y-12845603D01*
X10648753Y-12845603D02*
X10639229Y-12864650D01*
X10639229Y-12864650D02*
X10629705Y-12874174D01*
X10629705Y-12874174D02*
X10610658Y-12883698D01*
X10610658Y-12883698D02*
X10572563Y-12883698D01*
X10572563Y-12883698D02*
X10553515Y-12893222D01*
X10553515Y-12893222D02*
X10543991Y-12902746D01*
X10543991Y-12902746D02*
X10534467Y-12921793D01*
X10534467Y-12921793D02*
X10534467Y-12959888D01*
X10534467Y-12959888D02*
X10543991Y-12978936D01*
X10543991Y-12978936D02*
X10553515Y-12988460D01*
X10553515Y-12988460D02*
X10572563Y-12997984D01*
X10572563Y-12997984D02*
X10610658Y-12997984D01*
X10610658Y-12997984D02*
X10629705Y-12988460D01*
X10629705Y-12988460D02*
X10639229Y-12978936D01*
X10639229Y-12978936D02*
X10648753Y-12959888D01*
X10648753Y-12959888D02*
X10648753Y-12921793D01*
X10648753Y-12921793D02*
X10639229Y-12902746D01*
X10639229Y-12902746D02*
X10629705Y-12893222D01*
X10629705Y-12893222D02*
X10610658Y-12883698D01*
X10772563Y-12797984D02*
X10791610Y-12797984D01*
X10791610Y-12797984D02*
X10810658Y-12807508D01*
X10810658Y-12807508D02*
X10820182Y-12817031D01*
X10820182Y-12817031D02*
X10829705Y-12836079D01*
X10829705Y-12836079D02*
X10839229Y-12874174D01*
X10839229Y-12874174D02*
X10839229Y-12921793D01*
X10839229Y-12921793D02*
X10829705Y-12959888D01*
X10829705Y-12959888D02*
X10820182Y-12978936D01*
X10820182Y-12978936D02*
X10810658Y-12988460D01*
X10810658Y-12988460D02*
X10791610Y-12997984D01*
X10791610Y-12997984D02*
X10772563Y-12997984D01*
X10772563Y-12997984D02*
X10753515Y-12988460D01*
X10753515Y-12988460D02*
X10743991Y-12978936D01*
X10743991Y-12978936D02*
X10734467Y-12959888D01*
X10734467Y-12959888D02*
X10724944Y-12921793D01*
X10724944Y-12921793D02*
X10724944Y-12874174D01*
X10724944Y-12874174D02*
X10734467Y-12836079D01*
X10734467Y-12836079D02*
X10743991Y-12817031D01*
X10743991Y-12817031D02*
X10753515Y-12807508D01*
X10753515Y-12807508D02*
X10772563Y-12797984D01*
X10963039Y-12797984D02*
X10982086Y-12797984D01*
X10982086Y-12797984D02*
X11001134Y-12807508D01*
X11001134Y-12807508D02*
X11010658Y-12817031D01*
X11010658Y-12817031D02*
X11020182Y-12836079D01*
X11020182Y-12836079D02*
X11029705Y-12874174D01*
X11029705Y-12874174D02*
X11029705Y-12921793D01*
X11029705Y-12921793D02*
X11020182Y-12959888D01*
X11020182Y-12959888D02*
X11010658Y-12978936D01*
X11010658Y-12978936D02*
X11001134Y-12988460D01*
X11001134Y-12988460D02*
X10982086Y-12997984D01*
X10982086Y-12997984D02*
X10963039Y-12997984D01*
X10963039Y-12997984D02*
X10943991Y-12988460D01*
X10943991Y-12988460D02*
X10934467Y-12978936D01*
X10934467Y-12978936D02*
X10924944Y-12959888D01*
X10924944Y-12959888D02*
X10915420Y-12921793D01*
X10915420Y-12921793D02*
X10915420Y-12874174D01*
X10915420Y-12874174D02*
X10924944Y-12836079D01*
X10924944Y-12836079D02*
X10934467Y-12817031D01*
X10934467Y-12817031D02*
X10943991Y-12807508D01*
X10943991Y-12807508D02*
X10963039Y-12797984D01*
X11115420Y-12997984D02*
X11115420Y-12864650D01*
X11115420Y-12883698D02*
X11124944Y-12874174D01*
X11124944Y-12874174D02*
X11143991Y-12864650D01*
X11143991Y-12864650D02*
X11172563Y-12864650D01*
X11172563Y-12864650D02*
X11191610Y-12874174D01*
X11191610Y-12874174D02*
X11201134Y-12893222D01*
X11201134Y-12893222D02*
X11201134Y-12997984D01*
X11201134Y-12893222D02*
X11210658Y-12874174D01*
X11210658Y-12874174D02*
X11229705Y-12864650D01*
X11229705Y-12864650D02*
X11258277Y-12864650D01*
X11258277Y-12864650D02*
X11277324Y-12874174D01*
X11277324Y-12874174D02*
X11286848Y-12893222D01*
X11286848Y-12893222D02*
X11286848Y-12997984D01*
X11382086Y-12997984D02*
X11382086Y-12864650D01*
X11382086Y-12883698D02*
X11391610Y-12874174D01*
X11391610Y-12874174D02*
X11410658Y-12864650D01*
X11410658Y-12864650D02*
X11439229Y-12864650D01*
X11439229Y-12864650D02*
X11458277Y-12874174D01*
X11458277Y-12874174D02*
X11467801Y-12893222D01*
X11467801Y-12893222D02*
X11467801Y-12997984D01*
X11467801Y-12893222D02*
X11477324Y-12874174D01*
X11477324Y-12874174D02*
X11496372Y-12864650D01*
X11496372Y-12864650D02*
X11524943Y-12864650D01*
X11524943Y-12864650D02*
X11543991Y-12874174D01*
X11543991Y-12874174D02*
X11553515Y-12893222D01*
X11553515Y-12893222D02*
X11553515Y-12997984D01*
X11943991Y-12788460D02*
X11772563Y-13045603D01*
X12201134Y-12797984D02*
X12220182Y-12797984D01*
X12220182Y-12797984D02*
X12239229Y-12807508D01*
X12239229Y-12807508D02*
X12248753Y-12817031D01*
X12248753Y-12817031D02*
X12258277Y-12836079D01*
X12258277Y-12836079D02*
X12267801Y-12874174D01*
X12267801Y-12874174D02*
X12267801Y-12921793D01*
X12267801Y-12921793D02*
X12258277Y-12959888D01*
X12258277Y-12959888D02*
X12248753Y-12978936D01*
X12248753Y-12978936D02*
X12239229Y-12988460D01*
X12239229Y-12988460D02*
X12220182Y-12997984D01*
X12220182Y-12997984D02*
X12201134Y-12997984D01*
X12201134Y-12997984D02*
X12182086Y-12988460D01*
X12182086Y-12988460D02*
X12172563Y-12978936D01*
X12172563Y-12978936D02*
X12163039Y-12959888D01*
X12163039Y-12959888D02*
X12153515Y-12921793D01*
X12153515Y-12921793D02*
X12153515Y-12874174D01*
X12153515Y-12874174D02*
X12163039Y-12836079D01*
X12163039Y-12836079D02*
X12172563Y-12817031D01*
X12172563Y-12817031D02*
X12182086Y-12807508D01*
X12182086Y-12807508D02*
X12201134Y-12797984D01*
X12353515Y-12978936D02*
X12363039Y-12988460D01*
X12363039Y-12988460D02*
X12353515Y-12997984D01*
X12353515Y-12997984D02*
X12343991Y-12988460D01*
X12343991Y-12988460D02*
X12353515Y-12978936D01*
X12353515Y-12978936D02*
X12353515Y-12997984D01*
X12486848Y-12797984D02*
X12505896Y-12797984D01*
X12505896Y-12797984D02*
X12524944Y-12807508D01*
X12524944Y-12807508D02*
X12534467Y-12817031D01*
X12534467Y-12817031D02*
X12543991Y-12836079D01*
X12543991Y-12836079D02*
X12553515Y-12874174D01*
X12553515Y-12874174D02*
X12553515Y-12921793D01*
X12553515Y-12921793D02*
X12543991Y-12959888D01*
X12543991Y-12959888D02*
X12534467Y-12978936D01*
X12534467Y-12978936D02*
X12524944Y-12988460D01*
X12524944Y-12988460D02*
X12505896Y-12997984D01*
X12505896Y-12997984D02*
X12486848Y-12997984D01*
X12486848Y-12997984D02*
X12467801Y-12988460D01*
X12467801Y-12988460D02*
X12458277Y-12978936D01*
X12458277Y-12978936D02*
X12448753Y-12959888D01*
X12448753Y-12959888D02*
X12439229Y-12921793D01*
X12439229Y-12921793D02*
X12439229Y-12874174D01*
X12439229Y-12874174D02*
X12448753Y-12836079D01*
X12448753Y-12836079D02*
X12458277Y-12817031D01*
X12458277Y-12817031D02*
X12467801Y-12807508D01*
X12467801Y-12807508D02*
X12486848Y-12797984D01*
X12620182Y-12797984D02*
X12743991Y-12797984D01*
X12743991Y-12797984D02*
X12677325Y-12874174D01*
X12677325Y-12874174D02*
X12705896Y-12874174D01*
X12705896Y-12874174D02*
X12724944Y-12883698D01*
X12724944Y-12883698D02*
X12734467Y-12893222D01*
X12734467Y-12893222D02*
X12743991Y-12912269D01*
X12743991Y-12912269D02*
X12743991Y-12959888D01*
X12743991Y-12959888D02*
X12734467Y-12978936D01*
X12734467Y-12978936D02*
X12724944Y-12988460D01*
X12724944Y-12988460D02*
X12705896Y-12997984D01*
X12705896Y-12997984D02*
X12648753Y-12997984D01*
X12648753Y-12997984D02*
X12629706Y-12988460D01*
X12629706Y-12988460D02*
X12620182Y-12978936D01*
X12934467Y-12997984D02*
X12820182Y-12997984D01*
X12877325Y-12997984D02*
X12877325Y-12797984D01*
X12877325Y-12797984D02*
X12858277Y-12826555D01*
X12858277Y-12826555D02*
X12839229Y-12845603D01*
X12839229Y-12845603D02*
X12820182Y-12855127D01*
X13115420Y-12797984D02*
X13020182Y-12797984D01*
X13020182Y-12797984D02*
X13010658Y-12893222D01*
X13010658Y-12893222D02*
X13020182Y-12883698D01*
X13020182Y-12883698D02*
X13039229Y-12874174D01*
X13039229Y-12874174D02*
X13086848Y-12874174D01*
X13086848Y-12874174D02*
X13105896Y-12883698D01*
X13105896Y-12883698D02*
X13115420Y-12893222D01*
X13115420Y-12893222D02*
X13124944Y-12912269D01*
X13124944Y-12912269D02*
X13124944Y-12959888D01*
X13124944Y-12959888D02*
X13115420Y-12978936D01*
X13115420Y-12978936D02*
X13105896Y-12988460D01*
X13105896Y-12988460D02*
X13086848Y-12997984D01*
X13086848Y-12997984D02*
X13039229Y-12997984D01*
X13039229Y-12997984D02*
X13020182Y-12988460D01*
X13020182Y-12988460D02*
X13010658Y-12978936D01*
X13201134Y-12797984D02*
X13201134Y-12836079D01*
X13277325Y-12797984D02*
X13277325Y-12836079D01*
X13572563Y-13074174D02*
X13563039Y-13064650D01*
X13563039Y-13064650D02*
X13543991Y-13036079D01*
X13543991Y-13036079D02*
X13534468Y-13017031D01*
X13534468Y-13017031D02*
X13524944Y-12988460D01*
X13524944Y-12988460D02*
X13515420Y-12940841D01*
X13515420Y-12940841D02*
X13515420Y-12902746D01*
X13515420Y-12902746D02*
X13524944Y-12855127D01*
X13524944Y-12855127D02*
X13534468Y-12826555D01*
X13534468Y-12826555D02*
X13543991Y-12807508D01*
X13543991Y-12807508D02*
X13563039Y-12778936D01*
X13563039Y-12778936D02*
X13572563Y-12769412D01*
X13639229Y-12817031D02*
X13648753Y-12807508D01*
X13648753Y-12807508D02*
X13667801Y-12797984D01*
X13667801Y-12797984D02*
X13715420Y-12797984D01*
X13715420Y-12797984D02*
X13734468Y-12807508D01*
X13734468Y-12807508D02*
X13743991Y-12817031D01*
X13743991Y-12817031D02*
X13753515Y-12836079D01*
X13753515Y-12836079D02*
X13753515Y-12855127D01*
X13753515Y-12855127D02*
X13743991Y-12883698D01*
X13743991Y-12883698D02*
X13629706Y-12997984D01*
X13629706Y-12997984D02*
X13753515Y-12997984D01*
X13991610Y-12997984D02*
X13991610Y-12797984D01*
X14077325Y-12997984D02*
X14077325Y-12893222D01*
X14077325Y-12893222D02*
X14067801Y-12874174D01*
X14067801Y-12874174D02*
X14048753Y-12864650D01*
X14048753Y-12864650D02*
X14020182Y-12864650D01*
X14020182Y-12864650D02*
X14001134Y-12874174D01*
X14001134Y-12874174D02*
X13991610Y-12883698D01*
X14201134Y-12997984D02*
X14182087Y-12988460D01*
X14182087Y-12988460D02*
X14172563Y-12978936D01*
X14172563Y-12978936D02*
X14163039Y-12959888D01*
X14163039Y-12959888D02*
X14163039Y-12902746D01*
X14163039Y-12902746D02*
X14172563Y-12883698D01*
X14172563Y-12883698D02*
X14182087Y-12874174D01*
X14182087Y-12874174D02*
X14201134Y-12864650D01*
X14201134Y-12864650D02*
X14229706Y-12864650D01*
X14229706Y-12864650D02*
X14248753Y-12874174D01*
X14248753Y-12874174D02*
X14258277Y-12883698D01*
X14258277Y-12883698D02*
X14267801Y-12902746D01*
X14267801Y-12902746D02*
X14267801Y-12959888D01*
X14267801Y-12959888D02*
X14258277Y-12978936D01*
X14258277Y-12978936D02*
X14248753Y-12988460D01*
X14248753Y-12988460D02*
X14229706Y-12997984D01*
X14229706Y-12997984D02*
X14201134Y-12997984D01*
X14382087Y-12997984D02*
X14363039Y-12988460D01*
X14363039Y-12988460D02*
X14353515Y-12969412D01*
X14353515Y-12969412D02*
X14353515Y-12797984D01*
X14534468Y-12988460D02*
X14515420Y-12997984D01*
X14515420Y-12997984D02*
X14477325Y-12997984D01*
X14477325Y-12997984D02*
X14458277Y-12988460D01*
X14458277Y-12988460D02*
X14448753Y-12969412D01*
X14448753Y-12969412D02*
X14448753Y-12893222D01*
X14448753Y-12893222D02*
X14458277Y-12874174D01*
X14458277Y-12874174D02*
X14477325Y-12864650D01*
X14477325Y-12864650D02*
X14515420Y-12864650D01*
X14515420Y-12864650D02*
X14534468Y-12874174D01*
X14534468Y-12874174D02*
X14543991Y-12893222D01*
X14543991Y-12893222D02*
X14543991Y-12912269D01*
X14543991Y-12912269D02*
X14448753Y-12931317D01*
X14620182Y-12988460D02*
X14639230Y-12997984D01*
X14639230Y-12997984D02*
X14677325Y-12997984D01*
X14677325Y-12997984D02*
X14696372Y-12988460D01*
X14696372Y-12988460D02*
X14705896Y-12969412D01*
X14705896Y-12969412D02*
X14705896Y-12959888D01*
X14705896Y-12959888D02*
X14696372Y-12940841D01*
X14696372Y-12940841D02*
X14677325Y-12931317D01*
X14677325Y-12931317D02*
X14648753Y-12931317D01*
X14648753Y-12931317D02*
X14629706Y-12921793D01*
X14629706Y-12921793D02*
X14620182Y-12902746D01*
X14620182Y-12902746D02*
X14620182Y-12893222D01*
X14620182Y-12893222D02*
X14629706Y-12874174D01*
X14629706Y-12874174D02*
X14648753Y-12864650D01*
X14648753Y-12864650D02*
X14677325Y-12864650D01*
X14677325Y-12864650D02*
X14696372Y-12874174D01*
X14772563Y-13074174D02*
X14782087Y-13064650D01*
X14782087Y-13064650D02*
X14801134Y-13036079D01*
X14801134Y-13036079D02*
X14810658Y-13017031D01*
X14810658Y-13017031D02*
X14820182Y-12988460D01*
X14820182Y-12988460D02*
X14829706Y-12940841D01*
X14829706Y-12940841D02*
X14829706Y-12902746D01*
X14829706Y-12902746D02*
X14820182Y-12855127D01*
X14820182Y-12855127D02*
X14810658Y-12826555D01*
X14810658Y-12826555D02*
X14801134Y-12807508D01*
X14801134Y-12807508D02*
X14782087Y-12778936D01*
X14782087Y-12778936D02*
X14772563Y-12769412D01*
D12*
X9947500Y-13120500D02*
X9947500Y-13220500D01*
X9897500Y-13170500D02*
X9997500Y-13170500D01*
D11*
X10363039Y-13261984D02*
X10248753Y-13261984D01*
X10305896Y-13261984D02*
X10305896Y-13061984D01*
X10305896Y-13061984D02*
X10286848Y-13090555D01*
X10286848Y-13090555D02*
X10267801Y-13109603D01*
X10267801Y-13109603D02*
X10248753Y-13119127D01*
X10448753Y-13242936D02*
X10458277Y-13252460D01*
X10458277Y-13252460D02*
X10448753Y-13261984D01*
X10448753Y-13261984D02*
X10439229Y-13252460D01*
X10439229Y-13252460D02*
X10448753Y-13242936D01*
X10448753Y-13242936D02*
X10448753Y-13261984D01*
X10582086Y-13061984D02*
X10601134Y-13061984D01*
X10601134Y-13061984D02*
X10620182Y-13071508D01*
X10620182Y-13071508D02*
X10629705Y-13081031D01*
X10629705Y-13081031D02*
X10639229Y-13100079D01*
X10639229Y-13100079D02*
X10648753Y-13138174D01*
X10648753Y-13138174D02*
X10648753Y-13185793D01*
X10648753Y-13185793D02*
X10639229Y-13223888D01*
X10639229Y-13223888D02*
X10629705Y-13242936D01*
X10629705Y-13242936D02*
X10620182Y-13252460D01*
X10620182Y-13252460D02*
X10601134Y-13261984D01*
X10601134Y-13261984D02*
X10582086Y-13261984D01*
X10582086Y-13261984D02*
X10563039Y-13252460D01*
X10563039Y-13252460D02*
X10553515Y-13242936D01*
X10553515Y-13242936D02*
X10543991Y-13223888D01*
X10543991Y-13223888D02*
X10534467Y-13185793D01*
X10534467Y-13185793D02*
X10534467Y-13138174D01*
X10534467Y-13138174D02*
X10543991Y-13100079D01*
X10543991Y-13100079D02*
X10553515Y-13081031D01*
X10553515Y-13081031D02*
X10563039Y-13071508D01*
X10563039Y-13071508D02*
X10582086Y-13061984D01*
X10772563Y-13061984D02*
X10791610Y-13061984D01*
X10791610Y-13061984D02*
X10810658Y-13071508D01*
X10810658Y-13071508D02*
X10820182Y-13081031D01*
X10820182Y-13081031D02*
X10829705Y-13100079D01*
X10829705Y-13100079D02*
X10839229Y-13138174D01*
X10839229Y-13138174D02*
X10839229Y-13185793D01*
X10839229Y-13185793D02*
X10829705Y-13223888D01*
X10829705Y-13223888D02*
X10820182Y-13242936D01*
X10820182Y-13242936D02*
X10810658Y-13252460D01*
X10810658Y-13252460D02*
X10791610Y-13261984D01*
X10791610Y-13261984D02*
X10772563Y-13261984D01*
X10772563Y-13261984D02*
X10753515Y-13252460D01*
X10753515Y-13252460D02*
X10743991Y-13242936D01*
X10743991Y-13242936D02*
X10734467Y-13223888D01*
X10734467Y-13223888D02*
X10724944Y-13185793D01*
X10724944Y-13185793D02*
X10724944Y-13138174D01*
X10724944Y-13138174D02*
X10734467Y-13100079D01*
X10734467Y-13100079D02*
X10743991Y-13081031D01*
X10743991Y-13081031D02*
X10753515Y-13071508D01*
X10753515Y-13071508D02*
X10772563Y-13061984D01*
X10963039Y-13061984D02*
X10982086Y-13061984D01*
X10982086Y-13061984D02*
X11001134Y-13071508D01*
X11001134Y-13071508D02*
X11010658Y-13081031D01*
X11010658Y-13081031D02*
X11020182Y-13100079D01*
X11020182Y-13100079D02*
X11029705Y-13138174D01*
X11029705Y-13138174D02*
X11029705Y-13185793D01*
X11029705Y-13185793D02*
X11020182Y-13223888D01*
X11020182Y-13223888D02*
X11010658Y-13242936D01*
X11010658Y-13242936D02*
X11001134Y-13252460D01*
X11001134Y-13252460D02*
X10982086Y-13261984D01*
X10982086Y-13261984D02*
X10963039Y-13261984D01*
X10963039Y-13261984D02*
X10943991Y-13252460D01*
X10943991Y-13252460D02*
X10934467Y-13242936D01*
X10934467Y-13242936D02*
X10924944Y-13223888D01*
X10924944Y-13223888D02*
X10915420Y-13185793D01*
X10915420Y-13185793D02*
X10915420Y-13138174D01*
X10915420Y-13138174D02*
X10924944Y-13100079D01*
X10924944Y-13100079D02*
X10934467Y-13081031D01*
X10934467Y-13081031D02*
X10943991Y-13071508D01*
X10943991Y-13071508D02*
X10963039Y-13061984D01*
X11115420Y-13261984D02*
X11115420Y-13128650D01*
X11115420Y-13147698D02*
X11124944Y-13138174D01*
X11124944Y-13138174D02*
X11143991Y-13128650D01*
X11143991Y-13128650D02*
X11172563Y-13128650D01*
X11172563Y-13128650D02*
X11191610Y-13138174D01*
X11191610Y-13138174D02*
X11201134Y-13157222D01*
X11201134Y-13157222D02*
X11201134Y-13261984D01*
X11201134Y-13157222D02*
X11210658Y-13138174D01*
X11210658Y-13138174D02*
X11229705Y-13128650D01*
X11229705Y-13128650D02*
X11258277Y-13128650D01*
X11258277Y-13128650D02*
X11277324Y-13138174D01*
X11277324Y-13138174D02*
X11286848Y-13157222D01*
X11286848Y-13157222D02*
X11286848Y-13261984D01*
X11382086Y-13261984D02*
X11382086Y-13128650D01*
X11382086Y-13147698D02*
X11391610Y-13138174D01*
X11391610Y-13138174D02*
X11410658Y-13128650D01*
X11410658Y-13128650D02*
X11439229Y-13128650D01*
X11439229Y-13128650D02*
X11458277Y-13138174D01*
X11458277Y-13138174D02*
X11467801Y-13157222D01*
X11467801Y-13157222D02*
X11467801Y-13261984D01*
X11467801Y-13157222D02*
X11477324Y-13138174D01*
X11477324Y-13138174D02*
X11496372Y-13128650D01*
X11496372Y-13128650D02*
X11524943Y-13128650D01*
X11524943Y-13128650D02*
X11543991Y-13138174D01*
X11543991Y-13138174D02*
X11553515Y-13157222D01*
X11553515Y-13157222D02*
X11553515Y-13261984D01*
X11943991Y-13052460D02*
X11772563Y-13309603D01*
X12201134Y-13061984D02*
X12220182Y-13061984D01*
X12220182Y-13061984D02*
X12239229Y-13071508D01*
X12239229Y-13071508D02*
X12248753Y-13081031D01*
X12248753Y-13081031D02*
X12258277Y-13100079D01*
X12258277Y-13100079D02*
X12267801Y-13138174D01*
X12267801Y-13138174D02*
X12267801Y-13185793D01*
X12267801Y-13185793D02*
X12258277Y-13223888D01*
X12258277Y-13223888D02*
X12248753Y-13242936D01*
X12248753Y-13242936D02*
X12239229Y-13252460D01*
X12239229Y-13252460D02*
X12220182Y-13261984D01*
X12220182Y-13261984D02*
X12201134Y-13261984D01*
X12201134Y-13261984D02*
X12182086Y-13252460D01*
X12182086Y-13252460D02*
X12172563Y-13242936D01*
X12172563Y-13242936D02*
X12163039Y-13223888D01*
X12163039Y-13223888D02*
X12153515Y-13185793D01*
X12153515Y-13185793D02*
X12153515Y-13138174D01*
X12153515Y-13138174D02*
X12163039Y-13100079D01*
X12163039Y-13100079D02*
X12172563Y-13081031D01*
X12172563Y-13081031D02*
X12182086Y-13071508D01*
X12182086Y-13071508D02*
X12201134Y-13061984D01*
X12353515Y-13242936D02*
X12363039Y-13252460D01*
X12363039Y-13252460D02*
X12353515Y-13261984D01*
X12353515Y-13261984D02*
X12343991Y-13252460D01*
X12343991Y-13252460D02*
X12353515Y-13242936D01*
X12353515Y-13242936D02*
X12353515Y-13261984D01*
X12486848Y-13061984D02*
X12505896Y-13061984D01*
X12505896Y-13061984D02*
X12524944Y-13071508D01*
X12524944Y-13071508D02*
X12534467Y-13081031D01*
X12534467Y-13081031D02*
X12543991Y-13100079D01*
X12543991Y-13100079D02*
X12553515Y-13138174D01*
X12553515Y-13138174D02*
X12553515Y-13185793D01*
X12553515Y-13185793D02*
X12543991Y-13223888D01*
X12543991Y-13223888D02*
X12534467Y-13242936D01*
X12534467Y-13242936D02*
X12524944Y-13252460D01*
X12524944Y-13252460D02*
X12505896Y-13261984D01*
X12505896Y-13261984D02*
X12486848Y-13261984D01*
X12486848Y-13261984D02*
X12467801Y-13252460D01*
X12467801Y-13252460D02*
X12458277Y-13242936D01*
X12458277Y-13242936D02*
X12448753Y-13223888D01*
X12448753Y-13223888D02*
X12439229Y-13185793D01*
X12439229Y-13185793D02*
X12439229Y-13138174D01*
X12439229Y-13138174D02*
X12448753Y-13100079D01*
X12448753Y-13100079D02*
X12458277Y-13081031D01*
X12458277Y-13081031D02*
X12467801Y-13071508D01*
X12467801Y-13071508D02*
X12486848Y-13061984D01*
X12620182Y-13061984D02*
X12743991Y-13061984D01*
X12743991Y-13061984D02*
X12677325Y-13138174D01*
X12677325Y-13138174D02*
X12705896Y-13138174D01*
X12705896Y-13138174D02*
X12724944Y-13147698D01*
X12724944Y-13147698D02*
X12734467Y-13157222D01*
X12734467Y-13157222D02*
X12743991Y-13176269D01*
X12743991Y-13176269D02*
X12743991Y-13223888D01*
X12743991Y-13223888D02*
X12734467Y-13242936D01*
X12734467Y-13242936D02*
X12724944Y-13252460D01*
X12724944Y-13252460D02*
X12705896Y-13261984D01*
X12705896Y-13261984D02*
X12648753Y-13261984D01*
X12648753Y-13261984D02*
X12629706Y-13252460D01*
X12629706Y-13252460D02*
X12620182Y-13242936D01*
X12839229Y-13261984D02*
X12877325Y-13261984D01*
X12877325Y-13261984D02*
X12896372Y-13252460D01*
X12896372Y-13252460D02*
X12905896Y-13242936D01*
X12905896Y-13242936D02*
X12924944Y-13214365D01*
X12924944Y-13214365D02*
X12934467Y-13176269D01*
X12934467Y-13176269D02*
X12934467Y-13100079D01*
X12934467Y-13100079D02*
X12924944Y-13081031D01*
X12924944Y-13081031D02*
X12915420Y-13071508D01*
X12915420Y-13071508D02*
X12896372Y-13061984D01*
X12896372Y-13061984D02*
X12858277Y-13061984D01*
X12858277Y-13061984D02*
X12839229Y-13071508D01*
X12839229Y-13071508D02*
X12829706Y-13081031D01*
X12829706Y-13081031D02*
X12820182Y-13100079D01*
X12820182Y-13100079D02*
X12820182Y-13147698D01*
X12820182Y-13147698D02*
X12829706Y-13166746D01*
X12829706Y-13166746D02*
X12839229Y-13176269D01*
X12839229Y-13176269D02*
X12858277Y-13185793D01*
X12858277Y-13185793D02*
X12896372Y-13185793D01*
X12896372Y-13185793D02*
X12915420Y-13176269D01*
X12915420Y-13176269D02*
X12924944Y-13166746D01*
X12924944Y-13166746D02*
X12934467Y-13147698D01*
X13105896Y-13128650D02*
X13105896Y-13261984D01*
X13058277Y-13052460D02*
X13010658Y-13195317D01*
X13010658Y-13195317D02*
X13134467Y-13195317D01*
X13201134Y-13061984D02*
X13201134Y-13100079D01*
X13277325Y-13061984D02*
X13277325Y-13100079D01*
X13572563Y-13338174D02*
X13563039Y-13328650D01*
X13563039Y-13328650D02*
X13543991Y-13300079D01*
X13543991Y-13300079D02*
X13534468Y-13281031D01*
X13534468Y-13281031D02*
X13524944Y-13252460D01*
X13524944Y-13252460D02*
X13515420Y-13204841D01*
X13515420Y-13204841D02*
X13515420Y-13166746D01*
X13515420Y-13166746D02*
X13524944Y-13119127D01*
X13524944Y-13119127D02*
X13534468Y-13090555D01*
X13534468Y-13090555D02*
X13543991Y-13071508D01*
X13543991Y-13071508D02*
X13563039Y-13042936D01*
X13563039Y-13042936D02*
X13572563Y-13033412D01*
X13639229Y-13081031D02*
X13648753Y-13071508D01*
X13648753Y-13071508D02*
X13667801Y-13061984D01*
X13667801Y-13061984D02*
X13715420Y-13061984D01*
X13715420Y-13061984D02*
X13734468Y-13071508D01*
X13734468Y-13071508D02*
X13743991Y-13081031D01*
X13743991Y-13081031D02*
X13753515Y-13100079D01*
X13753515Y-13100079D02*
X13753515Y-13119127D01*
X13753515Y-13119127D02*
X13743991Y-13147698D01*
X13743991Y-13147698D02*
X13629706Y-13261984D01*
X13629706Y-13261984D02*
X13753515Y-13261984D01*
X13867801Y-13147698D02*
X13848753Y-13138174D01*
X13848753Y-13138174D02*
X13839229Y-13128650D01*
X13839229Y-13128650D02*
X13829706Y-13109603D01*
X13829706Y-13109603D02*
X13829706Y-13100079D01*
X13829706Y-13100079D02*
X13839229Y-13081031D01*
X13839229Y-13081031D02*
X13848753Y-13071508D01*
X13848753Y-13071508D02*
X13867801Y-13061984D01*
X13867801Y-13061984D02*
X13905896Y-13061984D01*
X13905896Y-13061984D02*
X13924944Y-13071508D01*
X13924944Y-13071508D02*
X13934468Y-13081031D01*
X13934468Y-13081031D02*
X13943991Y-13100079D01*
X13943991Y-13100079D02*
X13943991Y-13109603D01*
X13943991Y-13109603D02*
X13934468Y-13128650D01*
X13934468Y-13128650D02*
X13924944Y-13138174D01*
X13924944Y-13138174D02*
X13905896Y-13147698D01*
X13905896Y-13147698D02*
X13867801Y-13147698D01*
X13867801Y-13147698D02*
X13848753Y-13157222D01*
X13848753Y-13157222D02*
X13839229Y-13166746D01*
X13839229Y-13166746D02*
X13829706Y-13185793D01*
X13829706Y-13185793D02*
X13829706Y-13223888D01*
X13829706Y-13223888D02*
X13839229Y-13242936D01*
X13839229Y-13242936D02*
X13848753Y-13252460D01*
X13848753Y-13252460D02*
X13867801Y-13261984D01*
X13867801Y-13261984D02*
X13905896Y-13261984D01*
X13905896Y-13261984D02*
X13924944Y-13252460D01*
X13924944Y-13252460D02*
X13934468Y-13242936D01*
X13934468Y-13242936D02*
X13943991Y-13223888D01*
X13943991Y-13223888D02*
X13943991Y-13185793D01*
X13943991Y-13185793D02*
X13934468Y-13166746D01*
X13934468Y-13166746D02*
X13924944Y-13157222D01*
X13924944Y-13157222D02*
X13905896Y-13147698D01*
X14182087Y-13261984D02*
X14182087Y-13061984D01*
X14267801Y-13261984D02*
X14267801Y-13157222D01*
X14267801Y-13157222D02*
X14258277Y-13138174D01*
X14258277Y-13138174D02*
X14239230Y-13128650D01*
X14239230Y-13128650D02*
X14210658Y-13128650D01*
X14210658Y-13128650D02*
X14191610Y-13138174D01*
X14191610Y-13138174D02*
X14182087Y-13147698D01*
X14391610Y-13261984D02*
X14372563Y-13252460D01*
X14372563Y-13252460D02*
X14363039Y-13242936D01*
X14363039Y-13242936D02*
X14353515Y-13223888D01*
X14353515Y-13223888D02*
X14353515Y-13166746D01*
X14353515Y-13166746D02*
X14363039Y-13147698D01*
X14363039Y-13147698D02*
X14372563Y-13138174D01*
X14372563Y-13138174D02*
X14391610Y-13128650D01*
X14391610Y-13128650D02*
X14420182Y-13128650D01*
X14420182Y-13128650D02*
X14439230Y-13138174D01*
X14439230Y-13138174D02*
X14448753Y-13147698D01*
X14448753Y-13147698D02*
X14458277Y-13166746D01*
X14458277Y-13166746D02*
X14458277Y-13223888D01*
X14458277Y-13223888D02*
X14448753Y-13242936D01*
X14448753Y-13242936D02*
X14439230Y-13252460D01*
X14439230Y-13252460D02*
X14420182Y-13261984D01*
X14420182Y-13261984D02*
X14391610Y-13261984D01*
X14572563Y-13261984D02*
X14553515Y-13252460D01*
X14553515Y-13252460D02*
X14543991Y-13233412D01*
X14543991Y-13233412D02*
X14543991Y-13061984D01*
X14724944Y-13252460D02*
X14705896Y-13261984D01*
X14705896Y-13261984D02*
X14667801Y-13261984D01*
X14667801Y-13261984D02*
X14648753Y-13252460D01*
X14648753Y-13252460D02*
X14639230Y-13233412D01*
X14639230Y-13233412D02*
X14639230Y-13157222D01*
X14639230Y-13157222D02*
X14648753Y-13138174D01*
X14648753Y-13138174D02*
X14667801Y-13128650D01*
X14667801Y-13128650D02*
X14705896Y-13128650D01*
X14705896Y-13128650D02*
X14724944Y-13138174D01*
X14724944Y-13138174D02*
X14734468Y-13157222D01*
X14734468Y-13157222D02*
X14734468Y-13176269D01*
X14734468Y-13176269D02*
X14639230Y-13195317D01*
X14810658Y-13252460D02*
X14829706Y-13261984D01*
X14829706Y-13261984D02*
X14867801Y-13261984D01*
X14867801Y-13261984D02*
X14886849Y-13252460D01*
X14886849Y-13252460D02*
X14896372Y-13233412D01*
X14896372Y-13233412D02*
X14896372Y-13223888D01*
X14896372Y-13223888D02*
X14886849Y-13204841D01*
X14886849Y-13204841D02*
X14867801Y-13195317D01*
X14867801Y-13195317D02*
X14839230Y-13195317D01*
X14839230Y-13195317D02*
X14820182Y-13185793D01*
X14820182Y-13185793D02*
X14810658Y-13166746D01*
X14810658Y-13166746D02*
X14810658Y-13157222D01*
X14810658Y-13157222D02*
X14820182Y-13138174D01*
X14820182Y-13138174D02*
X14839230Y-13128650D01*
X14839230Y-13128650D02*
X14867801Y-13128650D01*
X14867801Y-13128650D02*
X14886849Y-13138174D01*
X14963039Y-13338174D02*
X14972563Y-13328650D01*
X14972563Y-13328650D02*
X14991611Y-13300079D01*
X14991611Y-13300079D02*
X15001134Y-13281031D01*
X15001134Y-13281031D02*
X15010658Y-13252460D01*
X15010658Y-13252460D02*
X15020182Y-13204841D01*
X15020182Y-13204841D02*
X15020182Y-13166746D01*
X15020182Y-13166746D02*
X15010658Y-13119127D01*
X15010658Y-13119127D02*
X15001134Y-13090555D01*
X15001134Y-13090555D02*
X14991611Y-13071508D01*
X14991611Y-13071508D02*
X14972563Y-13042936D01*
X14972563Y-13042936D02*
X14963039Y-13033412D01*
D13*
X9981391Y-13473391D02*
X9981391Y-13395609D01*
X9903609Y-13395609D01*
X9903609Y-13473391D01*
X9981391Y-13473391D01*
D11*
X10363039Y-13525984D02*
X10248753Y-13525984D01*
X10305896Y-13525984D02*
X10305896Y-13325984D01*
X10305896Y-13325984D02*
X10286848Y-13354555D01*
X10286848Y-13354555D02*
X10267801Y-13373603D01*
X10267801Y-13373603D02*
X10248753Y-13383127D01*
X10448753Y-13506936D02*
X10458277Y-13516460D01*
X10458277Y-13516460D02*
X10448753Y-13525984D01*
X10448753Y-13525984D02*
X10439229Y-13516460D01*
X10439229Y-13516460D02*
X10448753Y-13506936D01*
X10448753Y-13506936D02*
X10448753Y-13525984D01*
X10648753Y-13525984D02*
X10534467Y-13525984D01*
X10591610Y-13525984D02*
X10591610Y-13325984D01*
X10591610Y-13325984D02*
X10572563Y-13354555D01*
X10572563Y-13354555D02*
X10553515Y-13373603D01*
X10553515Y-13373603D02*
X10534467Y-13383127D01*
X10772563Y-13325984D02*
X10791610Y-13325984D01*
X10791610Y-13325984D02*
X10810658Y-13335508D01*
X10810658Y-13335508D02*
X10820182Y-13345031D01*
X10820182Y-13345031D02*
X10829705Y-13364079D01*
X10829705Y-13364079D02*
X10839229Y-13402174D01*
X10839229Y-13402174D02*
X10839229Y-13449793D01*
X10839229Y-13449793D02*
X10829705Y-13487888D01*
X10829705Y-13487888D02*
X10820182Y-13506936D01*
X10820182Y-13506936D02*
X10810658Y-13516460D01*
X10810658Y-13516460D02*
X10791610Y-13525984D01*
X10791610Y-13525984D02*
X10772563Y-13525984D01*
X10772563Y-13525984D02*
X10753515Y-13516460D01*
X10753515Y-13516460D02*
X10743991Y-13506936D01*
X10743991Y-13506936D02*
X10734467Y-13487888D01*
X10734467Y-13487888D02*
X10724944Y-13449793D01*
X10724944Y-13449793D02*
X10724944Y-13402174D01*
X10724944Y-13402174D02*
X10734467Y-13364079D01*
X10734467Y-13364079D02*
X10743991Y-13345031D01*
X10743991Y-13345031D02*
X10753515Y-13335508D01*
X10753515Y-13335508D02*
X10772563Y-13325984D01*
X10963039Y-13325984D02*
X10982086Y-13325984D01*
X10982086Y-13325984D02*
X11001134Y-13335508D01*
X11001134Y-13335508D02*
X11010658Y-13345031D01*
X11010658Y-13345031D02*
X11020182Y-13364079D01*
X11020182Y-13364079D02*
X11029705Y-13402174D01*
X11029705Y-13402174D02*
X11029705Y-13449793D01*
X11029705Y-13449793D02*
X11020182Y-13487888D01*
X11020182Y-13487888D02*
X11010658Y-13506936D01*
X11010658Y-13506936D02*
X11001134Y-13516460D01*
X11001134Y-13516460D02*
X10982086Y-13525984D01*
X10982086Y-13525984D02*
X10963039Y-13525984D01*
X10963039Y-13525984D02*
X10943991Y-13516460D01*
X10943991Y-13516460D02*
X10934467Y-13506936D01*
X10934467Y-13506936D02*
X10924944Y-13487888D01*
X10924944Y-13487888D02*
X10915420Y-13449793D01*
X10915420Y-13449793D02*
X10915420Y-13402174D01*
X10915420Y-13402174D02*
X10924944Y-13364079D01*
X10924944Y-13364079D02*
X10934467Y-13345031D01*
X10934467Y-13345031D02*
X10943991Y-13335508D01*
X10943991Y-13335508D02*
X10963039Y-13325984D01*
X11115420Y-13525984D02*
X11115420Y-13392650D01*
X11115420Y-13411698D02*
X11124944Y-13402174D01*
X11124944Y-13402174D02*
X11143991Y-13392650D01*
X11143991Y-13392650D02*
X11172563Y-13392650D01*
X11172563Y-13392650D02*
X11191610Y-13402174D01*
X11191610Y-13402174D02*
X11201134Y-13421222D01*
X11201134Y-13421222D02*
X11201134Y-13525984D01*
X11201134Y-13421222D02*
X11210658Y-13402174D01*
X11210658Y-13402174D02*
X11229705Y-13392650D01*
X11229705Y-13392650D02*
X11258277Y-13392650D01*
X11258277Y-13392650D02*
X11277324Y-13402174D01*
X11277324Y-13402174D02*
X11286848Y-13421222D01*
X11286848Y-13421222D02*
X11286848Y-13525984D01*
X11382086Y-13525984D02*
X11382086Y-13392650D01*
X11382086Y-13411698D02*
X11391610Y-13402174D01*
X11391610Y-13402174D02*
X11410658Y-13392650D01*
X11410658Y-13392650D02*
X11439229Y-13392650D01*
X11439229Y-13392650D02*
X11458277Y-13402174D01*
X11458277Y-13402174D02*
X11467801Y-13421222D01*
X11467801Y-13421222D02*
X11467801Y-13525984D01*
X11467801Y-13421222D02*
X11477324Y-13402174D01*
X11477324Y-13402174D02*
X11496372Y-13392650D01*
X11496372Y-13392650D02*
X11524943Y-13392650D01*
X11524943Y-13392650D02*
X11543991Y-13402174D01*
X11543991Y-13402174D02*
X11553515Y-13421222D01*
X11553515Y-13421222D02*
X11553515Y-13525984D01*
X11943991Y-13316460D02*
X11772563Y-13573603D01*
X12201134Y-13325984D02*
X12220182Y-13325984D01*
X12220182Y-13325984D02*
X12239229Y-13335508D01*
X12239229Y-13335508D02*
X12248753Y-13345031D01*
X12248753Y-13345031D02*
X12258277Y-13364079D01*
X12258277Y-13364079D02*
X12267801Y-13402174D01*
X12267801Y-13402174D02*
X12267801Y-13449793D01*
X12267801Y-13449793D02*
X12258277Y-13487888D01*
X12258277Y-13487888D02*
X12248753Y-13506936D01*
X12248753Y-13506936D02*
X12239229Y-13516460D01*
X12239229Y-13516460D02*
X12220182Y-13525984D01*
X12220182Y-13525984D02*
X12201134Y-13525984D01*
X12201134Y-13525984D02*
X12182086Y-13516460D01*
X12182086Y-13516460D02*
X12172563Y-13506936D01*
X12172563Y-13506936D02*
X12163039Y-13487888D01*
X12163039Y-13487888D02*
X12153515Y-13449793D01*
X12153515Y-13449793D02*
X12153515Y-13402174D01*
X12153515Y-13402174D02*
X12163039Y-13364079D01*
X12163039Y-13364079D02*
X12172563Y-13345031D01*
X12172563Y-13345031D02*
X12182086Y-13335508D01*
X12182086Y-13335508D02*
X12201134Y-13325984D01*
X12353515Y-13506936D02*
X12363039Y-13516460D01*
X12363039Y-13516460D02*
X12353515Y-13525984D01*
X12353515Y-13525984D02*
X12343991Y-13516460D01*
X12343991Y-13516460D02*
X12353515Y-13506936D01*
X12353515Y-13506936D02*
X12353515Y-13525984D01*
X12486848Y-13325984D02*
X12505896Y-13325984D01*
X12505896Y-13325984D02*
X12524944Y-13335508D01*
X12524944Y-13335508D02*
X12534467Y-13345031D01*
X12534467Y-13345031D02*
X12543991Y-13364079D01*
X12543991Y-13364079D02*
X12553515Y-13402174D01*
X12553515Y-13402174D02*
X12553515Y-13449793D01*
X12553515Y-13449793D02*
X12543991Y-13487888D01*
X12543991Y-13487888D02*
X12534467Y-13506936D01*
X12534467Y-13506936D02*
X12524944Y-13516460D01*
X12524944Y-13516460D02*
X12505896Y-13525984D01*
X12505896Y-13525984D02*
X12486848Y-13525984D01*
X12486848Y-13525984D02*
X12467801Y-13516460D01*
X12467801Y-13516460D02*
X12458277Y-13506936D01*
X12458277Y-13506936D02*
X12448753Y-13487888D01*
X12448753Y-13487888D02*
X12439229Y-13449793D01*
X12439229Y-13449793D02*
X12439229Y-13402174D01*
X12439229Y-13402174D02*
X12448753Y-13364079D01*
X12448753Y-13364079D02*
X12458277Y-13345031D01*
X12458277Y-13345031D02*
X12467801Y-13335508D01*
X12467801Y-13335508D02*
X12486848Y-13325984D01*
X12724944Y-13392650D02*
X12724944Y-13525984D01*
X12677325Y-13316460D02*
X12629706Y-13459317D01*
X12629706Y-13459317D02*
X12753515Y-13459317D01*
X12810658Y-13325984D02*
X12934467Y-13325984D01*
X12934467Y-13325984D02*
X12867801Y-13402174D01*
X12867801Y-13402174D02*
X12896372Y-13402174D01*
X12896372Y-13402174D02*
X12915420Y-13411698D01*
X12915420Y-13411698D02*
X12924944Y-13421222D01*
X12924944Y-13421222D02*
X12934467Y-13440269D01*
X12934467Y-13440269D02*
X12934467Y-13487888D01*
X12934467Y-13487888D02*
X12924944Y-13506936D01*
X12924944Y-13506936D02*
X12915420Y-13516460D01*
X12915420Y-13516460D02*
X12896372Y-13525984D01*
X12896372Y-13525984D02*
X12839229Y-13525984D01*
X12839229Y-13525984D02*
X12820182Y-13516460D01*
X12820182Y-13516460D02*
X12810658Y-13506936D01*
X13001134Y-13325984D02*
X13124944Y-13325984D01*
X13124944Y-13325984D02*
X13058277Y-13402174D01*
X13058277Y-13402174D02*
X13086848Y-13402174D01*
X13086848Y-13402174D02*
X13105896Y-13411698D01*
X13105896Y-13411698D02*
X13115420Y-13421222D01*
X13115420Y-13421222D02*
X13124944Y-13440269D01*
X13124944Y-13440269D02*
X13124944Y-13487888D01*
X13124944Y-13487888D02*
X13115420Y-13506936D01*
X13115420Y-13506936D02*
X13105896Y-13516460D01*
X13105896Y-13516460D02*
X13086848Y-13525984D01*
X13086848Y-13525984D02*
X13029706Y-13525984D01*
X13029706Y-13525984D02*
X13010658Y-13516460D01*
X13010658Y-13516460D02*
X13001134Y-13506936D01*
X13201134Y-13325984D02*
X13201134Y-13364079D01*
X13277325Y-13325984D02*
X13277325Y-13364079D01*
X13572563Y-13602174D02*
X13563039Y-13592650D01*
X13563039Y-13592650D02*
X13543991Y-13564079D01*
X13543991Y-13564079D02*
X13534468Y-13545031D01*
X13534468Y-13545031D02*
X13524944Y-13516460D01*
X13524944Y-13516460D02*
X13515420Y-13468841D01*
X13515420Y-13468841D02*
X13515420Y-13430746D01*
X13515420Y-13430746D02*
X13524944Y-13383127D01*
X13524944Y-13383127D02*
X13534468Y-13354555D01*
X13534468Y-13354555D02*
X13543991Y-13335508D01*
X13543991Y-13335508D02*
X13563039Y-13306936D01*
X13563039Y-13306936D02*
X13572563Y-13297412D01*
X13629706Y-13325984D02*
X13753515Y-13325984D01*
X13753515Y-13325984D02*
X13686848Y-13402174D01*
X13686848Y-13402174D02*
X13715420Y-13402174D01*
X13715420Y-13402174D02*
X13734468Y-13411698D01*
X13734468Y-13411698D02*
X13743991Y-13421222D01*
X13743991Y-13421222D02*
X13753515Y-13440269D01*
X13753515Y-13440269D02*
X13753515Y-13487888D01*
X13753515Y-13487888D02*
X13743991Y-13506936D01*
X13743991Y-13506936D02*
X13734468Y-13516460D01*
X13734468Y-13516460D02*
X13715420Y-13525984D01*
X13715420Y-13525984D02*
X13658277Y-13525984D01*
X13658277Y-13525984D02*
X13639229Y-13516460D01*
X13639229Y-13516460D02*
X13629706Y-13506936D01*
X13934468Y-13325984D02*
X13839229Y-13325984D01*
X13839229Y-13325984D02*
X13829706Y-13421222D01*
X13829706Y-13421222D02*
X13839229Y-13411698D01*
X13839229Y-13411698D02*
X13858277Y-13402174D01*
X13858277Y-13402174D02*
X13905896Y-13402174D01*
X13905896Y-13402174D02*
X13924944Y-13411698D01*
X13924944Y-13411698D02*
X13934468Y-13421222D01*
X13934468Y-13421222D02*
X13943991Y-13440269D01*
X13943991Y-13440269D02*
X13943991Y-13487888D01*
X13943991Y-13487888D02*
X13934468Y-13506936D01*
X13934468Y-13506936D02*
X13924944Y-13516460D01*
X13924944Y-13516460D02*
X13905896Y-13525984D01*
X13905896Y-13525984D02*
X13858277Y-13525984D01*
X13858277Y-13525984D02*
X13839229Y-13516460D01*
X13839229Y-13516460D02*
X13829706Y-13506936D01*
X14182087Y-13525984D02*
X14182087Y-13325984D01*
X14267801Y-13525984D02*
X14267801Y-13421222D01*
X14267801Y-13421222D02*
X14258277Y-13402174D01*
X14258277Y-13402174D02*
X14239230Y-13392650D01*
X14239230Y-13392650D02*
X14210658Y-13392650D01*
X14210658Y-13392650D02*
X14191610Y-13402174D01*
X14191610Y-13402174D02*
X14182087Y-13411698D01*
X14391610Y-13525984D02*
X14372563Y-13516460D01*
X14372563Y-13516460D02*
X14363039Y-13506936D01*
X14363039Y-13506936D02*
X14353515Y-13487888D01*
X14353515Y-13487888D02*
X14353515Y-13430746D01*
X14353515Y-13430746D02*
X14363039Y-13411698D01*
X14363039Y-13411698D02*
X14372563Y-13402174D01*
X14372563Y-13402174D02*
X14391610Y-13392650D01*
X14391610Y-13392650D02*
X14420182Y-13392650D01*
X14420182Y-13392650D02*
X14439230Y-13402174D01*
X14439230Y-13402174D02*
X14448753Y-13411698D01*
X14448753Y-13411698D02*
X14458277Y-13430746D01*
X14458277Y-13430746D02*
X14458277Y-13487888D01*
X14458277Y-13487888D02*
X14448753Y-13506936D01*
X14448753Y-13506936D02*
X14439230Y-13516460D01*
X14439230Y-13516460D02*
X14420182Y-13525984D01*
X14420182Y-13525984D02*
X14391610Y-13525984D01*
X14572563Y-13525984D02*
X14553515Y-13516460D01*
X14553515Y-13516460D02*
X14543991Y-13497412D01*
X14543991Y-13497412D02*
X14543991Y-13325984D01*
X14724944Y-13516460D02*
X14705896Y-13525984D01*
X14705896Y-13525984D02*
X14667801Y-13525984D01*
X14667801Y-13525984D02*
X14648753Y-13516460D01*
X14648753Y-13516460D02*
X14639230Y-13497412D01*
X14639230Y-13497412D02*
X14639230Y-13421222D01*
X14639230Y-13421222D02*
X14648753Y-13402174D01*
X14648753Y-13402174D02*
X14667801Y-13392650D01*
X14667801Y-13392650D02*
X14705896Y-13392650D01*
X14705896Y-13392650D02*
X14724944Y-13402174D01*
X14724944Y-13402174D02*
X14734468Y-13421222D01*
X14734468Y-13421222D02*
X14734468Y-13440269D01*
X14734468Y-13440269D02*
X14639230Y-13459317D01*
X14810658Y-13516460D02*
X14829706Y-13525984D01*
X14829706Y-13525984D02*
X14867801Y-13525984D01*
X14867801Y-13525984D02*
X14886849Y-13516460D01*
X14886849Y-13516460D02*
X14896372Y-13497412D01*
X14896372Y-13497412D02*
X14896372Y-13487888D01*
X14896372Y-13487888D02*
X14886849Y-13468841D01*
X14886849Y-13468841D02*
X14867801Y-13459317D01*
X14867801Y-13459317D02*
X14839230Y-13459317D01*
X14839230Y-13459317D02*
X14820182Y-13449793D01*
X14820182Y-13449793D02*
X14810658Y-13430746D01*
X14810658Y-13430746D02*
X14810658Y-13421222D01*
X14810658Y-13421222D02*
X14820182Y-13402174D01*
X14820182Y-13402174D02*
X14839230Y-13392650D01*
X14839230Y-13392650D02*
X14867801Y-13392650D01*
X14867801Y-13392650D02*
X14886849Y-13402174D01*
X14963039Y-13602174D02*
X14972563Y-13592650D01*
X14972563Y-13592650D02*
X14991611Y-13564079D01*
X14991611Y-13564079D02*
X15001134Y-13545031D01*
X15001134Y-13545031D02*
X15010658Y-13516460D01*
X15010658Y-13516460D02*
X15020182Y-13468841D01*
X15020182Y-13468841D02*
X15020182Y-13430746D01*
X15020182Y-13430746D02*
X15010658Y-13383127D01*
X15010658Y-13383127D02*
X15001134Y-13354555D01*
X15001134Y-13354555D02*
X14991611Y-13335508D01*
X14991611Y-13335508D02*
X14972563Y-13306936D01*
X14972563Y-13306936D02*
X14963039Y-13297412D01*
M02*
