G04 #@! TF.GenerationSoftware,KiCad,Pcbnew,8.0.6*
G04 #@! TF.CreationDate,2025-01-17T16:42:44-08:00*
G04 #@! TF.ProjectId,AudioLux,41756469-6f4c-4757-982e-6b696361645f,rev?*
G04 #@! TF.SameCoordinates,Original*
G04 #@! TF.FileFunction,Copper,L2,Bot*
G04 #@! TF.FilePolarity,Positive*
%FSLAX46Y46*%
G04 Gerber Fmt 4.6, Leading zero omitted, Abs format (unit mm)*
G04 Created by KiCad (PCBNEW 8.0.6) date 2025-01-17 16:42:44*
%MOMM*%
%LPD*%
G01*
G04 APERTURE LIST*
G04 #@! TA.AperFunction,ComponentPad*
%ADD10R,2.100000X2.100000*%
G04 #@! TD*
G04 #@! TA.AperFunction,ComponentPad*
%ADD11C,2.100000*%
G04 #@! TD*
G04 #@! TA.AperFunction,ComponentPad*
%ADD12R,1.600000X1.600000*%
G04 #@! TD*
G04 #@! TA.AperFunction,ComponentPad*
%ADD13C,1.600000*%
G04 #@! TD*
G04 #@! TA.AperFunction,ComponentPad*
%ADD14R,1.700000X1.700000*%
G04 #@! TD*
G04 #@! TA.AperFunction,ComponentPad*
%ADD15O,1.700000X1.700000*%
G04 #@! TD*
G04 #@! TA.AperFunction,ViaPad*
%ADD16C,0.600000*%
G04 #@! TD*
G04 #@! TA.AperFunction,Conductor*
%ADD17C,0.300000*%
G04 #@! TD*
G04 #@! TA.AperFunction,Conductor*
%ADD18C,0.200000*%
G04 #@! TD*
G04 APERTURE END LIST*
D10*
X141500000Y-56000000D03*
D11*
X138960000Y-56000000D03*
X136420000Y-56000000D03*
X133880000Y-56000000D03*
D10*
X132460000Y-113500000D03*
D11*
X135000000Y-113500000D03*
D10*
X109920000Y-113500000D03*
D11*
X112460000Y-113500000D03*
X115000000Y-113500000D03*
D10*
X159000000Y-99540000D03*
D11*
X159000000Y-97000000D03*
D10*
X159000000Y-83540000D03*
D11*
X159000000Y-81000000D03*
X159000000Y-78460000D03*
X159000000Y-75920000D03*
X159000000Y-73380000D03*
D12*
X145000000Y-67000000D03*
D13*
X140000000Y-67000000D03*
D14*
X129545800Y-70929600D03*
D15*
X129545800Y-73469600D03*
X129545800Y-76009600D03*
X129545800Y-78549600D03*
X129545800Y-81089600D03*
X129545800Y-83629600D03*
X129545800Y-86169600D03*
X129545800Y-88709600D03*
X129545800Y-91249600D03*
X129545800Y-93789600D03*
X129545800Y-96329600D03*
X129545800Y-98869600D03*
D10*
X141000000Y-113500000D03*
D11*
X143540000Y-113500000D03*
D10*
X149460000Y-113500000D03*
D11*
X152000000Y-113500000D03*
D10*
X121420000Y-113500000D03*
D11*
X123960000Y-113500000D03*
X126500000Y-113500000D03*
D10*
X159000000Y-67620000D03*
D11*
X159000000Y-65080000D03*
X159000000Y-62540000D03*
X159000000Y-60000000D03*
D14*
X109220000Y-60766000D03*
D15*
X109220000Y-63306000D03*
X109220000Y-65846000D03*
X109220000Y-68386000D03*
X109220000Y-70926000D03*
X109220000Y-73466000D03*
X109220000Y-76006000D03*
X109220000Y-78546000D03*
X109220000Y-81086000D03*
X109220000Y-83626000D03*
X109220000Y-86166000D03*
X109220000Y-88706000D03*
X109220000Y-91246000D03*
X109220000Y-93786000D03*
X109220000Y-96326000D03*
X109220000Y-98866000D03*
D10*
X159000000Y-110000000D03*
D11*
X159000000Y-107460000D03*
X159000000Y-104920000D03*
D10*
X159000000Y-92000000D03*
D11*
X159000000Y-89460000D03*
D10*
X152000000Y-56000000D03*
D11*
X149460000Y-56000000D03*
X146920000Y-56000000D03*
D16*
X143048675Y-67451325D03*
X147847349Y-72250000D03*
X152120000Y-67620000D03*
X148500000Y-67600380D03*
X145000000Y-59500000D03*
X145000000Y-61500000D03*
X130000000Y-64000000D03*
X131500000Y-62500000D03*
X135000000Y-61500000D03*
X126000000Y-62500000D03*
X126000000Y-61500000D03*
X118500000Y-64000000D03*
X113500000Y-81496000D03*
X142372800Y-95364400D03*
X127750000Y-66362500D03*
X133511400Y-96520000D03*
X137518000Y-108056000D03*
X119410850Y-87596000D03*
X144927600Y-80730000D03*
X127750000Y-57062500D03*
X140000000Y-83270000D03*
X113150000Y-66612500D03*
X112610000Y-94996000D03*
X117750000Y-67662500D03*
X121120400Y-76162000D03*
X125450000Y-67662500D03*
X123250000Y-67662500D03*
X140000000Y-79460000D03*
X112250000Y-57062500D03*
X132998000Y-88056000D03*
X143331000Y-108051600D03*
X113500000Y-85052000D03*
X119999700Y-107366000D03*
X126550000Y-67662500D03*
X113500000Y-88862000D03*
X137373000Y-104056000D03*
X140000000Y-75650000D03*
X144927600Y-76920000D03*
X109254400Y-53600000D03*
X109500000Y-109000000D03*
X143000000Y-110500000D03*
X108000000Y-109000000D03*
X135000000Y-111500000D03*
X121050000Y-67662500D03*
X118210000Y-80556000D03*
X123698000Y-94996000D03*
X128000000Y-91500000D03*
X128000000Y-88000000D03*
X138000000Y-94500000D03*
X135000000Y-94500000D03*
X128948000Y-104056000D03*
X124859150Y-86326000D03*
X142000000Y-74000000D03*
X144927600Y-75650000D03*
X125448000Y-103556000D03*
X119410850Y-86326000D03*
X125448000Y-104826000D03*
X114000000Y-77000000D03*
X116000000Y-75356000D03*
X113000000Y-77000000D03*
X117000000Y-74500000D03*
X111000000Y-77000000D03*
X118865380Y-72634620D03*
X112000000Y-77000000D03*
X117500000Y-73500000D03*
X149875000Y-83125000D03*
X151875000Y-85125000D03*
X152500000Y-84500000D03*
X150500000Y-82500000D03*
X147615000Y-87885000D03*
X146000000Y-84850000D03*
X146850000Y-84850000D03*
X148750000Y-87750000D03*
X134500000Y-86169600D03*
X155540000Y-78460000D03*
X135000000Y-85500000D03*
X131500000Y-89000000D03*
X132500000Y-91000000D03*
X136500000Y-87000000D03*
D17*
X143048675Y-67451326D02*
X143048675Y-67451325D01*
X147847349Y-72250000D02*
X143048675Y-67451326D01*
X121050000Y-66550000D02*
X121050000Y-67662500D01*
X118500000Y-64000000D02*
X121050000Y-66550000D01*
X148519620Y-67620000D02*
X152120000Y-67620000D01*
X148500000Y-67600380D02*
X148519620Y-67620000D01*
X145000000Y-61500000D02*
X145000000Y-59500000D01*
X118500000Y-64000000D02*
X130000000Y-64000000D01*
X126000000Y-61500000D02*
X135000000Y-61500000D01*
X126000000Y-62500000D02*
X131500000Y-62500000D01*
X115365380Y-72634620D02*
X111000000Y-77000000D01*
X118865380Y-72634620D02*
X115365380Y-72634620D01*
X115500000Y-73500000D02*
X112000000Y-77000000D01*
X117500000Y-73500000D02*
X115500000Y-73500000D01*
X115500000Y-74500000D02*
X113000000Y-77000000D01*
X117000000Y-74500000D02*
X115500000Y-74500000D01*
X116000000Y-75356000D02*
X115644000Y-75356000D01*
X115644000Y-75356000D02*
X114000000Y-77000000D01*
X121050000Y-73950000D02*
X118210000Y-76790000D01*
X121050000Y-67662500D02*
X121050000Y-73950000D01*
X118210000Y-76790000D02*
X118210000Y-80556000D01*
X111000000Y-110500000D02*
X143000000Y-110500000D01*
X109500000Y-109000000D02*
X111000000Y-110500000D01*
X110500000Y-111500000D02*
X108000000Y-109000000D01*
X135000000Y-111500000D02*
X110500000Y-111500000D01*
X123698000Y-86868000D02*
X118210000Y-81380000D01*
X123698000Y-94996000D02*
X123698000Y-86868000D01*
D18*
X118210000Y-80556000D02*
X118210000Y-81380000D01*
D17*
X138000000Y-94500000D02*
X135000000Y-94500000D01*
X128000000Y-88000000D02*
X128000000Y-91500000D01*
X144927600Y-75650000D02*
X143277600Y-74000000D01*
X124859150Y-86326000D02*
X127161400Y-84023750D01*
X125448000Y-103556000D02*
X128448000Y-103556000D01*
X127161400Y-84023750D02*
X127161400Y-78394000D01*
X127161400Y-78394000D02*
X129545800Y-76009600D01*
X128448000Y-103556000D02*
X128948000Y-104056000D01*
X143277600Y-74000000D02*
X142000000Y-74000000D01*
X125448000Y-104826000D02*
X124504000Y-104826000D01*
X119410850Y-86397850D02*
X119410850Y-86326000D01*
X122129000Y-89116000D02*
X119410850Y-86397850D01*
X124504000Y-104826000D02*
X122129000Y-102451000D01*
X122129000Y-102451000D02*
X122129000Y-89116000D01*
X156404000Y-104864000D02*
X159000000Y-107460000D01*
X135540200Y-104864000D02*
X156404000Y-104864000D01*
X129545800Y-98869600D02*
X135540200Y-104864000D01*
X155642000Y-101562000D02*
X159000000Y-104920000D01*
X134778200Y-101562000D02*
X155642000Y-101562000D01*
X129545800Y-96329600D02*
X134778200Y-101562000D01*
X149875000Y-83125000D02*
X151875000Y-85125000D01*
X150500000Y-82500000D02*
X152500000Y-84500000D01*
X146000000Y-86270000D02*
X147615000Y-87885000D01*
X146000000Y-84850000D02*
X146000000Y-86270000D01*
X146850000Y-85850000D02*
X148750000Y-87750000D01*
X146850000Y-84850000D02*
X146850000Y-85850000D01*
X129545800Y-86169600D02*
X134500000Y-86169600D01*
X129545800Y-83629600D02*
X131416200Y-85500000D01*
X155540000Y-78460000D02*
X159000000Y-78460000D01*
X131416200Y-85500000D02*
X135000000Y-85500000D01*
X131500000Y-89000000D02*
X131500000Y-91835400D01*
X131500000Y-91835400D02*
X129545800Y-93789600D01*
X132500000Y-91000000D02*
X136500000Y-87000000D01*
G04 #@! TA.AperFunction,Conductor*
G36*
X162003736Y-50500726D02*
G01*
X162293796Y-50518271D01*
X162308659Y-50520076D01*
X162590798Y-50571780D01*
X162605335Y-50575363D01*
X162879172Y-50660695D01*
X162893163Y-50666000D01*
X163154743Y-50783727D01*
X163167989Y-50790680D01*
X163413465Y-50939075D01*
X163425776Y-50947573D01*
X163651573Y-51124473D01*
X163662781Y-51134403D01*
X163865596Y-51337218D01*
X163875526Y-51348426D01*
X163995481Y-51501538D01*
X164052422Y-51574217D01*
X164060928Y-51586540D01*
X164209316Y-51832004D01*
X164216275Y-51845263D01*
X164333997Y-52106831D01*
X164339306Y-52120832D01*
X164424635Y-52394663D01*
X164428219Y-52409201D01*
X164479923Y-52691340D01*
X164481728Y-52706205D01*
X164499274Y-52996263D01*
X164499500Y-53003750D01*
X164499500Y-116996249D01*
X164499274Y-117003736D01*
X164481728Y-117293794D01*
X164479923Y-117308659D01*
X164428219Y-117590798D01*
X164424635Y-117605336D01*
X164339306Y-117879167D01*
X164333997Y-117893168D01*
X164216275Y-118154736D01*
X164209316Y-118167995D01*
X164060928Y-118413459D01*
X164052422Y-118425782D01*
X163875526Y-118651573D01*
X163865596Y-118662781D01*
X163662781Y-118865596D01*
X163651573Y-118875526D01*
X163425782Y-119052422D01*
X163413459Y-119060928D01*
X163167995Y-119209316D01*
X163154736Y-119216275D01*
X162893168Y-119333997D01*
X162879167Y-119339306D01*
X162605336Y-119424635D01*
X162590798Y-119428219D01*
X162308659Y-119479923D01*
X162293794Y-119481728D01*
X162003736Y-119499274D01*
X161996249Y-119499500D01*
X103003751Y-119499500D01*
X102996264Y-119499274D01*
X102706205Y-119481728D01*
X102691340Y-119479923D01*
X102409201Y-119428219D01*
X102394663Y-119424635D01*
X102120832Y-119339306D01*
X102106831Y-119333997D01*
X101845263Y-119216275D01*
X101832004Y-119209316D01*
X101586540Y-119060928D01*
X101574217Y-119052422D01*
X101348426Y-118875526D01*
X101337218Y-118865596D01*
X101134403Y-118662781D01*
X101124473Y-118651573D01*
X100947573Y-118425776D01*
X100939075Y-118413465D01*
X100790680Y-118167989D01*
X100783727Y-118154743D01*
X100666000Y-117893163D01*
X100660693Y-117879167D01*
X100575364Y-117605336D01*
X100571780Y-117590798D01*
X100520076Y-117308659D01*
X100518271Y-117293794D01*
X100500726Y-117003736D01*
X100500500Y-116996249D01*
X100500500Y-115881902D01*
X102499500Y-115881902D01*
X102499500Y-116118097D01*
X102536446Y-116351368D01*
X102609433Y-116575996D01*
X102716657Y-116786433D01*
X102855483Y-116977510D01*
X103022490Y-117144517D01*
X103213567Y-117283343D01*
X103312991Y-117334002D01*
X103424003Y-117390566D01*
X103424005Y-117390566D01*
X103424008Y-117390568D01*
X103544412Y-117429689D01*
X103648631Y-117463553D01*
X103881903Y-117500500D01*
X103881908Y-117500500D01*
X104118097Y-117500500D01*
X104351368Y-117463553D01*
X104575992Y-117390568D01*
X104786433Y-117283343D01*
X104977510Y-117144517D01*
X105144517Y-116977510D01*
X105283343Y-116786433D01*
X105390568Y-116575992D01*
X105463553Y-116351368D01*
X105500500Y-116118097D01*
X105500500Y-115881902D01*
X159499500Y-115881902D01*
X159499500Y-116118097D01*
X159536446Y-116351368D01*
X159609433Y-116575996D01*
X159716657Y-116786433D01*
X159855483Y-116977510D01*
X160022490Y-117144517D01*
X160213567Y-117283343D01*
X160312991Y-117334002D01*
X160424003Y-117390566D01*
X160424005Y-117390566D01*
X160424008Y-117390568D01*
X160544412Y-117429689D01*
X160648631Y-117463553D01*
X160881903Y-117500500D01*
X160881908Y-117500500D01*
X161118097Y-117500500D01*
X161351368Y-117463553D01*
X161575992Y-117390568D01*
X161786433Y-117283343D01*
X161977510Y-117144517D01*
X162144517Y-116977510D01*
X162283343Y-116786433D01*
X162390568Y-116575992D01*
X162463553Y-116351368D01*
X162500500Y-116118097D01*
X162500500Y-115881902D01*
X162463553Y-115648631D01*
X162390566Y-115424003D01*
X162283342Y-115213566D01*
X162144517Y-115022490D01*
X161977510Y-114855483D01*
X161786433Y-114716657D01*
X161575996Y-114609433D01*
X161351368Y-114536446D01*
X161118097Y-114499500D01*
X161118092Y-114499500D01*
X160881908Y-114499500D01*
X160881903Y-114499500D01*
X160648631Y-114536446D01*
X160424003Y-114609433D01*
X160213566Y-114716657D01*
X160166986Y-114750500D01*
X160022490Y-114855483D01*
X160022488Y-114855485D01*
X160022487Y-114855485D01*
X159855485Y-115022487D01*
X159855485Y-115022488D01*
X159855483Y-115022490D01*
X159835496Y-115050000D01*
X159716657Y-115213566D01*
X159609433Y-115424003D01*
X159536446Y-115648631D01*
X159499500Y-115881902D01*
X105500500Y-115881902D01*
X105463553Y-115648631D01*
X105390566Y-115424003D01*
X105283342Y-115213566D01*
X105144517Y-115022490D01*
X104977510Y-114855483D01*
X104786433Y-114716657D01*
X104575996Y-114609433D01*
X104351368Y-114536446D01*
X104118097Y-114499500D01*
X104118092Y-114499500D01*
X103881908Y-114499500D01*
X103881903Y-114499500D01*
X103648631Y-114536446D01*
X103424003Y-114609433D01*
X103213566Y-114716657D01*
X103166986Y-114750500D01*
X103022490Y-114855483D01*
X103022488Y-114855485D01*
X103022487Y-114855485D01*
X102855485Y-115022487D01*
X102855485Y-115022488D01*
X102855483Y-115022490D01*
X102835496Y-115050000D01*
X102716657Y-115213566D01*
X102609433Y-115424003D01*
X102536446Y-115648631D01*
X102499500Y-115881902D01*
X100500500Y-115881902D01*
X100500500Y-109000000D01*
X107494353Y-109000000D01*
X107514834Y-109142456D01*
X107574622Y-109273371D01*
X107574623Y-109273373D01*
X107668872Y-109382143D01*
X107789947Y-109459953D01*
X107789950Y-109459954D01*
X107789949Y-109459954D01*
X107928036Y-109500499D01*
X107928038Y-109500500D01*
X107928039Y-109500500D01*
X107953456Y-109500500D01*
X108020495Y-109520185D01*
X108041137Y-109536819D01*
X110284788Y-111780470D01*
X110364712Y-111826614D01*
X110453856Y-111850500D01*
X111768508Y-111850500D01*
X111835547Y-111870185D01*
X111881302Y-111922989D01*
X111891246Y-111992147D01*
X111862221Y-112055703D01*
X111815961Y-112089061D01*
X111754138Y-112114668D01*
X111552057Y-112238504D01*
X112289766Y-112976212D01*
X112247708Y-112987482D01*
X112122292Y-113059890D01*
X112019890Y-113162292D01*
X111947482Y-113287708D01*
X111936212Y-113329765D01*
X111206819Y-112600372D01*
X111173334Y-112539049D01*
X111170500Y-112512691D01*
X111170500Y-112430249D01*
X111170499Y-112430247D01*
X111158868Y-112371770D01*
X111158867Y-112371769D01*
X111114552Y-112305447D01*
X111048230Y-112261132D01*
X111048229Y-112261131D01*
X110989752Y-112249500D01*
X110989748Y-112249500D01*
X108850252Y-112249500D01*
X108850247Y-112249500D01*
X108791770Y-112261131D01*
X108791769Y-112261132D01*
X108725447Y-112305447D01*
X108681132Y-112371769D01*
X108681131Y-112371770D01*
X108669500Y-112430247D01*
X108669500Y-114569752D01*
X108681131Y-114628229D01*
X108681132Y-114628230D01*
X108725447Y-114694552D01*
X108791769Y-114738867D01*
X108791770Y-114738868D01*
X108850247Y-114750499D01*
X108850250Y-114750500D01*
X108850252Y-114750500D01*
X110989750Y-114750500D01*
X110989751Y-114750499D01*
X111004568Y-114747552D01*
X111048229Y-114738868D01*
X111048229Y-114738867D01*
X111048231Y-114738867D01*
X111114552Y-114694552D01*
X111158867Y-114628231D01*
X111158867Y-114628229D01*
X111158868Y-114628229D01*
X111167552Y-114584568D01*
X111170500Y-114569748D01*
X111170500Y-114487308D01*
X111190185Y-114420269D01*
X111206819Y-114399627D01*
X111936212Y-113670233D01*
X111947482Y-113712292D01*
X112019890Y-113837708D01*
X112122292Y-113940110D01*
X112247708Y-114012518D01*
X112289765Y-114023787D01*
X111552057Y-114761494D01*
X111754138Y-114885331D01*
X111979542Y-114978696D01*
X112216780Y-115035651D01*
X112216779Y-115035651D01*
X112460000Y-115054792D01*
X112703219Y-115035651D01*
X112940457Y-114978696D01*
X113165861Y-114885331D01*
X113367941Y-114761495D01*
X113367941Y-114761494D01*
X112630235Y-114023787D01*
X112672292Y-114012518D01*
X112797708Y-113940110D01*
X112900110Y-113837708D01*
X112972518Y-113712292D01*
X112983787Y-113670234D01*
X113721494Y-114407941D01*
X113803607Y-114273946D01*
X113855418Y-114227071D01*
X113924348Y-114215648D01*
X113988511Y-114243305D01*
X114010908Y-114267612D01*
X114038402Y-114306877D01*
X114193123Y-114461598D01*
X114372361Y-114587102D01*
X114570670Y-114679575D01*
X114782023Y-114736207D01*
X114964926Y-114752208D01*
X114999998Y-114755277D01*
X115000000Y-114755277D01*
X115000002Y-114755277D01*
X115028254Y-114752805D01*
X115217977Y-114736207D01*
X115429330Y-114679575D01*
X115627639Y-114587102D01*
X115806877Y-114461598D01*
X115961598Y-114306877D01*
X116087102Y-114127639D01*
X116179575Y-113929330D01*
X116236207Y-113717977D01*
X116255277Y-113500000D01*
X116236207Y-113282023D01*
X116179575Y-113070670D01*
X116087102Y-112872362D01*
X116087100Y-112872359D01*
X116087099Y-112872357D01*
X115961599Y-112693124D01*
X115961595Y-112693120D01*
X115806877Y-112538402D01*
X115652416Y-112430247D01*
X115627638Y-112412897D01*
X115476927Y-112342620D01*
X115429330Y-112320425D01*
X115429326Y-112320424D01*
X115429322Y-112320422D01*
X115217977Y-112263793D01*
X115000002Y-112244723D01*
X114999998Y-112244723D01*
X114854682Y-112257436D01*
X114782023Y-112263793D01*
X114782020Y-112263793D01*
X114570677Y-112320422D01*
X114570668Y-112320426D01*
X114372361Y-112412898D01*
X114372357Y-112412900D01*
X114193121Y-112538402D01*
X114038403Y-112693120D01*
X114010908Y-112732387D01*
X113956330Y-112776011D01*
X113886832Y-112783203D01*
X113824477Y-112751680D01*
X113803607Y-112726052D01*
X113721494Y-112592057D01*
X112983787Y-113329764D01*
X112972518Y-113287708D01*
X112900110Y-113162292D01*
X112797708Y-113059890D01*
X112672292Y-112987482D01*
X112630234Y-112976212D01*
X113367941Y-112238504D01*
X113165861Y-112114668D01*
X113104039Y-112089061D01*
X113049636Y-112045220D01*
X113027571Y-111978926D01*
X113044850Y-111911226D01*
X113095988Y-111863616D01*
X113151492Y-111850500D01*
X119963940Y-111850500D01*
X120030979Y-111870185D01*
X120076734Y-111922989D01*
X120086678Y-111992147D01*
X120057653Y-112055703D01*
X120038252Y-112073766D01*
X120012809Y-112092812D01*
X119926649Y-112207906D01*
X119926645Y-112207913D01*
X119876403Y-112342620D01*
X119876401Y-112342627D01*
X119870000Y-112402155D01*
X119870000Y-113250000D01*
X120929252Y-113250000D01*
X120907482Y-113287708D01*
X120870000Y-113427591D01*
X120870000Y-113572409D01*
X120907482Y-113712292D01*
X120929252Y-113750000D01*
X119870000Y-113750000D01*
X119870000Y-114597844D01*
X119876401Y-114657372D01*
X119876403Y-114657379D01*
X119926645Y-114792086D01*
X119926649Y-114792093D01*
X120012809Y-114907187D01*
X120012812Y-114907190D01*
X120127906Y-114993350D01*
X120127913Y-114993354D01*
X120262620Y-115043596D01*
X120262627Y-115043598D01*
X120322155Y-115049999D01*
X120322172Y-115050000D01*
X121170000Y-115050000D01*
X121170000Y-113990747D01*
X121207708Y-114012518D01*
X121347591Y-114050000D01*
X121492409Y-114050000D01*
X121632292Y-114012518D01*
X121670000Y-113990747D01*
X121670000Y-115050000D01*
X122517828Y-115050000D01*
X122517844Y-115049999D01*
X122577372Y-115043598D01*
X122577379Y-115043596D01*
X122712086Y-114993354D01*
X122712093Y-114993350D01*
X122827187Y-114907190D01*
X122827190Y-114907187D01*
X122913350Y-114792093D01*
X122913354Y-114792086D01*
X122963596Y-114657379D01*
X122963598Y-114657372D01*
X122969999Y-114597844D01*
X122970000Y-114597827D01*
X122970000Y-114571575D01*
X122989685Y-114504536D01*
X123042489Y-114458781D01*
X123111647Y-114448837D01*
X123165120Y-114469998D01*
X123332361Y-114587102D01*
X123530670Y-114679575D01*
X123742023Y-114736207D01*
X123924926Y-114752208D01*
X123959998Y-114755277D01*
X123960000Y-114755277D01*
X123960002Y-114755277D01*
X123988254Y-114752805D01*
X124177977Y-114736207D01*
X124389330Y-114679575D01*
X124587639Y-114587102D01*
X124766877Y-114461598D01*
X124921598Y-114306877D01*
X125047102Y-114127639D01*
X125117618Y-113976414D01*
X125163790Y-113923977D01*
X125230984Y-113904825D01*
X125297865Y-113925041D01*
X125342381Y-113976414D01*
X125412898Y-114127639D01*
X125538402Y-114306877D01*
X125693123Y-114461598D01*
X125872361Y-114587102D01*
X126070670Y-114679575D01*
X126282023Y-114736207D01*
X126464926Y-114752208D01*
X126499998Y-114755277D01*
X126500000Y-114755277D01*
X126500002Y-114755277D01*
X126528254Y-114752805D01*
X126717977Y-114736207D01*
X126929330Y-114679575D01*
X127127639Y-114587102D01*
X127306877Y-114461598D01*
X127461598Y-114306877D01*
X127587102Y-114127639D01*
X127679575Y-113929330D01*
X127736207Y-113717977D01*
X127755277Y-113500000D01*
X127736207Y-113282023D01*
X127679575Y-113070670D01*
X127587102Y-112872362D01*
X127587100Y-112872359D01*
X127587099Y-112872357D01*
X127461599Y-112693124D01*
X127461595Y-112693120D01*
X127306877Y-112538402D01*
X127152416Y-112430247D01*
X127127638Y-112412897D01*
X126976927Y-112342620D01*
X126929330Y-112320425D01*
X126929326Y-112320424D01*
X126929322Y-112320422D01*
X126717977Y-112263793D01*
X126500002Y-112244723D01*
X126499998Y-112244723D01*
X126354682Y-112257436D01*
X126282023Y-112263793D01*
X126282020Y-112263793D01*
X126070677Y-112320422D01*
X126070668Y-112320426D01*
X125872361Y-112412898D01*
X125872357Y-112412900D01*
X125693121Y-112538402D01*
X125538402Y-112693121D01*
X125412900Y-112872357D01*
X125412898Y-112872361D01*
X125342382Y-113023583D01*
X125296209Y-113076022D01*
X125229016Y-113095174D01*
X125162135Y-113074958D01*
X125117618Y-113023583D01*
X125083305Y-112950000D01*
X125047102Y-112872362D01*
X125047100Y-112872359D01*
X125047099Y-112872357D01*
X124921599Y-112693124D01*
X124921595Y-112693120D01*
X124766877Y-112538402D01*
X124612416Y-112430247D01*
X124587638Y-112412897D01*
X124436927Y-112342620D01*
X124389330Y-112320425D01*
X124389326Y-112320424D01*
X124389322Y-112320422D01*
X124177977Y-112263793D01*
X123960002Y-112244723D01*
X123959998Y-112244723D01*
X123814682Y-112257436D01*
X123742023Y-112263793D01*
X123742020Y-112263793D01*
X123530677Y-112320422D01*
X123530668Y-112320426D01*
X123332361Y-112412898D01*
X123332357Y-112412900D01*
X123165123Y-112529999D01*
X123098917Y-112552326D01*
X123031150Y-112535316D01*
X122983337Y-112484368D01*
X122970000Y-112428424D01*
X122970000Y-112402172D01*
X122969999Y-112402155D01*
X122963598Y-112342627D01*
X122963596Y-112342620D01*
X122913354Y-112207913D01*
X122913350Y-112207906D01*
X122827190Y-112092812D01*
X122801748Y-112073766D01*
X122759878Y-112017832D01*
X122754894Y-111948140D01*
X122788380Y-111886818D01*
X122849703Y-111853333D01*
X122876060Y-111850500D01*
X131003940Y-111850500D01*
X131070979Y-111870185D01*
X131116734Y-111922989D01*
X131126678Y-111992147D01*
X131097653Y-112055703D01*
X131078252Y-112073766D01*
X131052809Y-112092812D01*
X130966649Y-112207906D01*
X130966645Y-112207913D01*
X130916403Y-112342620D01*
X130916401Y-112342627D01*
X130910000Y-112402155D01*
X130910000Y-113250000D01*
X131969252Y-113250000D01*
X131947482Y-113287708D01*
X131910000Y-113427591D01*
X131910000Y-113572409D01*
X131947482Y-113712292D01*
X131969252Y-113750000D01*
X130910000Y-113750000D01*
X130910000Y-114597844D01*
X130916401Y-114657372D01*
X130916403Y-114657379D01*
X130966645Y-114792086D01*
X130966649Y-114792093D01*
X131052809Y-114907187D01*
X131052812Y-114907190D01*
X131167906Y-114993350D01*
X131167913Y-114993354D01*
X131302620Y-115043596D01*
X131302627Y-115043598D01*
X131362155Y-115049999D01*
X131362172Y-115050000D01*
X132210000Y-115050000D01*
X132210000Y-113990747D01*
X132247708Y-114012518D01*
X132387591Y-114050000D01*
X132532409Y-114050000D01*
X132672292Y-114012518D01*
X132710000Y-113990747D01*
X132710000Y-115050000D01*
X133557828Y-115050000D01*
X133557844Y-115049999D01*
X133617372Y-115043598D01*
X133617379Y-115043596D01*
X133752086Y-114993354D01*
X133752093Y-114993350D01*
X133867187Y-114907190D01*
X133867190Y-114907187D01*
X133953350Y-114792093D01*
X133953354Y-114792086D01*
X134003596Y-114657379D01*
X134003598Y-114657372D01*
X134009999Y-114597844D01*
X134010000Y-114597827D01*
X134010000Y-114571575D01*
X134029685Y-114504536D01*
X134082489Y-114458781D01*
X134151647Y-114448837D01*
X134205120Y-114469998D01*
X134372361Y-114587102D01*
X134570670Y-114679575D01*
X134782023Y-114736207D01*
X134964926Y-114752208D01*
X134999998Y-114755277D01*
X135000000Y-114755277D01*
X135000002Y-114755277D01*
X135028254Y-114752805D01*
X135217977Y-114736207D01*
X135429330Y-114679575D01*
X135627639Y-114587102D01*
X135806877Y-114461598D01*
X135961598Y-114306877D01*
X136087102Y-114127639D01*
X136179575Y-113929330D01*
X136236207Y-113717977D01*
X136255277Y-113500000D01*
X136236207Y-113282023D01*
X136179575Y-113070670D01*
X136087102Y-112872362D01*
X136087100Y-112872359D01*
X136087099Y-112872357D01*
X135961599Y-112693124D01*
X135961595Y-112693120D01*
X135806877Y-112538402D01*
X135652416Y-112430247D01*
X135627638Y-112412897D01*
X135604601Y-112402155D01*
X139450000Y-112402155D01*
X139450000Y-113250000D01*
X140509252Y-113250000D01*
X140487482Y-113287708D01*
X140450000Y-113427591D01*
X140450000Y-113572409D01*
X140487482Y-113712292D01*
X140509252Y-113750000D01*
X139450000Y-113750000D01*
X139450000Y-114597844D01*
X139456401Y-114657372D01*
X139456403Y-114657379D01*
X139506645Y-114792086D01*
X139506649Y-114792093D01*
X139592809Y-114907187D01*
X139592812Y-114907190D01*
X139707906Y-114993350D01*
X139707913Y-114993354D01*
X139842620Y-115043596D01*
X139842627Y-115043598D01*
X139902155Y-115049999D01*
X139902172Y-115050000D01*
X140750000Y-115050000D01*
X140750000Y-113990747D01*
X140787708Y-114012518D01*
X140927591Y-114050000D01*
X141072409Y-114050000D01*
X141212292Y-114012518D01*
X141250000Y-113990747D01*
X141250000Y-115050000D01*
X142097828Y-115050000D01*
X142097844Y-115049999D01*
X142157372Y-115043598D01*
X142157379Y-115043596D01*
X142292086Y-114993354D01*
X142292093Y-114993350D01*
X142407187Y-114907190D01*
X142407190Y-114907187D01*
X142493350Y-114792093D01*
X142493354Y-114792086D01*
X142543596Y-114657379D01*
X142543598Y-114657372D01*
X142549999Y-114597844D01*
X142550000Y-114597827D01*
X142550000Y-114571575D01*
X142569685Y-114504536D01*
X142622489Y-114458781D01*
X142691647Y-114448837D01*
X142745120Y-114469998D01*
X142912361Y-114587102D01*
X143110670Y-114679575D01*
X143322023Y-114736207D01*
X143504926Y-114752208D01*
X143539998Y-114755277D01*
X143540000Y-114755277D01*
X143540002Y-114755277D01*
X143568254Y-114752805D01*
X143757977Y-114736207D01*
X143969330Y-114679575D01*
X144167639Y-114587102D01*
X144346877Y-114461598D01*
X144501598Y-114306877D01*
X144627102Y-114127639D01*
X144719575Y-113929330D01*
X144776207Y-113717977D01*
X144795277Y-113500000D01*
X144776207Y-113282023D01*
X144719575Y-113070670D01*
X144627102Y-112872362D01*
X144627100Y-112872359D01*
X144627099Y-112872357D01*
X144501599Y-112693124D01*
X144501595Y-112693120D01*
X144346877Y-112538402D01*
X144192416Y-112430247D01*
X144167638Y-112412897D01*
X144144601Y-112402155D01*
X147910000Y-112402155D01*
X147910000Y-113250000D01*
X148969252Y-113250000D01*
X148947482Y-113287708D01*
X148910000Y-113427591D01*
X148910000Y-113572409D01*
X148947482Y-113712292D01*
X148969252Y-113750000D01*
X147910000Y-113750000D01*
X147910000Y-114597844D01*
X147916401Y-114657372D01*
X147916403Y-114657379D01*
X147966645Y-114792086D01*
X147966649Y-114792093D01*
X148052809Y-114907187D01*
X148052812Y-114907190D01*
X148167906Y-114993350D01*
X148167913Y-114993354D01*
X148302620Y-115043596D01*
X148302627Y-115043598D01*
X148362155Y-115049999D01*
X148362172Y-115050000D01*
X149210000Y-115050000D01*
X149210000Y-113990747D01*
X149247708Y-114012518D01*
X149387591Y-114050000D01*
X149532409Y-114050000D01*
X149672292Y-114012518D01*
X149710000Y-113990747D01*
X149710000Y-115050000D01*
X150557828Y-115050000D01*
X150557844Y-115049999D01*
X150617372Y-115043598D01*
X150617379Y-115043596D01*
X150752086Y-114993354D01*
X150752093Y-114993350D01*
X150867187Y-114907190D01*
X150867190Y-114907187D01*
X150953350Y-114792093D01*
X150953354Y-114792086D01*
X151003596Y-114657379D01*
X151003598Y-114657372D01*
X151009999Y-114597844D01*
X151010000Y-114597827D01*
X151010000Y-114571575D01*
X151029685Y-114504536D01*
X151082489Y-114458781D01*
X151151647Y-114448837D01*
X151205120Y-114469998D01*
X151372361Y-114587102D01*
X151570670Y-114679575D01*
X151782023Y-114736207D01*
X151964926Y-114752208D01*
X151999998Y-114755277D01*
X152000000Y-114755277D01*
X152000002Y-114755277D01*
X152028254Y-114752805D01*
X152217977Y-114736207D01*
X152429330Y-114679575D01*
X152627639Y-114587102D01*
X152806877Y-114461598D01*
X152961598Y-114306877D01*
X153087102Y-114127639D01*
X153179575Y-113929330D01*
X153236207Y-113717977D01*
X153255277Y-113500000D01*
X153236207Y-113282023D01*
X153179575Y-113070670D01*
X153087102Y-112872362D01*
X153087100Y-112872359D01*
X153087099Y-112872357D01*
X152961599Y-112693124D01*
X152961595Y-112693120D01*
X152806877Y-112538402D01*
X152652416Y-112430247D01*
X152627638Y-112412897D01*
X152476927Y-112342620D01*
X152429330Y-112320425D01*
X152429326Y-112320424D01*
X152429322Y-112320422D01*
X152217977Y-112263793D01*
X152000002Y-112244723D01*
X151999998Y-112244723D01*
X151854682Y-112257436D01*
X151782023Y-112263793D01*
X151782020Y-112263793D01*
X151570677Y-112320422D01*
X151570668Y-112320426D01*
X151372361Y-112412898D01*
X151372357Y-112412900D01*
X151205123Y-112529999D01*
X151138917Y-112552326D01*
X151071150Y-112535316D01*
X151023337Y-112484368D01*
X151010000Y-112428424D01*
X151010000Y-112402172D01*
X151009999Y-112402155D01*
X151003598Y-112342627D01*
X151003596Y-112342620D01*
X150953354Y-112207913D01*
X150953350Y-112207906D01*
X150867190Y-112092812D01*
X150867187Y-112092809D01*
X150752093Y-112006649D01*
X150752086Y-112006645D01*
X150617379Y-111956403D01*
X150617372Y-111956401D01*
X150557844Y-111950000D01*
X149710000Y-111950000D01*
X149710000Y-113009252D01*
X149672292Y-112987482D01*
X149532409Y-112950000D01*
X149387591Y-112950000D01*
X149247708Y-112987482D01*
X149210000Y-113009252D01*
X149210000Y-111950000D01*
X148362155Y-111950000D01*
X148302627Y-111956401D01*
X148302620Y-111956403D01*
X148167913Y-112006645D01*
X148167906Y-112006649D01*
X148052812Y-112092809D01*
X148052809Y-112092812D01*
X147966649Y-112207906D01*
X147966645Y-112207913D01*
X147916403Y-112342620D01*
X147916401Y-112342627D01*
X147910000Y-112402155D01*
X144144601Y-112402155D01*
X144016927Y-112342620D01*
X143969330Y-112320425D01*
X143969326Y-112320424D01*
X143969322Y-112320422D01*
X143757977Y-112263793D01*
X143540002Y-112244723D01*
X143539998Y-112244723D01*
X143394682Y-112257436D01*
X143322023Y-112263793D01*
X143322020Y-112263793D01*
X143110677Y-112320422D01*
X143110668Y-112320426D01*
X142912361Y-112412898D01*
X142912357Y-112412900D01*
X142745123Y-112529999D01*
X142678917Y-112552326D01*
X142611150Y-112535316D01*
X142563337Y-112484368D01*
X142550000Y-112428424D01*
X142550000Y-112402172D01*
X142549999Y-112402155D01*
X142543598Y-112342627D01*
X142543596Y-112342620D01*
X142493354Y-112207913D01*
X142493350Y-112207906D01*
X142407190Y-112092812D01*
X142407187Y-112092809D01*
X142292093Y-112006649D01*
X142292086Y-112006645D01*
X142157379Y-111956403D01*
X142157372Y-111956401D01*
X142097844Y-111950000D01*
X141250000Y-111950000D01*
X141250000Y-113009252D01*
X141212292Y-112987482D01*
X141072409Y-112950000D01*
X140927591Y-112950000D01*
X140787708Y-112987482D01*
X140750000Y-113009252D01*
X140750000Y-111950000D01*
X139902155Y-111950000D01*
X139842627Y-111956401D01*
X139842620Y-111956403D01*
X139707913Y-112006645D01*
X139707906Y-112006649D01*
X139592812Y-112092809D01*
X139592809Y-112092812D01*
X139506649Y-112207906D01*
X139506645Y-112207913D01*
X139456403Y-112342620D01*
X139456401Y-112342627D01*
X139450000Y-112402155D01*
X135604601Y-112402155D01*
X135476927Y-112342620D01*
X135429330Y-112320425D01*
X135429326Y-112320424D01*
X135429322Y-112320422D01*
X135217977Y-112263793D01*
X135037779Y-112248028D01*
X135001405Y-112233800D01*
X134986349Y-112243477D01*
X134962221Y-112248028D01*
X134849916Y-112257853D01*
X134782023Y-112263793D01*
X134782020Y-112263793D01*
X134570677Y-112320422D01*
X134570668Y-112320426D01*
X134372361Y-112412898D01*
X134372357Y-112412900D01*
X134205123Y-112529999D01*
X134138917Y-112552326D01*
X134071150Y-112535316D01*
X134023337Y-112484368D01*
X134010000Y-112428424D01*
X134010000Y-112402172D01*
X134009999Y-112402155D01*
X134003598Y-112342627D01*
X134003596Y-112342620D01*
X133953354Y-112207913D01*
X133953350Y-112207906D01*
X133867190Y-112092812D01*
X133841748Y-112073766D01*
X133799878Y-112017832D01*
X133794894Y-111948140D01*
X133828380Y-111886818D01*
X133889703Y-111853333D01*
X133916060Y-111850500D01*
X134586105Y-111850500D01*
X134653144Y-111870185D01*
X134667312Y-111880790D01*
X134668866Y-111882137D01*
X134668872Y-111882143D01*
X134789947Y-111959953D01*
X134789950Y-111959954D01*
X134789949Y-111959954D01*
X134928036Y-112000499D01*
X134928038Y-112000500D01*
X134951414Y-112000500D01*
X135001050Y-112015074D01*
X135024154Y-112002931D01*
X135048586Y-112000500D01*
X135071962Y-112000500D01*
X135071962Y-112000499D01*
X135210053Y-111959953D01*
X135331128Y-111882143D01*
X135425377Y-111773373D01*
X135485165Y-111642457D01*
X135505647Y-111500000D01*
X135485165Y-111357543D01*
X135425377Y-111226627D01*
X135331128Y-111117857D01*
X135331125Y-111117855D01*
X135331126Y-111117855D01*
X135270378Y-111078815D01*
X135224624Y-111026011D01*
X135214680Y-110956853D01*
X135243705Y-110893297D01*
X135302483Y-110855523D01*
X135337418Y-110850500D01*
X142586105Y-110850500D01*
X142653144Y-110870185D01*
X142667312Y-110880790D01*
X142668866Y-110882137D01*
X142668872Y-110882143D01*
X142789947Y-110959953D01*
X142789950Y-110959954D01*
X142789949Y-110959954D01*
X142897107Y-110991417D01*
X142924633Y-110999500D01*
X142928036Y-111000499D01*
X142928038Y-111000500D01*
X142928039Y-111000500D01*
X143071962Y-111000500D01*
X143071962Y-111000499D01*
X143210053Y-110959953D01*
X143331128Y-110882143D01*
X143425377Y-110773373D01*
X143485165Y-110642457D01*
X143505647Y-110500000D01*
X143485165Y-110357543D01*
X143425377Y-110226627D01*
X143331128Y-110117857D01*
X143210053Y-110040047D01*
X143210051Y-110040046D01*
X143210049Y-110040045D01*
X143210050Y-110040045D01*
X143071963Y-109999500D01*
X143071961Y-109999500D01*
X142928039Y-109999500D01*
X142928036Y-109999500D01*
X142789949Y-110040045D01*
X142668876Y-110117854D01*
X142668874Y-110117855D01*
X142668872Y-110117857D01*
X142668870Y-110117858D01*
X142667312Y-110119210D01*
X142665427Y-110120070D01*
X142661411Y-110122652D01*
X142661039Y-110122074D01*
X142603757Y-110148237D01*
X142586105Y-110149500D01*
X111196543Y-110149500D01*
X111129504Y-110129815D01*
X111108862Y-110113181D01*
X110036503Y-109040821D01*
X110003018Y-108979498D01*
X110001449Y-108970805D01*
X109985165Y-108857543D01*
X109925377Y-108726627D01*
X109831128Y-108617857D01*
X109710053Y-108540047D01*
X109710051Y-108540046D01*
X109710049Y-108540045D01*
X109710050Y-108540045D01*
X109571963Y-108499500D01*
X109571961Y-108499500D01*
X109428039Y-108499500D01*
X109428036Y-108499500D01*
X109289949Y-108540045D01*
X109168873Y-108617856D01*
X109074623Y-108726626D01*
X109074622Y-108726628D01*
X109014834Y-108857543D01*
X108994353Y-109000000D01*
X109014834Y-109142457D01*
X109014835Y-109142458D01*
X109045959Y-109210610D01*
X109055903Y-109279768D01*
X109026878Y-109343324D01*
X108968100Y-109381098D01*
X108898230Y-109381098D01*
X108845484Y-109349802D01*
X108536503Y-109040821D01*
X108503018Y-108979498D01*
X108501449Y-108970805D01*
X108485165Y-108857543D01*
X108425377Y-108726627D01*
X108331128Y-108617857D01*
X108210053Y-108540047D01*
X108210051Y-108540046D01*
X108210049Y-108540045D01*
X108210050Y-108540045D01*
X108071963Y-108499500D01*
X108071961Y-108499500D01*
X107928039Y-108499500D01*
X107928036Y-108499500D01*
X107789949Y-108540045D01*
X107668873Y-108617856D01*
X107574623Y-108726626D01*
X107574622Y-108726628D01*
X107514834Y-108857543D01*
X107494353Y-109000000D01*
X100500500Y-109000000D01*
X100500500Y-98866000D01*
X108164417Y-98866000D01*
X108184699Y-99071932D01*
X108184700Y-99071934D01*
X108244768Y-99269954D01*
X108342315Y-99452450D01*
X108345271Y-99456052D01*
X108473589Y-99612410D01*
X108570209Y-99691702D01*
X108633550Y-99743685D01*
X108816046Y-99841232D01*
X109014066Y-99901300D01*
X109014065Y-99901300D01*
X109032529Y-99903118D01*
X109220000Y-99921583D01*
X109425934Y-99901300D01*
X109623954Y-99841232D01*
X109806450Y-99743685D01*
X109966410Y-99612410D01*
X110097685Y-99452450D01*
X110195232Y-99269954D01*
X110255300Y-99071934D01*
X110275583Y-98866000D01*
X110255300Y-98660066D01*
X110195232Y-98462046D01*
X110097685Y-98279550D01*
X109989605Y-98147853D01*
X109966410Y-98119589D01*
X109810839Y-97991917D01*
X109806450Y-97988315D01*
X109623954Y-97890768D01*
X109425934Y-97830700D01*
X109425932Y-97830699D01*
X109425934Y-97830699D01*
X109220000Y-97810417D01*
X109014067Y-97830699D01*
X108816043Y-97890769D01*
X108705898Y-97949643D01*
X108633550Y-97988315D01*
X108633548Y-97988316D01*
X108633547Y-97988317D01*
X108473589Y-98119589D01*
X108362235Y-98255277D01*
X108342315Y-98279550D01*
X108303643Y-98351898D01*
X108244769Y-98462043D01*
X108184699Y-98660067D01*
X108164417Y-98866000D01*
X100500500Y-98866000D01*
X100500500Y-96326000D01*
X108164417Y-96326000D01*
X108184699Y-96531932D01*
X108196450Y-96570670D01*
X108244768Y-96729954D01*
X108342315Y-96912450D01*
X108345271Y-96916052D01*
X108473589Y-97072410D01*
X108570209Y-97151702D01*
X108633550Y-97203685D01*
X108816046Y-97301232D01*
X109014066Y-97361300D01*
X109014065Y-97361300D01*
X109032529Y-97363118D01*
X109220000Y-97381583D01*
X109425934Y-97361300D01*
X109623954Y-97301232D01*
X109806450Y-97203685D01*
X109966410Y-97072410D01*
X110097685Y-96912450D01*
X110195232Y-96729954D01*
X110255300Y-96531934D01*
X110275583Y-96326000D01*
X110255300Y-96120066D01*
X110195232Y-95922046D01*
X110097685Y-95739550D01*
X110045702Y-95676209D01*
X109966410Y-95579589D01*
X109810839Y-95451917D01*
X109806450Y-95448315D01*
X109623954Y-95350768D01*
X109425934Y-95290700D01*
X109425932Y-95290699D01*
X109425934Y-95290699D01*
X109220000Y-95270417D01*
X109014067Y-95290699D01*
X108816043Y-95350769D01*
X108764831Y-95378143D01*
X108633550Y-95448315D01*
X108633548Y-95448316D01*
X108633547Y-95448317D01*
X108473589Y-95579589D01*
X108342317Y-95739547D01*
X108342315Y-95739550D01*
X108340391Y-95743150D01*
X108244769Y-95922043D01*
X108184699Y-96120067D01*
X108164417Y-96326000D01*
X100500500Y-96326000D01*
X100500500Y-93786000D01*
X108164417Y-93786000D01*
X108184699Y-93991932D01*
X108184700Y-93991934D01*
X108244768Y-94189954D01*
X108342315Y-94372450D01*
X108345271Y-94376052D01*
X108473589Y-94532410D01*
X108543719Y-94589963D01*
X108633550Y-94663685D01*
X108816046Y-94761232D01*
X109014066Y-94821300D01*
X109014065Y-94821300D01*
X109032529Y-94823118D01*
X109220000Y-94841583D01*
X109425934Y-94821300D01*
X109623954Y-94761232D01*
X109806450Y-94663685D01*
X109966410Y-94532410D01*
X110097685Y-94372450D01*
X110195232Y-94189954D01*
X110255300Y-93991934D01*
X110275583Y-93786000D01*
X110255300Y-93580066D01*
X110195232Y-93382046D01*
X110097685Y-93199550D01*
X110039154Y-93128229D01*
X109966410Y-93039589D01*
X109810839Y-92911917D01*
X109806450Y-92908315D01*
X109623954Y-92810768D01*
X109425934Y-92750700D01*
X109425932Y-92750699D01*
X109425934Y-92750699D01*
X109220000Y-92730417D01*
X109014067Y-92750699D01*
X108816043Y-92810769D01*
X108705898Y-92869643D01*
X108633550Y-92908315D01*
X108633548Y-92908316D01*
X108633547Y-92908317D01*
X108473589Y-93039589D01*
X108342317Y-93199547D01*
X108342315Y-93199550D01*
X108303643Y-93271898D01*
X108244769Y-93382043D01*
X108184699Y-93580067D01*
X108164417Y-93786000D01*
X100500500Y-93786000D01*
X100500500Y-91246000D01*
X108164417Y-91246000D01*
X108184699Y-91451932D01*
X108199280Y-91500000D01*
X108244768Y-91649954D01*
X108342315Y-91832450D01*
X108345271Y-91836052D01*
X108473589Y-91992410D01*
X108544511Y-92050613D01*
X108633550Y-92123685D01*
X108816046Y-92221232D01*
X109014066Y-92281300D01*
X109014065Y-92281300D01*
X109032529Y-92283118D01*
X109220000Y-92301583D01*
X109425934Y-92281300D01*
X109623954Y-92221232D01*
X109806450Y-92123685D01*
X109966410Y-91992410D01*
X110097685Y-91832450D01*
X110195232Y-91649954D01*
X110255300Y-91451934D01*
X110275583Y-91246000D01*
X110255300Y-91040066D01*
X110195232Y-90842046D01*
X110097685Y-90659550D01*
X109999612Y-90540047D01*
X109966410Y-90499589D01*
X109810839Y-90371917D01*
X109806450Y-90368315D01*
X109623954Y-90270768D01*
X109425934Y-90210700D01*
X109425932Y-90210699D01*
X109425934Y-90210699D01*
X109220000Y-90190417D01*
X109014067Y-90210699D01*
X108816043Y-90270769D01*
X108705898Y-90329643D01*
X108633550Y-90368315D01*
X108633548Y-90368316D01*
X108633547Y-90368317D01*
X108473589Y-90499589D01*
X108342317Y-90659547D01*
X108342315Y-90659550D01*
X108340391Y-90663150D01*
X108244769Y-90842043D01*
X108184699Y-91040067D01*
X108164417Y-91246000D01*
X100500500Y-91246000D01*
X100500500Y-88706000D01*
X108164417Y-88706000D01*
X108184699Y-88911932D01*
X108184700Y-88911934D01*
X108244768Y-89109954D01*
X108342315Y-89292450D01*
X108345271Y-89296052D01*
X108473589Y-89452410D01*
X108570209Y-89531702D01*
X108633550Y-89583685D01*
X108816046Y-89681232D01*
X109014066Y-89741300D01*
X109014065Y-89741300D01*
X109032529Y-89743118D01*
X109220000Y-89761583D01*
X109425934Y-89741300D01*
X109623954Y-89681232D01*
X109806450Y-89583685D01*
X109966410Y-89452410D01*
X110097685Y-89292450D01*
X110195232Y-89109954D01*
X110255300Y-88911934D01*
X110275583Y-88706000D01*
X110255300Y-88500066D01*
X110195232Y-88302046D01*
X110097685Y-88119550D01*
X110018755Y-88023373D01*
X109966410Y-87959589D01*
X109810839Y-87831917D01*
X109806450Y-87828315D01*
X109623954Y-87730768D01*
X109425934Y-87670700D01*
X109425932Y-87670699D01*
X109425934Y-87670699D01*
X109220000Y-87650417D01*
X109014067Y-87670699D01*
X108816043Y-87730769D01*
X108705898Y-87789643D01*
X108633550Y-87828315D01*
X108633548Y-87828316D01*
X108633547Y-87828317D01*
X108473589Y-87959589D01*
X108360903Y-88096900D01*
X108342315Y-88119550D01*
X108303643Y-88191898D01*
X108244769Y-88302043D01*
X108184699Y-88500067D01*
X108164417Y-88706000D01*
X100500500Y-88706000D01*
X100500500Y-86166000D01*
X108164417Y-86166000D01*
X108184699Y-86371932D01*
X108206249Y-86442973D01*
X108244768Y-86569954D01*
X108342315Y-86752450D01*
X108345271Y-86756052D01*
X108473589Y-86912410D01*
X108570209Y-86991702D01*
X108633550Y-87043685D01*
X108816046Y-87141232D01*
X109014066Y-87201300D01*
X109014065Y-87201300D01*
X109032529Y-87203118D01*
X109220000Y-87221583D01*
X109425934Y-87201300D01*
X109623954Y-87141232D01*
X109806450Y-87043685D01*
X109966410Y-86912410D01*
X110097685Y-86752450D01*
X110195232Y-86569954D01*
X110255300Y-86371934D01*
X110259824Y-86326000D01*
X118905203Y-86326000D01*
X118925684Y-86468456D01*
X118979204Y-86585646D01*
X118985473Y-86599373D01*
X119079722Y-86708143D01*
X119200797Y-86785953D01*
X119200800Y-86785954D01*
X119200799Y-86785954D01*
X119315500Y-86819633D01*
X119368247Y-86850929D01*
X121742181Y-89224863D01*
X121775666Y-89286186D01*
X121778500Y-89312544D01*
X121778500Y-102497143D01*
X121802386Y-102586287D01*
X121802387Y-102586290D01*
X121848527Y-102666208D01*
X121848529Y-102666211D01*
X121848530Y-102666212D01*
X124288788Y-105106470D01*
X124354606Y-105144470D01*
X124368712Y-105152614D01*
X124457856Y-105176500D01*
X125034105Y-105176500D01*
X125101144Y-105196185D01*
X125115312Y-105206790D01*
X125116866Y-105208137D01*
X125116872Y-105208143D01*
X125237947Y-105285953D01*
X125237950Y-105285954D01*
X125237949Y-105285954D01*
X125376036Y-105326499D01*
X125376038Y-105326500D01*
X125376039Y-105326500D01*
X125519962Y-105326500D01*
X125519962Y-105326499D01*
X125658053Y-105285953D01*
X125779128Y-105208143D01*
X125873377Y-105099373D01*
X125933165Y-104968457D01*
X125953647Y-104826000D01*
X125933165Y-104683543D01*
X125873377Y-104552627D01*
X125779128Y-104443857D01*
X125658053Y-104366047D01*
X125658051Y-104366046D01*
X125658049Y-104366045D01*
X125658050Y-104366045D01*
X125519963Y-104325500D01*
X125519961Y-104325500D01*
X125376039Y-104325500D01*
X125376036Y-104325500D01*
X125237949Y-104366045D01*
X125116876Y-104443854D01*
X125116874Y-104443855D01*
X125116872Y-104443857D01*
X125116870Y-104443858D01*
X125115312Y-104445210D01*
X125113427Y-104446070D01*
X125109411Y-104448652D01*
X125109039Y-104448074D01*
X125051757Y-104474237D01*
X125034105Y-104475500D01*
X124700544Y-104475500D01*
X124633505Y-104455815D01*
X124612863Y-104439181D01*
X123729682Y-103556000D01*
X124942353Y-103556000D01*
X124962834Y-103698456D01*
X125001275Y-103782628D01*
X125022623Y-103829373D01*
X125116872Y-103938143D01*
X125237947Y-104015953D01*
X125237950Y-104015954D01*
X125237949Y-104015954D01*
X125344662Y-104047287D01*
X125374336Y-104056000D01*
X125376036Y-104056499D01*
X125376038Y-104056500D01*
X125376039Y-104056500D01*
X125519962Y-104056500D01*
X125519962Y-104056499D01*
X125658053Y-104015953D01*
X125779128Y-103938143D01*
X125779136Y-103938133D01*
X125780688Y-103936790D01*
X125782572Y-103935929D01*
X125786589Y-103933348D01*
X125786960Y-103933925D01*
X125844243Y-103907763D01*
X125861895Y-103906500D01*
X128251456Y-103906500D01*
X128318495Y-103926185D01*
X128339137Y-103942819D01*
X128411495Y-104015177D01*
X128444980Y-104076500D01*
X128446552Y-104085210D01*
X128462834Y-104198456D01*
X128505718Y-104292357D01*
X128522623Y-104329373D01*
X128616872Y-104438143D01*
X128737947Y-104515953D01*
X128737950Y-104515954D01*
X128737949Y-104515954D01*
X128876036Y-104556499D01*
X128876038Y-104556500D01*
X128876039Y-104556500D01*
X129019962Y-104556500D01*
X129019962Y-104556499D01*
X129158053Y-104515953D01*
X129279128Y-104438143D01*
X129373377Y-104329373D01*
X129433165Y-104198457D01*
X129453647Y-104056000D01*
X129433165Y-103913543D01*
X129373377Y-103782627D01*
X129279128Y-103673857D01*
X129158053Y-103596047D01*
X129158051Y-103596046D01*
X129158049Y-103596045D01*
X129158050Y-103596045D01*
X129019963Y-103555500D01*
X129019961Y-103555500D01*
X128994544Y-103555500D01*
X128927505Y-103535815D01*
X128906863Y-103519181D01*
X128663213Y-103275531D01*
X128663208Y-103275527D01*
X128583291Y-103229387D01*
X128583287Y-103229385D01*
X128577926Y-103227949D01*
X128577926Y-103227948D01*
X128509476Y-103209608D01*
X128494144Y-103205500D01*
X128494143Y-103205500D01*
X125861895Y-103205500D01*
X125794856Y-103185815D01*
X125780688Y-103175210D01*
X125779132Y-103173862D01*
X125779128Y-103173857D01*
X125658053Y-103096047D01*
X125658051Y-103096046D01*
X125658049Y-103096045D01*
X125658050Y-103096045D01*
X125519963Y-103055500D01*
X125519961Y-103055500D01*
X125376039Y-103055500D01*
X125376036Y-103055500D01*
X125237949Y-103096045D01*
X125116873Y-103173856D01*
X125022623Y-103282626D01*
X125022622Y-103282628D01*
X124962834Y-103413543D01*
X124942353Y-103556000D01*
X123729682Y-103556000D01*
X122515819Y-102342137D01*
X122482334Y-102280814D01*
X122479500Y-102254456D01*
X122479500Y-96329600D01*
X128490217Y-96329600D01*
X128510499Y-96535532D01*
X128521158Y-96570670D01*
X128570568Y-96733554D01*
X128668115Y-96916050D01*
X128668117Y-96916052D01*
X128799389Y-97076010D01*
X128896009Y-97155302D01*
X128959350Y-97207285D01*
X129141846Y-97304832D01*
X129339866Y-97364900D01*
X129339865Y-97364900D01*
X129358329Y-97366718D01*
X129545800Y-97385183D01*
X129751734Y-97364900D01*
X129936636Y-97308810D01*
X130006499Y-97308188D01*
X130060309Y-97339791D01*
X134562988Y-101842470D01*
X134642912Y-101888614D01*
X134732056Y-101912500D01*
X155445456Y-101912500D01*
X155512495Y-101932185D01*
X155533137Y-101948819D01*
X157839984Y-104255666D01*
X157873469Y-104316989D01*
X157868485Y-104386681D01*
X157864686Y-104395751D01*
X157820424Y-104490672D01*
X157820422Y-104490677D01*
X157763793Y-104702020D01*
X157763793Y-104702024D01*
X157744723Y-104919997D01*
X157744723Y-104920002D01*
X157763793Y-105137975D01*
X157763793Y-105137979D01*
X157820422Y-105349322D01*
X157820427Y-105349336D01*
X157903661Y-105527832D01*
X157914153Y-105596909D01*
X157885633Y-105660693D01*
X157827156Y-105698932D01*
X157757289Y-105699486D01*
X157703598Y-105667917D01*
X157385017Y-105349336D01*
X156619212Y-104583530D01*
X156619211Y-104583529D01*
X156619208Y-104583527D01*
X156539290Y-104537387D01*
X156539289Y-104537386D01*
X156539288Y-104537386D01*
X156450144Y-104513500D01*
X156450143Y-104513500D01*
X135736744Y-104513500D01*
X135669705Y-104493815D01*
X135649063Y-104477181D01*
X130555991Y-99384109D01*
X130522506Y-99322786D01*
X130525010Y-99260437D01*
X130581100Y-99075534D01*
X130601383Y-98869600D01*
X130581100Y-98663666D01*
X130521032Y-98465646D01*
X130423485Y-98283150D01*
X130338484Y-98179575D01*
X130292210Y-98123189D01*
X130132252Y-97991917D01*
X130132253Y-97991917D01*
X130132250Y-97991915D01*
X129949754Y-97894368D01*
X129751734Y-97834300D01*
X129751732Y-97834299D01*
X129751734Y-97834299D01*
X129545800Y-97814017D01*
X129339867Y-97834299D01*
X129164492Y-97887498D01*
X129153711Y-97890769D01*
X129141843Y-97894369D01*
X129031698Y-97953243D01*
X128959350Y-97991915D01*
X128959348Y-97991916D01*
X128959347Y-97991917D01*
X128799389Y-98123189D01*
X128671069Y-98279550D01*
X128668115Y-98283150D01*
X128658503Y-98301133D01*
X128570569Y-98465643D01*
X128510499Y-98663667D01*
X128490217Y-98869600D01*
X128510499Y-99075532D01*
X128510500Y-99075534D01*
X128570568Y-99273554D01*
X128668115Y-99456050D01*
X128668117Y-99456052D01*
X128799389Y-99616010D01*
X128896009Y-99695302D01*
X128959350Y-99747285D01*
X129141846Y-99844832D01*
X129339866Y-99904900D01*
X129339865Y-99904900D01*
X129358329Y-99906718D01*
X129545800Y-99925183D01*
X129751734Y-99904900D01*
X129936636Y-99848810D01*
X130006499Y-99848188D01*
X130060309Y-99879791D01*
X135324988Y-105144470D01*
X135404912Y-105190614D01*
X135494056Y-105214500D01*
X135586344Y-105214500D01*
X156207456Y-105214500D01*
X156274495Y-105234185D01*
X156295137Y-105250819D01*
X157839984Y-106795665D01*
X157873469Y-106856988D01*
X157868485Y-106926680D01*
X157864686Y-106935749D01*
X157820426Y-107030667D01*
X157820422Y-107030677D01*
X157763793Y-107242020D01*
X157763793Y-107242024D01*
X157744723Y-107459997D01*
X157744723Y-107460002D01*
X157763793Y-107677975D01*
X157763793Y-107677979D01*
X157820422Y-107889322D01*
X157820424Y-107889326D01*
X157820425Y-107889330D01*
X157866661Y-107988484D01*
X157912897Y-108087638D01*
X157912898Y-108087639D01*
X158030001Y-108254879D01*
X158052327Y-108321082D01*
X158035317Y-108388850D01*
X157984369Y-108436663D01*
X157928425Y-108450000D01*
X157902155Y-108450000D01*
X157842627Y-108456401D01*
X157842620Y-108456403D01*
X157707913Y-108506645D01*
X157707906Y-108506649D01*
X157592812Y-108592809D01*
X157592809Y-108592812D01*
X157506649Y-108707906D01*
X157506645Y-108707913D01*
X157456403Y-108842620D01*
X157456401Y-108842627D01*
X157450000Y-108902155D01*
X157450000Y-109750000D01*
X158509252Y-109750000D01*
X158487482Y-109787708D01*
X158450000Y-109927591D01*
X158450000Y-110072409D01*
X158487482Y-110212292D01*
X158509252Y-110250000D01*
X157450000Y-110250000D01*
X157450000Y-111097844D01*
X157456401Y-111157372D01*
X157456403Y-111157379D01*
X157506645Y-111292086D01*
X157506649Y-111292093D01*
X157592809Y-111407187D01*
X157592812Y-111407190D01*
X157707906Y-111493350D01*
X157707913Y-111493354D01*
X157842620Y-111543596D01*
X157842627Y-111543598D01*
X157902155Y-111549999D01*
X157902172Y-111550000D01*
X158750000Y-111550000D01*
X158750000Y-110490747D01*
X158787708Y-110512518D01*
X158927591Y-110550000D01*
X159072409Y-110550000D01*
X159212292Y-110512518D01*
X159250000Y-110490747D01*
X159250000Y-111550000D01*
X160097828Y-111550000D01*
X160097844Y-111549999D01*
X160157372Y-111543598D01*
X160157379Y-111543596D01*
X160292086Y-111493354D01*
X160292093Y-111493350D01*
X160407187Y-111407190D01*
X160407190Y-111407187D01*
X160493350Y-111292093D01*
X160493354Y-111292086D01*
X160543596Y-111157379D01*
X160543598Y-111157372D01*
X160549999Y-111097844D01*
X160550000Y-111097827D01*
X160550000Y-110250000D01*
X159490748Y-110250000D01*
X159512518Y-110212292D01*
X159550000Y-110072409D01*
X159550000Y-109927591D01*
X159512518Y-109787708D01*
X159490748Y-109750000D01*
X160550000Y-109750000D01*
X160550000Y-108902172D01*
X160549999Y-108902155D01*
X160543598Y-108842627D01*
X160543596Y-108842620D01*
X160493354Y-108707913D01*
X160493350Y-108707906D01*
X160407190Y-108592812D01*
X160407187Y-108592809D01*
X160292093Y-108506649D01*
X160292086Y-108506645D01*
X160157379Y-108456403D01*
X160157372Y-108456401D01*
X160097844Y-108450000D01*
X160071575Y-108450000D01*
X160004536Y-108430315D01*
X159958781Y-108377511D01*
X159948837Y-108308353D01*
X159969998Y-108254879D01*
X160087102Y-108087639D01*
X160179575Y-107889330D01*
X160236207Y-107677977D01*
X160255277Y-107460000D01*
X160236207Y-107242023D01*
X160179575Y-107030670D01*
X160087102Y-106832362D01*
X160087100Y-106832359D01*
X160087099Y-106832357D01*
X159961599Y-106653124D01*
X159961598Y-106653123D01*
X159806877Y-106498402D01*
X159627639Y-106372898D01*
X159476414Y-106302381D01*
X159423977Y-106256210D01*
X159404825Y-106189016D01*
X159425041Y-106122135D01*
X159476414Y-106077618D01*
X159627639Y-106007102D01*
X159806877Y-105881598D01*
X159961598Y-105726877D01*
X160087102Y-105547639D01*
X160179575Y-105349330D01*
X160236207Y-105137977D01*
X160255277Y-104920000D01*
X160236207Y-104702023D01*
X160179575Y-104490670D01*
X160087102Y-104292362D01*
X160087100Y-104292359D01*
X160087099Y-104292357D01*
X159961599Y-104113124D01*
X159895762Y-104047287D01*
X159806877Y-103958402D01*
X159627639Y-103832898D01*
X159627640Y-103832898D01*
X159627638Y-103832897D01*
X159519830Y-103782626D01*
X159429330Y-103740425D01*
X159429326Y-103740424D01*
X159429322Y-103740422D01*
X159217977Y-103683793D01*
X159000002Y-103664723D01*
X158999998Y-103664723D01*
X158895595Y-103673857D01*
X158782023Y-103683793D01*
X158782020Y-103683793D01*
X158570677Y-103740422D01*
X158570672Y-103740424D01*
X158475751Y-103784686D01*
X158406673Y-103795177D01*
X158342889Y-103766656D01*
X158335666Y-103759984D01*
X155857213Y-101281531D01*
X155857208Y-101281527D01*
X155777290Y-101235387D01*
X155777289Y-101235386D01*
X155777288Y-101235386D01*
X155688144Y-101211500D01*
X155688143Y-101211500D01*
X134974744Y-101211500D01*
X134907705Y-101191815D01*
X134887063Y-101175181D01*
X130711882Y-97000000D01*
X157744723Y-97000000D01*
X157762542Y-97203682D01*
X157763793Y-97217975D01*
X157763793Y-97217979D01*
X157820422Y-97429322D01*
X157820424Y-97429326D01*
X157820425Y-97429330D01*
X157866661Y-97528484D01*
X157912897Y-97627638D01*
X157912898Y-97627639D01*
X158038402Y-97806877D01*
X158193123Y-97961598D01*
X158339263Y-98063926D01*
X158382887Y-98118502D01*
X158390079Y-98188001D01*
X158358557Y-98250355D01*
X158298327Y-98285769D01*
X158268138Y-98289500D01*
X157930247Y-98289500D01*
X157871770Y-98301131D01*
X157871769Y-98301132D01*
X157805447Y-98345447D01*
X157761132Y-98411769D01*
X157761131Y-98411770D01*
X157749500Y-98470247D01*
X157749500Y-100609752D01*
X157761131Y-100668229D01*
X157761132Y-100668230D01*
X157805447Y-100734552D01*
X157871769Y-100778867D01*
X157871770Y-100778868D01*
X157930247Y-100790499D01*
X157930250Y-100790500D01*
X157930252Y-100790500D01*
X160069750Y-100790500D01*
X160069751Y-100790499D01*
X160084568Y-100787552D01*
X160128229Y-100778868D01*
X160128229Y-100778867D01*
X160128231Y-100778867D01*
X160194552Y-100734552D01*
X160238867Y-100668231D01*
X160238867Y-100668229D01*
X160238868Y-100668229D01*
X160250499Y-100609752D01*
X160250500Y-100609750D01*
X160250500Y-98470249D01*
X160250499Y-98470247D01*
X160238868Y-98411770D01*
X160238867Y-98411769D01*
X160194552Y-98345447D01*
X160128230Y-98301132D01*
X160128229Y-98301131D01*
X160069752Y-98289500D01*
X160069748Y-98289500D01*
X159731862Y-98289500D01*
X159664823Y-98269815D01*
X159619068Y-98217011D01*
X159609124Y-98147853D01*
X159638149Y-98084297D01*
X159660734Y-98063928D01*
X159806877Y-97961598D01*
X159961598Y-97806877D01*
X160087102Y-97627639D01*
X160179575Y-97429330D01*
X160236207Y-97217977D01*
X160255277Y-97000000D01*
X160236207Y-96782023D01*
X160179575Y-96570670D01*
X160087102Y-96372362D01*
X160087100Y-96372359D01*
X160087099Y-96372357D01*
X159961599Y-96193124D01*
X159888541Y-96120066D01*
X159806877Y-96038402D01*
X159640704Y-95922046D01*
X159627638Y-95912897D01*
X159528484Y-95866661D01*
X159429330Y-95820425D01*
X159429326Y-95820424D01*
X159429322Y-95820422D01*
X159217977Y-95763793D01*
X159000002Y-95744723D01*
X158999998Y-95744723D01*
X158854682Y-95757436D01*
X158782023Y-95763793D01*
X158782020Y-95763793D01*
X158570677Y-95820422D01*
X158570668Y-95820426D01*
X158372361Y-95912898D01*
X158372357Y-95912900D01*
X158193121Y-96038402D01*
X158038402Y-96193121D01*
X157912900Y-96372357D01*
X157912898Y-96372361D01*
X157820426Y-96570668D01*
X157820422Y-96570677D01*
X157763793Y-96782020D01*
X157763793Y-96782023D01*
X157744723Y-97000000D01*
X130711882Y-97000000D01*
X130555991Y-96844109D01*
X130522506Y-96782786D01*
X130525010Y-96720437D01*
X130581100Y-96535534D01*
X130601383Y-96329600D01*
X130581100Y-96123666D01*
X130521032Y-95925646D01*
X130423485Y-95743150D01*
X130371502Y-95679809D01*
X130292210Y-95583189D01*
X130174477Y-95486569D01*
X130132250Y-95451915D01*
X129949754Y-95354368D01*
X129751734Y-95294300D01*
X129751732Y-95294299D01*
X129751734Y-95294299D01*
X129545800Y-95274017D01*
X129339867Y-95294299D01*
X129164492Y-95347498D01*
X129153711Y-95350769D01*
X129141843Y-95354369D01*
X129097366Y-95378143D01*
X128959350Y-95451915D01*
X128959348Y-95451916D01*
X128959347Y-95451917D01*
X128799389Y-95583189D01*
X128671069Y-95739550D01*
X128668115Y-95743150D01*
X128657081Y-95763793D01*
X128570569Y-95925643D01*
X128510499Y-96123667D01*
X128490217Y-96329600D01*
X122479500Y-96329600D01*
X122479500Y-89069858D01*
X122479500Y-89069856D01*
X122455614Y-88980712D01*
X122417984Y-88915534D01*
X122409472Y-88900791D01*
X122409468Y-88900786D01*
X119950102Y-86441420D01*
X119916617Y-86380097D01*
X119915046Y-86336090D01*
X119916497Y-86326000D01*
X119896015Y-86183543D01*
X119836227Y-86052627D01*
X119741978Y-85943857D01*
X119620903Y-85866047D01*
X119620901Y-85866046D01*
X119620899Y-85866045D01*
X119620900Y-85866045D01*
X119482813Y-85825500D01*
X119482811Y-85825500D01*
X119338889Y-85825500D01*
X119338886Y-85825500D01*
X119200799Y-85866045D01*
X119079723Y-85943856D01*
X118985473Y-86052626D01*
X118985472Y-86052628D01*
X118925684Y-86183543D01*
X118905203Y-86326000D01*
X110259824Y-86326000D01*
X110275583Y-86166000D01*
X110255300Y-85960066D01*
X110195232Y-85762046D01*
X110097685Y-85579550D01*
X110045702Y-85516209D01*
X109966410Y-85419589D01*
X109810839Y-85291917D01*
X109806450Y-85288315D01*
X109623954Y-85190768D01*
X109425934Y-85130700D01*
X109425932Y-85130699D01*
X109425934Y-85130699D01*
X109220000Y-85110417D01*
X109014067Y-85130699D01*
X108816043Y-85190769D01*
X108748961Y-85226626D01*
X108633550Y-85288315D01*
X108633548Y-85288316D01*
X108633547Y-85288317D01*
X108473589Y-85419589D01*
X108342317Y-85579547D01*
X108342315Y-85579550D01*
X108327419Y-85607419D01*
X108244769Y-85762043D01*
X108184699Y-85960067D01*
X108164417Y-86166000D01*
X100500500Y-86166000D01*
X100500500Y-83626000D01*
X108164417Y-83626000D01*
X108184699Y-83831932D01*
X108209863Y-83914887D01*
X108244768Y-84029954D01*
X108342315Y-84212450D01*
X108364073Y-84238962D01*
X108473589Y-84372410D01*
X108570209Y-84451702D01*
X108633550Y-84503685D01*
X108816046Y-84601232D01*
X109014066Y-84661300D01*
X109014065Y-84661300D01*
X109032529Y-84663118D01*
X109220000Y-84681583D01*
X109425934Y-84661300D01*
X109623954Y-84601232D01*
X109806450Y-84503685D01*
X109966410Y-84372410D01*
X110097685Y-84212450D01*
X110195232Y-84029954D01*
X110255300Y-83831934D01*
X110275583Y-83626000D01*
X110255300Y-83420066D01*
X110195232Y-83222046D01*
X110097685Y-83039550D01*
X110045702Y-82976209D01*
X109966410Y-82879589D01*
X109810839Y-82751917D01*
X109806450Y-82748315D01*
X109623954Y-82650768D01*
X109425934Y-82590700D01*
X109425932Y-82590699D01*
X109425934Y-82590699D01*
X109220000Y-82570417D01*
X109014067Y-82590699D01*
X108816043Y-82650769D01*
X108705898Y-82709643D01*
X108633550Y-82748315D01*
X108633548Y-82748316D01*
X108633547Y-82748317D01*
X108473589Y-82879589D01*
X108374362Y-83000500D01*
X108342315Y-83039550D01*
X108340391Y-83043150D01*
X108244769Y-83222043D01*
X108184699Y-83420067D01*
X108164417Y-83626000D01*
X100500500Y-83626000D01*
X100500500Y-81086000D01*
X108164417Y-81086000D01*
X108184699Y-81291932D01*
X108184700Y-81291934D01*
X108244768Y-81489954D01*
X108342315Y-81672450D01*
X108345271Y-81676052D01*
X108473589Y-81832410D01*
X108565625Y-81907941D01*
X108633550Y-81963685D01*
X108816046Y-82061232D01*
X109014066Y-82121300D01*
X109014065Y-82121300D01*
X109032529Y-82123118D01*
X109220000Y-82141583D01*
X109425934Y-82121300D01*
X109623954Y-82061232D01*
X109806450Y-81963685D01*
X109966410Y-81832410D01*
X110097685Y-81672450D01*
X110195232Y-81489954D01*
X110255300Y-81291934D01*
X110275583Y-81086000D01*
X110255300Y-80880066D01*
X110195232Y-80682046D01*
X110127858Y-80556000D01*
X117704353Y-80556000D01*
X117724834Y-80698456D01*
X117765595Y-80787708D01*
X117784623Y-80829373D01*
X117878872Y-80938143D01*
X117878875Y-80938144D01*
X117879213Y-80938535D01*
X117908238Y-81002091D01*
X117909500Y-81019738D01*
X117909500Y-81166255D01*
X117892888Y-81228254D01*
X117883384Y-81244714D01*
X117859501Y-81333850D01*
X117859501Y-81426149D01*
X117883384Y-81515285D01*
X117883385Y-81515286D01*
X117929527Y-81595208D01*
X117929531Y-81595213D01*
X123311181Y-86976863D01*
X123344666Y-87038186D01*
X123347500Y-87064544D01*
X123347500Y-94589963D01*
X123327815Y-94657002D01*
X123317214Y-94671164D01*
X123272625Y-94722623D01*
X123272622Y-94722628D01*
X123212834Y-94853543D01*
X123192353Y-94996000D01*
X123212834Y-95138456D01*
X123272622Y-95269371D01*
X123272623Y-95269373D01*
X123366872Y-95378143D01*
X123487947Y-95455953D01*
X123487950Y-95455954D01*
X123487949Y-95455954D01*
X123626036Y-95496499D01*
X123626038Y-95496500D01*
X123626039Y-95496500D01*
X123769962Y-95496500D01*
X123769962Y-95496499D01*
X123908053Y-95455953D01*
X124029128Y-95378143D01*
X124123377Y-95269373D01*
X124183165Y-95138457D01*
X124203647Y-94996000D01*
X124183165Y-94853543D01*
X124123377Y-94722627D01*
X124123374Y-94722623D01*
X124078786Y-94671164D01*
X124049762Y-94607608D01*
X124048500Y-94589963D01*
X124048500Y-93789600D01*
X128490217Y-93789600D01*
X128510499Y-93995532D01*
X128540534Y-94094544D01*
X128570568Y-94193554D01*
X128668115Y-94376050D01*
X128668117Y-94376052D01*
X128799389Y-94536010D01*
X128865132Y-94589963D01*
X128959350Y-94667285D01*
X129141846Y-94764832D01*
X129339866Y-94824900D01*
X129339865Y-94824900D01*
X129358329Y-94826718D01*
X129545800Y-94845183D01*
X129751734Y-94824900D01*
X129949754Y-94764832D01*
X130132250Y-94667285D01*
X130292210Y-94536010D01*
X130321762Y-94500000D01*
X134494353Y-94500000D01*
X134514834Y-94642456D01*
X134527945Y-94671164D01*
X134574623Y-94773373D01*
X134668872Y-94882143D01*
X134789947Y-94959953D01*
X134789950Y-94959954D01*
X134789949Y-94959954D01*
X134928036Y-95000499D01*
X134928038Y-95000500D01*
X134928039Y-95000500D01*
X135071962Y-95000500D01*
X135071962Y-95000499D01*
X135210053Y-94959953D01*
X135331128Y-94882143D01*
X135331136Y-94882133D01*
X135332688Y-94880790D01*
X135334572Y-94879929D01*
X135338589Y-94877348D01*
X135338960Y-94877925D01*
X135396243Y-94851763D01*
X135413895Y-94850500D01*
X137586105Y-94850500D01*
X137653144Y-94870185D01*
X137667312Y-94880790D01*
X137668866Y-94882137D01*
X137668872Y-94882143D01*
X137789947Y-94959953D01*
X137789950Y-94959954D01*
X137789949Y-94959954D01*
X137928036Y-95000499D01*
X137928038Y-95000500D01*
X137928039Y-95000500D01*
X138071962Y-95000500D01*
X138071962Y-95000499D01*
X138210053Y-94959953D01*
X138331128Y-94882143D01*
X138425377Y-94773373D01*
X138485165Y-94642457D01*
X138505647Y-94500000D01*
X138485165Y-94357543D01*
X138425377Y-94226627D01*
X138331128Y-94117857D01*
X138210053Y-94040047D01*
X138210051Y-94040046D01*
X138210049Y-94040045D01*
X138210050Y-94040045D01*
X138071963Y-93999500D01*
X138071961Y-93999500D01*
X137928039Y-93999500D01*
X137928036Y-93999500D01*
X137789949Y-94040045D01*
X137668876Y-94117854D01*
X137668874Y-94117855D01*
X137668872Y-94117857D01*
X137668870Y-94117858D01*
X137667312Y-94119210D01*
X137665427Y-94120070D01*
X137661411Y-94122652D01*
X137661039Y-94122074D01*
X137603757Y-94148237D01*
X137586105Y-94149500D01*
X135413895Y-94149500D01*
X135346856Y-94129815D01*
X135332688Y-94119210D01*
X135331132Y-94117862D01*
X135331128Y-94117857D01*
X135210053Y-94040047D01*
X135210051Y-94040046D01*
X135210049Y-94040045D01*
X135210050Y-94040045D01*
X135071963Y-93999500D01*
X135071961Y-93999500D01*
X134928039Y-93999500D01*
X134928036Y-93999500D01*
X134789949Y-94040045D01*
X134668873Y-94117856D01*
X134668872Y-94117856D01*
X134668872Y-94117857D01*
X134665218Y-94122074D01*
X134574623Y-94226626D01*
X134574622Y-94226628D01*
X134514834Y-94357543D01*
X134494353Y-94500000D01*
X130321762Y-94500000D01*
X130423485Y-94376050D01*
X130521032Y-94193554D01*
X130581100Y-93995534D01*
X130601383Y-93789600D01*
X130581100Y-93583666D01*
X130525010Y-93398763D01*
X130524388Y-93328898D01*
X130555989Y-93275091D01*
X131780470Y-92050612D01*
X131826614Y-91970688D01*
X131841620Y-91914684D01*
X131850500Y-91881544D01*
X131850500Y-91346936D01*
X131870185Y-91279897D01*
X131922989Y-91234142D01*
X131992147Y-91224198D01*
X132055703Y-91253223D01*
X132067980Y-91267393D01*
X132068815Y-91266670D01*
X132074622Y-91273372D01*
X132074623Y-91273373D01*
X132168872Y-91382143D01*
X132289947Y-91459953D01*
X132289950Y-91459954D01*
X132289949Y-91459954D01*
X132397107Y-91491417D01*
X132426336Y-91500000D01*
X132428036Y-91500499D01*
X132428038Y-91500500D01*
X132428039Y-91500500D01*
X132571962Y-91500500D01*
X132571962Y-91500499D01*
X132710053Y-91459953D01*
X132831128Y-91382143D01*
X132925377Y-91273373D01*
X132985165Y-91142457D01*
X133001447Y-91029208D01*
X133030470Y-90965656D01*
X133036489Y-90959191D01*
X134535680Y-89460000D01*
X157744723Y-89460000D01*
X157755543Y-89583682D01*
X157763793Y-89677975D01*
X157763793Y-89677979D01*
X157820422Y-89889322D01*
X157820424Y-89889326D01*
X157820425Y-89889330D01*
X157866661Y-89988484D01*
X157912897Y-90087638D01*
X157912898Y-90087639D01*
X158038402Y-90266877D01*
X158193123Y-90421598D01*
X158339263Y-90523926D01*
X158382887Y-90578502D01*
X158390079Y-90648001D01*
X158358557Y-90710355D01*
X158298327Y-90745769D01*
X158268138Y-90749500D01*
X157930247Y-90749500D01*
X157871770Y-90761131D01*
X157871769Y-90761132D01*
X157805447Y-90805447D01*
X157761132Y-90871769D01*
X157761131Y-90871770D01*
X157749500Y-90930247D01*
X157749500Y-93069752D01*
X157761131Y-93128229D01*
X157761132Y-93128230D01*
X157805447Y-93194552D01*
X157871769Y-93238867D01*
X157871770Y-93238868D01*
X157930247Y-93250499D01*
X157930250Y-93250500D01*
X157930252Y-93250500D01*
X160069750Y-93250500D01*
X160069751Y-93250499D01*
X160084568Y-93247552D01*
X160128229Y-93238868D01*
X160128229Y-93238867D01*
X160128231Y-93238867D01*
X160194552Y-93194552D01*
X160238867Y-93128231D01*
X160238867Y-93128229D01*
X160238868Y-93128229D01*
X160250499Y-93069752D01*
X160250500Y-93069750D01*
X160250500Y-90930249D01*
X160250499Y-90930247D01*
X160238868Y-90871770D01*
X160238867Y-90871769D01*
X160194552Y-90805447D01*
X160128230Y-90761132D01*
X160128229Y-90761131D01*
X160069752Y-90749500D01*
X160069748Y-90749500D01*
X159731862Y-90749500D01*
X159664823Y-90729815D01*
X159619068Y-90677011D01*
X159609124Y-90607853D01*
X159638149Y-90544297D01*
X159660734Y-90523928D01*
X159806877Y-90421598D01*
X159961598Y-90266877D01*
X160087102Y-90087639D01*
X160179575Y-89889330D01*
X160236207Y-89677977D01*
X160255277Y-89460000D01*
X160236207Y-89242023D01*
X160179575Y-89030670D01*
X160087102Y-88832362D01*
X160087100Y-88832359D01*
X160087099Y-88832357D01*
X159961599Y-88653124D01*
X159926331Y-88617856D01*
X159806877Y-88498402D01*
X159649761Y-88388388D01*
X159627638Y-88372897D01*
X159524561Y-88324832D01*
X159429330Y-88280425D01*
X159429326Y-88280424D01*
X159429322Y-88280422D01*
X159217977Y-88223793D01*
X159000002Y-88204723D01*
X158999998Y-88204723D01*
X158854682Y-88217436D01*
X158782023Y-88223793D01*
X158782020Y-88223793D01*
X158570677Y-88280422D01*
X158570668Y-88280426D01*
X158372361Y-88372898D01*
X158372357Y-88372900D01*
X158193121Y-88498402D01*
X158038402Y-88653121D01*
X157912900Y-88832357D01*
X157912898Y-88832361D01*
X157820426Y-89030668D01*
X157820422Y-89030677D01*
X157763793Y-89242020D01*
X157763793Y-89242023D01*
X157744723Y-89460000D01*
X134535680Y-89460000D01*
X136458862Y-87536819D01*
X136520185Y-87503334D01*
X136546543Y-87500500D01*
X136571962Y-87500500D01*
X136571962Y-87500499D01*
X136710053Y-87459953D01*
X136831128Y-87382143D01*
X136925377Y-87273373D01*
X136985165Y-87142457D01*
X137005647Y-87000000D01*
X136985165Y-86857543D01*
X136925377Y-86726627D01*
X136831128Y-86617857D01*
X136710053Y-86540047D01*
X136710051Y-86540046D01*
X136710049Y-86540045D01*
X136710050Y-86540045D01*
X136571963Y-86499500D01*
X136571961Y-86499500D01*
X136428039Y-86499500D01*
X136428036Y-86499500D01*
X136289949Y-86540045D01*
X136168873Y-86617856D01*
X136074623Y-86726626D01*
X136074622Y-86726628D01*
X136014834Y-86857543D01*
X135998552Y-86970789D01*
X135969526Y-87034344D01*
X135963495Y-87040822D01*
X132541137Y-90463181D01*
X132479814Y-90496666D01*
X132453456Y-90499500D01*
X132428036Y-90499500D01*
X132289949Y-90540045D01*
X132168873Y-90617856D01*
X132168872Y-90617856D01*
X132168872Y-90617857D01*
X132150054Y-90639575D01*
X132068815Y-90733330D01*
X132066187Y-90731053D01*
X132025971Y-90765876D01*
X131956809Y-90775795D01*
X131893264Y-90746747D01*
X131855510Y-90687956D01*
X131850500Y-90653063D01*
X131850500Y-89406035D01*
X131870185Y-89338996D01*
X131880782Y-89324837D01*
X131925377Y-89273373D01*
X131985165Y-89142457D01*
X132005647Y-89000000D01*
X131985165Y-88857543D01*
X131925377Y-88726627D01*
X131831128Y-88617857D01*
X131710053Y-88540047D01*
X131710051Y-88540046D01*
X131710049Y-88540045D01*
X131710050Y-88540045D01*
X131571963Y-88499500D01*
X131571961Y-88499500D01*
X131428039Y-88499500D01*
X131428036Y-88499500D01*
X131289949Y-88540045D01*
X131168873Y-88617856D01*
X131074623Y-88726626D01*
X131074622Y-88726628D01*
X131014834Y-88857543D01*
X130994353Y-89000000D01*
X131014834Y-89142456D01*
X131039685Y-89196871D01*
X131074623Y-89273373D01*
X131119213Y-89324833D01*
X131148238Y-89388388D01*
X131149500Y-89406035D01*
X131149500Y-91638855D01*
X131129815Y-91705894D01*
X131113181Y-91726536D01*
X130060308Y-92779408D01*
X129998985Y-92812893D01*
X129936633Y-92810388D01*
X129751734Y-92754300D01*
X129751732Y-92754299D01*
X129751734Y-92754299D01*
X129545800Y-92734017D01*
X129339867Y-92754299D01*
X129164492Y-92807498D01*
X129146709Y-92812893D01*
X129141843Y-92814369D01*
X129031698Y-92873243D01*
X128959350Y-92911915D01*
X128959348Y-92911916D01*
X128959347Y-92911917D01*
X128799389Y-93043189D01*
X128668117Y-93203147D01*
X128570569Y-93385643D01*
X128510499Y-93583667D01*
X128490217Y-93789600D01*
X124048500Y-93789600D01*
X124048500Y-88000000D01*
X127494353Y-88000000D01*
X127514834Y-88142456D01*
X127545660Y-88209954D01*
X127574623Y-88273373D01*
X127619213Y-88324833D01*
X127648238Y-88388388D01*
X127649500Y-88406035D01*
X127649500Y-91093963D01*
X127629815Y-91161002D01*
X127619214Y-91175164D01*
X127574625Y-91226623D01*
X127574622Y-91226628D01*
X127514834Y-91357543D01*
X127494353Y-91500000D01*
X127514834Y-91642456D01*
X127571562Y-91766670D01*
X127574623Y-91773373D01*
X127668872Y-91882143D01*
X127789947Y-91959953D01*
X127789950Y-91959954D01*
X127789949Y-91959954D01*
X127928036Y-92000499D01*
X127928038Y-92000500D01*
X127928039Y-92000500D01*
X128071962Y-92000500D01*
X128071962Y-92000499D01*
X128210053Y-91959953D01*
X128331128Y-91882143D01*
X128425377Y-91773373D01*
X128425381Y-91773362D01*
X128425455Y-91773251D01*
X128425565Y-91773155D01*
X128431185Y-91766670D01*
X128432116Y-91767477D01*
X128478255Y-91727492D01*
X128547413Y-91717544D01*
X128610971Y-91746564D01*
X128639133Y-91781829D01*
X128668115Y-91836050D01*
X128668117Y-91836052D01*
X128799389Y-91996010D01*
X128865918Y-92050608D01*
X128959350Y-92127285D01*
X129141846Y-92224832D01*
X129339866Y-92284900D01*
X129339865Y-92284900D01*
X129358329Y-92286718D01*
X129545800Y-92305183D01*
X129751734Y-92284900D01*
X129949754Y-92224832D01*
X130132250Y-92127285D01*
X130292210Y-91996010D01*
X130423485Y-91836050D01*
X130521032Y-91653554D01*
X130581100Y-91455534D01*
X130601383Y-91249600D01*
X130581100Y-91043666D01*
X130521032Y-90845646D01*
X130423485Y-90663150D01*
X130354017Y-90578502D01*
X130292210Y-90503189D01*
X130132252Y-90371917D01*
X130132253Y-90371917D01*
X130132250Y-90371915D01*
X129949754Y-90274368D01*
X129751734Y-90214300D01*
X129751732Y-90214299D01*
X129751734Y-90214299D01*
X129545800Y-90194017D01*
X129339867Y-90214299D01*
X129166541Y-90266877D01*
X129153711Y-90270769D01*
X129141843Y-90274369D01*
X129031698Y-90333243D01*
X128959350Y-90371915D01*
X128959348Y-90371916D01*
X128959347Y-90371917D01*
X128799389Y-90503189D01*
X128668117Y-90663147D01*
X128583858Y-90820782D01*
X128534895Y-90870626D01*
X128466757Y-90886086D01*
X128401078Y-90862254D01*
X128358709Y-90806696D01*
X128350500Y-90762328D01*
X128350500Y-89196871D01*
X128370185Y-89129832D01*
X128422989Y-89084077D01*
X128492147Y-89074133D01*
X128555703Y-89103158D01*
X128583856Y-89138415D01*
X128668115Y-89296050D01*
X128668117Y-89296052D01*
X128799389Y-89456010D01*
X128896009Y-89535302D01*
X128959350Y-89587285D01*
X129141846Y-89684832D01*
X129339866Y-89744900D01*
X129339865Y-89744900D01*
X129358329Y-89746718D01*
X129545800Y-89765183D01*
X129751734Y-89744900D01*
X129949754Y-89684832D01*
X130132250Y-89587285D01*
X130292210Y-89456010D01*
X130423485Y-89296050D01*
X130521032Y-89113554D01*
X130581100Y-88915534D01*
X130601383Y-88709600D01*
X130581100Y-88503666D01*
X130521032Y-88305646D01*
X130423485Y-88123150D01*
X130368126Y-88055695D01*
X130292210Y-87963189D01*
X130132252Y-87831917D01*
X130132253Y-87831917D01*
X130132250Y-87831915D01*
X129949754Y-87734368D01*
X129751734Y-87674300D01*
X129751732Y-87674299D01*
X129751734Y-87674299D01*
X129545800Y-87654017D01*
X129339867Y-87674299D01*
X129167368Y-87726626D01*
X129153711Y-87730769D01*
X129141843Y-87734369D01*
X129031698Y-87793243D01*
X128959350Y-87831915D01*
X128959348Y-87831916D01*
X128959347Y-87831917D01*
X128799389Y-87963190D01*
X128723472Y-88055695D01*
X128665726Y-88095029D01*
X128595882Y-88096900D01*
X128536113Y-88060712D01*
X128505398Y-87997956D01*
X128504887Y-87994714D01*
X128485165Y-87857543D01*
X128425377Y-87726627D01*
X128331128Y-87617857D01*
X128210053Y-87540047D01*
X128210051Y-87540046D01*
X128210049Y-87540045D01*
X128210050Y-87540045D01*
X128071963Y-87499500D01*
X128071961Y-87499500D01*
X127928039Y-87499500D01*
X127928036Y-87499500D01*
X127789949Y-87540045D01*
X127668873Y-87617856D01*
X127574623Y-87726626D01*
X127574622Y-87726628D01*
X127514834Y-87857543D01*
X127494353Y-88000000D01*
X124048500Y-88000000D01*
X124048500Y-86821858D01*
X124048500Y-86821856D01*
X124024614Y-86732712D01*
X124017004Y-86719531D01*
X124017004Y-86719530D01*
X123978474Y-86652794D01*
X123978468Y-86652786D01*
X123651682Y-86326000D01*
X124353503Y-86326000D01*
X124373984Y-86468456D01*
X124427504Y-86585646D01*
X124433773Y-86599373D01*
X124528022Y-86708143D01*
X124649097Y-86785953D01*
X124649100Y-86785954D01*
X124649099Y-86785954D01*
X124787186Y-86826499D01*
X124787188Y-86826500D01*
X124787189Y-86826500D01*
X124931112Y-86826500D01*
X124931112Y-86826499D01*
X125069203Y-86785953D01*
X125190278Y-86708143D01*
X125284527Y-86599373D01*
X125344315Y-86468457D01*
X125360597Y-86355208D01*
X125389620Y-86291656D01*
X125395639Y-86285191D01*
X127441870Y-84238962D01*
X127488014Y-84159038D01*
X127501685Y-84108016D01*
X127511900Y-84069894D01*
X127511900Y-83629600D01*
X128490217Y-83629600D01*
X128510499Y-83835532D01*
X128534571Y-83914887D01*
X128570568Y-84033554D01*
X128668115Y-84216050D01*
X128676796Y-84226628D01*
X128799389Y-84376010D01*
X128896009Y-84455302D01*
X128959350Y-84507285D01*
X129141846Y-84604832D01*
X129339866Y-84664900D01*
X129339865Y-84664900D01*
X129358329Y-84666718D01*
X129545800Y-84685183D01*
X129751734Y-84664900D01*
X129936636Y-84608810D01*
X130006499Y-84608188D01*
X130060309Y-84639791D01*
X131027937Y-85607419D01*
X131061422Y-85668742D01*
X131056438Y-85738434D01*
X131014566Y-85794367D01*
X130949102Y-85818784D01*
X130940256Y-85819100D01*
X130623927Y-85819100D01*
X130556888Y-85799415D01*
X130514569Y-85753554D01*
X130469235Y-85668742D01*
X130423485Y-85583150D01*
X130355246Y-85500000D01*
X130292210Y-85423189D01*
X130132252Y-85291917D01*
X130132253Y-85291917D01*
X130132250Y-85291915D01*
X129949754Y-85194368D01*
X129751734Y-85134300D01*
X129751732Y-85134299D01*
X129751734Y-85134299D01*
X129545800Y-85114017D01*
X129339867Y-85134299D01*
X129206248Y-85174832D01*
X129153711Y-85190769D01*
X129141843Y-85194369D01*
X129081496Y-85226626D01*
X128959350Y-85291915D01*
X128959348Y-85291916D01*
X128959347Y-85291917D01*
X128799389Y-85423189D01*
X128671069Y-85579550D01*
X128668115Y-85583150D01*
X128630535Y-85653456D01*
X128570569Y-85765643D01*
X128510499Y-85963667D01*
X128490217Y-86169600D01*
X128510499Y-86375532D01*
X128530957Y-86442973D01*
X128570568Y-86573554D01*
X128668115Y-86756050D01*
X128702769Y-86798277D01*
X128799389Y-86916010D01*
X128873540Y-86976863D01*
X128959350Y-87047285D01*
X129141846Y-87144832D01*
X129339866Y-87204900D01*
X129339865Y-87204900D01*
X129358329Y-87206718D01*
X129545800Y-87225183D01*
X129751734Y-87204900D01*
X129949754Y-87144832D01*
X130132250Y-87047285D01*
X130292210Y-86916010D01*
X130423485Y-86756050D01*
X130500076Y-86612758D01*
X130514569Y-86585646D01*
X130563532Y-86535802D01*
X130623927Y-86520100D01*
X134086105Y-86520100D01*
X134153144Y-86539785D01*
X134167312Y-86550390D01*
X134168866Y-86551737D01*
X134168872Y-86551743D01*
X134289947Y-86629553D01*
X134289950Y-86629554D01*
X134289949Y-86629554D01*
X134428036Y-86670099D01*
X134428038Y-86670100D01*
X134428039Y-86670100D01*
X134571962Y-86670100D01*
X134571962Y-86670099D01*
X134710053Y-86629553D01*
X134831128Y-86551743D01*
X134925377Y-86442973D01*
X134985165Y-86312057D01*
X135005647Y-86169600D01*
X135000296Y-86132384D01*
X135010239Y-86063227D01*
X135055994Y-86010423D01*
X135088098Y-85995761D01*
X135209665Y-85960067D01*
X135210050Y-85959954D01*
X135210050Y-85959953D01*
X135210053Y-85959953D01*
X135331128Y-85882143D01*
X135425377Y-85773373D01*
X135485165Y-85642457D01*
X135505647Y-85500000D01*
X135485165Y-85357543D01*
X135425377Y-85226627D01*
X135331128Y-85117857D01*
X135210053Y-85040047D01*
X135210051Y-85040046D01*
X135210049Y-85040045D01*
X135210050Y-85040045D01*
X135071963Y-84999500D01*
X135071961Y-84999500D01*
X134928039Y-84999500D01*
X134928036Y-84999500D01*
X134789949Y-85040045D01*
X134668876Y-85117854D01*
X134668874Y-85117855D01*
X134668872Y-85117857D01*
X134668870Y-85117858D01*
X134667312Y-85119210D01*
X134665427Y-85120070D01*
X134661411Y-85122652D01*
X134661039Y-85122074D01*
X134603757Y-85148237D01*
X134586105Y-85149500D01*
X131612744Y-85149500D01*
X131545705Y-85129815D01*
X131525063Y-85113181D01*
X131261882Y-84850000D01*
X145494353Y-84850000D01*
X145514834Y-84992456D01*
X145574030Y-85122074D01*
X145574623Y-85123373D01*
X145619213Y-85174833D01*
X145648238Y-85238388D01*
X145649500Y-85256035D01*
X145649500Y-86316144D01*
X145667927Y-86384913D01*
X145667926Y-86384913D01*
X145667927Y-86384915D01*
X145673385Y-86405286D01*
X145719527Y-86485208D01*
X145719531Y-86485213D01*
X147078495Y-87844177D01*
X147111980Y-87905500D01*
X147113552Y-87914210D01*
X147129834Y-88027456D01*
X147173537Y-88123150D01*
X147189623Y-88158373D01*
X147283872Y-88267143D01*
X147404947Y-88344953D01*
X147404950Y-88344954D01*
X147404949Y-88344954D01*
X147543036Y-88385499D01*
X147543038Y-88385500D01*
X147543039Y-88385500D01*
X147686962Y-88385500D01*
X147686962Y-88385499D01*
X147825053Y-88344953D01*
X147946128Y-88267143D01*
X148040377Y-88158373D01*
X148058109Y-88119547D01*
X148100532Y-88026653D01*
X148146287Y-87973849D01*
X148213326Y-87954164D01*
X148280365Y-87973849D01*
X148317894Y-88017156D01*
X148319829Y-88015913D01*
X148324622Y-88023371D01*
X148324623Y-88023373D01*
X148418872Y-88132143D01*
X148539947Y-88209953D01*
X148539950Y-88209954D01*
X148539949Y-88209954D01*
X148678036Y-88250499D01*
X148678038Y-88250500D01*
X148678039Y-88250500D01*
X148821962Y-88250500D01*
X148821962Y-88250499D01*
X148960053Y-88209953D01*
X149081128Y-88132143D01*
X149175377Y-88023373D01*
X149235165Y-87892457D01*
X149255647Y-87750000D01*
X149235165Y-87607543D01*
X149175377Y-87476627D01*
X149081128Y-87367857D01*
X148960053Y-87290047D01*
X148960051Y-87290046D01*
X148960049Y-87290045D01*
X148960050Y-87290045D01*
X148821963Y-87249500D01*
X148821961Y-87249500D01*
X148796544Y-87249500D01*
X148729505Y-87229815D01*
X148708863Y-87213181D01*
X147236819Y-85741137D01*
X147203334Y-85679814D01*
X147200500Y-85653456D01*
X147200500Y-85256035D01*
X147220185Y-85188996D01*
X147230782Y-85174837D01*
X147275377Y-85123373D01*
X147335165Y-84992457D01*
X147355647Y-84850000D01*
X147335165Y-84707543D01*
X147275377Y-84576627D01*
X147181128Y-84467857D01*
X147060053Y-84390047D01*
X147060051Y-84390046D01*
X147060049Y-84390045D01*
X147060050Y-84390045D01*
X146921963Y-84349500D01*
X146921961Y-84349500D01*
X146778039Y-84349500D01*
X146778036Y-84349500D01*
X146639949Y-84390045D01*
X146518872Y-84467857D01*
X146518711Y-84468043D01*
X146518504Y-84468175D01*
X146512172Y-84473663D01*
X146511382Y-84472752D01*
X146459932Y-84505816D01*
X146390063Y-84505814D01*
X146338617Y-84472752D01*
X146337828Y-84473663D01*
X146331495Y-84468175D01*
X146331289Y-84468043D01*
X146331128Y-84467857D01*
X146210053Y-84390047D01*
X146210051Y-84390046D01*
X146210049Y-84390045D01*
X146210050Y-84390045D01*
X146071963Y-84349500D01*
X146071961Y-84349500D01*
X145928039Y-84349500D01*
X145928036Y-84349500D01*
X145789949Y-84390045D01*
X145668873Y-84467856D01*
X145668872Y-84467856D01*
X145668872Y-84467857D01*
X145663841Y-84473663D01*
X145574623Y-84576626D01*
X145574622Y-84576628D01*
X145514834Y-84707543D01*
X145494353Y-84850000D01*
X131261882Y-84850000D01*
X130555991Y-84144109D01*
X130522506Y-84082786D01*
X130525010Y-84020437D01*
X130581100Y-83835534D01*
X130601383Y-83629600D01*
X130581100Y-83423666D01*
X130521032Y-83225646D01*
X130467235Y-83125000D01*
X149369353Y-83125000D01*
X149389834Y-83267456D01*
X149449622Y-83398371D01*
X149449623Y-83398373D01*
X149543872Y-83507143D01*
X149664947Y-83584953D01*
X149664950Y-83584954D01*
X149664949Y-83584954D01*
X149803036Y-83625499D01*
X149803038Y-83625500D01*
X149803039Y-83625500D01*
X149828456Y-83625500D01*
X149895495Y-83645185D01*
X149916137Y-83661819D01*
X151338495Y-85084177D01*
X151371980Y-85145500D01*
X151373552Y-85154210D01*
X151389834Y-85267456D01*
X151430976Y-85357543D01*
X151449623Y-85398373D01*
X151543872Y-85507143D01*
X151664947Y-85584953D01*
X151664950Y-85584954D01*
X151664949Y-85584954D01*
X151803036Y-85625499D01*
X151803038Y-85625500D01*
X151803039Y-85625500D01*
X151946962Y-85625500D01*
X151946962Y-85625499D01*
X152085053Y-85584953D01*
X152206128Y-85507143D01*
X152300377Y-85398373D01*
X152360165Y-85267457D01*
X152380647Y-85125000D01*
X152380647Y-85124999D01*
X152380647Y-85124500D01*
X152380787Y-85124020D01*
X152381909Y-85116222D01*
X152383030Y-85116383D01*
X152400332Y-85057461D01*
X152453136Y-85011706D01*
X152504647Y-85000500D01*
X152571962Y-85000500D01*
X152571962Y-85000499D01*
X152710053Y-84959953D01*
X152831128Y-84882143D01*
X152925377Y-84773373D01*
X152985165Y-84642457D01*
X153005647Y-84500000D01*
X152985165Y-84357543D01*
X152925377Y-84226627D01*
X152831128Y-84117857D01*
X152710053Y-84040047D01*
X152710051Y-84040046D01*
X152710049Y-84040045D01*
X152710050Y-84040045D01*
X152571963Y-83999500D01*
X152571961Y-83999500D01*
X152546544Y-83999500D01*
X152479505Y-83979815D01*
X152458863Y-83963181D01*
X151036503Y-82540821D01*
X151003018Y-82479498D01*
X151001449Y-82470805D01*
X150985165Y-82357543D01*
X150925377Y-82226627D01*
X150831128Y-82117857D01*
X150710053Y-82040047D01*
X150710051Y-82040046D01*
X150710049Y-82040045D01*
X150710050Y-82040045D01*
X150571963Y-81999500D01*
X150571961Y-81999500D01*
X150428039Y-81999500D01*
X150428036Y-81999500D01*
X150289949Y-82040045D01*
X150168873Y-82117856D01*
X150074623Y-82226626D01*
X150074622Y-82226628D01*
X150014834Y-82357543D01*
X149994353Y-82500000D01*
X149994353Y-82500500D01*
X149994212Y-82500979D01*
X149993091Y-82508778D01*
X149991969Y-82508616D01*
X149974668Y-82567539D01*
X149921864Y-82613294D01*
X149870353Y-82624500D01*
X149803036Y-82624500D01*
X149664949Y-82665045D01*
X149543873Y-82742856D01*
X149449623Y-82851626D01*
X149449622Y-82851628D01*
X149389834Y-82982543D01*
X149369353Y-83125000D01*
X130467235Y-83125000D01*
X130423485Y-83043150D01*
X130371502Y-82979809D01*
X130292210Y-82883189D01*
X130132252Y-82751917D01*
X130132253Y-82751917D01*
X130132250Y-82751915D01*
X129949754Y-82654368D01*
X129751734Y-82594300D01*
X129751732Y-82594299D01*
X129751734Y-82594299D01*
X129545800Y-82574017D01*
X129339867Y-82594299D01*
X129181112Y-82642457D01*
X129153711Y-82650769D01*
X129141843Y-82654369D01*
X129031698Y-82713243D01*
X128959350Y-82751915D01*
X128959348Y-82751916D01*
X128959347Y-82751917D01*
X128799389Y-82883189D01*
X128668117Y-83043147D01*
X128570569Y-83225643D01*
X128510499Y-83423667D01*
X128490217Y-83629600D01*
X127511900Y-83629600D01*
X127511900Y-81089600D01*
X128490217Y-81089600D01*
X128510499Y-81295532D01*
X128523293Y-81337708D01*
X128570568Y-81493554D01*
X128668115Y-81676050D01*
X128668117Y-81676052D01*
X128799389Y-81836010D01*
X128887039Y-81907941D01*
X128959350Y-81967285D01*
X129141846Y-82064832D01*
X129339866Y-82124900D01*
X129339865Y-82124900D01*
X129358329Y-82126718D01*
X129545800Y-82145183D01*
X129751734Y-82124900D01*
X129949754Y-82064832D01*
X130132250Y-81967285D01*
X130292210Y-81836010D01*
X130423485Y-81676050D01*
X130521032Y-81493554D01*
X130581100Y-81295534D01*
X130601383Y-81089600D01*
X130581100Y-80883666D01*
X130521032Y-80685646D01*
X130423485Y-80503150D01*
X130349947Y-80413543D01*
X130292210Y-80343189D01*
X130155705Y-80231164D01*
X130132250Y-80211915D01*
X129949754Y-80114368D01*
X129751734Y-80054300D01*
X129751732Y-80054299D01*
X129751734Y-80054299D01*
X129545800Y-80034017D01*
X129339867Y-80054299D01*
X129215396Y-80092057D01*
X129153711Y-80110769D01*
X129141843Y-80114369D01*
X129075253Y-80149963D01*
X128959350Y-80211915D01*
X128959348Y-80211916D01*
X128959347Y-80211917D01*
X128799389Y-80343189D01*
X128671069Y-80499550D01*
X128668115Y-80503150D01*
X128639866Y-80556000D01*
X128570569Y-80685643D01*
X128510499Y-80883667D01*
X128490217Y-81089600D01*
X127511900Y-81089600D01*
X127511900Y-78590543D01*
X127523922Y-78549600D01*
X128490217Y-78549600D01*
X128510499Y-78755532D01*
X128527557Y-78811763D01*
X128570568Y-78953554D01*
X128668115Y-79136050D01*
X128668117Y-79136052D01*
X128799389Y-79296010D01*
X128896009Y-79375302D01*
X128959350Y-79427285D01*
X129141846Y-79524832D01*
X129339866Y-79584900D01*
X129339865Y-79584900D01*
X129358329Y-79586718D01*
X129545800Y-79605183D01*
X129751734Y-79584900D01*
X129949754Y-79524832D01*
X130132250Y-79427285D01*
X130292210Y-79296010D01*
X130423485Y-79136050D01*
X130521032Y-78953554D01*
X130581100Y-78755534D01*
X130601383Y-78549600D01*
X130592558Y-78460000D01*
X155034353Y-78460000D01*
X155054834Y-78602456D01*
X155089323Y-78677975D01*
X155114623Y-78733373D01*
X155208872Y-78842143D01*
X155329947Y-78919953D01*
X155329950Y-78919954D01*
X155329949Y-78919954D01*
X155468036Y-78960499D01*
X155468038Y-78960500D01*
X155468039Y-78960500D01*
X155611962Y-78960500D01*
X155611962Y-78960499D01*
X155750053Y-78919953D01*
X155871128Y-78842143D01*
X155871136Y-78842133D01*
X155872688Y-78840790D01*
X155874572Y-78839929D01*
X155878589Y-78837348D01*
X155878960Y-78837925D01*
X155936243Y-78811763D01*
X155953895Y-78810500D01*
X157704908Y-78810500D01*
X157771947Y-78830185D01*
X157817702Y-78882989D01*
X157819388Y-78887105D01*
X157820424Y-78889327D01*
X157820425Y-78889330D01*
X157850373Y-78953554D01*
X157912897Y-79087638D01*
X157912898Y-79087639D01*
X158038402Y-79266877D01*
X158193123Y-79421598D01*
X158232388Y-79449091D01*
X158276010Y-79503666D01*
X158283203Y-79573165D01*
X158251681Y-79635519D01*
X158226052Y-79656391D01*
X158092057Y-79738503D01*
X158092057Y-79738504D01*
X158829766Y-80476212D01*
X158787708Y-80487482D01*
X158662292Y-80559890D01*
X158559890Y-80662292D01*
X158487482Y-80787708D01*
X158476212Y-80829765D01*
X157738504Y-80092057D01*
X157614668Y-80294138D01*
X157521303Y-80519542D01*
X157464348Y-80756780D01*
X157445207Y-81000000D01*
X157464348Y-81243219D01*
X157521303Y-81480457D01*
X157614668Y-81705861D01*
X157738504Y-81907941D01*
X158476212Y-81170233D01*
X158487482Y-81212292D01*
X158559890Y-81337708D01*
X158662292Y-81440110D01*
X158787708Y-81512518D01*
X158829765Y-81523787D01*
X158100372Y-82253181D01*
X158039049Y-82286666D01*
X158012691Y-82289500D01*
X157930247Y-82289500D01*
X157871770Y-82301131D01*
X157871769Y-82301132D01*
X157805447Y-82345447D01*
X157761132Y-82411769D01*
X157761131Y-82411770D01*
X157749500Y-82470247D01*
X157749500Y-84609752D01*
X157761131Y-84668229D01*
X157761132Y-84668230D01*
X157805447Y-84734552D01*
X157871769Y-84778867D01*
X157871770Y-84778868D01*
X157930247Y-84790499D01*
X157930250Y-84790500D01*
X157930252Y-84790500D01*
X160069750Y-84790500D01*
X160069751Y-84790499D01*
X160084568Y-84787552D01*
X160128229Y-84778868D01*
X160128229Y-84778867D01*
X160128231Y-84778867D01*
X160194552Y-84734552D01*
X160238867Y-84668231D01*
X160238867Y-84668229D01*
X160238868Y-84668229D01*
X160250499Y-84609752D01*
X160250500Y-84609750D01*
X160250500Y-82470249D01*
X160250499Y-82470247D01*
X160238868Y-82411770D01*
X160238867Y-82411769D01*
X160194552Y-82345447D01*
X160128230Y-82301132D01*
X160128229Y-82301131D01*
X160069752Y-82289500D01*
X160069748Y-82289500D01*
X159987308Y-82289500D01*
X159920269Y-82269815D01*
X159899627Y-82253181D01*
X159170234Y-81523787D01*
X159212292Y-81512518D01*
X159337708Y-81440110D01*
X159440110Y-81337708D01*
X159512518Y-81212292D01*
X159523787Y-81170234D01*
X160261494Y-81907941D01*
X160261495Y-81907941D01*
X160385331Y-81705861D01*
X160478696Y-81480457D01*
X160535651Y-81243219D01*
X160554792Y-81000000D01*
X160535651Y-80756780D01*
X160478696Y-80519542D01*
X160385331Y-80294138D01*
X160261494Y-80092057D01*
X159523787Y-80829764D01*
X159512518Y-80787708D01*
X159440110Y-80662292D01*
X159337708Y-80559890D01*
X159212292Y-80487482D01*
X159170234Y-80476212D01*
X159907941Y-79738504D01*
X159773946Y-79656391D01*
X159727071Y-79604579D01*
X159715648Y-79535649D01*
X159743306Y-79471487D01*
X159767607Y-79449094D01*
X159806877Y-79421598D01*
X159961598Y-79266877D01*
X160087102Y-79087639D01*
X160179575Y-78889330D01*
X160236207Y-78677977D01*
X160255277Y-78460000D01*
X160236207Y-78242023D01*
X160192219Y-78077857D01*
X160179577Y-78030677D01*
X160179576Y-78030676D01*
X160179575Y-78030670D01*
X160087102Y-77832362D01*
X160087100Y-77832359D01*
X160087099Y-77832357D01*
X159961599Y-77653124D01*
X159961596Y-77653121D01*
X159806877Y-77498402D01*
X159627639Y-77372898D01*
X159476414Y-77302381D01*
X159423977Y-77256210D01*
X159404825Y-77189016D01*
X159425041Y-77122135D01*
X159476414Y-77077618D01*
X159627639Y-77007102D01*
X159806877Y-76881598D01*
X159961598Y-76726877D01*
X160087102Y-76547639D01*
X160179575Y-76349330D01*
X160236207Y-76137977D01*
X160255277Y-75920000D01*
X160236207Y-75702023D01*
X160179575Y-75490670D01*
X160087102Y-75292362D01*
X160087100Y-75292359D01*
X160087099Y-75292357D01*
X159961599Y-75113124D01*
X159904178Y-75055703D01*
X159806877Y-74958402D01*
X159627639Y-74832898D01*
X159476414Y-74762381D01*
X159423977Y-74716210D01*
X159404825Y-74649016D01*
X159425041Y-74582135D01*
X159476414Y-74537618D01*
X159627639Y-74467102D01*
X159806877Y-74341598D01*
X159961598Y-74186877D01*
X160087102Y-74007639D01*
X160179575Y-73809330D01*
X160236207Y-73597977D01*
X160255277Y-73380000D01*
X160236207Y-73162023D01*
X160196922Y-73015410D01*
X160179577Y-72950677D01*
X160179576Y-72950676D01*
X160179575Y-72950670D01*
X160087102Y-72752362D01*
X160087100Y-72752359D01*
X160087099Y-72752357D01*
X159961599Y-72573124D01*
X159911846Y-72523371D01*
X159806877Y-72418402D01*
X159649217Y-72308007D01*
X159627638Y-72292897D01*
X159516959Y-72241287D01*
X159429330Y-72200425D01*
X159429326Y-72200424D01*
X159429322Y-72200422D01*
X159217977Y-72143793D01*
X159000002Y-72124723D01*
X158999998Y-72124723D01*
X158854682Y-72137436D01*
X158782023Y-72143793D01*
X158782020Y-72143793D01*
X158570677Y-72200422D01*
X158570668Y-72200426D01*
X158372361Y-72292898D01*
X158372357Y-72292900D01*
X158193121Y-72418402D01*
X158038402Y-72573121D01*
X157912900Y-72752357D01*
X157912898Y-72752361D01*
X157820426Y-72950668D01*
X157820422Y-72950677D01*
X157763793Y-73162020D01*
X157763793Y-73162024D01*
X157744723Y-73379997D01*
X157744723Y-73380002D01*
X157763793Y-73597975D01*
X157763793Y-73597979D01*
X157820422Y-73809322D01*
X157820424Y-73809326D01*
X157820425Y-73809330D01*
X157848802Y-73870185D01*
X157912897Y-74007638D01*
X157912898Y-74007639D01*
X158038402Y-74186877D01*
X158193123Y-74341598D01*
X158362151Y-74459953D01*
X158372361Y-74467102D01*
X158523583Y-74537618D01*
X158576022Y-74583790D01*
X158595174Y-74650984D01*
X158574958Y-74717865D01*
X158523583Y-74762382D01*
X158372361Y-74832898D01*
X158372357Y-74832900D01*
X158193121Y-74958402D01*
X158038402Y-75113121D01*
X157912900Y-75292357D01*
X157912898Y-75292361D01*
X157820426Y-75490668D01*
X157820422Y-75490677D01*
X157763793Y-75702020D01*
X157763793Y-75702024D01*
X157754901Y-75803667D01*
X157744723Y-75920000D01*
X157761341Y-76109954D01*
X157763793Y-76137975D01*
X157763793Y-76137979D01*
X157820422Y-76349322D01*
X157820424Y-76349326D01*
X157820425Y-76349330D01*
X157850373Y-76413554D01*
X157912897Y-76547638D01*
X157931908Y-76574788D01*
X158038402Y-76726877D01*
X158193123Y-76881598D01*
X158346239Y-76988811D01*
X158372361Y-77007102D01*
X158523583Y-77077618D01*
X158576022Y-77123790D01*
X158595174Y-77190984D01*
X158574958Y-77257865D01*
X158523583Y-77302382D01*
X158372361Y-77372898D01*
X158372357Y-77372900D01*
X158193121Y-77498402D01*
X158038402Y-77653121D01*
X157912900Y-77832357D01*
X157912898Y-77832361D01*
X157818137Y-78035577D01*
X157816383Y-78034759D01*
X157780016Y-78084165D01*
X157714750Y-78109109D01*
X157704908Y-78109500D01*
X155953895Y-78109500D01*
X155886856Y-78089815D01*
X155872688Y-78079210D01*
X155871132Y-78077862D01*
X155871128Y-78077857D01*
X155750053Y-78000047D01*
X155750051Y-78000046D01*
X155750049Y-78000045D01*
X155750050Y-78000045D01*
X155611963Y-77959500D01*
X155611961Y-77959500D01*
X155468039Y-77959500D01*
X155468036Y-77959500D01*
X155329949Y-78000045D01*
X155208873Y-78077856D01*
X155114623Y-78186626D01*
X155114622Y-78186628D01*
X155054834Y-78317543D01*
X155034353Y-78460000D01*
X130592558Y-78460000D01*
X130581100Y-78343666D01*
X130521032Y-78145646D01*
X130423485Y-77963150D01*
X130316147Y-77832357D01*
X130292210Y-77803189D01*
X130132252Y-77671917D01*
X130132253Y-77671917D01*
X130132250Y-77671915D01*
X129949754Y-77574368D01*
X129751734Y-77514300D01*
X129751732Y-77514299D01*
X129751734Y-77514299D01*
X129545800Y-77494017D01*
X129339867Y-77514299D01*
X129164492Y-77567498D01*
X129153711Y-77570769D01*
X129141843Y-77574369D01*
X129031698Y-77633243D01*
X128959350Y-77671915D01*
X128959348Y-77671916D01*
X128959347Y-77671917D01*
X128799389Y-77803189D01*
X128671069Y-77959550D01*
X128668115Y-77963150D01*
X128632021Y-78030677D01*
X128570569Y-78145643D01*
X128510499Y-78343667D01*
X128490217Y-78549600D01*
X127523922Y-78549600D01*
X127531585Y-78523504D01*
X127548214Y-78502867D01*
X129031291Y-77019789D01*
X129092612Y-76986306D01*
X129154962Y-76988810D01*
X129339866Y-77044900D01*
X129339865Y-77044900D01*
X129358329Y-77046718D01*
X129545800Y-77065183D01*
X129751734Y-77044900D01*
X129949754Y-76984832D01*
X130132250Y-76887285D01*
X130292210Y-76756010D01*
X130423485Y-76596050D01*
X130521032Y-76413554D01*
X130581100Y-76215534D01*
X130601383Y-76009600D01*
X130581100Y-75803666D01*
X130521032Y-75605646D01*
X130423485Y-75423150D01*
X130316147Y-75292357D01*
X130292210Y-75263189D01*
X130174477Y-75166569D01*
X130132250Y-75131915D01*
X129949754Y-75034368D01*
X129751734Y-74974300D01*
X129751732Y-74974299D01*
X129751734Y-74974299D01*
X129545800Y-74954017D01*
X129339867Y-74974299D01*
X129164492Y-75027498D01*
X129153711Y-75030769D01*
X129141843Y-75034369D01*
X129031698Y-75093243D01*
X128959350Y-75131915D01*
X128959348Y-75131916D01*
X128959347Y-75131917D01*
X128799389Y-75263189D01*
X128671069Y-75419550D01*
X128668115Y-75423150D01*
X128632021Y-75490677D01*
X128570569Y-75605643D01*
X128510499Y-75803667D01*
X128490217Y-76009600D01*
X128510499Y-76215532D01*
X128510500Y-76215534D01*
X128551086Y-76349331D01*
X128566588Y-76400432D01*
X128567211Y-76470299D01*
X128535608Y-76524108D01*
X126880931Y-78178786D01*
X126880925Y-78178794D01*
X126842825Y-78244787D01*
X126842825Y-78244788D01*
X126834787Y-78258709D01*
X126834786Y-78258712D01*
X126810900Y-78347856D01*
X126810900Y-83827206D01*
X126791215Y-83894245D01*
X126774581Y-83914887D01*
X124900287Y-85789181D01*
X124838964Y-85822666D01*
X124812606Y-85825500D01*
X124787186Y-85825500D01*
X124649099Y-85866045D01*
X124528023Y-85943856D01*
X124433773Y-86052626D01*
X124433772Y-86052628D01*
X124373984Y-86183543D01*
X124353503Y-86326000D01*
X123651682Y-86326000D01*
X118546819Y-81221137D01*
X118513334Y-81159814D01*
X118510500Y-81133456D01*
X118510500Y-81019738D01*
X118530185Y-80952699D01*
X118540787Y-80938535D01*
X118541124Y-80938144D01*
X118541128Y-80938143D01*
X118635377Y-80829373D01*
X118695165Y-80698457D01*
X118715647Y-80556000D01*
X118695165Y-80413543D01*
X118635377Y-80282627D01*
X118635374Y-80282623D01*
X118590786Y-80231164D01*
X118561762Y-80167608D01*
X118560500Y-80149963D01*
X118560500Y-76986544D01*
X118580185Y-76919505D01*
X118596819Y-76898863D01*
X119893639Y-75602043D01*
X121330470Y-74165212D01*
X121376614Y-74085288D01*
X121386350Y-74048951D01*
X121400500Y-73996144D01*
X121400500Y-73469600D01*
X128490217Y-73469600D01*
X128510499Y-73675532D01*
X128510500Y-73675534D01*
X128570568Y-73873554D01*
X128668115Y-74056050D01*
X128685317Y-74077011D01*
X128799389Y-74216010D01*
X128869285Y-74273371D01*
X128959350Y-74347285D01*
X129141846Y-74444832D01*
X129339866Y-74504900D01*
X129339865Y-74504900D01*
X129358329Y-74506718D01*
X129545800Y-74525183D01*
X129751734Y-74504900D01*
X129949754Y-74444832D01*
X130132250Y-74347285D01*
X130292210Y-74216010D01*
X130423485Y-74056050D01*
X130453445Y-74000000D01*
X141494353Y-74000000D01*
X141514834Y-74142456D01*
X141553275Y-74226628D01*
X141574623Y-74273373D01*
X141668872Y-74382143D01*
X141789947Y-74459953D01*
X141789950Y-74459954D01*
X141789949Y-74459954D01*
X141897107Y-74491417D01*
X141926336Y-74500000D01*
X141928036Y-74500499D01*
X141928038Y-74500500D01*
X141928039Y-74500500D01*
X142071962Y-74500500D01*
X142071962Y-74500499D01*
X142179121Y-74469035D01*
X142210050Y-74459954D01*
X142210050Y-74459953D01*
X142210053Y-74459953D01*
X142331128Y-74382143D01*
X142331136Y-74382133D01*
X142332688Y-74380790D01*
X142334572Y-74379929D01*
X142338589Y-74377348D01*
X142338960Y-74377925D01*
X142396243Y-74351763D01*
X142413895Y-74350500D01*
X143081056Y-74350500D01*
X143148095Y-74370185D01*
X143168737Y-74386819D01*
X144391095Y-75609176D01*
X144424580Y-75670499D01*
X144426152Y-75679210D01*
X144442434Y-75792456D01*
X144500683Y-75920002D01*
X144502223Y-75923373D01*
X144596472Y-76032143D01*
X144717547Y-76109953D01*
X144717550Y-76109954D01*
X144717549Y-76109954D01*
X144855636Y-76150499D01*
X144855638Y-76150500D01*
X144855639Y-76150500D01*
X144999562Y-76150500D01*
X144999562Y-76150499D01*
X145137653Y-76109953D01*
X145258728Y-76032143D01*
X145352977Y-75923373D01*
X145412765Y-75792457D01*
X145433247Y-75650000D01*
X145412765Y-75507543D01*
X145352977Y-75376627D01*
X145258728Y-75267857D01*
X145137653Y-75190047D01*
X145137651Y-75190046D01*
X145137649Y-75190045D01*
X145137650Y-75190045D01*
X144999563Y-75149500D01*
X144999561Y-75149500D01*
X144974143Y-75149500D01*
X144907104Y-75129815D01*
X144886462Y-75113181D01*
X143492813Y-73719531D01*
X143492808Y-73719527D01*
X143412890Y-73673387D01*
X143412883Y-73673384D01*
X143398498Y-73669529D01*
X143398498Y-73669530D01*
X143361120Y-73659515D01*
X143323744Y-73649500D01*
X143323743Y-73649500D01*
X142413895Y-73649500D01*
X142346856Y-73629815D01*
X142332688Y-73619210D01*
X142331132Y-73617862D01*
X142331128Y-73617857D01*
X142210053Y-73540047D01*
X142210051Y-73540046D01*
X142210049Y-73540045D01*
X142210050Y-73540045D01*
X142071963Y-73499500D01*
X142071961Y-73499500D01*
X141928039Y-73499500D01*
X141928036Y-73499500D01*
X141789949Y-73540045D01*
X141668873Y-73617856D01*
X141574623Y-73726626D01*
X141574622Y-73726628D01*
X141514834Y-73857543D01*
X141494353Y-74000000D01*
X130453445Y-74000000D01*
X130521032Y-73873554D01*
X130581100Y-73675534D01*
X130601383Y-73469600D01*
X130581100Y-73263666D01*
X130521032Y-73065646D01*
X130423485Y-72883150D01*
X130314622Y-72750499D01*
X130292210Y-72723189D01*
X130132252Y-72591917D01*
X130132253Y-72591917D01*
X130132250Y-72591915D01*
X129949754Y-72494368D01*
X129751734Y-72434300D01*
X129751732Y-72434299D01*
X129751734Y-72434299D01*
X129545800Y-72414017D01*
X129339867Y-72434299D01*
X129164492Y-72487498D01*
X129153711Y-72490769D01*
X129141843Y-72494369D01*
X129031698Y-72553243D01*
X128959350Y-72591915D01*
X128959348Y-72591916D01*
X128959347Y-72591917D01*
X128799389Y-72723189D01*
X128671069Y-72879550D01*
X128668115Y-72883150D01*
X128632021Y-72950677D01*
X128570569Y-73065643D01*
X128510499Y-73263667D01*
X128490217Y-73469600D01*
X121400500Y-73469600D01*
X121400500Y-70059847D01*
X128495300Y-70059847D01*
X128495300Y-71799352D01*
X128506931Y-71857829D01*
X128506932Y-71857830D01*
X128551247Y-71924152D01*
X128617569Y-71968467D01*
X128617570Y-71968468D01*
X128676047Y-71980099D01*
X128676050Y-71980100D01*
X128676052Y-71980100D01*
X130415550Y-71980100D01*
X130415551Y-71980099D01*
X130433013Y-71976626D01*
X130474029Y-71968468D01*
X130474029Y-71968467D01*
X130474031Y-71968467D01*
X130540352Y-71924152D01*
X130584667Y-71857831D01*
X130584667Y-71857829D01*
X130584668Y-71857829D01*
X130596299Y-71799352D01*
X130596300Y-71799350D01*
X130596300Y-70059849D01*
X130596299Y-70059847D01*
X130584668Y-70001370D01*
X130584667Y-70001369D01*
X130540352Y-69935047D01*
X130474030Y-69890732D01*
X130474029Y-69890731D01*
X130415552Y-69879100D01*
X130415548Y-69879100D01*
X128676052Y-69879100D01*
X128676047Y-69879100D01*
X128617570Y-69890731D01*
X128617569Y-69890732D01*
X128551247Y-69935047D01*
X128506932Y-70001369D01*
X128506931Y-70001370D01*
X128495300Y-70059847D01*
X121400500Y-70059847D01*
X121400500Y-68068535D01*
X121420185Y-68001496D01*
X121430782Y-67987337D01*
X121475377Y-67935873D01*
X121535165Y-67804957D01*
X121555647Y-67662500D01*
X121535165Y-67520043D01*
X121475377Y-67389127D01*
X121461179Y-67372741D01*
X121430786Y-67337664D01*
X121401762Y-67274108D01*
X121400500Y-67256463D01*
X121400500Y-66999997D01*
X138695034Y-66999997D01*
X138695034Y-67000002D01*
X138714858Y-67226599D01*
X138714860Y-67226610D01*
X138773730Y-67446317D01*
X138773735Y-67446331D01*
X138869863Y-67652478D01*
X138920974Y-67725472D01*
X139600000Y-67046446D01*
X139600000Y-67052661D01*
X139627259Y-67154394D01*
X139679920Y-67245606D01*
X139754394Y-67320080D01*
X139845606Y-67372741D01*
X139947339Y-67400000D01*
X139953553Y-67400000D01*
X139274526Y-68079025D01*
X139347513Y-68130132D01*
X139347521Y-68130136D01*
X139553668Y-68226264D01*
X139553682Y-68226269D01*
X139773389Y-68285139D01*
X139773400Y-68285141D01*
X139999998Y-68304966D01*
X140000002Y-68304966D01*
X140226599Y-68285141D01*
X140226610Y-68285139D01*
X140446317Y-68226269D01*
X140446331Y-68226264D01*
X140652478Y-68130136D01*
X140725471Y-68079024D01*
X140046447Y-67400000D01*
X140052661Y-67400000D01*
X140154394Y-67372741D01*
X140245606Y-67320080D01*
X140320080Y-67245606D01*
X140372741Y-67154394D01*
X140400000Y-67052661D01*
X140400000Y-67046447D01*
X141079024Y-67725471D01*
X141130136Y-67652478D01*
X141223935Y-67451325D01*
X142543028Y-67451325D01*
X142563509Y-67593781D01*
X142566523Y-67600380D01*
X142623298Y-67724698D01*
X142717547Y-67833468D01*
X142838622Y-67911278D01*
X142838625Y-67911279D01*
X142838624Y-67911279D01*
X142976711Y-67951824D01*
X142976713Y-67951825D01*
X142976714Y-67951825D01*
X143002130Y-67951825D01*
X143069169Y-67971510D01*
X143089811Y-67988144D01*
X147310844Y-72209177D01*
X147344329Y-72270500D01*
X147345901Y-72279210D01*
X147362183Y-72392456D01*
X147407082Y-72490769D01*
X147421972Y-72523373D01*
X147516221Y-72632143D01*
X147637296Y-72709953D01*
X147637299Y-72709954D01*
X147637298Y-72709954D01*
X147775385Y-72750499D01*
X147775387Y-72750500D01*
X147775388Y-72750500D01*
X147919311Y-72750500D01*
X147919311Y-72750499D01*
X148057402Y-72709953D01*
X148178477Y-72632143D01*
X148272726Y-72523373D01*
X148332514Y-72392457D01*
X148352996Y-72250000D01*
X148332514Y-72107543D01*
X148272726Y-71976627D01*
X148178477Y-71867857D01*
X148057402Y-71790047D01*
X148057400Y-71790046D01*
X148057398Y-71790045D01*
X148057399Y-71790045D01*
X147919312Y-71749500D01*
X147919310Y-71749500D01*
X147893893Y-71749500D01*
X147826854Y-71729815D01*
X147806212Y-71713181D01*
X144305212Y-68212181D01*
X144271727Y-68150858D01*
X144276711Y-68081166D01*
X144318583Y-68025233D01*
X144384047Y-68000816D01*
X144392893Y-68000500D01*
X145819750Y-68000500D01*
X145819751Y-68000499D01*
X145834568Y-67997552D01*
X145878229Y-67988868D01*
X145878229Y-67988867D01*
X145878231Y-67988867D01*
X145944552Y-67944552D01*
X145988867Y-67878231D01*
X145988867Y-67878229D01*
X145988868Y-67878229D01*
X146000499Y-67819752D01*
X146000500Y-67819750D01*
X146000500Y-67600380D01*
X147994353Y-67600380D01*
X148014834Y-67742836D01*
X148049959Y-67819748D01*
X148074623Y-67873753D01*
X148168872Y-67982523D01*
X148289947Y-68060333D01*
X148289950Y-68060334D01*
X148289949Y-68060334D01*
X148428036Y-68100879D01*
X148428038Y-68100880D01*
X148428039Y-68100880D01*
X148571962Y-68100880D01*
X148571962Y-68100879D01*
X148710053Y-68060333D01*
X148819207Y-67990183D01*
X148886246Y-67970500D01*
X151706105Y-67970500D01*
X151773144Y-67990185D01*
X151787312Y-68000790D01*
X151788866Y-68002137D01*
X151788872Y-68002143D01*
X151909947Y-68079953D01*
X151909950Y-68079954D01*
X151909949Y-68079954D01*
X152048036Y-68120499D01*
X152048038Y-68120500D01*
X152048039Y-68120500D01*
X152191962Y-68120500D01*
X152191962Y-68120499D01*
X152330053Y-68079953D01*
X152451128Y-68002143D01*
X152545377Y-67893373D01*
X152605165Y-67762457D01*
X152625647Y-67620000D01*
X152605165Y-67477543D01*
X152545377Y-67346627D01*
X152451128Y-67237857D01*
X152330053Y-67160047D01*
X152330051Y-67160046D01*
X152330049Y-67160045D01*
X152330050Y-67160045D01*
X152191963Y-67119500D01*
X152191961Y-67119500D01*
X152048039Y-67119500D01*
X152048036Y-67119500D01*
X151909949Y-67160045D01*
X151788876Y-67237854D01*
X151788874Y-67237855D01*
X151788872Y-67237857D01*
X151788870Y-67237858D01*
X151787312Y-67239210D01*
X151785427Y-67240070D01*
X151781411Y-67242652D01*
X151781039Y-67242074D01*
X151723757Y-67268237D01*
X151706105Y-67269500D01*
X148932177Y-67269500D01*
X148865138Y-67249815D01*
X148838464Y-67226702D01*
X148831130Y-67218238D01*
X148790769Y-67192300D01*
X148710053Y-67140427D01*
X148710051Y-67140426D01*
X148710049Y-67140425D01*
X148710050Y-67140425D01*
X148571963Y-67099880D01*
X148571961Y-67099880D01*
X148428039Y-67099880D01*
X148428036Y-67099880D01*
X148289949Y-67140425D01*
X148168873Y-67218236D01*
X148074623Y-67327006D01*
X148074622Y-67327008D01*
X148014834Y-67457923D01*
X147994353Y-67600380D01*
X146000500Y-67600380D01*
X146000500Y-66180249D01*
X146000499Y-66180247D01*
X145988868Y-66121770D01*
X145988867Y-66121769D01*
X145944552Y-66055447D01*
X145878230Y-66011132D01*
X145878229Y-66011131D01*
X145819752Y-65999500D01*
X145819748Y-65999500D01*
X144180252Y-65999500D01*
X144180247Y-65999500D01*
X144121770Y-66011131D01*
X144121769Y-66011132D01*
X144055447Y-66055447D01*
X144011132Y-66121769D01*
X144011131Y-66121770D01*
X143999500Y-66180247D01*
X143999500Y-67607107D01*
X143979815Y-67674146D01*
X143927011Y-67719901D01*
X143857853Y-67729845D01*
X143794297Y-67700820D01*
X143787819Y-67694788D01*
X143585178Y-67492147D01*
X143551693Y-67430824D01*
X143550125Y-67422135D01*
X143533840Y-67308868D01*
X143474052Y-67177952D01*
X143379803Y-67069182D01*
X143258728Y-66991372D01*
X143258726Y-66991371D01*
X143258724Y-66991370D01*
X143258725Y-66991370D01*
X143120638Y-66950825D01*
X143120636Y-66950825D01*
X142976714Y-66950825D01*
X142976711Y-66950825D01*
X142838624Y-66991370D01*
X142717548Y-67069181D01*
X142623298Y-67177951D01*
X142623297Y-67177953D01*
X142563509Y-67308868D01*
X142543028Y-67451325D01*
X141223935Y-67451325D01*
X141226264Y-67446331D01*
X141226269Y-67446317D01*
X141285139Y-67226610D01*
X141285141Y-67226599D01*
X141304966Y-67000002D01*
X141304966Y-66999997D01*
X141285141Y-66773400D01*
X141285139Y-66773389D01*
X141226269Y-66553682D01*
X141226264Y-66553668D01*
X141130136Y-66347521D01*
X141130132Y-66347513D01*
X141079025Y-66274526D01*
X140400000Y-66953551D01*
X140400000Y-66947339D01*
X140372741Y-66845606D01*
X140320080Y-66754394D01*
X140245606Y-66679920D01*
X140154394Y-66627259D01*
X140052661Y-66600000D01*
X140046448Y-66600000D01*
X140725472Y-65920974D01*
X140652478Y-65869863D01*
X140446331Y-65773735D01*
X140446317Y-65773730D01*
X140226610Y-65714860D01*
X140226599Y-65714858D01*
X140000002Y-65695034D01*
X139999998Y-65695034D01*
X139773400Y-65714858D01*
X139773389Y-65714860D01*
X139553682Y-65773730D01*
X139553673Y-65773734D01*
X139347516Y-65869866D01*
X139347512Y-65869868D01*
X139274526Y-65920973D01*
X139274526Y-65920974D01*
X139953553Y-66600000D01*
X139947339Y-66600000D01*
X139845606Y-66627259D01*
X139754394Y-66679920D01*
X139679920Y-66754394D01*
X139627259Y-66845606D01*
X139600000Y-66947339D01*
X139600000Y-66953552D01*
X138920974Y-66274526D01*
X138920973Y-66274526D01*
X138869868Y-66347512D01*
X138869866Y-66347516D01*
X138773734Y-66553673D01*
X138773730Y-66553682D01*
X138714860Y-66773389D01*
X138714858Y-66773400D01*
X138695034Y-66999997D01*
X121400500Y-66999997D01*
X121400500Y-66503858D01*
X121400500Y-66503856D01*
X121376614Y-66414712D01*
X121353397Y-66374499D01*
X121330470Y-66334788D01*
X119557863Y-64562181D01*
X119524378Y-64500858D01*
X119529362Y-64431166D01*
X119571234Y-64375233D01*
X119636698Y-64350816D01*
X119645544Y-64350500D01*
X129586105Y-64350500D01*
X129653144Y-64370185D01*
X129667312Y-64380790D01*
X129668866Y-64382137D01*
X129668872Y-64382143D01*
X129789947Y-64459953D01*
X129789950Y-64459954D01*
X129789949Y-64459954D01*
X129928036Y-64500499D01*
X129928038Y-64500500D01*
X129928039Y-64500500D01*
X130071962Y-64500500D01*
X130071962Y-64500499D01*
X130210053Y-64459953D01*
X130331128Y-64382143D01*
X130425377Y-64273373D01*
X130485165Y-64142457D01*
X130505647Y-64000000D01*
X130485165Y-63857543D01*
X130425377Y-63726627D01*
X130331128Y-63617857D01*
X130210053Y-63540047D01*
X130210051Y-63540046D01*
X130210049Y-63540045D01*
X130210050Y-63540045D01*
X130071963Y-63499500D01*
X130071961Y-63499500D01*
X129928039Y-63499500D01*
X129928036Y-63499500D01*
X129789949Y-63540045D01*
X129668876Y-63617854D01*
X129668874Y-63617855D01*
X129668872Y-63617857D01*
X129668870Y-63617858D01*
X129667312Y-63619210D01*
X129665427Y-63620070D01*
X129661411Y-63622652D01*
X129661039Y-63622074D01*
X129603757Y-63648237D01*
X129586105Y-63649500D01*
X118913895Y-63649500D01*
X118846856Y-63629815D01*
X118832688Y-63619210D01*
X118831132Y-63617862D01*
X118831128Y-63617857D01*
X118710053Y-63540047D01*
X118710051Y-63540046D01*
X118710049Y-63540045D01*
X118710050Y-63540045D01*
X118571963Y-63499500D01*
X118571961Y-63499500D01*
X118428039Y-63499500D01*
X118428036Y-63499500D01*
X118289949Y-63540045D01*
X118168873Y-63617856D01*
X118168872Y-63617856D01*
X118168872Y-63617857D01*
X118165218Y-63622074D01*
X118074623Y-63726626D01*
X118074622Y-63726628D01*
X118014834Y-63857543D01*
X117994353Y-64000000D01*
X118014834Y-64142456D01*
X118033662Y-64183682D01*
X118074623Y-64273373D01*
X118168872Y-64382143D01*
X118289947Y-64459953D01*
X118289950Y-64459954D01*
X118289949Y-64459954D01*
X118428036Y-64500499D01*
X118428038Y-64500500D01*
X118428039Y-64500500D01*
X118453456Y-64500500D01*
X118520495Y-64520185D01*
X118541137Y-64536819D01*
X120663181Y-66658863D01*
X120696666Y-66720186D01*
X120699500Y-66746544D01*
X120699500Y-67256463D01*
X120679815Y-67323502D01*
X120669214Y-67337664D01*
X120624625Y-67389123D01*
X120624622Y-67389128D01*
X120564834Y-67520043D01*
X120544353Y-67662500D01*
X120564834Y-67804956D01*
X120624622Y-67935871D01*
X120624623Y-67935873D01*
X120669213Y-67987333D01*
X120698238Y-68050888D01*
X120699500Y-68068535D01*
X120699500Y-73753456D01*
X120679815Y-73820495D01*
X120663181Y-73841137D01*
X117929531Y-76574786D01*
X117929527Y-76574791D01*
X117883387Y-76654709D01*
X117883386Y-76654712D01*
X117859500Y-76743856D01*
X117859500Y-80149963D01*
X117839815Y-80217002D01*
X117829214Y-80231164D01*
X117784625Y-80282623D01*
X117784622Y-80282628D01*
X117724834Y-80413543D01*
X117704353Y-80556000D01*
X110127858Y-80556000D01*
X110097685Y-80499550D01*
X110027101Y-80413543D01*
X109966410Y-80339589D01*
X109810839Y-80211917D01*
X109806450Y-80208315D01*
X109623954Y-80110768D01*
X109425934Y-80050700D01*
X109425932Y-80050699D01*
X109425934Y-80050699D01*
X109220000Y-80030417D01*
X109014067Y-80050699D01*
X108816043Y-80110769D01*
X108742718Y-80149963D01*
X108633550Y-80208315D01*
X108633548Y-80208316D01*
X108633547Y-80208317D01*
X108473589Y-80339589D01*
X108342317Y-80499547D01*
X108342315Y-80499550D01*
X108340391Y-80503150D01*
X108244769Y-80682043D01*
X108184699Y-80880067D01*
X108164417Y-81086000D01*
X100500500Y-81086000D01*
X100500500Y-78546000D01*
X108164417Y-78546000D01*
X108184699Y-78751932D01*
X108202849Y-78811763D01*
X108244768Y-78949954D01*
X108342315Y-79132450D01*
X108345271Y-79136052D01*
X108473589Y-79292410D01*
X108570209Y-79371702D01*
X108633550Y-79423685D01*
X108816046Y-79521232D01*
X109014066Y-79581300D01*
X109014065Y-79581300D01*
X109032529Y-79583118D01*
X109220000Y-79601583D01*
X109425934Y-79581300D01*
X109623954Y-79521232D01*
X109806450Y-79423685D01*
X109966410Y-79292410D01*
X110097685Y-79132450D01*
X110195232Y-78949954D01*
X110255300Y-78751934D01*
X110275583Y-78546000D01*
X110255300Y-78340066D01*
X110195232Y-78142046D01*
X110097685Y-77959550D01*
X110045702Y-77896209D01*
X109966410Y-77799589D01*
X109810839Y-77671917D01*
X109806450Y-77668315D01*
X109623954Y-77570768D01*
X109425934Y-77510700D01*
X109425932Y-77510699D01*
X109425934Y-77510699D01*
X109220000Y-77490417D01*
X109014067Y-77510699D01*
X108816043Y-77570769D01*
X108705898Y-77629643D01*
X108633550Y-77668315D01*
X108633548Y-77668316D01*
X108633547Y-77668317D01*
X108473589Y-77799589D01*
X108342356Y-77959500D01*
X108342315Y-77959550D01*
X108340391Y-77963150D01*
X108244769Y-78142043D01*
X108184699Y-78340067D01*
X108164417Y-78546000D01*
X100500500Y-78546000D01*
X100500500Y-76006000D01*
X108164417Y-76006000D01*
X108184699Y-76211932D01*
X108184700Y-76211934D01*
X108244768Y-76409954D01*
X108342315Y-76592450D01*
X108345271Y-76596052D01*
X108473589Y-76752410D01*
X108570209Y-76831702D01*
X108633550Y-76883685D01*
X108816046Y-76981232D01*
X109014066Y-77041300D01*
X109014065Y-77041300D01*
X109032529Y-77043118D01*
X109220000Y-77061583D01*
X109425934Y-77041300D01*
X109562083Y-77000000D01*
X110494353Y-77000000D01*
X110514834Y-77142456D01*
X110543271Y-77204723D01*
X110574623Y-77273373D01*
X110668872Y-77382143D01*
X110789947Y-77459953D01*
X110789950Y-77459954D01*
X110789949Y-77459954D01*
X110893699Y-77490417D01*
X110920897Y-77498403D01*
X110928036Y-77500499D01*
X110928038Y-77500500D01*
X110928039Y-77500500D01*
X111071962Y-77500500D01*
X111071962Y-77500499D01*
X111210053Y-77459953D01*
X111331128Y-77382143D01*
X111406287Y-77295403D01*
X111465064Y-77257629D01*
X111534934Y-77257629D01*
X111593711Y-77295402D01*
X111668872Y-77382143D01*
X111789947Y-77459953D01*
X111789950Y-77459954D01*
X111789949Y-77459954D01*
X111893699Y-77490417D01*
X111920897Y-77498403D01*
X111928036Y-77500499D01*
X111928038Y-77500500D01*
X111928039Y-77500500D01*
X112071962Y-77500500D01*
X112071962Y-77500499D01*
X112210053Y-77459953D01*
X112331128Y-77382143D01*
X112406287Y-77295403D01*
X112465064Y-77257629D01*
X112534934Y-77257629D01*
X112593711Y-77295402D01*
X112668872Y-77382143D01*
X112789947Y-77459953D01*
X112789950Y-77459954D01*
X112789949Y-77459954D01*
X112893699Y-77490417D01*
X112920897Y-77498403D01*
X112928036Y-77500499D01*
X112928038Y-77500500D01*
X112928039Y-77500500D01*
X113071962Y-77500500D01*
X113071962Y-77500499D01*
X113210053Y-77459953D01*
X113331128Y-77382143D01*
X113406287Y-77295403D01*
X113465064Y-77257629D01*
X113534934Y-77257629D01*
X113593711Y-77295402D01*
X113668872Y-77382143D01*
X113789947Y-77459953D01*
X113789950Y-77459954D01*
X113789949Y-77459954D01*
X113893699Y-77490417D01*
X113920897Y-77498403D01*
X113928036Y-77500499D01*
X113928038Y-77500500D01*
X113928039Y-77500500D01*
X114071962Y-77500500D01*
X114071962Y-77500499D01*
X114210053Y-77459953D01*
X114331128Y-77382143D01*
X114425377Y-77273373D01*
X114485165Y-77142457D01*
X114501447Y-77029208D01*
X114530470Y-76965656D01*
X114536489Y-76959191D01*
X115653406Y-75842274D01*
X115714727Y-75808791D01*
X115781406Y-75813559D01*
X115781437Y-75813455D01*
X115781917Y-75813596D01*
X115784419Y-75813775D01*
X115789021Y-75815681D01*
X115789946Y-75815952D01*
X115789947Y-75815953D01*
X115789950Y-75815954D01*
X115928036Y-75856499D01*
X115928038Y-75856500D01*
X115928039Y-75856500D01*
X116071962Y-75856500D01*
X116071962Y-75856499D01*
X116210053Y-75815953D01*
X116331128Y-75738143D01*
X116425377Y-75629373D01*
X116485165Y-75498457D01*
X116505647Y-75356000D01*
X116485165Y-75213543D01*
X116425377Y-75082627D01*
X116402046Y-75055702D01*
X116373022Y-74992147D01*
X116382966Y-74922989D01*
X116428720Y-74870185D01*
X116495760Y-74850500D01*
X116586105Y-74850500D01*
X116653144Y-74870185D01*
X116667312Y-74880790D01*
X116668866Y-74882137D01*
X116668872Y-74882143D01*
X116789947Y-74959953D01*
X116789950Y-74959954D01*
X116789949Y-74959954D01*
X116928036Y-75000499D01*
X116928038Y-75000500D01*
X116928039Y-75000500D01*
X117071962Y-75000500D01*
X117071962Y-75000499D01*
X117210053Y-74959953D01*
X117331128Y-74882143D01*
X117425377Y-74773373D01*
X117485165Y-74642457D01*
X117505647Y-74500000D01*
X117485165Y-74357543D01*
X117425377Y-74226627D01*
X117407245Y-74205702D01*
X117378221Y-74142147D01*
X117388165Y-74072989D01*
X117433919Y-74020185D01*
X117500959Y-74000500D01*
X117571962Y-74000500D01*
X117571962Y-74000499D01*
X117710053Y-73959953D01*
X117831128Y-73882143D01*
X117925377Y-73773373D01*
X117985165Y-73642457D01*
X118005647Y-73500000D01*
X117985165Y-73357543D01*
X117925377Y-73226627D01*
X117893918Y-73190321D01*
X117864894Y-73126767D01*
X117874837Y-73057609D01*
X117920592Y-73004805D01*
X117987632Y-72985120D01*
X118451485Y-72985120D01*
X118518524Y-73004805D01*
X118532692Y-73015410D01*
X118534246Y-73016757D01*
X118534252Y-73016763D01*
X118655327Y-73094573D01*
X118655330Y-73094574D01*
X118655329Y-73094574D01*
X118793416Y-73135119D01*
X118793418Y-73135120D01*
X118793419Y-73135120D01*
X118937342Y-73135120D01*
X118937342Y-73135119D01*
X119075433Y-73094573D01*
X119196508Y-73016763D01*
X119290757Y-72907993D01*
X119350545Y-72777077D01*
X119371027Y-72634620D01*
X119350545Y-72492163D01*
X119290757Y-72361247D01*
X119196508Y-72252477D01*
X119075433Y-72174667D01*
X119075431Y-72174666D01*
X119075429Y-72174665D01*
X119075430Y-72174665D01*
X118937343Y-72134120D01*
X118937341Y-72134120D01*
X118793419Y-72134120D01*
X118793416Y-72134120D01*
X118655329Y-72174665D01*
X118534256Y-72252474D01*
X118534254Y-72252475D01*
X118534252Y-72252477D01*
X118534250Y-72252478D01*
X118532692Y-72253830D01*
X118530807Y-72254690D01*
X118526791Y-72257272D01*
X118526419Y-72256694D01*
X118469137Y-72282857D01*
X118451485Y-72284120D01*
X115319234Y-72284120D01*
X115274362Y-72296143D01*
X115274362Y-72296144D01*
X115230092Y-72308006D01*
X115230091Y-72308006D01*
X115230089Y-72308007D01*
X115150171Y-72354147D01*
X115150166Y-72354151D01*
X111041137Y-76463181D01*
X110979814Y-76496666D01*
X110953456Y-76499500D01*
X110928036Y-76499500D01*
X110789949Y-76540045D01*
X110668873Y-76617856D01*
X110574623Y-76726626D01*
X110574622Y-76726628D01*
X110514834Y-76857543D01*
X110494353Y-77000000D01*
X109562083Y-77000000D01*
X109623954Y-76981232D01*
X109806450Y-76883685D01*
X109966410Y-76752410D01*
X110097685Y-76592450D01*
X110195232Y-76409954D01*
X110255300Y-76211934D01*
X110275583Y-76006000D01*
X110255300Y-75800066D01*
X110195232Y-75602046D01*
X110097685Y-75419550D01*
X110045531Y-75356000D01*
X109966410Y-75259589D01*
X109810839Y-75131917D01*
X109806450Y-75128315D01*
X109623954Y-75030768D01*
X109425934Y-74970700D01*
X109425932Y-74970699D01*
X109425934Y-74970699D01*
X109220000Y-74950417D01*
X109014067Y-74970699D01*
X108816043Y-75030769D01*
X108705898Y-75089643D01*
X108633550Y-75128315D01*
X108633548Y-75128316D01*
X108633547Y-75128317D01*
X108473589Y-75259589D01*
X108342317Y-75419547D01*
X108342315Y-75419550D01*
X108340391Y-75423150D01*
X108244769Y-75602043D01*
X108184699Y-75800067D01*
X108164417Y-76006000D01*
X100500500Y-76006000D01*
X100500500Y-73466000D01*
X108164417Y-73466000D01*
X108184699Y-73671932D01*
X108185791Y-73675532D01*
X108244768Y-73869954D01*
X108342315Y-74052450D01*
X108369264Y-74085288D01*
X108473589Y-74212410D01*
X108547874Y-74273373D01*
X108633550Y-74343685D01*
X108816046Y-74441232D01*
X109014066Y-74501300D01*
X109014065Y-74501300D01*
X109032529Y-74503118D01*
X109220000Y-74521583D01*
X109425934Y-74501300D01*
X109623954Y-74441232D01*
X109806450Y-74343685D01*
X109966410Y-74212410D01*
X110097685Y-74052450D01*
X110195232Y-73869954D01*
X110255300Y-73671934D01*
X110275583Y-73466000D01*
X110255300Y-73260066D01*
X110195232Y-73062046D01*
X110097685Y-72879550D01*
X110013588Y-72777077D01*
X109966410Y-72719589D01*
X109810839Y-72591917D01*
X109806450Y-72588315D01*
X109623954Y-72490768D01*
X109425934Y-72430700D01*
X109425932Y-72430699D01*
X109425934Y-72430699D01*
X109220000Y-72410417D01*
X109014067Y-72430699D01*
X108816043Y-72490769D01*
X108705898Y-72549643D01*
X108633550Y-72588315D01*
X108633548Y-72588316D01*
X108633547Y-72588317D01*
X108473589Y-72719589D01*
X108342317Y-72879547D01*
X108342315Y-72879550D01*
X108340391Y-72883150D01*
X108244769Y-73062043D01*
X108184699Y-73260067D01*
X108164417Y-73466000D01*
X100500500Y-73466000D01*
X100500500Y-68135999D01*
X107889364Y-68135999D01*
X107889364Y-68136000D01*
X108786988Y-68136000D01*
X108754075Y-68193007D01*
X108720000Y-68320174D01*
X108720000Y-68451826D01*
X108754075Y-68578993D01*
X108786988Y-68636000D01*
X107889364Y-68636000D01*
X107946567Y-68849486D01*
X107946570Y-68849492D01*
X108046399Y-69063578D01*
X108181894Y-69257082D01*
X108348917Y-69424105D01*
X108542421Y-69559600D01*
X108756507Y-69659429D01*
X108756516Y-69659433D01*
X108878649Y-69692158D01*
X108938310Y-69728523D01*
X108968839Y-69791369D01*
X108960545Y-69860745D01*
X108916059Y-69914623D01*
X108882552Y-69930593D01*
X108816046Y-69950767D01*
X108721379Y-70001369D01*
X108633550Y-70048315D01*
X108633548Y-70048316D01*
X108633547Y-70048317D01*
X108473589Y-70179589D01*
X108342317Y-70339547D01*
X108244769Y-70522043D01*
X108184699Y-70720067D01*
X108164417Y-70926000D01*
X108184699Y-71131932D01*
X108184700Y-71131934D01*
X108244768Y-71329954D01*
X108342315Y-71512450D01*
X108342317Y-71512452D01*
X108473589Y-71672410D01*
X108567525Y-71749500D01*
X108633550Y-71803685D01*
X108816046Y-71901232D01*
X109014066Y-71961300D01*
X109014065Y-71961300D01*
X109032529Y-71963118D01*
X109220000Y-71981583D01*
X109425934Y-71961300D01*
X109623954Y-71901232D01*
X109806450Y-71803685D01*
X109966410Y-71672410D01*
X110097685Y-71512450D01*
X110195232Y-71329954D01*
X110255300Y-71131934D01*
X110275583Y-70926000D01*
X110255300Y-70720066D01*
X110195232Y-70522046D01*
X110097685Y-70339550D01*
X110045702Y-70276209D01*
X109966410Y-70179589D01*
X109806452Y-70048317D01*
X109806453Y-70048317D01*
X109806450Y-70048315D01*
X109623954Y-69950768D01*
X109557447Y-69930593D01*
X109499009Y-69892296D01*
X109470553Y-69828484D01*
X109481113Y-69759417D01*
X109527337Y-69707023D01*
X109561350Y-69692158D01*
X109683483Y-69659433D01*
X109683492Y-69659429D01*
X109897578Y-69559600D01*
X110091082Y-69424105D01*
X110258105Y-69257082D01*
X110393600Y-69063578D01*
X110493429Y-68849492D01*
X110493432Y-68849486D01*
X110550636Y-68636000D01*
X109653012Y-68636000D01*
X109685925Y-68578993D01*
X109720000Y-68451826D01*
X109720000Y-68320174D01*
X109685925Y-68193007D01*
X109653012Y-68136000D01*
X110550636Y-68136000D01*
X110550635Y-68135999D01*
X110493432Y-67922513D01*
X110493429Y-67922507D01*
X110393600Y-67708422D01*
X110393599Y-67708420D01*
X110258113Y-67514926D01*
X110258108Y-67514920D01*
X110091082Y-67347894D01*
X109897578Y-67212399D01*
X109683492Y-67112570D01*
X109683486Y-67112567D01*
X109561349Y-67079841D01*
X109501689Y-67043476D01*
X109471160Y-66980629D01*
X109479455Y-66911253D01*
X109523940Y-66857375D01*
X109557444Y-66841407D01*
X109623954Y-66821232D01*
X109806450Y-66723685D01*
X109966410Y-66592410D01*
X110097685Y-66432450D01*
X110195232Y-66249954D01*
X110255300Y-66051934D01*
X110275583Y-65846000D01*
X110255300Y-65640066D01*
X110195232Y-65442046D01*
X110097685Y-65259550D01*
X110045702Y-65196209D01*
X109966410Y-65099589D01*
X109806452Y-64968317D01*
X109806453Y-64968317D01*
X109806450Y-64968315D01*
X109623954Y-64870768D01*
X109425934Y-64810700D01*
X109425932Y-64810699D01*
X109425934Y-64810699D01*
X109220000Y-64790417D01*
X109014067Y-64810699D01*
X108816043Y-64870769D01*
X108705898Y-64929643D01*
X108633550Y-64968315D01*
X108633548Y-64968316D01*
X108633547Y-64968317D01*
X108473589Y-65099589D01*
X108342317Y-65259547D01*
X108244769Y-65442043D01*
X108184699Y-65640067D01*
X108164417Y-65846000D01*
X108184699Y-66051932D01*
X108185766Y-66055448D01*
X108244768Y-66249954D01*
X108342315Y-66432450D01*
X108342317Y-66432452D01*
X108473589Y-66592410D01*
X108554564Y-66658863D01*
X108633550Y-66723685D01*
X108816046Y-66821232D01*
X108882551Y-66841405D01*
X108940989Y-66879702D01*
X108969446Y-66943514D01*
X108958887Y-67012581D01*
X108912663Y-67064975D01*
X108878650Y-67079841D01*
X108756514Y-67112567D01*
X108756507Y-67112570D01*
X108542422Y-67212399D01*
X108542420Y-67212400D01*
X108348926Y-67347886D01*
X108348920Y-67347891D01*
X108181891Y-67514920D01*
X108181886Y-67514926D01*
X108046400Y-67708420D01*
X108046399Y-67708422D01*
X107946570Y-67922507D01*
X107946567Y-67922513D01*
X107889364Y-68135999D01*
X100500500Y-68135999D01*
X100500500Y-63306000D01*
X108164417Y-63306000D01*
X108184699Y-63511932D01*
X108184700Y-63511934D01*
X108244768Y-63709954D01*
X108342315Y-63892450D01*
X108376969Y-63934677D01*
X108473589Y-64052410D01*
X108554002Y-64118402D01*
X108633550Y-64183685D01*
X108816046Y-64281232D01*
X109014066Y-64341300D01*
X109014065Y-64341300D01*
X109032529Y-64343118D01*
X109220000Y-64361583D01*
X109425934Y-64341300D01*
X109623954Y-64281232D01*
X109806450Y-64183685D01*
X109966410Y-64052410D01*
X110097685Y-63892450D01*
X110195232Y-63709954D01*
X110255300Y-63511934D01*
X110275583Y-63306000D01*
X110255300Y-63100066D01*
X110195232Y-62902046D01*
X110097685Y-62719550D01*
X110034416Y-62642456D01*
X109966410Y-62559589D01*
X109806452Y-62428317D01*
X109806453Y-62428317D01*
X109806450Y-62428315D01*
X109623954Y-62330768D01*
X109425934Y-62270700D01*
X109425932Y-62270699D01*
X109425934Y-62270699D01*
X109220000Y-62250417D01*
X109014067Y-62270699D01*
X108816043Y-62330769D01*
X108705898Y-62389643D01*
X108633550Y-62428315D01*
X108633548Y-62428316D01*
X108633547Y-62428317D01*
X108473589Y-62559589D01*
X108342317Y-62719547D01*
X108244769Y-62902043D01*
X108184699Y-63100067D01*
X108164417Y-63306000D01*
X100500500Y-63306000D01*
X100500500Y-59896247D01*
X108169500Y-59896247D01*
X108169500Y-61635752D01*
X108181131Y-61694229D01*
X108181132Y-61694230D01*
X108225447Y-61760552D01*
X108291769Y-61804867D01*
X108291770Y-61804868D01*
X108350247Y-61816499D01*
X108350250Y-61816500D01*
X108350252Y-61816500D01*
X110089750Y-61816500D01*
X110089751Y-61816499D01*
X110104568Y-61813552D01*
X110148229Y-61804868D01*
X110148229Y-61804867D01*
X110148231Y-61804867D01*
X110214552Y-61760552D01*
X110258867Y-61694231D01*
X110258867Y-61694229D01*
X110258868Y-61694229D01*
X110270499Y-61635752D01*
X110270500Y-61635750D01*
X110270500Y-61500000D01*
X125494353Y-61500000D01*
X125514834Y-61642456D01*
X125568768Y-61760552D01*
X125574623Y-61773373D01*
X125668872Y-61882143D01*
X125676324Y-61886932D01*
X125689943Y-61895685D01*
X125735698Y-61948489D01*
X125745641Y-62017648D01*
X125716615Y-62081203D01*
X125689943Y-62104315D01*
X125668874Y-62117855D01*
X125668872Y-62117856D01*
X125668872Y-62117857D01*
X125646672Y-62143476D01*
X125574623Y-62226626D01*
X125574622Y-62226628D01*
X125514834Y-62357543D01*
X125494353Y-62500000D01*
X125514834Y-62642456D01*
X125567591Y-62757975D01*
X125574623Y-62773373D01*
X125668872Y-62882143D01*
X125789947Y-62959953D01*
X125789950Y-62959954D01*
X125789949Y-62959954D01*
X125928036Y-63000499D01*
X125928038Y-63000500D01*
X125928039Y-63000500D01*
X126071962Y-63000500D01*
X126071962Y-63000499D01*
X126210053Y-62959953D01*
X126331128Y-62882143D01*
X126331136Y-62882133D01*
X126332688Y-62880790D01*
X126334572Y-62879929D01*
X126338589Y-62877348D01*
X126338960Y-62877925D01*
X126396243Y-62851763D01*
X126413895Y-62850500D01*
X131086105Y-62850500D01*
X131153144Y-62870185D01*
X131167312Y-62880790D01*
X131168866Y-62882137D01*
X131168872Y-62882143D01*
X131289947Y-62959953D01*
X131289950Y-62959954D01*
X131289949Y-62959954D01*
X131428036Y-63000499D01*
X131428038Y-63000500D01*
X131428039Y-63000500D01*
X131571962Y-63000500D01*
X131571962Y-63000499D01*
X131710053Y-62959953D01*
X131831128Y-62882143D01*
X131925377Y-62773373D01*
X131985165Y-62642457D01*
X132005647Y-62500000D01*
X131985165Y-62357543D01*
X131925377Y-62226627D01*
X131831128Y-62117857D01*
X131831125Y-62117855D01*
X131831126Y-62117855D01*
X131770378Y-62078815D01*
X131724624Y-62026011D01*
X131714680Y-61956853D01*
X131743705Y-61893297D01*
X131802483Y-61855523D01*
X131837418Y-61850500D01*
X134586105Y-61850500D01*
X134653144Y-61870185D01*
X134667312Y-61880790D01*
X134668866Y-61882137D01*
X134668872Y-61882143D01*
X134789947Y-61959953D01*
X134789950Y-61959954D01*
X134789949Y-61959954D01*
X134897107Y-61991417D01*
X134926336Y-62000000D01*
X134928036Y-62000499D01*
X134928038Y-62000500D01*
X134928039Y-62000500D01*
X135071962Y-62000500D01*
X135071962Y-62000499D01*
X135210053Y-61959953D01*
X135331128Y-61882143D01*
X135425377Y-61773373D01*
X135485165Y-61642457D01*
X135505647Y-61500000D01*
X135485165Y-61357543D01*
X135425377Y-61226627D01*
X135331128Y-61117857D01*
X135210053Y-61040047D01*
X135210051Y-61040046D01*
X135210049Y-61040045D01*
X135210050Y-61040045D01*
X135071963Y-60999500D01*
X135071961Y-60999500D01*
X134928039Y-60999500D01*
X134928036Y-60999500D01*
X134789949Y-61040045D01*
X134668876Y-61117854D01*
X134668874Y-61117855D01*
X134668872Y-61117857D01*
X134668870Y-61117858D01*
X134667312Y-61119210D01*
X134665427Y-61120070D01*
X134661411Y-61122652D01*
X134661039Y-61122074D01*
X134603757Y-61148237D01*
X134586105Y-61149500D01*
X126413895Y-61149500D01*
X126346856Y-61129815D01*
X126332688Y-61119210D01*
X126331132Y-61117862D01*
X126331128Y-61117857D01*
X126210053Y-61040047D01*
X126210051Y-61040046D01*
X126210049Y-61040045D01*
X126210050Y-61040045D01*
X126071963Y-60999500D01*
X126071961Y-60999500D01*
X125928039Y-60999500D01*
X125928036Y-60999500D01*
X125789949Y-61040045D01*
X125668873Y-61117856D01*
X125668872Y-61117856D01*
X125668872Y-61117857D01*
X125665218Y-61122074D01*
X125574623Y-61226626D01*
X125574622Y-61226628D01*
X125514834Y-61357543D01*
X125494353Y-61500000D01*
X110270500Y-61500000D01*
X110270500Y-59896249D01*
X110270499Y-59896247D01*
X110258868Y-59837770D01*
X110258867Y-59837769D01*
X110214552Y-59771447D01*
X110148230Y-59727132D01*
X110148229Y-59727131D01*
X110089752Y-59715500D01*
X110089748Y-59715500D01*
X108350252Y-59715500D01*
X108350247Y-59715500D01*
X108291770Y-59727131D01*
X108291769Y-59727132D01*
X108225447Y-59771447D01*
X108181132Y-59837769D01*
X108181131Y-59837770D01*
X108169500Y-59896247D01*
X100500500Y-59896247D01*
X100500500Y-59500000D01*
X144494353Y-59500000D01*
X144514834Y-59642456D01*
X144567045Y-59756780D01*
X144574623Y-59773373D01*
X144619213Y-59824833D01*
X144648238Y-59888388D01*
X144649500Y-59906035D01*
X144649500Y-61093963D01*
X144629815Y-61161002D01*
X144619214Y-61175164D01*
X144574625Y-61226623D01*
X144574622Y-61226628D01*
X144514834Y-61357543D01*
X144494353Y-61500000D01*
X144514834Y-61642456D01*
X144568768Y-61760552D01*
X144574623Y-61773373D01*
X144668872Y-61882143D01*
X144789947Y-61959953D01*
X144789950Y-61959954D01*
X144789949Y-61959954D01*
X144897107Y-61991417D01*
X144926336Y-62000000D01*
X144928036Y-62000499D01*
X144928038Y-62000500D01*
X144928039Y-62000500D01*
X145071962Y-62000500D01*
X145071962Y-62000499D01*
X145210053Y-61959953D01*
X145331128Y-61882143D01*
X145425377Y-61773373D01*
X145485165Y-61642457D01*
X145505647Y-61500000D01*
X145485165Y-61357543D01*
X145425377Y-61226627D01*
X145425374Y-61226623D01*
X145380786Y-61175164D01*
X145351762Y-61111608D01*
X145350500Y-61093963D01*
X145350500Y-60000000D01*
X157445207Y-60000000D01*
X157464348Y-60243219D01*
X157521303Y-60480457D01*
X157614668Y-60705861D01*
X157738504Y-60907941D01*
X158476212Y-60170233D01*
X158487482Y-60212292D01*
X158559890Y-60337708D01*
X158662292Y-60440110D01*
X158787708Y-60512518D01*
X158829765Y-60523787D01*
X158092057Y-61261494D01*
X158226052Y-61343607D01*
X158272927Y-61395419D01*
X158284350Y-61464348D01*
X158256693Y-61528511D01*
X158232387Y-61550908D01*
X158193120Y-61578403D01*
X158038402Y-61733121D01*
X157912900Y-61912357D01*
X157912898Y-61912361D01*
X157820426Y-62110668D01*
X157820422Y-62110677D01*
X157763793Y-62322020D01*
X157763793Y-62322023D01*
X157759025Y-62376517D01*
X157744723Y-62539997D01*
X157744723Y-62540002D01*
X157763793Y-62757975D01*
X157763793Y-62757979D01*
X157820422Y-62969322D01*
X157820424Y-62969326D01*
X157820425Y-62969330D01*
X157834960Y-63000500D01*
X157912897Y-63167638D01*
X157912898Y-63167639D01*
X158038402Y-63346877D01*
X158193123Y-63501598D01*
X158359158Y-63617857D01*
X158372361Y-63627102D01*
X158523583Y-63697618D01*
X158576022Y-63743790D01*
X158595174Y-63810984D01*
X158574958Y-63877865D01*
X158523583Y-63922382D01*
X158372361Y-63992898D01*
X158372357Y-63992900D01*
X158193121Y-64118402D01*
X158038402Y-64273121D01*
X157912900Y-64452357D01*
X157912898Y-64452361D01*
X157820426Y-64650668D01*
X157820422Y-64650677D01*
X157763793Y-64862020D01*
X157763793Y-64862024D01*
X157744723Y-65079997D01*
X157744723Y-65080002D01*
X157763793Y-65297975D01*
X157763793Y-65297979D01*
X157820422Y-65509322D01*
X157820424Y-65509326D01*
X157820425Y-65509330D01*
X157866661Y-65608484D01*
X157912897Y-65707638D01*
X157912898Y-65707639D01*
X158038402Y-65886877D01*
X158193123Y-66041598D01*
X158339263Y-66143926D01*
X158382887Y-66198502D01*
X158390079Y-66268001D01*
X158358557Y-66330355D01*
X158298327Y-66365769D01*
X158268138Y-66369500D01*
X157930247Y-66369500D01*
X157871770Y-66381131D01*
X157871769Y-66381132D01*
X157805447Y-66425447D01*
X157761132Y-66491769D01*
X157761131Y-66491770D01*
X157749500Y-66550247D01*
X157749500Y-68689752D01*
X157761131Y-68748229D01*
X157761132Y-68748230D01*
X157805447Y-68814552D01*
X157871769Y-68858867D01*
X157871770Y-68858868D01*
X157930247Y-68870499D01*
X157930250Y-68870500D01*
X157930252Y-68870500D01*
X160069750Y-68870500D01*
X160069751Y-68870499D01*
X160084568Y-68867552D01*
X160128229Y-68858868D01*
X160128229Y-68858867D01*
X160128231Y-68858867D01*
X160194552Y-68814552D01*
X160238867Y-68748231D01*
X160238867Y-68748229D01*
X160238868Y-68748229D01*
X160250499Y-68689752D01*
X160250500Y-68689750D01*
X160250500Y-66550249D01*
X160250499Y-66550247D01*
X160238868Y-66491770D01*
X160238867Y-66491769D01*
X160194552Y-66425447D01*
X160128230Y-66381132D01*
X160128229Y-66381131D01*
X160069752Y-66369500D01*
X160069748Y-66369500D01*
X159731862Y-66369500D01*
X159664823Y-66349815D01*
X159619068Y-66297011D01*
X159609124Y-66227853D01*
X159638149Y-66164297D01*
X159660734Y-66143928D01*
X159806877Y-66041598D01*
X159961598Y-65886877D01*
X160087102Y-65707639D01*
X160179575Y-65509330D01*
X160236207Y-65297977D01*
X160255277Y-65080000D01*
X160236207Y-64862023D01*
X160179575Y-64650670D01*
X160087102Y-64452362D01*
X160087100Y-64452359D01*
X160087099Y-64452357D01*
X159961599Y-64273124D01*
X159961596Y-64273121D01*
X159806877Y-64118402D01*
X159627639Y-63992898D01*
X159476414Y-63922381D01*
X159423977Y-63876210D01*
X159404825Y-63809016D01*
X159425041Y-63742135D01*
X159476414Y-63697618D01*
X159627639Y-63627102D01*
X159806877Y-63501598D01*
X159961598Y-63346877D01*
X160087102Y-63167639D01*
X160179575Y-62969330D01*
X160236207Y-62757977D01*
X160255277Y-62540000D01*
X160236207Y-62322023D01*
X160201548Y-62192675D01*
X160179577Y-62110677D01*
X160179576Y-62110676D01*
X160179575Y-62110670D01*
X160087102Y-61912362D01*
X160087100Y-61912359D01*
X160087099Y-61912357D01*
X159961599Y-61733124D01*
X159922704Y-61694229D01*
X159806877Y-61578402D01*
X159767612Y-61550908D01*
X159723987Y-61496331D01*
X159716795Y-61426832D01*
X159748318Y-61364478D01*
X159773946Y-61343607D01*
X159907941Y-61261494D01*
X159170235Y-60523787D01*
X159212292Y-60512518D01*
X159337708Y-60440110D01*
X159440110Y-60337708D01*
X159512518Y-60212292D01*
X159523787Y-60170234D01*
X160261494Y-60907941D01*
X160261495Y-60907941D01*
X160385331Y-60705861D01*
X160478696Y-60480457D01*
X160535651Y-60243219D01*
X160554792Y-60000000D01*
X160535651Y-59756780D01*
X160478696Y-59519542D01*
X160385331Y-59294138D01*
X160261494Y-59092057D01*
X159523787Y-59829764D01*
X159512518Y-59787708D01*
X159440110Y-59662292D01*
X159337708Y-59559890D01*
X159212292Y-59487482D01*
X159170234Y-59476212D01*
X159907941Y-58738504D01*
X159705861Y-58614668D01*
X159480457Y-58521303D01*
X159243219Y-58464348D01*
X159243220Y-58464348D01*
X159000000Y-58445207D01*
X158756780Y-58464348D01*
X158519542Y-58521303D01*
X158294138Y-58614668D01*
X158092057Y-58738504D01*
X158829766Y-59476212D01*
X158787708Y-59487482D01*
X158662292Y-59559890D01*
X158559890Y-59662292D01*
X158487482Y-59787708D01*
X158476212Y-59829765D01*
X157738504Y-59092057D01*
X157614668Y-59294138D01*
X157521303Y-59519542D01*
X157464348Y-59756780D01*
X157445207Y-60000000D01*
X145350500Y-60000000D01*
X145350500Y-59906035D01*
X145370185Y-59838996D01*
X145380782Y-59824837D01*
X145425377Y-59773373D01*
X145485165Y-59642457D01*
X145505647Y-59500000D01*
X145485165Y-59357543D01*
X145425377Y-59226627D01*
X145331128Y-59117857D01*
X145210053Y-59040047D01*
X145210051Y-59040046D01*
X145210049Y-59040045D01*
X145210050Y-59040045D01*
X145071963Y-58999500D01*
X145071961Y-58999500D01*
X144928039Y-58999500D01*
X144928036Y-58999500D01*
X144789949Y-59040045D01*
X144668873Y-59117856D01*
X144574623Y-59226626D01*
X144574622Y-59226628D01*
X144514834Y-59357543D01*
X144494353Y-59500000D01*
X100500500Y-59500000D01*
X100500500Y-56736420D01*
X116199499Y-56736420D01*
X116228340Y-56881407D01*
X116228343Y-56881417D01*
X116284912Y-57017988D01*
X116284919Y-57018001D01*
X116367048Y-57140915D01*
X116367051Y-57140919D01*
X116471580Y-57245448D01*
X116471584Y-57245451D01*
X116594498Y-57327580D01*
X116594511Y-57327587D01*
X116731082Y-57384156D01*
X116731087Y-57384158D01*
X116731091Y-57384158D01*
X116731092Y-57384159D01*
X116876079Y-57413000D01*
X116876082Y-57413000D01*
X117023920Y-57413000D01*
X117121462Y-57393596D01*
X117168913Y-57384158D01*
X117305495Y-57327584D01*
X117428416Y-57245451D01*
X117532951Y-57140916D01*
X117615084Y-57017995D01*
X117671658Y-56881413D01*
X117686484Y-56806881D01*
X117700500Y-56736420D01*
X124199499Y-56736420D01*
X124228340Y-56881407D01*
X124228343Y-56881417D01*
X124284912Y-57017988D01*
X124284919Y-57018001D01*
X124367048Y-57140915D01*
X124367051Y-57140919D01*
X124471580Y-57245448D01*
X124471584Y-57245451D01*
X124594498Y-57327580D01*
X124594511Y-57327587D01*
X124731082Y-57384156D01*
X124731087Y-57384158D01*
X124731091Y-57384158D01*
X124731092Y-57384159D01*
X124876079Y-57413000D01*
X124876082Y-57413000D01*
X125023920Y-57413000D01*
X125121462Y-57393596D01*
X125168913Y-57384158D01*
X125305495Y-57327584D01*
X125428416Y-57245451D01*
X125532951Y-57140916D01*
X125615084Y-57017995D01*
X125671658Y-56881413D01*
X125686484Y-56806881D01*
X125700500Y-56736420D01*
X125700500Y-56588579D01*
X125671659Y-56443592D01*
X125671658Y-56443591D01*
X125671658Y-56443587D01*
X125627802Y-56337708D01*
X125615087Y-56307011D01*
X125615080Y-56306998D01*
X125532951Y-56184084D01*
X125532948Y-56184080D01*
X125428419Y-56079551D01*
X125428415Y-56079548D01*
X125309364Y-56000000D01*
X132624723Y-56000000D01*
X132640827Y-56184080D01*
X132643793Y-56217975D01*
X132643793Y-56217979D01*
X132700422Y-56429322D01*
X132700424Y-56429326D01*
X132700425Y-56429330D01*
X132722382Y-56476416D01*
X132792897Y-56627638D01*
X132816074Y-56660738D01*
X132918402Y-56806877D01*
X133073123Y-56961598D01*
X133252361Y-57087102D01*
X133450670Y-57179575D01*
X133662023Y-57236207D01*
X133844926Y-57252208D01*
X133879998Y-57255277D01*
X133880000Y-57255277D01*
X133880002Y-57255277D01*
X133908254Y-57252805D01*
X134097977Y-57236207D01*
X134309330Y-57179575D01*
X134507639Y-57087102D01*
X134686877Y-56961598D01*
X134841598Y-56806877D01*
X134967102Y-56627639D01*
X135037618Y-56476414D01*
X135083790Y-56423977D01*
X135150984Y-56404825D01*
X135217865Y-56425041D01*
X135262381Y-56476414D01*
X135332898Y-56627639D01*
X135458402Y-56806877D01*
X135613123Y-56961598D01*
X135792361Y-57087102D01*
X135990670Y-57179575D01*
X136202023Y-57236207D01*
X136384926Y-57252208D01*
X136419998Y-57255277D01*
X136420000Y-57255277D01*
X136420002Y-57255277D01*
X136448254Y-57252805D01*
X136637977Y-57236207D01*
X136849330Y-57179575D01*
X137047639Y-57087102D01*
X137226877Y-56961598D01*
X137381598Y-56806877D01*
X137507102Y-56627639D01*
X137577618Y-56476414D01*
X137623790Y-56423977D01*
X137690984Y-56404825D01*
X137757865Y-56425041D01*
X137802381Y-56476414D01*
X137872898Y-56627639D01*
X137998402Y-56806877D01*
X138153123Y-56961598D01*
X138332361Y-57087102D01*
X138530670Y-57179575D01*
X138742023Y-57236207D01*
X138924926Y-57252208D01*
X138959998Y-57255277D01*
X138960000Y-57255277D01*
X138960002Y-57255277D01*
X138988254Y-57252805D01*
X139177977Y-57236207D01*
X139389330Y-57179575D01*
X139587639Y-57087102D01*
X139766877Y-56961598D01*
X139921598Y-56806877D01*
X140023926Y-56660736D01*
X140078502Y-56617113D01*
X140148001Y-56609921D01*
X140210355Y-56641443D01*
X140245769Y-56701673D01*
X140249500Y-56731862D01*
X140249500Y-57069752D01*
X140261131Y-57128229D01*
X140261132Y-57128230D01*
X140305447Y-57194552D01*
X140371769Y-57238867D01*
X140371770Y-57238868D01*
X140430247Y-57250499D01*
X140430250Y-57250500D01*
X140430252Y-57250500D01*
X142569750Y-57250500D01*
X142569751Y-57250499D01*
X142584568Y-57247552D01*
X142628229Y-57238868D01*
X142628229Y-57238867D01*
X142628231Y-57238867D01*
X142694552Y-57194552D01*
X142738867Y-57128231D01*
X142738867Y-57128229D01*
X142738868Y-57128229D01*
X142747552Y-57084568D01*
X142750500Y-57069748D01*
X142750500Y-56000000D01*
X145664723Y-56000000D01*
X145680827Y-56184080D01*
X145683793Y-56217975D01*
X145683793Y-56217979D01*
X145740422Y-56429322D01*
X145740424Y-56429326D01*
X145740425Y-56429330D01*
X145762382Y-56476416D01*
X145832897Y-56627638D01*
X145856074Y-56660738D01*
X145958402Y-56806877D01*
X146113123Y-56961598D01*
X146292361Y-57087102D01*
X146490670Y-57179575D01*
X146702023Y-57236207D01*
X146884926Y-57252208D01*
X146919998Y-57255277D01*
X146920000Y-57255277D01*
X146920002Y-57255277D01*
X146948254Y-57252805D01*
X147137977Y-57236207D01*
X147349330Y-57179575D01*
X147547639Y-57087102D01*
X147726877Y-56961598D01*
X147881598Y-56806877D01*
X148007102Y-56627639D01*
X148077618Y-56476414D01*
X148123790Y-56423977D01*
X148190984Y-56404825D01*
X148257865Y-56425041D01*
X148302381Y-56476414D01*
X148372898Y-56627639D01*
X148498402Y-56806877D01*
X148653123Y-56961598D01*
X148832361Y-57087102D01*
X149030670Y-57179575D01*
X149242023Y-57236207D01*
X149424926Y-57252208D01*
X149459998Y-57255277D01*
X149460000Y-57255277D01*
X149460002Y-57255277D01*
X149488254Y-57252805D01*
X149677977Y-57236207D01*
X149889330Y-57179575D01*
X150087639Y-57087102D01*
X150254879Y-56969998D01*
X150321082Y-56947673D01*
X150388850Y-56964683D01*
X150436663Y-57015631D01*
X150450000Y-57071575D01*
X150450000Y-57097844D01*
X150456401Y-57157372D01*
X150456403Y-57157379D01*
X150506645Y-57292086D01*
X150506649Y-57292093D01*
X150592809Y-57407187D01*
X150592812Y-57407190D01*
X150707906Y-57493350D01*
X150707913Y-57493354D01*
X150842620Y-57543596D01*
X150842627Y-57543598D01*
X150902155Y-57549999D01*
X150902172Y-57550000D01*
X151750000Y-57550000D01*
X151750000Y-56490747D01*
X151787708Y-56512518D01*
X151927591Y-56550000D01*
X152072409Y-56550000D01*
X152212292Y-56512518D01*
X152250000Y-56490747D01*
X152250000Y-57550000D01*
X153097828Y-57550000D01*
X153097844Y-57549999D01*
X153157372Y-57543598D01*
X153157379Y-57543596D01*
X153292086Y-57493354D01*
X153292093Y-57493350D01*
X153407187Y-57407190D01*
X153407190Y-57407187D01*
X153493350Y-57292093D01*
X153493354Y-57292086D01*
X153543596Y-57157379D01*
X153543598Y-57157372D01*
X153549999Y-57097844D01*
X153550000Y-57097827D01*
X153550000Y-56250000D01*
X152490748Y-56250000D01*
X152512518Y-56212292D01*
X152550000Y-56072409D01*
X152550000Y-55927591D01*
X152512518Y-55787708D01*
X152490748Y-55750000D01*
X153550000Y-55750000D01*
X153550000Y-54902172D01*
X153549999Y-54902155D01*
X153543598Y-54842627D01*
X153543596Y-54842620D01*
X153493354Y-54707913D01*
X153493350Y-54707906D01*
X153407190Y-54592812D01*
X153407187Y-54592809D01*
X153292093Y-54506649D01*
X153292086Y-54506645D01*
X153157379Y-54456403D01*
X153157372Y-54456401D01*
X153097844Y-54450000D01*
X152250000Y-54450000D01*
X152250000Y-55509252D01*
X152212292Y-55487482D01*
X152072409Y-55450000D01*
X151927591Y-55450000D01*
X151787708Y-55487482D01*
X151750000Y-55509252D01*
X151750000Y-54450000D01*
X150902155Y-54450000D01*
X150842627Y-54456401D01*
X150842620Y-54456403D01*
X150707913Y-54506645D01*
X150707906Y-54506649D01*
X150592812Y-54592809D01*
X150592809Y-54592812D01*
X150506649Y-54707906D01*
X150506645Y-54707913D01*
X150456403Y-54842620D01*
X150456401Y-54842627D01*
X150450000Y-54902155D01*
X150450000Y-54928424D01*
X150430315Y-54995463D01*
X150377511Y-55041218D01*
X150308353Y-55051162D01*
X150254877Y-55029999D01*
X150087643Y-54912900D01*
X150087639Y-54912898D01*
X150064637Y-54902172D01*
X149889330Y-54820425D01*
X149889326Y-54820424D01*
X149889322Y-54820422D01*
X149677977Y-54763793D01*
X149460002Y-54744723D01*
X149459998Y-54744723D01*
X149314682Y-54757436D01*
X149242023Y-54763793D01*
X149242020Y-54763793D01*
X149030677Y-54820422D01*
X149030668Y-54820426D01*
X148832361Y-54912898D01*
X148832357Y-54912900D01*
X148653121Y-55038402D01*
X148498402Y-55193121D01*
X148372900Y-55372357D01*
X148372898Y-55372361D01*
X148302382Y-55523583D01*
X148256209Y-55576022D01*
X148189016Y-55595174D01*
X148122135Y-55574958D01*
X148077618Y-55523583D01*
X148015735Y-55390876D01*
X148007102Y-55372362D01*
X148007100Y-55372359D01*
X148007099Y-55372357D01*
X147881599Y-55193124D01*
X147832989Y-55144514D01*
X147726877Y-55038402D01*
X147572416Y-54930247D01*
X147547638Y-54912897D01*
X147396927Y-54842620D01*
X147349330Y-54820425D01*
X147349326Y-54820424D01*
X147349322Y-54820422D01*
X147137977Y-54763793D01*
X146920002Y-54744723D01*
X146919998Y-54744723D01*
X146774682Y-54757436D01*
X146702023Y-54763793D01*
X146702020Y-54763793D01*
X146490677Y-54820422D01*
X146490668Y-54820426D01*
X146292361Y-54912898D01*
X146292357Y-54912900D01*
X146113121Y-55038402D01*
X145958402Y-55193121D01*
X145832900Y-55372357D01*
X145832898Y-55372361D01*
X145740426Y-55570668D01*
X145740422Y-55570677D01*
X145683793Y-55782020D01*
X145683793Y-55782024D01*
X145669899Y-55940842D01*
X145664723Y-56000000D01*
X142750500Y-56000000D01*
X142750500Y-54930252D01*
X142750500Y-54930249D01*
X142750499Y-54930247D01*
X142738868Y-54871770D01*
X142738867Y-54871769D01*
X142694552Y-54805447D01*
X142628230Y-54761132D01*
X142628229Y-54761131D01*
X142569752Y-54749500D01*
X142569748Y-54749500D01*
X140430252Y-54749500D01*
X140430247Y-54749500D01*
X140371770Y-54761131D01*
X140371769Y-54761132D01*
X140305447Y-54805447D01*
X140261132Y-54871769D01*
X140261131Y-54871770D01*
X140249500Y-54930247D01*
X140249500Y-55268138D01*
X140229815Y-55335177D01*
X140177011Y-55380932D01*
X140107853Y-55390876D01*
X140044297Y-55361851D01*
X140023925Y-55339261D01*
X139921599Y-55193124D01*
X139872989Y-55144514D01*
X139766877Y-55038402D01*
X139612416Y-54930247D01*
X139587638Y-54912897D01*
X139436927Y-54842620D01*
X139389330Y-54820425D01*
X139389326Y-54820424D01*
X139389322Y-54820422D01*
X139177977Y-54763793D01*
X138960002Y-54744723D01*
X138959998Y-54744723D01*
X138814682Y-54757436D01*
X138742023Y-54763793D01*
X138742020Y-54763793D01*
X138530677Y-54820422D01*
X138530668Y-54820426D01*
X138332361Y-54912898D01*
X138332357Y-54912900D01*
X138153121Y-55038402D01*
X137998402Y-55193121D01*
X137872900Y-55372357D01*
X137872898Y-55372361D01*
X137802382Y-55523583D01*
X137756209Y-55576022D01*
X137689016Y-55595174D01*
X137622135Y-55574958D01*
X137577618Y-55523583D01*
X137515735Y-55390876D01*
X137507102Y-55372362D01*
X137507100Y-55372359D01*
X137507099Y-55372357D01*
X137381599Y-55193124D01*
X137332989Y-55144514D01*
X137226877Y-55038402D01*
X137072416Y-54930247D01*
X137047638Y-54912897D01*
X136896927Y-54842620D01*
X136849330Y-54820425D01*
X136849326Y-54820424D01*
X136849322Y-54820422D01*
X136637977Y-54763793D01*
X136420002Y-54744723D01*
X136419998Y-54744723D01*
X136274682Y-54757436D01*
X136202023Y-54763793D01*
X136202020Y-54763793D01*
X135990677Y-54820422D01*
X135990668Y-54820426D01*
X135792361Y-54912898D01*
X135792357Y-54912900D01*
X135613121Y-55038402D01*
X135458402Y-55193121D01*
X135332900Y-55372357D01*
X135332898Y-55372361D01*
X135262382Y-55523583D01*
X135216209Y-55576022D01*
X135149016Y-55595174D01*
X135082135Y-55574958D01*
X135037618Y-55523583D01*
X134975735Y-55390876D01*
X134967102Y-55372362D01*
X134967100Y-55372359D01*
X134967099Y-55372357D01*
X134841599Y-55193124D01*
X134792989Y-55144514D01*
X134686877Y-55038402D01*
X134532416Y-54930247D01*
X134507638Y-54912897D01*
X134356927Y-54842620D01*
X134309330Y-54820425D01*
X134309326Y-54820424D01*
X134309322Y-54820422D01*
X134097977Y-54763793D01*
X133880002Y-54744723D01*
X133879998Y-54744723D01*
X133734682Y-54757436D01*
X133662023Y-54763793D01*
X133662020Y-54763793D01*
X133450677Y-54820422D01*
X133450668Y-54820426D01*
X133252361Y-54912898D01*
X133252357Y-54912900D01*
X133073121Y-55038402D01*
X132918402Y-55193121D01*
X132792900Y-55372357D01*
X132792898Y-55372361D01*
X132700426Y-55570668D01*
X132700422Y-55570677D01*
X132643793Y-55782020D01*
X132643793Y-55782024D01*
X132629899Y-55940842D01*
X132624723Y-56000000D01*
X125309364Y-56000000D01*
X125305501Y-55997419D01*
X125305488Y-55997412D01*
X125168917Y-55940843D01*
X125168907Y-55940840D01*
X125023920Y-55912000D01*
X125023918Y-55912000D01*
X124876082Y-55912000D01*
X124876080Y-55912000D01*
X124731092Y-55940840D01*
X124731082Y-55940843D01*
X124594511Y-55997412D01*
X124594498Y-55997419D01*
X124471584Y-56079548D01*
X124471580Y-56079551D01*
X124367051Y-56184080D01*
X124367048Y-56184084D01*
X124284919Y-56306998D01*
X124284912Y-56307011D01*
X124228343Y-56443582D01*
X124228340Y-56443592D01*
X124199500Y-56588579D01*
X124199500Y-56588582D01*
X124199500Y-56736418D01*
X124199500Y-56736420D01*
X124199499Y-56736420D01*
X117700500Y-56736420D01*
X117700500Y-56588579D01*
X117671659Y-56443592D01*
X117671658Y-56443591D01*
X117671658Y-56443587D01*
X117627802Y-56337708D01*
X117615087Y-56307011D01*
X117615080Y-56306998D01*
X117532951Y-56184084D01*
X117532948Y-56184080D01*
X117428419Y-56079551D01*
X117428415Y-56079548D01*
X117305501Y-55997419D01*
X117305488Y-55997412D01*
X117168917Y-55940843D01*
X117168907Y-55940840D01*
X117023920Y-55912000D01*
X117023918Y-55912000D01*
X116876082Y-55912000D01*
X116876080Y-55912000D01*
X116731092Y-55940840D01*
X116731082Y-55940843D01*
X116594511Y-55997412D01*
X116594498Y-55997419D01*
X116471584Y-56079548D01*
X116471580Y-56079551D01*
X116367051Y-56184080D01*
X116367048Y-56184084D01*
X116284919Y-56306998D01*
X116284912Y-56307011D01*
X116228343Y-56443582D01*
X116228340Y-56443592D01*
X116199500Y-56588579D01*
X116199500Y-56588582D01*
X116199500Y-56736418D01*
X116199500Y-56736420D01*
X116199499Y-56736420D01*
X100500500Y-56736420D01*
X100500500Y-53881902D01*
X102499500Y-53881902D01*
X102499500Y-54118097D01*
X102536446Y-54351368D01*
X102609433Y-54575996D01*
X102703766Y-54761133D01*
X102716657Y-54786433D01*
X102855483Y-54977510D01*
X103022490Y-55144517D01*
X103213567Y-55283343D01*
X103312991Y-55334002D01*
X103424003Y-55390566D01*
X103424005Y-55390566D01*
X103424008Y-55390568D01*
X103544412Y-55429689D01*
X103648631Y-55463553D01*
X103881903Y-55500500D01*
X103881908Y-55500500D01*
X104118097Y-55500500D01*
X104351368Y-55463553D01*
X104575992Y-55390568D01*
X104786433Y-55283343D01*
X104977510Y-55144517D01*
X105144517Y-54977510D01*
X105283343Y-54786433D01*
X105390568Y-54575992D01*
X105463553Y-54351368D01*
X105500500Y-54118097D01*
X105500500Y-53881902D01*
X159499500Y-53881902D01*
X159499500Y-54118097D01*
X159536446Y-54351368D01*
X159609433Y-54575996D01*
X159703766Y-54761133D01*
X159716657Y-54786433D01*
X159855483Y-54977510D01*
X160022490Y-55144517D01*
X160213567Y-55283343D01*
X160312991Y-55334002D01*
X160424003Y-55390566D01*
X160424005Y-55390566D01*
X160424008Y-55390568D01*
X160544412Y-55429689D01*
X160648631Y-55463553D01*
X160881903Y-55500500D01*
X160881908Y-55500500D01*
X161118097Y-55500500D01*
X161351368Y-55463553D01*
X161575992Y-55390568D01*
X161786433Y-55283343D01*
X161977510Y-55144517D01*
X162144517Y-54977510D01*
X162283343Y-54786433D01*
X162390568Y-54575992D01*
X162463553Y-54351368D01*
X162500500Y-54118097D01*
X162500500Y-53881902D01*
X162463553Y-53648631D01*
X162390566Y-53424003D01*
X162283342Y-53213566D01*
X162144517Y-53022490D01*
X161977510Y-52855483D01*
X161786433Y-52716657D01*
X161736746Y-52691340D01*
X161575996Y-52609433D01*
X161351368Y-52536446D01*
X161118097Y-52499500D01*
X161118092Y-52499500D01*
X160881908Y-52499500D01*
X160881903Y-52499500D01*
X160648631Y-52536446D01*
X160424003Y-52609433D01*
X160213566Y-52716657D01*
X160104550Y-52795862D01*
X160022490Y-52855483D01*
X160022488Y-52855485D01*
X160022487Y-52855485D01*
X159855485Y-53022487D01*
X159855485Y-53022488D01*
X159855483Y-53022490D01*
X159795862Y-53104550D01*
X159716657Y-53213566D01*
X159609433Y-53424003D01*
X159536446Y-53648631D01*
X159499500Y-53881902D01*
X105500500Y-53881902D01*
X105463553Y-53648631D01*
X105390566Y-53424003D01*
X105283342Y-53213566D01*
X105144517Y-53022490D01*
X104977510Y-52855483D01*
X104786433Y-52716657D01*
X104736746Y-52691340D01*
X104575996Y-52609433D01*
X104351368Y-52536446D01*
X104118097Y-52499500D01*
X104118092Y-52499500D01*
X103881908Y-52499500D01*
X103881903Y-52499500D01*
X103648631Y-52536446D01*
X103424003Y-52609433D01*
X103213566Y-52716657D01*
X103104550Y-52795862D01*
X103022490Y-52855483D01*
X103022488Y-52855485D01*
X103022487Y-52855485D01*
X102855485Y-53022487D01*
X102855485Y-53022488D01*
X102855483Y-53022490D01*
X102795862Y-53104550D01*
X102716657Y-53213566D01*
X102609433Y-53424003D01*
X102536446Y-53648631D01*
X102499500Y-53881902D01*
X100500500Y-53881902D01*
X100500500Y-53003750D01*
X100500726Y-52996263D01*
X100509241Y-52855485D01*
X100518271Y-52706201D01*
X100520076Y-52691340D01*
X100548462Y-52536446D01*
X100571780Y-52409197D01*
X100575364Y-52394663D01*
X100652096Y-52148422D01*
X100660696Y-52120822D01*
X100665998Y-52106841D01*
X100783731Y-51845249D01*
X100790676Y-51832016D01*
X100939080Y-51586526D01*
X100947567Y-51574230D01*
X101124480Y-51348417D01*
X101134395Y-51337226D01*
X101337226Y-51134395D01*
X101348417Y-51124480D01*
X101574230Y-50947567D01*
X101586526Y-50939080D01*
X101832016Y-50790676D01*
X101845249Y-50783731D01*
X102106841Y-50665998D01*
X102120822Y-50660696D01*
X102394668Y-50575362D01*
X102409197Y-50571780D01*
X102691344Y-50520075D01*
X102706201Y-50518271D01*
X102996264Y-50500726D01*
X103003751Y-50500500D01*
X103065892Y-50500500D01*
X161934108Y-50500500D01*
X161996249Y-50500500D01*
X162003736Y-50500726D01*
G37*
G04 #@! TD.AperFunction*
M02*
