G04 #@! TF.GenerationSoftware,KiCad,Pcbnew,8.0.6*
G04 #@! TF.CreationDate,2025-01-17T16:42:44-08:00*
G04 #@! TF.ProjectId,AudioLux,41756469-6f4c-4757-982e-6b696361645f,rev?*
G04 #@! TF.SameCoordinates,Original*
G04 #@! TF.FileFunction,Soldermask,Bot*
G04 #@! TF.FilePolarity,Negative*
%FSLAX46Y46*%
G04 Gerber Fmt 4.6, Leading zero omitted, Abs format (unit mm)*
G04 Created by KiCad (PCBNEW 8.0.6) date 2025-01-17 16:42:44*
%MOMM*%
%LPD*%
G01*
G04 APERTURE LIST*
%ADD10R,2.100000X2.100000*%
%ADD11C,2.100000*%
%ADD12R,1.600000X1.600000*%
%ADD13C,1.600000*%
%ADD14R,1.700000X1.700000*%
%ADD15O,1.700000X1.700000*%
%ADD16C,2.500000*%
%ADD17C,1.000000*%
G04 APERTURE END LIST*
D10*
X141500000Y-56000000D03*
D11*
X138960000Y-56000000D03*
X136420000Y-56000000D03*
X133880000Y-56000000D03*
D10*
X132460000Y-113500000D03*
D11*
X135000000Y-113500000D03*
D10*
X109920000Y-113500000D03*
D11*
X112460000Y-113500000D03*
X115000000Y-113500000D03*
D10*
X159000000Y-99540000D03*
D11*
X159000000Y-97000000D03*
D10*
X159000000Y-83540000D03*
D11*
X159000000Y-81000000D03*
X159000000Y-78460000D03*
X159000000Y-75920000D03*
X159000000Y-73380000D03*
D12*
X145000000Y-67000000D03*
D13*
X140000000Y-67000000D03*
D14*
X129545800Y-70929600D03*
D15*
X129545800Y-73469600D03*
X129545800Y-76009600D03*
X129545800Y-78549600D03*
X129545800Y-81089600D03*
X129545800Y-83629600D03*
X129545800Y-86169600D03*
X129545800Y-88709600D03*
X129545800Y-91249600D03*
X129545800Y-93789600D03*
X129545800Y-96329600D03*
X129545800Y-98869600D03*
D16*
X161000000Y-54000000D03*
D10*
X141000000Y-113500000D03*
D11*
X143540000Y-113500000D03*
D10*
X149460000Y-113500000D03*
D11*
X152000000Y-113500000D03*
D10*
X121420000Y-113500000D03*
D11*
X123960000Y-113500000D03*
X126500000Y-113500000D03*
D17*
X124950000Y-56662500D03*
X116950000Y-56662500D03*
D10*
X159000000Y-67620000D03*
D11*
X159000000Y-65080000D03*
X159000000Y-62540000D03*
X159000000Y-60000000D03*
D16*
X161000000Y-116000000D03*
D14*
X109220000Y-60766000D03*
D15*
X109220000Y-63306000D03*
X109220000Y-65846000D03*
X109220000Y-68386000D03*
X109220000Y-70926000D03*
X109220000Y-73466000D03*
X109220000Y-76006000D03*
X109220000Y-78546000D03*
X109220000Y-81086000D03*
X109220000Y-83626000D03*
X109220000Y-86166000D03*
X109220000Y-88706000D03*
X109220000Y-91246000D03*
X109220000Y-93786000D03*
X109220000Y-96326000D03*
X109220000Y-98866000D03*
D10*
X159000000Y-110000000D03*
D11*
X159000000Y-107460000D03*
X159000000Y-104920000D03*
D10*
X159000000Y-92000000D03*
D11*
X159000000Y-89460000D03*
D16*
X104000000Y-54000000D03*
X104000000Y-116000000D03*
D10*
X152000000Y-56000000D03*
D11*
X149460000Y-56000000D03*
X146920000Y-56000000D03*
M02*
