M48
; DRILL file {KiCad 8.0.6} date 2025-01-17T16:43:21-0800
; FORMAT={-:-/ absolute / metric / decimal}
; #@! TF.CreationDate,2025-01-17T16:43:21-08:00
; #@! TF.GenerationSoftware,Kicad,Pcbnew,8.0.6
; #@! TF.FileFunction,Plated,1,2,PTH
FMAT,2
METRIC
; #@! TA.AperFunction,Plated,PTH,ViaDrill
T1C0.300
; #@! TA.AperFunction,Plated,PTH,ComponentDrill
T2C0.800
; #@! TA.AperFunction,Plated,PTH,ComponentDrill
T3C1.000
; #@! TA.AperFunction,Plated,PTH,ComponentDrill
T4C1.100
%
G90
G05
T1
X108.0Y-109.0
X109.254Y-53.6
X109.5Y-109.0
X111.0Y-77.0
X112.0Y-77.0
X112.25Y-57.062
X112.61Y-94.996
X113.0Y-77.0
X113.15Y-66.612
X113.5Y-81.496
X113.5Y-85.052
X113.5Y-88.862
X114.0Y-77.0
X116.0Y-75.356
X117.0Y-74.5
X117.5Y-73.5
X117.75Y-67.662
X118.21Y-80.556
X118.5Y-64.0
X118.865Y-72.635
X119.411Y-86.326
X119.411Y-87.596
X120.0Y-107.366
X121.05Y-67.662
X121.12Y-76.162
X123.25Y-67.662
X123.698Y-94.996
X124.859Y-86.326
X125.448Y-103.556
X125.448Y-104.826
X125.45Y-67.662
X126.0Y-61.5
X126.0Y-62.5
X126.55Y-67.662
X127.75Y-57.062
X127.75Y-66.362
X128.0Y-88.0
X128.0Y-91.5
X128.948Y-104.056
X130.0Y-64.0
X131.5Y-62.5
X131.5Y-89.0
X132.5Y-91.0
X132.998Y-88.056
X133.511Y-96.52
X134.5Y-86.17
X135.0Y-61.5
X135.0Y-85.5
X135.0Y-94.5
X135.0Y-111.5
X136.5Y-87.0
X137.373Y-104.056
X137.518Y-108.056
X138.0Y-94.5
X140.0Y-75.65
X140.0Y-79.46
X140.0Y-83.27
X142.0Y-74.0
X142.373Y-95.364
X143.0Y-110.5
X143.049Y-67.451
X143.331Y-108.052
X144.928Y-75.65
X144.928Y-76.92
X144.928Y-80.73
X145.0Y-59.5
X145.0Y-61.5
X146.0Y-84.85
X146.85Y-84.85
X147.615Y-87.885
X147.847Y-72.25
X148.5Y-67.6
X148.75Y-87.75
X149.875Y-83.125
X150.5Y-82.5
X151.875Y-85.125
X152.12Y-67.62
X152.5Y-84.5
X155.54Y-78.46
T2
X140.0Y-67.0
X145.0Y-67.0
T3
X109.22Y-60.766
X109.22Y-63.306
X109.22Y-65.846
X109.22Y-68.386
X109.22Y-70.926
X109.22Y-73.466
X109.22Y-76.006
X109.22Y-78.546
X109.22Y-81.086
X109.22Y-83.626
X109.22Y-86.166
X109.22Y-88.706
X109.22Y-91.246
X109.22Y-93.786
X109.22Y-96.326
X109.22Y-98.866
X129.546Y-70.93
X129.546Y-73.47
X129.546Y-76.01
X129.546Y-78.55
X129.546Y-81.09
X129.546Y-83.63
X129.546Y-86.17
X129.546Y-88.71
X129.546Y-91.25
X129.546Y-93.79
X129.546Y-96.33
X129.546Y-98.87
T4
X109.92Y-113.5
X112.46Y-113.5
X115.0Y-113.5
X121.42Y-113.5
X123.96Y-113.5
X126.5Y-113.5
X132.46Y-113.5
X133.88Y-56.0
X135.0Y-113.5
X136.42Y-56.0
X138.96Y-56.0
X141.0Y-113.5
X141.5Y-56.0
X143.54Y-113.5
X146.92Y-56.0
X149.46Y-56.0
X149.46Y-113.5
X152.0Y-56.0
X152.0Y-113.5
X159.0Y-60.0
X159.0Y-62.54
X159.0Y-65.08
X159.0Y-67.62
X159.0Y-73.38
X159.0Y-75.92
X159.0Y-78.46
X159.0Y-81.0
X159.0Y-83.54
X159.0Y-89.46
X159.0Y-92.0
X159.0Y-97.0
X159.0Y-99.54
X159.0Y-104.92
X159.0Y-107.46
X159.0Y-110.0
M30
